<svg width="12" height="48" viewBox="0 0 12 48" fill="none" xmlns="http://www.w3.org/2000/svg">
<path d="M11.4375 47.875H3.625V22.8125C3.625 21.5208 3.52083 20.6458 3.3125 20.1875C3.10417 19.7292 2.875 19.4375 2.625 19.3125C1.875 19.1042 1.3125 18.8542 0.9375 18.5625C0.5625 18.2708 0.375 17.8333 0.375 17.25C0.375 15.8333 1.27083 15.125 3.0625 15.125H8.75C10.5417 15.125 11.4375 15.875 11.4375 17.375V47.875ZM11.6875 5.4375C11.6875 6.77083 11.2083 7.91667 10.25 8.875C9.33333 9.79167 8.20833 10.25 6.875 10.25C5.54167 10.25 4.41667 9.79167 3.5 8.875C2.58333 7.91667 2.125 6.77083 2.125 5.4375C2.125 4.10417 2.58333 2.95833 3.5 2C4.41667 1 5.54167 0.5 6.875 0.5C8.20833 0.5 9.33333 1 10.25 2C11.2083 2.95833 11.6875 4.10417 11.6875 5.4375Z" fill="#D0C5C5"/>
<path d="M11.4375 47.875H3.625V22.8125C3.625 21.5208 3.52083 20.6458 3.3125 20.1875C3.10417 19.7292 2.875 19.4375 2.625 19.3125C1.875 19.1042 1.3125 18.8542 0.9375 18.5625C0.5625 18.2708 0.375 17.8333 0.375 17.25C0.375 15.8333 1.27083 15.125 3.0625 15.125H8.75C10.5417 15.125 11.4375 15.875 11.4375 17.375V47.875ZM11.6875 5.4375C11.6875 6.77083 11.2083 7.91667 10.25 8.875C9.33333 9.79167 8.20833 10.25 6.875 10.25C5.54167 10.25 4.41667 9.79167 3.5 8.875C2.58333 7.91667 2.125 6.77083 2.125 5.4375C2.125 4.10417 2.58333 2.95833 3.5 2C4.41667 1 5.54167 0.5 6.875 0.5C8.20833 0.5 9.33333 1 10.25 2C11.2083 2.95833 11.6875 4.10417 11.6875 5.4375Z" fill="url(#paint0_linear)"/>
<defs>
<linearGradient id="paint0_linear" x1="-10" y1="10" x2="26" y2="58" gradientUnits="userSpaceOnUse">
<stop offset="0.0390625" stop-color="#9E9696"/>
<stop offset="0.761667" stop-color="white" stop-opacity="0"/>
</linearGradient>
</defs>
</svg>
