<svg width="60" height="68" viewBox="0 0 60 68" fill="none" xmlns="http://www.w3.org/2000/svg">
<circle cx="30" cy="22" r="22" fill="#C0EF2F"/>
<path d="M56.1 31.8226L45.8455 20.5535C43.8164 18.5244 40.511 18.5217 38.4628 20.5699C37.8138 21.2189 37.372 21.9962 37.1429 22.8254C35.1029 21.2626 32.1601 21.4181 30.281 23.2972C29.6346 23.9463 29.1928 24.7235 28.9582 25.5499C26.9183 23.9927 23.9755 24.1453 22.0992 26.0245C21.4637 26.66 21.0273 27.4181 20.7901 28.2254L15.9573 23.3926C13.9282 21.3635 10.6228 21.3608 8.57461 23.409C6.54284 25.438 6.54284 28.7435 8.57461 30.7753L27.1419 49.3425L16.1291 51.0716C13.1536 51.497 10.9091 54.0825 10.9091 57.0907C10.9091 59.3462 12.7445 61.1816 15 61.1816H40.7155C44.7219 61.1816 48.4882 59.6216 51.3218 56.788L55.6118 52.498C58.4427 49.6698 59.9999 45.9062 59.9999 41.9052C59.9999 38.1688 58.6145 34.588 56.1 31.8226ZM53.6836 50.5698L49.3936 54.8598C47.0755 57.1779 43.9936 58.4543 40.7154 58.4543H14.9999C14.2472 58.4543 13.6362 57.8433 13.6362 57.0906C13.6362 55.4324 14.8744 54.006 16.5353 53.7688L30.2126 51.6196C30.7199 51.5405 31.1371 51.1833 31.2981 50.6951C31.4562 50.2097 31.3281 49.6724 30.9653 49.3097L10.5027 28.8471C9.53457 27.8789 9.53457 26.3025 10.5164 25.318C11.0018 24.8353 11.6373 24.5925 12.2728 24.5925C12.9083 24.5925 13.5437 24.8353 14.0292 25.3207L27.6738 38.9653C28.2056 39.4971 29.0702 39.4971 29.602 38.9653C29.8665 38.698 30.0003 38.349 30.0003 37.9998C30.0003 37.6507 29.8667 37.3017 29.5993 37.0344L24.0275 31.4626C23.0594 30.4944 23.0594 28.9207 24.0439 27.9362C25.0093 26.9707 26.5884 26.9707 27.5539 27.9362L33.1284 33.5107C33.6602 34.0425 34.5248 34.0425 35.0566 33.5107C35.3211 33.2434 35.4548 32.8944 35.4548 32.5452C35.4548 32.1961 35.3213 31.8471 35.0539 31.5798L32.2093 28.7352C31.2412 27.7671 31.2412 26.1933 32.2257 25.2088C33.1912 24.2434 34.7703 24.2434 35.7357 25.2088L38.5939 28.067C38.5994 28.0697 38.5965 28.0697 38.5965 28.0697L38.5992 28.0723C38.6019 28.075 38.6019 28.075 38.6019 28.075C38.6046 28.0777 38.6046 28.0777 38.6046 28.0777H38.6073C38.61 28.0777 38.61 28.0804 38.61 28.0804C39.1445 28.5877 39.99 28.5768 40.5108 28.0532C41.0426 27.5213 41.0426 26.6568 40.5108 26.1249L40.3936 26.0077C39.9245 25.5387 39.6654 24.914 39.6654 24.2513C39.6654 23.5886 39.9217 22.9668 40.4073 22.4813C41.3782 21.5159 42.9491 21.5186 43.8737 22.4349L54.0846 33.6577C56.1381 35.9188 57.2727 38.8479 57.2727 41.9052C57.2727 45.178 55.999 48.2543 53.6836 50.5698Z" fill="#151414"/>
<path d="M23.4436 22.0539C21.4582 17.6603 17.0728 14.8184 12.2727 14.8184C5.50637 14.8184 0 20.3247 0 27.0911C0 31.8911 2.84178 36.2766 7.23542 38.2648C7.4181 38.3466 7.6091 38.3848 7.79728 38.3848C8.31542 38.3848 8.81182 38.0848 9.04092 37.583C9.34914 36.8957 9.0436 36.0884 8.35914 35.7775C4.93914 34.2311 2.72736 30.822 2.72736 27.0911C2.72736 21.8275 7.00914 17.5456 12.2729 17.5456C16.0038 17.5456 19.4129 19.7574 20.9593 23.1774C21.2675 23.8646 22.0775 24.1729 22.762 23.8591C23.4491 23.5484 23.7545 22.7412 23.4436 22.0539Z" fill="#151414"/>
</svg>
