<svg width="60" height="68" viewBox="0 0 60 68" fill="none" xmlns="http://www.w3.org/2000/svg">
<circle cx="30" cy="22" r="22" fill="#C0EF2F"/>
<g clip-path="url(#clip0)">
<path d="M6.25 40.5002C5.56 40.5002 5 39.9402 5 39.2502V34.5627C5 24.7702 10.7225 16.3952 19.58 13.2277C20.2325 13.0027 20.945 13.3327 21.1775 13.9852C21.41 14.6352 21.0725 15.3502 20.42 15.5827C12.57 18.3877 7.5 25.8402 7.5 34.5627V39.2502C7.5 39.9402 6.94 40.5002 6.25 40.5002Z" fill="black"/>
<path d="M48.2498 30.5826C47.6798 30.5826 47.1673 30.1951 47.0348 29.6176C46.9298 29.1726 46.8173 28.7501 46.6998 28.3426C45.7898 25.1876 44.5098 23.1376 41.6273 20.2126C39.3823 17.9376 37.2973 16.5601 34.6573 15.6101C34.0073 15.3751 33.6698 14.6576 33.9048 14.0076C34.1423 13.3601 34.8523 13.0301 35.5073 13.2551C38.5198 14.3426 40.8823 15.8976 43.4073 18.4551C46.5848 21.6776 48.0749 24.0826 49.1024 27.6501C49.2298 28.0951 49.3524 28.5551 49.4674 29.0451C49.6249 29.7176 49.2099 30.3901 48.5374 30.5476C48.4399 30.5726 48.3423 30.5826 48.2498 30.5826Z" fill="black"/>
<path d="M21.25 45.5H3.75C1.6825 45.5 0 43.8175 0 41.75C0 39.6825 1.6825 38 3.75 38H26.25C26.94 38 27.5 38.56 27.5 39.25C27.5 39.94 26.94 40.5 26.25 40.5H3.75C3.0625 40.5 2.5 41.0625 2.5 41.75C2.5 42.4375 3.0625 43 3.75 43H21.25C21.94 43 22.5 43.56 22.5 44.25C22.5 44.94 21.94 45.5 21.25 45.5Z" fill="black"/>
<path d="M35 25.5C34.31 25.5 33.75 24.94 33.75 24.25V14.25C33.75 12.1825 32.0675 10.5 30 10.5H25C22.9325 10.5 21.25 12.1825 21.25 14.25V24.25C21.25 24.94 20.69 25.5 20 25.5C19.31 25.5 18.75 24.94 18.75 24.25V14.25C18.75 10.8025 21.5525 8 25 8H30C33.4475 8 36.25 10.8025 36.25 14.25V24.25C36.25 24.94 35.69 25.5 35 25.5Z" fill="black"/>
<path d="M43.75 68C34.79 68 27.5 60.71 27.5 51.75C27.5 42.79 34.79 35.5 43.75 35.5C52.71 35.5 60 42.79 60 51.75C60 60.71 52.71 68 43.75 68ZM43.75 38C36.17 38 30 44.17 30 51.75C30 59.33 36.17 65.5 43.75 65.5C51.33 65.5 57.5 59.33 57.5 51.75C57.5 44.17 51.33 38 43.75 38Z" fill="black"/>
<path d="M41.2506 58C40.9181 58 40.6006 57.8675 40.3656 57.635L35.3656 52.635C34.8781 52.1475 34.8781 51.355 35.3656 50.8675C35.8531 50.38 36.6456 50.38 37.1331 50.8675L41.1881 54.9225L49.0581 45.9275C49.5131 45.405 50.3031 45.3575 50.8206 45.81C51.3406 46.265 51.3931 47.0525 50.9381 47.5725L42.1881 57.5725C41.9606 57.8325 41.6356 57.9875 41.2906 58C41.2781 58 41.2656 58 41.2506 58Z" fill="black"/>
</g>
<defs>
<clipPath id="clip0">
<rect width="60" height="60" fill="white" transform="translate(0 8)"/>
</clipPath>
</defs>
</svg>
