<svg width="48" height="66" viewBox="0 0 48 66" fill="none" xmlns="http://www.w3.org/2000/svg">
<circle cx="25.5" cy="40.5" r="22.5" fill="#C0EF2F"/>
<path d="M28.7988 36.3691C28.7988 38.0488 28.457 39.6309 27.7734 41.1152C27.0898 42.5801 26.0645 43.8691 24.6973 44.9824C23.3301 46.0762 21.6113 46.9453 19.541 47.5898C17.4707 48.2148 15.0586 48.5273 12.3047 48.5273C10.7812 48.5273 9.41406 48.4785 8.20312 48.3809C6.99219 48.2832 5.85938 48.1562 4.80469 48V43.4297C6.01562 43.6445 7.29492 43.8105 8.64258 43.9277C9.99023 44.0449 11.3672 44.1035 12.7734 44.1035C14.6875 44.1035 16.3184 43.9375 17.666 43.6055C19.0332 43.2539 20.1465 42.7559 21.0059 42.1113C21.8652 41.4668 22.4902 40.6855 22.8809 39.7676C23.2715 38.8496 23.4668 37.8145 23.4668 36.6621C23.4668 35.6074 23.2324 34.6895 22.7637 33.9082C22.2949 33.127 21.6309 32.4727 20.7715 31.9453C19.9316 31.418 18.916 31.0273 17.7246 30.7734C16.5527 30.5 15.2637 30.3633 13.8574 30.3633H9.49219V26.1738H13.916C15.0684 26.1738 16.1133 26.0273 17.0508 25.7344C18.0078 25.4219 18.8184 24.9824 19.4824 24.416C20.166 23.8496 20.6836 23.1562 21.0352 22.3359C21.4062 21.4961 21.5918 20.5488 21.5918 19.4941C21.5918 17.4434 20.9668 15.9492 19.7168 15.0117C18.4668 14.0742 16.6309 13.6055 14.209 13.6055C12.9199 13.6055 11.5918 13.7324 10.2246 13.9863C8.85742 14.2402 7.39258 14.6211 5.83008 15.1289V10.6758C6.49414 10.4414 7.19727 10.2363 7.93945 10.0605C8.70117 9.86523 9.45312 9.70898 10.1953 9.5918C10.957 9.45508 11.709 9.35742 12.4512 9.29883C13.1934 9.2207 13.9062 9.18164 14.5898 9.18164C16.6211 9.18164 18.4082 9.40625 19.9512 9.85547C21.4941 10.2852 22.7832 10.9102 23.8184 11.7305C24.8535 12.5508 25.6348 13.5469 26.1621 14.7188C26.6895 15.8906 26.9531 17.209 26.9531 18.6738C26.9531 20.8613 26.3867 22.6973 25.2539 24.1816C24.1406 25.666 22.6074 26.8477 20.6543 27.7266C21.6504 27.8828 22.627 28.1953 23.584 28.6641C24.5605 29.1328 25.4297 29.7383 26.1914 30.4805C26.9727 31.2031 27.5977 32.0625 28.0664 33.0586C28.5547 34.0547 28.7988 35.1582 28.7988 36.3691Z" fill="#3E5618"/>
</svg>
