<svg width="48" height="66" viewBox="0 0 48 66" fill="none" xmlns="http://www.w3.org/2000/svg">
<circle cx="25.5" cy="40.5" r="22.5" fill="#C0EF2F"/>
<path d="M29.5312 48H4.30664V43.4297L14.209 33.5859C15.8301 31.9844 17.1484 30.5977 18.1641 29.4258C19.1797 28.2539 19.9707 27.1895 20.5371 26.2324C21.1035 25.2559 21.4844 24.3379 21.6797 23.4785C21.875 22.6191 21.9727 21.6914 21.9727 20.6953C21.9727 19.7578 21.8457 18.8691 21.5918 18.0293C21.3379 17.1699 20.9473 16.418 20.4199 15.7734C19.8926 15.1289 19.209 14.6211 18.3691 14.25C17.5293 13.8789 16.5234 13.6934 15.3516 13.6934C13.7305 13.6934 12.2559 14.0547 10.9277 14.7773C9.59961 15.5 8.37891 16.4375 7.26562 17.5898L4.45312 14.2207C5.89844 12.6973 7.55859 11.4766 9.43359 10.5586C11.3281 9.64063 13.5254 9.18164 16.0254 9.18164C17.7246 9.18164 19.2676 9.43555 20.6543 9.94336C22.0605 10.4512 23.2715 11.1836 24.2871 12.1406C25.3027 13.0977 26.084 14.2695 26.6309 15.6562C27.1973 17.043 27.4805 18.6055 27.4805 20.3438C27.4805 21.8086 27.2852 23.166 26.8945 24.416C26.5039 25.666 25.9082 26.916 25.1074 28.166C24.3262 29.3965 23.3301 30.6758 22.1191 32.0039C20.9277 33.332 19.5117 34.7871 17.8711 36.3691L10.9277 43.1367H29.5312V48Z" fill="#3E5618"/>
</svg>
