<svg width="58" height="52" viewBox="0 0 58 52" fill="none" xmlns="http://www.w3.org/2000/svg">
<g clip-path="url(#clip0_78_1178)">
<path d="M57.2057 19.8114C56.9006 20.5818 56.6832 21.403 56.2752 22.1136C55.234 23.9239 53.6539 25.2358 51.9975 26.4524C49.8961 27.9982 47.6142 29.2415 45.2256 30.4326C45.5345 30.9144 45.8332 31.3708 46.1154 31.831C47.7808 34.5006 49.3152 37.2337 50.1758 40.2885C50.5571 41.6564 50.7847 43.0433 50.5432 44.4645C50.1834 46.5888 48.6274 47.9198 46.4663 48.024C44.2645 48.1295 42.2407 47.4685 40.2614 46.6256C36.9104 45.2095 33.8849 43.2378 30.9597 41.0983C30.8326 41.0055 30.7055 40.9203 30.6025 40.8517L25.9612 46.1197L24.8171 44.8764L29.2537 39.8487C28.2622 39.0173 27.3075 38.2838 26.4341 37.4638C25.9028 36.9655 25.4108 36.8829 24.7065 37.0252C21.7069 37.6209 18.6714 38.0192 15.6197 38.2177C15.1837 38.2469 14.632 38.1579 14.3485 38.388C14.065 38.6181 14.0802 39.1673 13.976 39.5817C13.4294 41.7733 13.0315 43.9904 13.1738 46.2582C13.2244 47.063 13.3826 47.8574 13.6442 48.6202C14.1133 49.9766 15.2231 50.6021 16.6189 50.2487C17.5736 50.0071 18.4736 49.5444 19.3953 49.1719C19.5484 49.0974 19.6962 49.0124 19.8377 48.9177L20.8318 50.2728C19.8382 50.9247 18.7541 51.4267 17.6143 51.7627C16.746 52.0042 15.8689 52.097 14.9828 51.8898C13.2806 51.4957 12.3831 50.2919 11.8937 48.7206C11.3649 47.0248 11.3483 45.2794 11.5835 43.5429C11.8187 41.8064 12.1645 40.08 12.4632 38.3397C11.4933 38.2889 10.4381 38.2634 9.38809 38.1719C7.138 37.9749 4.91588 37.6367 2.87554 36.5803C1.39963 35.8176 0.287301 34.7561 0.0648344 33.0018C0.0514143 32.9557 0.029417 32.9126 0 32.8747V32.2073C0.240264 31.5335 0.410609 30.8241 0.733503 30.1923C1.51913 28.6516 2.75477 27.4808 4.07304 26.399C6.05745 24.7718 8.24779 23.465 10.5195 22.2878C10.9835 22.0475 11.4488 21.8111 11.9751 21.5416L11.253 20.4216L12.6755 19.5635C12.8865 19.875 13.0976 20.2309 13.3582 20.5462C13.4173 20.6015 13.4887 20.6418 13.5665 20.6639C13.6443 20.686 13.7263 20.6893 13.8056 20.6733C16.4922 19.6724 19.1741 18.6588 21.8513 17.6325C21.9996 17.5849 22.1317 17.4968 22.2327 17.3783C23.3412 15.7926 24.4429 14.2023 25.5379 12.6073C25.5588 12.5545 25.5737 12.4995 25.5824 12.4433C24.3887 11.6272 23.1887 10.7704 21.953 9.96949C19.6203 8.45545 17.1897 7.12065 14.5366 6.24476C13.2844 5.83288 12.0107 5.51761 10.667 5.66253C9.18978 5.82271 8.39145 6.60961 8.23381 8.1084C8.09652 9.41777 8.41941 10.6636 8.81477 11.8903C9.03597 12.5819 9.30801 13.2569 9.55209 13.9243L8.13465 14.6642C8.13465 14.6642 8.07491 14.6413 8.05838 14.6057C7.19267 12.6671 6.51001 10.6725 6.5456 8.51901C6.57357 6.76597 7.16979 5.27735 8.86053 4.45994C9.91566 3.94128 11.0598 3.87263 12.2039 4.02518C15.4341 4.44596 18.2957 5.84814 21.0377 7.49312C22.8429 8.57749 24.5591 9.81059 26.3159 10.9776L26.6172 11.1759C27.263 10.3992 27.8884 9.62371 28.5342 8.87368C30.8377 6.2168 33.2963 3.72644 36.2659 1.79797C37.4837 1.00726 38.774 0.371642 40.2144 0.0970548C42.7429 -0.384744 44.7056 0.948786 45.3832 3.61839C45.8485 5.44897 45.7989 7.30497 45.5103 9.147C45.2891 10.5848 44.9434 12.0035 44.6548 13.4311C44.6395 13.5061 44.6332 13.5836 44.6205 13.679L46.2438 13.7603C46.193 14.3082 46.1472 14.8231 46.0938 15.4129C45.5853 15.4129 45.0285 15.432 44.4794 15.404C44.1984 15.39 44.098 15.4956 44.0154 15.7473C43.1041 18.6012 42.0112 21.3939 40.7432 24.1082C40.7092 24.1872 40.693 24.2726 40.6958 24.3586C40.6987 24.4445 40.7205 24.5287 40.7597 24.6053C41.8784 26.0634 43.0187 27.5062 44.1552 28.9516C44.173 28.9745 44.206 28.9847 44.3103 29.047C45.4277 28.4495 46.5985 27.8571 47.7426 27.2049C49.8669 25.9896 51.9237 24.6625 53.5903 22.8459C54.2221 22.1793 54.7547 21.4254 55.1717 20.6072C55.8188 19.2762 55.4985 18.244 54.3009 17.3643C53.8586 17.0388 53.3361 16.8253 52.8479 16.5647C52.7106 16.4922 52.5657 16.4375 52.4475 16.3765C52.5746 15.8223 52.6941 15.3061 52.8136 14.7888C54.7535 15.2972 56.9362 16.7948 57.1256 18.8364C57.1256 18.8771 57.1778 18.9139 57.2045 18.9533L57.2057 19.8114ZM18.5118 27.196C20.8323 29.8775 23.3164 32.4129 25.9498 34.7879C26.0336 34.8526 26.1302 34.8989 26.2331 34.9239C26.336 34.9489 26.4431 34.9519 26.5473 34.9328C28.9253 34.326 31.2983 33.7027 33.6662 33.0628C33.8696 32.9975 34.0434 32.8624 34.1569 32.6814C35.1586 30.9907 36.1578 29.2974 37.1214 27.5838C37.6617 26.6214 38.1384 25.621 38.6469 24.6256C37.4202 23.3099 36.2595 22.0068 35.0328 20.7674C33.806 19.5279 32.517 18.352 31.2432 17.1558C31.1836 17.1008 31.113 17.0591 31.0361 17.0332C30.9592 17.0074 30.8778 16.998 30.797 17.0058C28.3562 17.6236 25.9189 18.2554 23.4849 18.9012C23.3216 18.9518 23.1821 19.0597 23.092 19.205C21.5564 21.8653 20.0296 24.529 18.5118 27.196ZM31.6208 39.5016C33.9421 41.3843 38.0672 43.8988 40.8068 45.0607C42.4149 45.7396 44.0548 46.3244 45.8332 46.3701C47.9435 46.4235 48.9923 45.4141 48.9808 43.3039C48.9732 41.9055 48.5994 40.5796 48.1062 39.2855C47.0549 36.4888 45.5637 33.9463 43.8793 31.4877C43.7001 31.2271 43.5399 31.2424 43.2844 31.3403C40.6529 32.3458 38.0164 33.3374 35.3849 34.3404C35.2215 34.3904 35.075 34.4846 34.9616 34.6124C33.8429 36.2256 32.742 37.8528 31.6208 39.5016ZM42.9564 13.6879C43.2361 12.3721 43.5653 11.0526 43.7903 9.71524C44.1005 7.86686 44.2594 6.00958 43.8628 4.14214C43.4331 2.11832 42.1721 1.28948 40.1826 1.79034C38.7753 2.14502 37.5511 2.88361 36.3892 3.71754C33.9268 5.48583 31.8229 7.63677 29.855 9.92754C29.2296 10.6547 28.6245 11.3996 28.0105 12.137C29.1635 13.1095 30.2593 14.0438 31.3716 14.9578C31.512 15.0459 31.6809 15.0764 31.8432 15.043C35.4853 14.3337 39.1541 13.8353 42.9564 13.6879ZM12.945 22.9412C9.78599 24.4667 6.72358 26.1638 4.1328 28.5817C3.16793 29.4817 2.29204 30.4695 1.87508 31.77C1.57506 32.7069 1.77465 33.5192 2.46112 34.2158C3.2442 35.0129 4.24085 35.4197 5.28199 35.7299C7.7215 36.457 10.2398 36.6096 12.7632 36.6045C13.0378 36.6045 13.1014 36.4659 13.17 36.2498C14.0823 33.3792 15.1865 30.5732 16.4752 27.8507C16.5079 27.7685 16.5212 27.6799 16.5141 27.5917C16.5071 27.5036 16.4799 27.4182 16.4346 27.3422C15.2981 25.8905 14.1387 24.4451 12.945 22.9412ZM33.1793 16.5151C35.2845 18.6686 37.3579 20.7877 39.505 22.9819C40.4915 20.4648 41.4665 17.9808 42.4784 15.399C39.3576 15.5662 36.2511 15.9391 33.1793 16.5151ZM24.1395 35.5265L17.7973 29.033C16.6441 31.5094 15.6505 34.0571 14.8226 36.6604L24.1395 35.5265ZM36.4845 32.2212L42.7416 29.7741L39.8495 26.0723L36.4845 32.2212ZM20.7339 19.7275L14.4832 22.1645L17.374 25.8511L20.7339 19.7275ZM29.4533 15.5413L26.9668 13.4895L24.643 16.7795L29.4533 15.5413ZM32.5755 35.1756L27.7651 36.4163L30.2555 38.4605C31.0386 37.3545 31.781 36.3121 32.5755 35.1756Z" fill="#62AC9E"/>
<path d="M10.3313 14.5593C10.6761 14.5654 11.0162 14.6393 11.3324 14.7769C11.6485 14.9145 11.9345 15.1129 12.174 15.361C12.4134 15.6091 12.6017 15.9019 12.728 16.2227C12.8543 16.5435 12.9161 16.8861 12.91 17.2308C12.9039 17.5756 12.83 17.9157 12.6924 18.2319C12.5549 18.548 12.3564 18.834 12.1083 19.0735C11.8603 19.3129 11.5675 19.5012 11.2466 19.6275C10.9258 19.7538 10.5833 19.8156 10.2385 19.8095C8.81346 19.765 7.63121 18.5497 7.65918 17.1603C7.68842 15.7098 8.90627 14.525 10.3313 14.5593Z" fill="#62AC9E"/>
<path d="M49.4842 17.4347C48.9653 17.4385 48.4569 17.2883 48.0233 17.0033C47.5897 16.7183 47.2503 16.3111 47.0479 15.8333C46.8456 15.3554 46.7894 14.8283 46.8865 14.3186C46.9836 13.8088 47.2296 13.3393 47.5934 12.9692C47.9572 12.5992 48.4225 12.3453 48.9306 12.2396C49.4386 12.1339 49.9666 12.1811 50.4478 12.3754C50.929 12.5696 51.3418 12.9021 51.6342 13.3308C51.9265 13.7595 52.0852 14.2653 52.0902 14.7842C52.0897 15.4793 51.8163 16.1465 51.329 16.6421C50.8416 17.1378 50.1792 17.4224 49.4842 17.4347Z" fill="#62AC9E"/>
<path d="M25.5519 47.6813C25.5575 48.0267 25.4933 48.3698 25.3634 48.6899C25.2334 49.01 25.0403 49.3007 24.7955 49.5445C24.5507 49.7883 24.2593 49.9803 23.9387 50.109C23.6181 50.2378 23.2748 50.3006 22.9294 50.2937C22.2421 50.2752 21.5893 49.9883 21.1111 49.4943C20.6329 49.0003 20.3672 48.3386 20.371 47.6511C20.3748 46.9636 20.6479 46.3049 21.1316 45.8162C21.6153 45.3276 22.2711 45.0479 22.9586 45.0371C23.3033 45.0376 23.6445 45.1066 23.9623 45.2403C24.28 45.374 24.568 45.5696 24.8094 45.8157C25.0508 46.0618 25.2408 46.3535 25.3682 46.6738C25.4957 46.9941 25.5582 47.3366 25.5519 47.6813Z" fill="#62AC9E"/>
<path d="M28.6028 22.0508C29.6445 22.0508 30.6438 22.4632 31.3823 23.1978C32.1207 23.9325 32.5383 24.9296 32.5437 25.9713C32.5437 28.112 30.7741 29.8905 28.6486 29.8918C28.1338 29.8948 27.6234 29.7964 27.1466 29.6021C26.6697 29.4079 26.2359 29.1216 25.8697 28.7597C25.5035 28.3977 25.2122 27.9672 25.0124 27.4927C24.8126 27.0182 24.7082 26.509 24.7052 25.9942C24.7022 25.4793 24.8007 24.9689 24.9949 24.4921C25.1892 24.0153 25.4754 23.5814 25.8373 23.2152C26.1993 22.8491 26.6298 22.5578 27.1043 22.358C27.5788 22.1582 28.088 22.0538 28.6028 22.0508Z" fill="#62AC9E"/>
</g>
<defs>
<clipPath id="clip0_78_1178">
<rect width="57.2057" height="52" fill="white"/>
</clipPath>
</defs>
</svg>
