<svg width="37" height="38" viewBox="0 0 37 38" fill="none" xmlns="http://www.w3.org/2000/svg">
<path d="M28.3462 31.7285L28.8148 31.3707C28.5656 31.1185 28.3557 30.9002 28.1397 30.689C27.8264 30.383 27.8283 30.3914 27.4452 30.6107C26.478 31.1689 25.4066 31.5227 24.2972 31.6503C22.3598 31.8762 20.5687 31.4526 18.9278 30.4247C17.6346 29.6154 16.6476 28.5115 15.9564 27.1502C15.8752 26.9901 15.782 26.9364 15.6062 26.9364C11.7498 26.941 7.89339 26.9422 4.03698 26.94C3.75186 26.94 3.75186 26.94 3.75186 26.6527C3.75186 22.8755 3.75186 19.0983 3.75186 15.3211C3.75186 15.0517 3.75186 15.0513 3.48173 15.0513H0C0.0449609 14.9958 0.0701829 14.9585 0.101619 14.927C1.46629 13.5604 2.83169 12.1948 4.19782 10.8301C4.25096 10.7815 4.29288 10.722 4.32066 10.6556C4.34843 10.5892 4.3614 10.5175 4.35865 10.4456C4.355 7.92336 4.35414 5.40116 4.35609 2.87896C4.35609 2.61066 4.35609 2.61066 4.6222 2.61066C6.01746 2.61066 7.41271 2.61395 8.80759 2.60627C8.99036 2.60627 9.04702 2.6505 9.04519 2.83766C9.03605 3.78184 9.0408 4.72638 9.04154 5.67056C9.04154 5.74696 9.05031 5.82336 9.05506 5.90597L14.9435 0L29.9952 15.0517H29.8153C28.7187 15.0517 27.6221 15.0546 26.5255 15.0484C26.3621 15.0484 26.3179 15.0915 26.3036 15.2604C26.278 15.5558 26.3745 15.6917 26.66 15.8182C28.6339 16.6955 30.0701 18.1273 30.9562 20.1001C31.3305 20.9332 31.541 21.8112 31.6185 22.7217C31.7611 24.3765 31.4105 25.9249 30.6257 27.3812C30.5526 27.5201 30.4609 27.6517 30.3892 27.7924C30.3665 27.8367 30.3567 27.9229 30.383 27.9507C30.6707 28.2545 30.9679 28.5506 31.2968 28.8854L31.6624 28.4065C31.8894 28.6303 32.0751 28.8112 32.2586 28.9947C33.5989 30.3335 34.9381 31.6729 36.2762 33.0127C37.0438 33.7803 37.2189 34.9054 36.7148 35.8163C36.1979 36.7495 35.0991 37.258 34.1001 37.02C33.5445 36.8877 33.1315 36.5331 32.74 36.1398C31.3351 34.7281 29.9274 33.3195 28.5169 31.9139C28.4742 31.8722 28.4351 31.825 28.3462 31.7285ZM27.2555 13.9134C23.1615 9.8194 19.0918 5.7483 15.0466 1.70011L2.83108 13.913C2.86471 13.9156 2.93526 13.9255 3.0058 13.9258C3.51134 13.9258 4.01688 13.9258 4.52278 13.9258C4.90805 13.9258 4.87698 13.8853 4.87698 14.2786C4.87698 18.0314 4.87698 21.7842 4.87698 25.5371C4.87698 25.8167 4.87698 25.8178 5.10252 25.8178C8.46545 25.8178 11.8284 25.8178 15.1913 25.8178C15.2546 25.8178 15.3182 25.8087 15.4088 25.8017C14.8664 23.9799 14.9453 22.2027 15.6131 20.4181H15.3701C13.9445 20.4181 12.5189 20.4159 11.0933 20.421C10.9343 20.421 10.874 20.3907 10.874 20.212C10.8801 17.5923 10.8801 14.9726 10.874 12.3529C10.874 12.1702 10.9314 12.1307 11.1024 12.131C13.7099 12.1357 16.3174 12.1357 18.9249 12.131C19.1055 12.131 19.1647 12.1764 19.1632 12.3654C19.1548 13.5654 19.1585 14.7655 19.1599 15.9655C19.1599 16.0452 19.1749 16.1249 19.1863 16.2375C21.0794 15.1836 23.0551 14.8554 25.1675 15.3141C25.1675 14.8868 25.1741 14.5041 25.1646 14.1218C25.1609 13.9701 25.2096 13.9211 25.3609 13.9229C25.9213 13.9302 26.482 13.9262 27.0424 13.9251C27.1129 13.9244 27.1835 13.9178 27.2555 13.9134ZM16.171 23.4009C16.2097 27.4185 19.4242 30.5851 23.3859 30.5654C27.3337 30.5468 30.5139 27.3121 30.5065 23.3877C30.4981 19.4809 27.3326 16.2324 23.3384 16.2378C19.3873 16.2448 16.2152 19.4074 16.171 23.4009ZM12.0232 16.2638C12.0232 17.1959 12.0269 18.128 12.0196 19.0594C12.0196 19.2257 12.0649 19.2787 12.2349 19.2787C13.4835 19.2722 14.7321 19.2722 15.9805 19.2787C16.1114 19.2787 16.1907 19.24 16.2583 19.1249C16.697 18.3781 17.2562 17.7314 17.8999 17.1539C17.9711 17.0843 18.014 16.9908 18.0202 16.8914C18.0282 15.7524 18.0235 14.6134 18.0279 13.4748C18.0279 13.3198 17.9829 13.262 17.8195 13.2624C15.9555 13.267 14.0913 13.267 12.2268 13.2624C12.0685 13.2624 12.017 13.3081 12.0181 13.47C12.0265 14.4014 12.0232 15.3331 12.0232 16.2638ZM35.8734 34.7632C35.8668 34.3889 35.7564 34.099 35.5221 33.864C34.2856 32.6212 33.0482 31.3801 31.8101 30.1406C31.7088 30.0387 31.6532 30.0789 31.5743 30.1586C31.0899 30.6473 30.606 31.1364 30.1121 31.6163C29.9911 31.7344 30.0123 31.7991 30.1216 31.9087C30.7328 32.5112 31.3363 33.1212 31.9435 33.728C32.5678 34.352 33.1837 34.9847 33.8216 35.5944C34.1871 35.9432 34.6338 36.028 35.1072 35.8284C35.5915 35.6237 35.8339 35.2402 35.8734 34.7643V34.7632ZM5.47939 9.51052C5.52377 9.48099 5.56648 9.44902 5.60732 9.41475C6.34863 8.6749 7.08848 7.93347 7.82686 7.19046C7.88054 7.12751 7.91031 7.04765 7.91093 6.96493C7.91642 5.96043 7.91093 4.95448 7.91715 3.95071C7.91715 3.79792 7.86707 3.75259 7.71757 3.75406C7.0479 3.76027 6.37788 3.76356 5.70712 3.75406C5.5196 3.75077 5.47354 3.80742 5.47427 3.99056C5.48085 5.75646 5.47829 7.52237 5.47829 9.28827L5.47939 9.51052ZM29.6596 28.8642L28.7629 29.7371C28.9369 29.8998 29.1219 30.0661 29.2995 30.2401C29.6055 30.5394 29.604 30.5416 29.9082 30.2375C30.0957 30.0504 30.2825 29.8625 30.4707 29.6739L29.6596 28.8642Z" fill="#685443"/>
<path d="M17.3975 23.3824C17.4442 23.0099 17.4625 22.6692 17.5327 22.3395C18.0412 19.9529 19.4777 18.4048 21.8047 17.6971C22.2291 17.5681 22.6886 17.5542 23.1316 17.4851C23.2884 17.461 23.3286 17.5312 23.3224 17.6792C23.3118 17.9351 23.3147 18.191 23.3224 18.4469C23.3257 18.5646 23.2859 18.6037 23.1682 18.6121C22.6078 18.6516 22.058 18.7473 21.5401 18.974C20.022 19.6374 19.0544 20.768 18.6812 22.3874C18.6162 22.6688 18.6081 22.9638 18.565 23.2508C18.5577 23.299 18.5006 23.3761 18.4648 23.3772C18.1249 23.3864 17.7857 23.3824 17.3975 23.3824Z" fill="#685443"/>
</svg>
