<svg width="36" height="36" viewBox="0 0 36 36" fill="none" xmlns="http://www.w3.org/2000/svg">
<g clip-path="url(#clip0_32_1017)">
<path d="M18.8471 16.8965L28.9714 27.0208C29.4763 27.5257 29.6218 28.138 29.368 28.8238C29.2682 29.0896 29.1048 29.3285 28.8923 29.5191C28.6797 29.7097 28.4248 29.846 28.1504 29.9158C27.876 29.9855 27.5906 29.9866 27.3198 29.9189C27.0491 29.8511 26.8014 29.7167 26.5991 29.5277C26.4018 29.346 26.2202 29.1488 25.9957 28.9243L25.7281 29.1919C24.9956 29.9243 24.2631 30.6568 23.5297 31.3902C22.7728 32.1471 21.7277 32.19 21.0429 31.5032C20.3581 30.8164 20.4066 29.779 21.1654 29.0201C21.8979 28.2877 22.6304 27.5552 23.3628 26.8227L23.6129 26.5727L20.9927 23.9526C20.6021 24.3432 20.2288 24.7317 19.8413 25.104C19.0069 25.8986 17.8357 25.8213 17.2078 24.9375C16.9972 24.638 16.8955 24.2733 16.9191 23.9019C16.9428 23.5306 17.0903 23.1742 17.3381 22.8899C17.6609 22.531 18.0141 22.1987 18.3541 21.855C18.441 21.768 18.5289 21.6801 18.6256 21.5835L16.39 19.3479C14.246 20.6944 11.968 21.1177 9.56136 20.5139C7.65616 20.0589 6.00799 18.9103 4.93376 17.2887C2.5592 13.7657 3.16005 9.18063 6.34307 6.23632C9.37394 3.43089 14.062 3.20066 17.2439 5.74392C20.6558 8.47216 21.2248 13.2249 18.8471 16.8965ZM15.4807 8.79927C14.7936 8.11106 13.9116 7.64831 12.9462 7.46954C11.9807 7.29077 10.9752 7.40401 10.0567 7.79492C9.13817 8.18584 8.34791 8.83689 7.78582 9.66578C7.22372 10.4947 6.91502 11.4642 6.89873 12.4517C6.88245 13.4393 7.15932 14.4006 7.69434 15.2141C8.22935 16.0275 8.9985 16.6567 9.90454 17.022C10.8106 17.3873 11.8128 17.4723 12.7846 17.2664C13.7564 17.0604 14.6541 16.5727 15.3642 15.8649C15.836 15.3946 16.2133 14.8387 16.4745 14.229C16.7357 13.6192 16.8757 12.9677 16.8865 12.3115C16.8973 11.6553 16.7788 11.0074 16.5375 10.4048C16.2963 9.80211 15.9372 9.25656 15.4807 8.79927Z" fill="#323232"/>
</g>
<defs>
<clipPath id="clip0_32_1017">
<rect width="32.435" height="17.0711" fill="white" transform="translate(12.071 0.5) rotate(45)"/>
</clipPath>
</defs>
</svg>
