<svg width="30" height="30" viewBox="0 0 30 30" fill="none" xmlns="http://www.w3.org/2000/svg">
<circle cx="15" cy="15" r="15" fill="#323232"/>
<g clip-path="url(#clip0_32_944)">
<path d="M14.4599 18.2629C14.325 18.3199 14.1955 18.388 14.0728 18.4666C13.51 18.898 12.9551 19.3399 12.3963 19.778C12.0985 20.0152 11.8166 19.9339 11.7014 19.5733C11.311 18.3681 10.9222 17.1626 10.5351 15.9568C10.5232 15.9026 10.4964 15.8525 10.4574 15.8118C10.4185 15.771 10.3688 15.7412 10.3137 15.7253C9.32112 15.374 8.32849 15.0169 7.33586 14.6541C7.23367 14.6196 7.14286 14.5595 7.07281 14.48C7.04022 14.4359 7.01866 14.3851 7.00981 14.3317C7.00095 14.2782 7.00504 14.2235 7.02176 14.1718C7.03849 14.1201 7.06739 14.0729 7.10621 14.0338C7.14503 13.9946 7.19271 13.9647 7.24553 13.9463C7.43611 13.864 7.63464 13.798 7.83019 13.7253C12.0191 12.1681 16.2086 10.611 20.3988 9.05379C20.4859 9.01759 20.58 8.99997 20.6748 9.00213C20.907 9.02222 21.0421 9.22882 20.9914 9.46603C20.8386 10.1821 20.6844 10.8992 20.5289 11.6172C20.0226 13.9606 19.517 16.3046 19.0121 18.6493C18.8861 19.2328 18.761 19.8172 18.632 20.3997C18.5575 20.7335 18.2726 20.8397 17.9838 20.6388C16.9395 19.91 15.8992 19.1783 14.851 18.4533C14.726 18.3802 14.5952 18.3165 14.4599 18.2629ZM11.222 15.7005C11.2272 15.7533 11.2365 15.8058 11.2498 15.8573C11.4715 16.6117 11.6945 17.366 11.9188 18.1204C11.9446 18.2093 11.9873 18.2753 12.0945 18.2686C12.2017 18.2619 12.2414 18.1835 12.2543 18.0888C12.301 17.7454 12.3536 17.403 12.3933 17.0587C12.4272 16.6979 12.6051 16.3639 12.8896 16.1271C14.2535 14.918 15.6084 13.6976 16.9663 12.4819L17.9073 11.6392C17.9649 11.5875 18.0344 11.534 17.9649 11.4479C17.8954 11.3618 17.8269 11.4192 17.7604 11.4603L17.7257 11.4804L13.0057 14.281C12.5213 14.568 12.0379 14.8549 11.5525 15.1419C11.4511 15.1985 11.3671 15.2801 11.309 15.3782C11.251 15.4763 11.2209 15.5875 11.222 15.7005Z" fill="white"/>
</g>
<defs>
<clipPath id="clip0_32_944">
<rect width="14" height="11.74" fill="white" transform="translate(7 9)"/>
</clipPath>
</defs>
</svg>
