<svg width="36" height="36" viewBox="0 0 36 36" fill="none" xmlns="http://www.w3.org/2000/svg">
<circle cx="17.9167" cy="17.9167" r="17.9167" fill="white"/>
<g clip-path="url(#clip0_65_847)">
<path d="M26.2771 16.8831C26.2754 18.1023 26.122 19.3163 25.8204 20.4958C25.3491 22.2584 24.2889 23.42 22.5952 24.0029C20.7048 24.6509 18.7644 24.8491 16.7877 24.7745C16.7042 24.7638 16.6195 24.776 16.5422 24.8099C16.4648 24.8438 16.3977 24.8981 16.3476 24.9674C15.8409 25.5961 15.3187 26.2121 14.8006 26.8313C14.5269 27.1563 14.2304 27.2501 13.9058 27.119C13.5812 26.9879 13.4418 26.7343 13.4501 26.3069C13.4605 25.7048 13.4709 25.1017 13.498 24.4953C13.5073 24.296 13.4564 24.2043 13.2608 24.1393C11.7605 23.6449 10.6848 22.6815 10.1895 21.1181C10.0163 20.5991 9.88064 20.0676 9.78378 19.5281C9.39167 17.2235 9.51223 14.8579 10.1365 12.6076C10.2423 12.2521 10.3695 11.9037 10.5173 11.5643C11.103 10.1501 12.21 9.36791 13.5947 8.93098C15.4092 8.3587 17.2642 8.26492 19.1421 8.4365C20.2537 8.53575 21.3499 8.76934 22.4079 9.13239C24.1412 9.73131 25.2055 10.944 25.7122 12.7227C26.0836 14.0769 26.2736 15.4765 26.2771 16.8831ZM13.963 23.0012C13.963 24.0818 13.963 25.1326 13.963 26.1918C13.9831 26.304 14.021 26.412 14.0754 26.5115C14.1796 26.4682 14.2767 26.4089 14.3636 26.3357C15.0919 25.4949 15.8274 24.6541 16.5359 23.7941C16.6225 23.6778 16.7365 23.5859 16.8671 23.5268C16.9977 23.4678 17.1407 23.4435 17.2829 23.4562C18.9621 23.4893 20.6122 23.2921 22.2134 22.7305C23.4618 22.2957 24.2608 21.4517 24.5501 20.1526C24.7399 19.326 24.8696 18.486 24.9381 17.6397C25.0529 16.0535 24.8722 14.4593 24.4055 12.9422C24.0247 11.6954 23.261 10.8535 22.049 10.4187C21.0759 10.0725 20.0645 9.8523 19.0381 9.76327C17.3797 9.61194 15.7411 9.69401 14.1233 10.1491C12.7302 10.5412 11.8198 11.398 11.411 12.8335C11.0969 13.9402 10.9142 15.0816 10.8668 16.233C10.8065 17.6579 10.9105 19.0646 11.3132 20.4404C11.6482 21.5838 12.3171 22.4044 13.4335 22.8094L13.963 23.0012Z" fill="url(#paint0_linear_65_847)"/>
<path d="M13.1647 13.9678C13.2822 13.7141 13.3488 13.4296 13.5174 13.2378C13.7912 12.9326 14.0992 12.6614 14.435 12.43C14.7409 12.2169 15.0592 12.2861 15.286 12.5898C15.6606 13.0982 16.0278 13.614 16.3639 14.15C16.6562 14.6146 16.572 14.9685 16.1558 15.3095C16.0258 15.397 15.9128 15.5087 15.8229 15.6388C15.7469 15.7826 15.6699 15.9915 15.7188 16.129C16.1808 17.5144 17.0058 18.5651 18.3999 19.0607C18.7745 19.1939 19.0158 19.1672 19.2135 18.8262C19.6526 18.0802 20.1873 18.1559 20.8074 18.6206C21.2236 18.9285 21.621 19.2514 22.0174 19.5797C22.264 19.7843 22.3024 20.0635 22.1786 20.3502C21.9747 20.8443 21.6233 21.2595 21.1747 21.5363C21.0324 21.63 20.8696 21.6862 20.7009 21.6998C20.5323 21.7134 20.363 21.6839 20.2081 21.6141C18.1815 20.7615 16.3732 19.6116 15.0509 17.7701C14.3851 16.8419 13.8971 15.8167 13.4653 14.7606C13.3603 14.5123 13.2729 14.2566 13.1647 13.9678Z" fill="url(#paint1_linear_65_847)"/>
<path d="M22.1308 16.3264C22.1308 16.3711 22.1464 16.4244 22.1308 16.4574C22.0798 16.5448 22.0143 16.6237 21.955 16.7057C21.877 16.6301 21.7469 16.5651 21.7313 16.4766C21.672 16.1835 21.6689 15.8777 21.6137 15.5836C21.235 13.5875 19.8731 12.3237 17.8995 12.1308C17.7487 12.1158 17.6051 12.0849 17.6176 11.8984C17.6321 11.6928 17.7965 11.697 17.9515 11.7066C19.8835 11.8249 21.4826 13.2316 21.9643 15.2532C22.0486 15.6038 22.0913 15.9661 22.1526 16.3189L22.1308 16.3264Z" fill="url(#paint2_linear_65_847)"/>
<path d="M20.798 16.0096C20.7688 16.0459 20.7127 16.1876 20.6242 16.2132C20.4453 16.2622 20.4089 16.1066 20.3745 15.9542C20.2923 15.6036 20.2414 15.237 20.102 14.9109C19.7898 14.1884 19.2239 13.7695 18.4696 13.615C18.3936 13.599 18.3166 13.5831 18.2397 13.5735C18.0867 13.5553 17.9712 13.4744 18.0316 13.3188C18.0606 13.2719 18.1005 13.2331 18.1477 13.2058C18.1949 13.1784 18.2479 13.1634 18.3021 13.1621C18.9556 13.2197 19.565 13.5234 20.0125 14.0147C20.4921 14.5486 20.7262 15.1944 20.798 16.0096Z" fill="url(#paint3_linear_65_847)"/>
<path d="M18.3208 14.3652C18.9867 14.3812 19.7108 15.1933 19.6598 15.805C19.651 15.8488 19.6318 15.8897 19.6038 15.9241C19.5759 15.9585 19.5401 15.9853 19.4996 16.0021C19.4351 16.016 19.3446 15.9361 19.2759 15.8828C19.2489 15.8615 19.2478 15.8018 19.2395 15.7581C19.1448 15.2487 18.867 14.9215 18.3666 14.783C18.3187 14.7579 18.2769 14.7222 18.2442 14.6785C18.2115 14.6348 18.1886 14.5843 18.1772 14.5304C18.1668 14.4793 18.2917 14.3972 18.3208 14.3652Z" fill="url(#paint4_linear_65_847)"/>
</g>
<defs>
<linearGradient id="paint0_linear_65_847" x1="14.5252" y1="7.65142" x2="21.6152" y2="26.0933" gradientUnits="userSpaceOnUse">
<stop stop-color="#4F4842"/>
<stop offset="0.848958" stop-color="#282728"/>
</linearGradient>
<linearGradient id="paint1_linear_65_847" x1="15.8629" y1="11.9531" x2="19.1836" y2="21.3499" gradientUnits="userSpaceOnUse">
<stop stop-color="#4F4842"/>
<stop offset="0.848958" stop-color="#282728"/>
</linearGradient>
<linearGradient id="paint2_linear_65_847" x1="18.9643" y1="11.5149" x2="20.821" y2="16.4431" gradientUnits="userSpaceOnUse">
<stop stop-color="#4F4842"/>
<stop offset="0.848958" stop-color="#282728"/>
</linearGradient>
<linearGradient id="paint3_linear_65_847" x1="18.842" y1="13.047" x2="19.9752" y2="16.0638" gradientUnits="userSpaceOnUse">
<stop stop-color="#4F4842"/>
<stop offset="0.848958" stop-color="#282728"/>
</linearGradient>
<linearGradient id="paint4_linear_65_847" x1="18.618" y1="14.3036" x2="19.2261" y2="15.9177" gradientUnits="userSpaceOnUse">
<stop stop-color="#4F4842"/>
<stop offset="0.848958" stop-color="#282728"/>
</linearGradient>
<clipPath id="clip0_65_847">
<rect width="16.7222" height="18.8125" fill="white" transform="translate(9.55554 8.36328)"/>
</clipPath>
</defs>
</svg>
