<svg width="36" height="36" viewBox="0 0 36 36" fill="none" xmlns="http://www.w3.org/2000/svg">
<circle cx="17.9167" cy="17.9167" r="17.9167" fill="white"/>
<g clip-path="url(#clip0_65_836)">
<path d="M18.3742 26.4222C17.0386 26.4252 15.7211 26.1129 14.5289 25.5109C14.4688 25.4775 14.4021 25.4575 14.3335 25.4524C14.2649 25.4473 14.196 25.4572 14.1316 25.4814C12.7458 25.9269 11.3585 26.3685 9.96943 26.8064C9.85122 26.8441 9.73299 26.895 9.62299 26.7867C9.51298 26.6783 9.56388 26.5601 9.60328 26.4419C10.0553 25.1119 10.508 23.782 10.9611 22.4521C10.9859 22.3908 10.9959 22.3246 10.9905 22.2588C10.9851 22.1929 10.9643 22.1292 10.9299 22.0728C10.17 20.7583 9.80248 19.2535 9.87091 17.7366C10.0138 14.6794 11.4225 12.3447 14.0216 10.7455C15.445 9.87656 17.1003 9.46403 18.765 9.56333C20.4695 9.64269 22.1107 10.2332 23.475 11.2582C24.8393 12.2831 25.8636 13.6949 26.4145 15.3099C27.0075 17.0726 26.9991 18.9822 26.3906 20.7396C25.7821 22.497 24.6079 24.003 23.0519 25.0216C21.6623 25.9339 20.0366 26.4207 18.3742 26.4222ZM12.2172 24.2401L12.3896 24.1925C13.0315 23.9889 13.6768 23.7886 14.3171 23.5768C14.3922 23.5472 14.4734 23.5365 14.5535 23.5457C14.6337 23.5549 14.7104 23.5836 14.7769 23.6293C15.6098 24.1612 16.5522 24.498 17.5336 24.6145C18.7356 24.7628 19.9555 24.5846 21.0649 24.0987C22.1743 23.6127 23.1324 22.8369 23.8384 21.8528C24.6132 20.7811 25.0474 19.5009 25.0843 18.179C25.1212 16.857 24.7591 15.5546 24.0453 14.4414C23.161 13.0249 21.7739 11.995 20.1622 11.5582C18.9312 11.2043 17.6234 11.2192 16.4007 11.6009C15.2076 11.9547 14.1384 12.6376 13.3156 13.5712C12.3209 14.6801 11.7308 16.0931 11.6413 17.5801C11.5519 19.0671 11.9684 20.5407 12.823 21.7609C12.8769 21.8296 12.9115 21.9115 12.9234 21.998C12.9352 22.0846 12.9238 22.1727 12.8903 22.2534C12.6654 22.9069 12.4487 23.5571 12.2172 24.2401Z" fill="url(#paint0_linear_65_836)"/>
<path d="M20.6711 22.0408C20.19 22.0169 19.715 21.9234 19.2607 21.7633C17.3808 21.1985 16.0508 19.9424 14.959 18.3761C14.5764 17.8261 14.2431 17.2547 14.138 16.5832C14.0179 15.9338 14.152 15.2631 14.5124 14.7098C14.599 14.5671 14.7142 14.4439 14.8506 14.3479C14.9871 14.2518 15.1419 14.185 15.3054 14.1515C15.5205 14.1105 15.7356 14.0678 15.9523 14.0382C16.07 14.0137 16.1926 14.0309 16.299 14.0869C16.4053 14.143 16.4889 14.2343 16.5352 14.3453C16.7979 14.9298 17.0458 15.5209 17.2888 16.1136C17.3922 16.3681 17.2576 16.5881 17.1246 16.7884C17.0031 16.9624 16.8504 17.1168 16.7207 17.281C16.6895 17.3236 16.6665 17.4156 16.6895 17.4451C17.3693 18.4139 18.1902 19.2217 19.2952 19.7044C19.3182 19.7192 19.344 19.7292 19.371 19.7336C19.398 19.7379 19.4257 19.7367 19.4522 19.7299C19.4787 19.7231 19.5035 19.711 19.5251 19.6941C19.5467 19.6773 19.5645 19.6562 19.5776 19.6321C19.7533 19.4006 19.9437 19.1773 20.1276 18.9491C20.3115 18.7209 20.5003 18.647 20.7959 18.7603C21.011 18.8407 21.2195 18.9425 21.4263 19.041C21.7925 19.2151 22.1537 19.3957 22.5182 19.573C22.6003 19.6104 22.6697 19.6711 22.7176 19.7476C22.7655 19.8241 22.7898 19.913 22.7875 20.0032C22.8499 21.2724 21.8352 21.9209 20.9174 22.0178C20.8418 22.0342 20.768 22.0358 20.6711 22.0408Z" fill="url(#paint1_linear_65_836)"/>
</g>
<defs>
<linearGradient id="paint0_linear_65_836" x1="14.6951" y1="8.89782" x2="20.651" y2="26.3275" gradientUnits="userSpaceOnUse">
<stop stop-color="#4F4842"/>
<stop offset="0.848958" stop-color="#282728"/>
</linearGradient>
<linearGradient id="paint1_linear_65_836" x1="16.6783" y1="13.7258" x2="19.2602" y2="21.9276" gradientUnits="userSpaceOnUse">
<stop stop-color="#4F4842"/>
<stop offset="0.848958" stop-color="#282728"/>
</linearGradient>
<clipPath id="clip0_65_836">
<rect width="17.3005" height="17.2989" fill="white" transform="translate(9.55554 9.55469)"/>
</clipPath>
</defs>
</svg>
