<svg width="60" height="60" viewBox="0 0 60 60" fill="none" xmlns="http://www.w3.org/2000/svg">
<path d="M9.90402 47.4814C8.01355 47.4814 6.47559 49.0194 6.47559 50.9099C6.47559 52.8003 8.01355 54.3383 9.90402 54.3383C11.7946 54.3383 13.3325 52.8003 13.3325 50.9099C13.3325 49.0193 11.7944 47.4814 9.90402 47.4814ZM9.90402 52.5814C8.98234 52.5814 8.23246 51.8317 8.23246 50.9099C8.23246 49.9882 8.98223 49.2383 9.90402 49.2383C10.8258 49.2383 11.5756 49.9882 11.5756 50.9099C11.5755 51.8316 10.8257 52.5814 9.90402 52.5814Z" fill="#009C77"/>
<path d="M57.1602 40.1916H48.3721L56.5051 35.5092C57.1624 35.1307 57.6332 34.5189 57.8303 33.7866C58.0275 33.0541 57.9278 32.2888 57.5493 31.6314L50.4998 19.3867C49.7186 18.0298 47.9789 17.5614 46.622 18.3425L37.3719 23.668L42.7734 14.462C43.1572 13.8077 43.2634 13.0432 43.0723 12.3091C42.8811 11.5751 42.4156 10.9596 41.7614 10.5757L29.5752 3.42539C28.2247 2.63285 26.4813 3.08695 25.6887 4.43754L19.8084 14.4592V2.63531C19.8084 1.18219 18.6261 0 17.1731 0H2.63531C1.1823 0 0 1.1823 0 2.63531V18.0449C0 18.5302 0.393281 18.9233 0.878437 18.9233C1.36371 18.9233 1.75687 18.5302 1.75687 18.0449V2.63531C1.75687 2.15086 2.15086 1.75687 2.63531 1.75687H17.173C17.6575 1.75687 18.0514 2.15086 18.0514 2.63531V57.1601C18.0514 57.7571 17.5658 58.2428 16.9689 58.2429C16.968 58.2429 16.9673 58.243 16.9666 58.243H2.63531C2.15086 58.243 1.75687 57.849 1.75687 57.3646V21.5589C1.75687 21.0736 1.36371 20.6804 0.878437 20.6804C0.393281 20.6804 0 21.0736 0 21.5589V57.3647C0 58.8177 1.1823 60 2.63531 60L35.164 59.9999C35.6493 59.9999 36.0424 59.6067 36.0424 59.1214C36.0424 58.6362 35.6493 58.243 35.164 58.243H19.6574C19.7549 57.9681 19.8084 57.6727 19.8084 57.3647V57.1602V56.6361L20.703 56.121C20.8509 56.2343 21.0354 56.3022 21.236 56.3022H30.0721C30.5573 56.3022 30.9505 55.909 30.9505 55.4237V50.2213L33.0223 49.0286L33.2041 48.9238V55.4237C33.2041 55.909 33.5973 56.3022 34.0826 56.3022H42.9186C43.4039 56.3022 43.7971 55.909 43.7971 55.4237V45.0635C43.7971 44.5782 43.4039 44.1851 42.9186 44.1851H41.4352L45.3203 41.9483H57.16C57.757 41.9483 58.2428 42.4341 58.2428 43.0311V57.16C58.2428 57.757 57.757 58.2428 57.16 58.2428H38.6779C38.1926 58.2428 37.7994 58.6359 37.7994 59.1212C37.7994 59.6065 38.1926 59.9996 38.6779 59.9996H57.1602C58.7261 59.9996 60 58.7258 60 57.1598V43.0312C60 41.4654 58.7262 40.1916 57.1602 40.1916ZM19.8084 25.4978L22.4591 21.0048L29.869 25.3763L26.2719 31.4735L19.8084 27.6604V25.4978ZM19.8084 34.3567L23.3413 36.4409L19.8084 42.4291V34.3567ZM19.8084 44.5836C19.8892 44.6072 19.9714 44.6197 20.0536 44.6197C20.3542 44.6197 20.647 44.4653 20.8111 44.1875L25.3009 36.577C25.4193 36.3764 25.453 36.1369 25.395 35.9113C25.3368 35.6857 25.1914 35.4925 24.9907 35.374L19.8087 32.3167V29.7L26.1359 33.4329C26.2721 33.5134 26.4265 33.5546 26.5822 33.5546C26.6557 33.5546 26.7293 33.5455 26.8016 33.5269C27.0272 33.4686 27.2204 33.3233 27.3389 33.1226L31.8287 25.5121C32.0752 25.0943 31.9364 24.5557 31.5184 24.309L22.5954 19.0448C22.1781 18.7986 21.6391 18.9371 21.3925 19.3552L19.8087 22.0398V17.9305L27.2044 5.32629C27.5066 4.81125 28.1718 4.63828 28.6863 4.94039L40.8724 12.0907H40.8725C41.3875 12.3928 41.5605 13.0576 41.2584 13.5724L19.8086 50.1291V44.5836H19.8084ZM31.524 33.6346L35.6749 31.252L39.9574 38.7136L33.8176 42.2374L30.1874 35.9123L30.7096 35.0224L31.524 33.6346ZM26.8256 41.6416L28.8152 45.1084L22.7483 48.5905L22.9018 48.3287L23.8221 46.7604L26.8256 41.6416ZM29.1937 54.5453H23.4402L29.1937 51.2329V54.5453ZM42.0404 45.9421V54.5453H34.9613V47.9123L35.7219 47.4744L38.3837 45.9421H42.0404ZM19.8084 54.6088V53.601L21.6853 50.4022C21.8548 50.6002 22.0997 50.7101 22.3516 50.7101C22.5 50.7101 22.6504 50.6726 22.7882 50.5935L30.4518 46.195C30.6539 46.0791 30.8014 45.8875 30.8624 45.6626C30.9233 45.4377 30.8924 45.1978 30.7764 44.9958L27.8496 39.8964L29.1632 37.6577L32.7309 43.8739C32.8934 44.157 33.1893 44.3153 33.4937 44.3153C33.6421 44.3153 33.7924 44.2778 33.9302 44.1987L41.5938 39.8002C42.0146 39.5588 42.16 39.0217 41.9184 38.601L36.7615 29.6155C36.6455 29.4134 36.454 29.2658 36.2291 29.2049C36.0042 29.1438 35.7643 29.175 35.5623 29.2909L33.3162 30.5801L35.5757 26.7292L47.4983 19.865C48.0158 19.5673 48.6793 19.7457 48.977 20.2631L56.0264 32.5078C56.1707 32.7585 56.2089 33.0504 56.1335 33.3295C56.0583 33.6089 55.8789 33.8422 55.6282 33.9864L19.8084 54.6088Z" fill="#009C77"/>
<path d="M15.1654 4.16992H4.8052C4.31992 4.16992 3.92676 4.56309 3.92676 5.04836V13.8844C3.92676 14.3697 4.31992 14.7629 4.8052 14.7629H15.1654C15.6507 14.7629 16.0438 14.3697 16.0438 13.8844V5.04836C16.0438 4.56309 15.6505 4.16992 15.1654 4.16992ZM14.2868 13.006H5.68363V5.9268H14.2868V13.006Z" fill="#009C77"/>
<path d="M15.1654 17.0166H4.8052C4.31992 17.0166 3.92676 17.4098 3.92676 17.895V26.7311C3.92676 27.2164 4.31992 27.6095 4.8052 27.6095H15.1654C15.6507 27.6095 16.0438 27.2164 16.0438 26.7311V17.895C16.0438 17.4099 15.6505 17.0166 15.1654 17.0166ZM14.2868 25.8527H5.68363V18.7735H14.2868V25.8527Z" fill="#009C77"/>
<path d="M15.1654 29.8633H4.8052C4.31992 29.8633 3.92676 30.2564 3.92676 30.7417V39.5777C3.92676 40.0629 4.31992 40.4561 4.8052 40.4561H15.1654C15.6507 40.4561 16.0438 40.0629 16.0438 39.5777V30.7417C16.0438 30.2564 15.6505 29.8633 15.1654 29.8633ZM14.2868 38.6992H5.68363V31.6202H14.2868V38.6992Z" fill="#009C77"/>
<path d="M55.7643 44.1846H46.9282C46.443 44.1846 46.0498 44.5777 46.0498 45.063V55.4232C46.0498 55.9085 46.443 56.3016 46.9282 56.3016H55.7643C56.2496 56.3016 56.6427 55.9085 56.6427 55.4232V45.063C56.6427 44.5779 56.2495 44.1846 55.7643 44.1846ZM54.8857 54.5448H47.8066V45.9416H54.8857V54.5448Z" fill="#009C77"/>
<path d="M38.0455 13.2444L29.1224 7.98024C28.705 7.73403 28.1662 7.87266 27.9194 8.29056L26.6685 10.4107C26.4221 10.8285 26.5608 11.3671 26.9788 11.6138C27.3965 11.86 27.9352 11.7215 28.1819 11.3034L28.9862 9.93997L36.396 14.3114L32.799 20.4088L25.3892 16.0372L26.396 14.3309C26.6425 13.9131 26.5037 13.3745 26.0856 13.1278C25.6681 12.8815 25.1293 13.0201 24.8826 13.4381L23.4296 15.9009C23.1831 16.3188 23.3219 16.8574 23.7399 17.104L32.6629 22.3683C32.7992 22.4487 32.9537 22.49 33.1093 22.49C33.1828 22.49 33.2563 22.4809 33.3287 22.4623C33.5542 22.404 33.7475 22.2587 33.866 22.058L38.3558 14.4474C38.6022 14.0296 38.4633 13.4911 38.0455 13.2444Z" fill="#009C77"/>
<path d="M53.0597 32.2062L47.9027 23.2207C47.6611 22.7998 47.1241 22.6545 46.7035 22.8961L39.0398 27.2946C38.8378 27.4106 38.6901 27.6021 38.6292 27.827C38.5683 28.0519 38.5992 28.2918 38.7152 28.4938L43.8722 37.4793C44.0346 37.7623 44.3305 37.9205 44.6349 37.9205C44.7833 37.9205 44.9337 37.883 45.0715 37.8039L52.7351 33.4054C53.1559 33.164 53.3011 32.6269 53.0597 32.2062ZM44.9587 35.8429L40.6761 28.3813L46.816 24.8574L51.0985 32.3189L44.9587 35.8429Z" fill="#009C77"/>
</svg>
