<svg width="60" height="60" viewBox="0 0 60 60" fill="none" xmlns="http://www.w3.org/2000/svg">
<g clip-path="url(#clip0)">
<path d="M51.2122 8.78672C45.5458 3.12059 38.0123 0 29.999 0C25.5773 0 21.3182 0.939961 17.3407 2.79375C16.9003 2.99895 16.7097 3.5223 16.9149 3.96258C17.1201 4.40285 17.6436 4.5934 18.0837 4.38832C21.5626 2.76703 25.2711 1.88965 29.1194 1.77375V11.3047L14.3541 21.7804C14.3231 21.8024 14.2939 21.8265 14.2663 21.8521C14.2579 21.8598 14.2505 21.8684 14.2425 21.8764C14.2238 21.8951 14.2055 21.9139 14.1888 21.9341C14.1799 21.9448 14.1719 21.9559 14.1636 21.9669C14.1492 21.9859 14.1354 22.005 14.1226 22.025C14.1147 22.0373 14.1075 22.05 14.1002 22.0628C14.0888 22.0827 14.0783 22.103 14.0684 22.1237C14.0621 22.1372 14.056 22.1508 14.0503 22.1646C14.0415 22.1861 14.0339 22.208 14.0268 22.2301C14.0224 22.2439 14.0178 22.2575 14.0141 22.2716C14.0076 22.296 14.0028 22.3208 13.9985 22.3458C13.9963 22.3581 13.9933 22.3703 13.9917 22.3827C13.9868 22.4204 13.9837 22.4586 13.9837 22.4972V26.8236C13.9837 27.3095 14.3776 27.7032 14.8633 27.7032C15.3491 27.7032 15.7429 27.3095 15.7429 26.8236V24.1999L29.1196 33.6903V48.0506L15.7429 38.5601V30.3422C15.7429 29.8563 15.3491 29.4626 14.8633 29.4626C14.3776 29.4626 13.9837 29.8563 13.9837 30.3422V38.5513L5.6266 44.2853C3.10473 39.9996 1.75824 35.1035 1.75824 29.9998C1.75824 25.1252 3.02 20.3205 5.40711 16.105C7.72238 12.0162 11.0534 8.53652 15.0397 6.04184C15.4515 5.78414 15.5765 5.24156 15.3187 4.82965C15.061 4.41785 14.5183 4.29258 14.1065 4.55062C9.87289 7.2 6.33535 10.8955 3.87629 15.2381C1.33965 19.7176 -0.000976562 24.8222 -0.000976562 30C-0.000976562 38.0133 3.11961 45.5469 8.78574 51.2133C14.452 56.8794 21.9856 60 29.9989 60C38.0122 60 45.5458 56.8795 51.2121 51.2133C56.8783 45.5469 59.9988 38.0133 59.9988 30C59.9989 21.9867 56.8784 14.4531 51.2122 8.78672ZM16.3831 22.4977L29.999 12.8377L43.6148 22.4977L29.999 32.1577L16.3831 22.4977ZM49.9682 49.9692C44.6343 55.3032 37.5423 58.2408 29.999 58.2408C22.4557 58.2408 15.3638 55.3031 10.0297 49.9692C8.72973 48.6693 7.57344 47.2643 6.56598 45.7745L14.8546 40.0874L29.4901 50.4708C29.4903 50.4709 29.4904 50.471 29.4907 50.4711C29.5237 50.4946 29.5586 50.5159 29.5953 50.5348C29.5977 50.5359 29.6001 50.5368 29.6025 50.5379C29.612 50.5427 29.6217 50.5462 29.6313 50.5507C29.6596 50.5637 29.6882 50.5755 29.7177 50.5854C29.7307 50.5897 29.7437 50.5936 29.7568 50.5973C29.7848 50.6054 29.8129 50.6119 29.8415 50.617C29.8537 50.6193 29.8657 50.6218 29.878 50.6236C29.9182 50.6292 29.9587 50.6329 29.999 50.6329H29.9991C30.0396 50.6329 30.08 50.6292 30.1203 50.6236C30.1325 50.622 30.1445 50.6193 30.1566 50.6171C30.1851 50.612 30.2134 50.6054 30.2416 50.5973C30.2547 50.5936 30.2676 50.5898 30.2805 50.5855C30.3098 50.5755 30.3385 50.5638 30.367 50.5507C30.3765 50.5462 30.3863 50.5427 30.3957 50.538C30.398 50.5369 30.4005 50.5361 30.4028 50.5349C30.4395 50.516 30.4743 50.4947 30.5075 50.4712C30.5077 50.4711 30.5079 50.471 30.5081 50.4709L45.1434 40.0875L53.4321 45.7746C52.4246 47.2643 51.2681 48.6694 49.9682 49.9692ZM46.0146 38.5515V35.7544C46.0146 35.2686 45.6207 34.8748 45.135 34.8748C44.6492 34.8748 44.2554 35.2686 44.2554 35.7544V38.5603L30.8786 48.0509V33.6907L44.2554 24.2003V32.2362C44.2554 32.722 44.6492 33.1158 45.135 33.1158C45.6207 33.1158 46.0146 32.722 46.0146 32.2362V22.4977C46.0146 22.4591 46.0116 22.4209 46.0066 22.3832C46.005 22.3707 46.002 22.3586 45.9999 22.3463C45.9956 22.3212 45.9908 22.2963 45.9843 22.2718C45.9806 22.2578 45.9759 22.2441 45.9716 22.2304C45.9645 22.2082 45.9569 22.1864 45.9481 22.165C45.9425 22.1511 45.9363 22.1375 45.93 22.1241C45.9202 22.1033 45.9096 22.083 45.8982 22.0631C45.8909 22.0504 45.8837 22.0377 45.8758 22.0254C45.863 22.0054 45.8492 21.9861 45.8348 21.9673C45.8265 21.9562 45.8185 21.9451 45.8096 21.9345C45.7929 21.9143 45.7746 21.8954 45.7559 21.8768C45.7478 21.8687 45.7405 21.8602 45.732 21.8523C45.7044 21.8268 45.6753 21.8026 45.6441 21.7806L30.8786 11.3046V1.77422C38.0922 1.99348 44.8422 4.90477 49.9684 10.0308C55.3021 15.3647 58.2398 22.4566 58.2398 30C58.2398 35.1037 56.8934 39.9998 54.3716 44.2856L46.0146 38.5515Z" fill="#009C77"/>
</g>
<defs>
<clipPath id="clip0">
<rect width="60" height="60" fill="white"/>
</clipPath>
</defs>
</svg>
