<svg width="60" height="60" viewBox="0 0 60 60" fill="none" xmlns="http://www.w3.org/2000/svg">
<g clip-path="url(#clip0)">
<path d="M53.0899 42.3425C52.7608 42.2061 52.3821 42.2815 52.1301 42.5333L42.506 52.1575C42.2541 52.4094 42.1788 52.7882 42.3152 53.1172C42.4513 53.4464 42.7727 53.6609 43.1288 53.6609H52.753C53.2394 53.6609 53.6336 53.2667 53.6336 52.7802V43.156C53.6335 42.7999 53.4189 42.4788 53.0899 42.3425ZM45.2546 51.8997L51.8721 45.2822V51.8997H45.2546Z" fill="#009C77"/>
<path d="M59.4565 28.2263C59.1274 28.0899 58.7487 28.1652 58.4967 28.417L55.8592 31.0546V13.1212C55.8592 12.6348 55.4648 12.2406 54.9785 12.2406H48.212L50.6682 9.78432C50.6686 9.78396 50.6689 9.78349 50.6693 9.78314L53.036 7.41642C53.5431 6.90935 53.8223 6.23482 53.8223 5.51763C53.8223 4.80044 53.5431 4.12614 53.036 3.61883L50.2992 0.882033C49.7921 0.374961 49.1176 0.0957031 48.4004 0.0957031C47.6832 0.0957031 47.0088 0.374961 46.5016 0.882033L44.1337 3.24993L41.2725 6.11118L35.1432 12.2405H7.80705V3.52813C7.80705 3.04169 7.41271 2.64747 6.92638 2.64747C3.10723 2.6477 0 5.7547 0 9.57408V46.9788C0 47.0438 0.00750002 47.1071 0.0208594 47.168C0.1425 48.7886 0.843635 50.2944 2.01539 51.4374C3.2679 52.659 4.9213 53.3317 6.67115 53.3317H33.5819L28.5137 58.4C28.2618 58.6519 28.1865 59.0306 28.3228 59.3598C28.459 59.6888 28.7803 59.9034 29.1364 59.9034H59.1195C59.6058 59.9034 60.0001 59.5092 60.0001 59.0227V29.0399C60.0001 28.6838 59.7854 28.3626 59.4565 28.2263ZM47.7473 2.12762C48.1073 1.76739 48.6939 1.76739 49.0539 2.12762L51.7908 4.86454C52.151 5.22466 52.151 5.81095 51.7908 6.17118L50.0457 7.91634L46.002 3.87278L47.7473 2.12762ZM44.7566 5.11825L48.8001 9.1617L47.1842 10.7776L43.1409 6.73415L44.7566 5.11825ZM58.239 38.9355H56.6142C56.1278 38.9355 55.7336 39.3297 55.7336 39.8161C55.7336 40.3026 56.1278 40.6968 56.6142 40.6968H58.239V43.3506H56.6142C56.1278 43.3506 55.7336 43.7448 55.7336 44.2313C55.7336 44.7177 56.1278 45.112 56.6142 45.112H58.239V47.7657H56.6142C56.1278 47.7657 55.7336 48.1599 55.7336 48.6463C55.7336 49.1328 56.1278 49.527 56.6142 49.527H58.239V52.1808H56.6142C56.1278 52.1808 55.7336 52.5752 55.7336 53.0615C55.7336 53.548 56.1278 53.9422 56.6142 53.9422H58.239V58.1424H31.2624L40.1579 49.247C40.5018 48.903 40.5018 48.3455 40.1579 48.0016C40.1184 47.9621 40.076 47.9279 40.0316 47.8974C39.6887 47.6625 39.2169 47.6971 38.9123 48.0016L35.3432 51.5706H6.67126C4.00032 51.5706 1.85016 49.4854 1.76555 46.8193C1.77059 46.6519 1.7836 46.486 1.80446 46.3219C1.80457 46.321 1.80469 46.32 1.80481 46.3191C1.81465 46.2412 1.82649 46.1636 1.83996 46.0865C1.84149 46.0777 1.84313 46.0689 1.84465 46.0601C1.85696 45.9913 1.87079 45.9229 1.8859 45.8547C1.89012 45.8357 1.89457 45.8167 1.89903 45.7979C1.91239 45.7402 1.9268 45.6829 1.94227 45.6258C1.95071 45.5949 1.9595 45.5643 1.96852 45.5335C1.98141 45.4887 1.99477 45.4441 2.00895 45.3999C2.02313 45.3557 2.03825 45.312 2.0536 45.2683C2.06426 45.2377 2.07481 45.2071 2.08629 45.1768C2.10774 45.1191 2.13047 45.062 2.15391 45.0054C2.16059 44.9891 2.16715 44.9726 2.17407 44.9563C2.20418 44.886 2.23547 44.8165 2.26852 44.7479C2.26993 44.7449 2.27122 44.742 2.27262 44.7391C2.96145 43.3136 4.28626 42.2508 5.87614 41.9211C5.8806 41.9201 5.88505 41.9191 5.8895 41.9181C5.96239 41.9032 6.03599 41.8905 6.11005 41.8786C6.12236 41.8766 6.13466 41.8742 6.1472 41.8723C6.21411 41.8621 6.28173 41.8541 6.34935 41.8465C6.36833 41.8444 6.3872 41.8415 6.4063 41.8396C6.47158 41.833 6.53744 41.8287 6.60329 41.8246C6.62415 41.8233 6.64501 41.8211 6.66587 41.82C6.75212 41.8157 6.83908 41.8135 6.92638 41.8135C7.41271 41.8135 7.80705 41.4193 7.80705 40.9328V34.5474C7.80705 34.0609 7.41271 33.6667 6.92638 33.6667C6.44005 33.6667 6.04572 34.0609 6.04572 34.5474V40.1076C4.5586 40.2957 3.17825 40.9589 2.08981 42.0218C1.97532 42.1336 1.8668 42.2499 1.7611 42.368V9.57408C1.7611 7.0263 3.61571 4.90321 6.0456 4.48391V13.1212V31.0248V31.0249C6.0456 31.5113 6.43994 31.9056 6.92626 31.9056C7.41259 31.9056 7.80693 31.5113 7.80693 31.0249V31.0248V14.0019H33.382L28.5135 18.8703C28.1696 19.2144 28.1696 19.7719 28.5135 20.1158C28.8575 20.4596 29.4151 20.4596 29.7589 20.1158L36.1307 13.744C36.131 13.7437 36.1311 13.7435 36.1313 13.7434L41.8952 7.97951L45.9385 12.0231L45.4642 12.4974C45.4638 12.4978 45.4633 12.4981 45.463 12.4985L27.7058 30.256L23.6623 26.2125L27.1625 22.7123C27.5064 22.3683 27.5064 21.8108 27.1625 21.4669C26.8185 21.123 26.261 21.123 25.9171 21.4669L21.7941 25.5898C21.7721 25.6118 21.7515 25.6351 21.7321 25.659C21.7257 25.667 21.7199 25.6756 21.7138 25.6839C21.7014 25.7004 21.6892 25.717 21.6779 25.7344C21.6714 25.7445 21.6656 25.7548 21.6595 25.7652C21.6497 25.7816 21.6404 25.7983 21.6318 25.8152C21.6262 25.8263 21.6211 25.8374 21.616 25.8489C21.6081 25.8661 21.6009 25.8837 21.5942 25.9013C21.5918 25.9075 21.5888 25.9133 21.5866 25.9195L19.8708 30.7799L18.7011 34.0939C18.6856 34.1379 18.6745 34.1827 18.6661 34.2278H15.7374C15.251 34.2278 14.8567 34.622 14.8567 35.1085C14.8567 35.5949 15.251 35.9891 15.7374 35.9891H40.1258C40.6122 35.9891 41.0065 35.5949 41.0065 35.1085C41.0065 34.622 40.6122 34.2278 40.1258 34.2278H22.6281L27.9988 32.3319C28.0033 32.3303 28.0075 32.3281 28.012 32.3264C28.0328 32.3187 28.0533 32.31 28.0736 32.3008C28.0817 32.297 28.0898 32.2935 28.0976 32.2896C28.1187 32.2791 28.1395 32.2675 28.1599 32.2551C28.1664 32.2511 28.1732 32.2474 28.1797 32.2433C28.2009 32.2297 28.2215 32.2149 28.2418 32.1992C28.2468 32.1953 28.2521 32.1919 28.257 32.1879C28.2815 32.1682 28.3055 32.147 28.3283 32.1243L46.4506 14.002H54.0977V32.816L41.5005 45.4134C41.1566 45.7574 41.1566 46.3149 41.5005 46.6588C41.522 46.6803 41.5443 46.7004 41.5674 46.7193C41.7289 46.8509 41.9261 46.9168 42.1232 46.9168C42.3204 46.9168 42.5177 46.8509 42.6791 46.7193C42.7022 46.7006 42.7245 46.6803 42.746 46.6588C42.7463 46.6585 42.746 46.6588 42.7463 46.6585L58.239 31.1657V38.9355ZM26.095 31.1359L23.5724 32.0264L21.8917 30.3457L22.7822 27.8231L26.095 31.1359Z" fill="#009C77"/>
</g>
<defs>
<clipPath id="clip0">
<rect width="60" height="60" fill="white"/>
</clipPath>
</defs>
</svg>
