<svg width="35" height="35" viewBox="0 0 35 35" fill="none" xmlns="http://www.w3.org/2000/svg">
<path d="M24.4878 5.17822H23.0198C22.8793 4.8812 22.7156 4.59723 22.5297 4.32776L23.2632 3.05716C23.5045 2.63935 23.3613 2.10512 22.9435 1.86395L19.9177 0.117027C19.7171 0.0011573 19.4786 -0.0301513 19.2549 0.0297315C19.0312 0.0897511 18.8404 0.236109 18.7246 0.436743L17.9922 1.70529C17.6617 1.67719 17.3383 1.67719 17.0078 1.70529L16.2754 0.436743C16.1595 0.236109 15.9688 0.0897511 15.7451 0.0297315C15.5214 -0.0301513 15.2829 0.0011573 15.0823 0.117027L12.0565 1.86402C11.6387 2.10519 11.4955 2.63942 11.7368 3.05723L12.4703 4.3279C12.2844 4.5973 12.1207 4.88134 11.9802 5.17829H10.5122C10.0298 5.17829 9.63867 5.56937 9.63867 6.05179V9.5457C9.63867 10.0281 10.0298 10.4192 10.5122 10.4192H11.9802C12.1207 10.7161 12.2844 11.0001 12.4703 11.2695L11.7368 12.5402C11.4955 12.958 11.6387 13.4922 12.0565 13.7334L15.0823 15.4804C15.2828 15.5963 15.5213 15.6275 15.7451 15.5677C15.9688 15.5077 16.1596 15.3613 16.2754 15.1607L17.0078 13.892C17.3383 13.9202 17.6617 13.9202 17.9922 13.892L18.7246 15.1605C18.8405 15.3612 19.0313 15.5075 19.2549 15.5676C19.3293 15.5874 19.4053 15.5973 19.4811 15.5973C19.6331 15.5973 19.7839 15.5576 19.9178 15.4803L22.9436 13.7333C23.3614 13.4921 23.5046 12.9579 23.2633 12.54L22.5297 11.2695C22.7157 11 22.8793 10.7161 23.0199 10.4191H24.4879C24.9703 10.4191 25.3614 10.028 25.3614 9.54557V8.67207V6.92508V6.05172C25.3613 5.5693 24.9702 5.17822 24.4878 5.17822ZM17.5 10.3621C16.0864 10.3621 14.9365 9.21225 14.9365 7.79864C14.9365 6.38504 16.0864 5.23516 17.5 5.23516C18.9136 5.23516 20.0635 6.38504 20.0635 7.79864C20.0635 9.21225 18.9136 10.3621 17.5 10.3621Z" fill="white"/>
<path d="M5.46875 11.068V8.82422H7.58789V6.77344H4.44336C3.87707 6.77344 3.41797 7.23254 3.41797 7.79883V11.068C2.62302 11.2549 1.89328 11.6582 1.30143 12.2501C0.462178 13.0893 0 14.2051 0 15.392C0 16.5788 0.462178 17.6947 1.30143 18.5339C1.70181 18.9343 2.35108 18.9343 2.75153 18.5339C3.15198 18.1335 3.15198 17.4843 2.75153 17.0838C1.8187 16.151 1.8187 14.633 2.75153 13.7002C3.20346 13.2483 3.80427 12.9994 4.44336 12.9994C5.08245 12.9994 5.68326 13.2483 6.13519 13.7002C7.06802 14.633 7.06802 16.151 6.13519 17.0838C5.73474 17.4842 5.73474 18.1335 6.13519 18.5339C6.33541 18.7341 6.59784 18.8343 6.86021 18.8343C7.12257 18.8343 7.38507 18.7341 7.58522 18.5339C8.42447 17.6947 8.88665 16.5788 8.88665 15.392C8.88665 14.2051 8.42447 13.0892 7.58522 12.25C6.99344 11.6582 6.2637 11.2549 5.46875 11.068Z" fill="white"/>
<path d="M33.6986 12.2501C33.1067 11.6582 32.377 11.2549 31.582 11.068V7.79883C31.582 7.23254 31.1229 6.77344 30.5566 6.77344H27.4121V8.82422H29.5312V11.068C28.7363 11.2549 28.0066 11.6582 27.4147 12.2501C26.5755 13.0894 26.1133 14.2052 26.1133 15.392C26.1133 16.5789 26.5755 17.6948 27.4147 18.534C27.8151 18.9344 28.4644 18.9344 28.8648 18.534C29.2653 18.1336 29.2653 17.4843 28.8648 17.0839C27.932 16.151 27.932 14.6331 28.8648 13.7002C29.3167 13.2484 29.9175 12.9995 30.5566 12.9995C31.1957 12.9995 31.7965 13.2484 32.2485 13.7002C33.1813 14.6331 33.1813 16.151 32.2485 17.0839C31.848 17.4843 31.848 18.1335 32.2485 18.534C32.4487 18.7342 32.7111 18.8344 32.9735 18.8344C33.2359 18.8344 33.4983 18.7342 33.6985 18.534C34.5378 17.6948 34.9999 16.5789 34.9999 15.392C34.9999 14.2052 34.5378 13.0894 33.6986 12.2501Z" fill="white"/>
<path d="M2.80273 35C4.31289 35 5.53711 33.7758 5.53711 32.2656C5.53711 30.7555 4.31289 29.5312 2.80273 29.5312C1.29258 29.5312 0.0683594 30.7555 0.0683594 32.2656C0.0683594 33.7758 1.29258 35 2.80273 35Z" fill="white"/>
<path d="M17.5 35C19.0102 35 20.2344 33.7758 20.2344 32.2656C20.2344 30.7555 19.0102 29.5312 17.5 29.5312C15.9898 29.5312 14.7656 30.7555 14.7656 32.2656C14.7656 33.7758 15.9898 35 17.5 35Z" fill="white"/>
<path d="M21.4238 29.5312C21.9661 30.307 22.2854 31.2495 22.2854 32.2656C22.2854 33.2818 21.9661 34.2243 21.4238 35H28.274C27.7318 34.2243 27.4124 33.2818 27.4124 32.2656C27.4124 31.2495 27.7318 30.307 28.274 29.5312H21.4238Z" fill="white"/>
<path d="M6.72656 29.5312C7.26879 30.307 7.58816 31.2495 7.58816 32.2656C7.58816 33.2818 7.26879 34.2243 6.72656 35H13.5767C13.0345 34.2243 12.7151 33.2818 12.7151 32.2656C12.7151 31.2495 13.0345 30.307 13.5767 29.5312H6.72656Z" fill="white"/>
<path d="M32.1973 35C33.7074 35 34.9316 33.7758 34.9316 32.2656C34.9316 30.7555 33.7074 29.5312 32.1973 29.5312C30.6871 29.5312 29.4629 30.7555 29.4629 32.2656C29.4629 33.7758 30.6871 35 32.1973 35Z" fill="white"/>
<path d="M20.0635 21.3281H14.9365C14.3702 21.3281 13.9111 21.7872 13.9111 22.3535V27.4805H21.0889V22.3535C21.0889 21.7872 20.6298 21.3281 20.0635 21.3281Z" fill="white"/>
<path d="M9.80957 21.3281H4.68262C4.11633 21.3281 3.65723 21.7872 3.65723 22.3535V27.4805H10.835V22.3535C10.835 21.7872 10.3759 21.3281 9.80957 21.3281Z" fill="white"/>
<path d="M25.1904 21.3281C24.6241 21.3281 24.165 21.7872 24.165 22.3535V27.4805H31.3428V22.3535C31.3428 21.7872 30.8837 21.3281 30.3174 21.3281H25.1904Z" fill="white"/>
</svg>
