<svg width="35" height="35" viewBox="0 0 35 35" fill="none" xmlns="http://www.w3.org/2000/svg">
<g clip-path="url(#clip0)">
<path d="M12.8493 15.9905C13.6573 15.9905 14.3123 15.3355 14.3123 14.5275C14.3123 13.7195 13.6573 13.0645 12.8493 13.0645C12.0413 13.0645 11.3862 13.7195 11.3862 14.5275C11.3862 15.3355 12.0413 15.9905 12.8493 15.9905Z" fill="white"/>
<path d="M22.1442 21.929C22.9522 21.929 23.6072 21.274 23.6072 20.466C23.6072 19.658 22.9522 19.0029 22.1442 19.0029C21.3362 19.0029 20.6812 19.658 20.6812 20.466C20.6812 21.274 21.3362 21.929 22.1442 21.929Z" fill="white"/>
<path d="M34.2067 19.4328L33.676 18.7084C33.1023 17.9195 33.0879 16.8509 33.6545 16.0477L34.1709 15.3162C34.9598 14.1974 34.594 12.6411 33.382 11.9885L32.5931 11.5654C31.7325 11.1064 31.2592 10.1454 31.4241 9.17719L31.5747 8.29506C31.8042 6.94678 30.793 5.6989 29.4232 5.64152L28.5267 5.60566C27.5514 5.56263 26.7051 4.90283 26.4326 3.96334L26.1816 3.10273C25.8015 1.78313 24.3528 1.10182 23.0906 1.64687L22.2658 1.99828C21.3693 2.38556 20.3223 2.15606 19.6696 1.42454L19.0744 0.757573C18.1636 -0.260813 16.5643 -0.253641 15.6606 0.78626L15.0725 1.4604C14.4271 2.19909 13.3872 2.44293 12.4836 2.07L11.6516 1.72576C10.3822 1.20222 8.94789 1.91222 8.58213 3.23182L8.34546 4.0996C8.08728 5.04627 7.25536 5.72041 6.28 5.77061L5.38354 5.82082C4.01374 5.89971 3.02404 7.16193 3.27505 8.51022L3.44 9.39234C3.61929 10.3534 3.1603 11.3215 2.30686 11.7949L1.52514 12.2323C0.327464 12.8993 -0.0167795 14.4628 0.793627 15.5672L1.32433 16.2915C1.89807 17.0804 1.91242 18.149 1.34585 18.9523L0.829485 19.6838C0.0405944 20.8026 0.406353 22.3588 1.61838 23.0115L2.40727 23.4346C3.26787 23.8936 3.74121 24.8546 3.57626 25.8228L3.42565 26.7049C3.19616 28.0532 4.20737 29.3011 5.57717 29.3584L6.47364 29.3943C7.449 29.4373 8.29526 30.0971 8.56779 31.0366L8.8188 31.8972C9.1989 33.2168 10.6476 33.8981 11.9098 33.3531L12.7346 33.0017C13.631 32.6144 14.6781 32.8439 15.3307 33.5754L15.926 34.2424C16.844 35.2608 18.4433 35.2536 19.3397 34.2137L19.9278 33.5396C20.5733 32.8009 21.6132 32.557 22.5168 32.93L23.3487 33.2742C24.6181 33.7977 26.0525 33.0877 26.4182 31.7681L26.6549 30.9004C26.9131 29.9537 27.745 29.2796 28.7204 29.2294L29.6168 29.1791C30.9866 29.1003 31.9763 27.838 31.7253 26.4897L31.5604 25.6076C31.3811 24.6466 31.8401 23.6784 32.6935 23.2051L33.4752 22.7676C34.6729 22.1078 35.0171 20.5444 34.2067 19.4328ZM9.31365 14.5273C9.31365 12.5766 10.8914 10.9988 12.8421 10.9988C14.7929 10.9988 16.3706 12.5766 16.3706 14.5273C16.3706 16.478 14.7929 18.0558 12.8421 18.0558C10.8914 18.0558 9.31365 16.4708 9.31365 14.5273ZM13.5235 23.6282C13.2222 23.994 12.6772 24.0442 12.3114 23.743C11.9457 23.4418 11.8955 22.8967 12.1967 22.531L21.4554 11.3789C21.7566 11.0132 22.3017 10.9629 22.6674 11.2642C23.0332 11.5654 23.0834 12.1104 22.7822 12.4762L13.5235 23.6282ZM22.1439 23.994C20.1932 23.994 18.6154 22.4162 18.6154 20.4655C18.6154 18.5148 20.1932 16.937 22.1439 16.937C24.0946 16.937 25.6724 18.5148 25.6724 20.4655C25.6724 22.4162 24.0946 23.994 22.1439 23.994Z" fill="white"/>
</g>
<defs>
<clipPath id="clip0">
<rect width="35" height="35" fill="white"/>
</clipPath>
</defs>
</svg>
