<svg width="35" height="35" viewBox="0 0 35 35" fill="none" xmlns="http://www.w3.org/2000/svg">
<g clip-path="url(#clip0)">
<path d="M17.5004 6.0166C11.0928 6.0166 5.87988 11.2295 5.87988 17.6372C5.87988 24.0448 11.0928 29.2577 17.5004 29.2577C23.9081 29.2577 29.121 24.0448 29.121 17.6372C29.121 11.2295 23.9081 6.0166 17.5004 6.0166ZM22.8383 18.9149H17.5133C17.1167 18.9149 16.7736 18.6898 16.603 18.3605C16.5218 18.2137 16.4751 18.0446 16.4751 17.8649V9.80547C16.4751 9.23911 16.9341 8.78008 17.5004 8.78008C18.0668 8.78008 18.5258 9.23911 18.5258 9.80547V16.8641H22.8383C23.4044 16.8641 23.8637 17.3234 23.8637 17.8895C23.8637 18.4559 23.4044 18.9149 22.8383 18.9149Z" fill="white"/>
<path d="M29.8744 5.12562C26.5691 1.82034 22.1743 0 17.5 0C12.8257 0 8.4309 1.82034 5.12562 5.12562C1.82034 8.4309 0 12.8257 0 17.5C0 22.1743 1.82034 26.5691 5.12562 29.8744C8.4309 33.1797 12.8257 35 17.5 35C22.1743 35 26.5691 33.1797 29.8744 29.8744C33.1797 26.5691 35 22.1743 35 17.5C35 12.8257 33.1797 8.4309 29.8744 5.12562ZM17.5 31.3081C9.96178 31.3081 3.82866 25.1752 3.82866 17.6367C3.82866 10.0982 9.96178 3.96538 17.5 3.96538C25.0382 3.96538 31.1713 10.0985 31.1713 17.6367C31.1713 25.1749 25.0382 31.3081 17.5 31.3081Z" fill="white"/>
</g>
<defs>
<clipPath id="clip0">
<rect width="35" height="35" fill="white"/>
</clipPath>
</defs>
</svg>
