<svg width="36" height="35" viewBox="0 0 36 35" fill="none" xmlns="http://www.w3.org/2000/svg">
<g clip-path="url(#clip0)">
<path d="M18 6.0166C11.5923 6.0166 6.37939 11.2295 6.37939 17.6372C6.37939 24.0448 11.5923 29.2577 18 29.2577C24.4076 29.2577 29.6205 24.0448 29.6205 17.6372C29.6205 11.2295 24.4076 6.0166 18 6.0166ZM23.3379 18.9149H18.0128C17.6162 18.9149 17.2731 18.6898 17.1025 18.3605C17.0213 18.2137 16.9746 18.0446 16.9746 17.8649V9.80547C16.9746 9.23911 17.4336 8.78008 18 8.78008C18.5663 8.78008 19.0253 9.23911 19.0253 9.80547V16.8641H23.3379C23.904 16.8641 24.3633 17.3234 24.3633 17.8895C24.3633 18.4559 23.904 18.9149 23.3379 18.9149Z" fill="white"/>
<path d="M30.3744 5.12562C27.0691 1.82034 22.6743 0 18 0C13.3257 0 8.9309 1.82034 5.62562 5.12562C2.32034 8.4309 0.5 12.8257 0.5 17.5C0.5 22.1743 2.32034 26.5691 5.62562 29.8744C8.9309 33.1797 13.3257 35 18 35C22.6743 35 27.0691 33.1797 30.3744 29.8744C33.6797 26.5691 35.5 22.1743 35.5 17.5C35.5 12.8257 33.6797 8.4309 30.3744 5.12562ZM18 31.3081C10.4618 31.3081 4.32866 25.1752 4.32866 17.6367C4.32866 10.0982 10.4618 3.96538 18 3.96538C25.5382 3.96538 31.6713 10.0985 31.6713 17.6367C31.6713 25.1749 25.5382 31.3081 18 31.3081Z" fill="white"/>
</g>
<defs>
<clipPath id="clip0">
<rect width="35" height="35" fill="white" transform="translate(0.5)"/>
</clipPath>
</defs>
</svg>
