<svg width="32" height="32" viewBox="0 0 32 32" fill="none" xmlns="http://www.w3.org/2000/svg">
<path d="M16.3461 13.6C17.2128 13.6 17.9928 13.7867 18.6861 14.16C19.3928 14.5333 19.9394 15.0533 20.3261 15.72C20.7261 16.3733 20.9261 17.1 20.9261 17.9C20.9261 19.14 20.4994 20.1733 19.6461 21C18.7928 21.8267 17.7394 22.24 16.4861 22.24C15.2461 22.24 14.2128 21.8533 13.3861 21.08C12.5594 20.2933 12.1261 19.3067 12.0861 18.12H13.7061C13.7328 18.6133 13.8661 19.0533 14.1061 19.44C14.3594 19.8267 14.6928 20.1267 15.1061 20.34C15.5194 20.5533 15.9794 20.66 16.4861 20.66C17.2861 20.66 17.9461 20.4 18.4661 19.88C18.9861 19.36 19.2461 18.7 19.2461 17.9C19.2461 17.3667 19.1194 16.8867 18.8661 16.46C18.6128 16.02 18.2594 15.68 17.8061 15.44C17.3528 15.2 16.8461 15.08 16.2861 15.08H12.9061L12.6661 14.8L13.3461 8.7H20.0061V10.22H14.7061L14.3461 13.6H16.3461Z" fill="#009C77"/>
<circle cx="16" cy="16" r="15.75" stroke="#009C77" stroke-width="0.5"/>
</svg>
