<svg width="32" height="32" viewBox="0 0 32 32" fill="none" xmlns="http://www.w3.org/2000/svg">
<path d="M17.1782 13.72C18.2715 13.88 19.1582 14.3467 19.8382 15.12C20.5182 15.88 20.8582 16.8067 20.8582 17.9C20.8582 19.1533 20.4315 20.1933 19.5782 21.02C18.7249 21.8333 17.6649 22.24 16.3982 22.24C15.1715 22.24 14.1515 21.8533 13.3382 21.08C12.5249 20.3067 12.0849 19.32 12.0182 18.12H13.6382C13.6915 18.88 13.9715 19.4933 14.4782 19.96C14.9849 20.4267 15.6249 20.66 16.3982 20.66C16.9315 20.66 17.4115 20.54 17.8382 20.3C18.2649 20.06 18.5982 19.7267 18.8382 19.3C19.0782 18.86 19.1982 18.3733 19.1982 17.84C19.1982 17.0267 18.9115 16.36 18.3382 15.84C17.7782 15.3067 17.0649 15.04 16.1982 15.04H14.6982V14.72L17.7782 10.22H12.4582V8.7H20.3382V9.08L17.1782 13.72Z" fill="#009C77"/>
<circle cx="16" cy="16" r="15.75" stroke="#009C77" stroke-width="0.5"/>
</svg>
