<svg width="32" height="32" viewBox="0 0 32 32" fill="none" xmlns="http://www.w3.org/2000/svg">
<path d="M15.2261 20.42H20.9061V22H11.9661V21.46C14.0328 19.3 15.5328 17.6733 16.4661 16.58C17.3994 15.4733 18.0128 14.6333 18.3061 14.06C18.5994 13.4867 18.7461 12.9 18.7461 12.3C18.7461 11.9667 18.6861 11.66 18.5661 11.38C18.4594 11.1 18.2994 10.86 18.0861 10.66C17.8861 10.46 17.6394 10.3067 17.3461 10.2C17.0528 10.0933 16.7328 10.04 16.3861 10.04C15.8928 10.04 15.4594 10.14 15.0861 10.34C14.7128 10.5267 14.4261 10.7933 14.2261 11.14C14.0261 11.4867 13.9261 11.88 13.9261 12.32V12.64H12.2861V12.32C12.2861 11.56 12.4528 10.8867 12.7861 10.3C13.1328 9.71333 13.6128 9.26 14.2261 8.94C14.8528 8.62 15.5728 8.46 16.3861 8.46C17.5728 8.46 18.5394 8.82 19.2861 9.54C20.0328 10.2467 20.4061 11.1667 20.4061 12.3C20.4061 12.9533 20.2861 13.5733 20.0461 14.16C19.8061 14.7467 19.3128 15.5333 18.5661 16.52C17.8328 17.4933 16.7194 18.7933 15.2261 20.42Z" fill="#009C77"/>
<circle cx="16" cy="16" r="15.75" stroke="#009C77" stroke-width="0.5"/>
</svg>
