<svg width="32" height="32" viewBox="0 0 32 32" fill="none" xmlns="http://www.w3.org/2000/svg">
<circle cx="16" cy="16" r="15.75" stroke="#009C77" stroke-width="0.5"/>
<path d="M18.964 15.376C19.624 15.676 20.128 16.084 20.476 16.6C20.836 17.104 21.016 17.698 21.016 18.382C21.016 19.15 20.8 19.822 20.368 20.398C19.948 20.974 19.348 21.418 18.568 21.73C17.788 22.03 16.882 22.18 15.85 22.18C14.818 22.18 13.912 22.03 13.132 21.73C12.364 21.418 11.77 20.974 11.35 20.398C10.93 19.822 10.72 19.15 10.72 18.382C10.72 17.698 10.894 17.104 11.242 16.6C11.59 16.084 12.088 15.676 12.736 15.376C12.232 15.1 11.842 14.74 11.566 14.296C11.302 13.84 11.17 13.318 11.17 12.73C11.17 12.022 11.362 11.404 11.746 10.876C12.142 10.348 12.694 9.94 13.402 9.652C14.11 9.364 14.926 9.22 15.85 9.22C16.786 9.22 17.608 9.364 18.316 9.652C19.024 9.94 19.576 10.348 19.972 10.876C20.368 11.404 20.566 12.022 20.566 12.73C20.566 13.318 20.428 13.834 20.152 14.278C19.876 14.722 19.48 15.088 18.964 15.376ZM15.85 11.056C15.118 11.056 14.536 11.212 14.104 11.524C13.684 11.836 13.474 12.274 13.474 12.838C13.474 13.378 13.684 13.81 14.104 14.134C14.536 14.446 15.118 14.602 15.85 14.602C16.594 14.602 17.182 14.446 17.614 14.134C18.046 13.81 18.262 13.378 18.262 12.838C18.262 12.274 18.04 11.836 17.596 11.524C17.164 11.212 16.582 11.056 15.85 11.056ZM15.85 20.344C16.714 20.344 17.398 20.164 17.902 19.804C18.406 19.444 18.658 18.946 18.658 18.31C18.658 17.686 18.406 17.194 17.902 16.834C17.398 16.474 16.714 16.294 15.85 16.294C14.986 16.294 14.308 16.474 13.816 16.834C13.324 17.194 13.078 17.686 13.078 18.31C13.078 18.946 13.324 19.444 13.816 19.804C14.308 20.164 14.986 20.344 15.85 20.344Z" fill="#009C77"/>
</svg>
