<svg width="32" height="32" viewBox="0 0 32 32" fill="none" xmlns="http://www.w3.org/2000/svg">
<path d="M16.4131 13.34C17.6398 13.34 18.6998 13.7533 19.5931 14.58C20.4865 15.3933 20.9331 16.4333 20.9331 17.7C20.9331 19.02 20.4865 20.1067 19.5931 20.96C18.6998 21.8133 17.5665 22.24 16.1931 22.24C14.7931 22.24 13.6465 21.8133 12.7531 20.96C11.8598 20.1067 11.4131 19.02 11.4131 17.7C11.4131 16.4867 11.8998 15.0133 12.8731 13.28L15.5331 8.58H17.3531C15.7398 11.4467 14.7798 13.18 14.4731 13.78C15.0865 13.4867 15.7331 13.34 16.4131 13.34ZM13.9531 19.82C14.5398 20.38 15.2798 20.66 16.1731 20.66C17.0665 20.66 17.8065 20.3867 18.3931 19.84C18.9798 19.28 19.2731 18.5667 19.2731 17.7C19.2731 17.14 19.1398 16.6333 18.8731 16.18C18.6065 15.7267 18.2331 15.38 17.7531 15.14C17.2865 14.8867 16.7598 14.76 16.1731 14.76C15.5865 14.76 15.0531 14.8867 14.5731 15.14C14.1065 15.3933 13.7398 15.7467 13.4731 16.2C13.2065 16.64 13.0731 17.14 13.0731 17.7C13.0731 18.5533 13.3665 19.26 13.9531 19.82Z" fill="#009C77"/>
<circle cx="16" cy="16" r="15.75" stroke="#009C77" stroke-width="0.5"/>
</svg>
