<svg width="60" height="60" viewBox="0 0 60 60" fill="none" xmlns="http://www.w3.org/2000/svg">
<path d="M32.2499 46.9648C31.7775 46.9648 31.3945 47.3477 31.3945 47.8202V49.5878C31.3945 50.0602 31.7774 50.4432 32.2499 50.4432C32.7223 50.4432 33.1052 50.0603 33.1052 49.5878V47.8202C33.1052 47.3478 32.7223 46.9648 32.2499 46.9648Z" fill="#009C77"/>
<path d="M21.2716 40.1221H15.5728C14.9113 40.1221 14.3732 40.6602 14.3732 41.3217V48.5202H14.373C14.373 49.1817 14.9113 49.7198 15.5727 49.7198H21.2716C21.9331 49.7198 22.4713 49.1817 22.4713 48.5202V41.3217C22.4713 40.6602 21.933 40.1221 21.2716 40.1221ZM20.7607 48.0092H16.0837V41.8326H20.7607V48.0092Z" fill="#009C77"/>
<path d="M44.4269 40.1221H38.7278C38.0664 40.1221 37.5283 40.6602 37.5283 41.3217V48.5202C37.5283 49.1817 38.0664 49.7198 38.7278 49.7198H44.4269C45.0883 49.7198 45.6264 49.1817 45.6264 48.5202V41.3217C45.6264 40.6602 45.0883 40.1221 44.4269 40.1221ZM43.9158 48.0092H39.239V41.8326H43.9158V48.0092Z" fill="#009C77"/>
<path d="M21.2716 23.8457H15.5728C14.9113 23.8457 14.3732 24.3838 14.3732 25.0453V32.2438H14.373C14.373 32.9053 14.9113 33.4434 15.5727 33.4434H21.2716C21.9331 33.4434 22.4713 32.9053 22.4713 32.2438V25.0453C22.4713 24.3838 21.933 23.8457 21.2716 23.8457ZM20.7607 31.7329H16.0837V25.5563H20.7607V31.7329Z" fill="#009C77"/>
<path d="M32.8498 23.8457H27.1508C26.4893 23.8457 25.9512 24.3838 25.9512 25.0453V32.2438C25.9512 32.9053 26.4894 33.4434 27.1508 33.4434H32.8498C33.5113 33.4434 34.0494 32.9053 34.0494 32.2438V25.0453C34.0494 24.3838 33.5113 23.8457 32.8498 23.8457ZM32.3388 31.7329H27.6619V25.5563H32.3388V31.7329Z" fill="#009C77"/>
<path d="M44.4269 23.8457H38.7278C38.0664 23.8457 37.5283 24.3838 37.5283 25.0453V32.2438C37.5283 32.9053 38.0664 33.4434 38.7278 33.4434H44.4269C45.0883 33.4434 45.6264 32.9053 45.6264 32.2438V25.0453C45.6264 24.3838 45.0883 23.8457 44.4269 23.8457ZM43.9158 31.7329H39.239V25.5563H43.9158V31.7329Z" fill="#009C77"/>
<path d="M21.2716 8.88184H15.5727C14.9112 8.88184 14.373 9.41996 14.373 10.0815V17.2799C14.3729 17.9414 14.9112 18.4796 15.5727 18.4796H21.2716C21.9331 18.4796 22.4713 17.9414 22.4713 17.2799V10.0815C22.4713 9.41996 21.933 8.88184 21.2716 8.88184ZM20.7606 16.769H16.0836V10.5924H20.7606V16.769Z" fill="#009C77"/>
<path d="M32.8498 8.88184H27.1508C26.4893 8.88184 25.9512 9.41996 25.9512 10.0815V17.2799C25.9512 17.9414 26.4894 18.4796 27.1508 18.4796H32.8498C33.5113 18.4796 34.0494 17.9414 34.0494 17.2799V10.0815C34.0494 9.41996 33.5113 8.88184 32.8498 8.88184ZM32.3388 16.769H27.6619V10.5924H32.3388V16.769Z" fill="#009C77"/>
<path d="M44.4269 8.88184H38.7278C38.0664 8.88184 37.5283 9.41996 37.5283 10.0815V17.2799C37.5282 17.9414 38.0663 18.4796 38.7278 18.4796H44.4269C45.0883 18.4796 45.6264 17.9414 45.6264 17.2799V10.0815C45.6264 9.41996 45.0883 8.88184 44.4269 8.88184ZM43.9157 16.769H39.2389V10.5924H43.9157V16.769Z" fill="#009C77"/>
<path d="M54.8775 55.3241H53.5489C53.3815 53.1158 51.8331 51.2884 49.7667 50.7051L49.738 5.15658H50.7755C51.3885 5.15658 51.8871 4.65795 51.8871 4.04506V1.11152C51.8871 0.498631 51.3885 0 50.7755 0H44.8224C44.35 0 43.967 0.38285 43.967 0.855348C43.967 1.32785 44.3499 1.7107 44.8224 1.7107H50.1764V3.446H9.82411V1.7107H39.473C39.9454 1.7107 40.3284 1.32785 40.3284 0.855348C40.3284 0.38285 39.9454 0 39.473 0H9.22494C8.61205 0 8.11342 0.498631 8.11342 1.11152V4.04518C8.11342 4.65807 8.61205 5.1567 9.22494 5.1567H10.2293L10.2475 33.9222C10.2477 34.3945 10.6307 34.777 11.1029 34.777C11.103 34.777 11.1032 34.777 11.1034 34.777C11.5758 34.7767 11.9584 34.3936 11.9582 33.9211L11.94 5.15658H48.0273L48.0559 50.5168C48.0531 50.5169 48.0504 50.5173 48.0476 50.5175C48.0178 50.5191 47.9883 50.5226 47.9587 50.5248C47.8882 50.5301 47.8178 50.5354 47.7481 50.5434C47.71 50.5477 47.6725 50.554 47.6346 50.5592C47.5738 50.5675 47.5129 50.5756 47.4526 50.5861C47.4117 50.5932 47.3713 50.6021 47.3306 50.61C47.2743 50.6212 47.2178 50.6322 47.162 50.6452C47.1199 50.6549 47.0786 50.6662 47.0369 50.6769C46.9831 50.6909 46.9294 50.7047 46.8763 50.7203C46.8344 50.7326 46.7929 50.7462 46.7513 50.7596C46.6994 50.7762 46.6476 50.7931 46.5962 50.8114C46.5548 50.8261 46.5137 50.8419 46.4726 50.8578C46.4223 50.8772 46.3722 50.8969 46.3226 50.9179C46.2817 50.9351 46.2413 50.953 46.201 50.9713C46.1521 50.9934 46.1037 51.0161 46.0556 51.0396C46.0159 51.0591 45.9764 51.0791 45.9372 51.0996C45.8896 51.1245 45.8426 51.1502 45.7958 51.1765C45.7574 51.1982 45.7192 51.2201 45.6814 51.2427C45.6351 51.2704 45.5895 51.299 45.544 51.3282C45.5071 51.3518 45.4703 51.3755 45.434 51.4C45.3889 51.4306 45.3446 51.4623 45.3004 51.4943C45.2653 51.5198 45.2302 51.545 45.1957 51.5712C45.1517 51.6048 45.1085 51.6399 45.0655 51.675C45.0325 51.702 44.9992 51.7285 44.9669 51.7562C44.9235 51.7934 44.8814 51.8321 44.8393 51.8707C44.8088 51.8986 44.778 51.9258 44.7482 51.9545C44.7047 51.9962 44.6629 52.0398 44.6208 52.0832C44.594 52.1109 44.5664 52.1377 44.5402 52.166C44.4946 52.2151 44.4509 52.2661 44.4071 52.3172C44.386 52.3418 44.3639 52.3654 44.3432 52.3905C44.2796 52.4673 44.2177 52.5462 44.158 52.6272C44.0603 52.6474 43.964 52.6718 43.8687 52.6988C43.8373 52.7077 43.8067 52.7182 43.7755 52.7278C43.712 52.7475 43.6489 52.7677 43.5866 52.7903C43.5509 52.8032 43.5159 52.8173 43.4806 52.8312C43.4239 52.8535 43.3676 52.8767 43.3121 52.9014C43.2763 52.9172 43.2411 52.9335 43.2059 52.9504C43.1512 52.9765 43.0974 53.004 43.0441 53.0325C43.0108 53.0502 42.9775 53.0677 42.9447 53.0863C42.888 53.1185 42.8325 53.1528 42.7776 53.1874C42.7504 53.2047 42.7225 53.221 42.6957 53.2388C42.6153 53.2921 42.5364 53.3476 42.46 53.4064C42.4551 53.4101 42.4505 53.4143 42.4457 53.4181C42.374 53.4736 42.3043 53.5315 42.2364 53.5914C42.2119 53.6131 42.1886 53.636 42.1646 53.6582C42.1173 53.7019 42.0706 53.746 42.0255 53.7918C41.9991 53.8185 41.9737 53.846 41.948 53.8735C41.9069 53.9174 41.8666 53.9621 41.8273 54.0078C41.8023 54.0369 41.7777 54.0662 41.7535 54.0961C41.7152 54.1432 41.6782 54.1914 41.642 54.2401C41.6199 54.2699 41.5976 54.2994 41.5763 54.3298C41.5382 54.384 41.5021 54.4396 41.4665 54.4957C41.4499 54.5221 41.4323 54.5478 41.4161 54.5744C41.3658 54.6577 41.3178 54.7426 41.2732 54.8297C41.2701 54.8359 41.2674 54.8425 41.2642 54.8487C41.2232 54.9298 41.1849 55.0125 41.149 55.0965C41.1361 55.1269 41.1249 55.1579 41.1127 55.1885C41.0947 55.2337 41.0756 55.2782 41.0591 55.3241H35.515V41.5763C35.515 40.7744 34.8626 40.122 34.0607 40.122H25.9397C25.1378 40.122 24.4854 40.7744 24.4854 41.5763V55.3242H18.9415C18.925 55.2783 18.9059 55.2337 18.8878 55.1884C18.8756 55.1578 18.8644 55.1268 18.8515 55.0967C18.8161 55.0136 18.7781 54.9318 18.7376 54.8515C18.734 54.8444 18.7309 54.8369 18.7273 54.8296C18.6829 54.7428 18.6349 54.658 18.5848 54.5749C18.5684 54.5476 18.5504 54.5215 18.5333 54.4946C18.4981 54.439 18.4623 54.384 18.4247 54.3304C18.4031 54.2996 18.3805 54.2698 18.3581 54.2396C18.3222 54.1913 18.2856 54.1436 18.2476 54.0968C18.2231 54.0667 18.1983 54.0369 18.173 54.0075C18.134 53.9621 18.0939 53.9178 18.053 53.874C18.0272 53.8464 18.0015 53.8187 17.9749 53.7918C17.9299 53.7462 17.8835 53.7024 17.8365 53.6589C17.8123 53.6365 17.7887 53.6133 17.764 53.5915C17.696 53.5315 17.6263 53.4736 17.5546 53.4182C17.5498 53.4144 17.5453 53.4103 17.5404 53.4066C17.4639 53.3479 17.385 53.2923 17.3045 53.2389C17.2779 53.2212 17.2504 53.2051 17.2234 53.188C17.1681 53.1531 17.1124 53.1188 17.0555 53.0864C17.0229 53.0679 16.9899 53.0506 16.9568 53.033C16.9031 53.0044 16.8491 52.9767 16.7942 52.9504C16.7592 52.9337 16.7242 52.9176 16.6888 52.9017C16.6329 52.8769 16.5763 52.8536 16.5192 52.8311C16.4843 52.8174 16.4495 52.8034 16.4141 52.7906C16.3515 52.768 16.288 52.7476 16.2242 52.7278C16.1933 52.7183 16.163 52.7078 16.1318 52.699C16.0366 52.6721 15.9402 52.6476 15.8424 52.6273C15.7828 52.5464 15.7212 52.4679 15.6577 52.3912C15.6368 52.366 15.6148 52.3423 15.5936 52.3176C15.5501 52.2669 15.5066 52.2163 15.4614 52.1676C15.4348 52.1389 15.4069 52.1116 15.3797 52.0835C15.3381 52.0408 15.2967 51.9978 15.2539 51.9565C15.2239 51.9277 15.1929 51.9003 15.1623 51.8721C15.1205 51.8337 15.0787 51.7953 15.0357 51.7584C15.0032 51.7305 14.9699 51.7037 14.9367 51.6768C14.894 51.6419 14.8512 51.6072 14.8075 51.5737C14.7729 51.5473 14.7378 51.5219 14.7027 51.4963C14.6588 51.4644 14.6146 51.4329 14.5697 51.4025C14.5335 51.3778 14.4968 51.3542 14.46 51.3305C14.4147 51.3014 14.3691 51.2728 14.3229 51.2452C14.2852 51.2227 14.2473 51.2007 14.209 51.1791C14.1623 51.1527 14.1152 51.1272 14.0676 51.1022C14.0287 51.0818 13.9896 51.0618 13.9502 51.0423C13.9019 51.0185 13.8531 50.9959 13.8041 50.9737C13.7643 50.9556 13.7243 50.9376 13.684 50.9205C13.634 50.8993 13.5835 50.8794 13.5327 50.8599C13.4923 50.8443 13.452 50.8285 13.4112 50.8139C13.3592 50.7953 13.3064 50.7783 13.2537 50.7613C13.2132 50.7483 13.1729 50.7347 13.132 50.7227C13.0773 50.7065 13.022 50.6924 12.9667 50.678C12.9268 50.6677 12.8871 50.6566 12.847 50.6472C12.7879 50.6334 12.728 50.6218 12.6684 50.61C12.6312 50.6026 12.5944 50.5943 12.5571 50.5878C12.4864 50.5753 12.4148 50.5656 12.3432 50.5561C12.3162 50.5526 12.2896 50.5477 12.2625 50.5445C12.1652 50.5332 12.0673 50.5244 11.9688 50.5184L11.9617 39.3432C11.9615 38.8709 11.5785 38.4884 11.1064 38.4884C11.1063 38.4884 11.106 38.4884 11.1058 38.4884C10.6334 38.4888 10.2508 38.8719 10.251 39.3444L10.2582 50.6984C8.17951 51.2741 6.61952 53.1074 6.45147 55.3245H5.12292C3.83386 55.3245 2.78516 56.3732 2.78516 57.6622C2.78516 58.9514 3.83386 60 5.12292 60H54.8776C56.1668 60 57.2154 58.9513 57.2154 57.6622C57.2154 56.3728 56.1667 55.3241 54.8775 55.3241ZM43.0381 55.2249C43.0396 55.2229 43.0409 55.2209 43.0424 55.219C43.0783 55.1726 43.1164 55.1278 43.1553 55.0841C43.1651 55.073 43.1752 55.0621 43.1853 55.0511C43.2234 55.0098 43.2625 54.9695 43.3032 54.931C43.3053 54.929 43.3073 54.9269 43.3094 54.9249C43.3518 54.885 43.3961 54.8472 43.4412 54.8104C43.453 54.8008 43.465 54.7911 43.477 54.7818C43.521 54.7471 43.566 54.7135 43.6123 54.6818C43.6146 54.6802 43.6169 54.6784 43.6192 54.6769C43.6674 54.6442 43.7173 54.6138 43.7678 54.5846C43.7811 54.5768 43.7945 54.5693 43.808 54.5618C43.8577 54.5342 43.9082 54.5077 43.96 54.4835C43.962 54.4826 43.964 54.4814 43.966 54.4805C44.0193 54.4558 44.0739 54.4335 44.1291 54.4125C44.1435 54.407 44.158 54.4016 44.1727 54.3965C44.2278 54.3768 44.2833 54.3583 44.34 54.3423C44.3412 54.342 44.3424 54.3415 44.3437 54.3413C44.4013 54.3252 44.4602 54.312 44.5193 54.3001C44.5343 54.2971 44.5494 54.2943 44.5646 54.2915C44.6244 54.2806 44.6849 54.2711 44.7462 54.2646C45.0078 54.2371 45.2423 54.0907 45.3818 53.8677C46.0275 52.8355 47.1381 52.2194 48.3526 52.2194C48.4228 52.2194 48.4951 52.2219 48.5686 52.2267C48.5724 52.227 48.5761 52.2273 48.5799 52.2276C48.6531 52.2326 48.7275 52.2398 48.803 52.2495C48.8063 52.25 48.8095 52.2498 48.8127 52.2502C50.3973 52.4591 51.6517 53.7311 51.8325 55.3244H42.9675C42.9907 55.2907 43.0135 55.257 43.0381 55.2249ZM33.8045 41.8326V55.3241H26.196V41.8326H33.8045ZM11.214 52.2469C11.2152 52.2468 11.2164 52.2468 11.2177 52.2467C11.2906 52.2378 11.3608 52.2313 11.4298 52.2269C11.434 52.2266 11.4381 52.2263 11.4422 52.2259C11.512 52.2216 11.5803 52.2192 11.6479 52.2192C12.8623 52.2192 13.973 52.8354 14.6188 53.8676C14.7103 54.014 14.8432 54.1263 14.9975 54.1948C15.0782 54.2306 15.1644 54.255 15.2544 54.2645C15.2547 54.2645 15.2548 54.2645 15.255 54.2646C15.3161 54.2711 15.3763 54.2806 15.436 54.2913C15.4512 54.294 15.4663 54.297 15.4814 54.3C15.5406 54.3119 15.5994 54.3251 15.6571 54.3412C15.6584 54.3415 15.6596 54.342 15.6608 54.3423C15.7176 54.3581 15.7732 54.3767 15.8282 54.3965C15.8426 54.4016 15.857 54.4069 15.8713 54.4124C15.9266 54.4334 15.9815 54.4556 16.0348 54.4805C16.0364 54.4812 16.038 54.4821 16.0396 54.4829C16.0919 54.5073 16.1427 54.534 16.1929 54.5619C16.2061 54.5692 16.2192 54.5767 16.2323 54.5842C16.283 54.6136 16.333 54.6441 16.3815 54.6769C16.3834 54.6781 16.3851 54.6795 16.3869 54.6808C16.4339 54.7128 16.4794 54.7469 16.524 54.7819C16.5358 54.7912 16.5475 54.8004 16.559 54.8099C16.6043 54.8468 16.6487 54.8848 16.6913 54.9249C16.6931 54.9266 16.6948 54.9284 16.6967 54.9301C16.7377 54.9688 16.7769 55.0094 16.8151 55.0508C16.8253 55.0619 16.8354 55.0729 16.8454 55.084C16.8843 55.1276 16.9221 55.1721 16.9579 55.2184C16.9598 55.2209 16.9615 55.2235 16.9634 55.2258C16.9878 55.2576 17.0101 55.291 17.033 55.3239H8.16779C8.34955 53.7222 9.61681 52.4452 11.214 52.2469ZM54.8775 58.2892H5.12292C4.7771 58.2892 4.49574 58.0078 4.49574 57.662C4.49574 57.3162 4.7771 57.0348 5.12292 57.0348H54.8775C55.2233 57.0348 55.5047 57.3162 55.5047 57.662C55.5047 58.0078 55.2233 58.2892 54.8775 58.2892Z" fill="#009C77"/>
</svg>
