<svg width="60" height="60" viewBox="0 0 60 60" fill="none" xmlns="http://www.w3.org/2000/svg">
<g clip-path="url(#clip0)">
<path d="M57.9373 19.6511H57.3646L51.9949 5.1943C51.5248 3.92855 50.3018 3.07812 48.9516 3.07812H11.0483C9.6982 3.07812 8.47512 3.92855 8.00496 5.1943L2.63543 19.6511H2.06273C0.925312 19.6511 0 20.5764 0 21.7139V23.3711C0 24.5086 0.925312 25.4339 2.06273 25.4339H2.36766V44.6983C2.36766 45.1837 2.76105 45.5772 3.24656 45.5772C3.73207 45.5772 4.12547 45.1837 4.12547 44.6983V25.4339H17.9255C18.6977 25.4339 19.4238 25.1332 19.97 24.587L30 14.5568L40.0302 24.587C40.5763 25.133 41.3024 25.4338 42.0746 25.4338H55.8746V27.7639C55.8746 28.2493 56.268 28.6428 56.7536 28.6428C57.2391 28.6428 57.6325 28.2493 57.6325 27.7639V25.4338H57.9374C59.0747 25.4338 60.0001 24.5084 60.0001 23.371V21.7137C60 20.5764 59.0747 19.6511 57.9373 19.6511ZM9.65273 5.80625C9.86836 5.22582 10.4292 4.83594 11.0483 4.83594H48.9516C49.5707 4.83594 50.1315 5.22594 50.3471 5.80625L55.4895 19.6511H43.2723L32.0445 8.4234C31.4984 7.8773 30.7724 7.57648 30 7.57648C29.2276 7.57648 28.5016 7.87719 27.9555 8.4234L16.7277 19.6511H4.51043L9.65273 5.80625ZM58.2422 23.3711C58.2422 23.5393 58.1054 23.6761 57.9373 23.6761H42.0746C41.7718 23.6761 41.4871 23.5582 41.2731 23.3441L30.6214 12.6924C30.4566 12.5275 30.2331 12.435 29.9999 12.435C29.7667 12.435 29.5433 12.5275 29.3783 12.6924L18.7268 23.3441C18.5127 23.5582 18.2279 23.6761 17.9251 23.6761H2.06273C1.89457 23.6761 1.75781 23.5393 1.75781 23.3711V21.7139C1.75781 21.5457 1.89457 21.4089 2.06273 21.4089H17.0918C17.3249 21.4089 17.5484 21.3164 17.7134 21.1515L29.1987 9.66629C29.4127 9.45219 29.6973 9.3343 30.0001 9.3343C30.3029 9.3343 30.5876 9.45219 30.8016 9.66629L42.2869 21.1515C42.4518 21.3164 42.6752 21.4089 42.9084 21.4089H57.9375C58.1057 21.4089 58.2424 21.5457 58.2424 21.7139V23.3711H58.2422Z" fill="#009C77"/>
<path d="M52.8467 49.8202C53.3322 49.8202 53.7256 49.4267 53.7256 48.9413V33.3154C53.7256 32.83 53.3322 32.4365 52.8467 32.4365H41.0088C40.5233 32.4365 40.1299 32.83 40.1299 33.3154V48.9413C40.1299 49.4267 40.5233 49.8202 41.0088 49.8202H52.8467ZM51.9678 44.2743H47.8066V40.1132H51.9678V44.2743ZM46.0488 44.2743H41.8877V40.1132H46.0488V44.2743ZM51.9678 48.0624H41.8877V46.0321H51.9678V48.0624ZM51.9678 38.3553H47.8066V34.1942H51.9678V38.3553ZM46.0488 34.1943V38.3554H41.8877V34.1943H46.0488Z" fill="#009C77"/>
<path d="M18.9913 49.8202C19.4768 49.8202 19.8702 49.4267 19.8702 48.9413V33.3154C19.8702 32.83 19.4768 32.4365 18.9913 32.4365H7.15332C6.66781 32.4365 6.27441 32.83 6.27441 33.3154V48.9413C6.27441 49.4267 6.66781 49.8202 7.15332 49.8202H18.9913ZM18.1123 44.2743H13.9513V40.1132H18.1123V44.2743ZM12.1934 44.2743H8.03223V40.1132H12.1934V44.2743ZM18.1123 48.0624H8.03223V46.0321H18.1123V48.0624ZM18.1123 38.3553H13.9513V34.1942H18.1123V38.3553ZM12.1934 34.1943V38.3554H8.03223V34.1943H12.1934Z" fill="#009C77"/>
<path d="M32.8414 36.2246H27.1592C26.6737 36.2246 26.2803 36.6181 26.2803 37.1035V40.8916C26.2803 41.377 26.6737 41.7705 27.1592 41.7705H32.8414C33.3269 41.7705 33.7203 41.377 33.7203 40.8916V37.1035C33.7203 36.6181 33.3269 36.2246 32.8414 36.2246ZM31.9625 40.0127H28.0381V37.9824H31.9625V40.0127Z" fill="#009C77"/>
<path d="M34.667 25.1465C34.667 22.5732 32.5734 20.4795 30 20.4795C27.4266 20.4795 25.333 22.5732 25.333 25.1465C25.333 27.7198 27.4266 29.8136 30 29.8136C32.5734 29.8136 34.667 27.7199 34.667 25.1465ZM27.0908 25.1465C27.0908 23.5424 28.3959 22.2373 30 22.2373C31.6041 22.2373 32.9092 23.5424 32.9092 25.1465C32.9092 26.7505 31.6041 28.0558 30 28.0558C28.3959 28.0558 27.0908 26.7507 27.0908 25.1465Z" fill="#009C77"/>
<path d="M59.1211 51.1395H57.6325V31.875C57.6325 31.3896 57.2391 30.9961 56.7536 30.9961C56.268 30.9961 55.8746 31.3896 55.8746 31.875V51.1395H37.5081V33.3146C37.5081 32.8293 37.1147 32.4357 36.6292 32.4357H23.3708C22.8853 32.4357 22.4919 32.8293 22.4919 33.3146V51.1395H4.12535V48.8093C4.12535 48.3239 3.73195 47.9304 3.24645 47.9304C2.76094 47.9304 2.36754 48.3239 2.36754 48.8093V51.1395H0.878906C0.393398 51.1395 0 51.533 0 52.0184V56.0433C0 56.5287 0.393398 56.9222 0.878906 56.9222H59.1211C59.6066 56.9222 60 56.5287 60 56.0433V52.0184C60 51.533 59.6066 51.1395 59.1211 51.1395ZM24.2497 44.7292H25.5018C25.9873 44.7292 26.3807 44.3357 26.3807 43.8503C26.3807 43.3649 25.9873 42.9714 25.5018 42.9714H24.2497V34.1936H35.7504V51.1395H24.2497V44.7292ZM58.2422 55.1644H1.75781V52.8973H58.2422V55.1644Z" fill="#009C77"/>
</g>
<defs>
<clipPath id="clip0">
<rect width="60" height="60" fill="white"/>
</clipPath>
</defs>
</svg>
