<svg width="60" height="60" viewBox="0 0 60 60" fill="none" xmlns="http://www.w3.org/2000/svg">
<path d="M56.2919 57.9776H54.6065V5.05617C54.6065 4.49754 54.1537 4.04496 53.5953 4.04496H34.7188C34.1603 4.04496 33.7076 4.49754 33.7076 5.05617V9.43816H31.6852V5.05617C31.6852 4.49754 31.2324 4.04496 30.674 4.04496H26.2919V1.01121C26.2919 0.452578 25.8391 0 25.2807 0C24.7223 0 24.2695 0.452578 24.2695 1.01121V4.04496H19.8875C19.3289 4.04496 18.8763 4.49754 18.8763 5.05617V9.43816H15.8425C15.284 9.43816 14.8313 9.89074 14.8313 10.4494V18.8763H6.40434C5.84582 18.8763 5.39313 19.3289 5.39313 19.8875V57.9775H3.7075C3.14898 57.9775 2.69629 58.43 2.69629 58.9887C2.69629 59.5473 3.1491 60 3.7075 60H56.2919C56.8504 60 57.3031 59.5474 57.3031 58.9888C57.3031 58.4302 56.8503 57.9776 56.2919 57.9776ZM20.8986 6.06738H29.6625V9.43816H20.8986V6.06738ZM17.5278 57.9776H16.8536V56.2922C16.8536 55.7336 16.4008 55.281 15.8424 55.281C15.284 55.281 14.8312 55.7336 14.8312 56.2922V57.9776H14.157V54.6068H17.5278V57.9776ZM24.2693 32.0224V33.7621V57.9776H19.5502V53.5956C19.5502 53.037 19.0974 52.5844 18.539 52.5844H13.1458C12.5873 52.5844 12.1346 53.037 12.1346 53.5956V57.9776H7.41543V20.8989H24.2693V32.0224ZM25.2806 18.8764H16.8536V11.4607H33.7075V31.0112H26.2919V27.6404H29.3256C29.8841 27.6404 30.3368 27.1879 30.3368 26.6292C30.3368 26.0706 29.884 25.618 29.3256 25.618H26.2919V22.2472H29.3256C29.8841 22.2472 30.3368 21.7946 30.3368 21.236C30.3368 20.6774 29.884 20.2248 29.3256 20.2248H26.2919V19.8878C26.2919 19.329 25.8391 18.8764 25.2806 18.8764ZM43.1458 57.9776H26.2919V33.7621V33.0337H43.1458V57.9776ZM52.584 57.9776H45.1682V32.0224V30.6741C45.1682 30.1154 44.7154 29.6629 44.157 29.6629C43.5986 29.6629 43.1458 30.1154 43.1458 30.6741V31.0111H41.1234V30.6741C41.1234 30.1154 40.6706 29.6629 40.1122 29.6629C39.5538 29.6629 39.1009 30.1154 39.1009 30.6741V31.0111H35.7302V10.4495V6.06738H52.5841V57.9776H52.584Z" fill="#009C77"/>
<path d="M30.6743 55.9554C31.2328 55.9554 31.6855 55.5026 31.6855 54.9442V36.0679C31.6855 35.5092 31.2327 35.0566 30.6743 35.0566C30.1159 35.0566 29.6631 35.5092 29.6631 36.0679V54.9443C29.6631 55.5027 30.1158 55.9554 30.6743 55.9554Z" fill="#009C77"/>
<path d="M34.7192 55.9554C35.2777 55.9554 35.7304 55.5026 35.7304 54.9442V36.0679C35.7304 35.5092 35.2776 35.0566 34.7192 35.0566C34.1608 35.0566 33.708 35.5092 33.708 36.0679V54.9443C33.7079 55.5027 34.1607 55.9554 34.7192 55.9554Z" fill="#009C77"/>
<path d="M38.7641 55.9554C39.3227 55.9554 39.7754 55.5026 39.7754 54.9442V36.0679C39.7754 35.5092 39.3225 35.0566 38.7641 35.0566C38.2057 35.0566 37.7529 35.5092 37.7529 36.0679V54.9443C37.7529 55.5027 38.2057 55.9554 38.7641 55.9554Z" fill="#009C77"/>
<path d="M40.1118 12.8091C40.6703 12.8091 41.123 12.3566 41.123 11.7979V10.4497C41.123 9.89105 40.6702 9.43848 40.1118 9.43848C39.5534 9.43848 39.1006 9.89105 39.1006 10.4497V11.798C39.1006 12.3566 39.5533 12.8091 40.1118 12.8091Z" fill="#009C77"/>
<path d="M44.1567 12.8091C44.7152 12.8091 45.1679 12.3566 45.1679 11.7979V10.4497C45.1679 9.89105 44.7151 9.43848 44.1567 9.43848C43.5983 9.43848 43.1455 9.89105 43.1455 10.4497V11.798C43.1455 12.3566 43.5982 12.8091 44.1567 12.8091Z" fill="#009C77"/>
<path d="M48.2016 12.8091C48.7602 12.8091 49.2129 12.3566 49.2129 11.7979V10.4497C49.2129 9.89105 48.76 9.43848 48.2016 9.43848C47.6432 9.43848 47.1904 9.89105 47.1904 10.4497V11.798C47.1904 12.3566 47.6431 12.8091 48.2016 12.8091Z" fill="#009C77"/>
<path d="M40.1118 19.5505C40.6703 19.5505 41.123 19.0979 41.123 18.5393V17.1909C41.123 16.6323 40.6702 16.1797 40.1118 16.1797C39.5534 16.1797 39.1006 16.6323 39.1006 17.1909V18.5393C39.1006 19.0979 39.5533 19.5505 40.1118 19.5505Z" fill="#009C77"/>
<path d="M44.1567 19.5505C44.7152 19.5505 45.1679 19.0979 45.1679 18.5393V17.1909C45.1679 16.6323 44.7151 16.1797 44.1567 16.1797C43.5983 16.1797 43.1455 16.6323 43.1455 17.1909V18.5393C43.1455 19.0979 43.5982 19.5505 44.1567 19.5505Z" fill="#009C77"/>
<path d="M48.2016 19.5505C48.7602 19.5505 49.2129 19.0979 49.2129 18.5393V17.1909C49.2129 16.6323 48.76 16.1797 48.2016 16.1797C47.6432 16.1797 47.1904 16.6323 47.1904 17.1909V18.5393C47.1904 19.0979 47.6431 19.5505 48.2016 19.5505Z" fill="#009C77"/>
<path d="M40.1118 26.2927C40.6703 26.2927 41.123 25.8401 41.123 25.2814V23.9331C41.123 23.3745 40.6702 22.9219 40.1118 22.9219C39.5534 22.9219 39.1006 23.3745 39.1006 23.9331V25.2814C39.1006 25.84 39.5533 26.2927 40.1118 26.2927Z" fill="#009C77"/>
<path d="M44.1567 26.2927C44.7152 26.2927 45.1679 25.8401 45.1679 25.2814V23.9331C45.1679 23.3745 44.7151 22.9219 44.1567 22.9219C43.5983 22.9219 43.1455 23.3745 43.1455 23.9331V25.2814C43.1455 25.84 43.5982 26.2927 44.1567 26.2927Z" fill="#009C77"/>
<path d="M48.2016 26.2927C48.7602 26.2927 49.2129 25.8401 49.2129 25.2814V23.9331C49.2129 23.3745 48.76 22.9219 48.2016 22.9219C47.6432 22.9219 47.1904 23.3745 47.1904 23.9331V25.2814C47.1904 25.84 47.6431 26.2927 48.2016 26.2927Z" fill="#009C77"/>
<path d="M11.7973 28.9889C12.3559 28.9889 12.8086 28.5364 12.8086 27.9777V26.6294C12.8086 26.0707 12.3557 25.6182 11.7973 25.6182C11.2389 25.6182 10.7861 26.0707 10.7861 26.6294V27.9777C10.7861 28.5363 11.2389 28.9889 11.7973 28.9889Z" fill="#009C77"/>
<path d="M15.8423 28.9889C16.4008 28.9889 16.8535 28.5364 16.8535 27.9777V26.6294C16.8535 26.0707 16.4007 25.6182 15.8423 25.6182C15.2839 25.6182 14.8311 26.0707 14.8311 26.6294V27.9777C14.8311 28.5363 15.2837 28.9889 15.8423 28.9889Z" fill="#009C77"/>
<path d="M19.8872 28.9889C20.4457 28.9889 20.8984 28.5364 20.8984 27.9777V26.6294C20.8984 26.0707 20.4456 25.6182 19.8872 25.6182C19.3288 25.6182 18.876 26.0707 18.876 26.6294V27.9777C18.876 28.5363 19.3287 28.9889 19.8872 28.9889Z" fill="#009C77"/>
<path d="M11.7973 35.7302C12.3559 35.7302 12.8086 35.2776 12.8086 34.7189V33.3706C12.8086 32.812 12.3557 32.3594 11.7973 32.3594C11.2389 32.3594 10.7861 32.812 10.7861 33.3706V34.7189C10.7861 35.2775 11.2389 35.7302 11.7973 35.7302Z" fill="#009C77"/>
<path d="M15.8423 35.7302C16.4008 35.7302 16.8535 35.2776 16.8535 34.7189V33.3706C16.8535 32.812 16.4007 32.3594 15.8423 32.3594C15.2839 32.3594 14.8311 32.812 14.8311 33.3706V34.7189C14.8311 35.2775 15.2837 35.7302 15.8423 35.7302Z" fill="#009C77"/>
<path d="M19.8872 35.7302C20.4457 35.7302 20.8984 35.2776 20.8984 34.7189V33.3706C20.8984 32.812 20.4456 32.3594 19.8872 32.3594C19.3288 32.3594 18.876 32.812 18.876 33.3706V34.7189C18.876 35.2775 19.3287 35.7302 19.8872 35.7302Z" fill="#009C77"/>
<path d="M11.7973 42.4714C12.3559 42.4714 12.8086 42.0188 12.8086 41.4602V40.1118C12.8086 39.5532 12.3557 39.1006 11.7973 39.1006C11.2389 39.1006 10.7861 39.5532 10.7861 40.1118V41.4602C10.7861 42.0188 11.2389 42.4714 11.7973 42.4714Z" fill="#009C77"/>
<path d="M15.8423 42.4714C16.4008 42.4714 16.8535 42.0188 16.8535 41.4602V40.1118C16.8535 39.5532 16.4007 39.1006 15.8423 39.1006C15.2839 39.1006 14.8311 39.5532 14.8311 40.1118V41.4602C14.8311 42.0188 15.2837 42.4714 15.8423 42.4714Z" fill="#009C77"/>
<path d="M19.8872 42.4714C20.4457 42.4714 20.8984 42.0188 20.8984 41.4602V40.1118C20.8984 39.5532 20.4456 39.1006 19.8872 39.1006C19.3288 39.1006 18.876 39.5532 18.876 40.1118V41.4602C18.876 42.0188 19.3287 42.4714 19.8872 42.4714Z" fill="#009C77"/>
<path d="M11.7973 49.2136C12.3559 49.2136 12.8086 48.761 12.8086 48.2023V46.854C12.8086 46.2954 12.3557 45.8428 11.7973 45.8428C11.2389 45.8428 10.7861 46.2954 10.7861 46.854V48.2023C10.7861 48.761 11.2389 49.2136 11.7973 49.2136Z" fill="#009C77"/>
<path d="M15.8423 49.2136C16.4008 49.2136 16.8535 48.761 16.8535 48.2023V46.854C16.8535 46.2954 16.4007 45.8428 15.8423 45.8428C15.2839 45.8428 14.8311 46.2954 14.8311 46.854V48.2023C14.8311 48.761 15.2837 49.2136 15.8423 49.2136Z" fill="#009C77"/>
<path d="M19.8872 49.2136C20.4457 49.2136 20.8984 48.761 20.8984 48.2023V46.854C20.8984 46.2954 20.4456 45.8428 19.8872 45.8428C19.3288 45.8428 18.876 46.2954 18.876 46.854V48.2023C18.876 48.761 19.3287 49.2136 19.8872 49.2136Z" fill="#009C77"/>
<path d="M48.2016 33.0339C48.7602 33.0339 49.2129 32.5813 49.2129 32.0227V30.6743C49.2129 30.1157 48.76 29.6631 48.2016 29.6631C47.6432 29.6631 47.1904 30.1157 47.1904 30.6743V32.0227C47.1904 32.5812 47.6431 33.0339 48.2016 33.0339Z" fill="#009C77"/>
<path d="M48.2016 39.7751C48.7602 39.7751 49.2129 39.3225 49.2129 38.7639V37.4155C49.2129 36.8569 48.76 36.4043 48.2016 36.4043C47.6432 36.4043 47.1904 36.8569 47.1904 37.4155V38.7639C47.1904 39.3224 47.6431 39.7751 48.2016 39.7751Z" fill="#009C77"/>
<path d="M48.2016 46.5173C48.7602 46.5173 49.2129 46.0647 49.2129 45.5061V44.1577C49.2129 43.5991 48.76 43.1465 48.2016 43.1465C47.6432 43.1465 47.1904 43.5991 47.1904 44.1577V45.5061C47.1904 46.0646 47.6431 46.5173 48.2016 46.5173Z" fill="#009C77"/>
<path d="M48.2016 53.2585C48.7602 53.2585 49.2129 52.8059 49.2129 52.2473V50.8989C49.2129 50.3403 48.76 49.8877 48.2016 49.8877C47.6432 49.8877 47.1904 50.3403 47.1904 50.8989V52.2473C47.1904 52.8058 47.6431 53.2585 48.2016 53.2585Z" fill="#009C77"/>
<path d="M30.337 15.8423C30.337 15.2836 29.8841 14.8311 29.3257 14.8311H21.2358C20.6773 14.8311 20.2246 15.2836 20.2246 15.8423C20.2246 16.4009 20.6774 16.8535 21.2358 16.8535H29.3257C29.8843 16.8535 30.337 16.4009 30.337 15.8423Z" fill="#009C77"/>
</svg>
