<svg width="60" height="60" viewBox="0 0 60 60" fill="none" xmlns="http://www.w3.org/2000/svg">
<g clip-path="url(#clip0)">
<path d="M58.3008 50.5368H57.2408V48.1345C57.2408 47.6489 56.8474 47.2555 56.3619 47.2555C55.8764 47.2555 55.483 47.6489 55.483 48.1345V50.5368H52.8791V46.7775C52.8791 45.637 51.9512 44.7091 50.8106 44.7091H46.0982C44.9577 44.7091 44.0298 45.637 44.0298 46.7775V50.5368H40.5717V46.7775C40.5717 45.637 39.6438 44.7091 38.5034 44.7091H33.7909C32.6503 44.7091 31.7224 45.637 31.7224 46.7775V50.5368H28.2645V46.7775C28.2645 45.637 27.3366 44.7091 26.196 44.7091H21.4835C20.343 44.7091 19.4152 45.637 19.4152 46.7775V50.5368H15.9571V46.7775C15.9571 45.637 15.0292 44.7091 13.8887 44.7091H9.17613C8.03555 44.7091 7.10766 45.637 7.10766 46.7775V50.5368H4.50375V41.4707H55.483V44.0329C55.483 44.5184 55.8764 44.9118 56.3619 44.9118C56.8474 44.9118 57.2408 44.5184 57.2408 44.0329V41.4245C57.2408 40.4807 56.473 39.7129 55.5293 39.7129H54.4256C54.4256 38.4413 54.4256 4.70957 54.4256 4.15891C54.4256 3.21508 53.6578 2.44727 52.7141 2.44727H27.8154C26.8716 2.44727 26.1039 3.2152 26.1039 4.15891V13.9987H13.6192C12.6098 13.9987 11.7886 14.8198 11.7886 15.8291V22.8284H7.27289C6.32906 22.8284 5.56137 23.5962 5.56137 24.5399V31.2067C5.56137 31.6922 5.95477 32.0856 6.44027 32.0856C6.92578 32.0856 7.31918 31.6922 7.31918 31.2067V29.3372H11.7887V30.5262C11.7887 31.333 12.3271 32.0545 13.1054 32.2834V39.7129H7.31906V35.3083C7.31906 34.8228 6.92566 34.4294 6.44016 34.4294C5.95465 34.4294 5.56125 34.8228 5.56125 35.3083V39.7129H4.45746C3.51363 39.7129 2.74594 40.4808 2.74594 41.4245V50.5368H1.69922C0.762305 50.5368 0 51.2991 0 52.236V55.8527C0 56.7896 0.762305 57.5519 1.69922 57.5519H58.3008C59.2377 57.5519 60 56.7896 60 55.8527V52.236C60 51.2991 59.2377 50.5368 58.3008 50.5368ZM11.7886 27.5794H7.31906V24.5862H11.7886V27.5794ZM20.6495 39.7129H14.8631V32.3568H20.6495V39.7129ZM28.1936 39.7129H22.4073V32.3568H28.1936V39.7129ZM35.7377 39.7129H29.9514V32.2834C30.7195 32.0588 31.2681 31.3411 31.2681 30.5262V29.3372H35.7377V39.7129ZM35.7377 27.5794H31.2681V24.5862H35.7377V27.5794ZM52.6678 39.7129H37.4955V38.0064H52.6678V39.7129ZM37.4955 36.2486C37.4955 35.1013 37.4955 26.9703 37.4955 25.8406H39.3061V36.2486H37.4955ZM41.0639 36.2486V25.8407H45.9073V36.2486H41.0639ZM52.6678 36.2486H47.6652V25.8407H52.6678V36.2486ZM52.6678 24.0828C51.8353 24.0828 37.8888 24.0828 37.4336 24.0828C37.2294 23.3486 36.5528 22.8284 35.784 22.8284H31.2682V21.0897H52.6678V24.0828ZM34.4629 19.3319V8.95621H39.3061V19.3319H34.4629ZM41.0639 19.3319V8.95621H45.9073V19.3319H41.0639ZM52.6678 19.3319H47.6652V8.95621H52.6678V19.3319ZM27.8617 4.20508H52.6678V7.19828C51.9942 7.19828 35.087 7.19828 27.8617 7.19828V4.20508ZM27.8617 8.95621H32.705V19.3319H31.2681V15.8291C31.2681 14.8198 30.447 13.9987 29.4376 13.9987H27.8617V8.95621ZM13.6192 15.7565C30.5142 15.7565 29.5103 15.7163 29.5103 15.8291V30.5261C29.5103 30.5663 29.4777 30.5989 29.4376 30.5989C28.55 30.5989 14.5064 30.5989 13.6192 30.5989C13.579 30.5989 13.5464 30.5663 13.5464 30.5261C13.5464 14.9206 13.502 15.7565 13.6192 15.7565ZM45.7876 46.7775C45.7876 46.6062 45.927 46.4669 46.0982 46.4669H50.8106C50.982 46.4669 51.1213 46.6062 51.1213 46.7775V50.5368H45.7875V46.7775H45.7876ZM33.4801 46.7775C33.4801 46.6062 33.6195 46.4669 33.7908 46.4669H38.5032C38.6745 46.4669 38.8138 46.6062 38.8138 46.7775V50.5368C37.6225 50.5368 34.6663 50.5368 33.48 50.5368V46.7775H33.4801ZM21.1729 46.7775C21.1729 46.6062 21.3122 46.4669 21.4834 46.4669H26.1959C26.3672 46.4669 26.5065 46.6062 26.5065 46.7775V50.5368H21.1727V46.7775H21.1729ZM8.86535 46.7775C8.86535 46.6062 9.00469 46.4669 9.17602 46.4669H13.8885C14.0597 46.4669 14.199 46.6062 14.199 46.7775V50.5368H8.86535V46.7775ZM58.2422 55.7941H1.75781V52.2946H58.2422V55.7941Z" fill="#009C77"/>
<path d="M17.2129 29.1127H25.8433C26.6877 29.1127 27.3746 28.4257 27.3746 27.5813V21.6299C27.3746 20.7856 26.6877 20.0986 25.8433 20.0986H23.8576V19.5716C23.8576 18.2871 22.8126 17.2422 21.5281 17.2422C20.2436 17.2422 19.1987 18.2871 19.1987 19.5716V20.0986H17.2129C16.3686 20.0986 15.6816 20.7856 15.6816 21.6299V27.5813C15.6815 28.4256 16.3686 29.1127 17.2129 29.1127ZM20.9565 19.5715C20.9565 19.2564 21.2129 18.9999 21.5281 18.9999C21.8434 18.9999 22.0998 19.2563 22.0998 19.5715V20.0985H20.9565V19.5715ZM17.4393 21.8563H25.6169V27.3549H17.4395V21.8563H17.4393Z" fill="#009C77"/>
</g>
<defs>
<clipPath id="clip0">
<rect width="60" height="60" fill="white"/>
</clipPath>
</defs>
</svg>
