<svg width="60" height="60" viewBox="0 0 60 60" fill="none" xmlns="http://www.w3.org/2000/svg">
<g clip-path="url(#clip0)">
<path d="M23.066 23.8123C23.2971 24.5738 23.987 25.0853 24.7828 25.0853H35.2174C36.0132 25.0853 36.703 24.5737 36.9341 23.8123L39.1242 16.5967C39.4775 15.4609 38.5823 14.2731 37.4075 14.2814H36.6279L35.035 10.2991C34.6687 9.3825 33.7941 8.79012 32.8068 8.79012H27.1936C26.2063 8.79012 25.3317 9.3825 24.9655 10.2989L23.3724 14.2815H22.5929C21.3951 14.272 20.5243 15.463 20.8761 16.5968L23.066 23.8123ZM26.5974 10.9514C26.6954 10.7062 26.9293 10.5479 27.1933 10.5479H32.8066C33.0706 10.5479 33.3046 10.7064 33.4026 10.9518L34.7344 14.2815H25.2652L26.5974 10.9514ZM22.5635 16.0538C22.5744 16.0392 22.5849 16.0392 22.5927 16.0392H37.4073C37.4151 16.0392 37.4256 16.0392 37.4365 16.0538C37.4474 16.0685 37.4444 16.0787 37.4421 16.0861L35.252 23.3017C35.2473 23.3171 35.2334 23.3275 35.2174 23.3275H24.7828C24.7667 23.3275 24.7528 23.3172 24.7481 23.3017L22.558 16.0861C22.5556 16.0787 22.5526 16.0686 22.5635 16.0538ZM60 29.538V25.9052C60 24.9683 59.2376 24.206 58.3007 24.206H51.656V7.0322C52.7199 7.15735 53.8591 6.52326 53.8476 5.33299V1.70019C53.8476 0.763278 53.0853 0.000976562 52.1484 0.000976562H7.85171C6.9148 0.000976562 6.1525 0.763278 6.1525 1.70019V5.33299C6.13551 6.48271 7.28933 7.22814 8.39136 7.0322V24.206H1.69939C0.762485 24.206 0.000182892 24.9683 0.000182892 25.9052V29.538C-0.016692 30.6861 1.13713 31.4343 2.23904 31.2372V54.7573C0.973187 54.9497 0.000182892 56.0453 0.000182892 57.364C0.000182892 58.818 1.18295 60.0007 2.63689 60.0007H57.3632C58.8172 60.0007 60 58.818 60 57.364C60 56.0453 59.0269 54.9497 57.7611 54.7573V31.2372C58.8342 31.3628 60.0126 30.7575 60 29.538ZM7.91031 5.27439V1.75878H52.0898V5.27439H21.7315C21.2461 5.27439 20.8526 5.66791 20.8526 6.1533C20.8526 6.63868 21.2461 7.0322 21.7315 7.0322H49.8982V26.8431H10.1492V7.0322H17.63C18.1154 7.0322 18.5089 6.63868 18.5089 6.1533C18.5089 5.66791 18.1154 5.27439 17.63 5.27439H7.91031ZM51.656 31.2372H56.0033V54.7273H51.656V31.2372ZM46.0896 36.3495H39.7162C38.5854 36.3495 37.6654 37.2695 37.6654 38.4002V46.9101C37.6654 47.3955 38.0589 47.789 38.5443 47.789C39.0297 47.789 39.4232 47.3955 39.4232 46.9101V38.4002C39.4232 38.2388 39.5547 38.1073 39.7162 38.1073H46.0896C46.2511 38.1073 46.3826 38.2388 46.3826 38.4002V54.7273H39.4232V51.0116C39.4232 50.5262 39.0297 50.1327 38.5443 50.1327C38.0589 50.1327 37.6654 50.5262 37.6654 51.0116V54.7273H35.2376V38.4002C35.2376 37.2695 34.3176 36.3495 33.1869 36.3495H26.8133C25.6825 36.3495 24.7625 37.2695 24.7625 38.4002V54.7273H22.3821V38.4002C22.3821 37.2695 21.4621 36.3495 20.3313 36.3495H13.9577C12.827 36.3495 11.907 37.2695 11.907 38.4002V54.7273H10.1492V28.6009H49.8982V54.7273H48.1404V38.4002C48.1404 37.2695 47.2203 36.3495 46.0896 36.3495ZM33.4797 38.4002V54.7273H26.5202V38.4002C26.5202 38.2388 26.6517 38.1073 26.8132 38.1073H33.1867C33.3483 38.1073 33.4797 38.2388 33.4797 38.4002ZM20.6242 38.4002V54.7273H13.6647V38.4002C13.6647 38.2388 13.7961 38.1073 13.9576 38.1073H20.3312C20.4928 38.1073 20.6242 38.2388 20.6242 38.4002ZM1.75799 29.4794V25.9638H8.39136V29.4794H1.75799ZM8.39136 31.2372V54.7273H3.99685V31.2372H8.39136ZM58.2421 57.364C58.2421 57.8487 57.8479 58.2429 57.3632 58.2429H2.63689C2.15221 58.2429 1.75799 57.8487 1.75799 57.364C1.75799 56.8793 2.15221 56.4851 2.63689 56.4851H57.3632C57.8478 56.4851 58.2421 56.8793 58.2421 57.364ZM51.656 29.4794V25.9638H58.2421V29.4794H51.656Z" fill="#009C77"/>
</g>
<defs>
<clipPath id="clip0">
<rect width="60" height="60" fill="white"/>
</clipPath>
</defs>
</svg>
