<svg width="60" height="60" viewBox="0 0 60 60" fill="none" xmlns="http://www.w3.org/2000/svg">
<g clip-path="url(#clip0)">
<path d="M23.2803 19.6789H26.8814V23.2801C26.8814 23.7655 27.275 24.159 27.7604 24.159H32.2404C32.7258 24.159 33.1193 23.7655 33.1193 23.2801V19.6789H36.7205C37.2059 19.6789 37.5994 19.2854 37.5994 18.8V14.3199C37.5994 13.8345 37.2059 13.441 36.7205 13.441H33.1193V9.83984C33.1193 9.35445 32.7258 8.96094 32.2404 8.96094H27.7604C27.275 8.96094 26.8814 9.35445 26.8814 9.83984V13.441H23.2803C22.7949 13.441 22.4014 13.8345 22.4014 14.3199V18.8C22.4014 19.2854 22.7949 19.6789 23.2803 19.6789ZM24.1592 15.1988H27.7604C28.2457 15.1988 28.6393 14.8053 28.6393 14.3199V10.7188H31.3615V14.3199C31.3615 14.8053 31.755 15.1988 32.2404 15.1988H35.8416V17.9211H32.2404C31.755 17.9211 31.3615 18.3146 31.3615 18.8V22.4012H28.6393V18.8C28.6393 18.3146 28.2457 17.9211 27.7604 17.9211H24.1592V15.1988Z" fill="#009C77"/>
<path d="M27.76 26.8809H18.7998C18.3144 26.8809 17.9209 27.2744 17.9209 27.7598V36.7199C17.9209 37.2053 18.3144 37.5988 18.7998 37.5988H27.76C28.2454 37.5988 28.6389 37.2053 28.6389 36.7199V27.7598C28.6389 27.2744 28.2454 26.8809 27.76 26.8809ZM26.8811 35.841H19.6787V28.6387H26.8811V35.841Z" fill="#009C77"/>
<path d="M41.2004 26.8809H32.2402C31.7548 26.8809 31.3613 27.2744 31.3613 27.7598V36.7199C31.3613 37.2053 31.7548 37.5988 32.2402 37.5988H41.2004C41.6858 37.5988 42.0793 37.2053 42.0793 36.7199V27.7598C42.0793 27.2744 41.6858 26.8809 41.2004 26.8809ZM40.3215 35.841H33.1191V28.6387H40.3215V35.841Z" fill="#009C77"/>
<path d="M50.1602 37.5988H54.6402C55.1256 37.5988 55.5191 37.2053 55.5191 36.7199V27.7598C55.5191 27.2744 55.1256 26.8809 54.6402 26.8809H50.1602C49.6748 26.8809 49.2812 27.2744 49.2812 27.7598V36.7199C49.2812 37.2053 49.6748 37.5988 50.1602 37.5988ZM51.0391 28.6387H53.7613V35.841H51.0391V28.6387Z" fill="#009C77"/>
<path d="M50.1602 51.0393H54.6402C55.1256 51.0393 55.5191 50.6457 55.5191 50.1604V41.2002C55.5191 40.7148 55.1256 40.3213 54.6402 40.3213H50.1602C49.6748 40.3213 49.2812 40.7148 49.2812 41.2002V50.1604C49.2812 50.6457 49.6748 51.0393 50.1602 51.0393ZM51.0391 42.079H53.7613V49.2813H51.0391V42.079Z" fill="#009C77"/>
<path d="M59.1206 17.9209H46.5598V6.23789H47.9203C48.4057 6.23789 48.7992 5.84438 48.7992 5.35898V0.878906C48.7992 0.393516 48.4057 0 47.9203 0H12.0797C11.5943 0 11.2008 0.393516 11.2008 0.878906V5.35898C11.2008 5.84438 11.5943 6.23789 12.0797 6.23789H13.4402V17.9209H0.879492C0.394102 17.9209 0.000585937 18.3144 0.000585937 18.7998L0 59.1211C0 59.6065 0.393516 60 0.878906 60L59.1206 59.9995C59.606 59.9995 59.9995 59.606 59.9995 59.1206V18.7998C59.9995 18.3144 59.606 17.9209 59.1206 17.9209ZM58.2417 19.6787V22.401H46.5598V19.6787H58.2417ZM1.7584 19.6787H13.4402V22.4004H1.7584V19.6787ZM35.8412 58.2417H30.8789V52.9699C30.8789 52.4845 30.4854 52.091 30 52.091C29.5146 52.091 29.1211 52.4845 29.1211 52.9699V58.2417H24.1588V46.5593H29.1211V49.1404C29.1211 49.6257 29.5146 50.0193 30 50.0193C30.4854 50.0193 30.8789 49.6257 30.8789 49.1404V46.5593H35.8412V58.2417ZM21.9188 44.8014V42.0791H38.0812V44.8014H21.9188ZM37.599 46.5592H38.9602C39.4455 46.5592 39.8391 46.1657 39.8391 45.6803V41.2002C39.8391 40.7148 39.4455 40.3213 38.9602 40.3213H21.0398C20.5545 40.3213 20.1609 40.7148 20.1609 41.2002V45.6803C20.1609 46.1657 20.5545 46.5592 21.0398 46.5592H22.401V58.2422H15.198V34.1543C15.198 33.6689 14.8045 33.2754 14.3191 33.2754C13.8338 33.2754 13.4402 33.6689 13.4402 34.1543V58.2422H1.75781V24.1588H13.4402V30.3246C13.4402 30.81 13.8338 31.2035 14.3191 31.2035C14.8045 31.2035 15.198 30.81 15.198 30.3246V6.23789H37.0453C37.5307 6.23789 37.9242 5.84438 37.9242 5.35898C37.9242 4.87359 37.5307 4.48008 37.0453 4.48008H12.9586V1.75781H47.0414V4.48008H40.875C40.3896 4.48008 39.9961 4.87359 39.9961 5.35898C39.9961 5.84438 40.3896 6.23789 40.875 6.23789H44.802L44.8014 58.2422H37.599V46.5592ZM58.2417 58.2417H46.5598V24.1588H58.2417V58.2417Z" fill="#009C77"/>
<path d="M9.83945 26.8809H5.35937C4.87398 26.8809 4.48047 27.2744 4.48047 27.7598V36.7199C4.48047 37.2053 4.87398 37.5988 5.35937 37.5988H9.83945C10.3248 37.5988 10.7184 37.2053 10.7184 36.7199V27.7598C10.7184 27.2744 10.3248 26.8809 9.83945 26.8809ZM8.96055 35.841H6.23828V28.6387H8.96055V35.841Z" fill="#009C77"/>
<path d="M9.83945 40.3213H5.35937C4.87398 40.3213 4.48047 40.7148 4.48047 41.2002V50.1604C4.48047 50.6457 4.87398 51.0393 5.35937 51.0393H9.83945C10.3248 51.0393 10.7184 50.6457 10.7184 50.1604V41.2002C10.7184 40.7148 10.3248 40.3213 9.83945 40.3213ZM8.96055 49.2816H6.23828V42.0792H8.96055V49.2816Z" fill="#009C77"/>
</g>
<defs>
<clipPath id="clip0">
<rect width="60" height="60" fill="white"/>
</clipPath>
</defs>
</svg>
