<svg width="60" height="60" viewBox="0 0 60 60" fill="none" xmlns="http://www.w3.org/2000/svg">
<path d="M59.0896 13.4227H51.0549V10.2914L57.386 6.07043C57.9081 5.58275 57.9081 5.09506 57.386 4.60725L50.6633 0.125429C49.9155 -0.176564 49.4598 0.0672809 49.2964 0.856963V13.4227H46.6089C46.1233 13.4227 45.7297 13.8163 45.7297 14.302C45.7297 14.7877 46.1233 15.1812 46.6089 15.1812H58.2103V17.9044H1.79072V15.1812H42.7777C43.2633 15.1812 43.657 14.7877 43.657 14.302C43.657 13.8163 43.2633 13.4227 42.7777 13.4227H37.6093V10.2913L43.9405 6.07032C44.4625 5.58263 44.4625 5.09494 43.9405 4.60713L37.2177 0.125429C36.4699 -0.176564 36.0142 0.0672809 35.8508 0.856963V13.4227H24.1569V0.856963C23.9934 0.0672809 23.5378 -0.176564 22.79 0.125429L16.0672 4.60713C15.5452 5.09482 15.5452 5.58251 16.0672 6.07032L22.3984 10.2913V13.4227H10.7115V0.856846C10.5479 0.0671636 10.0923 -0.176681 9.34452 0.125311L2.62179 4.60713C2.09975 5.09482 2.09975 5.58251 2.62179 6.07032L8.95296 10.2913V13.4226H0.911475C0.425895 13.4226 0.0322266 13.8161 0.0322266 14.3018V18.7835C0.0322266 19.2692 0.425895 19.6628 0.911475 19.6628H4.8967L9.15378 31.3499H5.34992C4.86434 31.3499 4.47067 31.7434 4.47067 32.2291V36.712C4.47067 37.1977 4.86434 37.5912 5.34992 37.5912H8.95249V53.7596H5.35039C4.86481 53.7596 4.47114 54.1531 4.47114 54.6388V59.1206C4.47114 59.6063 4.86481 59.9999 5.35039 59.9999H54.6505C55.1361 59.9999 55.5298 59.6063 55.5298 59.1206V54.6388C55.5298 54.1531 55.1361 53.7596 54.6505 53.7596H51.0484V49.6429C51.0484 49.1572 50.6548 48.7637 50.1692 48.7637C49.6836 48.7637 49.2899 49.1572 49.2899 49.6429V53.7596H37.5907V41.1933C37.5907 40.7076 37.197 40.3141 36.7114 40.3141H23.2895C22.8039 40.3141 22.4103 40.7076 22.4103 41.1933V53.7596H10.711V37.5914H13.9853C14.4709 37.5914 14.8646 37.1978 14.8646 36.7121C14.8646 36.2264 14.4709 35.8329 13.9853 35.8329H6.22917V33.1085H53.7719V35.8329H17.8165C17.3309 35.8329 16.9372 36.2264 16.9372 36.7121C16.9372 37.1978 17.3309 37.5914 17.8165 37.5914H49.29V45.8117C49.29 46.2974 49.6837 46.691 50.1693 46.691C50.6549 46.691 51.0485 46.2974 51.0485 45.8117V37.5914H54.6511C55.1367 37.5914 55.5304 37.1978 55.5304 36.7121V32.2292C55.5304 31.7435 55.1367 31.35 54.6511 31.35H50.8473L55.1043 19.6629H59.0896C59.5751 19.6629 59.9688 19.2694 59.9688 18.7837V14.302C59.9688 13.8163 59.5751 13.4227 59.0896 13.4227ZM55.3132 5.33878L51.055 8.17782L51.0549 2.49987L55.3132 5.33878ZM41.8678 5.33878L37.6095 8.17782L37.6094 2.49987L41.8678 5.33878ZM22.3983 8.17782L18.14 5.33878L22.3984 2.49987L22.3983 8.17782ZM8.95284 8.17782L4.69459 5.33878L8.95296 2.49987L8.95284 8.17782ZM53.7713 58.2415H6.22964V55.5182H53.7713V58.2415ZM35.8322 53.7597H30.8916V42.0727H35.8322V53.7597ZM24.1688 42.0727H29.1331V53.7597H24.1688V42.0727ZM34.8643 31.35L35.7156 19.6635H43.6012L41.047 31.35H34.8643ZM26.8998 31.35L26.0485 19.6635H33.9292L33.082 31.35H26.8998ZM18.954 31.35L16.3998 19.6635H24.2621L25.1175 31.35H18.954ZM6.76844 19.6635H14.5997L17.1539 31.35H11.0253L6.76844 19.6635ZM48.9756 31.35H42.847L45.4012 19.6635H53.2325L48.9756 31.35Z" fill="#009C77"/>
</svg>
