<svg width="60" height="60" viewBox="0 0 60 60" fill="none" xmlns="http://www.w3.org/2000/svg">
<path d="M55.507 54.6516H55.2033V52.2398C55.2033 51.5954 54.6791 51.0712 54.0347 51.0712H51.8179V49.5266C51.8179 48.8214 51.3573 48.2227 50.7217 48.0127V43.5043C50.7217 43.0223 50.3309 42.6314 49.8489 42.6314C49.3669 42.6314 48.9761 43.0223 48.9761 43.5043V47.9317H46.2345V25.4282H48.9761V39.4641C48.9761 39.9462 49.3669 40.3369 49.8489 40.3369C50.3309 40.3369 50.7217 39.9461 50.7217 39.4641V25.347C51.3574 25.137 51.8179 24.5382 51.8179 23.8331V22.3001H54.2939C54.9383 22.3001 55.4626 21.7758 55.4626 21.1315V18.1204C55.4626 17.476 54.9383 16.9517 54.2939 16.9517H51.032L31.249 0.452505C30.5256 -0.150894 29.4754 -0.150776 28.7517 0.452505L18.7913 8.75957C18.4211 9.06836 18.3713 9.61868 18.68 9.98887C18.9888 10.3591 19.5391 10.4089 19.9095 10.1002L29.8699 1.79313C29.9455 1.73008 30.0553 1.73008 30.1309 1.79313L48.2782 16.928H11.7226L16.8145 12.6814C17.1847 12.3726 17.2345 11.8223 16.9257 11.4521C16.617 11.0818 16.0666 11.0322 15.6963 11.3407L8.96871 16.9516H5.7068C5.06238 16.9516 4.5382 17.4759 4.5382 18.1203V21.1314C4.5382 21.7758 5.06238 22.3 5.7068 22.3H8.18274V23.8329C8.18274 24.5382 8.64317 25.1369 9.27891 25.3469V48.0123C8.64317 48.2223 8.18274 48.8212 8.18274 49.5263V51.0708H5.96613C5.32172 51.0708 4.79754 51.595 4.79754 52.2394V54.6513H4.49379C3.84938 54.6513 3.3252 55.1754 3.3252 55.8198V58.831C3.3252 59.4754 3.84938 59.9997 4.49379 59.9997H55.507C56.1515 59.9997 56.6756 59.4754 56.6756 58.831V55.8198C56.6756 55.1758 56.1513 54.6516 55.507 54.6516ZM49.8488 49.6898C49.8972 49.6898 49.9442 49.6848 49.9904 49.6772H50.0721V51.0524H45.1381V49.6772H45.2197C45.2659 49.6847 45.313 49.6898 45.3614 49.6898H49.8488ZM50.0721 23.6822H49.8768C49.8674 23.682 49.8581 23.6808 49.8488 23.6808H45.3614C45.3519 23.6808 45.3428 23.682 45.3334 23.6822H45.1381V22.307H50.0721V23.6822ZM6.28395 20.5544V18.6973H53.7169V20.5544H6.28395ZM23.7238 51.0711V35.7799C23.7238 32.3407 26.5216 29.543 29.9606 29.543H30.0401C33.4792 29.543 36.2769 32.3409 36.2769 35.7799V51.0711H23.7238ZM30.0401 27.7973H29.9606C25.559 27.7973 21.9781 31.3782 21.9781 35.7799V51.0711H16.6082V49.5265C16.6082 48.8213 16.1477 48.2226 15.512 48.0126V25.347C16.1477 25.137 16.6082 24.5382 16.6082 23.8331V22.3001H43.3922V23.8331C43.3922 24.5383 43.8527 25.137 44.4884 25.347V48.0125C43.8526 48.2225 43.3922 48.8213 43.3922 49.5264V51.0709H38.0225V35.7799C38.0227 31.3782 34.4417 27.7973 30.0401 27.7973ZM14.6392 49.6898C14.6876 49.6898 14.7346 49.6848 14.7809 49.6772H14.8625V51.0524H9.92848V49.6772H10.0102C10.0563 49.6847 10.1034 49.6898 10.1518 49.6898H14.6392ZM11.0247 47.9315V25.428H13.7664V47.9315H11.0247ZM14.6673 23.6822C14.6579 23.682 14.6487 23.6808 14.6393 23.6808H10.1518C10.1423 23.6808 10.1332 23.682 10.1238 23.6822H9.92848V22.307H14.8625V23.6822H14.6673ZM6.54317 52.8168H53.4574V54.6516H6.54317V52.8168ZM54.9299 58.2544H5.07082V56.3973H54.9299V58.2544Z" fill="#009C77"/>
</svg>
