<svg width="80" height="80" viewBox="0 0 80 80" fill="none" xmlns="http://www.w3.org/2000/svg">
<g clip-path="url(#clip0)">
<path d="M64.1477 26.7939C63.5015 26.7939 62.9776 27.3179 62.9776 27.9641V76.466C62.9776 77.1243 62.4421 77.6599 61.7838 77.6599H32.9104C32.2641 77.6599 31.7402 78.1838 31.7402 78.83C31.7402 79.4763 32.264 80.0002 32.9104 80.0002H61.7838C63.7326 80.0002 65.3179 78.4149 65.3179 76.4661V27.9641C65.3179 27.3179 64.7941 26.7939 64.1477 26.7939Z" fill="#009C77"/>
<path d="M61.7834 10.3131H52.7657V8.52797C52.7657 7.36125 51.8204 6.41219 50.6587 6.41219H45.8339V5.87703C45.8339 2.63641 43.217 0 40.0001 0C36.7832 0 34.1664 2.63641 34.1664 5.87687V6.41203H29.3415C28.1798 6.41203 27.2345 7.36109 27.2345 8.52781V10.313H18.2167C16.2679 10.313 14.6826 11.8983 14.6826 13.847V76.4658C14.6826 78.4145 16.2679 79.9998 18.2167 79.9998H27.56C28.2062 79.9998 28.7301 79.4759 28.7301 78.8297C28.7301 78.1834 28.2064 77.6595 27.56 77.6595H18.2167C17.5584 77.6595 17.0229 77.1239 17.0229 76.4656V13.8472C17.0229 13.1889 17.5584 12.6534 18.2167 12.6534H27.2345V14.4386C27.2345 15.6052 28.1798 16.5544 29.3415 16.5544H50.6587C51.8204 16.5544 52.7657 15.6052 52.7657 14.4386V12.6534H61.7835C62.4418 12.6534 62.9773 13.1889 62.9773 13.8472V22.5891C62.9773 23.2353 63.501 23.7592 64.1474 23.7592C64.7938 23.7592 65.3176 23.2353 65.3176 22.5891V13.8472C65.3174 11.8986 63.7321 10.3131 61.7834 10.3131ZM50.4254 14.2141H29.5748V8.75234H35.3365C35.9828 8.75234 36.5067 8.22844 36.5067 7.58219V5.87687C36.5067 3.92672 38.0739 2.34016 40.0001 2.34016C41.9264 2.34016 43.4935 3.92672 43.4935 5.87687V7.58219C43.4935 8.22844 44.0173 8.75234 44.6637 8.75234H50.4254V14.2141Z" fill="#009C77"/>
<path d="M29.4386 22.8628H24.5227C23.438 22.8628 22.5557 23.7451 22.5557 24.8298V29.7458C22.5557 30.8303 23.438 31.7128 24.5227 31.7128H29.4386C30.5233 31.7128 31.4057 30.8304 31.4057 29.7458V24.8298C31.4057 23.7453 30.5233 22.8628 29.4386 22.8628ZM29.0654 29.3725H24.896V25.2031H29.0654V29.3725Z" fill="#009C77"/>
<path d="M35.9797 26.0644H56.2744C56.9207 26.0644 57.4446 25.5405 57.4446 24.8943C57.4446 24.248 56.9207 23.7241 56.2744 23.7241H35.9797C35.3335 23.7241 34.8096 24.248 34.8096 24.8943C34.8096 25.5405 35.3333 26.0644 35.9797 26.0644Z" fill="#009C77"/>
<path d="M35.9797 30.8511H53.211C53.8572 30.8511 54.3811 30.3271 54.3811 29.6809C54.3811 29.0346 53.8574 28.5107 53.211 28.5107H35.9797C35.3335 28.5107 34.8096 29.0346 34.8096 29.6809C34.8096 30.3271 35.3333 30.8511 35.9797 30.8511Z" fill="#009C77"/>
<path d="M29.4386 36.0757H24.5227C23.438 36.0757 22.5557 36.958 22.5557 38.0427V42.9587C22.5557 44.0432 23.438 44.9257 24.5227 44.9257H29.4386C30.5233 44.9257 31.4057 44.0433 31.4057 42.9587V38.0427C31.4057 36.958 30.5233 36.0757 29.4386 36.0757ZM29.0654 42.5854H24.896V38.416H29.0654V42.5854Z" fill="#009C77"/>
<path d="M35.9797 39.2773H56.2744C56.9207 39.2773 57.4446 38.7534 57.4446 38.1072C57.4446 37.4609 56.9207 36.937 56.2744 36.937H35.9797C35.3335 36.937 34.8096 37.4609 34.8096 38.1072C34.8096 38.7534 35.3333 39.2773 35.9797 39.2773Z" fill="#009C77"/>
<path d="M35.9797 44.0639H53.211C53.8572 44.0639 54.3811 43.54 54.3811 42.8938C54.3811 42.2475 53.8574 41.7236 53.211 41.7236H35.9797C35.3335 41.7236 34.8096 42.2475 34.8096 42.8938C34.8096 43.54 35.3333 44.0639 35.9797 44.0639Z" fill="#009C77"/>
<path d="M29.4386 49.2886H24.5227C23.438 49.2886 22.5557 50.1709 22.5557 51.2556V56.1715C22.5557 57.2561 23.438 58.1386 24.5227 58.1386H29.4386C30.5233 58.1386 31.4057 57.2562 31.4057 56.1715V51.2556C31.4057 50.1709 30.5233 49.2886 29.4386 49.2886ZM29.0654 55.7983H24.896V51.6289H29.0654V55.7983Z" fill="#009C77"/>
<path d="M35.9797 52.4907H56.2744C56.9207 52.4907 57.4446 51.9668 57.4446 51.3205C57.4446 50.6743 56.9207 50.1504 56.2744 50.1504H35.9797C35.3335 50.1504 34.8096 50.6743 34.8096 51.3205C34.8096 51.9668 35.3333 52.4907 35.9797 52.4907Z" fill="#009C77"/>
<path d="M35.9797 57.2768H53.211C53.8572 57.2768 54.3811 56.7529 54.3811 56.1067C54.3811 55.4604 53.8574 54.9365 53.211 54.9365H35.9797C35.3335 54.9365 34.8096 55.4604 34.8096 56.1067C34.8096 56.7529 35.3333 57.2768 35.9797 57.2768Z" fill="#009C77"/>
<path d="M29.4386 62.502H24.5227C23.438 62.502 22.5557 63.3843 22.5557 64.4688V69.3848C22.5557 70.4693 23.438 71.3516 24.5227 71.3516H29.4386C30.5233 71.3516 31.4057 70.4693 31.4057 69.3848V64.4688C31.4057 63.3843 30.5233 62.502 29.4386 62.502ZM29.0654 69.0116H24.896V64.8424H29.0654V69.0116Z" fill="#009C77"/>
<path d="M35.9797 65.7036H56.2744C56.9207 65.7036 57.4446 65.1797 57.4446 64.5334C57.4446 63.8872 56.9207 63.3633 56.2744 63.3633H35.9797C35.3335 63.3633 34.8096 63.8872 34.8096 64.5334C34.8096 65.1797 35.3333 65.7036 35.9797 65.7036Z" fill="#009C77"/>
<path d="M35.9797 70.4897H53.211C53.8572 70.4897 54.3811 69.9658 54.3811 69.3196C54.3811 68.6733 53.8574 68.1494 53.211 68.1494H35.9797C35.3335 68.1494 34.8096 68.6733 34.8096 69.3196C34.8096 69.9658 35.3333 70.4897 35.9797 70.4897Z" fill="#009C77"/>
</g>
<defs>
<clipPath id="clip0">
<rect width="80" height="80" fill="white"/>
</clipPath>
</defs>
</svg>
