<svg width="80" height="80" viewBox="0 0 80 80" fill="none" xmlns="http://www.w3.org/2000/svg">
<g clip-path="url(#clip0)">
<path d="M28.2853 22.2798L26.9323 22.7701C24.8442 23.5273 23.2864 25.3539 22.8666 27.5384L22.4075 29.944C22.1784 31.1356 22.4903 32.3559 23.2636 33.2917C24.0372 34.2284 25.1778 34.7656 26.3925 34.7656H38.1202C39.3255 34.7656 40.4603 34.2354 41.2337 33.3111C42.0066 32.3875 42.3281 31.1782 42.1159 29.9934L41.6878 27.6004C41.2911 25.3815 39.7281 23.5253 37.6084 22.7561L36.1741 22.2362V20.1221C36.1741 20.0628 36.1683 20.005 36.1597 19.9479C37.2061 18.8826 37.8055 17.43 37.8055 15.9437V12.7939C37.8055 9.71918 35.3039 7.21777 32.2291 7.21777C29.1542 7.21777 26.6522 9.71918 26.6522 12.7939V16.0418C26.6522 17.5696 27.2822 18.9645 28.2952 19.9775C28.2892 20.025 28.2853 20.0729 28.2853 20.122V22.2798ZM39.3803 28.0129L39.8084 30.4062C39.8981 30.9064 39.7623 31.4168 39.4359 31.8068C39.1091 32.1975 38.6294 32.4217 38.1198 32.4217H26.3922C25.8789 32.4217 25.397 32.1948 25.0702 31.799C24.7439 31.404 24.6122 30.8892 24.7091 30.385L25.1681 27.9793C25.4327 26.6025 26.4148 25.4507 27.7306 24.9737L28.6169 24.6526C28.6391 24.6754 28.6614 24.6984 28.6855 24.7195C29.6953 25.6025 30.962 26.044 32.2295 26.0439C33.4955 26.0439 34.7619 25.6032 35.7719 24.722C35.8083 24.6903 35.8417 24.6561 35.8736 24.6204L36.8084 24.9593C38.145 25.444 39.1303 26.614 39.3803 28.0129ZM28.9959 12.7939C28.9959 11.0117 30.4461 9.56152 32.2286 9.56152C33.733 9.56152 34.997 10.5959 35.3559 11.9896C35.2053 12.0632 35.0508 12.1328 34.8925 12.1961C33.4516 12.7729 32.2877 12.6964 31.955 12.4632C31.425 12.0917 30.6944 12.2198 30.3227 12.7498C29.9511 13.2798 30.0794 14.0104 30.6092 14.3821C31.1816 14.7836 31.9584 14.9842 32.845 14.9842C33.6505 14.9842 34.5466 14.8168 35.4614 14.4857V15.9434C35.4614 16.8392 35.0909 17.7164 34.4448 18.35C34.1458 18.6434 33.8031 18.8707 33.4352 19.0276C33.4094 19.0375 33.3841 19.0481 33.3592 19.0596C32.9812 19.2092 32.5775 19.2843 32.1648 19.2736C30.4173 19.24 28.9959 17.7901 28.9959 16.0417V12.7939ZM32.1198 21.6171C32.1556 21.6178 32.1911 21.6181 32.2269 21.6181C32.7767 21.6181 33.3155 21.5354 33.8302 21.3768V23.2517C32.8534 23.8539 31.6048 23.8536 30.6294 23.2507V21.3803C31.1034 21.5239 31.603 21.6071 32.1198 21.6171Z" fill="#009C77"/>
<path d="M13.792 54.8291H50.2873C50.9346 54.8291 51.4592 54.3046 51.4592 53.6572C51.4592 53.0099 50.9346 52.4854 50.2873 52.4854H13.792C13.1446 52.4854 12.6201 53.0099 12.6201 53.6572C12.6201 54.3046 13.1446 54.8291 13.792 54.8291Z" fill="#009C77"/>
<path d="M13.792 61.1475H50.2873C50.9346 61.1475 51.4592 60.6229 51.4592 59.9756C51.4592 59.3282 50.9346 58.8037 50.2873 58.8037H13.792C13.1446 58.8037 12.6201 59.3282 12.6201 59.9756C12.6201 60.6229 13.1446 61.1475 13.792 61.1475Z" fill="#009C77"/>
<path d="M13.792 67.4663H50.2873C50.9346 67.4663 51.4592 66.9418 51.4592 66.2944C51.4592 65.6471 50.9346 65.1226 50.2873 65.1226H13.792C13.1446 65.1226 12.6201 65.6471 12.6201 66.2944C12.6201 66.9418 13.1446 67.4663 13.792 67.4663Z" fill="#009C77"/>
<path d="M13.792 73.7852H50.2873C50.9346 73.7852 51.4592 73.2606 51.4592 72.6133C51.4592 71.9659 50.9346 71.4414 50.2873 71.4414H13.792C13.1446 71.4414 12.6201 71.9659 12.6201 72.6133C12.6201 73.2606 13.1446 73.7852 13.792 73.7852Z" fill="#009C77"/>
<path d="M12.6201 41.0195C12.6201 41.6669 13.1446 42.1914 13.792 42.1914H50.2873C50.9346 42.1914 51.4592 41.6669 51.4592 41.0195C51.4592 40.3722 50.9346 39.8477 50.2873 39.8477H13.792C13.1446 39.8477 12.6201 40.3723 12.6201 41.0195Z" fill="#009C77"/>
<path d="M13.792 48.5103H50.2873C50.9346 48.5103 51.4592 47.9857 51.4592 47.3384C51.4592 46.691 50.9346 46.1665 50.2873 46.1665H13.792C13.1446 46.1665 12.6201 46.691 12.6201 47.3384C12.6201 47.9857 13.1446 48.5103 13.792 48.5103Z" fill="#009C77"/>
<path d="M9.46434 54.833C10.114 54.833 10.6407 54.3064 10.6407 53.6567C10.6407 53.0072 10.114 52.4805 9.46434 52.4805C8.81465 52.4805 8.28809 53.007 8.28809 53.6567C8.28809 54.3064 8.8148 54.833 9.46434 54.833Z" fill="#009C77"/>
<path d="M9.46434 42.1958C10.114 42.1958 10.6407 41.6692 10.6407 41.0195C10.6407 40.3698 10.114 39.8433 9.46434 39.8433C8.81465 39.8433 8.28809 40.3698 8.28809 41.0195C8.28809 41.6692 8.8148 42.1958 9.46434 42.1958Z" fill="#009C77"/>
<path d="M9.46434 48.5141C10.114 48.5141 10.6407 47.9876 10.6407 47.3379C10.6407 46.6882 10.114 46.1616 9.46434 46.1616C8.81465 46.1616 8.28809 46.6882 8.28809 47.3379C8.28809 47.9876 8.8148 48.5141 9.46434 48.5141Z" fill="#009C77"/>
<path d="M9.46434 61.1518C10.114 61.1518 10.6407 60.6253 10.6407 59.9756C10.6407 59.3259 10.114 58.7993 9.46434 58.7993C8.81465 58.7993 8.28809 59.3259 8.28809 59.9756C8.28809 60.6253 8.8148 61.1518 9.46434 61.1518Z" fill="#009C77"/>
<path d="M9.46434 67.4707C10.114 67.4707 10.6407 66.9441 10.6407 66.2944C10.6407 65.6447 10.114 65.1182 9.46434 65.1182C8.81465 65.1182 8.28809 65.6447 8.28809 66.2944C8.28809 66.9439 8.8148 67.4707 9.46434 67.4707Z" fill="#009C77"/>
<path d="M9.46434 73.7895C10.114 73.7895 10.6407 73.263 10.6407 72.6133C10.6407 71.9637 10.114 71.437 9.46434 71.437C8.81465 71.437 8.28809 71.9636 8.28809 72.6133C8.28809 73.2628 8.8148 73.7895 9.46434 73.7895Z" fill="#009C77"/>
<path d="M75.8801 18.4564C75.4073 17.858 74.9604 17.2925 74.7443 16.7716C74.5112 16.2092 74.4193 15.4662 74.3221 14.6794C74.1517 13.3009 73.9585 11.7386 72.8682 10.6484C71.7779 9.55828 70.2154 9.36516 68.837 9.19469C68.05 9.0975 67.3067 9.00562 66.7443 8.7725C66.2232 8.55641 65.6579 8.10984 65.0593 7.63688C64.2357 6.98609 63.33 6.27156 62.259 5.94734V5.59281C62.2592 2.50906 59.75 0 56.6657 0H7.84637C4.76215 0 2.25293 2.50906 2.25293 5.59297V10.1163C2.25293 10.7636 2.77746 11.2881 3.4248 11.2881C4.07215 11.2881 4.59668 10.7636 4.59668 10.1163V5.59297C4.59668 3.80125 6.05449 2.34375 7.84637 2.34375H56.6657C58.4576 2.34375 59.9154 3.80125 59.9154 5.59297V5.94766C58.8448 6.27203 57.9393 6.98625 57.1157 7.63703C56.5172 8.10984 55.9518 8.55656 55.4309 8.77266C54.8686 9.00562 54.1253 9.0975 53.3382 9.19484C51.9598 9.36516 50.3975 9.55828 49.307 10.6484C48.2165 11.7388 48.0234 13.3011 47.8529 14.6795C47.7557 15.4662 47.6639 16.2094 47.4307 16.7717C47.2146 17.2927 46.7679 17.8581 46.295 18.4566C45.4193 19.5645 44.4271 20.8203 44.4271 22.428C44.4271 24.0356 45.4195 25.2914 46.295 26.3994C46.7678 26.9978 47.2146 27.5633 47.4307 28.0842C47.6639 28.6466 47.7557 29.3895 47.8529 30.1766C48.0234 31.5548 48.2165 33.1172 49.3068 34.2073C50.3972 35.2977 51.9596 35.4906 53.3381 35.6611C53.749 35.7119 54.1473 35.7617 54.515 35.8305V53.5441C54.515 54.2383 54.9025 54.8583 55.5264 55.162C56.1501 55.4662 56.8772 55.3891 57.4242 54.9608L59.9153 53.0103V74.4072C59.9153 76.1989 58.4575 77.6564 56.6656 77.6564H7.84637C6.05449 77.6564 4.59668 76.1989 4.59668 74.4072V15.2767C4.59668 14.6294 4.07215 14.1048 3.4248 14.1048C2.77746 14.1048 2.25293 14.6294 2.25293 15.2767V74.407C2.25293 77.4909 4.76215 80 7.84637 80H56.6657C59.75 80 62.2592 77.4909 62.2592 74.407V53.0102L64.7503 54.9605C65.0754 55.2152 65.4645 55.3458 65.8579 55.3458C66.1261 55.3458 66.396 55.285 66.6492 55.1617C67.2732 54.858 67.6611 54.238 67.6611 53.5439V40.4663C67.6611 39.8189 67.1365 39.2944 66.4892 39.2944C65.8418 39.2944 65.3173 39.8189 65.3173 40.4663V52.428L62.2021 49.9891C61.8873 49.7398 61.4914 49.6025 61.0872 49.6025C60.6829 49.6025 60.287 49.7398 59.9771 49.985L56.8586 52.4267V37.0166C56.9436 37.0831 57.029 37.1505 57.1156 37.2188C58.2237 38.0944 59.4797 39.0864 61.0875 39.0864C62.6951 39.0864 63.9511 38.0942 65.0592 37.2189C65.6578 36.7461 66.2232 36.2992 66.7442 36.0831C67.3065 35.8502 68.0498 35.7583 68.8368 35.6609C70.2153 35.4906 71.7776 35.2975 72.8682 34.2073C73.9584 33.117 74.1515 31.5547 74.322 30.1764C74.4193 29.3895 74.5112 28.6464 74.7443 28.0841C74.9604 27.5631 75.4072 26.9977 75.8801 26.3992C76.7557 25.2913 77.7479 24.0355 77.7479 22.4278C77.7479 20.8202 76.7556 19.5644 75.8801 18.4564ZM74.0412 24.9461C73.49 25.6437 72.92 26.365 72.5795 27.1863C72.2243 28.0425 72.1082 28.9811 71.9961 29.8887C71.86 30.9897 71.7315 32.0295 71.2112 32.5498C70.6907 33.0702 69.6507 33.1986 68.5497 33.3347C67.6418 33.4469 66.7034 33.5628 65.8468 33.918C65.0256 34.2584 64.3043 34.8283 63.6067 35.3795C62.7193 36.0803 61.8814 36.7425 61.0878 36.7425C60.2942 36.7425 59.4562 36.0805 58.5689 35.3795C57.8712 34.8284 57.15 34.2584 56.3287 33.918C56.2722 33.8945 56.0759 33.8198 56.0336 33.8067C55.259 33.5373 54.4304 33.4341 53.6257 33.3347C52.5247 33.1986 51.4846 33.07 50.9642 32.5497C50.444 32.0295 50.3154 30.9897 50.1793 29.8889C50.0672 28.9811 49.9512 28.0428 49.5961 27.1863C49.2554 26.365 48.6856 25.6437 48.1343 24.9461C47.4336 24.0589 46.7714 23.2211 46.7714 22.4278C46.7714 21.6345 47.4334 20.7967 48.1343 19.9095C48.6856 19.2119 49.2556 18.4906 49.5961 17.6694C49.9512 16.8131 50.0673 15.8745 50.1793 14.9669C50.3154 13.8659 50.444 12.8261 50.9643 12.3058C51.4848 11.7855 52.5248 11.657 53.6259 11.5209C54.5337 11.4088 55.4722 11.2928 56.3287 10.9377C57.15 10.5972 57.8712 10.0273 58.5689 9.47609C59.4543 8.77656 60.2909 8.11594 61.0831 8.11344C61.0845 8.11344 61.0861 8.11359 61.0875 8.11359C61.089 8.11359 61.0906 8.11344 61.0921 8.11344C61.8845 8.11578 62.7211 8.77656 63.6067 9.47609C64.3043 10.0272 65.0256 10.5972 65.8468 10.9377C66.7032 11.2928 67.642 11.4089 68.5498 11.5209C69.6509 11.657 70.6909 11.7856 71.2112 12.3059C71.7315 12.8263 71.8601 13.8659 71.9962 14.9669C72.1084 15.8745 72.2243 16.813 72.5795 17.6694C72.9201 18.4906 73.49 19.2119 74.0412 19.9095C74.742 20.7967 75.4042 21.6345 75.4042 22.4278C75.4042 23.2211 74.7421 24.0591 74.0412 24.9461Z" fill="#009C77"/>
<path d="M68.6111 18.7037L64.6233 17.5754L62.3175 14.1317C62.0421 13.7204 61.5824 13.4751 61.0875 13.4751C60.5927 13.4751 60.1328 13.7206 59.8575 14.1317L57.5518 17.5754L53.5636 18.7038C53.0874 18.8387 52.7118 19.2004 52.5589 19.671C52.4061 20.1417 52.4977 20.6549 52.8036 21.0434L55.3666 24.3001L55.2075 28.4403C55.1883 28.9349 55.4158 29.404 55.8163 29.6951C56.0733 29.8818 56.3778 29.9784 56.6858 29.9784C56.858 29.9784 57.0311 29.9482 57.1974 29.887L61.0872 28.456L64.9768 29.8868C65.4413 30.0581 65.9574 29.9862 66.3578 29.6954C66.7583 29.4046 66.9861 28.9357 66.9671 28.4409L66.808 24.2999L69.3711 21.0432C69.6771 20.6543 69.7685 20.1413 69.6155 19.6707C69.4632 19.2001 69.0875 18.8385 68.6111 18.7037ZM64.7694 23.101C64.5528 23.3767 64.4408 23.7213 64.4541 24.0728L64.5757 27.2421L61.5986 26.147C61.2688 26.0256 60.9055 26.0257 60.5763 26.1468L57.5989 27.2421L57.7207 24.0717C57.7338 23.7215 57.6216 23.3768 57.4046 23.1003L55.443 20.6078L58.496 19.7442C58.8336 19.6484 59.1272 19.4349 59.3224 19.1434L61.0872 16.5074L62.8519 19.1431C63.0472 19.4348 63.3408 19.6482 63.6791 19.7443L66.7314 20.6078L64.7694 23.101Z" fill="#009C77"/>
</g>
<defs>
<clipPath id="clip0">
<rect width="80" height="80" fill="white"/>
</clipPath>
</defs>
</svg>
