<svg width="80" height="80" viewBox="0 0 80 80" fill="none" xmlns="http://www.w3.org/2000/svg">
<path d="M6.07422 23.3145H18.4333C19.0805 23.3145 19.6052 22.7899 19.6052 22.1426C19.6052 21.4952 19.0805 20.9707 18.4333 20.9707H6.07422C5.42703 20.9707 4.90234 21.4952 4.90234 22.1426C4.90234 22.7899 5.42688 23.3145 6.07422 23.3145Z" fill="#009C77"/>
<path d="M18.0091 28.9561H13.127C12.4798 28.9561 11.9551 29.4806 11.9551 30.1279C11.9551 30.7753 12.4798 31.2998 13.127 31.2998H18.0091C18.6563 31.2998 19.181 30.7753 19.181 30.1279C19.181 29.4806 18.6563 28.9561 18.0091 28.9561Z" fill="#009C77"/>
<path d="M1.17188 37.083H13.1269C13.7741 37.083 14.2987 36.5585 14.2987 35.9111C14.2987 35.2638 13.7741 34.7393 13.1269 34.7393H1.17188C0.524687 34.7393 0 35.2638 0 35.9111C0 36.5585 0.524687 37.083 1.17188 37.083Z" fill="#009C77"/>
<path d="M19.6052 57.8579C19.6052 57.2106 19.0805 56.686 18.4333 56.686H6.07422C5.42703 56.686 4.90234 57.2106 4.90234 57.8579C4.90234 58.5053 5.42703 59.0298 6.07422 59.0298H18.4333C19.0805 59.0298 19.6052 58.5053 19.6052 57.8579Z" fill="#009C77"/>
<path d="M18.0091 48.7012H13.127C12.4798 48.7012 11.9551 49.2257 11.9551 49.873C11.9551 50.5204 12.4798 51.0449 13.127 51.0449H18.0091C18.6563 51.0449 19.181 50.5204 19.181 49.873C19.181 49.2257 18.6563 48.7012 18.0091 48.7012Z" fill="#009C77"/>
<path d="M14.2987 44.0898C14.2987 43.4425 13.7741 42.918 13.1269 42.918H1.17188C0.524687 42.918 0 43.4425 0 44.0898C0 44.7372 0.524687 45.2617 1.17188 45.2617H13.1269C13.7741 45.2617 14.2987 44.7372 14.2987 44.0898Z" fill="#009C77"/>
<path d="M49.9268 25.9113C50.5741 25.9113 51.0986 25.3868 51.0986 24.7394V22.9507C51.0986 22.3033 50.5741 21.7788 49.9268 21.7788C49.2794 21.7788 48.7549 22.3033 48.7549 22.9507V24.7394C48.7549 25.3868 49.2794 25.9113 49.9268 25.9113Z" fill="#009C77"/>
<path d="M62.8113 27.1156C62.3535 26.6581 61.6116 26.6581 61.154 27.1156L59.8891 28.3804C59.4315 28.8382 59.4315 29.5801 59.8891 30.0378C60.3471 30.4954 61.0888 30.4953 61.5465 30.0378L62.8113 28.7729C63.2688 28.3153 63.2688 27.5734 62.8113 27.1156Z" fill="#009C77"/>
<path d="M65.1875 38.8281C64.5402 38.8281 64.0156 39.3527 64.0156 40C64.0156 40.6473 64.5402 41.1719 65.1875 41.1719H66.9761C67.6234 41.1719 68.148 40.6473 68.148 40C68.148 39.3527 67.6234 38.8281 66.9761 38.8281H65.1875Z" fill="#009C77"/>
<path d="M61.5465 49.9628C61.0887 49.5053 60.3468 49.5053 59.8891 49.9628C59.4315 50.4206 59.4315 51.1624 59.8891 51.6201L61.154 52.8849C61.612 53.3426 62.3537 53.3425 62.8113 52.8849C63.269 52.4271 63.269 51.6853 62.8113 51.2276L61.5465 49.9628Z" fill="#009C77"/>
<path d="M48.7549 55.2612V57.0498C48.7549 57.6972 49.2794 58.2217 49.9268 58.2217C50.5741 58.2217 51.0986 57.6972 51.0986 57.0498V55.2612C51.0986 54.6139 50.5741 54.0894 49.9268 54.0894C49.2794 54.0894 48.7549 54.614 48.7549 55.2612Z" fill="#009C77"/>
<path d="M38.3063 49.9628L37.0415 51.2276C36.5838 51.6854 36.5838 52.4273 37.0415 52.8849C37.4993 53.3426 38.2412 53.3425 38.6987 52.8849L39.9635 51.6201C40.4212 51.1623 40.4212 50.4204 39.9635 49.9628C39.506 49.5053 38.764 49.5053 38.3063 49.9628Z" fill="#009C77"/>
<path d="M32.877 38.8281C32.2298 38.8281 31.7051 39.3527 31.7051 40C31.7051 40.6473 32.2298 41.1719 32.877 41.1719H34.6657C35.3129 41.1719 35.8376 40.6473 35.8376 40C35.8376 39.3527 35.3129 38.8281 34.6657 38.8281H32.877Z" fill="#009C77"/>
<path d="M39.9635 28.3804L38.6987 27.1156C38.241 26.6581 37.499 26.6581 37.0415 27.1156C36.5838 27.5734 36.5838 28.3153 37.0415 28.7729L38.3063 30.0378C38.7641 30.4954 39.506 30.4953 39.9635 30.0378C40.4212 29.5801 40.4212 28.8382 39.9635 28.3804Z" fill="#009C77"/>
<path d="M56.2283 40.0004C56.2283 39.3531 55.7038 38.8285 55.0564 38.8285H51.0986V30.1279C51.0986 29.4806 50.5741 28.9561 49.9268 28.9561C49.2794 28.9561 48.7549 29.4806 48.7549 30.1279V40.0004C48.7549 40.6478 49.2794 41.1723 49.9268 41.1723H55.0564C55.7036 41.1723 56.2283 40.6478 56.2283 40.0004Z" fill="#009C77"/>
<path d="M72.1467 39.8072C72.7928 39.7679 73.2847 39.2125 73.2454 38.5665C72.5 26.2692 62.2568 16.6362 49.9259 16.6362C37.0428 16.6362 26.5615 27.1175 26.5615 40.0008C26.5615 52.8839 37.0428 63.3651 49.9259 63.3651C61.4679 63.3651 71.3165 54.9086 73.0298 43.4969C73.1259 42.8569 72.685 42.2601 72.0448 42.164C71.4064 42.0683 70.8081 42.5087 70.712 43.149C69.1729 53.4012 60.3204 61.0215 49.9259 61.0215C38.3351 61.0215 28.9053 51.5917 28.9053 40.0009C28.9053 28.4101 38.3351 18.9801 49.9259 18.9801C61.0198 18.9801 70.2353 27.6459 70.9059 38.7087C70.945 39.3544 71.5 39.8447 72.1467 39.8072Z" fill="#009C77"/>
<path d="M49.9263 9.92676C45.8043 9.92676 41.7657 10.7819 38.0485 12.3811H17.3721C16.7249 12.3811 16.2002 12.9057 16.2002 13.553C16.2002 14.2004 16.7249 14.7249 17.3721 14.7249H33.6397C31.4402 16.1405 29.4154 17.848 27.63 19.8193C27.1957 20.2988 27.2322 21.0399 27.7119 21.4744C28.1918 21.9089 28.9325 21.8722 29.3672 21.3925C34.6175 15.5954 42.1111 12.2705 49.9263 12.2705C65.2166 12.2705 77.6563 24.71 77.6563 40.0003C77.6563 55.2905 65.2168 67.7302 49.9263 67.7302C34.636 67.7302 22.1964 55.2907 22.1964 40.0003C22.1964 34.646 23.726 29.4491 26.6194 24.9713C26.9707 24.4277 26.8147 23.7024 26.2711 23.3511C25.7275 23 25.0022 23.1557 24.6508 23.6994C21.5118 28.5569 19.8527 34.1936 19.8527 40.0003C19.8527 50.5888 25.3536 59.9157 33.6472 65.2758H17.3722C16.725 65.2758 16.2004 65.8003 16.2004 66.4477C16.2004 67.095 16.725 67.6196 17.3722 67.6196H38.0324C41.6824 69.1975 45.7038 70.0739 49.9264 70.0739C66.5089 70.0739 80 56.583 80 40.0003C80 23.4177 66.5089 9.92676 49.9263 9.92676Z" fill="#009C77"/>
</svg>
