<svg width="80" height="80" viewBox="0 0 80 80" fill="none" xmlns="http://www.w3.org/2000/svg">
<g clip-path="url(#clip0)">
<path d="M15.6211 62.1631C12.5394 62.1631 10.0322 64.6703 10.0322 67.752C10.0322 70.8337 12.5394 73.3409 15.6211 73.3409C18.703 73.3409 21.21 70.8337 21.21 67.752C21.21 64.6703 18.703 62.1631 15.6211 62.1631ZM15.6211 70.9993C13.8307 70.9993 12.3739 69.5426 12.3739 67.7521C12.3739 65.9617 13.8307 64.505 15.6211 64.505C17.4118 64.505 18.8683 65.9617 18.8683 67.7521C18.8683 69.5426 17.4118 70.9993 15.6211 70.9993Z" fill="#009C77"/>
<path d="M37.463 67.7525C37.463 64.6706 34.9558 62.1636 31.8741 62.1636C28.7923 62.1636 26.2852 64.6708 26.2852 67.7525C26.2852 70.8342 28.7923 73.3414 31.8741 73.3414C34.9558 73.3414 37.463 70.8342 37.463 67.7525ZM28.6269 67.7525C28.6269 65.962 30.0836 64.5053 31.8741 64.5053C33.6647 64.5053 35.1212 65.962 35.1212 67.7525C35.1212 69.5429 33.6645 70.9997 31.8741 70.9997C30.0834 70.9997 28.6269 69.5429 28.6269 67.7525Z" fill="#009C77"/>
<path d="M53.7149 67.7525C53.7149 64.6706 51.2077 62.1636 48.126 62.1636C45.0443 62.1636 42.5371 64.6708 42.5371 67.7525C42.5371 70.8342 45.0443 73.3414 48.126 73.3414C51.2077 73.3414 53.7149 70.8342 53.7149 67.7525ZM44.8787 67.7525C44.8787 65.962 46.3354 64.5053 48.1259 64.5053C49.9163 64.5053 51.373 65.962 51.373 67.7525C51.373 69.5429 49.9163 70.9997 48.1259 70.9997C46.3354 70.9997 44.8787 69.5429 44.8787 67.7525Z" fill="#009C77"/>
<path d="M69.9669 67.7525C69.9669 64.6706 67.4597 62.1636 64.378 62.1636C61.2961 62.1636 58.7891 64.6708 58.7891 67.7525C58.7891 70.8342 61.2963 73.3414 64.378 73.3414C67.4597 73.3414 69.9669 70.8342 69.9669 67.7525ZM61.1308 67.7525C61.1308 65.962 62.5875 64.5053 64.378 64.5053C66.1684 64.5053 67.6252 65.962 67.6252 67.7525C67.6252 69.5429 66.1684 70.9997 64.378 70.9997C62.5873 70.9997 61.1308 69.5429 61.1308 67.7525Z" fill="#009C77"/>
<path d="M67.7727 55.5247H56.6661V50.8824C56.6661 50.2356 56.1419 49.7114 55.4952 49.7114C54.8484 49.7114 54.3242 50.2356 54.3242 50.8824V55.5247H22.0939V23.3469C22.0939 23.318 22.1175 23.2942 22.1466 23.2942H32.9109V31.3041C32.9109 31.9706 33.2505 32.576 33.8192 32.9235C34.1244 33.1099 34.4655 33.2038 34.8078 33.2038C35.1034 33.2038 35.3998 33.1338 35.6747 32.9928L38.2092 31.6938L40.7436 32.9928C41.3367 33.2972 42.0303 33.2711 42.5992 32.9235C43.168 32.576 43.5075 31.9706 43.5075 31.3041V23.2942H54.2719C54.3008 23.2942 54.3245 23.3178 54.3245 23.3469V45.4663C54.3245 46.113 54.8487 46.6372 55.4955 46.6372C56.1422 46.6372 56.6664 46.113 56.6664 45.4663V42.4814H58.8369C60.2481 42.4814 61.3964 41.3333 61.3964 39.9219V37.0266C61.3964 36.9364 61.4509 36.8542 61.5289 36.8267C62.0708 36.6353 62.6081 36.4128 63.1263 36.1656C63.203 36.1294 63.2977 36.1483 63.3622 36.2128L65.4092 38.2599C66.4072 39.2575 68.0309 39.2575 69.0289 38.2599L73.022 34.2667C74.02 33.2688 74.02 31.6449 73.022 30.6469L70.975 28.6C70.9103 28.5353 70.8914 28.4403 70.928 28.3639C71.1752 27.8458 71.3975 27.3085 71.5891 26.7667C71.6167 26.6886 71.6989 26.6341 71.7889 26.6341H74.6842C76.0955 26.6341 77.2437 25.4858 77.2437 24.0744V18.4272C77.2437 17.016 76.0956 15.8677 74.6842 15.8677H71.7889C71.6988 15.8677 71.6166 15.8131 71.5891 15.7352C71.3975 15.1933 71.1752 14.656 70.9281 14.138C70.8916 14.0613 70.9103 13.9664 70.975 13.9019L73.022 11.8549C74.02 10.8569 74.02 9.23299 73.022 8.23502L69.0289 4.24189C68.0309 3.24424 66.4072 3.24424 65.4092 4.24189L63.3619 6.28893C63.2972 6.35361 63.2022 6.37283 63.1256 6.33596C62.6081 6.08908 62.0709 5.86689 61.5284 5.67486C61.4505 5.64721 61.3959 5.56502 61.3959 5.47502V2.57971C61.3959 1.16846 60.2477 0.0200195 58.8364 0.0200195H53.1892C51.778 0.0200195 50.6297 1.1683 50.6297 2.57971V5.47486C50.6297 5.56502 50.5752 5.64721 50.4967 5.67486C49.9545 5.86658 49.4173 6.08908 48.8998 6.33596C48.8233 6.37221 48.7284 6.35346 48.6637 6.28877L46.6167 4.24174C45.6187 3.24408 43.995 3.24408 42.997 4.24174L39.0039 8.23486C38.0059 9.23283 38.0059 10.8567 39.0039 11.8547L41.0511 13.9017C41.1156 13.9664 41.1345 14.0613 41.098 14.1377C40.8511 14.6552 40.6287 15.1924 40.4369 15.7349C40.4092 15.813 40.327 15.8675 40.237 15.8675H37.3417C35.9305 15.8675 34.7822 17.0156 34.7822 18.4271V20.9524H22.1466C20.8263 20.9524 19.7522 22.0264 19.7522 23.3467V55.5246H12.2275C5.48516 55.5247 0 61.0099 0 67.7522C0 74.4946 5.48516 79.9797 12.2275 79.9797H17.5786C18.2253 79.9797 18.7495 79.4555 18.7495 78.8088C18.7495 78.1621 18.2253 77.6378 17.5786 77.6378H12.2275C6.77656 77.6378 2.34172 73.2031 2.34172 67.7522C2.34172 62.3013 6.77641 57.8664 12.2275 57.8664H67.7727C73.2236 57.8664 77.6583 62.3011 77.6583 67.7522C77.6583 73.2031 73.2236 77.6378 67.7727 77.6378H23.013C22.3663 77.6378 21.842 78.1621 21.842 78.8088C21.842 79.4555 22.3663 79.9797 23.013 79.9797H67.7727C74.5148 79.9797 80 74.4946 80 67.7522C80 61.0099 74.5148 55.5247 67.7727 55.5247ZM54.2717 20.9525H47.3416C47.4997 16.3047 51.3273 12.5719 56.013 12.5719C60.7986 12.5719 64.6919 16.4652 64.6919 21.251C64.6919 25.8166 61.1475 29.5674 56.6661 29.9028V23.3469C56.6661 22.0266 55.592 20.9525 54.2717 20.9525ZM37.1239 18.4272C37.1239 18.3072 37.2216 18.2096 37.3417 18.2096H40.237C41.3191 18.2096 42.2866 17.5288 42.6447 16.5158C42.8092 16.0506 42.9998 15.5899 43.2114 15.1464C43.6742 14.1763 43.4716 13.0106 42.7067 12.2461L40.6597 10.1991C40.5748 10.1144 40.5748 9.97611 40.6597 9.89127L44.6528 5.89814C44.7378 5.8133 44.8759 5.81299 44.9608 5.89814L47.008 7.94518C47.7727 8.70986 48.9381 8.91252 49.9081 8.44986C50.3519 8.2383 50.8127 8.04752 51.2775 7.88299C52.2908 7.52502 52.9716 6.55736 52.9716 5.47518V2.57971C52.9716 2.45955 53.0692 2.36189 53.1892 2.36189H58.8364C58.9564 2.36189 59.0542 2.45955 59.0542 2.57971V5.47486C59.0542 6.55705 59.735 7.52471 60.7478 7.88252C61.213 8.04721 61.6739 8.23783 62.1173 8.44939C63.0873 8.91221 64.2528 8.70955 65.0177 7.94486L67.0647 5.89783C67.1495 5.81268 67.2877 5.81299 67.3727 5.89783L71.3658 9.89096C71.4508 9.9758 71.4508 10.1141 71.3658 10.1988L69.3188 12.2458C68.5541 13.0103 68.3511 14.176 68.8141 15.1461C69.0259 15.5902 69.2166 16.051 69.3808 16.5155C69.7389 17.5286 70.7066 18.2092 71.7886 18.2092H74.6839C74.8039 18.2092 74.9016 18.3069 74.9016 18.4269V24.0741C74.9016 24.1942 74.8039 24.2919 74.6839 24.2919H71.7886C70.7066 24.2919 69.7391 24.9727 69.3808 25.9858C69.2166 26.4502 69.0259 26.911 68.8141 27.355C68.3512 28.325 68.5541 29.4905 69.3188 30.2553L71.3658 32.3024C71.4508 32.3871 71.4508 32.5253 71.3658 32.6102L67.3727 36.6033C67.2878 36.6883 67.1497 36.6885 67.0647 36.6033L65.0177 34.5564C64.2531 33.7916 63.0875 33.5888 62.1175 34.0516C61.6734 34.2633 61.2127 34.4541 60.7478 34.6183C59.7347 34.9766 59.0541 35.9442 59.0541 37.0261V39.9214C59.0541 40.0414 58.9564 40.1391 58.8363 40.1391H56.6658V32.25C62.4395 31.9106 67.0333 27.1077 67.0333 21.2503C67.0333 15.1735 62.0894 10.2296 56.0127 10.2296C50.0359 10.2296 45.1586 15.0128 44.9995 20.9519H37.1237V18.4272H37.1239ZM35.2527 23.2942H41.1655V30.5778L39.0748 29.5063C38.533 29.2283 37.8856 29.2281 37.3433 29.5063L35.2527 30.5778V23.2942Z" fill="#009C77"/>
<path d="M32.3852 43.3125C31.3534 43.3125 30.5137 44.152 30.5137 45.1841V50.1819C30.5137 51.2137 31.3532 52.0533 32.3852 52.0533H44.0323C45.0641 52.0533 45.9038 51.2137 45.9038 50.1819V45.1841C45.9038 44.152 45.0643 43.3125 44.0323 43.3125H32.3852ZM43.5619 49.7114H32.8555V45.6542H43.5619V49.7114Z" fill="#009C77"/>
</g>
<defs>
<clipPath id="clip0">
<rect width="80" height="80" fill="white"/>
</clipPath>
</defs>
</svg>
