<svg width="80" height="80" viewBox="0 0 80 80" fill="none" xmlns="http://www.w3.org/2000/svg">
<g clip-path="url(#clip0)">
<path d="M66.536 0H29.4122C28.7664 0 28.2429 0.523438 28.2429 1.16922C28.2429 1.815 28.7664 2.33844 29.4122 2.33844H66.536C66.6988 2.33844 66.8313 2.47094 66.8313 2.63375V64.4481H56.7643C55.312 64.4481 54.1304 65.6297 54.1304 67.082V77.6613H13.464C13.3012 77.6613 13.1687 77.5287 13.1687 77.3659V2.63391C13.1687 2.47109 13.3012 2.33859 13.464 2.33859H23.9669C24.6127 2.33859 25.1361 1.81516 25.1361 1.16938C25.1361 0.523438 24.6127 0.00015625 23.9669 0.00015625H13.464C12.0116 0.00015625 10.8301 1.18172 10.8301 2.63406V77.3662C10.8301 78.8186 12.0116 80.0002 13.464 80.0002H55.2998C55.6179 80.0002 55.9223 79.8706 56.1428 79.6411L68.8435 66.428C69.0529 66.2103 69.1697 65.9198 69.1697 65.6177V2.63391C69.1697 1.18156 67.9883 0 66.536 0V0ZM56.469 75.927V67.0822C56.469 66.9192 56.6015 66.7869 56.7643 66.7869H65.2546L56.469 75.927Z" fill="#009C77"/>
<path d="M58.7548 28.0659C58.6811 26.9139 58.1631 25.8595 57.2964 25.0971C56.4296 24.3348 55.3172 23.9553 54.1661 24.0293C53.014 24.1032 51.9596 24.6212 51.1973 25.4879L49.9475 26.9089C46.9014 24.2607 42.9261 22.6553 38.5825 22.6553C29.0182 22.6553 21.2373 30.4362 21.2373 40.0004C21.2373 49.5647 29.0182 57.3456 38.5825 57.3456C48.1467 57.3456 55.9275 49.5645 55.9275 40.0003C55.9275 38.002 55.5865 36.0821 54.9618 34.2942L57.687 31.1962C58.4493 30.3295 58.8286 29.2178 58.7548 28.0659ZM55.9311 29.6518L48.0178 38.6479C47.5912 39.1328 47.6386 39.8715 48.1234 40.2981C48.6081 40.7243 49.347 40.6772 49.7736 40.1923L53.1398 36.3654C53.4309 37.5301 53.5887 38.7468 53.5887 40.0003C53.5887 48.275 46.8568 55.0068 38.5821 55.0068C30.3075 55.0068 23.5757 48.275 23.5757 40.0003C23.5757 31.7256 30.3076 24.9937 38.5823 24.9937C42.3348 24.9937 45.7696 26.3787 48.4036 28.6639L40.2029 37.9868L37.1279 34.3993C35.577 32.59 32.8434 32.38 31.0345 33.9306C29.2253 35.4814 29.015 38.2148 30.5657 40.0242L36.8796 47.3904C37.6948 48.3415 38.8807 48.8915 40.1406 48.8995H40.1609C41.4029 48.8995 42.5856 48.3646 43.4057 47.4321C43.4095 47.4279 43.4131 47.4237 43.4168 47.4193L46.1665 44.2C46.5859 43.709 46.5278 42.9709 46.0368 42.5514C45.5459 42.132 44.8078 42.1903 44.3882 42.6811L41.6448 45.8932C41.2687 46.3176 40.7282 46.5609 40.1609 46.5609H40.1479C39.5734 46.5573 39.0292 46.3048 38.6551 45.8686L32.3414 38.5023C31.6298 37.6721 31.7262 36.4178 32.5564 35.7061C33.3864 34.9945 34.6407 35.0909 35.3525 35.9212L39.3037 40.5312C39.524 40.7884 39.8453 40.9375 40.184 40.9395H40.1915C40.5275 40.9395 40.8475 40.7948 41.0695 40.5425L52.9531 27.0326C53.3029 26.635 53.7867 26.3973 54.3153 26.3636C54.8439 26.3298 55.354 26.5036 55.7518 26.8536C56.1495 27.2032 56.3873 27.6871 56.4211 28.2157C56.4548 28.7439 56.2809 29.254 55.9311 29.6518Z" fill="#009C77"/>
</g>
<defs>
<clipPath id="clip0">
<rect width="80" height="80" fill="white"/>
</clipPath>
</defs>
</svg>
