<svg width="90" height="90" viewBox="0 0 90 90" fill="none" xmlns="http://www.w3.org/2000/svg">
<g clip-path="url(#clip0)">
<path d="M77.1636 72.3721C74.5975 72.3721 72.5098 74.4596 72.5098 77.0259C72.5098 79.5919 74.5973 81.6795 77.1636 81.6795C79.7296 81.6795 81.8172 79.5919 81.8172 77.0259C81.8172 74.4598 79.7296 72.3721 77.1636 72.3721ZM77.1634 78.9215C76.1182 78.9215 75.2678 78.0711 75.2678 77.0259C75.2678 75.9807 76.1182 75.1303 77.1634 75.1303C78.2086 75.1303 79.059 75.9807 79.059 77.0259C79.059 78.0711 78.2086 78.9215 77.1634 78.9215Z" fill="#262626"/>
<path d="M89.7016 76.7848C89.6137 73.3776 88.1716 70.2438 85.6407 67.9609L57.8756 42.9182L82.4249 18.369C82.5863 18.3208 82.7457 18.2608 82.8995 18.1796L88.2157 15.3738C88.9501 14.986 89.4426 14.2924 89.5666 13.4713C89.6907 12.6501 89.4251 11.8422 88.8378 11.2544L82.8521 5.26885C82.2646 4.68157 81.4572 4.41596 80.6353 4.54006C79.8142 4.66399 79.1208 5.15653 78.7328 5.89112L75.9268 11.2069C75.8449 11.3621 75.782 11.5226 75.7336 11.6856L64.1461 23.2731C63.6075 23.8118 63.6075 24.6848 64.1461 25.2235C64.6849 25.7618 65.5578 25.7618 66.0966 25.2235L76.7299 14.59L79.5166 17.3767L52.3232 44.57L49.5366 41.7834L61.4062 29.9139C61.9448 29.3751 61.9448 28.5022 61.4062 27.9634C60.8675 27.4252 59.9945 27.4252 59.4557 27.9634L50.8435 36.5757L41.4705 28.1217C44.128 20.4724 42.2035 11.9619 36.4388 6.19733C30.5341 0.292658 21.6761 -1.58908 13.8718 1.40395C13.4357 1.57129 13.1138 1.94781 13.0168 2.40467C12.9198 2.86153 13.0602 3.33649 13.3905 3.66678L24.2172 14.4937C24.5375 14.814 24.7142 15.2399 24.7142 15.6929C24.7142 16.1458 24.5377 16.5718 24.2172 16.8922L17.1862 23.9233C16.8659 24.2437 16.44 24.4202 15.987 24.4202C15.534 24.4202 15.1081 24.2439 14.7876 23.9233L3.96072 13.0964C3.63025 12.7661 3.15564 12.6256 2.69861 12.7227C2.24175 12.8199 1.86523 13.1416 1.69789 13.5777C-1.29514 21.3817 0.586598 30.2396 6.49144 36.1447C12.1149 41.7679 20.4604 43.7477 27.9893 41.3151L35.2362 49.2398C34.888 49.9203 34.4352 50.5549 33.8768 51.1133C31.7878 53.2023 28.6569 53.8604 25.8998 52.7903C25.3902 52.592 24.8121 52.714 24.4254 53.1005L7.53998 69.9859C2.96896 74.5571 2.96896 81.9948 7.53998 86.5656C9.75465 88.7806 12.6988 90 15.8303 90C18.9617 90 21.9061 88.7806 24.1204 86.5663L41.0057 69.6811C41.3921 69.2946 41.5139 68.7162 41.316 68.2066C40.2457 65.4497 40.9038 62.3185 42.9926 60.2295C45.0819 58.1405 48.213 57.4824 50.9699 58.5526C51.4799 58.7508 52.0576 58.6285 52.4444 58.2423L55.6295 55.0571C56.5886 54.0981 57.1166 52.8228 57.1166 51.4666C57.1166 50.1105 56.5886 48.8352 55.6295 47.8761L54.2737 46.5203L55.9231 44.871L83.7935 70.0089C85.7574 71.7803 86.8766 74.212 86.9446 76.8558C87.0126 79.4995 86.0202 81.9856 84.15 83.8556C82.2889 85.7171 79.8091 86.7078 77.1828 86.651C74.5511 86.5923 72.1236 85.4902 70.3473 83.5476L49.6247 60.8868C49.1101 60.3244 48.2383 60.2858 47.6763 60.7998C47.1143 61.3139 47.0753 62.1861 47.5893 62.7481L68.3118 85.409C70.6012 87.9123 73.7297 89.3326 77.1211 89.4083C77.216 89.4104 77.3107 89.4115 77.4055 89.4115C80.6905 89.4115 83.7686 88.1373 86.1003 85.8059C88.5103 83.3957 89.7891 80.1919 89.7016 76.7848ZM78.4245 12.3838L81.0645 7.38209L86.7245 13.0421L81.7228 15.6821L78.4245 12.3838ZM29.4123 38.7842C29.0326 38.3694 28.4395 38.2263 27.9125 38.4228C21.169 40.9382 13.5257 39.2785 8.44156 34.1949C3.82519 29.5784 2.03644 22.8857 3.61267 16.6493L12.8371 25.8738C13.6786 26.715 14.7971 27.1782 15.9868 27.1782C17.1765 27.1782 18.295 26.715 19.1363 25.8738L26.1673 18.8427C27.0086 18.0012 27.4718 16.8827 27.4718 15.693C27.4718 14.5033 27.0086 13.3848 26.1673 12.5436L16.943 3.31873C23.1789 1.7418 29.8723 3.53108 34.4885 8.14762C39.702 13.3608 41.304 21.156 38.5705 28.007C38.3565 28.543 38.4989 29.1556 38.9277 29.5421L48.8908 38.5284L47.5861 39.8331L46.2303 38.4773C45.2713 37.5182 43.996 36.9902 42.6398 36.9902C41.2837 36.9902 40.0084 37.5182 39.0493 38.4773L35.8641 41.6624C35.4778 42.049 35.356 42.6273 35.5539 43.1369C35.9207 44.0817 36.0798 45.07 36.0526 46.0457L29.4123 38.7842ZM53.6789 53.1069L51.098 55.6879C47.5487 54.6646 43.6864 55.6353 41.0425 58.279H41.0423C38.3986 60.923 37.4277 64.7847 38.4513 68.3348L22.1701 84.6157C20.4766 86.3091 18.2252 87.2418 15.8305 87.2418C13.4359 87.2418 11.1841 86.3091 9.49097 84.6157C5.99521 81.1201 5.99521 75.4321 9.49097 71.9364L25.772 55.6553C29.3217 56.6791 33.1835 55.7077 35.8276 53.064C38.4713 50.42 39.4423 46.5583 38.4188 43.0084L40.9998 40.4276C41.904 39.523 43.3758 39.523 44.28 40.4276L46.6111 42.7586L51.3478 47.4954L53.6789 49.8264C54.5834 50.731 54.5834 52.2026 53.6789 53.1069Z" fill="#262626"/>
<path d="M28.5343 60.8638C27.9956 60.3254 27.1226 60.3254 26.5839 60.8638L13.5202 73.9275C12.9816 74.4663 12.9816 75.3392 13.5202 75.878C13.7895 76.1471 14.1426 76.2817 14.4954 76.2817C14.8482 76.2817 15.2013 76.1471 15.4706 75.878L28.5343 62.8142C29.0728 62.2755 29.0728 61.4024 28.5343 60.8638Z" fill="#262626"/>
<path d="M33.3605 65.6909C32.8219 65.1525 31.9488 65.1525 31.41 65.6909L18.3463 78.7545C17.8077 79.2932 17.8077 80.1662 18.3463 80.7049C18.6156 80.9741 18.9686 81.1087 19.3216 81.1087C19.6744 81.1087 20.0275 80.9741 20.2968 80.7049L33.3605 67.6414C33.8991 67.1026 33.8991 66.2297 33.3605 65.6909Z" fill="#262626"/>
</g>
<defs>
<clipPath id="clip0">
<rect width="90" height="90" fill="white"/>
</clipPath>
</defs>
</svg>
