<svg width="90" height="90" viewBox="0 0 90 90" fill="none" xmlns="http://www.w3.org/2000/svg">
<g clip-path="url(#clip0)">
<path d="M51.4314 34.3959C52.5839 34.3959 53.5218 33.458 53.5218 32.3053V26.7857C53.5218 25.633 52.5839 24.6953 51.4314 24.6953H38.5681C37.4154 24.6953 36.4775 25.633 36.4775 26.7857V32.3053C36.4775 33.458 37.4154 34.3959 38.5681 34.3959H51.4314ZM39.1109 27.3287H50.8882V31.7625H39.1109V27.3287Z" fill="#262626"/>
<path d="M57.6588 62.8779C56.5062 62.8779 55.5684 63.8156 55.5684 64.9683V70.4881C55.5684 71.6407 56.5062 72.5785 57.6588 72.5785H70.5222C71.6747 72.5785 72.6126 71.6407 72.6126 70.4881V64.9683C72.6126 63.8156 71.6747 62.8779 70.5222 62.8779H57.6588ZM69.9792 69.9451H58.2018V65.5113H69.9792V69.9451Z" fill="#262626"/>
<path d="M32.3404 62.8779H19.4771C18.3244 62.8779 17.3867 63.8156 17.3867 64.9683V70.4881C17.3867 71.6407 18.3244 72.5785 19.4771 72.5785H32.3404C33.4929 72.5785 34.4308 71.6407 34.4308 70.4881V64.9683C34.4308 63.8156 33.4929 62.8779 32.3404 62.8779ZM31.7974 69.9451H20.0201V65.5113H31.7974V69.9451Z" fill="#262626"/>
<path d="M88.0171 76.3662H84.4987V71.262C84.4987 70.5348 83.9093 69.9453 83.182 69.9453C82.4547 69.9453 81.8653 70.5348 81.8653 71.262V76.3655H46.3164V40.8166H58.2158V49.6392C58.2158 50.3835 58.595 51.0596 59.23 51.4478C59.865 51.8359 60.6399 51.8647 61.3023 51.5254L64.0909 50.096L66.8793 51.5254C67.1864 51.6827 67.5173 51.7608 67.8474 51.7608C68.2297 51.7608 68.6109 51.656 68.9516 51.4476C69.5866 51.0594 69.9659 50.3832 69.9659 49.639V40.8164H81.8309C81.8498 40.8164 81.8653 40.8319 81.8653 40.851V65.2803C81.8653 66.0075 82.4547 66.597 83.182 66.597C83.9093 66.597 84.4987 66.0075 84.4987 65.2803V40.851C84.4987 39.38 83.3019 38.183 81.8309 38.183H65.4076V2.66675C65.4076 1.19626 64.2114 0 62.7409 0H27.2597C25.7887 0 24.5917 1.19679 24.5917 2.66798V9.26938C24.5917 9.99655 25.1813 10.5861 25.9084 10.5861C26.6356 10.5861 27.2251 9.99655 27.2251 9.26938V2.66798C27.2251 2.64902 27.2406 2.6334 27.2597 2.6334H39.1246V11.4562C39.1246 12.2005 39.5038 12.8766 40.139 13.2648C40.4799 13.4732 40.8609 13.578 41.243 13.578C41.5731 13.578 41.9044 13.4997 42.2113 13.3424L44.9997 11.913L47.7879 13.3422C48.4505 13.6817 49.2252 13.6531 49.8602 13.2648C50.4956 12.8766 50.8748 12.2003 50.8748 11.456V2.6334H62.7409C62.7593 2.6334 62.7742 2.64832 62.7742 2.66675V38.1825H27.2251V15.2509C27.2251 14.5237 26.6356 13.9342 25.9084 13.9342C25.1813 13.9342 24.5917 14.5237 24.5917 15.2509V38.1832H8.16847C6.69745 38.1832 5.50048 39.38 5.50048 40.8512V76.3662H1.98227C0.898888 76.3662 0.0175781 77.2475 0.0175781 78.3309V82.1537C0.0175781 83.2371 0.898888 84.1184 1.98227 84.1184H5.07914V87.6577C5.07914 88.9491 6.12987 90 7.42128 90H11.2518C12.5432 90 13.5941 88.9493 13.5941 87.6577V84.1184H76.4054V87.6577C76.4054 88.9491 77.4561 90 78.7477 90H82.5781C83.8695 90 84.9204 88.9493 84.9204 87.6577V84.1184H88.0173C89.1005 84.1184 89.9818 83.2371 89.9818 82.1537V78.3309C89.9816 77.2475 89.1003 76.3662 88.0171 76.3662ZM48.2414 10.6154L45.9665 9.44933C45.361 9.13911 44.6384 9.13911 44.0327 9.44933L41.758 10.6154V2.6334H48.2414V10.6154ZM60.8492 40.8166H67.3325V48.7986L65.0579 47.6325C64.4526 47.3221 63.7294 47.322 63.1239 47.6325L60.8492 48.7986V40.8166ZM22.6667 40.8166H29.15V48.7986L26.8751 47.6325C26.2697 47.3221 25.5468 47.3221 24.9413 47.6325L22.6665 48.7986V40.8166H22.6667ZM8.13388 40.851C8.13388 40.832 8.14933 40.8164 8.16847 40.8164H20.0333V49.639C20.0333 50.3834 20.4125 51.0594 21.0475 51.4476C21.6827 51.8358 22.4575 51.8649 23.12 51.5252L25.9084 50.0958L28.6968 51.5252C29.0039 51.6825 29.3348 51.7606 29.6649 51.7606C30.0473 51.7606 30.4282 51.6558 30.7692 51.4474C31.4043 51.0593 31.7835 50.383 31.7835 49.6388V40.8162H43.683V76.3652H8.13388V40.851ZM10.9607 87.3666H7.71254V84.1184H10.9607V87.3666ZM82.2868 87.3666H79.0386V84.1184H82.2868V87.3666ZM87.3482 81.485H2.65097V78.9996H87.3482V81.485Z" fill="#262626"/>
</g>
<defs>
<clipPath id="clip0">
<rect width="90" height="90" fill="white"/>
</clipPath>
</defs>
</svg>
