<svg width="90" height="90" viewBox="0 0 90 90" fill="none" xmlns="http://www.w3.org/2000/svg">
<g clip-path="url(#clip0)">
<path d="M79.6348 63.5138C79.1412 63.3092 78.5731 63.4222 78.1952 63.8L63.7589 78.2362C63.3812 78.6141 63.2682 79.1823 63.4728 79.6759C63.677 80.1696 64.159 80.4913 64.6932 80.4913H79.1294C79.8591 80.4913 80.4505 79.9 80.4505 79.1703V64.7341C80.4503 64.1999 80.1284 63.7182 79.6348 63.5138ZM67.8819 77.8495L77.8081 67.9233V77.8495H67.8819Z" fill="#262626"/>
<path d="M89.1847 42.3404C88.6911 42.1358 88.123 42.2488 87.7451 42.6265L83.7888 46.5829V19.6828C83.7888 18.9532 83.1973 18.3618 82.4678 18.3618H72.318L76.0023 14.6775C76.0029 14.6769 76.0034 14.6762 76.0039 14.6757L79.554 11.1256C80.3146 10.365 80.7335 9.3532 80.7335 8.27742C80.7335 7.20164 80.3146 6.19019 79.554 5.42923L75.4488 1.32403C74.6882 0.563419 73.6764 0.144531 72.6006 0.144531C71.5248 0.144531 70.5132 0.563419 69.7524 1.32403L66.2006 4.87587L61.9087 9.16775L52.7148 18.3617H11.7106V5.29317C11.7106 4.5635 11.1191 3.97218 10.3896 3.97218C4.66085 3.97253 0 8.63303 0 14.3621V70.4691C0 70.5667 0.01125 70.6616 0.0312891 70.753C0.21375 73.1839 1.26545 75.4425 3.02309 77.1571C4.90185 78.9894 7.38195 79.9986 10.0067 79.9986H50.3729L42.7705 87.601C42.3927 87.9789 42.2797 88.5469 42.4841 89.0406C42.6886 89.5342 43.1704 89.8561 43.7046 89.8561H88.6792C89.4087 89.8561 90.0002 89.2647 90.0002 88.5351V43.5608C90.0002 43.0266 89.6781 42.5448 89.1847 42.3404ZM71.621 3.19241C72.161 2.65206 73.0408 2.65206 73.5808 3.19241L77.6861 7.29779C78.2265 7.83796 78.2265 8.7174 77.6861 9.25775L75.0686 11.8755L69.0031 5.81015L71.621 3.19241ZM67.1349 7.67835L73.2002 13.7435L70.7764 16.1674L64.7114 10.1022L67.1349 7.67835ZM87.3585 58.4042H84.9213C84.1917 58.4042 83.6003 58.9955 83.6003 59.7252C83.6003 60.4548 84.1917 61.0462 84.9213 61.0462H87.3585V65.0269H84.9213C84.1917 65.0269 83.6003 65.6182 83.6003 66.3479C83.6003 67.0776 84.1917 67.6689 84.9213 67.6689H87.3585V71.6495H84.9213C84.1917 71.6495 83.6003 72.2408 83.6003 72.9705C83.6003 73.7002 84.1917 74.2915 84.9213 74.2915H87.3585V78.2722H84.9213C84.1917 78.2722 83.6003 78.8637 83.6003 79.5932C83.6003 80.3229 84.1917 80.9142 84.9213 80.9142H87.3585V87.2146H46.8936L60.2368 73.8715C60.7528 73.3555 60.7528 72.5193 60.2368 72.0033C60.1776 71.9441 60.114 71.8928 60.0473 71.8471C59.533 71.4948 58.8253 71.5467 58.3685 72.0033L53.0149 77.3569H10.0069C6.00048 77.3569 2.77524 74.2291 2.64833 70.2299C2.65588 69.9789 2.6754 69.73 2.70669 69.4839C2.70686 69.4825 2.70704 69.481 2.70721 69.4796C2.72198 69.3628 2.73973 69.2464 2.75995 69.1307C2.76223 69.1175 2.76469 69.1044 2.76698 69.0912C2.78544 68.988 2.80618 68.8853 2.82885 68.783C2.83518 68.7545 2.84186 68.7261 2.84854 68.6978C2.86858 68.6113 2.8902 68.5253 2.9134 68.4397C2.92606 68.3933 2.93924 68.3474 2.95278 68.3012C2.97212 68.2341 2.99215 68.1671 3.01342 68.1008C3.03469 68.0345 3.05737 67.969 3.0804 67.9034C3.09639 67.8575 3.11221 67.8117 3.12944 67.7661C3.16161 67.6796 3.19571 67.594 3.23087 67.5091C3.24089 67.4847 3.25073 67.4599 3.2611 67.4355C3.30628 67.33 3.35321 67.2258 3.40278 67.1228C3.40489 67.1184 3.40682 67.114 3.40893 67.1096C4.44218 64.9714 6.42939 63.3772 8.81422 62.8826C8.8209 62.8812 8.82758 62.8796 8.83426 62.8782C8.94359 62.8558 9.05398 62.8367 9.16508 62.8189C9.18353 62.8159 9.20199 62.8122 9.2208 62.8094C9.32117 62.7941 9.4226 62.7822 9.52402 62.7708C9.5525 62.7676 9.5808 62.7632 9.60945 62.7604C9.70736 62.7505 9.80615 62.744 9.90494 62.7379C9.93623 62.736 9.96752 62.7326 9.99881 62.731C10.1282 62.7245 10.2586 62.7212 10.3896 62.7212C11.1191 62.7212 11.7106 62.1299 11.7106 61.4002V51.822C11.7106 51.0924 11.1191 50.501 10.3896 50.501C9.66008 50.501 9.06857 51.0924 9.06857 51.822V60.1623C6.8379 60.4445 4.76737 61.4394 3.13471 63.0337C2.96297 63.2014 2.8002 63.3758 2.64165 63.553V14.3621C2.64165 10.5404 5.42357 7.3558 9.0684 6.72685V19.6828V46.5382V46.5384C9.0684 47.2679 9.6599 47.8594 10.3894 47.8594C11.1189 47.8594 11.7104 47.2679 11.7104 46.5384V46.5382V21.0038H50.073L42.7703 28.3065C42.2544 28.8226 42.2544 29.6588 42.7703 30.1747C43.2862 30.6905 44.1226 30.6905 44.6383 30.1747L54.1961 20.6169C54.1965 20.6166 54.1966 20.6162 54.197 20.6161L62.8428 11.9702L68.9078 18.0356L68.1962 18.7471C68.1957 18.7477 68.195 18.7482 68.1945 18.7487L41.5586 45.3849L35.4935 39.3197L40.7437 34.0695C41.2596 33.5534 41.2596 32.7172 40.7437 32.2013C40.2278 31.6855 39.3914 31.6855 38.8757 32.2013L32.6912 38.3856C32.6581 38.4187 32.6272 38.4537 32.5982 38.4895C32.5885 38.5015 32.5799 38.5143 32.5708 38.5268C32.5521 38.5516 32.5338 38.5765 32.5168 38.6026C32.5071 38.6177 32.4983 38.6331 32.4892 38.6488C32.4746 38.6734 32.4605 38.6984 32.4477 38.7238C32.4393 38.7404 32.4317 38.7571 32.424 38.7743C32.4122 38.8001 32.4013 38.8265 32.3913 38.8529C32.3878 38.8622 32.3832 38.871 32.3799 38.8803L29.8062 46.1708L28.0516 51.1418C28.0284 51.2079 28.0117 51.275 27.9992 51.3427H23.6061C22.8766 51.3427 22.2851 51.934 22.2851 52.6637C22.2851 53.3933 22.8766 53.9847 23.6061 53.9847H60.1887C60.9183 53.9847 61.5097 53.3933 61.5097 52.6637C61.5097 51.934 60.9183 51.3427 60.1887 51.3427H33.9422L41.9983 48.4989C42.0049 48.4964 42.0113 48.4931 42.018 48.4906C42.0492 48.479 42.08 48.466 42.1104 48.4521C42.1225 48.4465 42.1347 48.4412 42.1465 48.4354C42.1781 48.4196 42.2092 48.4022 42.2398 48.3836C42.2496 48.3776 42.2598 48.3721 42.2695 48.366C42.3013 48.3456 42.3323 48.3233 42.3627 48.2997C42.3702 48.2939 42.3781 48.2888 42.3855 48.2828C42.4223 48.2533 42.4583 48.2215 42.4924 48.1874L69.676 21.004H81.1466V49.225L62.2508 68.121C61.7349 68.6371 61.7349 69.4733 62.2508 69.9892C62.2829 70.0214 62.3165 70.0516 62.3511 70.0799C62.5934 70.2773 62.8892 70.3761 63.1849 70.3761C63.4805 70.3761 63.7766 70.2773 64.0186 70.0799C64.0532 70.0518 64.0868 70.0214 64.119 69.9892C64.1195 69.9887 64.119 69.9892 64.1195 69.9887L87.3585 46.7495V58.4042ZM39.1425 46.7049L35.3586 48.0406L32.8376 45.5196L34.1734 41.7357L39.1425 46.7049Z" fill="#262626"/>
</g>
<defs>
<clipPath id="clip0">
<rect width="90" height="90" fill="white"/>
</clipPath>
</defs>
</svg>
