<svg width="38" height="15" viewBox="0 0 38 15" fill="none" xmlns="http://www.w3.org/2000/svg">
<path d="M5.13 7.835C6.1 7.955 6.84 8.285 7.35 8.825C7.86 9.365 8.115 10.04 8.115 10.85C8.115 11.46 7.96 12.015 7.65 12.515C7.34 13.015 6.87 13.415 6.24 13.715C5.62 14.005 4.86 14.15 3.96 14.15C3.21 14.15 2.485 14.045 1.785 13.835C1.095 13.615 0.505 13.315 0.015 12.935L0.855 11.42C1.235 11.74 1.695 11.995 2.235 12.185C2.785 12.365 3.35 12.455 3.93 12.455C4.62 12.455 5.16 12.315 5.55 12.035C5.95 11.745 6.15 11.355 6.15 10.865C6.15 10.375 5.96 9.995 5.58 9.725C5.21 9.445 4.64 9.305 3.87 9.305H2.91V7.97L5.295 5.135H0.525V3.5H7.68V4.805L5.13 7.835ZM14.1605 7.52C14.8505 7.52 15.4705 7.655 16.0205 7.925C16.5705 8.185 17.0005 8.56 17.3105 9.05C17.6205 9.54 17.7755 10.105 17.7755 10.745C17.7755 11.425 17.6055 12.025 17.2655 12.545C16.9255 13.055 16.4655 13.45 15.8855 13.73C15.3055 14.01 14.6555 14.15 13.9355 14.15C12.4955 14.15 11.3755 13.7 10.5755 12.8C9.78547 11.9 9.39047 10.61 9.39047 8.93C9.39047 7.75 9.60547 6.745 10.0355 5.915C10.4655 5.075 11.0655 4.44 11.8355 4.01C12.6155 3.57 13.5155 3.35 14.5355 3.35C15.0755 3.35 15.5805 3.41 16.0505 3.53C16.5305 3.64 16.9455 3.805 17.2955 4.025L16.5755 5.495C16.0555 5.155 15.3905 4.985 14.5805 4.985C13.5705 4.985 12.7805 5.295 12.2105 5.915C11.6405 6.535 11.3555 7.43 11.3555 8.6V8.615C11.6655 8.255 12.0605 7.985 12.5405 7.805C13.0205 7.615 13.5605 7.52 14.1605 7.52ZM13.8305 12.62C14.4405 12.62 14.9355 12.46 15.3155 12.14C15.6955 11.81 15.8855 11.375 15.8855 10.835C15.8855 10.285 15.6955 9.85 15.3155 9.53C14.9355 9.21 14.4255 9.05 13.7855 9.05C13.1555 9.05 12.6405 9.22 12.2405 9.56C11.8505 9.9 11.6555 10.33 11.6555 10.85C11.6555 11.36 11.8455 11.785 12.2255 12.125C12.6155 12.455 13.1505 12.62 13.8305 12.62ZM23.1748 14.15C22.3348 14.15 21.5848 13.94 20.9248 13.52C20.2648 13.09 19.7448 12.47 19.3648 11.66C18.9848 10.84 18.7948 9.87 18.7948 8.75C18.7948 7.63 18.9848 6.665 19.3648 5.855C19.7448 5.035 20.2648 4.415 20.9248 3.995C21.5848 3.565 22.3348 3.35 23.1748 3.35C24.0148 3.35 24.7648 3.565 25.4248 3.995C26.0948 4.415 26.6198 5.035 26.9998 5.855C27.3798 6.665 27.5698 7.63 27.5698 8.75C27.5698 9.87 27.3798 10.84 26.9998 11.66C26.6198 12.47 26.0948 13.09 25.4248 13.52C24.7648 13.94 24.0148 14.15 23.1748 14.15ZM23.1748 12.455C23.9248 12.455 24.5148 12.145 24.9448 11.525C25.3848 10.905 25.6048 9.98 25.6048 8.75C25.6048 7.52 25.3848 6.595 24.9448 5.975C24.5148 5.355 23.9248 5.045 23.1748 5.045C22.4348 5.045 21.8448 5.355 21.4048 5.975C20.9748 6.595 20.7598 7.52 20.7598 8.75C20.7598 9.98 20.9748 10.905 21.4048 11.525C21.8448 12.145 22.4348 12.455 23.1748 12.455Z" fill="#585858"/>
<circle cx="34" cy="4" r="3.25" stroke="#585858" stroke-width="1.5"/>
</svg>
