<svg width="51" height="75" viewBox="0 0 51 75" fill="none" xmlns="http://www.w3.org/2000/svg">
<rect x="0.436523" y="13.4746" width="50.0732" height="60.6656" rx="5" fill="#8AB7DF"/>
<rect x="42.6025" y="63.6992" width="1.1656" height="2.88884" fill="#FFF6E5"/>
<rect x="13.4912" y="13.4746" width="4.66238" height="12.8216" rx="1" fill="#FFF6E5"/>
<rect x="13.4912" y="13.4746" width="4.66238" height="9.32477" fill="#FFF6E5"/>
<path d="M16.5173 1.18645C16.1658 0.834982 15.5959 0.834982 15.2445 1.18645L9.5169 6.91402C9.16543 7.26549 9.16543 7.83534 9.5169 8.18681C9.86837 8.53828 10.4382 8.53828 10.7897 8.18681L15.8809 3.09564L20.972 8.18681C21.3235 8.53828 21.8933 8.53828 22.2448 8.18681C22.5963 7.83534 22.5963 7.26549 22.2448 6.91402L16.5173 1.18645ZM16.7809 25.1348L16.7809 1.82285H14.9809L14.9809 25.1348H16.7809Z" fill="#0075FF"/>
<path d="M16.5173 1.18645C16.1658 0.834982 15.5959 0.834982 15.2445 1.18645L9.5169 6.91402C9.16543 7.26549 9.16543 7.83534 9.5169 8.18681C9.86837 8.53828 10.4382 8.53828 10.7897 8.18681L15.8809 3.09564L20.972 8.18681C21.3235 8.53828 21.8933 8.53828 22.2448 8.18681C22.5963 7.83534 22.5963 7.26549 22.2448 6.91402L16.5173 1.18645ZM16.7809 25.1348L16.7809 1.82285H14.9809L14.9809 25.1348H16.7809Z" fill="url(#paint0_linear)"/>
<path d="M33.6029 24.6007C33.9543 24.9521 34.5242 24.9521 34.8757 24.6007L40.6032 18.8731C40.9547 18.5216 40.9547 17.9518 40.6032 17.6003C40.2517 17.2488 39.6819 17.2488 39.3304 17.6003L34.2393 22.6915L29.1481 17.6003C28.7966 17.2488 28.2268 17.2488 27.8753 17.6003C27.5238 17.9518 27.5238 18.5216 27.8753 18.8731L33.6029 24.6007ZM33.3393 0.652344L33.3393 23.9643L35.1393 23.9643L35.1393 0.652344L33.3393 0.652344Z" fill="#737373"/>
<defs>
<linearGradient id="paint0_linear" x1="18.1309" y1="25.1314" x2="10.8422" y2="2.39275" gradientUnits="userSpaceOnUse">
<stop stop-color="#0F7AC1"/>
<stop offset="1" stop-color="#09B1E5"/>
</linearGradient>
</defs>
</svg>
