<svg width="51" height="75" viewBox="0 0 51 75" fill="none" xmlns="http://www.w3.org/2000/svg">
<rect x="2.23047" y="13.6992" width="46.5243" height="61.0631" rx="8" fill="#8AB7DF"/>
<rect width="2.16352" height="10.6141" transform="matrix(-1 0 0 1 50.6543 53.2754)" fill="#8AB7DF"/>
<rect width="2.16352" height="10.6141" transform="matrix(-1 0 0 1 2.54883 53.2754)" fill="#8AB7DF"/>
<rect x="14.3711" y="13.3848" width="4.69293" height="12.9056" rx="1" fill="#F6F8FF"/>
<rect x="14.3711" y="13.3848" width="4.69293" height="9.38586" fill="#F6F8FF"/>
<rect x="31.9688" y="13.3848" width="4.69293" height="12.9056" rx="1" fill="#F6F8FF"/>
<rect x="31.9688" y="13.3848" width="4.69293" height="9.38586" fill="#F6F8FF"/>
<path d="M17.3542 1.01614C17.0027 0.664669 16.4328 0.664669 16.0814 1.01614L10.3538 6.74371C10.0023 7.09518 10.0023 7.66503 10.3538 8.0165C10.7053 8.36797 11.2751 8.36797 11.6266 8.0165L16.7178 2.92533L21.8089 8.0165C22.1604 8.36797 22.7303 8.36797 23.0817 8.0165C23.4332 7.66503 23.4332 7.09518 23.0817 6.74371L17.3542 1.01614ZM17.6178 25.1172L17.6178 1.65254L15.8178 1.65254L15.8178 25.1172L17.6178 25.1172Z" fill="#008DD2"/>
<path d="M17.3542 1.01614C17.0027 0.664669 16.4328 0.664669 16.0814 1.01614L10.3538 6.74371C10.0023 7.09518 10.0023 7.66503 10.3538 8.0165C10.7053 8.36797 11.2751 8.36797 11.6266 8.0165L16.7178 2.92533L21.8089 8.0165C22.1604 8.36797 22.7303 8.36797 23.0817 8.0165C23.4332 7.66503 23.4332 7.09518 23.0817 6.74371L17.3542 1.01614ZM17.6178 25.1172L17.6178 1.65254L15.8178 1.65254L15.8178 25.1172L17.6178 25.1172Z" fill="url(#paint0_linear)"/>
<path d="M34.9518 1.01614C34.6004 0.664669 34.0305 0.664669 33.679 1.01614L27.9515 6.74371C27.6 7.09518 27.6 7.66503 27.9515 8.0165C28.3029 8.36797 28.8728 8.36797 29.2243 8.0165L34.3154 2.92533L39.4066 8.0165C39.7581 8.36797 40.3279 8.36797 40.6794 8.0165C41.0309 7.66503 41.0309 7.09518 40.6794 6.74371L34.9518 1.01614ZM35.2154 25.1172L35.2154 1.65254L33.4154 1.65254L33.4154 25.1172L35.2154 25.1172Z" fill="#008DD2"/>
<path d="M34.9518 1.01614C34.6004 0.664669 34.0305 0.664669 33.679 1.01614L27.9515 6.74371C27.6 7.09518 27.6 7.66503 27.9515 8.0165C28.3029 8.36797 28.8728 8.36797 29.2243 8.0165L34.3154 2.92533L39.4066 8.0165C39.7581 8.36797 40.3279 8.36797 40.6794 8.0165C41.0309 7.66503 41.0309 7.09518 40.6794 6.74371L34.9518 1.01614ZM35.2154 25.1172L35.2154 1.65254L33.4154 1.65254L33.4154 25.1172L35.2154 25.1172Z" fill="url(#paint1_linear)"/>
<g clip-path="url(#clip0)">
<path d="M22.2323 61.4883C22.7835 61.4883 23.2825 61.7264 23.6422 62.1049C24.0019 62.4834 24.2282 63.0084 24.2282 63.5884C24.2282 64.1683 24.0077 64.6934 23.6422 65.0719C23.2825 65.4565 22.7835 65.6885 22.2323 65.6885C21.6811 65.6885 21.1821 65.4565 20.8223 65.0719C20.4626 64.6934 20.2363 64.1683 20.2363 63.5884C20.2363 63.0084 20.4626 62.4834 20.8223 62.1049C21.1821 61.7264 21.6811 61.4883 22.2323 61.4883ZM23.0214 62.7581C22.8183 62.5444 22.5398 62.4162 22.2323 62.4162C21.9248 62.4162 21.6463 62.5505 21.4432 62.7581C21.2401 62.9718 21.1183 63.2648 21.1183 63.5884C21.1183 63.9119 21.2459 64.205 21.4432 64.4186C21.6463 64.6323 21.9248 64.7605 22.2323 64.7605C22.5398 64.7605 22.8183 64.6323 23.0214 64.4186C23.2244 64.205 23.3463 63.9119 23.3463 63.5884C23.3463 63.2648 23.2244 62.9718 23.0214 62.7581Z" fill="white"/>
<path d="M28.9692 62.0499C28.9576 61.7874 29.1549 61.5616 29.4044 61.5493C29.6597 61.5371 29.8744 61.7447 29.8802 62.0072C29.9034 62.52 30.1413 62.8436 30.4488 62.9901C30.588 63.0511 30.7389 63.0878 30.884 63.0817C31.0348 63.0817 31.1857 63.045 31.3249 62.9779C31.6382 62.8314 31.8819 62.5078 31.8935 62.0133C31.8993 61.7508 32.114 61.5371 32.3635 61.5493C32.6188 61.5554 32.8161 61.7813 32.8103 62.0438C32.7813 62.9596 32.3113 63.5701 31.7021 63.857C31.4467 63.9791 31.1683 64.0401 30.8956 64.0401C30.6171 64.0462 30.3386 63.9852 30.0833 63.8692C29.4856 63.5945 29.0156 62.9901 28.9692 62.0499Z" fill="white"/>
<path d="M30.4316 63.5643C30.4316 63.2957 30.6347 63.082 30.89 63.082C31.1453 63.082 31.3484 63.2957 31.3484 63.5643V65.1089C31.3484 65.3775 31.1453 65.5912 30.89 65.5912C30.6347 65.5912 30.4316 65.3775 30.4316 65.1089V63.5643Z" fill="white"/>
<path fill-rule="evenodd" clip-rule="evenodd" d="M24.9639 61.8791C25.3468 61.4762 25.9561 61.4578 26.3622 61.8241C26.4086 61.8669 26.4028 61.9035 26.3796 61.9462L26.1127 62.3919C26.0953 62.4224 26.1185 62.4346 26.1359 62.4163L26.7626 61.8791C27.1629 61.4578 27.8128 61.4578 28.2189 61.8791C28.6019 62.282 28.6193 62.923 28.2711 63.3504C28.2305 63.3992 28.1957 63.3931 28.1551 63.3687L27.7315 63.0817C27.7025 63.0634 27.6909 63.0879 27.7083 63.1062L28.2189 63.7716C28.6193 64.1928 28.6193 64.8766 28.2189 65.2978C27.836 65.7007 27.2267 65.7191 26.8206 65.3528C26.7742 65.31 26.78 65.2734 26.8032 65.2307L27.0759 64.785C27.0933 64.7545 27.0701 64.7423 27.0527 64.7606L26.4202 65.2978C26.0199 65.7191 25.37 65.7191 24.9697 65.2978C24.5867 64.8949 24.5693 64.2539 24.9175 63.8265C24.9639 63.7777 24.9929 63.7838 25.0335 63.8082L25.4571 64.0952C25.4919 64.1135 25.4977 64.0891 25.4861 64.0707L24.9755 63.4053C24.5635 62.9841 24.5635 62.3003 24.9639 61.8791Z" fill="white"/>
</g>
<defs>
<linearGradient id="paint0_linear" x1="12.2178" y1="1.65253" x2="23.7735" y2="21.8986" gradientUnits="userSpaceOnUse">
<stop stop-color="#08B9EA"/>
<stop offset="1" stop-color="#0F74BD"/>
</linearGradient>
<linearGradient id="paint1_linear" x1="29.8154" y1="1.65253" x2="41.3711" y2="21.8986" gradientUnits="userSpaceOnUse">
<stop stop-color="#08B9EA"/>
<stop offset="1" stop-color="#0F74BD"/>
</linearGradient>
<clipPath id="clip0">
<rect width="12.6005" height="4.20017" fill="white" transform="translate(20.2363 61.4883)"/>
</clipPath>
</defs>
</svg>
