<svg width="88" height="61" viewBox="0 0 88 61" fill="none" xmlns="http://www.w3.org/2000/svg">
<rect x="16.3984" width="49.7312" height="60.14" rx="5" fill="#8AB7DF"/>
<rect x="16.3984" y="13.8789" width="49.7312" height="1.15654" fill="#F6F8FF"/>
<rect x="16.3984" y="5.7832" width="49.7312" height="1.15654" fill="#F6F8FF"/>
<rect x="16.3984" y="21.9746" width="49.7312" height="1.15654" fill="#F6F8FF"/>
<rect x="16.3984" y="30.0703" width="49.7312" height="1.15654" fill="#F6F8FF"/>
<rect x="16.3984" y="38.166" width="49.7312" height="1.15654" fill="#F6F8FF"/>
<rect x="16.3984" y="46.2617" width="49.7312" height="1.15654" fill="#F6F8FF"/>
<rect x="16.3984" y="54.3555" width="49.7312" height="1.15654" fill="#F6F8FF"/>
<path d="M27.4438 35.3317C27.7953 34.9802 27.7953 34.4104 27.4438 34.0589L21.7163 28.3314C21.3648 27.9799 20.7949 27.9799 20.4435 28.3314C20.092 28.6828 20.092 29.2527 20.4435 29.6041L25.5346 34.6953L20.4435 39.7865C20.092 40.138 20.092 40.7078 20.4435 41.0593C20.7949 41.4107 21.3648 41.4107 21.7163 41.0593L27.4438 35.3317ZM0.207031 35.5953L26.8074 35.5953L26.8074 33.7953L0.207031 33.7953L0.207031 35.5953Z" fill="#737373"/>
<rect x="65.0703" y="32.3848" width="4.62615" height="11.6618" rx="1" transform="rotate(90 65.0703 32.3848)" fill="#F6F8FF"/>
<rect x="66.1289" y="32.3848" width="4.62615" height="7.42112" transform="rotate(90 66.1289 32.3848)" fill="#F6F8FF"/>
<path d="M87.4711 35.238C87.8225 34.8865 87.8225 34.3166 87.4711 33.9652L81.7435 28.2376C81.392 27.8861 80.8222 27.8861 80.4707 28.2376C80.1192 28.5891 80.1192 29.1589 80.4707 29.5104L85.5619 34.6016L80.4707 39.6927C80.1192 40.0442 80.1192 40.6141 80.4707 40.9655C80.8222 41.317 81.392 41.317 81.7435 40.9655L87.4711 35.238ZM54.7051 35.5016L86.8347 35.5016V33.7016L54.7051 33.7016V35.5016Z" fill="url(#paint0_linear)"/>
<defs>
<linearGradient id="paint0_linear" x1="57.8631" y1="31.8555" x2="81.3116" y2="43.7369" gradientUnits="userSpaceOnUse">
<stop stop-color="#0CA4DE"/>
<stop offset="1" stop-color="#0F86C9"/>
</linearGradient>
</defs>
</svg>
