<svg width="62" height="63" viewBox="0 0 62 63" fill="none" xmlns="http://www.w3.org/2000/svg">
<rect x="0.339844" width="61.2537" height="60.14" rx="5" fill="#8AB7DF"/>
<g filter="url(#filter0_d)">
<circle cx="50.9572" cy="53.6242" r="0.501167" fill="#F8F8F8"/>
</g>
<g filter="url(#filter1_d)">
<circle cx="52.9631" cy="53.6242" r="0.501167" fill="white"/>
</g>
<g filter="url(#filter2_d)">
<circle cx="54.9689" cy="53.6242" r="0.501167" fill="white"/>
</g>
<circle cx="30.4097" cy="28.9575" r="15.8056" stroke="#F6F8FF" stroke-width="1.8"/>
<circle cx="30.4088" cy="28.9567" r="13.5782" stroke="#F6F8FF" stroke-width="1.8"/>
<rect x="15.8174" y="29.4082" width="9.11822" height="3.12063" transform="rotate(-43.1682 15.8174 29.4082)" fill="#F6F8FF"/>
<rect x="10.3447" y="24.127" width="9.11822" height="3.07018" transform="rotate(43.17 10.3447 24.127)" fill="#F6F8FF"/>
<rect x="23.0859" y="29.2988" width="6.48289" height="2.85687" transform="rotate(-110 23.0859 29.2988)" fill="#8AB7DF"/>
<rect x="11.0088" y="23.1543" width="6.48289" height="2.69793" transform="rotate(110 11.0088 23.1543)" fill="#8AB7DF"/>
<rect x="45.1611" y="28.7676" width="9.11822" height="3.12063" transform="rotate(136.832 45.1611 28.7676)" fill="#F6F8FF"/>
<rect x="50.6348" y="34.0488" width="9.11822" height="3.07018" transform="rotate(-136.83 50.6348 34.0488)" fill="#F6F8FF"/>
<rect x="37.668" y="28.959" width="6.48289" height="2.61853" transform="rotate(70 37.668 28.959)" fill="#8AB7DF"/>
<rect x="49.7666" y="34.9473" width="6.48289" height="2.91609" transform="rotate(-70 49.7666 34.9473)" fill="#8AB7DF"/>
<rect width="7.38018" height="2.00467" transform="matrix(0.727647 0.685952 -0.333368 0.942797 11.0322 25.6152)" fill="#0075FF"/>
<rect width="7.38018" height="2.00467" transform="matrix(0.727647 0.685952 -0.333368 0.942797 11.0322 25.6152)" fill="#0E9CD7"/>
<rect width="7.38018" height="2.00467" transform="matrix(-0.727647 0.685952 -0.333368 -0.942797 21.5029 27.5059)" fill="#0D9BD6"/>
<rect width="7.38018" height="2.00467" transform="matrix(-0.727647 -0.685952 0.333368 -0.942797 49.8984 32.5684)" fill="#0E90D0"/>
<rect width="7.38018" height="2.00467" transform="matrix(0.727647 -0.685952 0.333368 0.942797 39.3184 30.9902)" fill="#0E8FD0"/>
<circle cx="30.4102" cy="28.9571" r="14.8419" stroke="#0075FF" stroke-width="1.5"/>
<circle cx="30.4102" cy="28.9571" r="14.8419" stroke="url(#paint0_linear)" stroke-width="1.5"/>
<defs>
<filter id="filter0_d" x="46.4561" y="53.123" width="9.00233" height="9.00233" filterUnits="userSpaceOnUse" color-interpolation-filters="sRGB">
<feFlood flood-opacity="0" result="BackgroundImageFix"/>
<feColorMatrix in="SourceAlpha" type="matrix" values="0 0 0 0 0 0 0 0 0 0 0 0 0 0 0 0 0 0 127 0"/>
<feOffset dy="4"/>
<feGaussianBlur stdDeviation="2"/>
<feColorMatrix type="matrix" values="0 0 0 0 0 0 0 0 0 0 0 0 0 0 0 0 0 0 0.25 0"/>
<feBlend mode="normal" in2="BackgroundImageFix" result="effect1_dropShadow"/>
<feBlend mode="normal" in="SourceGraphic" in2="effect1_dropShadow" result="shape"/>
</filter>
<filter id="filter1_d" x="48.4619" y="53.123" width="9.00233" height="9.00233" filterUnits="userSpaceOnUse" color-interpolation-filters="sRGB">
<feFlood flood-opacity="0" result="BackgroundImageFix"/>
<feColorMatrix in="SourceAlpha" type="matrix" values="0 0 0 0 0 0 0 0 0 0 0 0 0 0 0 0 0 0 127 0"/>
<feOffset dy="4"/>
<feGaussianBlur stdDeviation="2"/>
<feColorMatrix type="matrix" values="0 0 0 0 0 0 0 0 0 0 0 0 0 0 0 0 0 0 0.25 0"/>
<feBlend mode="normal" in2="BackgroundImageFix" result="effect1_dropShadow"/>
<feBlend mode="normal" in="SourceGraphic" in2="effect1_dropShadow" result="shape"/>
</filter>
<filter id="filter2_d" x="50.4678" y="53.123" width="9.00233" height="9.00233" filterUnits="userSpaceOnUse" color-interpolation-filters="sRGB">
<feFlood flood-opacity="0" result="BackgroundImageFix"/>
<feColorMatrix in="SourceAlpha" type="matrix" values="0 0 0 0 0 0 0 0 0 0 0 0 0 0 0 0 0 0 127 0"/>
<feOffset dy="4"/>
<feGaussianBlur stdDeviation="2"/>
<feColorMatrix type="matrix" values="0 0 0 0 0 0 0 0 0 0 0 0 0 0 0 0 0 0 0.25 0"/>
<feBlend mode="normal" in2="BackgroundImageFix" result="effect1_dropShadow"/>
<feBlend mode="normal" in="SourceGraphic" in2="effect1_dropShadow" result="shape"/>
</filter>
<linearGradient id="paint0_linear" x1="19.2732" y1="13.3652" x2="38.763" y2="44.5489" gradientUnits="userSpaceOnUse">
<stop stop-color="#0BA8E0"/>
<stop offset="1" stop-color="#0F83C7"/>
</linearGradient>
</defs>
</svg>
