<svg width="17" height="16" viewBox="0 0 17 16" fill="none" xmlns="http://www.w3.org/2000/svg">
<path d="M15.807 4.66113H15.3414V10.0798C15.3414 10.9234 14.8775 11.6863 13.9474 11.6863H4.83496V11.9439C4.83496 12.6898 5.63622 13.4427 6.45904 13.4427H13.4259L16.0912 15.102L15.7047 13.4427H15.807C16.6293 13.4427 17.0003 12.6916 17.0003 11.9439V5.94743C17.0003 5.20153 16.6293 4.66113 15.807 4.66113Z" fill="#919191"/>
<path d="M12.5867 0.896484H2.00286C1.07166 0.896484 0 1.77236 0 2.61662V9.40819C0 10.1857 0.907979 10.7472 1.77891 10.8338L1.21211 13.1119L4.84403 10.8496H12.5867C13.5179 10.8496 14.3773 10.2519 14.3773 9.40819V3.91346V2.61662C14.3773 1.77236 13.5174 0.896484 12.5867 0.896484ZM3.61754 6.62951C3.08945 6.62951 2.66145 6.17634 2.66145 5.61721C2.66145 5.05808 3.08945 4.60492 3.61754 4.60492C4.14507 4.60492 4.57363 5.05808 4.57363 5.61721C4.57363 6.17634 4.14507 6.62951 3.61754 6.62951ZM7.18863 6.62951C6.66054 6.62951 6.23254 6.17634 6.23254 5.61721C6.23254 5.05808 6.66054 4.60492 7.18863 4.60492C7.71672 4.60492 8.14472 5.05808 8.14472 5.61721C8.14472 6.17634 7.71672 6.62951 7.18863 6.62951ZM10.7603 6.62951C10.2322 6.62951 9.80363 6.17634 9.80363 5.61721C9.80363 5.05808 10.2322 4.60492 10.7603 4.60492C11.2873 4.60492 11.7164 5.05808 11.7164 5.61721C11.7164 6.17634 11.2873 6.62951 10.7603 6.62951Z" fill="#919191"/>
</svg>
