<svg width="16" height="16" viewBox="0 0 16 16" fill="none" xmlns="http://www.w3.org/2000/svg">
<path d="M15.375 4.53138C15.0298 4.53138 14.2222 4.93873 14.2222 5.28394V13.5C14.2222 14.0292 14.2432 14.207 13.7778 14.3892C13.8018 14.2147 13.815 14.3997 13.7778 14.2222C13.4964 12.8782 12.9088 11.5662 11.8373 10.6897C11.3359 10.2798 10.7733 9.95508 10.1743 9.724C10.8518 9.12794 11.28 8.25513 11.28 7.28394C11.28 5.49195 9.82214 4.03395 8.03003 4.03395C6.23804 4.03395 4.78003 5.49195 4.78003 7.28394C4.78003 8.24634 5.20068 9.11219 5.86768 9.70789C5.25293 9.93982 4.67566 10.2701 4.16272 10.6897C3.09106 11.5662 2.34595 12.7889 2.06445 14.1329C2.02734 14.3105 2.04028 14.2148 2.06445 14.3892C1.599 14.2072 2.66667 14.6667 1.77778 14.2222V7.99999V2.50013C1.77778 1.8108 1.53301 1.77778 2.22222 1.77778H9.0625C9.40771 1.77778 9.77778 1.23398 9.77778 0.888888C9.77778 0.543674 9.40771 0.000135562 9.0625 0.000135562H2.5C1.12146 0.000135562 0 1.12159 0 2.50013V13.5C0 14.8785 1.12146 16 2.5 16H13.5C14.8784 16 16 14.8785 16 13.5V5.15626C16 4.81117 15.7201 4.53138 15.375 4.53138ZM8.03003 5.28394C9.13293 5.28394 10.03 6.18116 10.03 7.28394C10.03 8.38685 9.13293 9.28394 8.03003 9.28394C6.92725 9.28394 6.03003 8.38685 6.03003 7.28394C6.03003 6.18116 6.92725 5.28394 8.03003 5.28394ZM3.34839 14.6392C3.31482 14.598 3.26245 14.5107 3.28796 14.3892C3.75012 12.1816 5.72913 10.577 8 10.5629C10.2709 10.577 12.2498 12.1816 12.712 14.3892C12.7374 14.5107 12.6851 14.598 12.6516 14.6392C12.618 14.6807 12.9323 14.3892 12.8066 14.3892H3.11111C2.98538 14.3892 3.38196 14.6807 3.34839 14.6392ZM10.2456 2.81715C10.0015 2.57313 10.0015 2.17738 10.2455 1.93324C10.4895 1.6891 10.8853 1.68898 11.1293 1.93312L12.5526 3.35585C12.5688 3.36988 12.5881 3.37623 12.6099 3.37489C12.6299 3.37355 12.6469 3.36598 12.6605 3.35231L14.8649 0.262098C15.0654 -0.0189074 15.4557 -0.0842149 15.7367 0.116224C16.0177 0.316664 16.083 0.707044 15.8824 0.98805L13.6627 4.09974C13.6558 4.10939 13.6486 4.11891 13.6411 4.12831C13.4087 4.41737 13.0631 4.59742 12.693 4.62208C12.6637 4.62403 12.6344 4.62501 12.6052 4.62501C12.2655 4.62501 11.9353 4.49403 11.6879 4.25843C11.6842 4.25501 11.6805 4.25135 11.6769 4.24781L10.2456 2.81715Z" fill="#3B3B3A"/>
</svg>
