<svg width="48" height="48" viewBox="0 0 48 48" fill="none" xmlns="http://www.w3.org/2000/svg">
<path d="M36.2528 28.5376C32.9165 28.5376 30.2024 31.2518 30.2024 34.588C30.2024 37.9243 32.9165 40.6385 36.2528 40.6385C39.5897 40.6385 42.3033 37.9243 42.3033 34.588C42.3033 31.2518 39.5891 28.5376 36.2528 28.5376ZM36.2528 37.6132C34.5845 37.6132 33.2276 36.2564 33.2276 34.588C33.2276 32.9197 34.5845 31.5628 36.2528 31.5628C37.9212 31.5628 39.278 32.9197 39.278 34.588C39.278 36.2565 37.9212 37.6132 36.2528 37.6132Z" fill="#4D4D4D"/>
<path d="M15.5802 28.5376C12.2439 28.5376 9.52979 31.2518 9.52979 34.588C9.52979 37.9243 12.2439 40.6385 15.5802 40.6385C18.9165 40.6385 21.6307 37.9243 21.6307 34.588C21.6307 31.2518 18.9165 28.5376 15.5802 28.5376ZM15.5802 37.6132C13.9118 37.6132 12.555 36.2564 12.555 34.588C12.555 32.9197 13.9118 31.5628 15.5802 31.5628C17.2481 31.5628 18.6054 32.9197 18.6054 34.588C18.6054 36.2565 17.2486 37.6132 15.5802 37.6132Z" fill="#4D4D4D"/>
<path d="M40.3267 11.2192C40.0696 10.7084 39.5467 10.3862 38.9749 10.3862H31.0085V13.4115H38.0421L42.1609 21.6037L44.8645 20.2443L40.3267 11.2192Z" fill="#4D4D4D"/>
<path d="M31.7147 33.126H20.2693V36.1512H31.7147V33.126Z" fill="#4D4D4D"/>
<path d="M11.0418 33.126H5.79821C4.96271 33.126 4.28564 33.8031 4.28564 34.6385C4.28564 35.474 4.9628 36.1511 5.79821 36.1511H11.0419C11.8774 36.1511 12.5545 35.474 12.5545 34.6385C12.5545 33.803 11.8773 33.126 11.0418 33.126Z" fill="#4D4D4D"/>
<path d="M47.6822 23.879L44.707 20.047C44.4211 19.6779 43.98 19.4621 43.5125 19.4621H32.5209V8.87389C32.5209 8.03839 31.8437 7.36133 31.0083 7.36133H5.79821C4.96271 7.36133 4.28564 8.03848 4.28564 8.87389C4.28564 9.7093 4.9628 10.3865 5.79821 10.3865H29.4957V20.9747C29.4957 21.8102 30.1728 22.4872 31.0082 22.4872H42.7718L44.9746 25.3249V33.1259H40.7897C39.9542 33.1259 39.2772 33.803 39.2772 34.6385C39.2772 35.4739 39.9543 36.151 40.7897 36.151H46.4872C47.3227 36.151 47.9998 35.4739 47.9999 34.6385V24.8067C47.9999 24.4709 47.8879 24.1442 47.6822 23.879Z" fill="#4D4D4D"/>
<path d="M10.9408 25.4624H3.98278C3.14728 25.4624 2.47021 26.1396 2.47021 26.975C2.47021 27.8105 3.14737 28.4875 3.98278 28.4875H10.9407C11.7762 28.4875 12.4533 27.8104 12.4533 26.975C12.4534 26.1396 11.7762 25.4624 10.9408 25.4624Z" fill="#4D4D4D"/>
<path d="M14.4202 19.5127H1.51256C0.677156 19.5127 0 20.1899 0 21.0253C0 21.8608 0.677156 22.5379 1.51256 22.5379H14.4202C15.2557 22.5379 15.9327 21.8608 15.9327 21.0253C15.9327 20.1899 15.2557 19.5127 14.4202 19.5127Z" fill="#4D4D4D"/>
<path d="M16.8904 13.563H3.98278C3.14728 13.563 2.47021 14.2401 2.47021 15.0756C2.47021 15.9111 3.14737 16.5881 3.98278 16.5881H16.8904C17.7259 16.5881 18.4029 15.911 18.4029 15.0756C18.403 14.2401 17.7259 13.563 16.8904 13.563Z" fill="#4D4D4D"/>
</svg>
