<svg width="28" height="28" viewBox="0 0 28 28" fill="none" xmlns="http://www.w3.org/2000/svg">
<path d="M11.9584 13.125H0.875C0.391998 13.125 0 12.733 0 12.25C0 11.767 0.391998 11.375 0.875 11.375H11.9584C12.4414 11.375 12.8334 11.767 12.8334 12.25C12.8334 12.733 12.4414 13.125 11.9584 13.125Z" fill="#111111"/>
<path d="M7.58426 17.4999C7.36017 17.4999 7.13629 17.4146 6.96582 17.2433C6.62402 16.9013 6.62402 16.3472 6.96582 16.0054L10.7226 12.2488L6.96582 8.49332C6.62402 8.15131 6.62402 7.59717 6.96582 7.25537C7.30762 6.91357 7.86176 6.91357 8.20377 7.25537L12.5788 11.6304C12.9206 11.9722 12.9206 12.5263 12.5788 12.8683L8.20377 17.2433C8.03223 17.4146 7.80814 17.4999 7.58426 17.4999Z" fill="#111111"/>
<path d="M18.6662 28.0004C17.3793 28.0004 16.333 26.9538 16.333 25.667V4.66695C16.333 3.66954 16.9677 2.77937 17.9125 2.45146L24.9219 0.114639C26.4899 -0.366013 27.9996 0.797165 27.9996 2.33376V23.3338C27.9996 24.3301 27.3649 25.219 26.4211 25.548L19.4094 27.8861C19.1539 27.9653 18.9172 28.0004 18.6662 28.0004ZM25.6662 1.75035C25.5904 1.75035 25.5263 1.75975 25.4575 1.78069L18.4774 4.10811C18.2486 4.18758 18.083 4.4185 18.083 4.66695V25.667C18.083 26.0649 18.5145 26.3332 18.8751 26.22L25.8553 23.8926C26.0828 23.8131 26.2496 23.5822 26.2496 23.3338V2.33376C26.2496 2.01289 25.9883 1.75035 25.6662 1.75035Z" fill="#111111"/>
<path d="M10.208 5.8334C9.72501 5.8334 9.33301 5.44141 9.33301 4.9584V3.2084C9.33301 1.43854 10.7713 0 12.5412 0H25.6662C26.1492 0 26.5412 0.391998 26.5412 0.875C26.5412 1.358 26.1492 1.75 25.6662 1.75H12.5412C11.7373 1.75 11.083 2.40454 11.083 3.2084V4.9584C11.083 5.44141 10.691 5.8334 10.208 5.8334Z" fill="#111111"/>
<path d="M17.208 24.5004H12.5412C10.7713 24.5004 9.33301 23.0619 9.33301 21.292V19.542C9.33301 19.059 9.72501 18.667 10.208 18.667C10.691 18.667 11.083 19.059 11.083 19.542V21.292C11.083 22.0959 11.7373 22.7504 12.5412 22.7504H17.208C17.691 22.7504 18.083 23.1424 18.083 23.6254C18.083 24.1084 17.691 24.5004 17.208 24.5004Z" fill="#111111"/>
</svg>
