<svg width="26" height="22" viewBox="0 0 26 22" fill="none" xmlns="http://www.w3.org/2000/svg">
<path d="M23.2392 1.89944C22.0034 1.01561 20.6397 0.567383 19.1859 0.567383C17.3517 0.567383 15.3704 1.30181 13.4219 2.69838C11.4733 1.30181 9.49204 0.567383 7.65781 0.567383C6.20408 0.567383 4.8404 1.01561 3.60458 1.89944C1.79646 3.19277 0.894232 4.82484 0.92252 6.75022C1.0198 13.3433 12.4324 21.1229 12.9181 21.4509L13.4219 21.791L13.9257 21.4509C14.4115 21.1229 25.8241 13.3433 25.9212 6.75022C25.9495 4.82484 25.0473 3.19277 23.2392 1.89944ZM18.6113 15.528C16.4985 17.5216 14.3664 19.1082 13.4219 19.7841C12.4773 19.1082 10.3453 17.5217 8.23242 15.528C4.6126 12.1125 2.68132 9.06913 2.64728 6.72692C2.62681 5.32312 3.28215 4.16496 4.65055 3.18619C5.57887 2.52211 6.59069 2.18542 7.65781 2.18542C9.6774 2.18542 11.6064 3.36516 12.8689 4.35482L13.4219 4.78827L13.9749 4.35482C15.2374 3.36516 17.1663 2.18542 19.1859 2.18542C20.2531 2.18542 21.2649 2.52211 22.1932 3.18619C23.5616 4.16496 24.2169 5.32312 24.1965 6.72692C24.1624 9.06924 22.231 12.1125 18.6113 15.528Z" fill="black"/>
</svg>
