<svg width="29" height="24" viewBox="0 0 29 24" fill="none" xmlns="http://www.w3.org/2000/svg">
<path d="M25.7362 2.37172C24.3217 1.41071 22.7608 0.92334 21.0968 0.92334C18.9973 0.92334 16.7295 1.7219 14.4992 3.24043C12.2688 1.7219 10.001 0.92334 7.90149 0.92334C6.23753 0.92334 4.67663 1.41071 3.26209 2.37172C1.19247 3.778 0.159766 5.55259 0.192145 7.6461C0.303497 14.8149 13.3666 23.2739 13.9225 23.6305L14.4992 24.0004L15.0758 23.6305C15.6319 23.2739 28.695 14.8149 28.8062 7.6461C28.8386 5.55259 27.8059 3.778 25.7362 2.37172ZM20.4391 17.1904C18.0207 19.3581 15.5803 21.0833 14.4992 21.8182C13.418 21.0833 10.9776 19.3582 8.5592 17.1904C4.41589 13.4767 2.2053 10.1675 2.16634 7.62077C2.14291 6.09438 2.89302 4.83508 4.45932 3.77084C5.5219 3.04876 6.68004 2.68268 7.90149 2.68268C10.2132 2.68268 12.4211 3.96544 13.8662 5.04152L14.4992 5.51282L15.1321 5.04152C16.5772 3.96544 18.7852 2.68268 21.0968 2.68268C22.3183 2.68268 23.4764 3.04876 24.539 3.77084C26.1053 4.83508 26.8554 6.09438 26.832 7.62077C26.793 10.1676 24.5823 13.4767 20.4391 17.1904Z" fill="#F4F4F4"/>
<path d="M24.2868 3.98569C23.0548 3.17843 21.6953 2.76904 20.246 2.76904C18.4174 2.76904 16.4422 3.43983 14.4997 4.7154C12.5571 3.43983 10.5819 2.76904 8.75332 2.76904C7.30406 2.76904 5.94457 3.17843 4.71255 3.98569C2.90998 5.16696 2.01053 6.65761 2.03873 8.41616C2.13571 14.438 13.5132 21.5435 13.9974 21.8431L14.4997 22.1537L15.0019 21.8431C15.4863 21.5435 26.8638 14.438 26.9606 8.41616C26.9888 6.65761 26.0894 5.16696 24.2868 3.98569ZM19.6732 16.4334C17.5668 18.2542 15.4413 19.7034 14.4997 20.3207C13.558 19.7034 11.4325 18.2543 9.32617 16.4334C5.71747 13.3139 3.79212 10.5342 3.75819 8.39488C3.73778 7.11272 4.39111 6.0549 5.7553 5.16095C6.68078 4.5544 7.68948 4.24689 8.75332 4.24689C10.7667 4.24689 12.6898 5.32441 13.9484 6.22832L14.4997 6.62421L15.051 6.22832C16.3096 5.32441 18.2326 4.24689 20.246 4.24689C21.3099 4.24689 22.3186 4.5544 23.2441 5.16095C24.6082 6.0549 25.2616 7.11272 25.2412 8.39488C25.2072 10.5343 23.2818 13.3139 19.6732 16.4334Z" fill="#F4F4F4"/>
<rect x="20.8286" y="1.03076" width="5.98786" height="1.97949" transform="rotate(29.3012 20.8286 1.03076)" fill="#F4F4F4"/>
<rect x="25.9077" y="3.69189" width="5.09122" height="1.97949" transform="rotate(60 25.9077 3.69189)" fill="#F4F4F4"/>
<rect x="0.442383" y="7.36328" width="5.98786" height="1.97949" transform="rotate(-45.6988 0.442383 7.36328)" fill="#F4F4F4"/>
<rect x="4.32812" y="3.14648" width="5.09122" height="1.97949" transform="rotate(-15 4.32812 3.14648)" fill="#F4F4F4"/>
</svg>
