<svg width="25" height="21" fill="none" xmlns="http://www.w3.org/2000/svg"><path d="M18.36 0c-1.357 0-2.601.409-3.697 1.216-1.051.773-1.751 1.758-2.163 2.475-.412-.717-1.112-1.702-2.163-2.475A6.114 6.114 0 0 0 6.641 0C2.855 0 0 2.946 0 6.854c0 4.22 3.562 7.109 8.954 11.48.915.743 1.953 1.585 3.032 2.482A.804.804 0 0 0 12.5 21c.19 0 .372-.065.514-.184 1.08-.897 2.117-1.739 3.033-2.482C21.438 13.963 25 11.074 25 6.854 25 2.946 22.145 0 18.36 0z" fill="url(#a)"/><defs><linearGradient id="a" x1="12.5" y1="0" x2="12.5" y2="21" gradientUnits="userSpaceOnUse"><stop stop-color="#F71212"/><stop offset="1" stop-color="#FDB41E"/></linearGradient></defs></svg>