<svg width="25" height="21" viewBox="0 0 25 21" fill="none" xmlns="http://www.w3.org/2000/svg">
<path d="M18.3594 0C17.0028 0 15.759 0.409035 14.6627 1.21577C13.6117 1.98919 12.912 2.97429 12.5 3.69061C12.088 2.97424 11.3883 1.98919 10.3373 1.21577C9.24097 0.409035 7.99722 0 6.64062 0C2.85488 0 0 2.94637 0 6.85353C0 11.0746 3.56167 13.9626 8.95356 18.3347C9.86919 19.0772 10.907 19.9187 11.9857 20.8163C12.1279 20.9348 12.3105 21 12.5 21C12.6895 21 12.8721 20.9348 13.0143 20.8163C14.0931 19.9186 15.1309 19.0771 16.047 18.3342C21.4383 13.9626 25 11.0746 25 6.85353C25 2.94637 22.1451 0 18.3594 0Z" fill="url(#paint0_linear)"/>
<defs>
<linearGradient id="paint0_linear" x1="12.5" y1="0" x2="12.5" y2="21" gradientUnits="userSpaceOnUse">
<stop stop-color="#F71212"/>
<stop offset="1" stop-color="#FDB41E"/>
</linearGradient>
</defs>
</svg>
