<svg width="26" height="22" viewBox="0 0 26 22" fill="none" xmlns="http://www.w3.org/2000/svg">
<path d="M22.5992 1.38079C21.3908 0.464623 20.0575 0 18.636 0C16.8426 0 14.9053 0.761289 13.0001 2.20895C11.0948 0.761289 9.15755 0 7.36408 0C5.94266 0 4.60928 0.464623 3.40093 1.38079C1.63298 2.72143 0.750803 4.4132 0.778463 6.40901C0.873584 13.2433 12.0325 21.3075 12.5075 21.6474L13.0001 22L13.4926 21.6474C13.9677 21.3075 25.1266 13.2433 25.2216 6.40901C25.2493 4.4132 24.3671 2.72143 22.5992 1.38079ZM18.0742 15.5079C16.0083 17.5744 13.9236 19.2191 13.0001 19.9197C12.0765 19.2191 9.99182 17.5745 7.92592 15.5079C4.38654 11.9675 2.49817 8.81275 2.46489 6.38485C2.44488 4.9297 3.08565 3.72918 4.42365 2.71461C5.33134 2.02623 6.32067 1.67723 7.36408 1.67723C9.33879 1.67723 11.2249 2.90012 12.4593 3.92598L13.0001 4.37529L13.5408 3.92598C14.7752 2.90012 16.6613 1.67723 18.636 1.67723C19.6794 1.67723 20.6688 2.02623 21.5765 2.71461C22.9145 3.72918 23.5552 4.9297 23.5352 6.38485C23.5019 8.81286 21.6135 11.9675 18.0742 15.5079Z" fill="black"/>
</svg>
