<svg width="18" height="16" viewBox="0 0 18 16" fill="none" xmlns="http://www.w3.org/2000/svg">
<path d="M15.9814 1.00421C15.1026 0.337908 14.1329 0 13.0991 0C11.7948 0 10.3858 0.553665 9.00022 1.60651C7.61459 0.553665 6.20567 0 4.90132 0C3.86757 0 2.89783 0.337908 2.01903 1.00421C0.733252 1.97922 0.091671 3.2096 0.111787 4.6611C0.180966 9.63147 8.29657 15.4964 8.64198 15.7436L9.00022 16L9.35846 15.7436C9.70395 15.4964 17.8195 9.63147 17.8886 4.6611C17.9088 3.2096 17.2672 1.97922 15.9814 1.00421ZM12.6905 11.2785C11.188 12.7814 9.67189 13.9775 9.00022 14.487C8.32854 13.9775 6.81241 12.7815 5.30994 11.2785C2.73584 8.70363 1.36249 6.40927 1.33828 4.64353C1.32373 3.58524 1.78974 2.71213 2.76283 1.97426C3.42297 1.47362 4.14248 1.2198 4.90132 1.2198C6.33748 1.2198 7.7092 2.10918 8.60698 2.85526L9.00022 3.18203L9.39346 2.85526C10.2912 2.10918 11.663 1.2198 13.0991 1.2198C13.858 1.2198 14.5775 1.47362 15.2376 1.97426C16.2107 2.71213 16.6767 3.58524 16.6622 4.64353C16.6379 6.40935 15.2645 8.70363 12.6905 11.2785Z" fill="black"/>
</svg>
