<svg width="33" height="33" viewBox="0 0 33 33" fill="none" xmlns="http://www.w3.org/2000/svg">
<g clip-path="url(#clip0)">
<path d="M29.7221 3.9241L16.7778 0.0407988C16.5968 -0.0135996 16.4035 -0.0135996 16.2222 0.0407988L3.27787 3.9241C2.86892 4.04675 2.58887 4.42316 2.58887 4.8501V19.0888C2.58887 20.9408 3.33859 22.8366 4.8172 24.7236C5.94655 26.1648 7.5089 27.612 9.46092 29.025C12.7401 31.3987 15.9691 32.8548 16.1049 32.9156C16.2306 32.9718 16.3653 33 16.5 33C16.6346 33 16.7693 32.9719 16.895 32.9156C17.0309 32.8548 20.2598 31.3987 23.539 29.025C25.4909 27.612 27.0533 26.1648 28.1826 24.7236C29.6612 22.8367 30.411 20.9409 30.411 19.0888V4.8501C30.411 4.42316 30.131 4.04675 29.7221 3.9241ZM28.4774 19.0888C28.4774 22.3664 25.1888 25.4396 22.4301 27.4407C19.9567 29.2346 17.4484 30.5076 16.5 30.9649C15.5517 30.5076 13.0433 29.2346 10.57 27.4407C7.81112 25.4396 4.52246 22.3664 4.52246 19.0888V5.56939L16.5 1.97613L28.4774 5.56939V19.0888Z" fill="#757575"/>
</g>
<g clip-path="url(#clip1)">
<path d="M25.3129 8.11607L16.6835 5.5272C16.5626 5.49093 16.4339 5.49093 16.313 5.5272L7.68341 8.11607C7.41082 8.19784 7.22412 8.44877 7.22412 8.7334V18.2259C7.22412 19.4605 7.72398 20.7244 8.70972 21.9824C9.46258 22.9432 10.5042 23.908 11.8055 24.85C13.9916 26.4324 16.1443 27.4032 16.2349 27.4437C16.3186 27.4812 16.4084 27.5 16.4982 27.5C16.588 27.5 16.6778 27.4813 16.7616 27.4437C16.8521 27.4032 19.0048 26.4324 21.1909 24.85C22.4922 23.908 23.5338 22.9432 24.2867 21.9824C25.2724 20.7245 25.7722 19.4606 25.7722 18.2259V8.7334C25.7722 8.44877 25.5856 8.19784 25.3129 8.11607Z" fill="#757575"/>
</g>
<g clip-path="url(#clip2)">
<path d="M24.2149 9.16406L16.6641 6.8988C16.5584 6.86707 16.4457 6.86707 16.34 6.8988L8.78909 9.16406C8.55057 9.23561 8.38721 9.45518 8.38721 9.70422V18.0101C8.38721 19.0905 8.82458 20.1964 9.68711 21.2971C10.3459 22.1378 11.2573 22.982 12.3959 23.8062C14.3088 25.1909 16.1924 26.0403 16.2716 26.0757C16.3449 26.1086 16.4235 26.125 16.5021 26.125C16.5806 26.125 16.6592 26.1086 16.7325 26.0757C16.8117 26.0403 18.6953 25.1909 20.6081 23.8062C21.7468 22.982 22.6581 22.1378 23.3169 21.2971C24.1795 20.1964 24.6168 19.0905 24.6168 18.0101V9.70422C24.6168 9.45518 24.4535 9.23561 24.2149 9.16406Z" fill="white"/>
<g filter="url(#filter0_d)">
<path fill-rule="evenodd" clip-rule="evenodd" d="M20.0857 13.0252C20.5869 12.5242 21.3995 12.5242 21.9008 13.0252C22.4018 13.5264 22.4018 14.339 21.9008 14.8403L16.7675 19.9737C16.2662 20.4747 15.4536 20.4747 14.9523 19.9737L11.1023 16.1237C10.6013 15.6224 10.6013 14.8098 11.1023 14.3085C11.6036 13.8075 12.4162 13.8075 12.9175 14.3085L15.8599 17.2512L20.0857 13.0252Z" fill="url(#paint0_linear)"/>
</g>
</g>
<defs>
<filter id="filter0_d" x="6.72656" y="9.64941" width="19.55" height="15.7" filterUnits="userSpaceOnUse" color-interpolation-filters="sRGB">
<feFlood flood-opacity="0" result="BackgroundImageFix"/>
<feColorMatrix in="SourceAlpha" type="matrix" values="0 0 0 0 0 0 0 0 0 0 0 0 0 0 0 0 0 0 127 0" result="hardAlpha"/>
<feOffset dy="1"/>
<feGaussianBlur stdDeviation="2"/>
<feColorMatrix type="matrix" values="0 0 0 0 0 0 0 0 0 0 0 0 0 0 0 0 0 0 0.2 0"/>
<feBlend mode="normal" in2="BackgroundImageFix" result="effect1_dropShadow"/>
<feBlend mode="normal" in="SourceGraphic" in2="effect1_dropShadow" result="shape"/>
</filter>
<linearGradient id="paint0_linear" x1="10.7266" y1="12.6494" x2="22.2766" y2="20.3494" gradientUnits="userSpaceOnUse">
<stop stop-color="#F71313"/>
<stop offset="1" stop-color="#FCA11D"/>
</linearGradient>
<clipPath id="clip0">
<rect width="33" height="33" fill="white"/>
</clipPath>
<clipPath id="clip1">
<rect width="22" height="22" fill="white" transform="translate(5.49854 5.5)"/>
</clipPath>
<clipPath id="clip2">
<rect width="19.25" height="19.25" fill="white" transform="translate(6.87646 6.875)"/>
</clipPath>
</defs>
</svg>
