<svg width="29" height="23" viewBox="0 0 29 23" fill="none" xmlns="http://www.w3.org/2000/svg">
<path d="M14.5 11.4519L12.942 14.0486L14.5 16.6452L16.058 14.0486L14.5 11.4519ZM14.5 11.4519L12.942 14.0486L14.5 16.6452L16.058 14.0486L14.5 11.4519ZM27.6419 7.42011L21.5582 11.9452L15.2373 0.884547C14.9117 0.314243 14.0882 0.314809 13.7626 0.884547L7.44166 11.9452L1.35803 7.42011C0.717504 6.94382 -0.168252 7.53904 0.0277017 8.31153L2.3497 17.4466H7.70387C8.1728 17.4466 8.55338 17.8272 8.55338 18.2961C8.55338 18.765 8.1728 19.1456 7.70387 19.1456H2.78125L3.48238 21.9037C3.57809 22.2797 3.91732 22.5437 4.30583 22.5437H24.6941C25.0826 22.5437 25.4218 22.2797 25.5175 21.9037L26.2187 19.1456H21.296C20.8271 19.1456 20.4465 18.765 20.4465 18.2961C20.4465 17.8272 20.8271 17.4466 21.296 17.4466H26.6502L28.9722 8.31153C29.1687 7.53734 28.2813 6.94495 27.6419 7.42011ZM17.7768 14.4858L15.2283 18.7333C14.8998 19.281 14.1024 19.2844 13.7716 18.7333L11.2231 14.4858C11.0617 14.2168 11.0617 13.8804 11.2231 13.6113L13.7716 9.36379C14.1001 8.81614 14.8975 8.81274 15.2283 9.36379L17.7768 13.6113C17.9382 13.8804 17.9382 14.2168 17.7768 14.4858ZM12.942 14.0486L14.5 16.6452L16.058 14.0486L14.5 11.4519L12.942 14.0486Z" fill="#31ACE4"/>
<path d="M8.51877 6.63824L6.91886 9.43766L4.5459 7.67238L5.17284 4.53712C5.31669 3.81843 6.24548 3.60776 6.68553 4.19392L8.51877 6.63824Z" fill="#31ACE4"/>
<path d="M24.4548 7.67238L22.0818 9.43766L20.4819 6.63824L22.3152 4.19392C22.7547 3.60776 23.684 3.81843 23.8279 4.53712L24.4548 7.67238Z" fill="#31ACE4"/>
</svg>
