<svg width="37" height="31" viewBox="0 0 37 31" fill="none" xmlns="http://www.w3.org/2000/svg">
<path fill-rule="evenodd" clip-rule="evenodd" d="M0 3.70649C0 1.67526 1.61639 0 3.64523 0H29.3763C31.4052 0 33.0215 1.67526 33.0215 3.70649V11.7934C33.0215 12.2276 32.6695 12.5796 32.2353 12.5796C31.8011 12.5796 31.4491 12.2276 31.4491 11.7934V3.70649C31.4491 2.51211 30.5054 1.57245 29.3763 1.57245H3.64523C2.5161 1.57245 1.57245 2.51211 1.57245 3.70649V18.3079C1.57245 19.5022 2.5161 20.4419 3.64523 20.4419H14.9383C15.3725 20.4419 15.7245 20.794 15.7245 21.2281C15.7245 21.6623 15.3725 22.0144 14.9383 22.0144H3.64523C1.61639 22.0144 0 20.3391 0 18.3079V3.70649Z" fill="#757575"/>
<path fill-rule="evenodd" clip-rule="evenodd" d="M0 5.504C0 5.06978 0.352006 4.71777 0.786227 4.71777H32.2353C32.6695 4.71777 33.0215 5.06978 33.0215 5.504C33.0215 5.93822 32.6695 6.29023 32.2353 6.29023H0.786227C0.352006 6.29023 0 5.93822 0 5.504Z" fill="#757575"/>
<path fill-rule="evenodd" clip-rule="evenodd" d="M3.14355 13.3663C3.14355 12.9322 3.49556 12.5801 3.92978 12.5801H7.07469C7.50891 12.5801 7.86092 12.9322 7.86092 13.3663C7.86092 13.8005 7.50891 14.1525 7.07469 14.1525H3.92978C3.49556 14.1525 3.14355 13.8005 3.14355 13.3663Z" fill="#757575"/>
<path fill-rule="evenodd" clip-rule="evenodd" d="M3.14355 17.297C3.14355 16.8628 3.49556 16.5107 3.92978 16.5107H10.2196C10.6538 16.5107 11.0058 16.8628 11.0058 17.297C11.0058 17.7311 10.6538 18.0832 10.2196 18.0832H3.92978C3.49556 18.0832 3.14355 17.7311 3.14355 17.297Z" fill="#757575"/>
<circle cx="28.4165" cy="23.25" r="7.75" fill="#757575"/>
<circle cx="28.4167" cy="23.2497" r="5.16667" fill="white"/>
<path fill-rule="evenodd" clip-rule="evenodd" d="M30.8214 20.9191C31.1578 20.5829 31.703 20.5829 32.0394 20.9191C32.3755 21.2555 32.3755 21.8007 32.0394 22.1371L28.5949 25.5815C28.2586 25.9177 27.7133 25.9177 27.377 25.5815L24.7936 22.9982C24.4575 22.6618 24.4575 22.1166 24.7936 21.7802C25.13 21.4441 25.6752 21.4441 26.0116 21.7802L27.9859 23.7548L30.8214 20.9191Z" fill="url(#paint0_linear)"/>
<defs>
<linearGradient id="paint0_linear" x1="24.5415" y1="20.667" x2="32.2915" y2="25.8337" gradientUnits="userSpaceOnUse">
<stop stop-color="#F71313"/>
<stop offset="1" stop-color="#FCA11D"/>
</linearGradient>
</defs>
</svg>
