<svg width="37" height="37" viewBox="0 0 37 37" fill="none" xmlns="http://www.w3.org/2000/svg">
<g clip-path="url(#clip0)">
<path d="M36.3425 6.99704C35.863 6.43034 35.1917 6.08418 34.4519 6.0224L8.39615 3.84678C7.6563 3.78499 6.93697 4.01501 6.37019 4.49435C5.80572 4.9718 5.46008 5.63975 5.39634 6.37592L4.87213 11.294H2.77896C1.24665 11.294 0 12.5407 0 14.073V30.3834C0 31.9157 1.24665 33.1624 2.77896 33.1624H28.9255C30.4579 33.1624 31.7045 31.9157 31.7045 30.3834V27.7376L32.6324 27.815C32.7106 27.8215 32.7884 27.8248 32.8656 27.8248C34.2942 27.8248 35.512 26.7257 35.633 25.2769L36.9902 9.02307C37.0519 8.28329 36.8219 7.56382 36.3425 6.99704ZM2.77896 12.7393H28.9255C29.6609 12.7393 30.2592 13.3376 30.2592 14.073V15.5592H1.44531V14.073C1.44531 13.3376 2.04359 12.7393 2.77896 12.7393ZM1.44531 17.0045H30.2592V20.0027H1.44531V17.0045ZM28.9255 31.7171H2.77896C2.04359 31.7171 1.44531 31.1188 1.44531 30.3834V21.448H30.2592V30.3834C30.2592 31.1188 29.6609 31.7171 28.9255 31.7171ZM35.5498 8.90275L34.1926 25.1566C34.1314 25.8894 33.4853 26.4361 32.7526 26.3747L31.7045 26.2872V14.073C31.7045 12.5407 30.4579 11.294 28.9255 11.294H6.32567L6.83435 6.52161C6.83493 6.51611 6.83543 6.51069 6.83587 6.50513C6.89708 5.77229 7.54284 5.22567 8.2759 5.2871L34.3317 7.46272C34.6868 7.49235 35.009 7.65848 35.239 7.93049C35.4691 8.2025 35.5795 8.54771 35.5498 8.90275Z" fill="#757575"/>
<rect x="18.5" y="23.4336" width="9.86667" height="6.16666" rx="1" fill="#757575"/>
<rect x="19.7334" y="24.667" width="7.4" height="3.7" rx="1" fill="white"/>
<rect x="20.9668" y="25.9004" width="4.93333" height="1.23334" rx="0.616669" fill="url(#paint0_linear)"/>
</g>
<defs>
<linearGradient id="paint0_linear" x1="20.9668" y1="25.9004" x2="25.9001" y2="27.1337" gradientUnits="userSpaceOnUse">
<stop stop-color="#F82114"/>
<stop offset="1" stop-color="#FB7B1B"/>
</linearGradient>
<clipPath id="clip0">
<rect width="37" height="37" fill="white"/>
</clipPath>
</defs>
</svg>
