<svg width="282" height="334" viewBox="0 0 282 334" fill="none" xmlns="http://www.w3.org/2000/svg">
<rect x="273.539" y="4.31842" width="5.94537" height="60.9401" rx="2.97269" fill="#AEAFD8"/>
<rect x="198.618" y="104.143" width="6.61293" height="36.3711" rx="3.30647" transform="rotate(-90 198.618 104.143)" fill="#AEAFD8"/>
<rect x="90.6094" y="169.165" width="6.61293" height="50.3318" rx="3.30647" transform="rotate(-90 90.6094 169.165)" fill="#AEAFD8"/>
<rect x="95.0527" y="164.435" width="6.61293" height="105.825" rx="3.30647" transform="rotate(133.972 95.0527 164.435)" fill="#AEAFD8"/>
<rect x="276.389" y="57.4509" width="6.61293" height="63.2298" rx="3.30647" transform="rotate(46.9217 276.389 57.4509)" fill="#AEAFD8"/>
<rect x="201.585" y="96.3525" width="6.61293" height="97.3789" rx="3.30647" transform="rotate(44.6391 201.585 96.3525)" fill="#AEAFD8"/>
<rect x="273.197" y="75.4857" width="6.61293" height="45.5558" rx="3.30647" fill="#FFEDAE"/>
<rect x="276.205" y="113.646" width="6.61293" height="63.1956" rx="3.30647" transform="rotate(41.7749 276.205 113.646)" fill="#FFEDAE"/>
<rect x="240.5" y="156.311" width="6.61294" height="69.4358" rx="3.30647" transform="rotate(90 240.5 156.311)" fill="#FFEDAE"/>
<rect x="266.566" y="149.345" width="6.61294" height="39.2322" rx="3.30647" transform="rotate(140.251 266.566 149.345)" fill="#D6EEBF"/>
<rect x="259.234" y="146.39" width="6.61293" height="171.936" rx="3.30647" fill="#D6EEBF"/>
<rect x="1.53613" y="4.31775" width="6.61423" height="99.585" rx="3.30711" fill="#A2CEF4"/>
<rect x="93.7588" y="184.542" width="6.61293" height="125.657" rx="3.30647" transform="rotate(135 93.7588 184.542)" fill="#A2CEF4"/>
<circle cx="142.315" cy="137.665" r="101.633" stroke="#E06C69"/>
<circle cx="142.738" cy="138.088" r="97.5987" stroke="#E06C69"/>
<circle cx="142.738" cy="138.088" r="70.3308" stroke="#D2BFAF" stroke-width="5"/>
<rect x="130.846" y="4.31714" width="5.94537" height="63.9128" rx="2.97269" fill="#D7D7D9"/>
<rect x="88.7695" y="106.344" width="6.61293" height="62.8229" rx="3.30647" fill="#D7D7D9"/>
<rect x="155.267" y="231.992" width="6.61293" height="86.3355" rx="3.30647" fill="#D7D7D9"/>
<rect x="133.834" y="61.1545" width="6.61293" height="66.612" rx="3.30647" transform="rotate(43.7307 133.834 61.1545)" fill="#D7D7D9"/>
<rect x="162.793" y="234.794" width="6.61293" height="101.681" rx="3.30647" transform="rotate(136.058 162.793 234.794)" fill="#D7D7D9"/>
<rect x="212.576" y="229.052" width="6.61293" height="88.9072" rx="3.30647" fill="#9ED5C2"/>
<rect x="88.7705" y="53.0739" width="6.61293" height="57.3121" rx="3.30647" fill="#9ED5C2"/>
<rect x="80.3135" y="4.31842" width="6.61423" height="40.1313" rx="3.30711" fill="#9ED5C2"/>
<rect x="79.4912" y="40.5178" width="6.61293" height="21.5274" rx="3.30647" transform="rotate(-30 79.4912 40.5178)" fill="#9ED5C2"/>
<rect x="86.9453" y="108.167" width="6.61293" height="182.144" rx="3.30647" transform="rotate(-45.0281 86.9453 108.167)" fill="#9ED5C2"/>
<rect x="56.5283" y="4.31842" width="6.61423" height="80.2625" rx="3.30711" fill="#F3B9D6"/>
<rect x="273.194" y="230.518" width="6.61293" height="87.8051" rx="3.30647" fill="#F3B9D6"/>
<rect x="55.4453" y="81.9606" width="6.61293" height="49.5708" rx="3.30647" transform="rotate(-48.7786 55.4453 81.9606)" fill="#F3B9D6"/>
<rect x="89.5029" y="113.325" width="6.61293" height="68.3336" rx="3.30647" transform="rotate(-90 89.5029 113.325)" fill="#F3B9D6"/>
<rect x="150.121" y="110.253" width="6.61293" height="179.594" rx="3.30647" transform="rotate(-44.6058 150.121 110.253)" fill="#F3B9D6"/>
<rect x="9.78125" y="261.016" width="6.98032" height="54.373" rx="3.49016" fill="#FEB0B4"/>
<rect x="251.239" y="4.31842" width="7.43172" height="20.8088" rx="3.71586" fill="#FEB0B4"/>
<rect x="254.267" y="17.8716" width="6.98032" height="347.833" rx="3.49016" transform="rotate(45 254.267 17.8716)" fill="#FEB0B4"/>
<g filter="url(#filter0_d)">
<rect x="190.301" y="4.31836" width="5.94537" height="37.1586" rx="2.97269" fill="#F28F48"/>
<rect x="180.984" y="45.7246" width="6.61293" height="105.807" rx="3.30647" fill="#F28F48"/>
<rect x="184.068" y="144.311" width="6.61293" height="117.988" rx="3.30647" transform="rotate(44.2587 184.068 144.311)" fill="#F28F48"/>
<rect x="103" y="226" width="7" height="92" rx="3.5" fill="#F28F48"/>
</g>
<rect x="192.559" y="35.1874" width="6.61293" height="18.5033" rx="3.30647" transform="rotate(44.062 192.559 35.1874)" fill="#F28F48"/>
<circle cx="106.035" cy="284.99" r="18.7366" fill="white"/>
<g filter="url(#filter1_d)">
<circle cx="106.036" cy="284.99" r="13.5933" fill="#F28F48"/>
</g>
<defs>
<filter id="filter0_d" x="93.7246" y="0.318359" width="114.522" height="333.682" filterUnits="userSpaceOnUse" color-interpolation-filters="sRGB">
<feFlood flood-opacity="0" result="BackgroundImageFix"/>
<feColorMatrix in="SourceAlpha" type="matrix" values="0 0 0 0 0 0 0 0 0 0 0 0 0 0 0 0 0 0 127 0"/>
<feOffset dx="2" dy="6"/>
<feGaussianBlur stdDeviation="5"/>
<feColorMatrix type="matrix" values="0 0 0 0 0 0 0 0 0 0 0 0 0 0 0 0 0 0 0.25 0"/>
<feBlend mode="normal" in2="BackgroundImageFix" result="effect1_dropShadow"/>
<feBlend mode="normal" in="SourceGraphic" in2="effect1_dropShadow" result="shape"/>
</filter>
<filter id="filter1_d" x="84.4424" y="267.397" width="47.1865" height="47.1865" filterUnits="userSpaceOnUse" color-interpolation-filters="sRGB">
<feFlood flood-opacity="0" result="BackgroundImageFix"/>
<feColorMatrix in="SourceAlpha" type="matrix" values="0 0 0 0 0 0 0 0 0 0 0 0 0 0 0 0 0 0 127 0"/>
<feOffset dx="2" dy="6"/>
<feGaussianBlur stdDeviation="5"/>
<feColorMatrix type="matrix" values="0 0 0 0 0 0 0 0 0 0 0 0 0 0 0 0 0 0 0.25 0"/>
<feBlend mode="normal" in2="BackgroundImageFix" result="effect1_dropShadow"/>
<feBlend mode="normal" in="SourceGraphic" in2="effect1_dropShadow" result="shape"/>
</filter>
</defs>
</svg>
