<svg width="1067" height="621" viewBox="0 0 1067 621" fill="none" xmlns="http://www.w3.org/2000/svg">
<g filter="url(#filter0_d)">
<path fill-rule="evenodd" clip-rule="evenodd" d="M928.788 398.094L928.646 398.083C928.833 398.165 929.028 398.239 929.224 398.304C928.735 398.269 928.255 398.221 927.793 398.174C926.984 398.094 926.22 398.017 925.491 398.017C925.571 397.96 925.651 397.899 925.722 397.834C925.58 397.829 925.438 397.826 925.305 397.826C923.483 397.731 922.15 397.826 921.572 398.304C921.572 398.495 921.67 399.068 922.336 400.215C922.336 400.241 922.345 400.261 922.354 400.276C922.363 400.289 922.372 400.3 922.389 400.311C922.407 400.334 922.434 400.358 922.434 400.406C924.629 404.228 925.305 407.19 924.442 409.865C923.314 413.619 919.697 415.253 915.76 417.029L915.546 417.127C915.44 417.181 915.333 417.23 915.226 417.279C915.093 417.337 914.969 417.393 914.835 417.447L914.684 417.509C914.551 417.564 914.418 417.619 914.284 417.677C914.204 417.713 914.124 417.749 914.044 417.786C913.991 417.809 913.947 417.833 913.893 417.856C913.876 417.867 913.849 417.88 913.822 417.891C909.716 419.802 903.397 418.56 898.047 414.833C897.852 414.738 897.754 414.643 897.665 414.547C894.128 411.872 892.593 407.381 893.648 403.082C894.386 400.168 895.47 396.257 896.768 391.618V391.608V391.607C899.345 382.402 902.713 370.334 905.699 357.505C911.814 331.134 917.173 301.418 918.133 286.991C918.133 286.961 918.133 286.934 918.133 286.906C917.946 286.775 917.75 286.643 917.555 286.513C924.922 276.958 931.33 270.461 936.68 273.327C939.071 274.569 941.657 274.569 943.861 273.136C946.918 271.129 948.731 267.212 948.545 263.103C948.349 259.663 948.163 259.473 947.203 258.612L947.132 258.543C945.594 257.005 942.937 254.351 938.884 244.28C933.143 230.043 930.468 210.934 936.111 205.01C937.836 203.099 940.226 202.621 942.901 203.481C945.354 204.298 947.46 205.201 949.389 206.027L949.691 206.157C955.237 208.545 956.579 208.736 957.343 207.59C958.161 205.856 954.188 197.761 951.833 192.958L951.504 192.302C951.371 192.025 951.238 191.748 951.104 191.47V191.469L951.095 191.469C948.936 187.057 946.758 182.628 945.772 179.212C944.146 173.671 944.625 170.135 947.203 168.511C949.976 166.791 953.806 168.224 958.685 172.619C964.613 178.066 971.207 193.64 979.241 221.635C980.024 224.401 980.806 227.87 981.721 231.972L981.73 231.991V231.999C981.819 232.423 981.917 232.854 982.014 233.292C985.56 249.631 990.91 274.282 1002.77 280.875L1004.87 282.022C1043.13 303.425 1054.13 308.393 1057.77 309.54C1057.09 304.858 1053.84 294.157 1050.98 289.666C1050.3 288.615 1049.35 287.659 1048.2 286.608C1044.38 282.977 1039.69 278.486 1040.07 264.345C1040.16 261.575 1040.26 259.282 1040.36 257.275C1040.65 251.039 1040.77 248.679 1039.67 247.281C1038.99 246.43 1037.86 245.935 1036.06 245.14C1028.21 241.605 1021.7 235.107 1020.56 229.565C1020.27 228.132 1016.83 226.891 1012.91 225.553C1012.58 225.433 1012.23 225.313 1011.88 225.191C1009.16 224.233 1006.08 223.149 1002.77 221.54C991.293 215.902 985.08 203.673 983.641 184.085C982.21 163.924 992.35 153.222 999.042 151.216H999.14C999.042 150.357 997.994 148.064 997.132 146.343C995.985 144.145 994.643 141.375 993.594 138.222C993.345 137.58 993.097 136.886 992.839 136.155L992.83 136.135L992.821 136.125V136.121C992.581 135.448 992.332 134.743 992.057 134.018C988.235 123.603 982.494 107.933 985.365 94.0789C985.516 93.3045 985.658 92.5345 985.809 91.7788L985.827 91.6837L985.836 91.658C986.813 86.5861 987.675 82.1448 987.187 80.9884C986.796 80.8929 985.747 80.8928 982.592 81.6572C979.721 82.4216 976.371 84.1415 972.834 86.0524C965.475 89.9698 957.148 94.3649 951.122 89.301C949.211 87.6768 948.349 86.0524 948.349 84.3326C948.349 81.7528 950.456 80.0329 952.464 78.4086C955.432 76.0199 956.766 74.6822 956.099 72.2936C955.432 69.7137 953.131 68.7582 949.407 67.4206L949.354 67.4033C945.061 65.8774 939.649 63.9539 938.404 56.8147C936.778 47.5465 948.829 42.4825 957.53 38.8517C960.978 37.4184 964.515 35.8897 965.662 34.7431C966.906 33.501 968.434 32.2588 969.963 31.0167C970.123 30.8856 970.292 30.7472 970.47 30.6034C972.194 29.1743 974.584 27.1942 974.842 26.2393L974.753 26.1438C973.936 25.4202 971.492 25.2103 969.368 25.0278L969.012 24.9972L968.994 24.996C964.977 24.7095 959.538 24.3214 958.685 19.2643C958.205 16.3979 958.49 14.4869 958.774 13.0536L958.801 12.8863C958.978 11.4882 959.032 11.0042 958.303 9.9006C957.725 8.94511 957.148 7.98962 956.677 7.03414C956.295 6.17421 955.619 4.83654 955.139 4.35879C954.953 4.45403 954.766 4.64421 954.473 4.92932V4.93099V4.93176V4.93208C952.846 6.65194 919.563 40.7627 903.211 50.3175C888.517 58.8961 885.721 65.3829 882.764 72.244L882.742 72.2936L882.168 73.5356C881.607 74.7288 881.251 75.6641 880.95 76.4553C880.842 76.7412 880.74 77.0084 880.639 77.262C879.108 81.2751 878.63 81.7528 871.457 88.2501C870.213 89.301 870.213 89.8747 870.213 89.8747C870.405 90.9253 875.283 92.9315 876.909 93.6011L877.029 93.65C881.217 95.3613 886.361 97.4625 884.655 101.627C883.52 104.462 881.075 105.988 878.061 107.871L877.96 107.933L877.865 107.993C874.431 110.185 869.784 113.151 864.667 119.494C860.554 124.559 859.788 129.049 859.215 132.68C858.545 137.17 857.78 141.757 850.512 142.426C846.028 142.892 842.822 140.717 840.18 138.923L839.991 138.795C835.878 135.929 833.105 134.018 825.74 141.661C820.994 146.496 819.054 150.699 817.368 154.355L817.228 154.656C813.881 162.014 811.299 166.122 797.24 166.791C791.023 167.077 786.815 166.886 783.754 166.695C776.772 166.313 776.198 166.313 768.164 173.766C755.923 184.945 754.584 186.665 755.062 199.563C755.439 209.1 746.199 211.918 739.337 214.012L739.089 214.087C736.699 214.756 732.778 215.902 732.395 216.858C732.395 216.858 732.395 216.953 732.491 217.145L732.873 218.1C735.934 226.604 737.751 232.336 734.69 235.299C732.204 237.687 728.283 236.063 727.039 235.49C718.622 231.859 710.876 225.648 704.085 217.049C699.208 210.743 688.113 213.8 683.618 215.425C682.853 215.711 682.374 215.902 682.087 216.093L682.118 216.155C682.795 217.504 683.98 219.87 682.661 223.164C681.418 226.317 677.592 229.184 672.524 230.904C667.55 232.528 662.864 232.528 659.995 230.808C659.472 230.481 658.994 230.155 658.56 229.859C658.359 229.722 658.168 229.591 657.986 229.47L657.94 229.439C655.684 227.937 655.156 227.585 646.987 231.381C642.01 233.731 638.917 234.2 636.492 234.568C636.354 234.588 636.218 234.609 636.084 234.63L635.921 234.655C632.944 235.119 630.726 235.464 625.372 239.311C622.148 241.612 618.747 244.8 615.766 247.593L615.426 247.911L615.317 248.01C609.463 253.387 606.802 255.831 604.236 254.217C601.845 252.784 602.705 249.44 603.758 246.286C605.384 241.413 608.922 235.681 612.748 229.565L612.826 229.44C619.214 219.152 626.41 207.564 622.886 201.379C616.669 190.295 611.505 190.391 607.679 191.729C601.462 193.831 594.289 191.633 589.221 185.996C588.455 185.232 587.881 184.563 587.403 183.894C587.02 183.416 586.542 182.843 586.16 182.461C586.114 182.518 586.06 182.582 586 182.656C585.563 183.188 584.755 184.17 583.577 186.187C582.398 188.272 581.476 190.701 580.486 193.312L580.325 193.735L580.237 193.972C577.485 201.272 574.374 209.528 563.589 211.985C550.869 214.947 540.443 219.342 534.226 224.406C532.402 225.796 531.129 228.842 529.764 232.112C529.679 232.315 529.593 232.519 529.507 232.724L529.462 232.833C529.424 232.922 529.387 233.011 529.349 233.101L529.262 233.312C526.6 239.773 523.325 247.722 514.716 247.911H508.786C503.908 247.911 498.266 247.911 497.022 249.249C496.926 249.344 496.735 249.535 496.831 250.395C496.878 250.729 496.902 251.064 496.926 251.398C496.95 251.733 496.974 252.068 497.022 252.402C497.596 258.039 498.17 263.486 503.526 270.174C511.081 279.729 514.716 294.538 506.395 302.851C504.673 304.667 502.856 305.24 501.134 304.762C497.839 303.727 496.861 299.267 495.372 292.474L495.301 292.149L495.2 291.695C493.785 285.277 492.053 277.427 488.223 273.04C485.163 269.505 483.442 267.02 482.293 265.301L482.29 265.295C481.813 264.628 481.336 263.962 481.05 263.581C480.755 263.639 480.242 263.844 479.645 264.082C479.274 264.229 478.871 264.39 478.468 264.536L478.181 264.632C476.364 265.396 474.833 265.396 473.399 264.727C471.582 263.868 470.721 262.147 470.243 260.619C468.139 263.581 466.608 265.014 465.461 266.065L465.367 266.159C463.809 267.714 463.147 268.375 462.209 273.995C461.731 276.862 460.87 280.111 459.913 283.455L459.766 283.986C457.602 291.778 455.225 300.338 459.339 303.234L459.531 303.329L459.541 303.337C467.286 308.781 476.936 315.566 473.973 329.318C473.781 330.465 473.016 333.618 470.434 334.286C467.757 334.955 465.652 332.471 463.261 329.604C461.635 327.502 459.053 324.445 457.427 324.54C456.758 324.636 455.896 325.4 455.036 326.738C454.175 328.076 453.41 329.318 452.645 330.56C446.428 340.879 442.603 347.09 429.691 347.09C421.466 347.09 405.685 344.51 404.442 338.204C403.868 335.433 405.876 333.045 410.275 331.134C414.06 329.55 417.765 328.858 421.089 328.237L421.09 328.236C421.377 328.183 421.663 328.129 421.944 328.076L422.163 328.038C430.171 326.627 435.55 325.679 438.299 314.221C440.129 306.451 441.171 299.818 442.179 293.402V293.401V293.4L442.316 292.532C443.559 283.933 444.802 275.811 447.862 266.448C449.967 259.854 451.975 256.033 453.219 253.739C453.315 253.596 453.386 253.429 453.458 253.261C453.53 253.094 453.601 252.927 453.697 252.784C453.315 252.593 452.836 252.402 452.453 252.307C451.172 251.826 450.025 251.347 449.012 250.922H449.011C448.815 250.839 448.623 250.76 448.436 250.682C444.324 248.866 444.228 248.962 443.559 250.109C443.014 251.016 442.556 252.009 442.019 253.171L441.933 253.357L441.839 253.555C440.033 257.356 437.623 262.427 431.795 267.498C425.196 273.232 423.092 277.913 423.57 286.035V286.036C423.666 287.755 423.761 289.475 423.953 291.386L423.972 291.629C424.635 299.851 425.257 307.572 421.752 311.546C419.362 314.317 416.971 314.221 415.728 313.935C412.667 313.266 410.275 309.826 408.841 304.38C407.311 298.456 401.19 288.71 394.877 283.933C392.296 282.022 390 281.257 388.183 281.831C386.174 282.404 385.123 284.506 384.549 286.13C382.731 291.386 378.045 295.685 374.124 295.685C371.637 295.685 369.724 294.157 368.863 291.577C367.333 287.372 359.777 284.411 353.943 284.411C353.343 284.411 352.769 284.436 352.222 284.461H352.221C351.721 284.484 351.243 284.506 350.788 284.506C345.909 284.793 342.945 284.602 338.832 279.155C338.232 278.357 337.772 277.697 337.386 277.144L337.385 277.143L337.384 277.14L337.383 277.139C337.216 276.9 337.063 276.681 336.919 276.48C336.79 276.303 336.675 276.146 336.572 276.006C335.839 275.002 335.724 274.843 335.389 274.76C334.609 274.501 332.73 274.398 329.825 274.239H329.824L329.783 274.236L329.734 274.233L329.718 274.232C329.449 274.218 329.172 274.202 328.886 274.187H328.216C324.395 274.001 319.938 275.357 315.643 276.664L315.304 276.766L314.865 276.898C307.928 278.961 300.871 281.059 296.75 276.193C293.02 271.798 291.585 267.881 292.446 264.632C292.924 263.008 294.168 260.714 297.802 259.377C303.445 257.37 304.975 255.363 303.923 251.351C303.732 250.682 303.54 250.3 303.445 250.109C302.202 250.3 298.759 252.975 295.698 255.363C295.029 255.92 294.328 256.445 293.593 256.994L293.591 256.996C293.066 257.388 292.525 257.792 291.968 258.23C288.238 261.097 286.325 264.154 284.508 267.212L284.481 267.255C281.812 271.541 279.032 276.004 271.597 276.671C268.727 276.958 266.814 276.48 265.475 275.334C263.897 274.034 263.761 272.105 263.666 270.77L263.658 270.652V270.651C263.658 270.365 263.658 269.887 263.562 269.6C263.18 269.505 261.937 269.409 258.78 270.174C252.66 271.702 249.695 274.187 247.686 275.906C246.252 277.149 244.817 278.295 242.904 277.914C240.895 277.531 239.843 275.525 238.792 273.327C238.19 272.051 237.649 270.775 237.165 269.638C237.068 269.407 236.972 269.183 236.879 268.964L236.783 268.741C236.018 266.925 234.966 264.44 234.297 263.581C234.28 263.598 234.257 263.617 234.23 263.64L234.192 263.672C234.058 263.784 233.842 263.963 233.627 264.25C233.053 265.014 232.383 265.874 231.618 266.829L231.527 266.947C228.692 270.63 226.036 274.081 222.724 273.136C219.568 272.276 218.612 267.881 218.133 263.677C217.092 254.881 221.204 250.017 224.812 245.75L224.923 245.618C227.793 242.369 230.184 239.598 230.375 235.107C230.758 225.648 234.201 223.833 236.305 223.546C238.409 223.355 242.33 224.311 245.2 234.057C248.738 246.191 255.528 253.453 263.754 253.835C267.771 254.026 271.405 252.498 273.796 249.535C275.9 246.956 276.665 243.515 275.9 240.458C275.327 238.261 274.561 235.394 273.605 232.145C271.022 223.355 267.675 211.411 266.24 203.386C265.837 201.046 265.638 198.978 265.47 197.24V197.235C265.439 196.917 265.409 196.611 265.38 196.315L265.377 196.292C264.806 190.389 264.704 189.339 259.928 188.575C250.555 187.047 245.295 186.951 243 190.391C242.139 191.729 241.565 193.353 241.087 194.977L241.083 194.991C239.936 198.715 238.496 203.388 231.714 205.679C226.401 207.48 225.417 209.187 223.627 212.292L223.585 212.367C222.915 213.609 222.054 215.043 220.906 216.571C218.969 219.152 216.408 220.666 213.912 222.142L213.638 222.304L213.409 222.44C209.955 224.49 206.706 226.418 204.648 230.999C202.83 234.916 202.448 236.923 202.256 238.261C201.874 240.458 201.396 241.605 198.622 242.943C196.518 243.898 194.605 243.802 193.362 243.707V262.816L149.271 262.625C150.515 265.014 151.663 268.167 151.185 271.225C150.802 273.613 149.462 275.62 147.263 276.958C143.202 279.505 139.235 278.326 135.729 277.284L135.595 277.244L135.462 277.204C131.398 275.976 127.506 274.8 122.492 278.486C110.919 286.895 104.033 297.883 104.798 306.386C105.085 309.157 105.564 311.45 106.042 313.744L106.05 313.78C107.385 319.975 108.517 325.223 102.599 332.567C99.7611 336.063 99.075 340.961 98.4129 345.689L98.3907 345.848L98.372 345.973C97.5171 351.859 96.6265 357.991 90.6435 359.224C86.9135 359.989 84.3312 359.415 82.7052 358.938C80.8881 358.46 80.5056 358.365 78.3058 361.613C76.7521 363.804 76.7704 364.774 76.7751 365.023V365.024C76.7753 365.034 76.7755 365.045 76.7755 365.053C76.8712 365.531 77.9232 366.295 78.9753 366.964L79.0105 366.988C80.2474 367.843 81.7605 368.89 82.9922 370.5C83.719 371.387 84.5822 372.001 85.4667 372.632C85.6297 372.748 85.7934 372.865 85.9571 372.984C88.635 374.704 92.2694 377.092 89.1132 384.259C85.8614 391.806 83.4704 405.184 88.5394 411.681C89.3045 412.636 106.52 434.899 103.842 445.409C102.408 451.047 97.8166 458.308 91.9824 461.365C89.0176 462.895 85.957 463.181 83.0878 462.13C81.9116 461.673 80.7801 461.172 79.7542 460.716C79.2785 460.506 78.8256 460.305 78.4014 460.123L78.2813 460.071C73.7736 458.1 71.6755 457.183 68.1678 459.646C66.255 461.079 65.6811 462.13 65.0117 463.372C63.5771 466.143 61.9512 468.245 55.2563 469.678C51.4939 470.503 47.3792 470.185 43.7573 469.904L43.3012 469.87L43.0212 469.847L42.7276 469.823H42.7268C40.3279 469.625 36.9303 469.347 36.2237 469.965V470.156C36.2237 470.442 36.3194 471.016 36.702 472.163C37.3714 474.265 38.3278 477.417 39.4755 481.335C43.6837 495.954 50.9524 520.51 60.134 529.013L62.1424 530.924L62.2618 531.034C73.3902 541.297 81.4738 548.751 84.8094 564.08C85.7652 568.507 86.3264 572.461 86.7796 575.655C86.8252 575.977 86.8697 576.291 86.9135 576.597C87.9655 584.049 88.5394 587.107 91.2173 588.158C93.1303 588.922 94.9477 588.254 96.0951 587.489C98.1987 586.056 99.634 583.668 99.7291 582.138C99.8251 581.088 99.634 579.463 99.442 577.839L99.4127 577.539C98.9381 572.815 98.3587 567.044 101.355 562.647C102.288 561.327 103.219 560.323 104.049 559.429L104.157 559.314L104.276 559.185L104.31 559.148C104.412 559.038 104.51 558.931 104.607 558.824C106.902 556.436 107.954 555.289 106.998 550.703L106.902 550.13C104.989 541.244 105.659 539.046 117.136 535.893C120.005 535.129 123.161 534.651 126.126 534.269C135.595 532.931 141.524 531.689 142.959 525.096C143.533 522.614 144.01 520.704 144.393 519.176V519.175L144.394 519.172C145.637 514.109 145.637 514.108 143.629 509.999C143.396 509.477 143.128 508.99 142.868 508.516C142.7 508.211 142.536 507.911 142.385 507.61C139.708 502.738 136.934 497.674 143.342 490.986C144.202 490.031 145.252 488.885 146.304 487.74L146.306 487.737C153.097 480.284 158.262 475.029 162.948 475.793C164.287 475.984 166.105 476.749 167.252 479.425C168.399 482.004 169.93 485.348 170.982 485.73C171.46 485.826 172.512 485.826 174.999 484.583C176.183 484.077 177.517 482.972 178.933 481.798C179.119 481.645 179.306 481.49 179.494 481.335L179.508 481.323C184.958 476.738 192.321 470.544 205.03 477.227C212.406 481.051 217.321 487.698 222.088 494.145L222.437 494.616L222.453 494.639C227.708 501.797 232.678 508.569 240.321 510.955C254.668 515.541 263.18 521.656 269.97 526.625C270.375 526.908 270.761 527.19 271.138 527.465C271.653 527.842 272.151 528.205 272.648 528.535C276.283 531.115 279.152 530.256 280.491 529.587C282.212 528.727 283.169 527.198 283.169 526.242C283.169 525.841 282.627 525.235 282.056 524.599L282.048 524.59L282.039 524.579C281.984 524.518 281.929 524.457 281.875 524.395C281.849 524.367 281.823 524.337 281.798 524.309L281.734 524.236C278.769 520.988 276.187 516.974 282.595 509.999C286.116 506.103 288.973 504.286 291.074 502.95H291.075L291.107 502.929C293.785 501.209 294.168 500.922 293.976 498.152C293.891 496.793 293.58 495.359 293.31 494.118L293.257 493.871L293.211 493.66L293.197 493.592C292.628 490.75 292.08 488.01 294.072 486.304C296.08 484.583 299.141 485.253 303.54 487.068C314.157 491.367 325.825 494.138 348.301 493.375C369.533 492.705 379.097 496.336 383.687 506.847L384.357 508.471L384.465 508.713C387.888 516.41 392.1 525.879 400.808 527.676C404.39 528.41 408.15 527.733 411.747 527.086H411.748L412.189 527.007C412.424 526.968 412.661 526.928 412.898 526.887L413.202 526.835C415.182 526.496 417.211 526.147 419.171 526.147C422.901 526.147 426.535 527.294 428.83 531.784C430.552 535.224 432.464 540.957 434.569 547.645C437.821 557.869 442.316 571.819 446.715 574.876C449.202 576.597 453.793 577.169 458.67 577.743C467.565 578.794 478.659 580.132 485.354 589.304C491.953 598.19 504.769 612.236 517.394 606.886C521.124 605.261 525.906 602.108 530.879 598.668L531.412 598.31C542.945 590.563 555.8 581.929 565.501 586.916C578.7 593.699 601.749 598.095 606.34 593.127C608.253 591.119 607.966 588.445 607.297 584.431C606.435 579.367 605.479 573.157 611.601 567.806C616.478 563.506 623.556 561.404 630.92 562.073C637.519 562.647 643.544 565.513 646.892 569.622C647.848 570.864 648.709 572.011 649.57 573.157L649.645 573.261C654.29 579.605 657.387 583.836 670.324 579.845C674.34 578.603 677.305 577.552 679.697 576.692C688.304 573.539 690.505 572.966 702.46 576.978C719.292 582.616 732.873 580.514 744.063 570.577C747.985 567.138 750.279 564.367 752.097 562.169C756.974 556.149 759.461 554.047 773.808 552.996C793.892 551.563 797.526 551.277 798.769 536.849C799.63 527.198 799.918 520.223 799.726 514.968C799.343 506.464 797.718 505.508 797.718 505.508C795.039 504.745 791.883 502.452 791.501 498.533C791.118 493.375 795.9 488.119 805.943 483.055C824.115 473.882 833.966 471.494 848.12 480.284C852.992 483.258 856.843 487.678 860.555 491.939L860.914 492.351L861.224 492.705L861.333 492.833C867.222 499.665 872.756 506.086 881.69 506.655C886.992 506.92 891.313 506.614 895.186 506.34C895.506 506.317 895.817 506.295 896.136 506.273L896.27 506.262C903.477 505.694 909.076 505.252 914.684 509.809C917.653 512.197 919.563 513.248 920.808 513.057C922.336 512.866 924.06 510.573 926.451 507.038C926.895 506.4 927.34 505.678 927.793 504.956C928.015 504.595 928.237 504.235 928.46 503.884C932.859 497.005 937.453 489.934 942.617 489.934H942.706C944.243 490.03 946.536 490.699 948.349 493.756C948.731 494.425 949.114 495.094 949.594 495.859L949.647 495.95C955.592 505.717 966.595 523.799 959.067 536.944L957.53 539.62C953.131 547.263 952.464 548.41 948.163 547.932C948.038 547.917 947.905 547.898 947.772 547.88C947.069 547.782 946.207 547.661 945.008 547.741C943.87 547.828 943.212 547.996 942.813 548.097L942.706 548.123C942.999 548.792 943.861 550.13 946.252 552.04C947.007 552.713 947.985 553.311 949.051 553.966L949.078 553.981L949.3 554.113L949.496 554.238L949.567 554.28C955.121 557.724 964.391 563.471 956.961 578.317C956.721 578.818 956.499 579.283 956.294 579.717L956.286 579.72V579.722V579.734L956.277 579.749C955.735 580.874 955.29 581.794 954.952 582.616C955.619 581.947 956.383 581.088 957.245 580.132C958.356 578.873 959.361 577.499 960.374 576.098C960.667 575.693 960.96 575.285 961.262 574.876C964.515 570.29 967.955 565.513 973.411 564.08C978.379 562.838 979.819 561.978 982.69 550.13C985.267 539.046 988.235 491.75 980.779 468.245C973.598 445.504 969.963 438.625 960.312 425.44C957.219 421.081 954.908 416.982 952.873 413.388L952.562 412.827L952.5 412.723C950.136 408.375 948.234 404.879 945.772 402.699C944.243 401.361 942.617 400.406 940.511 400.024L938.884 399.737C938.662 399.698 938.422 399.655 938.155 399.609C937.889 399.562 937.605 399.511 937.311 399.457C935.045 399.051 931.917 398.492 929.037 398.113C928.948 398.106 928.868 398.1 928.788 398.094ZM927.313 282.5C925.429 284.476 923.447 286.825 921.474 289.451C921.723 289.809 921.901 290.047 921.954 290.047C922.621 290.143 919.466 315.272 913.822 342.217C910.392 358.712 905.966 375.889 902.74 388.445V388.446V388.448L902.731 388.453V388.46V388.462V388.463V388.471C900.838 395.83 899.354 401.598 898.714 404.706C898.429 406.217 899.736 408.663 900.509 410.104L900.536 410.152C900.625 410.438 900.722 410.534 900.82 410.629C905.122 413.687 909.619 414.261 911.725 413.305C912.009 413.161 912.294 413.042 912.587 412.922C912.871 412.803 913.156 412.683 913.44 412.54L913.76 412.392L913.964 412.3C916.648 411.052 919.208 409.863 919.661 408.336C920.043 407.19 919.563 405.565 918.417 403.367C918.372 403.283 918.31 403.18 918.248 403.074C918.168 402.941 918.088 402.805 918.035 402.699C916.311 399.833 916.124 397.444 917.457 395.533C920.23 391.52 928.557 392.762 939.844 394.96L941.471 395.246C946.154 396.107 949.309 398.686 951.895 402.221C953.486 404.233 954.864 406.687 956.339 409.325V409.326V409.327V409.328V409.329C956.543 409.696 956.748 410.065 956.961 410.438C958.97 414.069 961.262 418.178 964.417 422.477C974.273 436.045 978.29 443.402 985.649 466.716C993.301 490.986 990.342 539.811 987.569 551.277C984.698 563.219 982.787 566.755 974.753 568.857C971.065 569.802 968.399 573.455 965.386 577.602L965.279 577.743C963.937 579.654 962.604 581.565 960.978 583.381C953.673 591.818 951.255 590.285 950.198 589.607L950.171 589.591C947.78 587.967 948.349 584.527 952.562 576.119C957.876 565.307 952.642 562.026 947.043 558.521L946.918 558.442C945.479 557.583 944.243 556.722 943.088 555.863C938.689 552.327 936.974 549.174 937.836 546.499C938.6 544.206 940.991 542.963 944.812 542.868C946.403 542.785 947.558 542.921 948.394 543.02C948.518 543.034 948.625 543.048 948.731 543.059C948.891 543.059 949.078 543.088 949.247 543.114C949.389 543.136 949.514 543.155 949.594 543.155C950.082 542.668 951.122 540.876 952.473 538.537V538.533L952.5 538.489C952.731 538.085 952.98 537.664 953.228 537.231L954.757 534.556C960.854 523.901 950.829 507.562 945.363 498.65L945.292 498.533C945.105 498.231 944.91 497.942 944.732 497.663V497.662L944.723 497.661V497.659C944.448 497.237 944.181 496.834 943.95 496.431C943.763 495.953 943.088 494.999 942.519 494.999C940.031 494.999 935.152 502.547 932.574 506.655C932.139 507.244 931.748 507.863 931.357 508.461V508.463C931.055 508.933 930.761 509.388 930.468 509.809C927.598 514.013 925.109 517.356 921.474 517.93C918.035 518.408 914.684 516.115 911.529 513.63C907.414 510.286 903.309 510.573 896.519 511.146C892.498 511.529 887.525 511.911 881.403 511.529C870.366 510.863 863.873 503.294 857.591 495.972L857.494 495.859C853.859 491.654 850.033 487.259 845.539 484.392C834.253 477.322 826.889 477.895 808.238 487.354C797.048 493.088 796.475 497.005 796.57 498.056C796.666 499.394 798.005 500.35 799.248 500.731C804.795 502.356 806.038 512.292 803.839 537.231C802.214 555.848 794.096 556.435 774.335 557.865L774.286 557.869C761.278 558.824 760.035 560.258 756.018 565.227L755.879 565.393L755.738 565.562L755.655 565.662C753.801 567.891 751.453 570.713 747.506 574.208C735.072 585.292 719.483 587.776 701.024 581.66C690.313 578.125 689.165 578.508 681.514 581.279C680.936 581.478 680.328 581.693 679.682 581.922C677.549 582.676 675.011 583.573 671.855 584.527C655.594 589.467 650.584 582.695 645.732 576.137L645.649 576.023C644.883 574.876 644.022 573.73 643.162 572.679C640.579 569.526 635.893 567.424 630.538 566.946C624.512 566.468 618.774 568.092 614.852 571.533C610.754 575.056 611.404 578.959 612.167 583.525L612.174 583.572L612.176 583.584V583.585C612.845 587.786 613.605 592.557 609.974 596.47C602.227 604.783 575.065 597.331 563.206 591.215C556.033 587.489 544.078 595.515 533.653 602.681C533.319 602.906 532.986 603.13 532.655 603.354C532.411 603.519 532.167 603.683 531.924 603.847L531.889 603.87L531.871 603.883C527.291 606.978 523.035 609.852 519.306 611.376C516.82 612.523 514.333 613 511.655 613C501.9 613 491.475 605.93 481.433 592.267C476.021 584.963 466.651 583.779 458.374 582.735L458.192 582.712L457.73 582.656C452.353 582.009 447.289 581.4 443.941 578.986C438.203 574.972 433.995 561.882 429.978 549.174C429.801 548.626 429.625 548.08 429.451 547.539C427.65 541.955 426.009 536.865 424.526 534.078C422.71 530.542 419.936 530.638 413.145 531.88L413.116 531.885C409.106 532.649 404.621 533.502 399.947 532.549C388.566 530.256 383.592 518.886 379.957 510.477L379.288 508.853C376.132 501.687 370.107 497.674 348.587 498.342C325.251 499.107 313.009 496.24 301.819 491.75C299.619 490.89 298.376 490.508 297.706 490.412C297.802 491.081 297.994 491.941 298.185 492.705C298.567 494.234 298.95 495.954 299.045 497.865C299.425 503.561 297.067 505.107 294.035 507.094L293.976 507.133C291.968 508.375 289.576 509.999 286.421 513.344C282.544 517.594 283.528 518.67 285.491 520.817L285.56 520.892L285.594 520.928C286.831 522.259 288.333 523.876 288.333 526.242C288.333 529.3 286.229 532.358 282.978 533.982C278.961 536.084 274.274 535.51 270.066 532.549C269.568 532.217 269.072 531.854 268.556 531.478C268.179 531.203 267.792 530.92 267.388 530.638L267.212 530.511C260.369 525.574 252.639 519.996 239.174 515.732C229.993 512.866 224.254 505.031 218.803 497.578L218.738 497.49C214.262 491.401 209.589 485.045 203.117 481.622C193.349 476.6 188.188 480.881 183.159 485.052L183.033 485.157C182.872 485.285 182.713 485.413 182.555 485.54C180.829 486.924 179.237 488.2 177.486 489.074C174.903 490.317 172.225 491.367 169.643 490.412C166.774 489.361 165.243 486.304 163.14 481.431C162.948 481.049 162.757 480.666 162.566 480.666C160.273 480.284 153.4 487.815 150.429 491.07L150.428 491.071L150.419 491.081C149.979 491.558 149.566 492.02 149.171 492.464C148.537 493.176 147.948 493.836 147.359 494.425C143.491 498.383 144.555 500.389 147.062 505.119L147.168 505.317C147.55 506.177 148.028 507.037 148.505 507.896L148.506 507.897C151.28 513.439 151.185 514.299 149.654 520.414C149.564 520.775 149.468 521.153 149.367 521.551C149.04 522.838 148.658 524.345 148.219 526.242C145.828 536.562 135.978 537.995 127.274 539.237C124.501 539.62 121.536 540.097 118.953 540.766C116.658 541.339 112.449 542.581 111.684 543.633C111.235 544.35 111.63 546.25 112.156 548.776C112.189 548.938 112.224 549.103 112.258 549.269L112.354 549.843C113.775 556.938 111.351 559.537 108.797 562.277L108.719 562.36C107.763 563.315 106.807 564.271 105.946 565.608C104.009 568.465 104.474 573.189 104.853 577.035L104.894 577.456C105.085 579.272 105.277 581.088 105.181 582.52C104.989 585.865 102.599 589.687 99.251 591.789C96.2862 593.699 92.9389 594.082 89.8784 592.84C84.4365 590.741 83.6645 585.406 82.5201 577.499L82.514 577.456C82.0358 574.017 81.4619 570.099 80.4098 565.322C77.4699 551.489 70.2981 544.89 59.5471 534.999L59.2732 534.747L57.2647 532.836C47.0312 523.377 39.5711 498.056 35.1717 482.864C34.7898 481.623 34.429 480.437 34.093 479.33L34.0883 479.315L34.0828 479.298L34.0799 479.288L34.0777 479.281L34.0771 479.279C33.4102 477.084 32.8412 475.211 32.3981 473.882L32.3851 473.843C31.9904 472.662 30.8891 469.364 32.7806 466.907C34.9379 464.189 39.027 464.505 43.875 464.879L44.1619 464.901C47.5093 465.188 51.4307 465.474 54.5868 464.805C59.5601 463.658 60.134 462.703 60.9948 460.984C61.7599 459.55 62.8119 457.639 65.5855 455.633C71.332 451.492 75.5939 453.376 80.4733 455.533L80.6968 455.633C81.0058 455.765 81.3199 455.902 81.6402 456.042C82.7081 456.509 83.8456 457.007 85.0963 457.448C86.6266 458.021 88.2524 457.926 89.974 456.97C94.3736 454.677 98.1987 448.658 99.3469 444.071C100.685 438.912 93.0343 425.057 84.905 414.643C78.2102 406.043 81.175 390.564 84.8094 382.252C86.244 379.003 85.7658 378.621 83.4704 377.092L83.4322 377.066C82.1958 376.211 80.6831 375.165 79.3579 373.556C78.7457 372.716 77.8888 372.119 77.0319 371.524C76.8176 371.374 76.6034 371.225 76.393 371.072C74.6714 369.926 72.663 368.493 72.1848 366.009C71.8022 364.002 72.5674 361.804 74.4802 358.938C78.0188 353.779 80.5056 353.396 84.2355 354.352C84.3014 354.369 84.3675 354.387 84.4339 354.405L84.4466 354.408C85.8225 354.778 87.3313 355.184 89.8784 354.638C92.2694 354.065 92.8432 351.39 93.7044 345.37C94.3736 340.115 95.2339 334.286 98.9639 329.604C103.444 324.081 102.699 320.646 101.463 314.947L101.451 314.891C101.411 314.702 101.372 314.513 101.331 314.322L101.33 314.311L101.329 314.306C100.878 312.161 100.375 309.76 100.112 306.96C98.9639 294.634 109.581 282.213 119.814 274.664C126.796 269.505 132.63 271.225 137.221 272.658C140.664 273.709 142.672 274.282 144.776 272.945C145.828 272.371 146.306 271.607 146.497 270.556C146.976 267.498 144.011 263.103 142.959 261.766L139.612 257.752L188.58 258.039V243.325C188.58 242.847 188.58 241.127 189.823 239.981C191.066 238.834 192.597 238.929 193.84 239.025C194.796 239.12 195.753 239.216 196.71 238.739C197.188 238.548 197.379 238.452 197.475 238.357C197.475 238.261 197.498 238.141 197.522 238.022C197.546 237.902 197.57 237.783 197.57 237.687C197.761 236.255 198.239 233.77 200.248 229.28C202.926 223.164 207.517 220.488 211.247 218.386L211.36 218.318L211.612 218.168C213.842 216.834 215.715 215.714 216.985 213.991C217.885 212.846 218.506 211.772 219.086 210.767C219.183 210.597 219.28 210.43 219.377 210.265C221.384 206.729 223.107 203.768 230.184 201.379C234.653 199.954 235.435 197.397 236.478 193.986L236.496 193.926C236.532 193.808 236.567 193.689 236.603 193.568L236.608 193.552C237.148 191.744 237.731 189.789 238.983 188.002C243.478 181.314 253.042 182.843 260.789 184.085C269.333 185.508 269.773 190.13 270.34 196.086L270.353 196.22C270.372 196.408 270.391 196.599 270.41 196.794C270.585 198.567 270.782 200.573 271.214 202.812C272.553 210.552 275.9 222.4 278.386 231.095C279.344 234.343 280.109 237.209 280.682 239.407C281.83 243.993 280.778 249.058 277.622 252.879C274.274 256.988 269.11 259.282 263.562 258.995C253.138 258.517 244.721 250.013 240.513 235.681C239.078 230.808 237.549 229.184 236.974 228.802C236.591 229.28 235.54 231.095 235.348 235.585C235.062 241.796 231.714 245.713 228.749 249.153L228.728 249.178C225.294 253.18 222.342 256.62 223.107 263.39C223.393 266.352 223.871 267.689 224.158 268.359C225.033 267.723 226.239 266.161 227.226 264.884C227.425 264.625 227.616 264.379 227.793 264.154C228.462 263.199 229.227 262.243 229.993 261.384L230.001 261.374C230.678 260.601 232.585 258.423 235.157 258.804C238.122 259.282 239.556 262.53 241.47 267.116C241.634 267.5 241.798 267.9 241.968 268.31L241.969 268.313L241.972 268.32L241.975 268.328L241.976 268.33L241.977 268.333C242.395 269.347 242.841 270.43 243.382 271.511C243.573 271.989 243.765 272.371 243.956 272.658C244.057 272.709 244.105 272.732 244.155 272.743C244.173 272.748 244.191 272.749 244.212 272.751C244.224 272.752 244.235 272.753 244.249 272.753C244.274 272.754 244.303 272.754 244.338 272.754C244.481 272.637 244.629 272.512 244.784 272.383C247.025 270.511 250.667 267.471 257.824 265.683C262.319 264.536 264.997 264.632 266.814 265.97C268.578 267.268 268.72 269.287 268.814 270.627L268.823 270.747C268.865 270.961 268.89 271.212 268.911 271.443C268.937 271.727 268.961 271.979 269.014 272.085C269.014 272.085 269.397 272.276 270.353 272.276C270.487 272.276 270.64 272.256 270.805 272.233C270.995 272.208 271.2 272.18 271.405 272.18C276.474 271.702 278.004 269.218 280.587 265.014C282.403 261.956 284.795 258.039 289.29 254.695C290.107 254.112 290.853 253.529 291.571 252.967C292.029 252.609 292.477 252.26 292.924 251.924C298.854 247.338 302.106 244.854 305.358 245.904C307.94 246.764 308.705 249.631 308.896 250.586C311.478 260.236 302.871 263.39 299.715 264.536C298.472 265.014 297.706 265.683 297.515 266.448C297.036 267.976 298.28 270.652 300.766 273.518C302.8 275.918 307.956 274.394 313.564 272.738L314.157 272.562L314.241 272.537C318.999 271.111 324.035 269.602 328.694 269.791H329.364L329.659 269.805C337.519 270.174 338.578 270.224 341.223 274.282L341.283 274.366L341.345 274.454C341.443 274.595 341.543 274.74 341.646 274.891L341.653 274.902L341.655 274.904C342.01 275.421 342.406 275.999 342.944 276.671C345.622 280.302 346.579 280.302 350.692 280.111C351.138 280.111 351.625 280.09 352.144 280.068H352.145H352.145H352.146H352.147C352.741 280.042 353.376 280.015 354.038 280.015C361.881 280.015 371.35 283.933 373.646 290.525C373.933 291.29 374.124 291.29 374.219 291.29C375.654 291.29 378.714 288.71 379.957 285.079C381.297 281.257 383.783 278.677 386.844 277.722C389.235 276.958 393.061 276.862 397.938 280.588C405.207 286.035 411.998 296.927 413.719 303.711C414.867 307.916 416.397 309.635 416.971 309.731C417.066 309.731 417.544 309.54 418.118 308.87C420.223 306.386 419.649 298.647 419.075 292.436C419.025 291.489 418.948 290.515 418.874 289.555V289.553V289.55C418.805 288.674 418.738 287.81 418.693 286.991C418.214 277.34 420.892 271.225 428.639 264.44C433.804 259.95 435.812 255.65 437.534 251.924C438.108 250.682 438.681 249.44 439.351 248.293C442.316 243.23 446.715 245.14 450.541 246.86C450.675 246.916 450.811 246.974 450.949 247.032C451.088 247.091 451.228 247.15 451.369 247.211L451.37 247.212C452.286 247.603 453.27 248.023 454.366 248.388C456.758 249.249 458.288 249.822 458.957 251.542C459.531 253.166 458.861 254.6 457.714 256.702C456.566 258.804 454.653 262.434 452.645 268.645C449.776 277.627 448.532 285.557 447.289 293.966L447.169 294.74V294.741H447.168C446.155 301.283 445.108 308.041 443.176 316.037C439.637 330.656 431.126 332.184 422.901 333.618C419.458 334.191 415.919 334.86 412.284 336.388C410.467 337.153 409.797 337.726 409.511 338.013C410.945 339.924 420.509 342.886 429.786 342.886C439.905 342.886 442.401 338.793 448.496 328.804L448.532 328.745C448.953 328.115 449.373 327.428 449.809 326.714L449.81 326.712C450.168 326.127 450.536 325.525 450.923 324.923C452.645 322.152 454.749 320.623 457.14 320.432C461.184 320.15 464.395 323.934 467.048 327.058L467.182 327.216C467.328 327.386 467.486 327.574 467.652 327.771L467.653 327.772C468.14 328.352 468.691 329.01 469.191 329.509C469.191 329.497 469.193 329.483 469.195 329.467C469.199 329.444 469.206 329.419 469.214 329.391C469.218 329.377 469.222 329.363 469.226 329.348C469.253 329.255 469.286 329.143 469.286 329.032C471.483 318.534 464.331 313.471 456.787 308.127L456.758 308.107L456.566 308.011C449.492 303.14 452.546 292.351 455.224 282.895L455.227 282.881C455.443 282.065 455.665 281.261 455.883 280.473L455.884 280.47L455.885 280.469C456.533 278.124 457.141 275.926 457.427 273.995C458.574 266.925 459.818 265.587 462.209 263.294C462.278 263.226 462.348 263.156 462.419 263.087C462.467 263.04 462.515 262.993 462.563 262.946L462.668 262.844L462.674 262.837L462.693 262.819C463.666 261.872 464.868 260.703 466.417 258.421C467.757 256.606 469.286 254.6 471.486 254.981C473.606 255.258 474.216 257.219 474.685 258.73L474.737 258.899C474.929 259.568 475.408 260.81 475.695 261.097C475.695 261.097 475.981 261.097 476.46 260.906L476.746 260.81C482.006 258.612 483.346 258.517 486.598 263.294L486.727 263.479L486.92 263.753L486.934 263.773C488.062 265.377 489.641 267.622 492.24 270.652C496.926 276.097 498.84 284.889 500.369 291.959C500.411 292.146 500.452 292.337 500.495 292.53C501.144 295.508 501.953 299.212 502.761 300.558C502.777 300.542 502.795 300.526 502.817 300.509C502.848 300.485 502.883 300.46 502.922 300.433C503.015 300.367 503.127 300.288 503.239 300.176C509.934 293.488 505.343 280.875 499.891 274.091C493.674 266.257 493.005 259.568 492.431 253.739C492.382 253.442 492.358 253.12 492.333 252.785C492.31 252.474 492.286 252.151 492.24 251.829C492.049 249.727 492.527 248.102 493.674 246.764C496.273 243.798 501.393 243.8 508.51 243.802H509.169C509.8 243.802 510.432 243.813 511.069 243.824H511.075H511.076H511.077C512.362 243.845 513.661 243.866 515.003 243.802C520.071 243.707 522.367 239.12 525.141 232.145C526.862 227.846 528.488 223.833 531.453 221.444C538.339 215.902 549.147 211.22 562.824 208.068C571.144 206.157 573.536 199.754 576.022 192.971C577.074 190.104 578.222 187.143 579.752 184.563C582.047 180.741 583.96 178.448 586.351 178.257C588.724 178.067 590.156 179.854 591.673 181.749L591.707 181.792C592.185 182.365 592.759 183.034 593.333 183.702C597.063 187.716 602.323 189.436 606.531 188.002C614.66 185.136 621.547 189.053 627.668 199.85C632.617 208.599 624.968 220.944 617.541 232.929L617.434 233.101C613.895 238.738 610.643 244.089 609.114 248.293C609.639 247.816 610.213 247.29 610.787 246.764C611.007 246.562 611.227 246.362 611.444 246.163C611.64 245.984 611.833 245.808 612.023 245.634C612.137 245.531 612.249 245.428 612.36 245.328L612.461 245.236C615.617 242.274 619.252 238.929 622.886 236.255C629.181 231.654 632.338 231.205 635.622 230.737L635.797 230.712C638.189 230.426 640.675 230.043 645.266 227.941C655.021 223.355 657.126 223.642 661.143 226.413C661.716 226.795 662.29 227.177 662.959 227.559C664.49 228.515 667.933 228.324 671.376 227.177C674.914 226.03 677.879 224.024 678.549 222.304C679.027 221.157 678.74 220.584 678.166 219.438L678.125 219.353C677.645 218.399 676.943 216.999 677.592 215.329C678.357 213.418 680.366 212.558 682.47 211.794C694.139 207.59 703.607 208.736 708.484 214.947C714.797 222.877 721.875 228.61 729.526 231.859C730.864 232.432 731.534 232.528 731.821 232.528C732.327 230.841 730.375 225.284 729.186 221.9L729.057 221.533C729.007 221.388 728.958 221.248 728.911 221.113C728.858 220.961 728.808 220.817 728.761 220.679L728.378 219.725C727.708 217.909 728.091 216.38 728.57 215.52C729.978 212.706 733.784 211.549 738.085 210.243L738.324 210.17C745.784 207.972 751.045 205.966 750.854 200.519C750.375 185.423 753.053 182.461 765.582 170.899C774.573 162.586 776.389 162.109 784.806 162.491C787.771 162.682 791.788 162.873 797.813 162.586C809.481 162.014 810.724 159.338 813.498 153.318C815.22 149.401 817.515 144.528 822.967 138.891C832.531 129.049 837.983 131.438 843.625 135.355L843.638 135.364C846.024 136.985 848.126 138.412 850.894 138.126C854.242 137.744 854.433 136.884 855.198 132.488L855.233 132.282C855.898 128.381 856.814 123.018 861.606 117.01C867.154 110.152 872.24 106.897 875.954 104.518L876.144 104.398L876.327 104.281C878.336 103.004 879.8 102.073 880.543 101.054C879.794 100.529 878.28 99.8878 876.924 99.3133L876.92 99.3115C876.547 99.1534 876.186 98.9998 875.857 98.8559L875.575 98.7396C871.263 96.9625 866.852 95.1437 866.197 91.4031C865.814 89.301 866.77 87.199 869.066 85.1925C875.761 79.173 875.761 79.173 876.909 76.1154C876.952 76.0052 876.998 75.8911 877.045 75.7729L877.097 75.6407L877.099 75.6364C877.451 74.7522 877.891 73.644 878.534 72.198L879.108 70.9558L879.131 70.9035C882.28 63.6579 885.554 56.1232 901.584 46.6866C916.862 37.7115 949.274 4.7232 951.655 2.29899C951.735 2.21984 951.78 2.17327 951.798 2.16118C953.424 0.536866 955.05 -0.227519 956.677 0.0591255C959.343 0.440706 960.685 3.01286 961.929 5.39834V5.39891V5.40982C962.32 6.26976 962.791 7.12969 963.271 7.79853C965.048 10.5106 964.72 12.582 964.435 14.3709L964.417 14.4869C964.409 14.5632 964.4 14.6396 964.382 14.716L964.355 14.8891C964.178 16.0054 963.982 17.1872 964.329 18.9777C964.515 20.1242 966.808 20.4109 970.061 20.602C973.314 20.7931 976.664 21.0797 978.859 23.0862C980.299 24.4239 980.486 25.9527 980.486 26.9082C980.388 30.0612 977.331 32.5455 973.794 35.4119C972.354 36.5585 970.923 37.7051 969.776 38.8517C968.115 40.5114 965.013 41.8517 961.129 43.5298L960.445 43.8265L960.018 44.0113L959.885 44.0667C952.633 47.1184 942.91 51.2096 943.861 56.5281C944.625 60.6367 947.301 61.8788 951.7 63.4075L951.833 63.4541C955.539 64.7833 960.134 66.4304 961.547 71.6247C963.173 77.3576 959.067 80.7017 956.294 82.8994C955.432 83.4726 954.188 84.5237 953.993 85.0014C954.09 85.1925 954.286 85.5747 955.05 86.148C958.49 89.0142 964.995 85.6703 971.207 82.326L971.687 82.0768C975.171 80.243 978.726 78.3712 982.014 77.5487C985.56 76.5932 989 75.9244 991.204 78.0264C993.879 80.5106 993.017 85.0014 990.813 95.7032C988.235 108.22 993.683 123.125 997.318 132.966C997.487 133.446 997.647 133.908 997.807 134.353L997.825 134.398V134.405C998.189 135.451 998.518 136.405 998.847 137.266C999.789 139.976 1001 142.502 1002.03 144.668L1002.04 144.673V144.676L1002.1 144.815C1004.02 148.636 1005.35 151.503 1004.3 153.987C1003.73 155.325 1002.68 156.185 1001.05 156.663C996.652 158 987.951 166.504 989.195 184.467C990.43 202.143 995.79 213.036 1005.55 217.814C1008.99 219.533 1012.24 220.679 1015.11 221.635L1015.5 221.778C1020.87 223.717 1025.17 225.271 1026.02 229.375C1026.78 232.814 1031.66 238.357 1038.73 241.509C1046.48 245.045 1046.38 247.529 1045.9 258.326C1045.81 260.236 1045.72 262.53 1045.62 265.301C1045.34 277.158 1048.82 280.54 1052.14 283.766L1052.21 283.837C1053.46 284.984 1054.7 286.226 1055.76 287.85C1059.4 293.392 1064.18 308.775 1062.74 312.693C1062.55 313.552 1061.97 314.317 1061.11 314.699C1058.44 315.846 1052.69 314.604 1002.48 286.513L1000.38 285.365C986.547 277.646 981.188 252.813 977.268 234.67L977.233 234.534C976.282 229.948 975.42 226.03 974.558 223.164C967.004 196.889 960.498 181.122 955.432 176.536C952.18 173.575 950.553 173.097 949.976 173.001C949.887 173.479 949.691 174.912 950.651 178.066C951.504 181.314 953.806 185.9 956.001 190.295C961.076 200.424 964.035 206.825 961.547 210.456C958.312 215.308 953.273 213.15 947.94 210.868L947.878 210.839C945.959 209.978 943.861 209.118 941.471 208.259C940.413 207.877 940.031 208.163 939.844 208.45C936.591 211.698 937.64 227.655 943.568 242.465C947.301 251.733 949.407 253.835 950.74 255.077C952.66 256.988 953.326 258.23 953.513 262.912C953.806 268.836 951.122 274.473 946.536 277.34C942.706 279.729 938.307 279.824 934.29 277.627C934.29 277.627 934.281 277.624 934.263 277.62C934.005 277.55 932.272 277.089 927.313 282.5ZM456.519 177.827C456.375 177.707 456.231 177.588 456.088 177.492C454.845 176.441 453.697 176.345 452.932 176.441C450.828 176.632 449.298 178.448 447.767 180.263L447.682 180.368C446.078 182.35 444.281 184.568 441.838 184.85L441.455 184.754L440.976 185.137C440.403 185.327 436.673 186.283 425.387 184.85C414.896 183.527 410.103 187.431 405.007 191.58L404.825 191.729C402.433 193.736 399.947 195.742 396.6 197.653C390.525 201.055 387.374 204.102 384.588 206.797L384.261 207.112L384.041 207.324L383.879 207.479C381.631 209.641 379.467 211.72 375.845 213.8C366.855 219.151 359.873 224.024 359.873 234.725C359.873 245.236 368.098 254.6 373.837 257.848C374.793 258.422 375.654 258.613 376.323 258.613C377.089 258.613 377.663 258.422 378.045 258.135C380.184 256.927 380.243 254.275 380.332 250.264L380.34 249.918L380.345 249.727C380.439 245.444 380.568 239.621 383.018 234.725C388.278 224.311 392.104 216.763 407.407 210.934C413.528 208.641 416.588 206.921 418.788 205.584C422.231 203.577 423.666 202.813 434.187 201.952C451.497 200.519 459.435 199.85 460.87 190.391C462.018 183.129 460.679 181.123 456.949 178.162C456.806 178.066 456.663 177.947 456.519 177.827ZM456.088 189.818C455.323 194.977 451.784 195.742 433.9 197.175C422.71 198.131 420.605 199.087 416.397 201.475L416.3 201.53C414.118 202.762 411.433 204.278 405.685 206.443C388.696 212.927 384.28 221.599 378.749 232.461L378.715 232.528C375.654 238.548 375.558 245.045 375.558 249.918C375.558 250.969 375.558 252.116 375.463 252.975C370.872 249.918 364.942 242.561 364.942 234.725C364.942 227.272 369.15 223.546 378.428 218.004C382.731 215.425 385.314 212.941 387.704 210.552L388.025 210.243C390.696 207.663 393.473 204.981 398.99 201.857C402.519 199.868 405.193 197.708 407.576 195.782L407.577 195.781C407.712 195.672 407.846 195.564 407.981 195.455L408.103 195.354C412.342 191.873 415.308 189.436 421.37 189.436C422.341 189.436 423.393 189.517 424.526 189.604L424.813 189.627C436.673 191.156 441.264 190.2 442.89 189.532C447.098 188.863 449.776 185.613 451.688 183.225C451.775 183.122 451.866 183.01 451.962 182.893L451.963 182.892L451.964 182.891C452.402 182.358 452.923 181.723 453.315 181.41C453.41 181.505 453.506 181.577 453.602 181.648C453.697 181.72 453.793 181.792 453.888 181.887L453.92 181.915C456.285 183.994 456.85 184.491 456.088 189.818ZM549.339 122.074C551.061 120.164 553.451 119.877 555.651 121.119C559.859 123.698 563.111 133.253 560.816 139.559C559.095 144.05 555.173 147.012 551.156 147.012H550.677C546.756 146.726 543.792 143.859 542.644 139.273C540.349 129.909 548 123.221 549.339 122.074ZM550.965 142.044C552.686 142.139 554.982 140.802 556.129 137.84C557.277 134.877 556.321 130.387 554.886 127.521C554.121 125.992 553.356 125.418 553.069 125.227L552.878 125.418L552.495 125.8C552.493 125.803 552.487 125.807 552.478 125.815L552.45 125.838C551.862 126.332 545.775 131.435 547.426 138.031C547.809 139.464 548.765 141.948 550.965 142.044ZM581.665 151.694C578.413 150.166 568.849 147.395 566.745 151.407L566.708 151.476C565.709 153.358 559.135 165.744 562.346 173.384C563.302 175.581 565.214 176.919 567.606 176.919C574.301 176.919 585.013 166.982 587.403 161.249C588.073 159.816 589.316 155.23 581.665 151.694ZM583.004 159.243C581.092 163.733 571.814 171.95 567.701 171.95C567.223 171.95 567.128 171.854 566.936 171.473C565.214 167.364 568.371 158.956 570.858 154.274C572.961 153.987 579.943 155.42 582.526 158C583.195 158.765 583.1 159.051 583.004 159.243ZM735.796 139.86V139.861C736.019 140.592 736.285 141.46 736.699 142.426C739.377 149.114 738.229 150.834 734.403 155.23L734.212 155.42C732.413 157.475 731.074 159.529 729.646 161.721L729.413 162.078C729.323 162.215 729.233 162.353 729.143 162.491C727.899 164.403 726.656 166.313 725.127 168.32C723.787 170.135 722.066 170.517 721.014 170.517H720.632C716.806 170.135 712.98 165.549 707.624 155.039C705.807 151.503 704.946 148.828 706.381 146.917C707.911 144.91 710.398 145.388 712.884 145.866C714.128 146.152 715.371 146.343 716.614 146.343H716.71C716.518 145.58 715.849 144.241 715.18 143.191L715.084 143C714.51 141.948 714.51 140.611 715.084 139.559C717.188 135.738 727.708 134.686 728.952 134.591C733.352 134.209 734.499 135.547 735.551 139.082C735.631 139.32 735.71 139.578 735.795 139.857L735.796 139.86ZM730.386 152.268L730.578 152.077C732.209 150.2 732.996 149.294 733.154 148.289C733.3 147.349 732.894 146.323 732.108 144.337C731.438 142.808 731.056 141.566 730.769 140.611C730.636 140.344 730.549 140.031 730.476 139.769C730.445 139.655 730.415 139.551 730.386 139.464C730.1 139.464 729.813 139.464 729.239 139.559C725.605 139.846 721.588 140.898 719.961 141.661C721.11 143.478 722.448 146.63 721.205 149.019C720.727 149.879 719.483 151.407 716.614 151.407C714.893 151.407 713.363 151.121 711.928 150.834C711.773 150.783 711.617 150.759 711.446 150.733C711.303 150.711 711.147 150.687 710.971 150.643C711.089 150.995 711.279 151.383 711.518 151.873C711.669 152.182 711.838 152.531 712.023 152.937C717.953 164.593 720.632 165.644 721.014 165.74C721.014 165.692 721.038 165.668 721.073 165.633C721.11 165.596 721.158 165.549 721.205 165.453C722.544 163.638 723.787 161.727 724.935 159.911C725.18 159.538 725.425 159.158 725.671 158.777L725.672 158.777C727.064 156.625 728.518 154.377 730.386 152.268ZM874.517 25.5705C872.413 24.424 870.213 24.8062 868.588 26.526C864.284 30.4435 858.545 38.7562 863.518 45.2534C866.387 48.9798 869.353 49.8398 871.361 49.8398C871.614 49.8398 871.866 49.8132 872.104 49.7881C872.318 49.7655 872.519 49.7442 872.7 49.7442C876.143 49.0754 878.917 46.1134 880.16 41.8137C881.881 36.463 878.821 27.9593 874.517 25.5705ZM875.474 40.3805C874.804 42.8648 873.274 44.5846 871.84 44.8713C870.022 45.158 868.301 43.3425 867.439 42.2915C863.901 37.8007 871.84 30.348 872.031 30.2524L872.222 30.0613C872.509 30.2524 873.178 30.8257 873.943 32.1634C875.474 34.7432 876.143 38.2784 875.474 40.3805ZM31.4986 266.484C29.8221 264.579 26.9843 262.973 23.8811 263.948C20.5604 264.992 17.1902 267.219 14.1852 269.695C11.1493 272.196 8.3345 275.079 6.12044 277.606C3.74032 280.323 3.37594 284.153 4.96658 287.292C9.28078 295.805 15.6482 306.732 22.5827 315.398C26.046 319.726 29.7177 323.576 33.4132 326.274C37.0696 328.944 41.0426 330.699 45.0148 330.279C47.24 330.044 48.8457 328.598 49.8478 327.278L61.5145 311.911C64.1961 308.378 64.018 303.448 61.0886 300.118L31.4986 266.484ZM25.2143 268.185C26.0115 267.934 27.1382 268.253 28.1613 269.416L57.7512 303.05C59.2857 304.794 59.379 307.377 57.9744 309.227L46.3076 324.595C45.6598 325.448 45.0364 325.811 44.5471 325.863C42.1805 326.113 39.3241 325.09 36.0349 322.689C32.7847 320.316 29.3943 316.8 26.0533 312.625C19.3794 304.284 13.1695 293.649 8.9309 285.286C8.11728 283.68 8.33819 281.816 9.46374 280.531C11.5663 278.131 14.2094 275.43 17.0121 273.121C19.8458 270.787 22.6951 268.976 25.2143 268.185Z" fill="#A3A3A3"/>
</g>
<path fill-rule="evenodd" clip-rule="evenodd" d="M169.444 294.696C166.99 298.947 168.447 304.382 172.697 306.836C176.948 309.29 182.383 307.834 184.838 303.583C187.292 299.333 185.835 293.897 181.585 291.443C177.334 288.989 171.899 290.445 169.444 294.696ZM173.293 296.918C172.066 299.043 172.794 301.761 174.919 302.988C177.045 304.215 179.762 303.487 180.989 301.362C182.216 299.236 181.488 296.518 179.363 295.291C177.237 294.064 174.52 294.793 173.293 296.918Z" fill="url(#paint0_linear)"/>
<circle cx="178" cy="315" r="4" fill="#FCFDFF"/>
<path d="M971.399 562L975.635 532.987C977.171 522.528 973.805 511.949 966.505 504.277L946.088 482.798L851.951 412.004L791.561 372.182L754.708 452.033C753.82 453.957 752.782 455.809 751.606 457.572L689.431 550.7C686.402 555.236 680.022 555.995 676.008 552.298L607.284 488.993L588.371 474.099C583.654 470.385 576.79 471.291 573.206 476.1L533.353 529.595C528.944 535.515 521.314 538.09 514.202 536.061L442.853 515.7C435.479 513.596 429.077 508.987 424.755 502.673L387.404 448.11C386.278 446.466 384.917 444.996 383.364 443.745L378.334 439.697C361.544 426.185 338.662 422.959 318.771 431.3L268.144 452.527C264.135 454.208 259.493 453.045 256.757 449.673L235.176 423.065L224.963 398.287L183.798 310.554C181.891 306.488 175.822 307.509 175.359 311.973L164.843 413.471C162.657 434.569 153.293 454.287 138.306 469.349L109.956 497.842L77.9849 536.337L49.6339 472.64C37.3499 445.042 32.1727 414.825 34.5715 384.728L40.6853 308.024" stroke="url(#paint1_linear)" stroke-width="3" stroke-dasharray="8 8"/>
<path fill-rule="evenodd" clip-rule="evenodd" d="M72.003 478.411C69.5489 482.662 71.0053 488.097 75.256 490.551C79.5067 493.005 84.9421 491.549 87.3962 487.298C89.8504 483.047 88.394 477.612 84.1432 475.158C79.8926 472.704 74.4571 474.16 72.003 478.411ZM75.8513 480.633C74.6242 482.758 75.3524 485.476 77.4778 486.703C79.6031 487.93 82.3208 487.202 83.5479 485.076C84.775 482.951 84.0468 480.233 81.9214 479.006C79.7961 477.779 77.0784 478.507 75.8513 480.633Z" fill="url(#paint2_linear)"/>
<path fill-rule="evenodd" clip-rule="evenodd" d="M104.583 518.403C102.129 522.654 103.585 528.089 107.836 530.543C112.087 532.997 117.522 531.541 119.976 527.29C122.43 523.04 120.974 517.604 116.723 515.15C112.473 512.696 107.037 514.152 104.583 518.403ZM108.431 520.625C107.204 522.75 107.933 525.468 110.058 526.695C112.183 527.922 114.901 527.194 116.128 525.069C117.355 522.943 116.627 520.225 114.501 518.998C112.376 517.771 109.658 518.5 108.431 520.625Z" fill="url(#paint3_linear)"/>
<path fill-rule="evenodd" clip-rule="evenodd" d="M161.46 363.764C159.006 368.015 160.462 373.451 164.713 375.905C168.964 378.359 174.399 376.902 176.853 372.652C179.307 368.401 177.851 362.966 173.6 360.511C169.35 358.057 163.914 359.514 161.46 363.764ZM165.308 365.986C164.081 368.112 164.809 370.829 166.935 372.056C169.06 373.283 171.778 372.555 173.005 370.43C174.232 368.305 173.504 365.587 171.378 364.36C169.253 363.133 166.535 363.861 165.308 365.986Z" fill="url(#paint4_linear)"/>
<path fill-rule="evenodd" clip-rule="evenodd" d="M221.894 406.423C219.439 410.673 220.896 416.109 225.147 418.563C229.397 421.017 234.833 419.561 237.287 415.31C239.741 411.059 238.285 405.624 234.034 403.17C229.783 400.716 224.348 402.172 221.894 406.423ZM225.742 408.644C224.515 410.77 225.243 413.487 227.368 414.715C229.494 415.942 232.211 415.213 233.439 413.088C234.666 410.963 233.937 408.245 231.812 407.018C229.687 405.791 226.969 406.519 225.742 408.644Z" fill="url(#paint5_linear)"/>
<path fill-rule="evenodd" clip-rule="evenodd" d="M396.974 467.747C394.52 471.998 395.976 477.433 400.227 479.887C404.477 482.341 409.913 480.885 412.367 476.634C414.821 472.383 413.365 466.948 409.114 464.494C404.863 462.04 399.428 463.496 396.974 467.747ZM400.822 469.969C399.595 472.094 400.323 474.812 402.448 476.039C404.574 477.266 407.292 476.538 408.519 474.412C409.746 472.287 409.017 469.569 406.892 468.342C404.767 467.115 402.049 467.843 400.822 469.969Z" fill="url(#paint6_linear)"/>
<circle cx="169" cy="369" r="4" fill="#FCFDFF"/>
<ellipse cx="229.5" cy="411" rx="3.5" ry="4" fill="#FCFDFF"/>
<ellipse cx="112" cy="522.5" rx="4" ry="4.5" fill="#FCFDFF"/>
<ellipse cx="79.5" cy="482.5" rx="3.5" ry="4.5" fill="#FCFDFF"/>
<ellipse cx="404.5" cy="472" rx="3.5" ry="4" fill="#FCFDFF"/>
<path fill-rule="evenodd" clip-rule="evenodd" d="M39.4444 304.696C36.9903 308.947 38.4467 314.382 42.6974 316.836C46.9481 319.29 52.3835 317.834 54.8376 313.583C57.2918 309.333 55.8354 303.897 51.5846 301.443C47.334 298.989 41.8986 300.445 39.4444 304.696ZM43.2927 306.918C42.0656 309.043 42.7938 311.761 44.9192 312.988C47.0445 314.215 49.7622 313.487 50.9893 311.362C52.2164 309.236 51.4882 306.518 49.3628 305.291C47.2375 304.064 44.5198 304.793 43.2927 306.918Z" fill="url(#paint7_linear)"/>
<defs>
<filter id="filter0_d" x="0" y="0" width="1067" height="621" filterUnits="userSpaceOnUse" color-interpolation-filters="sRGB">
<feFlood flood-opacity="0" result="BackgroundImageFix"/>
<feColorMatrix in="SourceAlpha" type="matrix" values="0 0 0 0 0 0 0 0 0 0 0 0 0 0 0 0 0 0 127 0"/>
<feOffset dy="4"/>
<feGaussianBlur stdDeviation="2"/>
<feColorMatrix type="matrix" values="0 0 0 0 0 0 0 0 0 0 0 0 0 0 0 0 0 0 0.25 0"/>
<feBlend mode="normal" in2="BackgroundImageFix" result="effect1_dropShadow"/>
<feBlend mode="normal" in="SourceGraphic" in2="effect1_dropShadow" result="shape"/>
</filter>
<linearGradient id="paint0_linear" x1="184.838" y1="303.583" x2="169.444" y2="294.696" gradientUnits="userSpaceOnUse">
<stop stop-color="#0094D9"/>
<stop offset="0.328125" stop-color="#2E3191"/>
<stop offset="0.625" stop-color="#EC1C24"/>
<stop offset="1" stop-color="#F48120"/>
</linearGradient>
<linearGradient id="paint1_linear" x1="504.488" y1="296.077" x2="504.488" y2="562" gradientUnits="userSpaceOnUse">
<stop stop-color="#0094D9"/>
<stop offset="0.328125" stop-color="#2E3191"/>
<stop offset="0.625" stop-color="#EC1C24"/>
<stop offset="1" stop-color="#F48120"/>
</linearGradient>
<linearGradient id="paint2_linear" x1="87.3962" y1="487.298" x2="72.003" y2="478.411" gradientUnits="userSpaceOnUse">
<stop stop-color="#0094D9"/>
<stop offset="0.328125" stop-color="#2E3191"/>
<stop offset="0.625" stop-color="#EC1C24"/>
<stop offset="1" stop-color="#F48120"/>
</linearGradient>
<linearGradient id="paint3_linear" x1="119.976" y1="527.29" x2="104.583" y2="518.403" gradientUnits="userSpaceOnUse">
<stop stop-color="#0094D9"/>
<stop offset="0.328125" stop-color="#2E3191"/>
<stop offset="0.625" stop-color="#EC1C24"/>
<stop offset="1" stop-color="#F48120"/>
</linearGradient>
<linearGradient id="paint4_linear" x1="176.853" y1="372.652" x2="161.46" y2="363.764" gradientUnits="userSpaceOnUse">
<stop stop-color="#0094D9"/>
<stop offset="0.328125" stop-color="#2E3191"/>
<stop offset="0.625" stop-color="#EC1C24"/>
<stop offset="1" stop-color="#F48120"/>
</linearGradient>
<linearGradient id="paint5_linear" x1="237.287" y1="415.31" x2="221.894" y2="406.423" gradientUnits="userSpaceOnUse">
<stop stop-color="#0094D9"/>
<stop offset="0.328125" stop-color="#2E3191"/>
<stop offset="0.625" stop-color="#EC1C24"/>
<stop offset="1" stop-color="#F48120"/>
</linearGradient>
<linearGradient id="paint6_linear" x1="412.367" y1="476.634" x2="396.974" y2="467.747" gradientUnits="userSpaceOnUse">
<stop stop-color="#0094D9"/>
<stop offset="0.328125" stop-color="#2E3191"/>
<stop offset="0.625" stop-color="#EC1C24"/>
<stop offset="1" stop-color="#F48120"/>
</linearGradient>
<linearGradient id="paint7_linear" x1="54.8376" y1="313.583" x2="39.4444" y2="304.696" gradientUnits="userSpaceOnUse">
<stop stop-color="#0094D9"/>
<stop offset="0.328125" stop-color="#2E3191"/>
<stop offset="0.625" stop-color="#EC1C24"/>
<stop offset="1" stop-color="#F48120"/>
</linearGradient>
</defs>
</svg>
