<svg width="946" height="256" viewBox="0 0 946 256" fill="none" xmlns="http://www.w3.org/2000/svg">
<path d="M939.399 255L943.635 225.987C945.171 215.528 941.805 204.949 934.505 197.277L914.088 175.798L819.951 105.004L759.561 65.1815L722.708 145.033C721.82 146.957 720.782 148.809 719.606 150.572L657.431 243.7C654.402 248.236 648.022 248.995 644.008 245.298L575.284 181.993L556.371 167.099C551.654 163.385 544.79 164.291 541.206 169.1L501.353 222.595C496.944 228.515 489.314 231.09 482.202 229.061L410.853 208.7C403.479 206.596 397.077 201.987 392.755 195.673L355.404 141.11C354.278 139.466 352.917 137.996 351.364 136.745L346.334 132.697C329.544 119.185 306.662 115.959 286.771 124.3L236.144 145.527C232.135 147.208 227.493 146.045 224.757 142.673L203.176 116.065L192.963 91.2871L151.798 3.55383C149.891 -0.511834 143.822 0.509075 143.359 4.97342L132.843 106.471C130.657 127.569 121.293 147.287 106.306 162.349L77.9559 190.842L45.9849 229.337L17.6339 165.64C5.34994 138.042 0.172697 107.825 2.57154 77.7281L8.68527 1.02379" stroke="url(#paint0_linear)" stroke-width="3" stroke-dasharray="8 8"/>
<defs>
<linearGradient id="paint0_linear" x1="472.488" y1="-10.9228" x2="472.488" y2="255" gradientUnits="userSpaceOnUse">
<stop stop-color="#0094D9"/>
<stop offset="0.328125" stop-color="#2E3191"/>
<stop offset="0.625" stop-color="#EC1C24"/>
<stop offset="1" stop-color="#F48120"/>
</linearGradient>
</defs>
</svg>
