<svg width="31" height="44" viewBox="0 0 31 44" fill="none" xmlns="http://www.w3.org/2000/svg">
<rect x="0.489258" y="7.67773" width="29.9809" height="36.323" rx="3" fill="#8AB7DF"/>
<rect x="25.7363" y="37.748" width="0.697889" height="1.72967" fill="white"/>
<rect x="8.30469" y="7.67773" width="2.79156" height="7.67678" rx="1" fill="#EFEFEF"/>
<rect x="8.30469" y="7.67773" width="2.79156" height="5.58312" fill="#EFEFEF"/>
<path d="M10.1959 0.240796C9.94211 -0.0130444 9.53055 -0.0130444 9.27671 0.240796L5.14013 4.37737C4.88629 4.63121 4.88629 5.04277 5.14013 5.29661C5.39397 5.55045 5.80553 5.55045 6.05937 5.29661L9.73633 1.61965L13.4133 5.29661C13.6671 5.55045 14.0787 5.55045 14.3325 5.29661C14.5864 5.04277 14.5864 4.63121 14.3325 4.37737L10.1959 0.240796ZM10.3863 14.6582L10.3863 0.700416H9.08633L9.08633 14.6582H10.3863Z" fill="#0075FF"/>
<path d="M10.1959 0.240796C9.94211 -0.0130444 9.53055 -0.0130444 9.27671 0.240796L5.14013 4.37737C4.88629 4.63121 4.88629 5.04277 5.14013 5.29661C5.39397 5.55045 5.80553 5.55045 6.05937 5.29661L9.73633 1.61965L13.4133 5.29661C13.6671 5.55045 14.0787 5.55045 14.3325 5.29661C14.5864 5.04277 14.5864 4.63121 14.3325 4.37737L10.1959 0.240796ZM10.3863 14.6582L10.3863 0.700416H9.08633L9.08633 14.6582H10.3863Z" fill="url(#paint0_linear)"/>
<path d="M20.2689 14.4174C20.5227 14.6712 20.9343 14.6712 21.1881 14.4174L25.3247 10.2808C25.5785 10.027 25.5785 9.61544 25.3247 9.36159C25.0709 9.10775 24.6593 9.10775 24.4055 9.36159L20.7285 13.0385L17.0516 9.36159C16.7977 9.10775 16.3862 9.10775 16.1323 9.36159C15.8785 9.61544 15.8785 10.027 16.1323 10.2808L20.2689 14.4174ZM20.0785 -2.84124e-08L20.0785 13.9578L21.3785 13.9578L21.3785 2.84124e-08L20.0785 -2.84124e-08Z" fill="#676767"/>
<defs>
<linearGradient id="paint0_linear" x1="11.9863" y1="14.6562" x2="9.20733" y2="0.176158" gradientUnits="userSpaceOnUse">
<stop stop-color="#095C8D"/>
<stop offset="1" stop-color="#10AEDA"/>
</linearGradient>
</defs>
</svg>
