<svg width="54" height="36" viewBox="0 0 54 36" fill="none" xmlns="http://www.w3.org/2000/svg">
<rect x="10.2363" width="29.7692" height="36" rx="5" fill="#8AB7DF"/>
<rect x="10.2363" y="8.30859" width="29.7692" height="0.692308" fill="#EEEDEB"/>
<rect x="10.2363" y="3.46094" width="29.7692" height="0.692308" fill="#EEEDEB"/>
<rect x="10.2363" y="13.1543" width="29.7692" height="0.692308" fill="#EEEDEB"/>
<rect x="10.2363" y="18" width="29.7692" height="0.692308" fill="#EEEDEB"/>
<rect x="10.2363" y="22.8457" width="29.7692" height="0.692308" fill="#EEEDEB"/>
<rect x="10.2363" y="27.6914" width="29.7692" height="0.692308" fill="#EEEDEB"/>
<rect x="10.2363" y="32.5391" width="29.7692" height="0.692308" fill="#EEEDEB"/>
<path d="M17.1034 21.4059C17.4549 21.0545 17.4549 20.4846 17.1034 20.1331L11.3759 14.4056C11.0244 14.0541 10.4545 14.0541 10.1031 14.4056C9.75159 14.757 9.75159 15.3269 10.1031 15.6784L15.1942 20.7695L10.1031 25.8607C9.75159 26.2122 9.75159 26.782 10.1031 27.1335C10.4545 27.485 11.0244 27.485 11.3759 27.1335L17.1034 21.4059ZM0.543945 21.6695L16.467 21.6695L16.467 19.8695L0.543945 19.8695L0.543945 21.6695Z" fill="#737373"/>
<path d="M53.6364 21.6364C53.9879 21.2849 53.9879 20.7151 53.6364 20.3636L47.9088 14.636C47.5574 14.2846 46.9875 14.2846 46.636 14.636C46.2846 14.9875 46.2846 15.5574 46.636 15.9088L51.7272 21L46.636 26.0912C46.2846 26.4426 46.2846 27.0125 46.636 27.364C46.9875 27.7154 47.5574 27.7154 47.9088 27.364L53.6364 21.6364ZM33 21.9L53 21.9V20.1L33 20.1V21.9Z" fill="url(#paint0_linear)"/>
<defs>
<linearGradient id="paint0_linear" x1="52.9928" y1="17.5" x2="34.9772" y2="19.3004" gradientUnits="userSpaceOnUse">
<stop stop-color="#10AEDA"/>
<stop offset="1" stop-color="#0A6293"/>
</linearGradient>
</defs>
</svg>
