<svg width="32" height="45" viewBox="0 0 32 45" fill="none" xmlns="http://www.w3.org/2000/svg">
<rect x="1.96094" y="8.0918" width="28.121" height="36.9088" rx="4" fill="#8AB7DF"/>
<rect width="1.30771" height="6.41556" transform="matrix(-1 0 0 1 31.2275 32.2031)" fill="#8AB7DF"/>
<rect width="1.30771" height="6.41556" transform="matrix(-1 0 0 1 2.15234 32.2031)" fill="#8AB7DF"/>
<rect x="9.29883" y="8.0918" width="2.83658" height="7.80061" rx="1" fill="#E2E2E2"/>
<rect x="9.29883" y="8.0918" width="2.83658" height="5.67317" fill="#E2E2E2"/>
<rect x="19.9355" y="8.0918" width="2.83658" height="7.80061" rx="1" fill="#CFCFCF"/>
<rect x="19.9355" y="8.0918" width="2.83658" height="5.67317" fill="#CFCFCF"/>
<path d="M11.1764 0.541051C10.9226 0.28721 10.511 0.28721 10.2572 0.541051L6.1206 4.67763C5.86676 4.93147 5.86676 5.34302 6.1206 5.59686C6.37444 5.85071 6.786 5.85071 7.03984 5.59686L10.7168 1.91991L14.3938 5.59686C14.6476 5.85071 15.0592 5.85071 15.313 5.59686C15.5668 5.34302 15.5668 4.93147 15.313 4.67763L11.1764 0.541051ZM11.3668 15.1836L11.3668 1.00067L10.0668 1.00067L10.0668 15.1836L11.3668 15.1836Z" fill="#008DD2"/>
<path d="M11.1764 0.541051C10.9226 0.28721 10.511 0.28721 10.2572 0.541051L6.1206 4.67763C5.86676 4.93147 5.86676 5.34302 6.1206 5.59686C6.37444 5.85071 6.786 5.85071 7.03984 5.59686L10.7168 1.91991L14.3938 5.59686C14.6476 5.85071 15.0592 5.85071 15.313 5.59686C15.5668 5.34302 15.5668 4.93147 15.313 4.67763L11.1764 0.541051ZM11.3668 15.1836L11.3668 1.00067L10.0668 1.00067L10.0668 15.1836L11.3668 15.1836Z" fill="url(#paint0_linear)"/>
<path d="M21.8141 0.541051C21.5603 0.28721 21.1487 0.28721 20.8949 0.541051L16.7583 4.67763C16.5045 4.93147 16.5045 5.34302 16.7583 5.59686C17.0121 5.85071 17.4237 5.85071 17.6775 5.59686L21.3545 1.91991L25.0314 5.59686C25.2853 5.85071 25.6968 5.85071 25.9507 5.59686C26.2045 5.34302 26.2045 4.93147 25.9507 4.67763L21.8141 0.541051ZM22.0045 15.1836L22.0045 1.00067L20.7045 1.00067L20.7045 15.1836L22.0045 15.1836Z" fill="#008DD2"/>
<path d="M21.8141 0.541051C21.5603 0.28721 21.1487 0.28721 20.8949 0.541051L16.7583 4.67763C16.5045 4.93147 16.5045 5.34302 16.7583 5.59686C17.0121 5.85071 17.4237 5.85071 17.6775 5.59686L21.3545 1.91991L25.0314 5.59686C25.2853 5.85071 25.6968 5.85071 25.9507 5.59686C26.2045 5.34302 26.2045 4.93147 25.9507 4.67763L21.8141 0.541051ZM22.0045 15.1836L22.0045 1.00067L20.7045 1.00067L20.7045 15.1836L22.0045 15.1836Z" fill="url(#paint1_linear)"/>
<g clip-path="url(#clip0)">
<path d="M14.0512 37.166C14.3843 37.166 14.6859 37.3099 14.9034 37.5387C15.1208 37.7675 15.2576 38.0848 15.2576 38.4354C15.2576 38.7859 15.1243 39.1033 14.9034 39.3321C14.6859 39.5645 14.3843 39.7048 14.0512 39.7048C13.718 39.7048 13.4164 39.5645 13.1989 39.3321C12.9815 39.1033 12.8447 38.7859 12.8447 38.4354C12.8447 38.0848 12.9815 37.7675 13.1989 37.5387C13.4164 37.3099 13.718 37.166 14.0512 37.166ZM14.5281 37.9335C14.4054 37.8044 14.237 37.7269 14.0512 37.7269C13.8653 37.7269 13.6969 37.8081 13.5742 37.9335C13.4514 38.0627 13.3778 38.2398 13.3778 38.4354C13.3778 38.631 13.455 38.8081 13.5742 38.9372C13.6969 39.0664 13.8653 39.1439 14.0512 39.1439C14.237 39.1439 14.4054 39.0664 14.5281 38.9372C14.6509 38.8081 14.7245 38.631 14.7245 38.4354C14.7245 38.2398 14.6509 38.0627 14.5281 37.9335Z" fill="white"/>
<path d="M18.1233 37.506C18.1163 37.3473 18.2356 37.2108 18.3864 37.2034C18.5407 37.1961 18.6704 37.3215 18.674 37.4802C18.688 37.7902 18.8318 37.9857 19.0176 38.0743C19.1018 38.1112 19.193 38.1333 19.2807 38.1296C19.3719 38.1296 19.463 38.1075 19.5472 38.0669C19.7366 37.9783 19.8839 37.7828 19.8909 37.4839C19.8944 37.3252 20.0242 37.1961 20.175 37.2034C20.3293 37.2071 20.4485 37.3437 20.445 37.5023C20.4275 38.0558 20.1434 38.4248 19.7752 38.5983C19.6208 38.6721 19.4525 38.709 19.2877 38.709C19.1193 38.7127 18.951 38.6758 18.7967 38.6056C18.4355 38.4396 18.1514 38.0743 18.1233 37.506Z" fill="white"/>
<path d="M19.0068 38.4204C19.0068 38.2581 19.1296 38.1289 19.2839 38.1289C19.4382 38.1289 19.5609 38.2581 19.5609 38.4204V39.354C19.5609 39.5164 19.4382 39.6455 19.2839 39.6455C19.1296 39.6455 19.0068 39.5164 19.0068 39.354V38.4204Z" fill="white"/>
<path fill-rule="evenodd" clip-rule="evenodd" d="M15.7021 37.4023C15.9336 37.1587 16.3018 37.1477 16.5473 37.3691C16.5754 37.3949 16.5719 37.4171 16.5578 37.4429L16.3965 37.7123C16.386 37.7307 16.4 37.7381 16.4105 37.727L16.7893 37.4023C17.0313 37.1477 17.4241 37.1477 17.6696 37.4023C17.9011 37.6458 17.9116 38.0333 17.7011 38.2916C17.6766 38.3211 17.6556 38.3174 17.631 38.3027L17.375 38.1292C17.3574 38.1182 17.3504 38.1329 17.361 38.144L17.6696 38.5462C17.9116 38.8008 17.9116 39.2141 17.6696 39.4687C17.4381 39.7122 17.0699 39.7233 16.8244 39.5019C16.7963 39.4761 16.7998 39.454 16.8139 39.4281L16.9787 39.1587C16.9892 39.1403 16.9752 39.1329 16.9647 39.144L16.5824 39.4687C16.3404 39.7233 15.9476 39.7233 15.7056 39.4687C15.4742 39.2252 15.4636 38.8377 15.6741 38.5794C15.7021 38.5499 15.7197 38.5536 15.7442 38.5683L16.0002 38.7418C16.0213 38.7528 16.0248 38.7381 16.0177 38.727L15.7091 38.3248C15.4601 38.0702 15.4601 37.6569 15.7021 37.4023Z" fill="white"/>
</g>
<defs>
<linearGradient id="paint0_linear" x1="6.2168" y1="1.00067" x2="11.2186" y2="15.4992" gradientUnits="userSpaceOnUse">
<stop stop-color="#10AEDA"/>
<stop offset="1" stop-color="#074C7D"/>
</linearGradient>
<linearGradient id="paint1_linear" x1="16.8545" y1="1.00067" x2="21.8563" y2="15.4992" gradientUnits="userSpaceOnUse">
<stop stop-color="#10AEDA" stop-opacity="0.38"/>
<stop offset="1" stop-color="#085182"/>
</linearGradient>
<clipPath id="clip0">
<rect width="7.61623" height="2.53874" fill="white" transform="translate(12.8447 37.166)"/>
</clipPath>
</defs>
</svg>
