<svg width="302" height="180" viewBox="0 0 302 180" fill="none" xmlns="http://www.w3.org/2000/svg">
<path fill-rule="evenodd" clip-rule="evenodd" d="M225.687 78.6875L226.381 80.8004L225.756 81.0061L225.745 81.0391L225.7 81.0245L225.641 81.0439L225.627 81.0008L225.004 80.799L225.687 78.6875ZM225.114 82.9885L224.484 84.9378L223.742 84.6977L224.373 82.7484L225.114 82.9885ZM226.926 84.9547L226.283 82.9993L227.023 82.7558L227.666 84.7112L226.926 84.9547ZM223.853 86.8871L223.222 88.8365L222.481 88.5964L223.112 86.647L223.853 86.8871ZM228.211 88.8656L227.568 86.9102L228.308 86.6667L228.951 88.6221L228.211 88.8656ZM28.4847 90.3159C28.3264 90.1711 28.1528 90.0991 27.9831 90.079L28.0747 89.3048C28.4058 89.344 28.7314 89.4852 29.0105 89.7405L29.8085 90.4707L29.2827 91.046L28.4847 90.3159ZM27.0483 90.5882C26.9731 90.7417 26.9392 90.9267 26.9749 91.1383L27.1374 92.103L26.3691 92.2326L26.2065 91.2679C26.1437 90.8948 26.2019 90.5445 26.3487 90.245L27.0483 90.5882ZM222.592 90.7858L221.961 92.7352L221.22 92.4951L221.851 90.5457L222.592 90.7858ZM229.496 92.7765L228.853 90.821L229.593 90.5775L230.236 92.533L229.496 92.7765ZM32.4748 93.9667L30.8787 92.5064L31.4045 91.931L33.0006 93.3913L32.4748 93.9667ZM27.4624 94.0323L27.7874 95.9616L27.0191 96.0912L26.6941 94.1619L27.4624 94.0323ZM221.331 94.6845L220.7 96.6338L219.959 96.3937L220.589 94.4444L221.331 94.6845ZM230.781 96.6873L230.138 94.7319L230.878 94.4884L231.521 96.4438L230.781 96.6873ZM35.6669 96.8874L34.0708 95.427L34.5966 94.8517L36.1927 96.312L35.6669 96.8874ZM38.8589 99.8081L37.2629 98.3477L37.7887 97.7724L39.3847 99.2327L38.8589 99.8081ZM28.1125 97.8909L28.4375 99.8202L27.6692 99.9498L27.3441 98.0205L28.1125 97.8909ZM220.069 98.5832L219.439 100.533L218.697 100.292L219.328 98.3431L220.069 98.5832ZM232.066 100.598L231.423 98.6428L232.163 98.3993L232.806 100.355L232.066 100.598ZM42.051 102.729L40.455 101.268L40.9808 100.693L42.5768 102.153L42.051 102.729ZM28.7625 101.75L29.0875 103.679L28.3192 103.808L27.9942 101.879L28.7625 101.75ZM218.808 102.482L218.178 104.431L217.436 104.191L218.067 102.242L218.808 102.482ZM233.351 104.509L232.708 102.554L233.448 102.31L234.091 104.266L233.351 104.509ZM45.2431 105.649L43.6471 104.189L44.1729 103.614L45.7689 105.074L45.2431 105.649ZM29.4126 105.608L29.7376 107.537L28.9693 107.667L28.6442 105.738L29.4126 105.608ZM217.547 106.381L216.916 108.33L216.175 108.09L216.806 106.14L217.547 106.381ZM234.636 108.42L233.993 106.465L234.733 106.221L235.376 108.176L234.636 108.42ZM47.6372 107.84L46.8392 107.11L47.365 106.534L48.163 107.265C48.4431 107.521 48.7172 107.783 48.985 108.05L48.4347 108.602C48.1749 108.343 47.909 108.089 47.6372 107.84ZM30.0626 109.467L30.2251 110.431C30.2846 110.785 30.3371 111.137 30.3827 111.49L29.61 111.59C29.5657 111.247 29.5146 110.904 29.4568 110.561L29.2943 109.596L30.0626 109.467ZM51.2711 111.976C50.8492 111.375 50.4007 110.791 49.9264 110.227L50.5226 109.725C51.0115 110.307 51.4738 110.908 51.9087 111.528L51.2711 111.976ZM216.286 110.279L215.97 111.254C215.865 111.579 215.758 111.903 215.648 112.227L214.91 111.976C215.019 111.656 215.125 111.335 215.229 111.014L215.544 110.039L216.286 110.279ZM235.599 111.353L235.278 110.375L236.018 110.132L236.339 111.11C236.456 111.464 236.581 111.815 236.713 112.162L235.985 112.441C235.848 112.082 235.72 111.719 235.599 111.353ZM82.462 113.794C81.9884 113.85 81.5335 114.029 81.1486 114.31L80.6886 113.681C81.182 113.32 81.7639 113.091 82.3709 113.02L82.462 113.794ZM84.4605 114.367C84.2656 114.212 84.0608 114.091 83.8509 113.999L84.1633 113.285C84.4345 113.403 84.6968 113.56 84.9438 113.755L85.6101 114.282L85.1268 114.894L84.4605 114.367ZM53.4802 115.79C53.1682 115.124 52.8274 114.471 52.4587 113.835L53.1328 113.444C53.5129 114.1 53.8642 114.773 54.1857 115.459L53.4802 115.79ZM30.5755 113.62C30.6125 114.336 30.6215 115.05 30.6033 115.759L29.8243 115.739C29.8421 115.05 29.8333 114.357 29.7973 113.661L30.5755 113.62ZM214.96 114.157C214.721 114.798 214.473 115.435 214.216 116.067L213.494 115.773C213.748 115.148 213.994 114.518 214.23 113.885L214.96 114.157ZM238.032 116.572C237.627 115.918 237.252 115.245 236.91 114.555L237.609 114.209C237.94 114.877 238.302 115.528 238.694 116.161L238.032 116.572ZM80.2704 115.406C80.1791 115.616 80.1119 115.845 80.0739 116.091L79.9069 117.174L79.1369 117.055L79.3039 115.972C79.352 115.66 79.4377 115.367 79.5557 115.096L80.2704 115.406ZM106.852 115.94C106.587 115.972 106.321 116.024 106.053 116.096L105.032 116.372L104.829 115.619L105.85 115.343C106.154 115.261 106.457 115.203 106.759 115.166L106.852 115.94ZM110.01 116.494C109.528 116.252 109.01 116.078 108.471 115.983L108.606 115.216C109.221 115.324 109.811 115.522 110.36 115.797L110.01 116.494ZM87.7919 117.002L86.4593 115.948L86.9426 115.337L88.2752 116.391L87.7919 117.002ZM102.989 116.924L100.945 117.476L100.742 116.723L102.786 116.171L102.989 116.924ZM112.347 118.694C112.073 118.22 111.732 117.793 111.339 117.424L111.873 116.856C112.32 117.277 112.708 117.763 113.021 118.304L112.347 118.694ZM98.9022 118.027L96.859 118.579L96.656 117.827L98.6992 117.275L98.9022 118.027ZM89.7907 118.584L89.1244 118.057L89.6077 117.445L90.274 117.972C90.5063 118.156 90.7568 118.31 91.0197 118.432L90.6908 119.139C90.3734 118.991 90.071 118.806 89.7907 118.584ZM54.9951 119.93C54.8029 119.218 54.5802 118.517 54.3278 117.827L55.0595 117.559C55.3196 118.27 55.5492 118.993 55.7473 119.727L54.9951 119.93ZM213.416 117.954C213.14 118.579 212.855 119.2 212.561 119.817L211.857 119.481C212.148 118.872 212.43 118.257 212.703 117.639L213.416 117.954ZM30.4654 117.893C30.3915 118.605 30.2903 119.311 30.1624 120.01L29.3959 119.87C29.5202 119.19 29.6186 118.504 29.6904 117.812L30.4654 117.893ZM240.821 120.242C240.299 119.675 239.804 119.085 239.339 118.473L239.959 118.001C240.41 118.594 240.888 119.165 241.394 119.713L240.821 120.242ZM94.8159 119.131L93.7943 119.407C93.4492 119.5 93.0982 119.552 92.7483 119.562L92.7245 118.783C93.0145 118.774 93.3052 118.732 93.5912 118.654L94.6128 118.378L94.8159 119.131ZM79.5729 119.339L79.2388 121.505L78.4688 121.386L78.8028 119.22L79.5729 119.339ZM113.072 121.005C113.048 120.73 113.004 120.461 112.943 120.201L113.702 120.023C113.771 120.319 113.821 120.625 113.848 120.938L113.937 121.962L113.161 122.029L113.072 121.005ZM243.341 122.611C243.042 122.368 242.75 122.118 242.464 121.862L242.984 121.281C243.261 121.529 243.544 121.771 243.833 122.007L244.585 122.619L244.093 123.224L243.341 122.611ZM211.651 121.654C211.339 122.261 211.018 122.865 210.689 123.463L210.006 123.086C210.332 122.495 210.65 121.898 210.958 121.297L211.651 121.654ZM29.6962 122.098C29.5136 122.789 29.3047 123.471 29.0702 124.143L28.3346 123.886C28.5625 123.233 28.7655 122.57 28.943 121.898L29.6962 122.098ZM55.6472 123.173C55.5983 122.808 55.5415 122.445 55.477 122.083L56.244 121.946C56.3105 122.319 56.3691 122.693 56.4195 123.07L56.553 124.066L55.7807 124.17L55.6472 123.173ZM78.9047 123.67L78.7377 124.753C78.6912 125.054 78.6401 125.354 78.5842 125.653L77.8183 125.51C77.8727 125.219 77.9225 124.927 77.9677 124.634L78.1347 123.551L78.9047 123.67ZM247.102 125.674L245.598 124.449L246.09 123.844L247.594 125.069L247.102 125.674ZM113.517 126.126L113.339 124.078L114.115 124.01L114.294 126.058L113.517 126.126ZM209.673 125.243C209.326 125.831 208.97 126.415 208.606 126.993L207.947 126.577C208.307 126.005 208.659 125.428 209.002 124.847L209.673 125.243ZM28.2883 126.133C28.002 126.787 27.6908 127.429 27.3556 128.057L26.6681 127.69C26.994 127.079 27.2965 126.455 27.5747 125.82L28.2883 126.133ZM56.3147 128.156L56.0477 126.163L56.82 126.06L57.0869 128.053L56.3147 128.156ZM250.111 128.123L248.606 126.898L249.098 126.294L250.603 127.519L250.111 128.123ZM78.1927 127.437C78.0433 128.028 77.8755 128.613 77.6895 129.193L76.9477 128.955C77.1287 128.391 77.292 127.821 77.4373 127.246L78.1927 127.437ZM163.889 129.05C163.438 128.659 162.863 128.417 162.269 128.365L162.336 127.589C163.094 127.654 163.823 127.962 164.399 128.46L163.889 129.05ZM113.874 130.222L113.696 128.174L114.472 128.106L114.65 130.155L113.874 130.222ZM160.588 128.791C160.355 128.946 160.135 129.147 159.935 129.399L159.333 130.16L158.722 129.675L159.324 128.915C159.573 128.601 159.853 128.344 160.155 128.143L160.588 128.791ZM207.487 128.71C207.106 129.277 206.717 129.838 206.319 130.394L205.686 129.94C206.079 129.39 206.464 128.835 206.841 128.275L207.487 128.71ZM253.119 130.573L251.615 129.348L252.107 128.743L253.611 129.968L253.119 130.573ZM26.2776 129.904C25.8949 130.505 25.489 131.092 25.0608 131.662L24.4378 131.194C24.854 130.64 25.2485 130.07 25.6204 129.485L26.2776 129.904ZM56.8486 132.143L56.5816 130.15L57.3539 130.046L57.6209 132.039L56.8486 132.143ZM164.777 131.444C164.818 131.126 164.808 130.827 164.757 130.552L165.523 130.411C165.589 130.768 165.601 131.147 165.549 131.544L165.425 132.508L164.652 132.408L164.777 131.444ZM77.0768 130.914C76.8547 131.48 76.6146 132.04 76.357 132.592L75.651 132.262C75.9017 131.725 76.1353 131.18 76.3515 130.629L77.0768 130.914ZM256.128 133.023L254.624 131.798L255.116 131.193L256.62 132.418L256.128 133.023ZM158.128 131.68L156.923 133.201L156.312 132.717L157.517 131.196L158.128 131.68ZM205.102 132.043C204.689 132.586 204.267 133.123 203.837 133.655L203.231 133.164C203.656 132.639 204.073 132.107 204.482 131.57L205.102 132.043ZM114.231 134.319L114.052 132.27L114.828 132.203L115.007 134.251L114.231 134.319ZM23.7123 133.322C23.2425 133.856 22.7513 134.373 22.2397 134.872L21.6961 134.313C22.1933 133.829 22.6706 133.326 23.1272 132.807L23.7123 133.322ZM259.137 135.472L257.632 134.248L258.124 133.643L259.628 134.868L259.137 135.472ZM75.5329 134.222C75.3871 134.489 75.2371 134.754 75.0828 135.017L74.5492 135.925L73.8775 135.53L74.4111 134.621C74.5612 134.366 74.7073 134.108 74.8491 133.848L75.5329 134.222ZM57.3825 136.129L57.1156 134.136L57.8878 134.033L58.1548 136.026L57.3825 136.129ZM155.717 134.722L154.512 136.243L153.902 135.759L155.107 134.238L155.717 134.722ZM164.278 135.298L164.403 134.335L165.176 134.435L165.051 135.398C165.008 135.73 164.974 136.062 164.948 136.393L164.172 136.333C164.198 135.988 164.234 135.643 164.278 135.298ZM202.525 135.229C202.303 135.488 202.079 135.746 201.852 136.002L201.149 136.798L200.565 136.281L201.269 135.485C201.492 135.232 201.714 134.977 201.934 134.721L202.525 135.229ZM20.6515 136.304C20.1057 136.759 19.5407 137.194 18.9572 137.608L18.5065 136.972C19.0734 136.57 19.6225 136.147 20.1528 135.705L20.6515 136.304ZM262.145 137.922L260.641 136.697L261.133 136.093L262.637 137.317L262.145 137.922ZM114.587 138.415L114.409 136.367L115.185 136.299L115.363 138.347L114.587 138.415ZM153.307 137.764L152.102 139.285L151.492 138.801L152.697 137.28L153.307 137.764ZM73.482 137.741L72.4149 139.558L71.7431 139.163L72.8103 137.346L73.482 137.741ZM199.742 138.389L198.335 139.98L197.751 139.463L199.158 137.872L199.742 138.389ZM57.6495 138.123L58.4218 138.019L58.5411 138.91L59.1586 139.698L58.5457 140.179L57.7971 139.224L57.6495 138.123ZM17.1674 138.777C16.559 139.141 15.9337 139.483 15.2922 139.803L14.945 139.105C15.5685 138.794 16.1761 138.462 16.7672 138.108L17.1674 138.777ZM164.281 140.486C164.191 139.8 164.137 139.108 164.119 138.412L164.898 138.392C164.915 139.061 164.967 139.726 165.053 140.385L164.281 140.486ZM263.65 139.147L264.141 138.542L264.899 139.159L264.904 139.164L265.684 139.847L265.171 140.434L264.402 139.76L263.65 139.147ZM13.3431 140.682C13.0138 140.815 12.6809 140.943 12.3443 141.064L11.8539 141.241L11.5893 140.508L12.0797 140.331C12.4069 140.213 12.7305 140.089 13.0506 139.959L13.3431 140.682ZM150.897 140.806L149.692 142.327L149.082 141.842L150.287 140.322L150.897 140.806ZM114.944 142.511L114.765 140.463L115.542 140.395L115.72 142.444L114.944 142.511ZM10.8732 141.596L10.3828 141.773L10.1182 141.04L10.6085 140.862L10.8732 141.596ZM71.3477 141.374L70.2805 143.191L69.6088 142.796L70.676 140.979L71.3477 141.374ZM196.928 141.571L195.521 143.163L194.937 142.646L196.344 141.055L196.928 141.571ZM268.292 143.166L266.732 141.8L267.245 141.213L268.805 142.579L268.292 143.166ZM61.2779 143.662L59.9118 141.921L60.5247 141.439L61.8909 143.181L61.2779 143.662ZM165.239 144.528C165.011 143.873 164.816 143.207 164.656 142.531L165.414 142.351C165.568 143.001 165.755 143.641 165.975 144.27L165.239 144.528ZM148.487 143.848L147.282 145.369L146.672 144.884L147.877 143.363L148.487 143.848ZM270.633 145.215L269.852 144.532L270.365 143.945L271.146 144.628C271.477 144.918 271.787 145.226 272.076 145.551L271.494 146.069C271.227 145.769 270.939 145.484 270.633 145.215ZM194.114 144.754L192.707 146.345L192.123 145.828L193.53 144.237L194.114 144.754ZM115.211 145.583L115.122 144.559L115.898 144.492L115.987 145.516C116.018 145.867 116.082 146.207 116.176 146.533L115.427 146.748C115.319 146.374 115.246 145.985 115.211 145.583ZM69.2134 145.007L68.6798 145.916C68.3987 146.394 68.0203 146.769 67.5878 147.036L67.1791 146.372C67.5053 146.171 67.7926 145.887 68.0081 145.521L68.5416 144.612L69.2134 145.007ZM63.3271 146.275L62.644 145.404L63.257 144.923L63.94 145.794C64.2025 146.128 64.5251 146.371 64.8752 146.527L64.5588 147.239C64.0946 147.033 63.6695 146.712 63.3271 146.275ZM167.006 148.287C166.647 147.692 166.32 147.08 166.026 146.453L166.731 146.121C167.014 146.724 167.329 147.312 167.673 147.884L167.006 148.287ZM146.077 146.89L145.475 147.65C145.233 147.956 144.961 148.233 144.666 148.478L144.168 147.878C144.422 147.667 144.656 147.429 144.864 147.166L145.467 146.405L146.077 146.89ZM191.3 147.936L189.893 149.528L189.309 149.011L190.716 147.42L191.3 147.936ZM273.704 150.336C273.52 149.547 273.238 148.784 272.866 148.064L273.558 147.705C273.96 148.482 274.264 149.307 274.463 150.159L273.704 150.336ZM118.298 150.376C117.608 149.987 116.999 149.466 116.506 148.845L117.117 148.361C117.546 148.903 118.078 149.357 118.681 149.697L118.298 150.376ZM142.631 149.552C142.262 149.657 141.88 149.725 141.491 149.752L140.503 149.822L140.448 149.044L141.437 148.975C141.771 148.951 142.1 148.893 142.417 148.802L142.631 149.552ZM138.526 149.961L136.549 150.101L136.494 149.323L138.471 149.184L138.526 149.961ZM134.571 150.24L132.594 150.379L132.54 149.602L134.517 149.462L134.571 150.24ZM169.506 151.603C169.032 151.094 168.586 150.562 168.17 150.01L168.792 149.54C169.192 150.071 169.62 150.582 170.076 151.072L169.506 151.603ZM130.617 150.519L128.64 150.658L128.585 149.88L130.563 149.741L130.617 150.519ZM126.663 150.797L124.686 150.937L124.631 150.159L126.608 150.02L126.663 150.797ZM122.709 151.076L121.72 151.146C121.319 151.174 120.923 151.163 120.537 151.115L120.633 150.341C120.969 150.383 121.314 150.393 121.666 150.368L122.654 150.298L122.709 151.076ZM188.486 151.119L187.079 152.71L186.495 152.194L187.902 150.602L188.486 151.119ZM171.799 153.715C171.526 153.499 171.259 153.278 170.999 153.05L171.511 152.463C171.761 152.682 172.018 152.895 172.281 153.102L173.065 153.718L172.583 154.331L171.799 153.715ZM273.857 153.954C273.916 153.55 273.949 153.146 273.957 152.745L274.736 152.76C274.727 153.194 274.691 153.63 274.628 154.066L274.484 155.057L273.713 154.945L273.857 153.954ZM185.672 154.301L184.264 155.893L183.681 155.376L185.088 153.785L185.672 154.301ZM175.719 156.798L174.151 155.565L174.633 154.952L176.201 156.185L175.719 156.798ZM273.136 158.908L273.424 156.926L274.195 157.039L273.907 159.02L273.136 158.908ZM182.857 157.484L182.154 158.28C181.897 158.571 181.594 158.8 181.265 158.967L180.914 158.271C181.156 158.148 181.38 157.979 181.57 157.763L182.274 156.967L182.857 157.484ZM178.071 158.649L177.287 158.032L177.769 157.419L178.553 158.036C178.779 158.214 179.029 158.341 179.289 158.418L179.068 159.165C178.715 159.061 178.376 158.889 178.071 158.649ZM272.703 161.881L272.847 160.89L273.618 161.002L273.474 161.993L272.703 161.881Z" fill="url(#paint0_linear)"/>
<path fill-rule="evenodd" clip-rule="evenodd" d="M117.405 151.953C118.84 151.953 120.003 150.79 120.003 149.355C120.003 147.921 118.84 146.758 117.405 146.758C115.971 146.758 114.808 147.921 114.808 149.355C114.808 150.79 115.971 151.953 117.405 151.953ZM117.406 150.654C118.123 150.654 118.705 150.072 118.705 149.355C118.705 148.638 118.123 148.056 117.406 148.056C116.688 148.056 116.107 148.638 116.107 149.355C116.107 150.072 116.688 150.654 117.406 150.654Z" fill="url(#paint1_linear)"/>
<path fill-rule="evenodd" clip-rule="evenodd" d="M143.381 151.693C144.815 151.693 145.978 150.53 145.978 149.096C145.978 147.661 144.815 146.498 143.381 146.498C141.946 146.498 140.783 147.661 140.783 149.096C140.783 150.53 141.946 151.693 143.381 151.693ZM143.381 150.394C144.098 150.394 144.68 149.813 144.68 149.095C144.68 148.378 144.098 147.797 143.381 147.797C142.664 147.797 142.082 148.378 142.082 149.095C142.082 149.813 142.664 150.394 143.381 150.394Z" fill="url(#paint2_linear)"/>
<path fill-rule="evenodd" clip-rule="evenodd" d="M162.862 131.433C164.297 131.433 165.46 130.27 165.46 128.835C165.46 127.4 164.297 126.238 162.862 126.238C161.428 126.238 160.265 127.4 160.265 128.835C160.265 130.27 161.428 131.433 162.862 131.433ZM162.862 130.134C163.58 130.134 164.161 129.552 164.161 128.835C164.161 128.118 163.58 127.536 162.862 127.536C162.145 127.536 161.564 128.118 161.564 128.835C161.564 129.552 162.145 130.134 162.862 130.134Z" fill="url(#paint3_linear)"/>
<path fill-rule="evenodd" clip-rule="evenodd" d="M180.006 160.525C181.44 160.525 182.603 159.362 182.603 157.927C182.603 156.493 181.44 155.33 180.006 155.33C178.571 155.33 177.408 156.493 177.408 157.927C177.408 159.362 178.571 160.525 180.006 160.525ZM180.006 159.226C180.723 159.226 181.304 158.644 181.304 157.927C181.304 157.21 180.723 156.628 180.006 156.628C179.288 156.628 178.707 157.21 178.707 157.927C178.707 158.644 179.288 159.226 180.006 159.226Z" fill="url(#paint4_linear)"/>
<path fill-rule="evenodd" clip-rule="evenodd" d="M225.461 82.8598C226.895 82.8598 228.058 81.6968 228.058 80.2623C228.058 78.8277 226.895 77.6648 225.461 77.6648C224.026 77.6648 222.863 78.8277 222.863 80.2623C222.863 81.6968 224.026 82.8598 225.461 82.8598ZM225.461 81.5611C226.178 81.5611 226.76 80.9796 226.76 80.2623C226.76 79.5451 226.178 78.9636 225.461 78.9636C224.744 78.9636 224.162 79.5451 224.162 80.2623C224.162 80.9796 224.744 81.5611 225.461 81.5611Z" fill="url(#paint5_linear)"/>
<path fill-rule="evenodd" clip-rule="evenodd" d="M264.164 141.822C265.598 141.822 266.761 140.659 266.761 139.225C266.761 137.79 265.598 136.627 264.164 136.627C262.729 136.627 261.566 137.79 261.566 139.225C261.566 140.659 262.729 141.822 264.164 141.822ZM264.164 140.524C264.881 140.524 265.463 139.942 265.463 139.225C265.463 138.508 264.881 137.926 264.164 137.926C263.447 137.926 262.865 138.508 262.865 139.225C262.865 139.942 263.447 140.524 264.164 140.524Z" fill="url(#paint6_linear)"/>
<path fill-rule="evenodd" clip-rule="evenodd" d="M272.996 164.68C274.43 164.68 275.593 163.517 275.593 162.083C275.593 160.648 274.43 159.485 272.996 159.485C271.561 159.485 270.398 160.648 270.398 162.083C270.398 163.517 271.561 164.68 272.996 164.68ZM272.996 163.382C273.713 163.382 274.295 162.8 274.295 162.083C274.295 161.365 273.713 160.784 272.996 160.784C272.279 160.784 271.697 161.365 271.697 162.083C271.697 162.8 272.279 163.382 272.996 163.382Z" fill="url(#paint7_linear)"/>
<path fill-rule="evenodd" clip-rule="evenodd" d="M110.913 119.484C112.347 119.484 113.51 118.321 113.51 116.887C113.51 115.452 112.347 114.289 110.913 114.289C109.478 114.289 108.315 115.452 108.315 116.887C108.315 118.321 109.478 119.484 110.913 119.484ZM110.913 118.185C111.63 118.185 112.212 117.604 112.212 116.887C112.212 116.169 111.63 115.588 110.913 115.588C110.196 115.588 109.614 116.169 109.614 116.887C109.614 117.604 110.196 118.185 110.913 118.185Z" fill="url(#paint8_linear)"/>
<path fill-rule="evenodd" clip-rule="evenodd" d="M81.5613 115.328C82.9959 115.328 84.1588 114.165 84.1588 112.731C84.1588 111.296 82.9959 110.133 81.5613 110.133C80.1268 110.133 78.9639 111.296 78.9639 112.731C78.9639 114.165 80.1268 115.328 81.5613 115.328ZM81.5614 114.03C82.2787 114.03 82.8601 113.448 82.8601 112.731C82.8601 112.014 82.2787 111.432 81.5614 111.432C80.8441 111.432 80.2627 112.014 80.2627 112.731C80.2627 113.448 80.8441 114.03 81.5614 114.03Z" fill="url(#paint9_linear)"/>
<path fill-rule="evenodd" clip-rule="evenodd" d="M52.7283 116.627C54.1629 116.627 55.3258 115.464 55.3258 114.029C55.3258 112.595 54.1629 111.432 52.7283 111.432C51.2938 111.432 50.1309 112.595 50.1309 114.029C50.1309 115.464 51.2938 116.627 52.7283 116.627ZM52.7286 115.328C53.4459 115.328 54.0273 114.747 54.0273 114.029C54.0273 113.312 53.4459 112.731 52.7286 112.731C52.0113 112.731 51.4299 113.312 51.4299 114.029C51.4299 114.747 52.0113 115.328 52.7286 115.328Z" fill="url(#paint10_linear)"/>
<path fill-rule="evenodd" clip-rule="evenodd" d="M58.1834 141.822C59.618 141.822 60.7809 140.659 60.7809 139.225C60.7809 137.79 59.618 136.627 58.1834 136.627C56.7489 136.627 55.5859 137.79 55.5859 139.225C55.5859 140.659 56.7489 141.822 58.1834 141.822ZM58.1841 140.524C58.9014 140.524 59.4829 139.942 59.4829 139.225C59.4829 138.508 58.9014 137.926 58.1841 137.926C57.4668 137.926 56.8854 138.508 56.8854 139.225C56.8854 139.942 57.4668 140.524 58.1841 140.524Z" fill="url(#paint11_linear)"/>
<path fill-rule="evenodd" clip-rule="evenodd" d="M65.9754 149.615C67.41 149.615 68.5729 148.452 68.5729 147.017C68.5729 145.583 67.41 144.42 65.9754 144.42C64.5409 144.42 63.3779 145.583 63.3779 147.017C63.3779 148.452 64.5409 149.615 65.9754 149.615ZM65.976 148.316C66.6932 148.316 67.2747 147.735 67.2747 147.017C67.2747 146.3 66.6932 145.719 65.976 145.719C65.2587 145.719 64.6772 146.3 64.6772 147.017C64.6772 147.735 65.2587 148.316 65.976 148.316Z" fill="url(#paint12_linear)"/>
<path fill-rule="evenodd" clip-rule="evenodd" d="M91.6912 122.341C93.1258 122.341 94.2887 121.179 94.2887 119.744C94.2887 118.309 93.1258 117.146 91.6912 117.146C90.2567 117.146 89.0938 118.309 89.0938 119.744C89.0938 121.179 90.2567 122.341 91.6912 122.341ZM91.6913 121.043C92.4086 121.043 92.9901 120.461 92.9901 119.744C92.9901 119.027 92.4086 118.445 91.6913 118.445C90.974 118.445 90.3926 119.027 90.3926 119.744C90.3926 120.461 90.974 121.043 91.6913 121.043Z" fill="url(#paint13_linear)"/>
<path fill-rule="evenodd" clip-rule="evenodd" d="M9.87092 143.901C11.3055 143.901 12.4684 142.738 12.4684 141.303C12.4684 139.868 11.3055 138.706 9.87092 138.706C8.43637 138.706 7.27344 139.868 7.27344 141.303C7.27344 142.738 8.43637 143.901 9.87092 143.901ZM9.87086 142.602C10.5881 142.602 11.1696 142.02 11.1696 141.303C11.1696 140.586 10.5881 140.004 9.87086 140.004C9.15358 140.004 8.57212 140.586 8.57212 141.303C8.57212 142.02 9.15358 142.602 9.87086 142.602Z" fill="url(#paint14_linear)"/>
<path fill-rule="evenodd" clip-rule="evenodd" d="M26.494 91.4313C27.9285 91.4313 29.0914 90.2684 29.0914 88.8338C29.0914 87.3993 27.9285 86.2363 26.494 86.2363C25.0594 86.2363 23.8965 87.3993 23.8965 88.8338C23.8965 90.2684 25.0594 91.4313 26.494 91.4313ZM26.4946 90.1325C27.2118 90.1325 27.7933 89.551 27.7933 88.8337C27.7933 88.1165 27.2118 87.535 26.4946 87.535C25.7773 87.535 25.1958 88.1165 25.1958 88.8337C25.1958 89.551 25.7773 90.1325 26.4946 90.1325Z" fill="url(#paint15_linear)"/>
<circle cx="272.831" cy="162.266" r="1.3612" fill="white"/>
<ellipse cx="225.461" cy="80.3209" rx="1.3612" ry="1.08896" fill="white"/>
<circle cx="264.119" cy="139.397" r="1.3612" fill="white"/>
<ellipse cx="162.846" cy="128.78" rx="1.3612" ry="1.08896" fill="white"/>
<ellipse cx="179.996" cy="157.91" rx="1.08896" ry="1.3612" fill="white"/>
<circle cx="143.244" cy="149.198" r="1.3612" fill="white"/>
<ellipse cx="117.381" cy="149.198" rx="1.08896" ry="1.3612" fill="white"/>
<circle cx="111.12" cy="117.073" r="1.3612" fill="white"/>
<circle cx="81.7176" cy="112.718" r="1.3612" fill="white"/>
<ellipse cx="52.8602" cy="114.079" rx="1.3612" ry="1.08896" fill="white"/>
<circle cx="58.3046" cy="139.397" r="1.3612" fill="white"/>
<circle cx="65.9286" cy="147.02" r="1.3612" fill="white"/>
<circle cx="91.5184" cy="119.796" r="1.3612" fill="white"/>
<ellipse cx="26.4532" cy="88.7604" rx="1.08896" ry="1.3612" fill="white"/>
<ellipse cx="9.84655" cy="141.303" rx="1.3612" ry="1.08896" fill="white"/>
<path fill-rule="evenodd" clip-rule="evenodd" d="M262.147 116.432L262.198 116.436L262.261 116.441C263.104 116.552 264.018 116.716 264.68 116.834L264.906 116.875C264.99 116.89 265.069 116.904 265.141 116.916L265.616 117C266.231 117.112 266.706 117.391 267.153 117.782C267.874 118.42 268.43 119.443 269.121 120.714L269.138 120.745L269.23 120.908C269.823 121.96 270.499 123.159 271.402 124.434C274.225 128.29 275.288 130.302 277.384 136.953C279.564 143.828 278.698 157.662 277.943 160.903C277.104 164.369 276.685 164.62 275.232 164.983C273.638 165.403 272.632 166.8 271.682 168.141C271.594 168.26 271.509 168.378 271.424 168.495L271.422 168.497L271.421 168.499L271.42 168.5C271.123 168.909 270.832 169.31 270.508 169.678L270.423 169.772C270.206 170.014 270.01 170.232 269.837 170.405C269.938 170.162 270.068 169.89 270.228 169.557C270.289 169.43 270.354 169.294 270.424 169.147C272.595 164.805 269.887 163.125 268.263 162.117L268.243 162.105L268.113 162.025C267.8 161.834 267.514 161.659 267.293 161.462C266.594 160.903 266.343 160.512 266.259 160.316C266.37 160.289 266.566 160.233 266.93 160.205C267.28 160.181 267.533 160.217 267.738 160.245C267.778 160.251 267.816 160.256 267.852 160.261C269.11 160.4 269.306 160.065 270.591 157.829L271.039 157.047C273.24 153.202 270.024 147.913 268.287 145.056L268.271 145.03C268.132 144.806 268.02 144.611 267.908 144.415C267.377 143.521 266.706 143.325 266.259 143.297H266.231C264.721 143.297 263.38 145.365 262.094 147.377C262.028 147.48 261.963 147.586 261.898 147.691C261.767 147.902 261.637 148.113 261.507 148.3C260.808 149.334 260.305 150.004 259.857 150.06C259.494 150.116 258.935 149.809 258.068 149.11C256.43 147.777 254.791 147.907 252.687 148.073L252.646 148.076L252.369 148.096L252.369 148.096C251.237 148.176 249.974 148.265 248.425 148.188C245.813 148.021 244.196 146.143 242.475 144.145L242.443 144.108L242.247 143.883C241.162 142.637 240.037 141.345 238.613 140.475C234.476 137.904 231.597 138.602 226.286 141.285C223.351 142.766 221.953 144.303 222.065 145.812C222.177 146.958 223.099 147.629 223.882 147.852C223.882 147.852 224.357 148.132 224.469 150.619C224.525 152.156 224.441 154.196 224.189 157.019C223.826 161.239 222.764 161.323 216.894 161.742C212.701 162.049 211.974 162.664 210.548 164.425C210.017 165.067 209.346 165.878 208.2 166.884C204.93 169.79 200.961 170.405 196.041 168.756C192.547 167.582 191.904 167.75 189.388 168.672C188.689 168.924 187.823 169.231 186.649 169.595C182.868 170.762 181.962 169.524 180.605 167.669L180.583 167.638L180.582 167.637C180.33 167.302 180.079 166.967 179.8 166.604C178.822 165.403 177.061 164.564 175.132 164.397C172.98 164.201 170.911 164.816 169.485 166.073C167.696 167.638 167.976 169.455 168.228 170.936C168.423 172.11 168.507 172.892 167.948 173.479C166.606 174.932 159.87 173.647 156.012 171.663C153.177 170.204 149.419 172.73 146.049 174.995L145.893 175.1C144.44 176.106 143.042 177.028 141.952 177.503C138.262 179.068 134.516 174.96 132.587 172.361C130.631 169.678 127.388 169.287 124.789 168.98C123.363 168.812 122.021 168.644 121.294 168.141C120.009 167.247 118.695 163.167 117.744 160.177C117.129 158.22 116.57 156.544 116.067 155.538C115.396 154.224 114.334 153.889 113.244 153.889C112.671 153.889 112.078 153.991 111.5 154.09C111.4 154.107 111.302 154.124 111.203 154.14L111.075 154.164C110.023 154.353 108.924 154.551 107.877 154.336C105.332 153.811 104.101 151.041 103.101 148.79L103.069 148.719L102.873 148.244C101.532 145.17 98.7364 144.108 92.5308 144.303C85.9619 144.527 82.5516 143.716 79.4488 142.459C78.163 141.928 77.2685 141.732 76.6815 142.235C76.0992 142.734 76.2596 143.536 76.4259 144.367L76.4299 144.387L76.4588 144.521C76.5377 144.884 76.6287 145.303 76.6535 145.701C76.7094 146.511 76.5976 146.595 75.8149 147.098L75.8053 147.104C75.1913 147.495 74.356 148.026 73.3271 149.166C71.4543 151.206 72.209 152.38 73.0756 153.33C73.1065 153.365 73.1382 153.401 73.1696 153.436C73.3364 153.622 73.4949 153.799 73.4949 153.917C73.4949 154.196 73.2153 154.643 72.7122 154.895C72.3208 155.091 71.4822 155.342 70.42 154.587C70.2748 154.491 70.1297 154.385 69.9791 154.275L69.9789 154.274L69.9787 154.274C69.8685 154.194 69.7554 154.111 69.6373 154.029C67.6527 152.575 65.1649 150.787 60.9719 149.445C58.7381 148.747 57.2852 146.767 55.7497 144.673L55.7447 144.667L55.6429 144.529C54.2495 142.643 52.813 140.699 50.6573 139.58C46.9427 137.626 44.7909 139.438 43.198 140.779L43.1938 140.782C43.1389 140.827 43.0843 140.873 43.0302 140.917C42.6159 141.261 42.2261 141.584 41.88 141.732C41.1532 142.096 40.8458 142.096 40.706 142.068C40.3985 141.956 39.9513 140.978 39.6158 140.223C39.2804 139.441 38.7493 139.217 38.358 139.161C36.9883 138.938 35.4788 140.475 33.4941 142.654C33.1866 142.99 32.8792 143.325 32.6276 143.605C30.7547 145.561 31.5654 147.042 32.3481 148.467C32.3919 148.555 32.4401 148.643 32.4892 148.732C32.5652 148.871 32.6435 149.013 32.7114 149.166C33.2985 150.368 33.2985 150.368 32.9351 151.849C32.8233 152.296 32.6835 152.855 32.5158 153.581C32.0965 155.51 30.3634 155.873 27.5961 156.264C26.7295 156.376 25.8071 156.516 24.9685 156.739C21.6141 157.662 21.4184 158.304 21.9775 160.903L22.0055 161.071C22.285 162.412 21.9775 162.748 21.3066 163.446C21.2541 163.504 21.1996 163.563 21.1435 163.623L21.1433 163.624C20.9009 163.885 20.6286 164.179 20.3562 164.564C19.4803 165.85 19.6497 167.539 19.7884 168.92L19.7972 169.008C19.8531 169.483 19.909 169.958 19.881 170.265C19.8531 170.712 19.4338 171.411 18.8188 171.83C18.4834 172.054 17.9523 172.249 17.3932 172.026C16.6105 171.718 16.4428 170.824 16.1353 168.644L16.0962 168.369C15.9637 167.435 15.7997 166.278 15.5204 164.983C14.5455 160.5 12.1829 158.32 8.93042 155.318L8.8955 155.286L8.30849 154.727C5.625 152.24 3.50057 145.058 2.27064 140.782C1.9352 139.636 1.65567 138.714 1.46 138.099C1.34819 137.764 1.32024 137.596 1.32024 137.512V137.456C1.52675 137.276 2.5199 137.357 3.22105 137.415H3.22116H3.22122L3.38876 137.429L3.52209 137.439C4.58069 137.521 5.78325 137.614 6.88288 137.373C8.83959 136.953 9.31479 136.339 9.73409 135.528C9.92976 135.165 10.0975 134.858 10.6565 134.438C11.6817 133.718 12.2949 133.986 13.6123 134.563L13.6475 134.578C13.7714 134.631 13.9037 134.69 14.0426 134.751C14.3425 134.884 14.6733 135.031 15.0172 135.165C15.8558 135.472 16.7503 135.388 17.6168 134.941C19.322 134.047 20.6637 131.923 21.083 130.274C21.8657 127.2 16.8341 120.689 16.6105 120.409C15.129 118.509 15.8278 114.597 16.7782 112.389C17.7007 110.293 16.6385 109.594 15.8558 109.091C15.8085 109.057 15.7612 109.023 15.7141 108.989L15.7139 108.989L15.7136 108.989L15.7125 108.988C15.454 108.804 15.2017 108.624 14.9893 108.365C14.6293 107.894 14.1871 107.588 13.8256 107.338L13.8255 107.338L13.8152 107.331C13.5077 107.135 13.2003 106.911 13.1723 106.772L13.1722 106.763C13.1708 106.69 13.1655 106.406 13.6196 105.766C14.2625 104.815 14.3743 104.843 14.9054 104.983C15.3806 105.123 16.1353 105.29 17.2255 105.067C18.9742 104.706 19.2345 102.913 19.4844 101.191L19.4897 101.154L19.4962 101.108C19.6897 99.7251 19.8903 98.2925 20.7196 97.2699C22.4493 95.1223 22.1186 93.587 21.7282 91.7752L21.7259 91.7645L21.7259 91.7644C21.5861 91.0938 21.4464 90.4231 21.3625 89.6127C21.1389 87.1255 23.1515 83.9117 26.5338 81.4524C27.9994 80.3742 29.1367 80.7182 30.3246 81.0774L30.3634 81.0891L30.4024 81.1007C31.4271 81.4055 32.5868 81.7503 33.7737 81.0053C34.4166 80.614 34.8079 80.0271 34.9197 79.3285C35.0595 78.4342 34.7241 77.512 34.3607 76.8133L47.247 76.8692V71.28C47.6104 71.3079 48.1695 71.3359 48.7844 71.0564C49.5951 70.6652 49.7348 70.3298 49.8466 69.6871C49.9025 69.2958 50.0143 68.709 50.5455 67.5632C51.1471 66.2234 52.0966 65.6594 53.106 65.0599L53.173 65.0201L53.2532 64.9726C53.9829 64.5409 54.7312 64.0981 55.2975 63.3433C55.6329 62.8962 55.8845 62.477 56.0801 62.1137L56.0928 62.0917C56.6158 61.1834 56.9033 60.6842 58.4562 60.1574C60.4384 59.4875 60.8591 58.1207 61.1943 57.0314L61.1955 57.0275C61.3353 56.5524 61.503 56.0773 61.7546 55.686C62.4255 54.68 63.9629 54.7079 66.7023 55.1551C68.0981 55.3783 68.1278 55.6852 68.2949 57.4119L68.2956 57.4187C68.3041 57.5041 68.3127 57.5928 68.3215 57.6847L68.322 57.6894C68.3709 58.1976 68.4291 58.8023 68.5472 59.4867C68.9665 61.8342 69.9448 65.3275 70.6996 67.8985C70.9791 68.8487 71.2027 69.6871 71.3704 70.3298C71.5941 71.2241 71.3704 72.2302 70.7555 72.9847C70.0566 73.8511 68.9944 74.2982 67.8204 74.2423C65.4164 74.1305 63.4318 72.0066 62.3975 68.4574C61.5589 65.6069 60.4129 65.3275 59.7979 65.3834C59.1829 65.4672 58.1766 65.9982 58.0648 68.7648C58.0089 70.0783 57.3101 70.8888 56.4715 71.8389L56.4389 71.8775C55.3843 73.1257 54.1825 74.5483 54.4868 77.1208C54.6266 78.3504 54.9061 79.6359 55.8286 79.8874C56.7966 80.1639 57.573 79.1546 58.4016 78.0776L58.4282 78.043C58.6518 77.7635 58.8475 77.512 59.0152 77.2884C59.0781 77.2046 59.141 77.1522 59.1803 77.1194L59.1805 77.1193C59.1935 77.1084 59.2039 77.0998 59.2109 77.0928C59.4065 77.3443 59.714 78.0709 59.9377 78.6019C59.9736 78.6858 60.0109 78.7736 60.0494 78.8643L60.0495 78.8646C60.1907 79.1971 60.3491 79.5702 60.5247 79.9433C60.8322 80.5861 61.1396 81.1729 61.7266 81.2847C62.2857 81.3965 62.705 81.0611 63.1243 80.6979C63.7113 80.1948 64.5779 79.4682 66.3668 79.0211C67.2893 78.7975 67.6527 78.8255 67.7645 78.8534C67.7924 78.9372 67.7924 79.077 67.7924 79.1608L67.7949 79.1954C67.8224 79.586 67.8621 80.1503 68.3236 80.5302C68.7149 80.8655 69.274 81.0053 70.1125 80.9214C72.2857 80.7265 73.0982 79.421 73.8785 78.1672L73.8862 78.1548C74.4173 77.2605 74.9764 76.3662 76.0665 75.5278C76.2298 75.3996 76.3882 75.281 76.5418 75.1661L76.5421 75.1659C76.7565 75.0055 76.9613 74.8522 77.1567 74.6894C78.0512 73.9908 79.0575 73.2083 79.4209 73.1524L79.4209 73.1525C79.4489 73.2084 79.5048 73.3201 79.5607 73.5157C79.8681 74.6894 79.4209 75.2763 77.7717 75.8632C76.7094 76.2544 76.3461 76.9251 76.2063 77.4002C75.9547 78.3504 76.374 79.4962 77.4642 80.7817C78.6687 82.2048 80.731 81.591 82.7586 80.9876L82.7586 80.9876L82.8871 80.9494L82.9861 80.9192C84.2416 80.5369 85.544 80.1404 86.6607 80.1948H86.8564L87.1309 80.2099L87.1312 80.21C87.9804 80.2565 88.5293 80.2866 88.7572 80.3625C88.8553 80.387 88.8888 80.433 89.1031 80.7269C89.1331 80.768 89.1667 80.814 89.2044 80.8655L89.2326 80.9052L89.2688 80.9566L89.3406 81.0593L89.341 81.0599L89.3414 81.0604C89.4541 81.222 89.5885 81.4147 89.7635 81.648C90.9655 83.241 91.832 83.2968 93.2576 83.213C93.391 83.213 93.5308 83.2066 93.6769 83.2H93.6771H93.6773H93.6775H93.6777C93.8375 83.1927 94.005 83.1851 94.1801 83.1851C95.8852 83.1851 98.0935 84.0514 98.5407 85.281C98.7923 86.0356 99.3514 86.4827 100.078 86.4827C101.224 86.4827 102.594 85.2251 103.125 83.6881C103.293 83.213 103.6 82.5982 104.187 82.4305C104.718 82.2628 105.389 82.4864 106.144 83.0453C107.989 84.4426 109.778 87.2932 110.225 89.0258C110.644 90.6187 111.343 91.6248 112.238 91.8204C112.601 91.9043 113.3 91.9322 113.999 91.1218C115.023 89.9595 114.841 87.7011 114.647 85.2963L114.642 85.2251C114.586 84.6662 114.558 84.1632 114.53 83.6601C114.39 81.2847 115.005 79.9154 116.934 78.2386C118.637 76.7554 119.341 75.2723 119.869 74.1606L119.869 74.1605L119.869 74.1604L119.897 74.1026L119.922 74.0481L119.922 74.048L119.922 74.0475L119.922 74.0473L119.922 74.0469C120.079 73.7077 120.213 73.4175 120.372 73.1524C120.568 72.817 120.596 72.7891 121.798 73.3201L121.965 73.3902C122.262 73.5142 122.597 73.6547 122.972 73.7952C123.083 73.8231 123.223 73.879 123.335 73.9349C123.321 73.9557 123.309 73.9782 123.298 74.0015C123.286 74.0253 123.276 74.05 123.265 74.0746C123.244 74.1235 123.223 74.1724 123.195 74.2143C122.832 74.8851 122.245 76.0029 121.63 77.9312C120.735 80.6699 120.372 83.0453 120.009 85.5605L119.969 85.8141C119.674 87.691 119.37 89.6313 118.835 91.9043C118.031 95.2553 116.459 95.5325 114.119 95.9452L114.055 95.9565C113.972 95.972 113.889 95.9876 113.805 96.0033C112.833 96.1852 111.751 96.3878 110.644 96.8507C109.359 97.4097 108.772 98.1083 108.939 98.9188C109.303 100.763 113.915 101.518 116.319 101.518C120.092 101.518 121.211 99.7012 123.028 96.6831C123.251 96.3198 123.475 95.9565 123.726 95.5652C123.978 95.174 124.23 94.9504 124.425 94.9225C124.9 94.8945 125.655 95.7888 126.13 96.4036C126.829 97.242 127.444 97.9686 128.227 97.773C128.982 97.5773 129.205 96.6551 129.261 96.3198C130.127 92.2973 127.307 90.3131 125.043 88.7205L125.04 88.7184L124.984 88.6905C123.782 87.8434 124.476 85.3401 125.109 83.061L125.152 82.9056C125.432 81.9275 125.683 80.9773 125.823 80.1389C126.097 78.4948 126.29 78.3016 126.746 77.8468L126.773 77.8194C127.109 77.512 127.556 77.0928 128.171 76.2265C128.311 76.6736 128.562 77.1766 129.093 77.4282C129.513 77.6238 129.96 77.6238 130.491 77.4002L130.575 77.3723C130.693 77.3294 130.811 77.2824 130.919 77.2393C131.093 77.1698 131.243 77.11 131.33 77.0928C131.413 77.2043 131.552 77.3991 131.692 77.5942L131.693 77.5958C132.028 78.0989 132.532 78.8255 133.426 79.8595C134.546 81.1424 135.052 83.4386 135.465 85.3155L135.495 85.4487L135.515 85.5435C135.951 87.5303 136.237 88.835 137.2 89.1376C137.703 89.2773 138.234 89.1096 138.737 88.5787C141.169 86.1474 140.107 81.8157 137.899 79.0211C136.333 77.0648 136.165 75.4719 135.998 73.8231C135.991 73.7744 135.986 73.7258 135.981 73.6771C135.979 73.648 135.976 73.6189 135.974 73.5898C135.973 73.5698 135.971 73.5497 135.97 73.5297C135.963 73.4319 135.956 73.334 135.942 73.2362C135.914 72.9847 135.97 72.9288 135.998 72.9009C136.361 72.5096 138.01 72.5096 139.436 72.5096H141.169C143.685 72.4543 144.642 70.1294 145.42 68.2397L145.446 68.178C145.487 68.0811 145.527 67.9844 145.567 67.8884C145.966 66.9322 146.338 66.0412 146.871 65.6349C148.688 64.1537 151.735 62.8682 155.453 62.0019C158.606 61.2831 159.515 58.8685 160.319 56.7334L160.345 56.6642L160.392 56.5403C160.681 55.7768 160.95 55.0663 161.295 54.4564C161.639 53.8667 161.875 53.5794 162.003 53.4237L162.004 53.4229L162.007 53.4189C162.023 53.3994 162.037 53.3821 162.05 53.3665C162.162 53.4783 162.302 53.646 162.413 53.7857C162.553 53.9813 162.721 54.1769 162.944 54.4005C164.426 56.0493 166.522 56.6921 168.339 56.0773C169.457 55.686 170.967 55.6581 172.784 58.8999C173.814 60.709 171.711 64.0983 169.844 67.1074L169.821 67.144C168.703 68.9325 167.668 70.6093 167.193 72.0345C166.886 72.9568 166.634 73.9349 167.333 74.3541C168.083 74.8263 168.861 74.1114 170.572 72.5388L170.604 72.5096L170.703 72.4161L170.703 72.416C171.575 71.5993 172.568 70.6673 173.511 69.9945C175.075 68.8692 175.724 68.7682 176.594 68.6326L176.641 68.6251L176.761 68.607C177.469 68.4995 178.373 68.3624 179.828 67.6749C182.216 66.5647 182.37 66.6674 183.029 67.107L183.043 67.116C183.096 67.1514 183.152 67.1896 183.21 67.2297C183.337 67.3162 183.477 67.4118 183.63 67.5073C184.468 68.0103 185.838 68.0103 187.291 67.5352C188.773 67.0322 189.891 66.1938 190.255 65.2716C190.64 64.3083 190.293 63.6161 190.096 63.2216L190.087 63.2036C190.171 63.1477 190.31 63.0918 190.534 63.0079C191.848 62.5329 195.09 61.6386 196.516 63.483C198.501 65.9982 200.765 67.8147 203.225 68.8766C203.588 69.0443 204.734 69.5194 205.461 68.8207C206.355 67.9544 205.824 66.2776 204.93 63.7904L204.818 63.511C204.79 63.4551 204.79 63.4271 204.79 63.4271C204.902 63.1477 206.048 62.8123 206.747 62.6167L206.819 62.5947C208.825 61.9823 211.525 61.1579 211.415 58.3689C211.275 54.5961 211.666 54.0931 215.244 50.8234C217.593 48.6436 217.76 48.6436 219.801 48.7554C220.695 48.8113 221.925 48.8672 223.742 48.7833C227.851 48.5877 228.606 47.386 229.584 45.2342L229.625 45.146C230.118 44.0766 230.685 42.8477 232.072 41.4335C234.225 39.1978 235.035 39.7567 236.237 40.5951L236.292 40.6327C237.065 41.1571 238.002 41.7935 239.312 41.6571C241.436 41.4614 241.66 40.12 241.856 38.8066C242.023 37.7446 242.247 36.4311 243.449 34.95C244.945 33.0948 246.303 32.2273 247.307 31.5863L247.335 31.5685L247.364 31.5503C248.245 30.9998 248.959 30.5533 249.291 29.7241C249.79 28.5062 248.286 27.8914 247.062 27.391L247.027 27.3766C246.552 27.181 245.126 26.5941 245.07 26.2867C245.07 26.2867 245.07 26.119 245.434 25.8116C247.53 23.9113 247.67 23.7715 248.117 22.5978C248.147 22.5236 248.177 22.4455 248.208 22.3619C248.296 22.1305 248.4 21.8569 248.564 21.5079L248.732 21.1446L248.738 21.1301C249.603 19.1233 250.42 17.2261 254.714 14.717C259.494 11.9224 269.222 1.94558 269.697 1.44255C269.781 1.35871 269.837 1.30282 269.893 1.27487C270.032 1.4146 270.228 1.80585 270.34 2.05736C270.48 2.33682 270.647 2.61629 270.815 2.89575C271.03 3.21853 271.012 3.36008 270.961 3.76895L270.955 3.81797C270.871 4.23716 270.787 4.79609 270.927 5.63447C271.178 7.1136 272.767 7.2271 273.941 7.3109L273.946 7.31124L274.05 7.3202C274.671 7.37357 275.385 7.43494 275.623 7.64659L275.651 7.67454C275.575 7.95382 274.876 8.53297 274.371 8.95094L274.361 8.95892L274.351 8.96731C274.307 9.00354 274.265 9.03849 274.225 9.07185L274.225 9.07222C273.778 9.43539 273.331 9.79857 272.967 10.1617C272.632 10.4971 271.598 10.9442 270.591 11.3634C268.048 12.4254 264.526 13.9065 265.001 16.6173C265.363 18.7054 266.946 19.268 268.201 19.7143L268.215 19.7193C269.306 20.1106 269.976 20.39 270.172 21.1446C270.368 21.8432 269.976 22.2345 269.11 22.9331C268.523 23.4082 267.908 23.9113 267.908 24.6658C267.908 25.1688 268.159 25.6439 268.719 26.119C270.48 27.6002 272.911 26.3146 275.064 25.1688C276.098 24.6099 277.076 24.1069 277.915 23.8833C278.838 23.6597 279.145 23.6597 279.257 23.6877C279.402 24.0259 279.15 25.3246 278.862 26.8077L278.862 26.808C278.817 27.0406 278.771 27.2777 278.726 27.5163C277.887 31.5685 279.564 36.1517 280.682 39.1978C280.762 39.4103 280.836 39.6164 280.906 39.8133L280.906 39.8154L280.908 39.82C280.984 40.0349 281.057 40.2387 281.13 40.4274C281.437 41.3497 281.828 42.1601 282.164 42.8029C282.416 43.3059 282.723 43.9766 282.751 44.2281H282.723C280.766 44.815 277.803 47.945 278.223 53.8416C278.642 59.5706 280.459 63.1477 283.813 64.7965C284.779 65.2671 285.68 65.5841 286.475 65.8641L286.476 65.8643L286.476 65.8644L286.63 65.9184L286.776 65.9702C287.922 66.3615 288.929 66.7248 289.012 67.144C289.348 68.7648 291.249 70.6652 293.541 71.6992C294.07 71.9319 294.399 72.0765 294.595 72.3254C294.918 72.7343 294.886 73.4245 294.799 75.2484C294.771 75.8352 294.743 76.5059 294.715 77.3164C294.603 81.4524 295.973 82.7659 297.091 83.8278C297.426 84.1352 297.706 84.4147 297.901 84.7221C298.74 86.0356 299.69 89.1655 299.886 90.5349C298.824 90.1995 295.609 88.7464 284.428 82.4864L283.813 82.1511C280.347 80.2228 278.782 73.0127 277.747 68.2339L277.663 67.8567L277.662 67.8545C277.393 66.6518 277.165 65.6348 276.937 64.8244C274.589 56.6362 272.66 52.081 270.927 50.4881C269.501 49.2025 268.383 48.7833 267.572 49.2864C266.818 49.7615 266.678 50.7955 267.153 52.4163C267.442 53.4154 268.078 54.7114 268.711 56.0016L268.711 56.002L268.83 56.245L268.924 56.4369L268.925 56.4371C269.614 57.8419 270.776 60.2093 270.535 60.7164C270.312 61.0517 269.921 60.9958 268.299 60.2972L268.211 60.2595L268.211 60.2593C267.648 60.0178 267.032 59.7536 266.315 59.5147C265.532 59.2632 264.833 59.4029 264.33 59.9618C262.681 61.6945 263.463 67.2837 265.141 71.4477C266.325 74.3932 267.102 75.1694 267.552 75.6193L267.572 75.6396C267.852 75.8911 267.908 75.947 267.964 76.9531C268.02 78.1548 267.489 79.3005 266.594 79.8874C265.951 80.3066 265.196 80.3066 264.498 79.9433C262.932 79.1049 261.059 81.0053 258.907 83.7999C258.965 83.8382 259.021 83.8766 259.077 83.9151C259.076 83.923 259.075 83.9312 259.075 83.9396C258.795 88.1595 257.23 96.8507 255.441 104.564C254.568 108.316 253.583 111.846 252.832 114.539L252.832 114.541L252.831 114.542C252.453 115.899 252.134 117.042 251.919 117.894C251.611 119.152 252.059 120.465 253.093 121.248C253.121 121.276 253.149 121.304 253.205 121.332C254.77 122.421 256.615 122.785 257.817 122.226C257.901 122.184 257.985 122.149 258.068 122.114C258.152 122.079 258.236 122.044 258.32 122.002L258.383 121.974C259.533 121.454 260.59 120.976 260.92 119.878C261.171 119.096 260.976 118.23 260.333 117.112C260.333 117.098 260.326 117.091 260.319 117.084C260.312 117.077 260.305 117.07 260.305 117.056C260.109 116.72 260.081 116.553 260.081 116.497C260.249 116.357 260.64 116.329 261.171 116.357C261.189 116.357 261.207 116.357 261.224 116.358C261.248 116.358 261.271 116.359 261.294 116.359C261.286 116.367 261.277 116.374 261.268 116.381L261.246 116.398L261.227 116.413C261.44 116.413 261.663 116.435 261.898 116.459C261.951 116.464 262.004 116.47 262.057 116.475C262.143 116.483 262.229 116.491 262.317 116.497C262.261 116.478 262.204 116.456 262.147 116.432ZM260.051 84.6596C260.629 83.8911 261.207 83.2044 261.758 82.6261C263.209 81.044 263.714 81.1786 263.79 81.1989L263.794 81.2001L263.797 81.2006L263.799 81.2009C264.973 81.8437 266.259 81.8157 267.377 81.117C268.719 80.2787 269.501 78.6298 269.417 76.8972C269.361 75.5278 269.166 75.1645 268.607 74.6056C268.215 74.2423 267.6 73.6275 266.51 70.9167C264.777 66.585 264.47 61.918 265.42 60.9679C265.476 60.884 265.588 60.8002 265.895 60.912C266.594 61.1635 267.209 61.415 267.768 61.6665L267.788 61.6752C269.346 62.3427 270.819 62.9738 271.765 61.5547C272.492 60.4928 271.626 58.6204 270.144 55.6581C269.501 54.3726 268.83 53.0312 268.579 52.081C268.299 51.1588 268.355 50.7396 268.383 50.5998C268.551 50.6278 269.026 50.7675 269.976 51.6339C271.458 52.9753 273.359 57.5864 275.567 65.2716C275.819 66.11 276.07 67.2558 276.35 68.5972L276.358 68.637C277.504 73.9433 279.071 81.2065 283.114 83.4645L283.729 83.7999C298.405 92.0161 300.082 92.3793 300.865 92.044C301.116 91.9322 301.284 91.7086 301.34 91.4571C301.759 90.3113 300.361 85.812 299.299 84.1911C298.992 83.716 298.628 83.3527 298.265 83.0174L298.244 82.9967C297.272 82.0529 296.253 81.0637 296.336 77.5958C296.364 76.7854 296.392 76.1147 296.42 75.5558C296.56 72.3978 296.588 71.6712 294.323 70.6372C292.255 69.715 290.829 68.0941 290.606 67.0881C290.36 65.8878 289.103 65.4331 287.535 64.8663L287.419 64.8244C286.581 64.545 285.63 64.2096 284.624 63.7066C281.773 62.3093 280.207 59.1234 279.844 53.9534C279.48 48.6995 282.024 46.2123 283.31 45.821C283.785 45.6813 284.093 45.4298 284.26 45.0386C284.568 44.312 284.177 43.4736 283.617 42.3557L283.598 42.3148C283.295 41.681 282.941 40.9413 282.667 40.148C282.57 39.8957 282.473 39.6164 282.367 39.3102C282.32 39.1755 282.271 39.0356 282.22 38.8904C281.158 36.0119 279.564 31.6523 280.319 27.9914C280.962 24.8614 281.214 23.548 280.431 22.8214C279.788 22.2065 278.782 22.4022 277.747 22.6816C276.785 22.9222 275.746 23.4696 274.727 24.0059L274.589 24.0789C272.772 25.0571 270.871 26.0352 269.865 25.1968C269.641 25.0291 269.585 24.9173 269.557 24.8614C269.613 24.7217 269.976 24.4143 270.228 24.2466C271.039 23.6039 272.241 22.6257 271.765 20.949C271.351 19.4297 270.008 18.948 268.924 18.5592L268.886 18.5456C267.6 18.0985 266.818 17.7352 266.594 16.5335C266.316 14.9779 269.159 13.7813 271.28 12.8888L271.318 12.8725C271.414 12.8309 271.508 12.7901 271.601 12.75L271.64 12.7331L271.643 12.7317L271.644 12.7315C272.778 12.2408 273.684 11.8488 274.169 11.3634C274.505 11.0281 274.924 10.6927 275.343 10.3574C276.378 9.51899 277.272 8.79239 277.3 7.87016C277.3 7.5907 277.244 7.14356 276.825 6.75232C276.182 6.16545 275.204 6.08161 274.253 6.02572C273.303 5.96983 272.632 5.88599 272.576 5.55063C272.476 5.02684 272.532 4.68114 272.585 4.35459L272.593 4.30553L272.604 4.23716L272.609 4.20313C272.692 3.67991 272.788 3.07411 272.269 2.28093C272.129 2.08531 271.989 1.83379 271.877 1.58228L271.876 1.57915C271.513 0.881372 271.121 0.128911 270.34 0.0172932C269.865 -0.0665453 269.389 0.157024 268.914 0.632109L268.875 0.672188L268.874 0.672672L268.874 0.673364L268.873 0.673627C268.168 1.39237 258.703 11.0314 254.239 13.655C249.554 16.415 248.597 18.6188 247.677 20.738L247.67 20.7533L247.502 21.1166C247.314 21.5391 247.186 21.863 247.083 22.1214L247.083 22.1224L247.083 22.1228L247.082 22.1231L247.027 22.2624C246.934 22.5095 246.867 22.6884 246.777 22.8549C246.542 23.2911 246.151 23.6432 244.735 24.9173C244.064 25.5042 243.784 26.119 243.896 26.7338C244.088 27.8279 245.377 28.3598 246.637 28.8797L246.72 28.9136L246.775 28.9378L246.857 28.9728L246.922 29.0008L247.031 29.0471L247.032 29.0473C247.428 29.2154 247.87 29.4031 248.089 29.5564C247.872 29.8548 247.444 30.1269 246.857 30.5005L246.803 30.5345L246.748 30.5699C245.662 31.2654 244.176 32.2176 242.555 34.2234C241.154 35.9806 240.887 37.549 240.692 38.6901L240.682 38.7507C240.458 40.0362 240.402 40.2877 239.424 40.3995C238.615 40.4832 238 40.0656 237.303 39.5916L237.299 39.5891C235.65 38.4433 234.057 37.7446 231.262 40.6231C229.668 42.2719 228.997 43.6971 228.494 44.8429C227.684 46.6035 227.32 47.386 223.91 47.5537C222.149 47.6376 220.975 47.5817 220.108 47.5258C217.648 47.414 217.117 47.5537 214.49 49.985C210.828 53.3665 210.045 54.2328 210.185 58.6483C210.241 60.2413 208.703 60.8281 206.523 61.4709L206.453 61.4922C205.196 61.8745 204.084 62.2127 203.672 63.0359C203.532 63.2874 203.42 63.7345 203.616 64.2655L203.728 64.545C203.764 64.65 203.806 64.7703 203.852 64.902L203.852 64.9021C204.2 65.8918 204.77 67.517 204.622 68.0103C204.538 68.0103 204.343 67.9824 203.951 67.8147C201.715 66.8645 199.647 65.1877 197.802 62.8682C196.376 61.0517 193.609 60.7164 190.199 61.946C189.584 62.1696 188.997 62.4211 188.773 62.98C188.583 63.4685 188.788 63.8779 188.928 64.157L188.941 64.1817C189.108 64.517 189.192 64.6847 189.053 65.0201C188.857 65.5231 187.99 66.11 186.956 66.4453C185.95 66.7807 184.943 66.8366 184.496 66.5571C184.301 66.4454 184.133 66.3336 183.965 66.2219L183.965 66.2217C182.791 65.4113 182.176 65.3275 179.325 66.6689C177.983 67.2837 177.256 67.3955 176.558 67.4793L176.506 67.4866C175.547 67.6234 174.624 67.7548 172.784 69.1002C171.722 69.8827 170.659 70.8608 169.737 71.7271C169.583 71.8671 169.415 72.021 169.247 72.175C169.08 72.3284 168.912 72.4819 168.759 72.6214C169.206 71.3918 170.156 69.8268 171.191 68.178L171.222 68.1276C173.392 64.6221 175.628 61.0115 174.182 58.4527C172.393 55.2948 170.38 54.149 168.004 54.9874C166.774 55.4066 165.237 54.9036 164.146 53.7298L164.145 53.7281C163.978 53.533 163.811 53.3381 163.671 53.1709L163.661 53.1584C163.218 52.6041 162.799 52.0814 162.106 52.1369C161.407 52.1928 160.848 52.8635 160.177 53.9813C159.73 54.7359 159.394 55.6022 159.087 56.4406C158.36 58.4248 157.661 60.2972 155.229 60.8561C151.232 61.7783 148.073 63.1477 146.061 64.7685C145.194 65.4672 144.719 66.6409 144.216 67.8985C143.405 69.9386 142.734 71.28 141.253 71.3079C140.861 71.3266 140.481 71.3203 140.105 71.3141H140.105C139.918 71.311 139.733 71.3079 139.548 71.3079L139.355 71.3079C137.275 71.3071 135.779 71.3065 135.019 72.1743C134.684 72.5655 134.544 73.0406 134.6 73.6554C134.614 73.7498 134.621 73.8441 134.627 73.9353C134.635 74.0332 134.642 74.1275 134.656 74.2143C134.824 75.9191 135.019 77.8753 136.836 80.1669C138.43 82.1511 139.771 85.84 137.815 87.7962C137.782 87.8289 137.749 87.8521 137.722 87.8713C137.703 87.8848 137.687 87.8964 137.675 87.908C137.439 87.5145 137.203 86.4313 137.013 85.5603L137.013 85.56L136.976 85.3928C136.529 83.3248 135.97 80.7537 134.6 79.1608C133.841 78.275 133.379 77.6183 133.05 77.1494L133.049 77.149L133.049 77.1488L132.951 77.009C132 75.6117 131.609 75.6396 130.072 76.2824L129.988 76.3103C129.848 76.3662 129.764 76.3662 129.764 76.3662C129.68 76.2824 129.541 75.9191 129.485 75.7234L129.469 75.6741C129.332 75.2323 129.154 74.6584 128.534 74.5776C127.891 74.4659 127.444 75.0527 127.053 75.5837C126.6 76.2509 126.249 76.593 125.964 76.8699C125.915 76.9178 125.868 76.9637 125.823 77.009C125.124 77.6797 124.761 78.0709 124.425 80.1389C124.342 80.7036 124.164 81.3466 123.974 82.0326L123.974 82.0327C123.911 82.2634 123.846 82.4989 123.782 82.7379L123.781 82.7418C122.999 85.5075 122.106 88.6632 124.174 90.0878L124.23 90.1157L124.238 90.1218C126.443 91.6845 128.533 93.1658 127.891 96.2359C127.891 96.2687 127.882 96.3014 127.874 96.3285L127.874 96.3286C127.868 96.3478 127.863 96.3641 127.863 96.3756C127.717 96.2297 127.556 96.037 127.414 95.8674L127.363 95.8069C127.333 95.7711 127.304 95.7369 127.276 95.7049L127.237 95.6587C126.462 94.7449 125.523 93.6383 124.341 93.7208C123.643 93.7767 123.028 94.2238 122.524 95.0342C122.411 95.2104 122.304 95.3865 122.199 95.5575C122.072 95.7664 121.949 95.9677 121.826 96.1521L121.815 96.1694C120.034 99.0912 119.304 100.288 116.347 100.288C113.635 100.288 110.84 99.4218 110.421 98.8629C110.505 98.779 110.7 98.6113 111.231 98.3878C112.294 97.9406 113.328 97.745 114.334 97.5773C116.738 97.1581 119.226 96.711 120.26 92.4352C120.825 90.0963 121.131 88.1194 121.427 86.206L121.462 85.9797C121.826 83.5204 122.189 81.2009 123.028 78.574C123.615 76.7575 124.174 75.6955 124.509 75.0807C124.844 74.4659 125.04 74.0467 124.872 73.5716C124.677 73.0686 124.23 72.9009 123.531 72.6494C123.21 72.5426 122.922 72.4194 122.655 72.305C122.572 72.2697 122.492 72.2352 122.413 72.2022C121.294 71.6992 120.009 71.1403 119.142 72.6214C118.947 72.9565 118.779 73.3195 118.611 73.6825L118.611 73.6826L118.611 73.6828L118.611 73.683L118.611 73.6832L118.611 73.6834C118.108 74.7733 117.521 76.0308 116.011 77.3443C113.747 79.3285 112.964 81.1171 113.104 83.9396C113.118 84.18 113.137 84.4332 113.157 84.69C113.179 84.9705 113.201 85.2553 113.216 85.5325C113.384 87.349 113.551 89.6127 112.937 90.3393C112.769 90.5349 112.629 90.5908 112.601 90.5908C112.433 90.5629 111.986 90.0598 111.651 88.8302C111.148 86.846 109.163 83.6601 107.038 82.0672C105.613 80.9773 104.495 81.0053 103.796 81.2288C102.901 81.5083 102.175 82.2628 101.783 83.3807C101.42 84.4426 100.525 85.1972 100.106 85.1972C100.078 85.1972 100.022 85.1972 99.9384 84.9736C99.2675 83.0453 96.5002 81.8995 94.208 81.8995C94.0144 81.8995 93.8288 81.9075 93.6553 81.9149H93.655L93.6548 81.9149L93.6528 81.915C93.5015 81.9214 93.3596 81.9275 93.2297 81.9275C92.0277 81.9834 91.7482 81.9834 90.9655 80.9214C90.8081 80.7247 90.6922 80.5557 90.5886 80.4046C90.5451 80.341 90.5037 80.2807 90.4623 80.2228C89.6892 79.0358 89.3798 79.0213 87.0825 78.9134L86.9961 78.9093H86.8005C85.4389 78.8537 83.9669 79.2953 82.5765 79.7123L82.5764 79.7123L82.5516 79.7197L82.3783 79.7709C80.7394 80.2555 79.2323 80.7011 78.6382 79.9992C77.9114 79.1608 77.548 78.3783 77.6878 77.9312C77.7437 77.7076 77.9673 77.512 78.3307 77.3723C79.2532 77.0369 81.7689 76.1147 81.0142 73.2921C80.9583 73.0127 80.7347 72.1743 79.98 71.9228C79.0296 71.6153 78.0792 72.342 76.3461 73.6834C76.2153 73.7814 76.0845 73.8837 75.9504 73.9886C75.7406 74.1528 75.5226 74.3233 75.2838 74.4938C73.9701 75.4719 73.2712 76.6177 72.7401 77.512C71.9854 78.7416 71.5381 79.4682 70.0566 79.608C69.9967 79.608 69.9368 79.616 69.8812 79.6234C69.833 79.6299 69.7881 79.6359 69.7492 79.6359C69.4696 79.6359 69.3578 79.58 69.3578 79.58C69.3424 79.5491 69.3354 79.4755 69.3276 79.3922C69.3213 79.3249 69.3144 79.2512 69.3019 79.1888L69.2994 79.1537C69.2719 78.7616 69.2304 78.1712 68.7149 77.7915C68.1838 77.4002 67.4011 77.3723 66.0873 77.7076C63.9956 78.2304 62.9311 79.12 62.2761 79.6673L62.1987 79.7319L62.1459 79.7756C62.0901 79.7756 62.09 79.7756 62.0342 79.7477L62.0341 79.7477C61.9782 79.6638 61.9223 79.5521 61.8664 79.4123C61.708 79.0955 61.5776 78.7787 61.4554 78.4818C61.4051 78.3596 61.3562 78.2409 61.3074 78.1268C60.7483 76.7854 60.329 75.8352 59.4625 75.6955C58.7108 75.5842 58.1532 76.2213 57.9554 76.4473L57.953 76.45C57.7294 76.7016 57.5057 76.981 57.3101 77.2605C57.2584 77.3262 57.2028 77.3983 57.1445 77.4738L57.1445 77.4739C56.8561 77.8474 56.5036 78.3041 56.2479 78.4901C56.164 78.2945 56.0242 77.9032 55.9404 77.0369C55.7172 75.0569 56.5797 74.0509 57.5833 72.8802L57.5834 72.8802L57.5896 72.8729C58.4562 71.8669 59.4345 70.7211 59.5184 68.9046C59.5743 67.5911 59.8818 67.0601 59.9936 66.9204C60.1613 67.0322 60.6085 67.5073 61.0278 68.9325C62.2578 73.1244 64.7176 75.6117 67.7645 75.7514C69.3858 75.8352 70.8952 75.1645 71.8736 73.9628C72.796 72.845 73.1035 71.3638 72.7681 70.0224C72.6004 69.3797 72.3767 68.5413 72.0972 67.5911C71.3704 65.048 70.3921 61.5827 70.0007 59.319C69.8747 58.664 69.8169 58.0771 69.7658 57.5584V57.5583L69.7492 57.3908L69.7454 57.3516C69.5797 55.6099 69.4509 54.2577 66.9539 53.8416C64.6897 53.4783 61.8944 53.0312 60.5806 54.9874C60.2146 55.5101 60.0442 56.0816 59.8865 56.6107L59.8538 56.7201L59.8484 56.7376C59.5437 57.7349 59.315 58.4831 58.0089 58.8999C55.9404 59.5985 55.4372 60.4648 54.8502 61.4988C54.822 61.5472 54.7938 61.5961 54.7653 61.6455C54.5958 61.9395 54.4146 62.2539 54.1514 62.5887C53.7801 63.0925 53.2327 63.4202 52.5808 63.8104L52.4742 63.8743C51.384 64.4891 50.0423 65.2716 49.2596 67.0601C48.6726 68.3736 48.5328 69.1002 48.4769 69.5194C48.4769 69.5473 48.4699 69.5823 48.463 69.6172C48.456 69.6521 48.449 69.6871 48.449 69.715C48.421 69.743 48.3651 69.7709 48.2254 69.8268C47.9458 69.9665 47.6663 69.9386 47.3868 69.9106C47.0234 69.8827 46.5761 69.8547 46.2127 70.1901C45.8493 70.5255 45.8494 71.0285 45.8494 71.1682V75.4719L31.5374 75.3881L32.5158 76.5618C32.8233 76.9531 33.6898 78.2386 33.55 79.1329C33.4941 79.4403 33.3544 79.6638 33.0469 79.8315C32.4319 80.2228 31.8449 80.0551 30.8386 79.7477C29.4969 79.3285 27.7917 78.8255 25.7512 80.3346C22.7602 82.5423 19.6574 86.1753 19.9928 89.7804C20.0697 90.5995 20.2168 91.3015 20.3484 91.9292L20.3842 92.0999L20.3878 92.1167C20.749 93.7834 20.9668 94.7881 19.6574 96.4036C18.5672 97.773 18.3157 99.4777 18.12 101.015C17.8684 102.775 17.7007 103.558 17.0019 103.725C16.2574 103.885 15.8165 103.766 15.4144 103.658L15.3526 103.642C14.2625 103.362 13.5357 103.474 12.5014 104.983C11.9424 105.821 11.7188 106.464 11.8306 107.051C11.9703 107.778 12.5573 108.197 13.0605 108.532C13.122 108.577 13.1846 108.621 13.2472 108.664C13.4977 108.839 13.7481 109.013 13.927 109.259C14.3144 109.729 14.7565 110.035 15.1178 110.285L15.129 110.293C15.7999 110.74 15.9397 110.852 15.5204 111.802C14.4581 114.233 13.5916 118.761 15.5483 121.276C17.9243 124.322 20.1606 128.374 19.7692 129.883C19.4338 131.225 18.3157 132.985 17.0298 133.656C16.5267 133.935 16.0515 133.963 15.6042 133.796C15.2386 133.667 14.9061 133.521 14.5939 133.384L14.5914 133.383C14.4987 133.343 14.4078 133.303 14.3184 133.265L14.2531 133.236C12.827 132.605 11.5813 132.053 9.90181 133.265C9.09117 133.851 8.78369 134.41 8.56006 134.83C8.30849 135.333 8.14077 135.612 6.68721 135.947C5.76476 136.143 4.61869 136.059 3.64034 135.975L3.55654 135.969C2.13959 135.86 0.944458 135.767 0.31393 136.562C-0.238902 137.281 0.0829448 138.245 0.1983 138.591L0.202118 138.602C0.331697 138.991 0.498052 139.539 0.693064 140.181L0.693567 140.183C0.792892 140.51 0.899645 140.862 1.01276 141.229C2.29859 145.673 4.47893 153.078 7.4699 155.845L8.05691 156.404L8.13696 156.478C11.2791 159.371 13.3753 161.301 14.2345 165.347C14.542 166.744 14.7097 167.89 14.8495 168.896L14.8513 168.908C15.1857 171.221 15.4114 172.782 17.0019 173.395C17.8964 173.759 18.8747 173.647 19.7413 173.088C20.7196 172.473 21.4184 171.355 21.4743 170.377C21.5023 169.958 21.4464 169.427 21.3905 168.896L21.3784 168.773C21.2677 167.648 21.1318 166.266 21.698 165.431C21.9495 165.039 22.2291 164.76 22.5086 164.48L22.5312 164.456C23.2777 163.655 23.9859 162.895 23.5708 160.819L23.5429 160.652L23.5129 160.507C23.3593 159.769 23.2438 159.213 23.3751 159.003C23.5988 158.696 24.8287 158.332 25.4996 158.165C26.2543 157.969 27.1208 157.829 27.9315 157.717C30.4752 157.354 33.3544 156.935 34.0532 153.917C34.1813 153.362 34.2931 152.921 34.3886 152.544C34.4181 152.428 34.4461 152.318 34.4725 152.212C34.9197 150.424 34.9477 150.172 34.137 148.551C33.9973 148.3 33.8575 148.048 33.7457 147.797L33.715 147.739C32.9821 146.355 32.6712 145.768 33.8016 144.611C33.9737 144.439 34.1457 144.245 34.3308 144.038L34.3313 144.037C34.4468 143.907 34.5673 143.772 34.6961 143.633L34.6989 143.63C35.567 142.678 37.576 140.475 38.2461 140.586C38.302 140.586 38.3579 140.698 38.4139 140.81C39.0288 142.235 39.4761 143.13 40.3147 143.437C41.0694 143.716 41.8521 143.409 42.6068 143.046C43.1189 142.79 43.5841 142.417 44.0883 142.012L44.2281 141.9L44.265 141.869C45.7347 140.649 47.2429 139.397 50.0982 140.866C51.9898 141.867 53.3554 143.726 54.6634 145.507L54.6825 145.533C56.2758 147.713 57.953 150.004 60.6365 150.843C64.5719 152.09 66.8312 153.721 68.8311 155.165L68.8826 155.202C69.0006 155.285 69.1137 155.368 69.2239 155.448L69.2241 155.448L69.2243 155.448L69.2259 155.449C69.3759 155.559 69.5206 155.665 69.6653 155.761C70.8952 156.628 72.2649 156.795 73.4389 156.18C74.3894 155.705 75.0043 154.811 75.0043 153.917C75.0043 153.224 74.5651 152.752 74.2035 152.362L74.1937 152.352L74.1736 152.33C73.5998 151.702 73.3123 151.387 74.4453 150.144C75.3677 149.166 76.0665 148.691 76.6535 148.328L76.6707 148.316C77.557 147.735 78.2461 147.283 78.1351 145.617C78.1071 145.058 77.9953 144.555 77.8835 144.108C77.8276 143.884 77.7717 143.633 77.7437 143.437C77.9394 143.465 78.3028 143.577 78.9457 143.828C82.2162 145.142 85.7942 145.98 92.6147 145.757C98.9041 145.561 100.665 146.735 101.588 148.831L101.783 149.306C102.845 151.765 104.299 155.091 107.625 155.761C108.992 156.04 110.303 155.79 111.474 155.567L111.483 155.566C113.468 155.202 114.278 155.174 114.809 156.208C115.243 157.024 115.722 158.512 116.248 160.145L116.248 160.145L116.403 160.624C117.577 164.341 118.807 168.169 120.484 169.343C121.462 170.049 122.942 170.228 124.513 170.417H124.514L124.649 170.433L124.702 170.44C127.121 170.745 129.86 171.091 131.441 173.228C134.376 177.224 137.423 179.292 140.275 179.292C141.057 179.292 141.784 179.152 142.511 178.817C143.6 178.371 144.844 177.531 146.182 176.626L146.183 176.625L146.183 176.625L146.382 176.49L146.565 176.367L146.704 176.274C149.751 174.178 153.245 171.83 155.341 172.92C158.807 174.709 166.746 176.889 169.01 174.457C170.071 173.313 169.849 171.917 169.654 170.688L169.653 170.684L169.651 170.671C169.428 169.335 169.238 168.194 170.436 167.163C171.582 166.157 173.259 165.682 175.02 165.822C176.585 165.962 177.955 166.576 178.71 167.499C178.962 167.806 179.213 168.141 179.437 168.477L179.461 168.51C180.879 170.428 182.343 172.409 187.096 170.964C188.018 170.685 188.76 170.423 189.383 170.202L189.387 170.201L189.394 170.198C189.495 170.162 189.593 170.128 189.688 170.095C189.767 170.067 189.844 170.04 189.919 170.014C192.155 169.203 192.491 169.092 195.621 170.126C201.016 171.914 205.573 171.188 209.207 167.946C210.36 166.924 211.046 166.098 211.588 165.446L211.694 165.319C212.868 163.866 213.232 163.446 217.033 163.167L217.048 163.166C222.824 162.747 225.196 162.576 225.671 157.131C226.314 149.837 225.95 146.93 224.329 146.455C223.966 146.343 223.574 146.064 223.547 145.673C223.519 145.365 223.686 144.219 226.957 142.543C232.408 139.776 234.56 139.608 237.858 141.676C239.172 142.515 240.29 143.8 241.353 145.03L241.381 145.063C243.217 147.205 245.115 149.418 248.341 149.613C250.13 149.725 251.583 149.613 252.757 149.501C254.742 149.334 255.944 149.25 257.146 150.228C258.068 150.954 259.047 151.625 260.053 151.485C261.115 151.318 261.842 150.34 262.681 149.11C262.767 148.987 262.852 148.854 262.94 148.717L262.941 148.716C263.054 148.541 263.17 148.36 263.296 148.188C264.05 146.986 265.476 144.778 266.203 144.778C266.371 144.778 266.566 145.058 266.622 145.198C266.689 145.315 266.767 145.433 266.848 145.557L266.849 145.558C266.902 145.639 266.958 145.724 267.013 145.812L267.034 145.846C268.632 148.453 271.562 153.232 269.781 156.348L269.333 157.131C269.257 157.262 269.184 157.389 269.113 157.511C268.717 158.196 268.414 158.721 268.271 158.863C268.246 158.863 268.21 158.858 268.17 158.851C268.121 158.844 268.066 158.835 268.02 158.835L267.982 158.831L267.925 158.824L267.922 158.824L267.921 158.824C267.675 158.795 267.339 158.755 266.874 158.779C265.756 158.807 265.057 159.171 264.833 159.841C264.582 160.624 265.085 161.546 266.37 162.58C266.706 162.832 267.069 163.083 267.489 163.335L267.525 163.358C269.161 164.383 270.692 165.342 269.138 168.505C267.908 170.964 267.74 171.97 268.439 172.445L268.446 172.45C268.757 172.648 269.462 173.097 271.598 170.629C272.073 170.098 272.464 169.539 272.856 168.98L272.886 168.938C273.768 167.726 274.545 166.657 275.623 166.381C277.971 165.766 278.53 164.732 279.369 161.239C280.179 157.885 281.046 143.605 278.81 136.506C276.657 129.687 275.483 127.536 272.604 123.567C271.682 122.31 271.011 121.108 270.424 120.046C270.362 119.937 270.302 119.829 270.242 119.722C269.81 118.95 269.409 118.232 268.942 117.643C268.187 116.609 267.265 115.854 265.895 115.603L265.42 115.519C262.122 114.876 259.69 114.513 258.879 115.686C258.488 116.245 258.544 116.944 259.047 117.782C259.061 117.81 259.082 117.845 259.103 117.88C259.124 117.915 259.145 117.95 259.159 117.978C259.494 118.621 259.634 119.096 259.522 119.431C259.391 119.878 258.642 120.225 257.856 120.59L257.705 120.661C257.621 120.703 257.537 120.738 257.454 120.773C257.37 120.808 257.286 120.843 257.202 120.884C256.587 121.164 255.273 120.996 254.015 120.102C253.987 120.074 253.959 120.046 253.931 119.962L253.924 119.948C253.699 119.527 253.317 118.811 253.4 118.369C253.586 117.46 254.021 115.772 254.575 113.618L254.575 113.618C255.52 109.945 256.813 104.919 257.817 100.092C259.466 92.2117 260.389 84.8618 260.193 84.8339C260.176 84.8339 260.124 84.7643 260.051 84.6596ZM124.16 52.0112C124.202 52.0462 124.244 52.0811 124.286 52.1091C125.376 52.9754 125.767 53.5623 125.432 55.6862C125.013 58.4528 122.692 58.6485 117.633 59.0677C114.558 59.3192 114.139 59.5427 113.133 60.1296C112.49 60.5209 111.595 61.0239 109.806 61.6946C105.334 63.3993 104.216 65.6071 102.678 68.6532C101.962 70.085 101.924 71.7882 101.897 73.0408V73.0409L101.895 73.0966L101.893 73.1978C101.867 74.3708 101.85 75.1468 101.225 75.5C101.113 75.5838 100.945 75.6397 100.721 75.6397C100.526 75.6397 100.274 75.5838 99.9946 75.4162C98.3175 74.466 95.9135 71.7273 95.9135 68.6532C95.9135 65.5232 97.9541 64.098 100.582 62.533C101.64 61.9246 102.273 61.3162 102.93 60.6841L103.042 60.5767L103.137 60.4845C103.951 59.6965 104.872 58.8051 106.647 57.8101C107.626 57.2512 108.353 56.6643 109.051 56.0774L109.105 56.034C110.594 54.8204 111.995 53.6787 115.061 54.0653C118.36 54.4845 119.45 54.205 119.618 54.1491L119.757 54.0373L119.869 54.0653C120.583 53.9829 121.108 53.334 121.577 52.7548L121.602 52.7239C122.05 52.1929 122.497 51.6619 123.112 51.606C123.335 51.5781 123.671 51.606 124.034 51.9134C124.076 51.9414 124.118 51.9763 124.16 52.0112ZM117.549 57.6703C122.776 57.2512 123.811 57.0276 124.034 55.5185C124.257 53.9604 124.092 53.815 123.401 53.2071L123.391 53.199C123.363 53.171 123.335 53.1501 123.308 53.1291L123.307 53.1291C123.279 53.1081 123.252 53.0872 123.224 53.0592C123.109 53.1509 122.957 53.3367 122.828 53.493L122.828 53.4931L122.782 53.5497L122.748 53.5902C122.189 54.2889 121.407 55.239 120.177 55.4347C119.701 55.6303 118.36 55.9097 114.894 55.4626L114.81 55.4561C114.478 55.4305 114.171 55.4067 113.887 55.4067C112.115 55.4067 111.248 56.1195 110.01 57.1378L109.974 57.1673L109.856 57.2628L109.856 57.2628C109.159 57.8263 108.378 58.458 107.346 59.0397C105.734 59.9533 104.922 60.7377 104.142 61.4923L104.048 61.5828C103.349 62.2815 102.594 63.0081 101.336 63.7626C98.6249 65.3835 97.395 66.4734 97.395 68.6532C97.395 70.9448 99.1281 73.0966 100.47 73.9909C100.498 73.7394 100.498 73.404 100.498 73.0966C100.498 71.6714 100.526 69.771 101.42 68.0104L101.43 67.9906C103.047 64.814 104.338 62.2775 109.303 60.3811C110.983 59.7478 111.768 59.3044 112.405 58.944L112.434 58.9279C113.664 58.2293 114.279 57.9498 117.549 57.6703ZM153.133 35.4251C152.49 35.0618 151.791 35.1456 151.288 35.7045C150.897 36.0399 148.66 37.9961 149.331 40.7349C149.667 42.0763 150.533 42.9147 151.679 42.9985H151.819C152.993 42.9985 154.139 42.1322 154.642 40.8187C155.313 38.9743 154.363 36.1796 153.133 35.4251ZM153.273 40.3157C152.937 41.182 152.266 41.5732 151.763 41.5453C151.12 41.5173 150.841 40.7907 150.729 40.3716C150.247 38.4423 152.026 36.9498 152.198 36.8055C152.205 36.7993 152.209 36.7956 152.21 36.7944L152.322 36.6827L152.378 36.6268C152.462 36.6827 152.686 36.8503 152.909 37.2975C153.329 38.1359 153.608 39.4493 153.273 40.3157ZM156.375 44.284C156.99 43.1102 159.785 43.9207 160.736 44.3678C162.972 45.4018 162.608 46.7432 162.413 47.1624C161.714 48.8392 158.583 51.7456 156.627 51.7456C155.928 51.7456 155.369 51.3543 155.089 50.7116C154.151 48.4774 156.072 44.8549 156.364 44.3041L156.375 44.284ZM156.654 50.2924C157.856 50.2924 160.568 47.889 161.127 46.5755C161.155 46.5197 161.183 46.4358 160.987 46.2122C160.232 45.4577 158.192 45.0385 157.577 45.1223C156.85 46.4917 155.928 48.951 156.431 50.1527C156.487 50.2644 156.515 50.2924 156.654 50.2924ZM205.784 40.9069L205.784 40.9066C205.759 40.8247 205.736 40.7487 205.712 40.6791C205.405 39.645 205.069 39.2538 203.784 39.3656C203.42 39.3935 200.345 39.7009 199.73 40.8188C199.563 41.1262 199.563 41.5174 199.73 41.8248L199.758 41.8807C199.954 42.1881 200.15 42.5794 200.206 42.803H200.178C199.814 42.803 199.451 42.7471 199.087 42.6632C198.361 42.5235 197.634 42.3838 197.187 42.9706C196.767 43.5296 197.019 44.312 197.55 45.3461C199.115 48.4201 200.234 49.7615 201.352 49.8733H201.463C201.771 49.8733 202.274 49.7615 202.665 49.2306C203.113 48.6437 203.476 48.0848 203.839 47.5259C203.889 47.4501 203.938 47.375 203.986 47.3005L203.987 47.3001C204.404 46.6593 204.795 46.0586 205.321 45.4578L205.377 45.4019C206.495 44.1164 206.83 43.6134 206.048 41.6572C205.926 41.3744 205.849 41.1208 205.784 40.9069ZM204.259 44.4797L204.203 44.5356C203.657 45.1527 203.232 45.8101 202.825 46.4393L202.825 46.4396C202.753 46.5512 202.681 46.6619 202.61 46.7713C202.274 47.3023 201.911 47.8612 201.519 48.3922C201.505 48.4201 201.491 48.4341 201.481 48.4446C201.47 48.4551 201.463 48.4621 201.463 48.476C201.352 48.4481 200.569 48.1407 198.836 44.7312C198.782 44.6125 198.732 44.5104 198.688 44.4202C198.618 44.2769 198.563 44.1634 198.528 44.0605C198.58 44.0733 198.625 44.0803 198.667 44.0867C198.717 44.0944 198.762 44.1013 198.808 44.1164C199.227 44.2003 199.674 44.2841 200.178 44.2841C201.016 44.2841 201.38 43.837 201.519 43.5854C201.883 42.8868 201.491 41.9646 201.156 41.4336C201.631 41.21 202.805 40.9026 203.867 40.8188C204.035 40.7908 204.119 40.7908 204.203 40.7908C204.211 40.8162 204.22 40.8467 204.229 40.88C204.25 40.9567 204.276 41.0482 204.315 41.1262C204.398 41.4056 204.51 41.769 204.706 42.2161C204.936 42.7969 205.054 43.0969 205.011 43.3719C204.966 43.6658 204.735 43.931 204.259 44.4797ZM244.595 7.7583C245.07 7.25527 245.713 7.14348 246.328 7.47884C247.586 8.17749 248.481 10.6647 247.977 12.2297C247.614 13.4873 246.803 14.3536 245.797 14.5492C245.744 14.5492 245.685 14.5554 245.623 14.562C245.553 14.5694 245.48 14.5772 245.406 14.5772C244.819 14.5772 243.952 14.3256 243.114 13.2357C241.66 11.3354 243.337 8.90409 244.595 7.7583ZM245.546 13.124C245.965 13.0401 246.412 12.5371 246.608 11.8105C246.803 11.1957 246.608 10.1617 246.161 9.40712C245.937 9.01587 245.741 8.8482 245.657 8.7923L245.601 8.8482C245.546 8.87614 243.225 11.0559 244.26 12.3694C244.511 12.6768 245.014 13.2078 245.546 13.124Z" fill="#A3A3A3"/>
<defs>
<linearGradient id="paint0_linear" x1="142.427" y1="78.6875" x2="142.427" y2="161.993" gradientUnits="userSpaceOnUse">
<stop stop-color="#0094D9"/>
<stop offset="0.328125" stop-color="#2E3191"/>
<stop offset="0.625" stop-color="#EC1C24"/>
<stop offset="1" stop-color="#F48120"/>
</linearGradient>
<linearGradient id="paint1_linear" x1="117.405" y1="146.758" x2="117.405" y2="151.953" gradientUnits="userSpaceOnUse">
<stop stop-color="#0094D9"/>
<stop offset="0.328125" stop-color="#2E3191"/>
<stop offset="0.625" stop-color="#EC1C24"/>
<stop offset="1" stop-color="#F48120"/>
</linearGradient>
<linearGradient id="paint2_linear" x1="143.381" y1="146.498" x2="143.381" y2="151.693" gradientUnits="userSpaceOnUse">
<stop stop-color="#0094D9"/>
<stop offset="0.328125" stop-color="#2E3191"/>
<stop offset="0.625" stop-color="#EC1C24"/>
<stop offset="1" stop-color="#F48120"/>
</linearGradient>
<linearGradient id="paint3_linear" x1="162.862" y1="126.238" x2="162.862" y2="131.433" gradientUnits="userSpaceOnUse">
<stop stop-color="#0094D9"/>
<stop offset="0.328125" stop-color="#2E3191"/>
<stop offset="0.625" stop-color="#EC1C24"/>
<stop offset="1" stop-color="#F48120"/>
</linearGradient>
<linearGradient id="paint4_linear" x1="180.006" y1="155.33" x2="180.006" y2="160.525" gradientUnits="userSpaceOnUse">
<stop stop-color="#0094D9"/>
<stop offset="0.328125" stop-color="#2E3191"/>
<stop offset="0.625" stop-color="#EC1C24"/>
<stop offset="1" stop-color="#F48120"/>
</linearGradient>
<linearGradient id="paint5_linear" x1="225.461" y1="77.6648" x2="225.461" y2="82.8598" gradientUnits="userSpaceOnUse">
<stop stop-color="#0094D9"/>
<stop offset="0.328125" stop-color="#2E3191"/>
<stop offset="0.625" stop-color="#EC1C24"/>
<stop offset="1" stop-color="#F48120"/>
</linearGradient>
<linearGradient id="paint6_linear" x1="264.164" y1="136.627" x2="264.164" y2="141.822" gradientUnits="userSpaceOnUse">
<stop stop-color="#0094D9"/>
<stop offset="0.328125" stop-color="#2E3191"/>
<stop offset="0.625" stop-color="#EC1C24"/>
<stop offset="1" stop-color="#F48120"/>
</linearGradient>
<linearGradient id="paint7_linear" x1="272.996" y1="159.485" x2="272.996" y2="164.68" gradientUnits="userSpaceOnUse">
<stop stop-color="#0094D9"/>
<stop offset="0.328125" stop-color="#2E3191"/>
<stop offset="0.625" stop-color="#EC1C24"/>
<stop offset="1" stop-color="#F48120"/>
</linearGradient>
<linearGradient id="paint8_linear" x1="110.913" y1="114.289" x2="110.913" y2="119.484" gradientUnits="userSpaceOnUse">
<stop stop-color="#0094D9"/>
<stop offset="0.328125" stop-color="#2E3191"/>
<stop offset="0.625" stop-color="#EC1C24"/>
<stop offset="1" stop-color="#F48120"/>
</linearGradient>
<linearGradient id="paint9_linear" x1="81.5613" y1="110.133" x2="81.5613" y2="115.328" gradientUnits="userSpaceOnUse">
<stop stop-color="#0094D9"/>
<stop offset="0.328125" stop-color="#2E3191"/>
<stop offset="0.625" stop-color="#EC1C24"/>
<stop offset="1" stop-color="#F48120"/>
</linearGradient>
<linearGradient id="paint10_linear" x1="52.7283" y1="111.432" x2="52.7283" y2="116.627" gradientUnits="userSpaceOnUse">
<stop stop-color="#0094D9"/>
<stop offset="0.328125" stop-color="#2E3191"/>
<stop offset="0.625" stop-color="#EC1C24"/>
<stop offset="1" stop-color="#F48120"/>
</linearGradient>
<linearGradient id="paint11_linear" x1="58.1834" y1="136.627" x2="58.1834" y2="141.822" gradientUnits="userSpaceOnUse">
<stop stop-color="#0094D9"/>
<stop offset="0.328125" stop-color="#2E3191"/>
<stop offset="0.625" stop-color="#EC1C24"/>
<stop offset="1" stop-color="#F48120"/>
</linearGradient>
<linearGradient id="paint12_linear" x1="65.9754" y1="144.42" x2="65.9754" y2="149.615" gradientUnits="userSpaceOnUse">
<stop stop-color="#0094D9"/>
<stop offset="0.328125" stop-color="#2E3191"/>
<stop offset="0.625" stop-color="#EC1C24"/>
<stop offset="1" stop-color="#F48120"/>
</linearGradient>
<linearGradient id="paint13_linear" x1="91.6912" y1="117.146" x2="91.6912" y2="122.341" gradientUnits="userSpaceOnUse">
<stop stop-color="#0094D9"/>
<stop offset="0.328125" stop-color="#2E3191"/>
<stop offset="0.625" stop-color="#EC1C24"/>
<stop offset="1" stop-color="#F48120"/>
</linearGradient>
<linearGradient id="paint14_linear" x1="9.87092" y1="138.706" x2="9.87092" y2="143.901" gradientUnits="userSpaceOnUse">
<stop stop-color="#0094D9"/>
<stop offset="0.328125" stop-color="#2E3191"/>
<stop offset="0.625" stop-color="#EC1C24"/>
<stop offset="1" stop-color="#F48120"/>
</linearGradient>
<linearGradient id="paint15_linear" x1="26.494" y1="86.2363" x2="26.494" y2="91.4313" gradientUnits="userSpaceOnUse">
<stop stop-color="#0094D9"/>
<stop offset="0.328125" stop-color="#2E3191"/>
<stop offset="0.625" stop-color="#EC1C24"/>
<stop offset="1" stop-color="#F48120"/>
</linearGradient>
</defs>
</svg>
