<svg width="57" height="18" viewBox="0 0 57 18" fill="none" xmlns="http://www.w3.org/2000/svg">
<path d="M9.02893 0C11.5224 0 13.7796 1.02035 15.4069 2.64245C17.0342 4.26453 18.0579 6.51453 18.0579 9C18.0579 11.4855 17.0604 13.7355 15.4069 15.3576C13.7796 17.0058 11.5224 18 9.02893 18C6.53547 18 4.27823 17.0058 2.65094 15.3576C1.02363 13.7355 0 11.4855 0 9C0 6.51453 1.02363 4.26453 2.65094 2.64245C4.27823 1.02035 6.53547 0 9.02893 0ZM12.5985 5.44185C11.6799 4.52615 10.42 3.97675 9.02893 3.97675C7.63784 3.97675 6.37799 4.55232 5.45934 5.44185C4.5407 6.35755 3.98953 7.61337 3.98953 9C3.98953 10.3866 4.56696 11.6424 5.45934 12.5581C6.37799 13.4738 7.63784 14.0233 9.02893 14.0233C10.42 14.0233 11.6799 13.4738 12.5985 12.5581C13.5171 11.6424 14.0683 10.3866 14.0683 9C14.0683 7.61337 13.5171 6.35755 12.5985 5.44185Z" fill="#08B9EA"/>
<path d="M39.5012 2.4073C39.4488 1.28231 40.3411 0.314286 41.4697 0.261961C42.6246 0.209636 43.5956 1.09917 43.622 2.22417C43.7269 4.42185 44.803 5.80848 46.1941 6.43638C46.8241 6.698 47.5065 6.85498 48.1627 6.82883C48.8451 6.82883 49.5276 6.67185 50.1574 6.38405C51.5747 5.75615 52.6772 4.36952 52.7296 2.25033C52.7558 1.12533 53.727 0.209636 54.8556 0.261961C56.0105 0.288124 56.9029 1.25615 56.8766 2.38115C56.7454 6.30557 54.6194 8.92185 51.8635 10.1515C50.7086 10.6748 49.4487 10.9364 48.2152 10.9364C46.9553 10.9625 45.6955 10.7009 44.5406 10.2038C41.8371 9.0265 39.7112 6.43638 39.5012 2.4073Z" fill="#08B9EA"/>
<path d="M46.1157 8.89498C46.1157 7.74382 47.0343 6.82812 48.1892 6.82812C49.344 6.82812 50.2626 7.74382 50.2626 8.89498V15.5142C50.2626 16.6653 49.344 17.5811 48.1892 17.5811C47.0343 17.5811 46.1157 16.6653 46.1157 15.5142V8.89498Z" fill="#08B9EA"/>
<path fill-rule="evenodd" clip-rule="evenodd" d="M21.3909 1.67411C23.1232 -0.0526345 25.8792 -0.131123 27.7163 1.43865C27.9264 1.62179 27.9001 1.77877 27.7952 1.9619L26.5878 3.87179C26.509 4.00259 26.614 4.05492 26.6927 3.97644L29.5275 1.67411C31.3384 -0.131123 34.2781 -0.131123 36.1154 1.67411C37.8477 3.40085 37.9264 6.14794 36.3516 7.97934C36.1679 8.18864 36.0104 8.16249 35.8267 8.05782L33.9107 6.82817C33.7794 6.74969 33.7269 6.85434 33.8056 6.93284L36.1154 9.78457C37.9264 11.5898 37.9264 14.52 36.1154 16.3252C34.3832 18.052 31.6272 18.1305 29.7899 16.5608C29.5799 16.3776 29.6061 16.2206 29.7112 16.0375L30.9448 14.1276C31.0234 13.9968 30.9186 13.9445 30.8397 14.0229L27.9789 16.3252C26.1678 18.1305 23.2281 18.1305 21.4171 16.3252C19.6848 14.5985 19.6062 11.8514 21.181 10.02C21.3909 9.81074 21.5222 9.8369 21.7059 9.94155L23.6219 11.1712C23.7794 11.2497 23.8056 11.145 23.753 11.0665L21.4434 8.21481C19.5798 6.40957 19.5798 3.47934 21.3909 1.67411Z" fill="#08B9EA"/>
</svg>
