<svg width="278" height="88" viewBox="0 0 278 88" fill="none" xmlns="http://www.w3.org/2000/svg">
<path d="M44.0358 0C56.1969 0 67.2058 4.98837 75.1425 12.9186C83.0791 20.8488 88.0716 31.8488 88.0716 44C88.0716 56.1512 83.207 67.1512 75.1425 75.0814C67.2058 83.1393 56.1969 88 44.0358 88C31.8747 88 20.8658 83.1393 12.9291 75.0814C4.99243 67.1512 0 56.1512 0 44C0 31.8488 4.99243 20.8488 12.9291 12.9186C20.8658 4.98837 31.8747 0 44.0358 0ZM61.4454 26.6046C56.965 22.1279 50.8204 19.4419 44.0358 19.4419C37.2512 19.4419 31.1067 22.2558 26.6263 26.6046C22.1459 31.0814 19.4577 37.2209 19.4577 44C19.4577 50.7791 22.2739 56.9186 26.6263 61.3954C31.1067 65.8721 37.2512 68.5581 44.0358 68.5581C50.8204 68.5581 56.965 65.8721 61.4454 61.3954C65.9257 56.9186 68.6139 50.7791 68.6139 44C68.6139 37.2209 65.9257 31.0814 61.4454 26.6046Z" fill="#08B9EA"/>
<path d="M192.656 11.7676C192.4 6.26766 196.753 1.5351 202.257 1.27929C207.89 1.02348 212.626 5.37231 212.754 10.8723C213.266 21.6165 218.514 28.3956 225.299 31.4653C228.371 32.7444 231.7 33.5118 234.9 33.384C238.228 33.384 241.557 32.6165 244.628 31.2095C251.541 28.1398 256.918 21.3607 257.174 11.0002C257.302 5.50022 262.038 1.02348 267.542 1.27929C273.175 1.40719 277.527 6.13976 277.4 11.6398C276.759 30.8258 266.391 43.6165 252.949 49.6281C247.317 52.1863 241.172 53.4653 235.156 53.4653C229.011 53.5933 222.867 52.3142 217.234 49.884C204.049 44.1281 193.68 31.4653 192.656 11.7676Z" fill="#08B9EA"/>
<path d="M224.916 43.4884C224.916 37.8605 229.396 33.3838 235.029 33.3838C240.661 33.3838 245.141 37.8605 245.141 43.4884V75.8488C245.141 81.4765 240.661 85.9538 235.029 85.9538C229.396 85.9538 224.916 81.4765 224.916 75.8488V43.4884Z" fill="#08B9EA"/>
<path fill-rule="evenodd" clip-rule="evenodd" d="M104.329 8.18638C112.777 -0.255506 126.219 -0.639226 135.179 7.03519C136.204 7.93057 136.075 8.698 135.563 9.59331L129.675 18.9306C129.29 19.5701 129.803 19.8259 130.186 19.4422L144.012 8.18638C152.845 -0.639226 167.182 -0.639226 176.143 8.18638C184.592 16.6282 184.975 30.0584 177.295 39.0119C176.399 40.0352 175.631 39.9073 174.735 39.3956L165.39 33.384C164.75 33.0003 164.494 33.5119 164.877 33.8957L176.143 47.8375C184.975 56.6631 184.975 70.9887 176.143 79.8139C167.694 88.2558 154.253 88.6399 145.292 80.9656C144.268 80.0703 144.396 79.3028 144.908 78.4075L150.925 69.07C151.308 68.4306 150.797 68.1747 150.412 68.5584L136.459 79.8139C127.626 88.6399 113.289 88.6399 104.457 79.8139C96.0078 71.3724 95.6241 57.9422 103.305 48.9887C104.329 47.9654 104.969 48.0933 105.865 48.6049L115.21 54.6165C115.978 55.0003 116.106 54.4887 115.849 54.1049L104.584 40.1631C95.4954 31.3375 95.4954 17.0119 104.329 8.18638Z" fill="#08B9EA"/>
</svg>
