<svg width="53" height="16" viewBox="0 0 53 16" fill="none" xmlns="http://www.w3.org/2000/svg">
<path d="M8.39532 0C10.7138 0 12.8126 0.906977 14.3257 2.34884C15.8388 3.79069 16.7906 5.79069 16.7906 8C16.7906 10.2093 15.8632 12.2093 14.3257 13.6512C12.8126 15.1162 10.7138 16 8.39532 16C6.07684 16 3.97801 15.1162 2.46491 13.6512C0.951795 12.2093 0 10.2093 0 8C0 5.79069 0.951795 3.79069 2.46491 2.34884C3.97801 0.906977 6.07684 0 8.39532 0ZM11.7144 4.8372C10.8602 4.02325 9.68878 3.53489 8.39532 3.53489C7.10185 3.53489 5.93041 4.04651 5.07623 4.8372C4.22206 5.65116 3.70956 6.76744 3.70956 8C3.70956 9.23256 4.24647 10.3488 5.07623 11.1628C5.93041 11.9767 7.10185 12.4651 8.39532 12.4651C9.68878 12.4651 10.8602 11.9767 11.7144 11.1628C12.5686 10.3488 13.0811 9.23256 13.0811 8C13.0811 6.76744 12.5686 5.65116 11.7144 4.8372Z" fill="#08B9EA"/>
<path d="M36.7291 2.13939C36.6803 1.1394 37.5101 0.278932 38.5594 0.23242C39.6333 0.185909 40.5362 0.976607 40.5607 1.97661C40.6583 3.9301 41.6588 5.16265 42.9523 5.72079C43.5381 5.95335 44.1726 6.09288 44.7828 6.06963C45.4173 6.06963 46.0518 5.9301 46.6375 5.67428C47.9553 5.11614 48.9804 3.88359 49.0292 1.99986C49.0536 0.999862 49.9566 0.185909 51.006 0.23242C52.0798 0.255676 52.9096 1.11614 52.8852 2.11614C52.7631 5.60452 50.7864 7.9301 48.2238 9.02312C47.15 9.48823 45.9785 9.72079 44.8315 9.72079C43.6601 9.74405 42.4887 9.5115 41.4149 9.06963C38.9011 8.02312 36.9243 5.72079 36.7291 2.13939Z" fill="#08B9EA"/>
<path d="M42.8795 7.90654C42.8795 6.88329 43.7336 6.06934 44.8075 6.06934C45.8812 6.06934 46.7354 6.88329 46.7354 7.90654V13.7903C46.7354 14.8135 45.8812 15.6275 44.8075 15.6275C43.7336 15.6275 42.8795 14.8135 42.8795 13.7903V7.90654Z" fill="#08B9EA"/>
<path fill-rule="evenodd" clip-rule="evenodd" d="M19.89 1.48821C21.5008 -0.0466777 24.0633 -0.116445 25.7716 1.2789C25.9669 1.4417 25.9424 1.58123 25.8449 1.74402L24.7222 3.4417C24.649 3.55797 24.7466 3.60448 24.8198 3.53472L27.4556 1.48821C29.1395 -0.116445 31.8729 -0.116445 33.5813 1.48821C35.192 3.02308 35.2652 5.46495 33.8009 7.09286C33.63 7.2789 33.4836 7.25565 33.3128 7.16262L31.5312 6.06959C31.4092 5.99983 31.3604 6.09286 31.4335 6.16263L33.5813 8.6975C35.2652 10.3022 35.2652 12.9068 33.5813 14.5114C31.9705 16.0463 29.408 16.1161 27.6996 14.7208C27.5044 14.558 27.5288 14.4185 27.6264 14.2557L28.7735 12.558C28.8466 12.4417 28.7491 12.3952 28.6758 12.4649L26.0157 14.5114C24.3317 16.1161 21.5983 16.1161 19.9144 14.5114C18.3037 12.9766 18.2305 10.5347 19.6948 8.90681C19.89 8.72077 20.0121 8.74402 20.1829 8.83704L21.9645 9.93006C22.1109 9.99983 22.1353 9.90681 22.0864 9.83704L19.9388 7.30217C18.206 5.6975 18.206 3.09286 19.89 1.48821Z" fill="#08B9EA"/>
</svg>
