<svg width="63" height="63" viewBox="0 0 63 63" fill="none" xmlns="http://www.w3.org/2000/svg">
<path d="M15.75 0C13.5844 0 11.8125 1.77187 11.8125 3.9375V59.0625C11.8125 61.2281 13.5844 63 15.75 63H55.125C57.2906 63 59.0625 61.2281 59.0625 59.0625V15.75L43.3125 0H15.75Z" fill="#E2E5E7"/>
<path d="M47.25 15.75H59.0625L43.3125 0V11.8125C43.3125 13.9781 45.0844 15.75 47.25 15.75Z" fill="#B0B7BD"/>
<path d="M59.0625 27.5625L47.25 15.75H59.0625V27.5625Z" fill="#CAD1D8"/>
<path d="M51.1875 51.1875C51.1875 52.2703 50.3016 53.1562 49.2188 53.1562H5.90625C4.82344 53.1562 3.9375 52.2703 3.9375 51.1875V31.5C3.9375 30.4172 4.82344 29.5312 5.90625 29.5312H49.2188C50.3016 29.5312 51.1875 30.4172 51.1875 31.5V51.1875Z" fill="#F15642"/>
<path d="M12.5191 37.3021C12.5191 36.7823 12.9286 36.2153 13.5882 36.2153H17.2244C19.2719 36.2153 21.1147 37.5856 21.1147 40.2119C21.1147 42.7004 19.2719 44.0864 17.2244 44.0864H14.5962V46.1654C14.5962 46.8584 14.1552 47.2502 13.5882 47.2502C13.0684 47.2502 12.5191 46.8584 12.5191 46.1654V37.3021ZM14.5962 38.1979V42.1196H17.2244C18.2797 42.1196 19.1144 41.1884 19.1144 40.2119C19.1144 39.1114 18.2797 38.1979 17.2244 38.1979H14.5962Z" fill="white"/>
<path d="M24.198 47.25C23.6782 47.25 23.1112 46.9665 23.1112 46.2755V37.3334C23.1112 36.7684 23.6782 36.3569 24.198 36.3569H27.8028C34.9966 36.3569 34.8391 47.25 27.9445 47.25H24.198ZM25.1902 38.2784V45.3305H27.8028C32.0533 45.3305 32.2423 38.2784 27.8028 38.2784H25.1902Z" fill="white"/>
<path d="M37.3901 38.4045V40.9067H41.4044C41.9714 40.9067 42.5384 41.4737 42.5384 42.023C42.5384 42.5428 41.9714 42.968 41.4044 42.968H37.3901V46.2735C37.3901 46.8248 36.9983 47.2481 36.4471 47.2481C35.7541 47.2481 35.3308 46.8248 35.3308 46.2735V37.3315C35.3308 36.7664 35.7561 36.355 36.4471 36.355H41.9734C42.6664 36.355 43.0759 36.7664 43.0759 37.3315C43.0759 37.8355 42.6664 38.4025 41.9734 38.4025H37.3901V38.4045Z" fill="white"/>
<path d="M49.2188 53.1562H11.8125V55.125H49.2188C50.3016 55.125 51.1875 54.2391 51.1875 53.1562V51.1875C51.1875 52.2703 50.3016 53.1562 49.2188 53.1562Z" fill="#CAD1D8"/>
</svg>
