<svg width="18" height="16" viewBox="0 0 18 16" fill="none" xmlns="http://www.w3.org/2000/svg">
<path d="M4.2 8.217C3.15 8.217 2.303 7.846 1.659 7.104C1.015 6.362 0.693 5.389 0.693 4.185C0.693 2.981 1.015 2.008 1.659 1.266C2.303 0.523999 3.15 0.153 4.2 0.153C5.25 0.153 6.097 0.523999 6.741 1.266C7.399 1.994 7.728 2.967 7.728 4.185C7.728 5.403 7.399 6.383 6.741 7.125C6.097 7.853 5.25 8.217 4.2 8.217ZM13.02 0.299999H15.078L5.04 15H2.982L13.02 0.299999ZM4.2 6.747C4.774 6.747 5.215 6.523 5.523 6.075C5.845 5.627 6.006 4.997 6.006 4.185C6.006 3.373 5.845 2.743 5.523 2.295C5.215 1.847 4.774 1.623 4.2 1.623C3.654 1.623 3.213 1.854 2.877 2.316C2.555 2.764 2.394 3.387 2.394 4.185C2.394 4.983 2.555 5.613 2.877 6.075C3.213 6.523 3.654 6.747 4.2 6.747ZM13.839 15.147C12.789 15.147 11.942 14.776 11.298 14.034C10.654 13.292 10.332 12.319 10.332 11.115C10.332 9.911 10.654 8.938 11.298 8.196C11.942 7.454 12.789 7.083 13.839 7.083C14.889 7.083 15.736 7.454 16.38 8.196C17.038 8.938 17.367 9.911 17.367 11.115C17.367 12.319 17.038 13.292 16.38 14.034C15.736 14.776 14.889 15.147 13.839 15.147ZM13.839 13.677C14.399 13.677 14.84 13.453 15.162 13.005C15.484 12.543 15.645 11.913 15.645 11.115C15.645 10.317 15.484 9.694 15.162 9.246C14.84 8.784 14.399 8.553 13.839 8.553C13.279 8.553 12.838 8.777 12.516 9.225C12.194 9.673 12.033 10.303 12.033 11.115C12.033 11.927 12.194 12.557 12.516 13.005C12.838 13.453 13.279 13.677 13.839 13.677Z" fill="#3B3B3A"/>
</svg>
