<svg width="28" height="27" viewBox="0 0 28 27" fill="none" xmlns="http://www.w3.org/2000/svg">
<path d="M26.6874 18.6482C26.5993 18.449 26.1208 18.184 25.2523 17.854C25.0155 17.747 24.6789 17.6028 24.2437 17.4205C23.8081 17.2382 23.4124 17.0697 23.0574 16.9152C22.7018 16.7609 22.3681 16.6104 22.0559 16.4642C22.0054 16.4339 21.848 16.3466 21.5838 16.2016C21.3193 16.057 21.0976 15.9518 20.9176 15.8861C20.738 15.8209 20.5645 15.7948 20.3974 15.8085C20.1586 15.8281 19.8737 16.0149 19.5422 16.3687C19.2108 16.7229 18.9113 17.1028 18.6442 17.5092C18.3771 17.9154 18.0895 18.2943 17.7822 18.6463C17.4743 18.9986 17.2128 19.1833 16.9981 19.2009C16.8904 19.2097 16.7537 19.1921 16.588 19.1487C16.4224 19.1049 16.2959 19.0662 16.2087 19.0337C16.1221 19.0004 15.9726 18.9326 15.7597 18.8292C15.5464 18.7262 15.4279 18.6699 15.4031 18.6605C13.6966 17.9283 12.2127 17.0519 10.9511 16.0316C9.68989 15.0106 8.54142 13.7572 7.50627 12.2705C7.49249 12.2487 7.41481 12.1461 7.27369 11.9628C7.13238 11.7793 7.03758 11.6496 6.98926 11.573C6.94096 11.4968 6.88065 11.3841 6.80847 11.2352C6.73629 11.0863 6.69588 10.9607 6.68747 10.858C6.67069 10.6531 6.8194 10.377 7.13357 10.0301C7.4477 9.68335 7.79318 9.351 8.1697 9.03365C8.54653 8.71627 8.8907 8.37258 9.20308 8.00305C9.51532 7.63335 9.66213 7.33474 9.64348 7.10693C9.63043 6.94753 9.57534 6.78844 9.47833 6.63013C9.38123 6.47147 9.23636 6.28002 9.04357 6.05484C8.85073 5.82977 8.73464 5.69605 8.69501 5.65319C8.49281 5.38322 8.283 5.09363 8.06516 4.78457C7.84733 4.47556 7.60894 4.13076 7.34935 3.75064C7.08996 3.37068 6.88581 3.07761 6.73661 2.87193C6.25369 2.10878 5.9019 1.70156 5.68136 1.65104C5.59494 1.62371 5.46808 1.61674 5.3011 1.63041C4.97856 1.65682 4.56244 1.74814 4.05247 1.90474C3.54229 2.06119 3.14329 2.21413 2.85505 2.36409C2.27765 2.6521 1.70183 3.39884 1.12736 4.60409C0.606142 5.72466 0.388499 6.80935 0.474309 7.85737C0.499475 8.16474 0.544848 8.46207 0.610433 8.74943C0.675993 9.0365 0.77746 9.35798 0.914893 9.71382C1.05213 10.0696 1.16092 10.3333 1.24085 10.5042C1.32085 10.6753 1.46911 10.9814 1.68558 11.4226C1.90179 11.8637 2.03221 12.1339 2.07642 12.2335C2.58567 13.3158 3.16276 14.2721 3.8076 15.1025C4.86978 16.4835 6.27976 17.8852 8.03674 19.3069C9.79376 20.7286 11.4732 21.8269 13.0752 22.6018C14.0392 23.0733 15.1229 23.4605 16.3255 23.7637C16.4358 23.7889 16.7365 23.8674 17.228 23.9996C17.7196 24.1313 18.0605 24.221 18.2506 24.2685C18.4407 24.3161 18.7313 24.3755 19.1214 24.4469C19.5123 24.5183 19.8611 24.5614 20.1688 24.5767C20.4766 24.5911 20.7918 24.5857 21.1139 24.5593C22.2121 24.4694 23.299 24.0878 24.3737 23.4149C25.527 22.6784 26.2056 22.0149 26.4096 21.4243C26.5182 21.1289 26.6111 20.7285 26.6899 20.223C26.7691 19.7177 26.7957 19.3114 26.7705 19.0036C26.7578 18.8436 26.73 18.7257 26.6874 18.6482Z" fill="#3A3A3A"/>
</svg>
