<svg width="448" height="321" viewBox="0 0 448 321" fill="none" xmlns="http://www.w3.org/2000/svg">
<style type="text/css">
.arrow1_plan_2{animation:anim_arrow1 1.3s ease infinite;transform:translate(30px, 14px);opacity:0;}
@keyframes anim_arrow1{
  0%{transform:translate(30px, 14px);opacity:0;}
  100%{transform:translate(0,0);opacity:1;}
}
.arrow2_plan_2{animation:anim_arrow1 1.3s ease infinite;transform:translate(30px, 14px);opacity:0;animation-delay:.2s;}
.arrow3_plan_2{animation:anim_arrow1 1.3s ease infinite;transform:translate(30px, 14px);opacity:0;animation-delay:.4s;}
.arrow4_plan_2{animation:anim_arrow1 1.3s ease infinite;transform:translate(30px, 14px);opacity:0;animation-delay:.6s;}
.arrow5_plan_2{animation:anim_arrow2 1.3s ease infinite;transform:translate(0, 0);opacity:0;animation-delay:.6s;}
.arrow6_plan_2{animation:anim_arrow1 1.3s ease infinite;transform:translate(30px, 14px);opacity:0;animation-delay:.6s;}
.arrow7_plan_2{animation:anim_arrow2 1.3s ease infinite;transform:translate(0, 0);opacity:0;animation-delay:.8s;}
@keyframes anim_arrow2{
  0%{transform:translate(0, 0);opacity:0;}
  100%{transform:translate(0, -25px);opacity:1;}
}
</style>
<path d="M287.856 14.5014L441.068 85.7281L441.017 161.772L382.303 199.025V217.677L289.193 276.708L269.81 267.331L185.646 320.008L17.112 241.351V211.22L74.7467 175.658L0.813965 141.07V55.7514L20.3511 43.3508L31.7649 48.68L92.073 9.88965L206.057 62.8229V53.8555L225.543 41.4549L236.956 46.7328L287.856 14.5014Z" fill="white"/>
<path d="M363.896 202.868L374.539 196.053V148.141L363.896 155.315V202.868Z" fill="white" stroke="#231F20" stroke-width="0.3806" stroke-miterlimit="22.9256"/>
<path d="M293.306 245.194L268.833 233.562" stroke="#050007" stroke-width="0.5669" stroke-miterlimit="22.9256"/>
<path d="M108.628 158.902L33.8212 123.648L65.3892 103.304L91.5587 86.3433L127.548 102.997L96.8543 122.11L97.0599 146.245L101.07 148.141L153.461 114.783L183.846 128.977L155.157 147.475V173.558L159.27 175.556L211.249 143.017L228.01 150.14L302.457 103.561V100.537L406.261 149.064L377.727 166.435L377.624 145.989L374.128 144.093L341.172 166.332L341.48 210.606L326.365 220.137L326.313 178.528L322.611 176.735L289.347 199.076L289.295 243.554L268.576 233.665L184.874 285.778L54.4895 225.312L108.628 192.21V158.902Z" fill="white"/>
<path d="M297.727 216.447V198L293.408 200.921L293.305 247.397L322.765 228.797L297.727 216.447Z" fill="white"/>
<path d="M267.29 234.484L268.832 233.562L289.552 243.401L289.604 198.974L267.136 187.905L267.29 234.484Z" fill="white" stroke="#231F20" stroke-width="0.5" stroke-miterlimit="22.9256"/>
<path d="M269.861 234.023L289.552 243.401V202.612L269.861 193.388V234.023Z" fill="white" stroke="#231F20" stroke-width="0.5" stroke-miterlimit="22.9256"/>
<path d="M297.727 216.345L322.765 228.694V176.632L297.727 164.026V216.345Z" fill="white" stroke="#231F20" stroke-width="0.5058" stroke-miterlimit="22.9256"/>
<path d="M300.812 214.756L319.681 223.775V179.092L300.812 169.663V214.756Z" fill="white" stroke="#231F20" stroke-width="0.5058" stroke-miterlimit="22.9256"/>
<path d="M374.642 189.853L363.896 184.575" stroke="#050007" stroke-width="0.5669" stroke-miterlimit="22.9256"/>
<path d="M374.642 184.933L364.153 179.963" stroke="#050007" stroke-width="0.5669" stroke-miterlimit="22.9256"/>
<path d="M364.154 179.963L374.745 173.147" stroke="#050007" stroke-width="0.5669" stroke-miterlimit="22.9256"/>
<path d="M363.999 175.197L374.693 168.382" stroke="#050007" stroke-width="0.5669" stroke-miterlimit="22.9256"/>
<path d="M184.103 128.874L163.538 119.292V64.3604L189.45 76.9147V125.39L184.103 128.874Z" fill="#F2F2F2"/>
<path d="M441.223 85.7799L287.959 14.502" stroke="#050007" stroke-width="0.5669" stroke-miterlimit="22.9256"/>
<path d="M434.076 85.5744L288.987 18.1396" stroke="#050007" stroke-width="0.5669" stroke-miterlimit="22.9256"/>
<path d="M283.691 55.8543L267.084 48.1167" stroke="#050007" stroke-width="0.5669" stroke-miterlimit="22.9256"/>
<path d="M302.92 43.8636L286.313 36.126" stroke="#050007" stroke-width="0.5669" stroke-miterlimit="22.9256"/>
<path d="M237.111 46.784L288.01 14.4502" stroke="#050007" stroke-width="0.5669" stroke-miterlimit="22.9256"/>
<path d="M209.09 67.9475L288.935 17.9351" stroke="#050007" stroke-width="0.5669" stroke-miterlimit="22.9256"/>
<path d="M288.987 17.9858V37.4066" stroke="#050007" stroke-width="0.5669" stroke-miterlimit="22.9256"/>
<path d="M267.136 48.1167V79.0158" stroke="#050007" stroke-width="0.5669" stroke-miterlimit="22.9256"/>
<path d="M283.691 55.854V115.449" stroke="#050007" stroke-width="0.5669" stroke-miterlimit="22.9256"/>
<path d="M441.171 85.6768V161.772" stroke="#050007" stroke-width="0.5669" stroke-miterlimit="22.9256"/>
<path d="M406.672 148.961L302.919 100.435" stroke="#050007" stroke-width="0.5669" stroke-miterlimit="22.9256"/>
<path d="M159.682 175.453L211.661 142.915" stroke="#050007" stroke-width="0.5669" stroke-miterlimit="22.9256"/>
<path d="M382.457 199.025L441.223 161.72" stroke="#050007" stroke-width="0.5669" stroke-miterlimit="22.9256"/>
<path d="M378.087 170.841L426.672 141.019" stroke="#050007" stroke-width="0.5669" stroke-miterlimit="22.9256"/>
<path d="M378.086 166.383L422.816 139.174" stroke="#050007" stroke-width="0.5669" stroke-miterlimit="22.9256"/>
<path d="M209.501 64.3601L92.2271 9.88965" stroke="#050007" stroke-width="0.5669" stroke-miterlimit="22.9256"/>
<path d="M149.656 40.2249L92.0212 13.3228" stroke="#050007" stroke-width="0.5669" stroke-miterlimit="22.9256"/>
<path d="M205.337 66.2049L153.769 42.1211" stroke="#050007" stroke-width="0.5669" stroke-miterlimit="22.9256"/>
<path d="M159.682 149.064L196.648 124.98" stroke="#050007" stroke-width="0.5669" stroke-miterlimit="22.9256"/>
<path d="M196.648 124.98L192.792 123.186" stroke="#050007" stroke-width="0.5669" stroke-miterlimit="22.9256"/>
<path d="M155.619 147.372L192.792 123.186" stroke="#050007" stroke-width="0.5669" stroke-miterlimit="22.9256"/>
<path d="M159.682 149.063V175.453" stroke="#050007" stroke-width="0.5669" stroke-miterlimit="22.9256"/>
<path d="M159.63 149.217L155.62 147.373" stroke="#050007" stroke-width="0.5669" stroke-miterlimit="22.9256"/>
<path d="M155.62 147.373V173.557" stroke="#050007" stroke-width="0.5669" stroke-miterlimit="22.9256"/>
<path d="M153.769 42.1211V114.936" stroke="#050007" stroke-width="0.5669" stroke-miterlimit="22.9256"/>
<path d="M184.103 128.874L153.718 114.68" stroke="#050007" stroke-width="0.5669" stroke-miterlimit="22.9256"/>
<path d="M101.327 148.039L153.718 114.937" stroke="#050007" stroke-width="0.5669" stroke-miterlimit="22.9256"/>
<path d="M128.011 102.894L92.0213 86.2407" stroke="#050007" stroke-width="0.5669" stroke-miterlimit="22.9256"/>
<path d="M101.327 124.006L141.172 99.3076" stroke="#050007" stroke-width="0.5669" stroke-miterlimit="22.9256"/>
<path d="M97.317 122.007L137.163 97.4111" stroke="#050007" stroke-width="0.5669" stroke-miterlimit="22.9256"/>
<path d="M101.275 124.006V148.039" stroke="#050007" stroke-width="0.5669" stroke-miterlimit="22.9256"/>
<path d="M7.44568 67.5883L92.021 13.3228" stroke="#050007" stroke-width="0.5669" stroke-miterlimit="22.9256"/>
<path d="M4.05273 69.7404L0.865051 68.2544" stroke="#050007" stroke-width="0.5669" stroke-miterlimit="22.9256"/>
<path d="M34.1293 123.545L92.021 86.2407" stroke="#050007" stroke-width="0.5669" stroke-miterlimit="22.9256"/>
<path d="M74.9009 175.71L0.916685 141.224" stroke="#050007" stroke-width="0.5669" stroke-miterlimit="22.9256"/>
<path d="M101.43 159.363L14.7983 118.216" stroke="#050007" stroke-width="0.5669" stroke-miterlimit="22.9256"/>
<path d="M108.936 158.799L18.0884 116.063" stroke="#050007" stroke-width="0.5669" stroke-miterlimit="22.9256"/>
<path d="M54.9005 225.209L108.936 191.902" stroke="#050007" stroke-width="0.5669" stroke-miterlimit="22.9256"/>
<path d="M24.4123 211.067L108.936 158.749" stroke="#050007" stroke-width="0.5669" stroke-miterlimit="22.9256"/>
<path d="M17.2661 211.22V241.351" stroke="#050007" stroke-width="0.5669" stroke-miterlimit="22.9256"/>
<path d="M289.347 247.346V276.503" stroke="#050007" stroke-width="0.5669" stroke-miterlimit="22.9256"/>
<path d="M293.306 200.665V251.138" stroke="#050007" stroke-width="0.5669" stroke-miterlimit="22.9256"/>
<path d="M269.809 237.918V267.485" stroke="#050007" stroke-width="0.5669" stroke-miterlimit="22.9256"/>
<path d="M289.449 247.295L269.758 237.866" stroke="#050007" stroke-width="0.5669" stroke-miterlimit="22.9256"/>
<path d="M289.347 276.503L269.81 267.229" stroke="#050007" stroke-width="0.5669" stroke-miterlimit="22.9256"/>
<path d="M185.799 290.492L269.758 237.866" stroke="#050007" stroke-width="0.5669" stroke-miterlimit="22.9256"/>
<path d="M185.799 320.008L269.912 267.331" stroke="#050007" stroke-width="0.5669" stroke-miterlimit="22.9256"/>
<path d="M185.337 285.675L268.833 233.562" stroke="#050007" stroke-width="0.5669" stroke-miterlimit="22.9256"/>
<path d="M185.903 290.492L17.2663 211.22" stroke="#050007" stroke-width="0.5669" stroke-miterlimit="22.9256"/>
<path d="M185.337 285.676L24.4126 211.067" stroke="#050007" stroke-width="0.5669" stroke-miterlimit="22.9256"/>
<path d="M382.457 188.571V217.677" stroke="#050007" stroke-width="0.5669" stroke-miterlimit="22.9256"/>
<path d="M289.347 247.346L293.306 244.887" stroke="#050007" stroke-width="0.5669" stroke-miterlimit="22.9256"/>
<path d="M289.347 276.503L382.611 217.37" stroke="#050007" stroke-width="0.5669" stroke-miterlimit="22.9256"/>
<path d="M382.559 188.572L378.086 186.419" stroke="#050007" stroke-width="0.5669" stroke-miterlimit="22.9256"/>
<path d="M378.086 145.887V197.795" stroke="#050007" stroke-width="0.5669" stroke-miterlimit="22.9256"/>
<path d="M345.284 167.921V218.446" stroke="#050007" stroke-width="0.5669" stroke-miterlimit="22.9256"/>
<path d="M341.48 166.127V210.298" stroke="#050007" stroke-width="0.5669" stroke-miterlimit="22.9256"/>
<path d="M345.233 212.194L341.377 210.35" stroke="#050007" stroke-width="0.5669" stroke-miterlimit="22.9256"/>
<path d="M326.313 178.425V230.385" stroke="#050007" stroke-width="0.5669" stroke-miterlimit="22.9256"/>
<path d="M341.428 166.179L374.539 143.991" stroke="#050007" stroke-width="0.5669" stroke-miterlimit="22.9256"/>
<path d="M378.138 145.938L374.539 143.991" stroke="#050007" stroke-width="0.5669" stroke-miterlimit="22.9256"/>
<path d="M345.284 167.972L341.428 166.127" stroke="#050007" stroke-width="0.5669" stroke-miterlimit="22.9256"/>
<path d="M345.285 167.972L378.086 145.784" stroke="#050007" stroke-width="0.5669" stroke-miterlimit="22.9256"/>
<path d="M374.642 148.141V196.053" stroke="#050007" stroke-width="0.5669" stroke-miterlimit="22.9256"/>
<path d="M293.409 200.818L289.604 198.974" stroke="#050007" stroke-width="0.5669" stroke-miterlimit="22.9256"/>
<path d="M326.313 230.385L322.817 228.694" stroke="#050007" stroke-width="0.5669" stroke-miterlimit="22.9256"/>
<path d="M165.234 67.7423L163.538 64.3604" stroke="#050007" stroke-width="0.5669" stroke-miterlimit="22.9256"/>
<path d="M187.342 77.9395V126.722" stroke="#050007" stroke-width="0.5669" stroke-miterlimit="22.9256"/>
<path d="M165.234 67.7422V120.061" stroke="#050007" stroke-width="0.5669" stroke-miterlimit="22.9256"/>
<path d="M187.342 78.0931L165.235 67.7422" stroke="#050007" stroke-width="0.5669" stroke-miterlimit="22.9256"/>
<path d="M163.538 64.3604V119.292" stroke="#050007" stroke-width="0.5669" stroke-miterlimit="22.9256"/>
<path d="M163.538 64.3604L189.45 76.9147" stroke="#050007" stroke-width="0.5669" stroke-miterlimit="22.9256"/>
<path d="M189.45 76.9146V125.39" stroke="#050007" stroke-width="0.5669" stroke-miterlimit="22.9256"/>
<path d="M189.45 76.9146L187.342 77.9394" stroke="#050007" stroke-width="0.5669" stroke-miterlimit="22.9256"/>
<path d="M187.342 93.4149L165.235 83.0127" stroke="#050007" stroke-width="0.5669" stroke-miterlimit="22.9256"/>
<path d="M187.342 99.7689L165.235 89.418" stroke="#050007" stroke-width="0.5669" stroke-miterlimit="22.9256"/>
<path d="M101.327 123.955L97.3168 122.008" stroke="#050007" stroke-width="0.5669" stroke-miterlimit="22.9256"/>
<path d="M101.327 148.039L97.3168 146.143" stroke="#050007" stroke-width="0.5669" stroke-miterlimit="22.9256"/>
<path d="M97.3164 122.008V146.245" stroke="#050007" stroke-width="0.5669" stroke-miterlimit="22.9256"/>
<path d="M14.7985 118.216L18.0889 116.063" stroke="#050007" stroke-width="0.5669" stroke-miterlimit="22.9256"/>
<path d="M326.313 230.385L293.306 251.138" stroke="#050007" stroke-width="0.5669" stroke-miterlimit="22.9256"/>
<path d="M341.532 210.452L326.365 220.034" stroke="#050007" stroke-width="0.5669" stroke-miterlimit="22.9256"/>
<path d="M378.086 197.795L345.233 218.446" stroke="#050007" stroke-width="0.5669" stroke-miterlimit="22.9256"/>
<path d="M108.885 192.107V158.8" stroke="#050007" stroke-width="0.5669" stroke-miterlimit="22.9256"/>
<path d="M101.43 159.363L17.2663 211.221" stroke="#050007" stroke-width="0.5669" stroke-miterlimit="22.9256"/>
<path d="M185.903 290.492V320.11" stroke="#050007" stroke-width="0.5669" stroke-miterlimit="22.9256"/>
<path d="M92.021 86.2405V13.3228" stroke="#050007" stroke-width="0.5669" stroke-miterlimit="22.9256"/>
<path d="M209.09 67.9473L196.648 125.185" stroke="#050007" stroke-width="0.5669" stroke-miterlimit="22.9256"/>
<path d="M205.337 66.2051L192.792 123.186" stroke="#050007" stroke-width="0.5669" stroke-miterlimit="22.9256"/>
<path d="M153.769 42.1211L141.173 99.3074" stroke="#050007" stroke-width="0.5669" stroke-miterlimit="22.9256"/>
<path d="M141.172 99.3071L137.162 97.4111" stroke="#050007" stroke-width="0.5669" stroke-miterlimit="22.9256"/>
<path d="M149.656 40.2251L137.162 97.4114" stroke="#050007" stroke-width="0.5669" stroke-miterlimit="22.9256"/>
<path d="M434.076 85.5742L422.816 139.174" stroke="#050007" stroke-width="0.5669" stroke-miterlimit="22.9256"/>
<path d="M438.395 87.5732L426.621 141.07" stroke="#050007" stroke-width="0.5669" stroke-miterlimit="22.9256"/>
<path d="M438.395 87.5733L441.223 85.7798" stroke="#050007" stroke-width="0.5669" stroke-miterlimit="22.9256"/>
<path d="M426.672 141.019L422.816 139.174" stroke="#050007" stroke-width="0.5669" stroke-miterlimit="22.9256"/>
<path d="M267.085 48.1167L286.313 36.126" stroke="#050007" stroke-width="0.5669" stroke-miterlimit="22.9256"/>
<path d="M302.92 43.8633L283.691 55.854" stroke="#050007" stroke-width="0.5669" stroke-miterlimit="22.9256"/>
<path d="M302.92 86.6504L283.691 98.6411" stroke="#050007" stroke-width="0.5669" stroke-miterlimit="22.9256"/>
<path d="M302.92 83.9858L283.691 95.9765" stroke="#050007" stroke-width="0.5669" stroke-miterlimit="22.9256"/>
<path d="M302.92 43.8633V103.458" stroke="#050007" stroke-width="0.5669" stroke-miterlimit="22.9256"/>
<path d="M302.92 103.458L228.422 150.037" stroke="#050007" stroke-width="0.5669" stroke-miterlimit="22.9256"/>
<path d="M293.306 92.646V109.453" stroke="#050007" stroke-width="0.5669" stroke-miterlimit="22.9256"/>
<path d="M293.306 49.8589V89.9816" stroke="#050007" stroke-width="0.5669" stroke-miterlimit="22.9256"/>
<path d="M291.917 69.228V73.6861" stroke="#050007" stroke-width="0.5669" stroke-miterlimit="22.9256"/>
<path d="M294.745 67.0249V71.4317" stroke="#050007" stroke-width="0.5669" stroke-miterlimit="22.9256"/>
<path d="M291.917 100.537V104.944" stroke="#050007" stroke-width="0.5669" stroke-miterlimit="22.9256"/>
<path d="M294.745 98.2827V102.741" stroke="#050007" stroke-width="0.5669" stroke-miterlimit="22.9256"/>
<path d="M264.462 98.6414L247.65 91.0063" stroke="#050007" stroke-width="0.5669" stroke-miterlimit="22.9256"/>
<path d="M228.421 150.037L211.661 142.915" stroke="#050007" stroke-width="0.5669" stroke-miterlimit="22.9256"/>
<path d="M264.462 98.5391L264.411 127.491" stroke="#050007" stroke-width="0.5669" stroke-miterlimit="22.9256"/>
<path d="M211.66 113.399L267.136 79.0156" stroke="#050007" stroke-width="0.5669" stroke-miterlimit="22.9256"/>
<path d="M228.267 121.085L283.691 86.7017" stroke="#050007" stroke-width="0.5669" stroke-miterlimit="22.9256"/>
<path d="M247.547 109.146L230.941 101.459" stroke="#050007" stroke-width="0.5669" stroke-miterlimit="22.9256"/>
<path d="M211.661 113.399V142.915" stroke="#050007" stroke-width="0.5669" stroke-miterlimit="22.9256"/>
<path d="M247.496 109.146L247.445 138.098" stroke="#050007" stroke-width="0.5669" stroke-miterlimit="22.9256"/>
<path d="M247.445 131.282L264.411 120.727" stroke="#050007" stroke-width="0.5669" stroke-miterlimit="22.9256"/>
<path d="M250.427 111.554L261.532 104.585" stroke="#050007" stroke-width="0.5669" stroke-miterlimit="22.9256"/>
<path d="M264.462 103.868L283.691 91.8774" stroke="#050007" stroke-width="0.5669" stroke-miterlimit="22.9256"/>
<path d="M283.588 86.6507L267.136 79.0156" stroke="#050007" stroke-width="0.5669" stroke-miterlimit="22.9256"/>
<path d="M273.82 92.8506V121.7" stroke="#050007" stroke-width="0.5669" stroke-miterlimit="22.9256"/>
<path d="M272.432 109.351V113.758" stroke="#050007" stroke-width="0.5669" stroke-miterlimit="22.9256"/>
<path d="M275.259 107.096V111.554" stroke="#050007" stroke-width="0.5669" stroke-miterlimit="22.9256"/>
<path d="M278.649 92.7649C278.381 92.6719 278.255 92.3364 278.367 92.0157C278.479 91.695 278.787 91.5104 279.055 91.6035C279.323 91.6965 279.45 92.032 279.338 92.3527C279.226 92.6734 278.917 92.858 278.649 92.7649Z" stroke="#050007" stroke-width="0.5669" stroke-miterlimit="22.9256"/>
<path d="M269.329 98.734C269.072 98.6128 268.982 98.2657 269.128 97.9589C269.274 97.652 269.601 97.5015 269.857 97.6228C270.114 97.744 270.203 98.0911 270.057 98.3979C269.912 98.7048 269.585 98.8553 269.329 98.734Z" stroke="#050007" stroke-width="0.5669" stroke-miterlimit="22.9256"/>
<path d="M255.311 101.408C254.005 101.408 252.946 100.582 252.946 99.5635C252.946 98.5447 254.005 97.7188 255.311 97.7188C256.617 97.7188 257.676 98.5447 257.676 99.5635C257.676 100.582 256.617 101.408 255.311 101.408Z" stroke="#050007" stroke-width="0.5669" stroke-miterlimit="22.9256"/>
<path d="M247.959 97.873C246.653 97.873 245.594 97.0471 245.594 96.0283C245.594 95.0095 246.653 94.1836 247.959 94.1836C249.265 94.1836 250.324 95.0095 250.324 96.0283C250.324 97.0471 249.265 97.873 247.959 97.873Z" stroke="#050007" stroke-width="0.5669" stroke-miterlimit="22.9256"/>
<path d="M247.959 105.61C246.653 105.61 245.594 104.784 245.594 103.766C245.594 102.747 246.653 101.921 247.959 101.921C249.265 101.921 250.324 102.747 250.324 103.766C250.324 104.784 249.265 105.61 247.959 105.61Z" stroke="#050007" stroke-width="0.5669" stroke-miterlimit="22.9256"/>
<path d="M240.607 102.075C239.3 102.075 238.242 101.249 238.242 100.23C238.242 99.2112 239.3 98.3853 240.607 98.3853C241.913 98.3853 242.972 99.2112 242.972 100.23C242.972 101.249 241.913 102.075 240.607 102.075Z" stroke="#050007" stroke-width="0.5669" stroke-miterlimit="22.9256"/>
<path d="M228.421 121.086L211.661 113.399" stroke="#050007" stroke-width="0.5669" stroke-miterlimit="22.9256"/>
<path d="M237.882 115.193V144.196" stroke="#050007" stroke-width="0.5669" stroke-miterlimit="22.9256"/>
<path d="M236.442 126.62V131.078" stroke="#050007" stroke-width="0.5669" stroke-miterlimit="22.9256"/>
<path d="M239.27 124.416V128.823" stroke="#050007" stroke-width="0.5669" stroke-miterlimit="22.9256"/>
<path d="M228.267 121.085V150.037" stroke="#050007" stroke-width="0.5669" stroke-miterlimit="22.9256"/>
<path d="M4.15533 69.7407L14.7979 118.216" stroke="#050007" stroke-width="0.5669" stroke-miterlimit="22.9256"/>
<path d="M7.44635 67.5889L18.0889 116.064" stroke="#050007" stroke-width="0.5669" stroke-miterlimit="22.9256"/>
<path d="M378.189 197.795L374.642 196.053" stroke="#050007" stroke-width="0.5669" stroke-miterlimit="22.9256"/>
<path d="M345.233 212.194L326.313 224.134" stroke="#050007" stroke-width="0.5669" stroke-miterlimit="22.9256"/>
<path d="M382.457 188.571L378.086 191.287" stroke="#050007" stroke-width="0.5669" stroke-miterlimit="22.9256"/>
<path d="M159.682 175.453L155.62 173.557" stroke="#050007" stroke-width="0.5669" stroke-miterlimit="22.9256"/>
<path d="M341.48 166.127V210.298" stroke="#050007" stroke-width="0.5669" stroke-miterlimit="22.9256"/>
<path d="M293.409 200.818L289.604 198.974" stroke="#050007" stroke-width="0.5669" stroke-miterlimit="22.9256"/>
<path d="M322.817 228.745L293.305 247.295" stroke="#050007" stroke-width="0.5669" stroke-miterlimit="22.9256"/>
<path d="M96.8542 97.4626C96.957 96.6939 97.2654 95.9253 97.7796 95.1567C98.705 93.7731 100.247 92.6458 102.047 91.8772C103.435 91.3135 104.875 91.0573 106.109 91.1085L107.137 90.2374L106.006 89.725L106.057 89.6225H105.954L104.463 81.5775C104.463 81.4238 104.412 81.3213 104.412 81.1675C104.412 80.1939 104.926 79.2716 105.749 78.7592L107.702 77.6318L118.294 82.7561C118.654 82.961 118.911 83.4222 118.859 83.8834L118.191 91.4672H118.037L118.139 91.5697L116.134 92.7995C115.826 92.9533 115.517 93.107 115.209 93.2095C115.055 93.3632 113.975 94.6443 113.307 96.6427C112.587 98.7436 112.844 99.7172 112.844 99.7172L112.895 99.8197L112.227 100.332L115.723 102.074L115.569 102.177V103.509L106.314 109.197L98.7564 105.61L98.705 105.559V104.38L98.5508 104.329L100.453 103.15L100.145 103.048C100.093 103.048 98.3965 102.638 97.5225 101.613C96.5456 100.486 96.2886 98.9998 96.8542 97.4626Z" fill="white"/>
<path d="M99.1521 98.9332C98.5541 97.4647 100.245 95.3942 102.929 94.3085C105.612 93.2228 108.273 93.5332 108.871 95.0017C109.469 96.4702 107.778 98.5407 105.094 99.6264C102.411 100.712 99.7502 100.402 99.1521 98.9332Z" stroke="#050007" stroke-width="0.5669" stroke-miterlimit="22.9256"/>
<path d="M108.782 94.7983C108.782 94.6958 108.73 94.5933 108.679 94.4908C107.959 92.7486 105.131 92.1849 102.406 93.3123C99.6814 94.4396 98.0361 96.7455 98.7559 98.539C98.8588 98.8464 99.0644 99.1027 99.2701 99.3076" stroke="#050007" stroke-width="0.5669" stroke-miterlimit="22.9256"/>
<path d="M97.1527 99.1507C96.1489 96.6858 98.3425 93.4709 102.052 91.9701C105.762 90.4694 109.583 91.251 110.587 93.716C111.591 96.1809 109.397 99.3958 105.688 100.897C101.978 102.397 98.1566 101.616 97.1527 99.1507Z" stroke="#050007" stroke-width="0.5669" stroke-miterlimit="22.9256"/>
<path d="M115.157 93.0562C115.157 93.0562 113.975 94.3372 113.204 96.5406C112.432 98.744 112.741 99.6664 112.741 99.6664L110.427 101.409" stroke="#050007" stroke-width="0.5669" stroke-miterlimit="22.9256"/>
<path d="M110.427 101.306C110.941 102.535 109.656 104.226 107.548 105.046C105.44 105.866 103.383 105.559 102.869 104.329C102.818 104.175 102.766 104.021 102.766 103.816L100.144 102.843C100.144 102.843 98.4474 102.484 97.5734 101.459C96.6994 100.434 96.4423 98.9997 96.9565 97.5137" stroke="#050007" stroke-width="0.5669" stroke-miterlimit="22.9256"/>
<path d="M111.969 100.281L115.465 102.023L106.057 107.609L98.8073 104.278L100.71 103.1" stroke="#050007" stroke-width="0.5669" stroke-miterlimit="22.9256"/>
<path d="M98.8073 104.278V105.457L106.314 108.992L115.465 103.356V101.972" stroke="#050007" stroke-width="0.5669" stroke-miterlimit="22.9256"/>
<path d="M106.058 89.6221L104.567 81.5771C104.361 80.501 104.875 79.4249 105.801 78.8612L107.703 77.7852L118.243 82.8581C118.603 83.0631 118.808 83.4218 118.757 83.8317L118.088 91.4156" stroke="#050007" stroke-width="0.5669" stroke-miterlimit="22.9256"/>
<path d="M107.394 90.2378L106.159 91.2626" stroke="#050007" stroke-width="0.5669" stroke-miterlimit="22.9256"/>
<path d="M108.524 90.75L107.753 91.4674" stroke="#050007" stroke-width="0.5669" stroke-miterlimit="22.9256"/>
<path d="M111.609 92.1846L110.324 93.1582" stroke="#050007" stroke-width="0.5669" stroke-miterlimit="22.9256"/>
<path d="M112.535 92.646L110.735 94.132" stroke="#050007" stroke-width="0.5669" stroke-miterlimit="22.9256"/>
<path d="M98.0367 100.384C99.2706 102.485 102.87 103.1 106.314 101.665C109.502 100.384 111.558 97.8217 111.456 95.5671L113.872 93.1587" stroke="#050007" stroke-width="0.5669" stroke-miterlimit="22.9256"/>
<path d="M118.653 83.2689L116.288 84.7037C115.208 85.3698 113.871 85.4723 112.689 84.9086L104.463 81.1167" stroke="#050007" stroke-width="0.5669" stroke-miterlimit="22.9256"/>
<path d="M118.087 91.4673L116.082 92.6971C115.157 93.2607 114.026 93.312 113.049 92.8508L106.057 89.6226" stroke="#050007" stroke-width="0.5669" stroke-miterlimit="22.9256"/>
<path class="arrow6_plan_2" fill-rule="evenodd" clip-rule="evenodd" d="M240.769 65.2539C242.115 64.9461 243.455 65.7876 243.763 67.1335C244.024 68.2752 243.458 69.4131 242.459 69.9201L259.776 78.1406C261.023 78.7327 261.555 80.2239 260.962 81.4712C260.37 82.7185 258.879 83.2496 257.632 82.6575L238.683 73.6624L238.927 74.7049C239.242 76.0493 238.407 77.3943 237.063 77.709C235.719 78.0237 234.374 77.1891 234.059 75.8447L232.619 69.6956L232.047 67.249L234.496 66.6887L240.769 65.2539Z" fill="#7E7E7E"/>
<path class="arrow4_plan_2" fill-rule="evenodd" clip-rule="evenodd" d="M37.0123 65.1011C38.3577 64.7908 39.6999 65.6299 40.0102 66.9753C40.2684 68.095 39.7306 69.2124 38.7674 69.7347L61.0648 80.3451C62.3116 80.9383 62.8413 82.43 62.2481 83.6767C61.6548 84.9235 60.1632 85.4532 58.9164 84.8599L34.9729 73.4663L35.2268 74.5512C35.5416 75.8955 34.7069 77.2405 33.3625 77.5552C32.0181 77.8699 30.6732 77.0353 30.3585 75.6909L28.9189 69.5418L28.3472 67.0996L30.7913 66.5359L37.0123 65.1011Z" fill="#7E7E7E"/>
<path d="M86.2115 206.353C86.2115 206.353 86.2629 206.352 86.2629 206.301L89.3991 204.457L86.9313 192.466C86.777 191.646 87.1369 190.877 87.8567 190.467L121.121 171.098C121.738 170.739 122.407 170.637 123.024 170.79C123.126 170.79 123.229 170.842 123.332 170.842C123.743 170.944 124.258 170.995 124.772 171.303C125.132 171.508 125.491 171.764 125.851 172.071C126.982 173.096 127.754 174.531 128.114 176.12L129.245 181.654L132.227 180.014C132.844 179.758 133.512 179.809 134.129 180.116L145.8 186.573C148.062 187.803 149.45 190.109 149.45 192.671V206.148C149.45 206.762 149.09 207.326 148.525 207.634L144.257 210.144L144.206 210.196H144.155C143.898 210.349 143.64 210.401 143.383 210.401C143.126 210.401 142.818 210.349 142.561 210.196L140.916 209.273L108.114 228.335V229.719C108.114 230.283 107.857 230.795 107.342 231.102L102.869 233.716C102.612 233.87 102.355 233.921 102.047 233.921C101.79 233.921 101.481 233.87 101.224 233.716L86.1087 225.056C85.4917 224.697 85.0804 224.031 85.0804 223.314V208.248C85.1318 207.48 85.5431 206.762 86.2115 206.353Z" fill="white"/>
<path d="M86.0569 224.851L101.172 233.511C102.201 234.074 103.435 233.357 103.435 232.178V218.702C103.435 216.191 102.046 213.885 99.8356 212.706L88.1135 206.352C86.7253 205.635 85.0801 206.608 85.0801 208.146V223.211C85.1315 223.877 85.4914 224.492 86.0569 224.851Z" stroke="#050007" stroke-width="0.567" stroke-miterlimit="22.9256" stroke-linejoin="round"/>
<path d="M102.716 233.511L107.189 230.847C107.6 230.59 107.857 230.129 107.857 229.565V216.089C107.857 213.578 106.469 211.272 104.258 210.093L92.5357 203.739C91.8673 203.381 91.0961 203.432 90.4792 203.791L86.1604 206.353" stroke="#050007" stroke-width="0.567" stroke-miterlimit="22.9256" stroke-linejoin="round"/>
<path d="M140.813 208.966L142.509 209.94C143.538 210.503 144.771 209.786 144.771 208.607V195.131C144.771 192.62 143.383 190.314 141.173 189.135L129.09 182.576" stroke="#050007" stroke-width="0.567" stroke-miterlimit="22.9256" stroke-linejoin="round"/>
<path d="M129.09 181.756L132.124 180.117C132.689 179.86 133.306 179.86 133.923 180.219L145.646 186.573C147.856 187.752 149.245 190.057 149.245 192.568V206.045C149.245 206.66 148.885 207.172 148.422 207.377L144.052 209.939" stroke="#050007" stroke-width="0.567" stroke-miterlimit="22.9256" stroke-linejoin="round"/>
<path d="M107.857 218.6L143.538 197.795L130.838 190.877L101.019 208.351" stroke="#050007" stroke-width="0.567" stroke-miterlimit="22.9256" stroke-linejoin="round"/>
<path d="M107.857 224.185L143.538 203.483V197.795" stroke="#050007" stroke-width="0.567" stroke-miterlimit="22.9256" stroke-linejoin="round"/>
<path d="M141.892 204.457V208.351L107.856 228.13" stroke="#050007" stroke-width="0.567" stroke-miterlimit="22.9256" stroke-linejoin="round"/>
<path d="M130.838 190.877L127.754 176.171C127.445 174.634 126.674 173.199 125.543 172.174C125.234 171.867 124.874 171.61 124.514 171.405C123.846 171.047 123.229 170.995 122.818 170.893C122.201 170.739 121.533 170.842 120.967 171.2L87.7025 190.57C87.0341 190.929 86.7256 191.697 86.8799 192.466L89.3991 204.508" stroke="#050007" stroke-width="0.567" stroke-miterlimit="22.9256" stroke-linejoin="round"/>
<path d="M95.1577 205.174L93.3068 196.206C92.9983 194.669 92.2271 193.234 91.0959 192.209C90.7874 191.902 90.4275 191.646 90.0676 191.441C89.3992 191.082 88.7823 191.031 88.371 190.928C88.0625 190.877 87.754 190.826 87.4455 190.877" stroke="#050007" stroke-width="0.567" stroke-miterlimit="22.9256" stroke-linejoin="round"/>
<path d="M225.696 41.4551L206.211 53.8557" stroke="#050007" stroke-width="0.5669" stroke-miterlimit="22.9256"/>
<path d="M209.45 64.3605L217.573 59.1851" stroke="#050007" stroke-width="0.5669" stroke-miterlimit="22.9256"/>
<path d="M220.967 57.0327L212.741 53.1895L225.697 45.042L233.872 48.8339L220.967 57.0327Z" fill="#F2F2F2" stroke="#050007" stroke-width="0.5669" stroke-miterlimit="22.9256"/>
<path d="M225.697 41.4551L237.11 46.7843" stroke="#050007" stroke-width="0.5669" stroke-miterlimit="22.9256"/>
<path d="M206.211 53.8555L217.573 59.1847" stroke="#050007" stroke-width="0.5669" stroke-miterlimit="22.9256"/>
<path class="arrow7_plan_2" fill-rule="evenodd" clip-rule="evenodd" d="M220.703 27.9908L222.468 26.252L224.222 28.0008L228.747 32.5102C229.725 33.4848 229.727 35.0677 228.753 36.0457C227.778 37.0236 226.195 37.0263 225.217 36.0516L224.932 35.7671L224.855 50.6918C224.848 52.0725 223.723 53.186 222.342 53.1789C220.961 53.1718 219.848 52.0467 219.855 50.666L219.932 35.7702L219.688 36.0104C218.704 36.9795 217.121 36.9678 216.152 35.9843C215.183 35.0008 215.195 33.4179 216.178 32.4489L220.703 27.9908Z" fill="#7E7E7E"/>
<path d="M206.211 53.8555V62.8229" stroke="#050007" stroke-width="0.5669" stroke-miterlimit="22.9256"/>
<path d="M225.696 45.042V54.0094" stroke="#050007" stroke-width="0.5669" stroke-miterlimit="22.9256"/>
<path d="M31.8675 48.68L92.2271 9.88965" stroke="#050007" stroke-width="0.5669" stroke-miterlimit="22.9256"/>
<path d="M0.967773 55.752V141.07" stroke="#050007" stroke-width="0.5669" stroke-miterlimit="22.9256"/>
<path d="M20.4536 43.4023L0.967834 55.7517" stroke="#050007" stroke-width="0.5669" stroke-miterlimit="22.9256"/>
<path d="M15.775 58.9282L7.49743 55.085L20.5051 46.9888L28.6284 50.7295L15.775 58.9282Z" fill="#F2F2F2" stroke="#050007" stroke-width="0.5669" stroke-miterlimit="22.9256"/>
<path d="M20.4532 43.4023L31.8672 48.6803" stroke="#050007" stroke-width="0.5669" stroke-miterlimit="22.9256"/>
<path d="M0.968079 55.752L12.3818 61.0811" stroke="#050007" stroke-width="0.5669" stroke-miterlimit="22.9256"/>
<path class="arrow5_plan_2" fill-rule="evenodd" clip-rule="evenodd" d="M15.4496 29.8966L17.2144 28.1377L18.9793 29.8966L23.5036 34.406C24.4815 35.3806 24.4842 36.9635 23.5095 37.9415C22.5348 38.9194 20.9519 38.9221 19.974 37.9474L19.7271 37.7013L19.6118 52.594C19.6011 53.9747 18.4732 55.0853 17.0926 55.0746C15.7119 55.0639 14.6013 53.936 14.612 52.5553L14.7271 37.676L14.5062 37.8961C13.5283 38.8708 11.9454 38.8682 10.9707 37.8902C9.99602 36.9123 9.99866 35.3294 10.9766 34.3547L15.4496 29.8966Z" fill="#7E7E7E"/>
<path d="M20.5049 46.9888V55.9049" stroke="#050007" stroke-width="0.5669" stroke-miterlimit="22.9256"/>
<path d="M12.3818 61.0806L0.968079 68.3057" stroke="#050007" stroke-width="0.5669" stroke-miterlimit="22.9256"/>
<path d="M363.896 155.315V206.711" stroke="#050007" stroke-width="0.5669" stroke-miterlimit="22.9256"/>
<path d="M361.479 156.955V208.197" stroke="#050007" stroke-width="0.5669" stroke-miterlimit="22.9256"/>
<path d="M361.428 208.197L357.881 206.506" stroke="#050007" stroke-width="0.5669" stroke-miterlimit="22.9256"/>
<path d="M357.881 159.363V206.506" stroke="#050007" stroke-width="0.5669" stroke-miterlimit="22.9256"/>
<path d="M357.881 206.506L345.285 214.449" stroke="#050007" stroke-width="0.5669" stroke-miterlimit="22.9256"/>
<path class="arrow3_plan_2" fill-rule="evenodd" clip-rule="evenodd" d="M121.798 104.71C123.144 104.403 124.485 105.244 124.792 106.59C125.051 107.72 124.499 108.846 123.519 109.361L145.848 120.008C147.094 120.602 147.623 122.094 147.028 123.34C146.434 124.586 144.942 125.115 143.696 124.521L119.704 113.081L119.957 114.162C120.271 115.506 119.437 116.851 118.092 117.166C116.748 117.48 115.403 116.646 115.088 115.301L113.649 109.152L113.076 106.706L115.526 106.145L121.798 104.71Z" fill="#7E7E7E"/>
<path class="arrow2_plan_2" fill-rule="evenodd" clip-rule="evenodd" d="M220.713 152.674C222.058 152.364 223.401 153.203 223.711 154.549C223.97 155.672 223.428 156.793 222.459 157.313L244.769 167.971C246.015 168.566 246.542 170.059 245.947 171.305C245.352 172.55 243.86 173.078 242.614 172.483L218.664 161.042L218.929 162.18C219.241 163.525 218.404 164.868 217.059 165.181C215.714 165.493 214.37 164.656 214.058 163.311L212.619 157.111L212.052 154.672L214.492 154.109L220.713 152.674Z" fill="#7E7E7E"/>
<path class="arrow1_plan_2" fill-rule="evenodd" clip-rule="evenodd" d="M319.067 200.996C320.412 200.685 321.755 201.524 322.065 202.87C322.323 203.99 321.785 205.107 320.822 205.629L343.12 216.24C344.366 216.833 344.896 218.324 344.303 219.571C343.709 220.818 342.218 221.348 340.971 220.754L317.028 209.361L317.282 210.446C317.596 211.79 316.762 213.135 315.417 213.45C314.073 213.764 312.728 212.93 312.413 211.585L310.974 205.436L310.402 202.994L312.846 202.43L319.067 200.996Z" fill="#7E7E7E"/>
<path d="M345.284 214.449L357.983 206.506L357.881 159.466L345.284 167.921V214.449Z" fill="white" stroke="#231F20" stroke-width="0.3806" stroke-miterlimit="22.9256"/>
<path d="M361.685 189.955C356.432 189.955 352.174 185.711 352.174 180.475C352.174 175.239 356.432 170.995 361.685 170.995C366.938 170.995 371.197 175.239 371.197 180.475C371.197 185.711 366.938 189.955 361.685 189.955Z" fill="#7E7E7E"/>
<path d="M361.685 175.197C362.919 175.197 363.793 175.812 364.308 176.529C365.13 177.708 364.873 178.323 364.925 179.757H365.542V185.65H361.737H357.932V179.757H358.549C358.601 178.323 358.344 177.708 359.166 176.529C359.578 175.863 360.452 175.248 361.685 175.197ZM361.685 181.09C361.274 181.09 360.914 181.448 360.914 181.858C360.914 182.114 361.069 182.371 361.274 182.524V183.498C361.274 183.703 361.428 183.857 361.634 183.857C361.84 183.857 361.994 183.703 361.994 183.498V182.524C362.2 182.371 362.354 182.166 362.354 181.858C362.457 181.448 362.097 181.09 361.685 181.09ZM363.742 179.757C363.793 178.066 363.742 176.375 361.737 176.375C361.737 176.375 361.737 176.375 361.685 176.375C361.685 176.375 361.685 176.375 361.634 176.375C359.629 176.375 359.578 178.118 359.629 179.757H361.685H363.742Z" fill="white"/>
<path d="M289.604 198.973L293.408 200.818L326.313 178.425L322.765 176.632L289.604 198.973Z" fill="white" stroke="#231F20" stroke-width="0.5058" stroke-miterlimit="22.9256" stroke-linejoin="round"/>
<path d="M185.8 320.008L17.2661 241.351" stroke="#050007" stroke-width="0.5669" stroke-miterlimit="22.9256"/>
<path d="M172.792 256.57C172.792 256.519 172.792 256.467 172.844 256.467L181.378 250.728V229.719C181.378 229.668 181.378 229.616 181.43 229.616L208.936 212.04C208.987 211.989 209.039 211.989 209.09 212.04L210.53 212.707C210.581 212.707 210.581 212.758 210.581 212.809V234.177L219.064 238.071C219.116 238.071 219.116 238.123 219.116 238.174V250.267C219.116 250.318 219.064 250.37 219.064 250.37L218.139 250.933V252.061C218.139 252.112 218.139 252.112 218.087 252.163C218.087 252.163 217.625 252.675 216.802 252.675C216.288 252.675 216.082 252.471 215.98 252.317L185.491 271.225V272.096V272.148C185.491 272.199 185.131 272.865 184.412 272.865C183.949 272.865 183.589 272.66 183.383 272.506L182.201 273.224H182.149H182.098L172.792 268.663C172.741 268.663 172.689 268.612 172.689 268.509L172.792 256.57Z" fill="white"/>
<path d="M182.561 255.289L210.479 237.918V212.758L182.561 230.231V255.289Z" stroke="#050007" stroke-width="0.567" stroke-miterlimit="22.9256" stroke-linejoin="round"/>
<path d="M210.479 212.758L209.039 212.092L181.533 229.668L182.561 230.232" stroke="#050007" stroke-width="0.567" stroke-miterlimit="22.9256" stroke-linejoin="round"/>
<path d="M182.561 255.289L181.532 254.777V229.668" stroke="#050007" stroke-width="0.567" stroke-miterlimit="22.9256" stroke-linejoin="round"/>
<path d="M219.064 238.174L210.478 234.229" stroke="#050007" stroke-width="0.567" stroke-miterlimit="22.9256" stroke-linejoin="round"/>
<path d="M181.532 250.78L172.946 256.57L182.149 261.131" stroke="#050007" stroke-width="0.567" stroke-miterlimit="22.9256" stroke-linejoin="round"/>
<path d="M184.463 262.104L216.854 241.658V249.242L184.463 269.893V262.104Z" stroke="#050007" stroke-width="0.567" stroke-miterlimit="22.9256" stroke-linejoin="round"/>
<path d="M219.064 250.267L182.252 273.121L182.15 261.131L219.064 238.174V250.267Z" stroke="#050007" stroke-width="0.567" stroke-miterlimit="22.9256" stroke-linejoin="round"/>
<path d="M172.947 256.57V268.561L182.252 273.122" stroke="#050007" stroke-width="0.567" stroke-miterlimit="22.9256" stroke-linejoin="round"/>
<path d="M218.088 250.934V252.061C218.088 252.061 217.677 252.522 216.905 252.522C216.134 252.522 216.134 252.061 216.134 252.061" stroke="#050007" stroke-width="0.567" stroke-miterlimit="22.9256" stroke-linejoin="round"/>
<path d="M185.44 271.226V272.097C185.44 272.097 185.131 272.712 184.515 272.712C183.898 272.712 183.486 272.302 183.486 272.302" stroke="#050007" stroke-width="0.567" stroke-miterlimit="22.9256" stroke-linejoin="round"/>
<path d="M204.155 241.812L206.879 243.042" stroke="#050007" stroke-width="0.567" stroke-miterlimit="22.9256" stroke-linejoin="round"/>
<path d="M191.867 249.499L194.489 250.78V251.804L190.941 250.113" stroke="#050007" stroke-width="0.567" stroke-miterlimit="22.9256" stroke-linejoin="round"/>
<path d="M194.489 251.804L206.879 244.169V243.042L194.489 250.78" stroke="#050007" stroke-width="0.567" stroke-miterlimit="22.9256" stroke-linejoin="round"/>
<path d="M216.854 249.242L210.119 245.963" stroke="#050007" stroke-width="0.567" stroke-miterlimit="22.9256" stroke-linejoin="round"/>
<path d="M225.593 70.8171L235.465 64.5655V56.5205L225.593 62.8745V70.8171Z" stroke="#050007" stroke-width="0.5669" stroke-miterlimit="22.9256"/>
<path d="M226.21 69.4336L234.899 63.8994" stroke="#050007" stroke-width="0.5669" stroke-miterlimit="22.9256"/>
<path d="M226.21 63.5405L234.899 58.0063" stroke="#050007" stroke-width="0.5669" stroke-miterlimit="22.9256"/>
<path d="M226.21 64.7192L234.899 59.1851" stroke="#050007" stroke-width="0.5669" stroke-miterlimit="22.9256"/>
<path d="M226.21 65.8979L234.899 60.3638" stroke="#050007" stroke-width="0.5669" stroke-miterlimit="22.9256"/>
<path d="M226.21 67.0766L234.899 61.5425" stroke="#050007" stroke-width="0.5669" stroke-miterlimit="22.9256"/>
<path d="M226.21 68.2549L234.899 62.7207" stroke="#050007" stroke-width="0.5669" stroke-miterlimit="22.9256"/>
<path d="M19.425 71.8928L29.2964 65.6412V57.5962L19.425 63.9502V71.8928Z" stroke="#050007" stroke-width="0.5669" stroke-miterlimit="22.9256"/>
<path d="M20.0421 70.5093L28.731 64.9751" stroke="#050007" stroke-width="0.5669" stroke-miterlimit="22.9256"/>
<path d="M20.0421 64.6162L28.731 59.082" stroke="#050007" stroke-width="0.5669" stroke-miterlimit="22.9256"/>
<path d="M20.0421 65.7949L28.731 60.2607" stroke="#050007" stroke-width="0.5669" stroke-miterlimit="22.9256"/>
<path d="M20.0421 66.9736L28.731 61.4395" stroke="#050007" stroke-width="0.5669" stroke-miterlimit="22.9256"/>
<path d="M20.0421 68.1523L28.731 62.6182" stroke="#050007" stroke-width="0.5669" stroke-miterlimit="22.9256"/>
<path d="M20.0421 69.3305L28.731 63.7964" stroke="#050007" stroke-width="0.5669" stroke-miterlimit="22.9256"/>
</svg>
