<?xml version="1.0" encoding="utf-8"?>
<!-- Generator: Adobe Illustrator 23.0.2, SVG Export Plug-In . SVG Version: 6.00 Build 0)  -->
<svg version="1.1" id="Слой_1" xmlns="http://www.w3.org/2000/svg" xmlns:xlink="http://www.w3.org/1999/xlink" x="0px" y="0px"
	 width="438px" height="317px" viewBox="0 0 438 317" style="enable-background:new 0 0 438 317;" xml:space="preserve">
<style type="text/css">
	.st0{fill:#FDFDFD;}
	.st1{fill:url(#SVGID_1_);}
	.st2{fill:none;stroke:#271D2C;stroke-width:0.38;stroke-miterlimit:22.93;}
	.st3{fill:none;stroke:#271D2C;stroke-width:0.38;stroke-linejoin:round;}
	.st4{fill:#F0F0F0;stroke:#271D2C;stroke-width:0.38;stroke-miterlimit:22.93;}
	.st5{fill:url(#SVGID_2_);}
	.st6{fill:#00ABD0;}
	.st7{fill:none;stroke:#1D1D1B;stroke-width:0.5;stroke-linejoin:round;}
	.st8{fill:url(#SVGID_3_);}
	.st9{fill:none;stroke:#1D1D1B;stroke-width:0.5;stroke-miterlimit:10;}
	.st10{fill:none;stroke:#00ABD0;stroke-width:3;stroke-linecap:round;stroke-miterlimit:22.93;}
	.first_arrow{animation:arrow1 2s ease infinite;transform:translate3d(15px, -10px, 0)}
	@keyframes arrow1{
		0%{transform:translate3d(15px, -10px, 0);opacity:0;}
		50%{transform:translate3d(0, 0, 0);opacity:1;}
		100%{transform:translate3d(0, 0, 0);opacity:1;}
	}
	.arrow_2 path{animation:arrow2 2s ease infinite;opacity:0;}
	@keyframes arrow2{
		0%{opacity:0;}
		100%{opacity:1;}
	}
	.arrow_3 path{animation:arrow3 2s ease infinite;transform:translate3d(15px, -10px, 0);}
	@keyframes arrow3{
		0%{transform:translate3d(15px, -10px, 0);opacity:0;}
		100%{transform:translate3d(0, 0, 0);opacity:1;}
	}
	.arrow_4 path{animation:arrow4 2s ease infinite;transform:translate3d(63px, 34px, 0px);}
	@keyframes arrow4{
		0%{transform:translate3d(63px, 34px, 0px);opacity:0;}
		100%{transform:translate3d(0, 0, 0);opacity:1;}
	}
	.arrow_5 path{animation:arrow5 4s ease infinite;animation-delay:1.5s;opacity:0;}
	@keyframes arrow5{
		0%{transform:translate3d(0,0,0);opacity:0;}
		100%{transform:translate3d(0px, -20px, 0px);opacity:1;}
	}
	.arrow_6 path{animation:arrow6 2s ease infinite;animation-delay:.1s;opacity:0;}
	@keyframes arrow6{
		0%{opacity:0;}
		50%{opacity:1;}
		100%{opacity:1;}
	}
	.arrow_7 path{animation:arrow7 2s ease infinite;transform:translate3d(36px, 17px, 0);animation-delay:.2s;opacity:0;}
	@keyframes arrow7{
		0%{transform:translate3d(36px, 17px, 0);opacity:0;}
		50%{transform:translate3d(0, 0, 0);opacity:1;}
		100%{transform:translate3d(0, 0, 0);opacity:1;}
	}
	.arrow_8 path{animation:arrow8 2s ease infinite;transform:translate3d(36px, 17px, 0);animation-delay:.3s;opacity:0;}
	@keyframes arrow8{
		0%{transform:translate3d(36px, 17px, 0);opacity:0;}
		50%{transform:translate3d(0, 0, 0);opacity:1;}
		100%{transform:translate3d(0, 0, 0);opacity:1;}
	}
	.arrow_9 path{animation:arrow8 2s ease infinite;transform:translate3d(36px, 17px, 0);animation-delay:.4s;opacity:0;}
	.arrow_10 path{animation:arrow5 4s ease infinite;animation-delay:.1s;opacity:0;}
</style>


<path class="st0" d="M280.6,9.4l144.9,67.9v72.4L370,185.2V203l-88.1,56.3l-18.3-9l-79.7,50.2L24.4,225.6v-28.7L78.9,163L9,130V48.7
	l18.4-11.8l10.8,5L95.3,5l107.8,50.4v-8.5l18.4-11.8l10.8,5L280.6,9.4z"/>
<linearGradient id="SVGID_1_" gradientUnits="userSpaceOnUse" x1="216.85" y1="551.8" x2="216.85" y2="741.8" gradientTransform="matrix(1 0 0 1 0 -474)">
	<stop  offset="0" style="stop-color:#FFFFFF"/>
	<stop  offset="1" style="stop-color:#FFFFFF;stop-opacity:0"/>
</linearGradient>
<path class="st1" d="M111.4,178.6v-31.7l-70.8-33.6L70.5,94l24.8-16.2l34,15.8l-29,18.3l0.1,22.9l3.8,1.8l49.5-31.7l28.8,13.5
	L155.4,136v24.9l3.9,1.9l49.2-31l15.9,6.8l70.5-44.4v-2.9l98.2,46.2L366,154.1l-0.1-19.4l-3.3-1.9L331.4,154l-0.1,42.3l-14.2,9
	v-39.5l-3.3-1.8l-31.4,21.2v42.4l-19.6-9.4l-79.2,49.6L60.2,210.2L111.4,178.6z"/>
<path class="st2" d="M425.6,77.3l-145-67.9"/>
<path class="st2" d="M418.8,77.1L281.6,12.9"/>
<path class="st2" d="M276.6,48.8l-15.7-7.3"/>
<path class="st2" d="M294.8,37.4L279,30.1"/>
<path class="st2" d="M232.5,40.2l48.2-30.8"/>
<path class="st2" d="M206.1,60.3l75.5-47.6"/>
<path class="st2" d="M281.6,12.8v18.4"/>
<path class="st2" d="M260.9,41.4v29.5"/>
<path class="st2" d="M276.6,48.8v56.8"/>
<path class="st2" d="M425.6,77.2v72.5"/>
<path class="st2" d="M392.9,137.5l-98.2-46.2"/>
<path class="st2" d="M159.3,162.7l49.2-31"/>
<path class="st2" d="M370,185.3l55.5-35.7"/>
<path class="st2" d="M365.9,158.4l45.9-28.4"/>
<path class="st2" d="M365.9,154.1l42.3-25.9"/>
<path class="st2" d="M206.4,56.9L95.5,5"/>
<path class="st2" d="M149.8,33.9L95.3,8.3"/>
<path class="st2" d="M202.5,58.7l-48.8-22.9"/>
<path class="st2" d="M159.3,137.7l34.9-23.1"/>
<path class="st2" d="M194.2,114.6l-3.6-1.7"/>
<path class="st2" d="M155.4,136l35.2-23"/>
<path class="st2" d="M159.3,137.7v25.1"/>
<path class="st2" d="M159.2,137.8l-3.8-1.8"/>
<path class="st2" d="M155.4,136v24.9"/>
<path class="st2" d="M153.7,35.8v69.4"/>
<path class="st2" d="M182.4,118.4l-28.8-13.5"/>
<path class="st2" d="M104.1,136.6l49.5-31.5"/>
<path class="st2" d="M129.3,93.6l-34-15.8"/>
<path class="st2" d="M104.1,113.8l37.7-23.5"/>
<path class="st2" d="M100.3,111.9L138,88.4"/>
<path class="st2" d="M104.1,113.8v22.8"/>
<path class="st2" d="M15.2,60l80-51.7"/>
<path class="st2" d="M12,62l-3-1.4"/>
<path class="st2" d="M40.5,113.3l54.8-35.6"/>
<path class="st2" d="M79,163L9,130.2"/>
<path class="st2" d="M104.2,147.4l-82-39.2"/>
<path class="st2" d="M111.3,146.9l-86-40.7"/>
<path class="st2" d="M60.2,210.2l51.1-31.8"/>
<path class="st2" d="M31.3,196.7l79.9-49.8"/>
<path class="st2" d="M24.6,196.9v28.7"/>
<path class="st2" d="M281.9,231.3v27.9"/>
<path class="st2" d="M285.7,186.8l-0.1,48.1"/>
<path class="st2" d="M263.5,222.2v28.2"/>
<path class="st2" d="M285.6,229.2l-23.1-11.1"/>
<path class="st2" d="M281.9,259.2l3.4-2.3"/>
<path class="st2" d="M282.1,231.2l-18.7-8.9"/>
<path class="st2" d="M281.9,259.1l-18.4-8.9"/>
<path class="st2" d="M184,272.4l79.4-50.1"/>
<path class="st2" d="M184,300.5l79.6-50.2"/>
<path class="st2" d="M183.5,267.8l79-49.6"/>
<path class="st2" d="M184.1,272.4L24.6,196.9"/>
<path class="st2" d="M184.1,300.3l-106.6-50"/>
<path class="st2" d="M183.5,267.8L31.3,196.7"/>
<path class="st2" d="M77.5,250.3l-53-24.8"/>
<path class="st2" d="M370,175.3V203"/>
<path class="st2" d="M281.9,231.3l3.7-2.4"/>
<path class="st2" d="M285.4,256.9l84.9-54.2"/>
<path class="st2" d="M370.1,175.3l-4.2-2"/>
<path class="st2" d="M362.6,176.3l-10.2-5"/>
<path class="st2" d="M362.6,171.6l-9.9-4.8"/>
<path class="st2" d="M352.7,166.9l10-6.5"/>
<path class="st2" d="M365.9,134.7v49.4"/>
<path class="st2" d="M352.5,143.6v49"/>
<path class="st2" d="M350.2,145.1V194"/>
<path class="st2" d="M334.9,155.5v48.2"/>
<path class="st2" d="M331.3,153.9V196"/>
<path class="st2" d="M334.8,197.8l-3.7-1.8"/>
<path class="st2" d="M316.9,165.6v49.6"/>
<path class="st2" d="M282.2,185.2l-0.1,42.4"/>
<path class="st2" d="M331.2,153.9l31.4-21.1"/>
<path class="st2" d="M365.9,134.7l-3.4-1.9"/>
<path class="st2" d="M334.9,155.6l-3.7-1.7"/>
<path class="st2" d="M350.2,194l-3.4-1.6"/>
<path class="st2" d="M346.8,147.4v45"/>
<path class="st2" d="M303.4,174.8v48.8"/>
<path class="st2" d="M301.2,176.3v48.8"/>
<path class="st2" d="M282.3,185.1l31.4-21.3"/>
<path class="st2" d="M317.1,165.6l-3.4-1.7"/>
<path class="st2" d="M285.8,186.9l-3.6-1.7"/>
<path class="st2" d="M285.6,186.8l31.2-21.1"/>
<path class="st2" d="M297.8,178.5v44.9"/>
<path class="st2" d="M313.6,168.1v45.4"/>
<path class="st2" d="M316.9,215.1l-3.3-1.7"/>
<path class="st2" d="M164.5,60.1l-1.6-3.2"/>
<path class="st2" d="M185.5,69.8v46.5"/>
<path class="st2" d="M164.5,60.1v49.8"/>
<path class="st2" d="M185.5,70l-21-9.9"/>
<path class="st2" d="M162.9,56.9v52.3"/>
<path class="st2" d="M162.9,56.9l24.5,12"/>
<path class="st2" d="M187.4,68.9v46.2"/>
<path class="st2" d="M187.4,68.9l-1.9,0.9"/>
<path class="st2" d="M185.5,84.6l-21-9.9"/>
<path class="st2" d="M185.5,90.7l-21-9.9"/>
<path class="st2" d="M352.5,162.3l10.1-6.5"/>
<path class="st2" d="M104.1,113.7l-3.8-1.8"/>
<path class="st2" d="M104.1,136.6l-3.8-1.8"/>
<path class="st2" d="M100.3,111.9v23"/>
<path class="st2" d="M22.2,108.2l3.1-2"/>
<path class="st2" d="M316.9,215.1l-31.3,19.8"/>
<path class="st2" d="M297.9,223.5l-12.2,7.7"/>
<path class="st2" d="M313.6,213.5l-10.2,6.4"/>
<path class="st2" d="M331.3,196.1l-14.4,9.1"/>
<path class="st2" d="M365.9,184.1l-31.1,19.7"/>
<path class="st2" d="M301.2,225.1l-3.4-1.6"/>
<path class="st2" d="M111.2,178.6v-31.7"/>
<path class="st2" d="M104.2,147.4l-79.6,49.5"/>
<path class="st2" d="M184.1,272.4v28.2"/>
<path class="st2" d="M95.3,77.8V8.3"/>
<path class="st2" d="M206.1,60.3l-11.8,54.5"/>
<path class="st2" d="M202.5,58.7L190.6,113"/>
<path class="st2" d="M153.7,35.8l-11.9,54.5"/>
<path class="st2" d="M141.8,90.3l-3.8-1.9"/>
<path class="st2" d="M149.8,33.9L138,88.4"/>
<path class="st2" d="M418.8,77.1l-10.6,51.1"/>
<path class="st2" d="M422.9,79l-11.1,51"/>
<path class="st2" d="M422.9,79l2.7-1.7"/>
<path class="st2" d="M411.9,130l-3.7-1.8"/>
<path class="st2" d="M260.9,41.4L279,30.1"/>
<path class="st2" d="M294.8,37.4l-18.2,11.4"/>
<path class="st2" d="M294.8,78.1l-18.2,11.5"/>
<path class="st2" d="M294.8,75.6L276.6,87"/>
<path class="st2" d="M294.8,37.4v56.8"/>
<path class="st2" d="M294.8,94.2l-70.5,44.4"/>
<path class="st2" d="M285.6,83.9V100"/>
<path class="st2" d="M285.6,43.1v38.2"/>
<path class="st2" d="M284.4,61.5v4.2"/>
<path class="st2" d="M287.1,59.5v4.2"/>
<path class="st2" d="M284.4,91.4v4.2"/>
<path class="st2" d="M287.1,89.3v4.2"/>
<path class="st2" d="M258.4,89.6l-15.9-7.2"/>
<path class="st2" d="M224.3,138.5l-15.9-6.8"/>
<path class="st2" d="M258.4,89.5v27.6"/>
<path class="st2" d="M208.4,103.6l52.5-32.7"/>
<path class="st2" d="M224.1,111l52.5-32.8"/>
<path class="st2" d="M242.4,99.6l-15.7-7.4"/>
<path class="st2" d="M208.4,103.6v28.2"/>
<path class="st2" d="M242.4,99.6l-0.1,27.5"/>
<path class="st2" d="M242.3,120.8l16.1-10.2"/>
<path class="st2" d="M245.1,101.9l10.5-6.6"/>
<path class="st2" d="M258.4,94.6l18.2-11.5"/>
<path class="st2" d="M276.5,78.1l-15.6-7.2"/>
<path class="st2" d="M267.3,84.1v27.4"/>
<path class="st2" d="M265.9,99.8v4.3"/>
<path class="st2" d="M268.6,97.7v4.2"/>
<path class="st2" d="M271.8,84c-0.3-0.1-0.4-0.4-0.3-0.7c0.1-0.3,0.4-0.5,0.7-0.4c0.3,0.1,0.4,0.4,0.3,0.7
	C272.4,83.9,272.1,84.1,271.8,84z"/>
<path class="st2" d="M263,89.7c-0.3-0.1-0.3-0.4-0.2-0.7c0.1-0.3,0.4-0.4,0.7-0.3c0.3,0.1,0.3,0.4,0.2,0.7
	C263.6,89.6,263.2,89.8,263,89.7z"/>
<path class="st2" d="M249.8,92.2c-1.2,0-2.2-0.8-2.2-1.7c0-1,1-1.7,2.2-1.7s2.2,0.8,2.2,1.7C252,91.5,251,92.2,249.8,92.2z"/>
<path class="st2" d="M242.8,88.8c-1.2,0-2.2-0.8-2.2-1.7c0-1,1-1.7,2.2-1.7s2.2,0.8,2.2,1.7C245,88.1,244,88.8,242.8,88.8z"/>
<path class="st2" d="M242.8,96.2c-1.2,0-2.2-0.8-2.2-1.7c0-1,1-1.7,2.2-1.7s2.2,0.8,2.2,1.7C245,95.4,244,96.2,242.8,96.2z"/>
<path class="st2" d="M235.8,92.8c-1.2,0-2.2-0.8-2.2-1.7c0-1,1-1.7,2.2-1.7s2.2,0.8,2.2,1.7C238.1,92,237.1,92.8,235.8,92.8z"/>
<path class="st2" d="M224.3,111l-15.9-7.4"/>
<path class="st2" d="M233.3,105.3V133"/>
<path class="st2" d="M231.9,116.2v4.3"/>
<path class="st2" d="M234.6,114.1v4.3"/>
<path class="st2" d="M224.1,111v27.5"/>
<path class="st2" d="M12.2,62l10,46.2"/>
<path class="st2" d="M15.2,60l10,46.2"/>
<path class="st2" d="M346.8,192.4l-11.9,7.6"/>
<path class="st2" d="M366,184.1l-3.4-1.7"/>
<path class="st2" d="M334.8,197.8l-17.9,11.3"/>
<path class="st2" d="M370,175.3l-4.2,2.6"/>
<path class="st2" d="M159.3,162.7l-3.9-1.8"/>
<path class="st2" d="M362.6,176.3l-10.2-5"/>
<path class="st2" d="M362.6,171.6l-9.9-4.8"/>
<path class="st2" d="M352.7,166.9l10-6.5"/>
<path class="st2" d="M352.5,162.3l10.1-6.5"/>
<path class="st2" d="M22.2,108.2l3.1-2"/>
<path class="st2" d="M224.3,111l-15.9-7.4"/>
<path class="st0" d="M99.9,88.5c0.1-0.8,0.4-1.5,0.9-2.2c1-1.4,2.4-2.5,4-3.1c1.2-0.5,2.5-0.7,3.9-0.7l0.9-0.9l-1.1-0.5l0.1-0.1
	h-0.1l-1.4-7.7c0-0.1-0.1-0.2-0.1-0.4c0-0.9,0.5-1.8,1.3-2.3l1.9-1.1l10,4.9c0.4,0.2,0.6,0.6,0.6,1.1l-0.6,7.2h-0.1l0.1,0.1
	l-1.9,1.2c-0.3,0.1-0.6,0.3-0.9,0.4c-0.8,0.9-1.4,2.1-1.8,3.2c-0.7,2-0.4,3-0.4,3l0.1,0.1l-0.6,0.5l3.3,1.7l-0.1,0.1v1.3l-8.8,5.4
	l-7.2-3.5l-0.1-0.1v-1l-0.1-0.1l1.8-1.2l-0.3-0.1c-0.9-0.2-1.8-0.7-2.5-1.4C99.5,91.3,99.3,89.8,99.9,88.5z"/>
<path class="st2" d="M101.9,89.8c-0.6-1.4,1-3.4,3.6-4.4c2.5-1,5-0.7,5.6,0.7c0.6,1.4-1,3.4-3.6,4.4C105,91.5,102.5,91.2,101.9,89.8
	z"/>
<path class="st2" d="M111.1,86c0-0.1-0.1-0.2-0.1-0.3c-0.7-1.7-3.4-2.2-6-1.2s-4.2,3.2-3.4,5c0.1,0.3,0.3,0.5,0.5,0.7"/>
<path class="st2" d="M100,90.3c-1-2.4,1.1-5.4,4.6-6.9c3.5-1.4,7.2-0.7,8.1,1.7c1,2.4-1.1,5.4-4.6,6.9
	C104.5,93.4,100.9,92.6,100,90.3z"/>
<path class="st2" d="M117.1,84.3c-0.8,1-1.4,2.1-1.9,3.3c-0.7,2.1-0.4,3-0.4,3l-2.2,1.7"/>
<path class="st2" d="M112.7,92.1c0.5,1.2-0.7,2.8-2.7,3.5s-3.9,0.5-4.4-0.6c-0.1-0.1-0.1-0.3-0.1-0.5l-2.5-0.9
	c-0.9-0.2-1.8-0.6-2.4-1.3c-0.9-1.1-1.1-2.5-0.6-3.7"/>
<path class="st2" d="M114.1,91.2l3.3,1.7l-8.9,5.3l-6.9-3.2l1.9-1.2"/>
<path class="st2" d="M101.6,95v1l7.1,3.4l8.7-5.4v-1.3"/>
<path class="st2" d="M108.5,81l-1.4-7.7c-0.2-1,0.3-2,1.1-2.6l1.8-1l10,4.8c0.4,0.1,0.6,0.6,0.5,0.9l-0.6,7.2"/>
<path class="st2" d="M109.8,81.6l-1.1,0.9"/>
<path class="st2" d="M110.9,82.1l-0.8,0.7"/>
<path class="st2" d="M113.8,83.4l-1.2,0.9"/>
<path class="st2" d="M114.6,83.9l-1.7,1.4"/>
<path class="st2" d="M100.9,91.2c1.1,2,4.6,2.6,7.8,1.2c3-1.2,5-3.7,4.9-5.8l2.3-2.3"/>
<path class="st2" d="M120.4,74.9l-2.2,1.4c-1,0.6-2.3,0.7-3.4,0.2l-7.8-3.6"/>
<path class="st2" d="M119.9,82.7l-1.9,1.2c-0.9,0.5-1.9,0.6-2.9,0.1l-6.6-3.1"/>
<path class="st0" d="M89.7,192.2C89.8,192.2,89.8,192.2,89.7,192.2l3-1.8L90.4,179c-0.1-0.8,0.2-1.5,0.9-1.9l31.4-18.4
	c0.6-0.4,1.2-0.4,1.8-0.3c0.1,0,0.2,0.1,0.3,0.1c0.5,0.1,0.9,0.2,1.4,0.4c0.4,0.2,0.7,0.4,1,0.7c1.1,1,1.9,2.4,2.2,3.9l1.1,5.3
	l2.8-1.6c0.6-0.2,1.2-0.2,1.8,0.1l11.1,6.1c2.2,1.2,3.4,3.4,3.4,5.8V192c0,0.6-0.4,1.2-0.9,1.4l-4,2.4l-0.1,0.1h-0.1
	c-0.2,0.1-0.4,0.2-0.7,0.2s-0.6-0.1-0.8-0.2l-1.6-0.9l-31.1,18.2v1.3c0,0.5-0.3,1-0.7,1.3l-4.2,2.5c-0.2,0.1-0.5,0.2-0.8,0.2
	s-0.5-0.1-0.8-0.2L89.4,210c-0.6-0.4-0.9-0.9-0.9-1.7v-14.4C88.7,193.3,89.2,192.6,89.7,192.2z"/>
<path class="st3" d="M89.6,209.8l14.3,8.3c0.7,0.4,1.6,0.1,1.9-0.5c0.1-0.2,0.2-0.5,0.2-0.7V204c0-2.4-1.3-4.6-3.4-5.7l-11.1-6.1
	c-0.9-0.5-2.2-0.1-2.7,0.8c-0.1,0.3-0.2,0.6-0.2,0.9v14.3C88.7,208.9,89.1,209.5,89.6,209.8z"/>
<path class="st3" d="M105.4,218.1l4.2-2.5c0.4-0.3,0.6-0.7,0.6-1.2v-12.8c0-2.4-1.3-4.6-3.4-5.7l-11.1-6.1c-0.6-0.4-1.4-0.3-1.9,0.1
	l-4.1,2.4"/>
<path class="st3" d="M141.4,194.7l1.6,0.9c0.7,0.4,1.6,0.1,1.9-0.5c0.1-0.2,0.2-0.5,0.2-0.7v-12.9c0-2.4-1.3-4.5-3.4-5.7l-11.4-6.3"
	/>
<path class="st3" d="M130.4,168.8l2.9-1.6c0.6-0.3,1.2-0.2,1.7,0.1l11.1,6c2.1,1.2,3.4,3.3,3.4,5.7v12.8c0,0.5-0.3,1-0.8,1.3
	l-4.2,2.4"/>
<path class="st3" d="M110.3,203.9l33.7-19.8l-12-6.6l-28.2,16.6"/>
<path class="st3" d="M110.3,209.2l33.7-19.7V184"/>
<path class="st3" d="M142.4,190.4v3.7L110.3,213"/>
<path class="st3" d="M132,177.4l-2.9-14c-0.3-1.4-1-2.8-2.1-3.8c-0.3-0.3-0.6-0.5-1-0.7c-0.5-0.2-1.1-0.4-1.6-0.5
	c-0.6-0.1-1.2-0.1-1.7,0.3l-31.5,18.4c-0.6,0.4-0.9,1.1-0.8,1.8l2.4,11.5"/>
<path class="st3" d="M98.3,191.1l-1.7-8.6c-0.3-1.4-1-2.8-2.1-3.8c-0.3-0.3-0.6-0.5-0.9-0.7c-0.5-0.2-1.1-0.4-1.6-0.5
	c-0.3-0.1-0.6-0.1-0.9-0.1"/>
<path class="st2" d="M221.7,35.1l-18.4,11.8"/>
<path class="st2" d="M206.5,44.9L206.5,44.9"/>
<path class="st2" d="M206.3,56.9l7.7-5"/>
<path class="st4" d="M217.3,49.9l-7.8-3.7l12.3-7.7l7.8,3.6L217.3,49.9z"/>
<path class="st2" d="M221.7,35.1l10.8,5"/>
<path class="st2" d="M203.3,46.9l10.8,5"/>
<path class="st2" d="M203.3,46.9v8.6"/>
<path class="st2" d="M221.7,38.6v8.5"/>
<path class="st2" d="M38.4,42L95.5,5"/>
<path class="st2" d="M9.1,48.7V130"/>
<path class="st2" d="M27.6,36.9L9.1,48.7"/>
<path class="st4" d="M23.1,51.7L15.3,48l12.3-7.7l7.7,3.6L23.1,51.7z"/>
<path class="st2" d="M27.6,36.9l10.8,5"/>
<path class="st2" d="M9.1,48.7l10.8,5"/>
<path class="st2" d="M27.6,40.4V49"/>
<path class="st2" d="M19.9,53.8L9.1,60.7"/>
<path class="st2" d="M362.6,182.4l-10.2,6.5"/>
<path class="st2" d="M362.6,136.7v45.7"/>
<path class="st0" d="M171.7,240L171.7,240l8.2-5.5v-20c0-0.1,0-0.1,0.1-0.1l26.1-16.8c0-0.1,0.1-0.1,0.1,0l1.4,0.6
	c0.1,0,0.1,0.1,0.1,0.1v20.4l8,3.7c0.1,0,0.1,0.1,0.1,0.1V234c0,0.1,0,0.1-0.1,0.1l-0.9,0.5v1.1c0,0.1,0,0.1-0.1,0.1
	c-0.4,0.3-0.8,0.5-1.2,0.5c-0.3,0-0.6-0.1-0.8-0.4l-28.8,18v0.9c-0.1,0.4-0.6,0.7-1,0.7s-0.7-0.1-0.9-0.4l-1.1,0.6h-0.1l-8.8-4.3
	c-0.1,0-0.1-0.1-0.1-0.1L171.7,240z"/>
<path class="st3" d="M180.9,238.8l26.5-16.6v-23.9L180.9,215V238.8z"/>
<path class="st3" d="M207.4,198.3l-1.4-0.6l-26,16.7l0.9,0.6"/>
<path class="st3" d="M180.9,238.8l-0.9-0.5v-23.9"/>
<path class="st3" d="M215.5,222.5l-8.1-3.7"/>
<path class="st3" d="M179.9,234.5l-8.1,5.5l8.7,4.3"/>
<path class="st3" d="M182.7,245.3l30.6-19.4v7.2l-30.6,19.7V245.3z"/>
<path class="st3" d="M215.5,234.1l-34.8,21.8l-0.1-11.5l34.9-21.8V234.1z"/>
<path class="st3" d="M171.8,240v11.5l8.8,4.3"/>
<path class="st3" d="M214.5,234.6v1.1c-0.3,0.3-0.7,0.4-1.1,0.4c-0.7,0-0.7-0.4-0.7-0.4"/>
<path class="st3" d="M183.6,254v0.8c-0.1,0.4-0.5,0.6-0.9,0.6s-0.7-0.1-1-0.4"/>
<path class="st3" d="M201.3,226l2.6,1.2"/>
<path class="st3" d="M189.7,233.3l2.5,1.2v1l-3.4-1.6"/>
<path class="st3" d="M192.2,235.5l11.7-7.3v-1.1l-11.7,7.3"/>
<path class="st3" d="M213.4,233l-6.4-3"/>
<path class="st2" d="M334.9,155.6l31-21.1"/>
<path class="st2" d="M221.6,63.1l9.3-6v-7.6l-9.3,6.1V63.1z"/>
<path class="st2" d="M222.2,61.8l8.2-5.3"/>
<path class="st2" d="M222.2,56.1l8.2-5.3"/>
<path class="st2" d="M222.2,57.2l8.2-5.3"/>
<path class="st2" d="M222.2,58.4l8.2-5.3"/>
<path class="st2" d="M222.2,59.5l8.2-5.3"/>
<path class="st2" d="M222.2,60.6l8.2-5.3"/>
<path class="st2" d="M26.6,64.1l9.3-5.9v-7.7l-9.3,6.1C26.6,56.6,26.6,64.1,26.6,64.1z"/>
<path class="st2" d="M27.2,62.8l8.3-5.3"/>
<path class="st2" d="M27.2,57.1l8.3-5.3"/>
<path class="st2" d="M27.2,58.3l8.3-5.3"/>
<path class="st2" d="M27.2,59.4l8.3-5.3"/>
<path class="st2" d="M27.2,60.5l8.3-5.3"/>
<path class="st2" d="M27.2,61.6l8.3-5.3"/>
<linearGradient id="SVGID_2_" gradientUnits="userSpaceOnUse" x1="350.3" y1="632.5" x2="350.3" y2="650.5" gradientTransform="matrix(1 0 0 1 0 -474)">
	<stop  offset="0" style="stop-color:#00ABD0"/>
	<stop  offset="1" style="stop-color:#000000"/>
</linearGradient>
<path class="st5" d="M350.3,176.5c-5,0-9-4-9-9s4-9,9-9s9,4,9,9S355.3,176.5,350.3,176.5z"/>
<path class="st0" d="M350.3,162.5c1,0,1.9,0.5,2.5,1.3c0.8,1.2,0.5,1.7,0.6,3.1h0.6v5.6h-7.2v-5.6h0.6c0.1-1.4-0.2-1.9,0.6-3.1
	C348.4,163,349.3,162.5,350.3,162.5z M350.3,168.1c-0.4,0-0.7,0.4-0.7,0.7s0.1,0.5,0.4,0.6v0.9c0,0.2,0.1,0.4,0.4,0.4
	c0.2,0,0.4-0.1,0.4-0.4v-0.9c0.2-0.1,0.4-0.4,0.4-0.6C351,168.4,350.7,168.1,350.3,168.1z M352.2,166.9c0.1-1.6,0-3.2-1.9-3.2h-0.1
	c-1.9,0-1.9,1.7-1.9,3.2H352.2z"/>
<path class="st6" d="M301.2,208.5c-5,0-9-4-9-9s4-9,9-9s9,4,9,9S306.2,208.5,301.2,208.5z"/>
<path class="st0" d="M301.2,194.4c1,0,1.9,0.5,2.5,1.3c0.8,1.2,0.5,1.7,0.6,3.1h0.6v5.6h-7.2v-5.6h0.5c0.1-1.4-0.2-1.9,0.6-3.1
	C299.3,194.9,300.2,194.4,301.2,194.4z M301.2,200.1c-0.4,0-0.7,0.4-0.7,0.7s0.1,0.5,0.4,0.6v0.9c0,0.2,0.1,0.4,0.4,0.4
	s0.4-0.1,0.4-0.4v-0.9c0.2-0.1,0.4-0.4,0.4-0.6C301.9,200.3,301.6,200.1,301.2,200.1z M303.1,198.8c0.1-1.6,0-3.2-1.9-3.2h-0.1
	c-1.9,0-1.9,1.7-1.9,3.2H303.1z"/>
<path class="st6 first_arrow" d="M417.6,45.1c-0.4-0.6-1.1-0.7-1.7-0.4L401,54.1v-3.3c0-0.6-0.6-1.2-1.2-1.2s-1.2,0.6-1.2,1.2v7.3h8.3
	c0.6,0,1.2-0.6,1.2-1.2s-0.6-1.2-1.2-1.2h-3.7l14.1-8.9C417.8,46.4,418,45.7,417.6,45.1z"/>
<g class="arrow_5">
	<path class="st6" d="M218.5,45c0.6,0,1.2-0.6,1.2-1.2l0.1-19c0-0.6-0.5-1.2-1.2-1.2c-0.6,0-1.2,0.6-1.2,1.2l-0.1,19
		C217.3,44.5,217.8,45,218.5,45z"/>
	<path class="st6" d="M222.9,29.5c0.3,0,0.6-0.1,0.9-0.4c0.5-0.4,0.5-1.2,0.1-1.7l-0.1-0.1l-5.2-5.2l-5.1,5.1
		c-0.4,0.5-0.4,1.3,0.1,1.7c0.4,0.4,1.1,0.4,1.7,0l3.4-3.4l3.4,3.5C222.3,29.3,222.6,29.5,222.9,29.5z"/>
</g>
<g class="arrow_10">
	<path class="st6" d="M24.4,46.9c0.6,0,1.2-0.6,1.2-1.2l0.1-19c0-0.6-0.5-1.2-1.2-1.2c-0.6,0-1.2,0.6-1.2,1.2l-0.1,19
		C23.2,46.3,23.7,46.9,24.4,46.9z"/>
	<path class="st6" d="M28.8,31.3c0.3,0,0.6-0.1,0.9-0.4c0.5-0.4,0.5-1.2,0.1-1.7l-0.1-0.1L24.5,24l-5.1,5.1
		c-0.4,0.5-0.4,1.3,0.1,1.7c0.4,0.4,1.1,0.4,1.6,0l3.4-3.4l3.4,3.5C28.2,31.1,28.4,31.3,28.8,31.3z"/>
</g>
<g class="arrow_3">
	<path class="st6" d="M287.9,129.5c0.2,0,0.4-0.1,0.6-0.2l22.4-14.2c0.6-0.4,0.7-1.1,0.4-1.7c-0.4-0.6-1.1-0.7-1.7-0.4l-22.4,14.2
		c-0.6,0.4-0.7,1.1-0.4,1.6c0,0,0,0,0,0.1C287.1,129.3,287.4,129.5,287.9,129.5z"/>
	<path class="st6" d="M293.3,131.2c0.6,0,1.2-0.5,1.2-1.2c0-0.6-0.4-1.1-0.9-1.2l-4.7-1l1-4.7c0.2-0.6-0.2-1.3-0.9-1.5
		c-0.6-0.2-1.3,0.2-1.5,0.9c0,0.1,0,0.1,0,0.1l-1.5,7.1l7.1,1.5L293.3,131.2L293.3,131.2z"/>
</g>
<g class="arrow_6">
	<path class="st6" d="M240.9,155c4.7,0,9.4-1.4,13.4-3.9l1.4-0.9c0.6-0.4,0.7-1.1,0.4-1.7c-0.4-0.6-1.1-0.7-1.7-0.4L253,149
		c-6.5,4.2-14.8,4.7-21.8,1.4l-1.6-0.7c-0.6-0.3-1.4-0.1-1.6,0.6c-0.3,0.6-0.1,1.4,0.6,1.7l1.6,0.7C233.5,154.2,237.2,155,240.9,155
		z"/>
	<path class="st6" d="M229,156.8c0.1,0,0.3,0,0.4-0.1c0.6-0.2,0.9-0.9,0.8-1.4c0-0.1,0-0.1-0.1-0.1l-1.6-4.6l4.5-1.6
		c0.6-0.3,0.9-1,0.6-1.6c-0.2-0.6-0.9-0.9-1.5-0.7l-6.8,2.4l2.4,6.9C227.9,156.4,228.4,156.8,229,156.8z"/>
</g>
<g class="arrow_7">
	<path class="st6" d="M183.1,130.3c0.4,0,0.9-0.3,1.1-0.7c0.3-0.6,0-1.4-0.6-1.7l-24-11.2c-0.6-0.3-1.4-0.1-1.6,0.6
		c-0.3,0.6-0.1,1.4,0.6,1.7l24,11.2C182.7,130.3,182.9,130.3,183.1,130.3z"/>
	<path class="st6" d="M159.5,123.9c0.1,0,0.3,0,0.4-0.1c0.6-0.2,0.9-0.9,0.8-1.4c0-0.1,0-0.1-0.1-0.1l-1.6-4.6l4.5-1.6
		c0.6-0.3,0.9-1,0.6-1.6c-0.2-0.6-0.9-0.9-1.5-0.7l-6.8,2.4l2.4,6.9C158.5,123.6,158.9,123.9,159.5,123.9z"/>
</g>
<g class="arrow_8">
	<path class="st6" d="M114.9,98.2c0.4,0,0.9-0.3,1.1-0.7c0.3-0.6,0-1.4-0.6-1.7L89,83.4c-0.6-0.3-1.4-0.1-1.7,0.6
		c-0.3,0.6-0.1,1.4,0.6,1.7l26.5,12.5C114.6,98.2,114.8,98.2,114.9,98.2z"/>
	<path class="st6" d="M89.1,91.1c0.1,0,0.3,0,0.4-0.1c0.6-0.2,0.9-0.9,0.8-1.4c0-0.1,0-0.1-0.1-0.1l-1.6-4.6l4.5-1.6
		c0.6-0.2,1-0.9,0.8-1.6c-0.2-0.6-0.9-1-1.6-0.8h-0.1l-6.8,2.4l2.4,6.9C88.1,90.7,88.6,91.1,89.1,91.1z"/>
</g>
<g class="arrow_9">
	<path class="st6" d="M57,71.4c0.4,0,0.9-0.3,1.1-0.7c0.3-0.6,0-1.4-0.6-1.7l-18.8-8.9c-0.6-0.3-1.4-0.1-1.7,0.6
		c-0.3,0.6-0.1,1.4,0.6,1.7l18.8,8.9C56.6,71.3,56.8,71.4,57,71.4z"/>
	<path class="st6" d="M38.5,67.8c0.1,0,0.3,0,0.4-0.1c0.6-0.2,0.9-0.9,0.8-1.4c0-0.1,0-0.1-0.1-0.1L38,61.6l4.5-1.6
		c0.6-0.2,0.9-0.9,0.8-1.4c0-0.1,0-0.1-0.1-0.1c-0.2-0.6-0.9-0.9-1.5-0.7h-0.1L34.9,60l2.4,6.9C37.5,67.4,38,67.7,38.5,67.8z"/>
</g>
<g class="arrow_4">
	<path class="st6" d="M253.7,70.9c0.4,0,0.9-0.3,1.1-0.7c0.3-0.6,0-1.4-0.6-1.7L234,59c-0.6-0.3-1.4-0.1-1.7,0.6s-0.1,1.4,0.6,1.7
		l20.2,9.5C253.4,70.8,253.6,70.9,253.7,70.9z"/>
	<path class="st6" d="M233.9,66.7c0.1,0,0.3,0,0.4-0.1c0.6-0.2,0.9-0.9,0.8-1.4c0-0.1,0-0.1-0.1-0.1l-1.6-4.6l4.5-1.6
		c0.6-0.3,0.9-1,0.6-1.6c-0.2-0.6-0.9-0.9-1.5-0.7l-6.8,2.4l2.4,6.9C232.9,66.3,233.4,66.6,233.9,66.7z"/>
</g>
<path class="st0" d="M354.4,90.4l4.4-2.7c0.3-0.2,0.6-0.2,0.9,0l10.1,4.9c0.7,0.4,1.2,1.2,1.3,2v11c0,0.3-0.1,0.6-0.4,0.8l-0.1,0.1
	l-4.3,2.7c-0.3,0.2-0.7,0.3-1,0.1l-10.1-4.9c-0.7-0.4-1.2-1.2-1.3-2v-11C354,90.8,354.1,90.5,354.4,90.4z"/>
<path class="st6" d="M354.4,90.4l4.4-2.7c0.3-0.2,0.6-0.2,0.9,0l10.1,4.9c0.7,0.4,1.2,1.2,1.3,2v11c0,0.3-0.1,0.6-0.4,0.8l-0.1,0.1
	l-4.3,2.7c-0.3,0.2-0.7,0.3-1,0.1l-10.1-4.9c-0.7-0.4-1.2-1.2-1.3-2v-11C354,90.8,354.1,90.5,354.4,90.4z"/>
<path class="st7" d="M354.4,90.4l4.4-2.7c0.3-0.2,0.6-0.2,0.9,0l10.1,4.9c0.7,0.4,1.2,1.2,1.3,2v11c0,0.3-0.1,0.6-0.4,0.8l-0.1,0.1
	l-4.3,2.7c-0.3,0.2-0.7,0.3-1,0.1l-10.1-4.9c-0.7-0.4-1.2-1.2-1.3-2v-11C354,90.8,354.1,90.5,354.4,90.4z"/>
<path class="st0" d="M356.5,99.8c-0.6-1-1.4-1.8-2.5-2.3L356.5,99.8z M358.6,103.2c0.6,1,1.4,1.8,2.5,2.3l3,1.4L358.6,103.2z
	 M356.5,99.8l2.2,3.5L356.5,99.8z M362,96.3c-0.6-1-1.4-1.8-2.5-2.3l-3-1.4L362,96.3z M364.2,99.7c0.6,1,1.4,1.8,2.5,2.3L364.2,99.7
	z M362,96.3l2.2,3.4L362,96.3z M354,91.1c0-0.8,0.6-1.1,1.3-0.8l10.1,4.9c0.7,0.4,1.2,1.2,1.3,2v11c0,0.8-0.6,1.1-1.3,0.8"/>
<linearGradient id="SVGID_3_" gradientUnits="userSpaceOnUse" x1="360.35" y1="564.2475" x2="360.35" y2="583.1757" gradientTransform="matrix(1 0 0 1 0 -474)">
	<stop  offset="0" style="stop-color:#0AF0FF"/>
	<stop  offset="1" style="stop-color:#5F98EF"/>
</linearGradient>
<path class="st8" d="M356.5,99.8c-0.6-1-1.4-1.8-2.5-2.3L356.5,99.8z M358.6,103.2c0.6,1,1.4,1.8,2.5,2.3l3,1.4L358.6,103.2z
	 M356.5,99.8l2.2,3.5L356.5,99.8z M362,96.3c-0.6-1-1.4-1.8-2.5-2.3l-3-1.4L362,96.3z M364.2,99.7c0.6,1,1.4,1.8,2.5,2.3L364.2,99.7
	z M362,96.3l2.2,3.4L362,96.3z M354,91.1c0-0.8,0.6-1.1,1.3-0.8l10.1,4.9c0.7,0.4,1.2,1.2,1.3,2v11c0,0.8-0.6,1.1-1.3,0.8"/>
<path class="st9" d="M354,91.1c0-0.8,0.6-1.1,1.3-0.8l10.1,4.9c0.7,0.4,1.2,1.2,1.3,2v11c0,0.8-0.6,1.1-1.3,0.8L354,91.1z
	 M356.5,99.8c-0.6-1-1.4-1.8-2.5-2.3L356.5,99.8z M358.6,103.2c0.6,1,1.4,1.8,2.5,2.3l3,1.4L358.6,103.2z M356.5,99.8l2.2,3.5
	L356.5,99.8z M362,96.3c-0.6-1-1.4-1.8-2.5-2.3l-3-1.4L362,96.3z M364.2,99.7c0.6,1,1.4,1.8,2.5,2.3L364.2,99.7z M362,96.3l2.2,3.4
	L362,96.3z"/>
<g class="arrow_2">
	<path class="st6" d="M341.4,99.4c0.6,0,1.2-0.5,1.2-1.2c0-0.6-0.4-1.1-0.9-1.2l-4.7-1l1-4.7c0.2-0.6-0.2-1.3-0.9-1.5
		s-1.3,0.2-1.5,0.9c0,0.1,0,0.1,0,0.1l-1.5,7.1l7.1,1.5C341.2,99.4,341.4,99.4,341.4,99.4z"/>
	<path class="st10" d="M360.3,90.2c-3.3-3.1-8.3-3.6-12.1-1.2l-11.4,7.2"/>
</g>
</svg>
