<svg width="30" height="31" viewBox="0 0 30 31" fill="none" xmlns="http://www.w3.org/2000/svg">
<g clip-path="url(#clip0)">
<path d="M28.7161 23.2536L22.4215 16.7492C21.7833 16.091 20.9178 15.6239 19.9753 15.4754L22.7502 12.6079C24.7162 12.9692 26.7578 12.318 28.1821 10.8462C30.0217 8.9452 30.5047 6.03894 29.3836 3.61422C29.1224 3.04919 28.3979 2.92132 27.9699 3.36367L25.9549 5.44595H24.7127V4.16235L26.7278 2.08008C27.1562 1.63742 27.0316 0.888938 26.4853 0.619322C24.1388 -0.539003 21.3262 -0.0400349 19.4865 1.86102C18.0622 3.3328 17.432 5.44237 17.7817 7.47397L14.3711 10.9982L9.57493 6.04215L10.196 5.40029C10.6002 4.9827 10.516 4.28344 10.0269 3.98016L3.81597 0.129376C3.47038 -0.0849608 3.02794 -0.0285915 2.74294 0.265909L0.258502 2.8331C-0.0264988 3.1276 -0.0809326 3.58473 0.126373 3.9419L3.853 10.3599C4.14919 10.8702 4.82636 10.9491 5.22732 10.5347L5.84847 9.89288L10.6447 14.8489L7.2341 18.3732C5.26816 18.0119 3.22652 18.6631 1.80222 20.1349C-0.0375146 22.0359 -0.520445 24.9422 0.600573 27.3669C0.861843 27.9319 1.58636 28.0598 2.01427 27.6174L4.02931 25.5351H5.2715V26.8187L3.2564 28.901C2.82796 29.3437 2.95259 30.0921 3.49886 30.3618C4.34226 30.7781 5.24566 30.9804 6.14267 30.9803C7.74123 30.9802 9.31911 30.3378 10.4975 29.1201C11.9218 27.6483 12.5521 25.5388 12.2024 23.5072L14.9775 20.6396C15.1212 21.6138 15.5735 22.5083 16.2108 23.1681L22.5047 29.6718C24.2145 31.4387 26.9964 31.4466 28.7163 29.6716C30.4281 27.9018 30.428 25.0227 28.7161 23.2536ZM4.7806 8.42916L1.98561 3.61561L3.50015 2.05065L8.15836 4.93874C7.83416 5.27375 5.21836 7.97681 4.7806 8.42916ZM7.09055 8.60935C7.89967 7.77319 7.65521 8.02585 8.33279 7.32569L13.1289 12.2817L11.8867 13.5653L7.09055 8.60935ZM10.62 22.5752C10.3983 22.8043 10.3115 23.1381 10.3924 23.4512C10.7964 25.0139 10.3607 26.6943 9.2553 27.8366C8.26178 28.8632 6.87135 29.3175 5.52814 29.1209L6.77092 27.8366C6.93562 27.6665 7.0282 27.4356 7.0282 27.1949V24.6276C7.0282 24.1263 6.63492 23.7199 6.14982 23.7199H3.66538C3.43236 23.7199 3.209 23.8156 3.04429 23.9858L1.80151 25.27C1.61126 23.8818 2.05089 22.4451 3.04429 21.4186C4.14966 20.2764 5.77588 19.8261 7.28824 20.2436C7.59123 20.3271 7.91426 20.2376 8.13604 20.0085C8.33109 19.8069 18.9746 8.80861 19.3642 8.40603C19.5859 8.17692 19.6727 7.84306 19.5918 7.52997C19.1878 5.96726 19.6235 4.2869 20.7289 3.14456C21.7224 2.11798 23.1126 1.66352 24.4561 1.86035L23.2133 3.14456C23.0486 3.31475 22.956 3.54562 22.956 3.78629V6.35349C22.956 6.85475 23.3493 7.26115 23.8344 7.26115H26.3188C26.5519 7.26115 26.7752 7.16548 26.9399 6.99528L28.1827 5.71108C28.3729 7.09924 27.9333 8.53596 26.9399 9.56248C25.8345 10.7047 24.2083 11.1549 22.696 10.7375C22.393 10.6539 22.07 10.7435 21.8482 10.9726L10.62 22.5752ZM27.4743 28.3881C26.4446 29.4507 24.7728 29.4486 23.747 28.3885L17.4536 21.8853C16.5639 20.9642 16.2915 19.3594 17.4869 18.0685C18.736 16.8334 20.2891 17.1149 21.1799 18.0335L27.4738 24.5372C28.501 25.5987 28.501 27.3264 27.4743 28.3881Z" fill="#4D4D4D"/>
<path d="M26.2112 25.801L20.0041 19.3869C19.6611 19.0325 19.1049 19.0325 18.7619 19.3869C18.4189 19.7414 18.4189 20.3161 18.7619 20.6705L24.969 27.0846C25.312 27.439 25.8683 27.439 26.2112 27.0846C26.5542 26.7301 26.5542 26.1555 26.2112 25.801Z" fill="#4D4D4D"/>
</g>
<defs>
<clipPath id="clip0">
<rect width="30" height="31" fill="white"/>
</clipPath>
</defs>
</svg>
