<svg width="25" height="25" viewBox="0 0 25 25" fill="none" xmlns="http://www.w3.org/2000/svg">
<g clip-path="url(#clip0)">
<path d="M22.5169 2.9728L12.7106 0.0309082C12.5735 -0.0103027 12.427 -0.0103027 12.2897 0.0309082L2.4834 2.9728C2.17358 3.06572 1.96143 3.35088 1.96143 3.67432V14.4612C1.96143 15.8643 2.52939 17.3005 3.64956 18.73C4.50513 19.8218 5.68872 20.9182 7.16753 21.9886C9.65176 23.7869 12.0979 24.89 12.2009 24.936C12.2961 24.9787 12.3981 25 12.5001 25C12.6021 25 12.7042 24.9787 12.7994 24.936C12.9023 24.89 15.3485 23.7869 17.8327 21.9886C19.3115 20.9182 20.4951 19.8218 21.3506 18.73C22.4708 17.3005 23.0388 15.8643 23.0388 14.4612V3.67432C23.0388 3.35088 22.8267 3.06572 22.5169 2.9728ZM21.574 14.4612C21.574 16.9442 19.0826 19.2725 16.9926 20.7884C15.1189 22.1475 13.2187 23.1118 12.5002 23.4583C11.7817 23.1118 9.88144 22.1475 8.00771 20.7884C5.91768 19.2725 3.42627 16.9442 3.42627 14.4612V4.21924L12.5001 1.49707L21.574 4.21924V14.4612Z" fill="url(#paint0_linear)"/>
<g clip-path="url(#clip1)">
<path d="M18.3432 6.94214L12.6229 5.22604C12.5429 5.202 12.4575 5.202 12.3774 5.22604L6.65699 6.94214C6.4763 6.99635 6.35254 7.16269 6.35254 7.35136V13.6437C6.35254 14.4622 6.68388 15.3 7.33731 16.1339C7.83636 16.7707 8.52682 17.4103 9.38943 18.0347C10.8386 19.0837 12.2655 19.7272 12.3256 19.754C12.3811 19.7789 12.4406 19.7913 12.5002 19.7913C12.5597 19.7913 12.6192 19.7789 12.6747 19.754C12.7347 19.7272 14.1617 19.0837 15.6108 18.0347C16.4734 17.4103 17.1639 16.7707 17.6629 16.1339C18.3164 15.3 18.6477 14.4622 18.6477 13.6437V7.35136C18.6477 7.16269 18.524 6.99635 18.3432 6.94214Z" fill="url(#paint1_linear)"/>
</g>
</g>
<defs>
<linearGradient id="paint0_linear" x1="12.5001" y1="0" x2="12.5001" y2="25" gradientUnits="userSpaceOnUse">
<stop stop-color="#F71212"/>
<stop offset="1" stop-color="#F8A120"/>
</linearGradient>
<linearGradient id="paint1_linear" x1="12.5001" y1="5.20801" x2="12.5001" y2="19.7913" gradientUnits="userSpaceOnUse">
<stop stop-color="#F71212"/>
<stop offset="1" stop-color="#F8A120"/>
</linearGradient>
<clipPath id="clip0">
<rect width="25" height="25" fill="white"/>
</clipPath>
<clipPath id="clip1">
<rect width="14.5833" height="14.5833" fill="white" transform="translate(5.2085 5.20801)"/>
</clipPath>
</defs>
</svg>
