<svg width="41" height="41" viewBox="0 0 41 41" fill="none" xmlns="http://www.w3.org/2000/svg">
<g clip-path="url(#clip0)">
<path d="M3.92791 8.93512C4.37154 9.51408 5.21957 9.56693 5.73127 9.05523L6.54086 8.24484L15.7202 17.4242L17.4187 15.7257L8.23931 6.54639L9.05371 5.73199C9.56861 5.21629 9.50935 4.36666 8.93359 3.92943L4.1217 0.248241C3.64363 -0.117716 2.96777 -0.0728724 2.54255 0.352342L0.352418 2.54328C-0.0735977 2.96849 -0.119242 3.64355 0.247516 4.12242L3.92791 8.93512Z" fill="url(#paint0_linear)"/>
<path d="M22.6236 29.9953C22.6252 29.9697 22.626 29.9432 22.626 29.916C22.626 29.1433 21.8965 27.9933 21.4673 27.3559L27.3554 21.4678C28.0065 21.9058 29.2221 22.6762 29.9964 22.6217L22.6236 29.9953Z" fill="url(#paint1_linear)"/>
<path d="M38.7583 13.0687C36.5633 15.2637 33.3682 15.8474 30.64 14.8192L25.6743 19.7857L19.7862 25.6738L14.8197 30.6395C15.8479 33.3677 15.2642 36.5628 13.0692 38.7578C10.9551 40.8718 7.91298 41.4909 5.25519 40.6148C4.82037 40.4715 4.69384 39.9149 5.01816 39.5914L8.96681 35.6419L8.31898 32.6799L5.35769 32.0336L1.40904 35.9823C1.08552 36.3066 0.528978 36.1801 0.385638 35.7452C-0.490416 33.0875 0.127787 30.0445 2.24265 27.9312C4.43759 25.7363 7.63351 25.1533 10.361 26.1807C10.361 26.1807 25.5542 10.9875 26.1812 10.3605C25.1538 7.63302 25.7368 4.4371 27.9317 2.24216C30.045 0.127298 33.0879 -0.490905 35.7457 0.38515C36.1806 0.52849 36.3071 1.08503 35.9828 1.40855L32.0341 5.3572L32.6803 8.31849L35.6424 8.96632L39.5919 5.01767C39.9154 4.69335 40.4719 4.81988 40.6153 5.2547C41.4913 7.91249 40.8723 10.9547 38.7583 13.0687Z" fill="url(#paint2_linear)"/>
<path d="M40.2264 32.2014L32.02 23.9941L23.9985 32.0172L32.2041 40.2236C33.238 41.2582 34.9124 41.2582 35.947 40.2236C38.9414 37.2292 37.233 38.9383 40.2264 35.945C41.2578 34.912 41.2578 33.2344 40.2264 32.2014Z" fill="url(#paint3_linear)"/>
</g>
<defs>
<linearGradient id="paint0_linear" x1="8.70933" y1="0.000976562" x2="8.70933" y2="17.4242" gradientUnits="userSpaceOnUse">
<stop stop-color="#F71212"/>
<stop offset="1" stop-color="#FDB41E"/>
</linearGradient>
<linearGradient id="paint1_linear" x1="25.7318" y1="21.4678" x2="25.7318" y2="29.9953" gradientUnits="userSpaceOnUse">
<stop stop-color="#F71212"/>
<stop offset="1" stop-color="#FDB41E"/>
</linearGradient>
<linearGradient id="paint2_linear" x1="20.5004" y1="0" x2="20.5004" y2="40.9998" gradientUnits="userSpaceOnUse">
<stop stop-color="#F71212"/>
<stop offset="1" stop-color="#FDB41E"/>
</linearGradient>
<linearGradient id="paint3_linear" x1="32.4992" y1="23.9941" x2="32.4992" y2="40.9995" gradientUnits="userSpaceOnUse">
<stop stop-color="#F71212"/>
<stop offset="1" stop-color="#FDB41E"/>
</linearGradient>
<clipPath id="clip0">
<rect width="41" height="41" fill="white"/>
</clipPath>
</defs>
</svg>
