<svg width="19" height="19" viewBox="0 0 19 19" fill="none" xmlns="http://www.w3.org/2000/svg">
<path d="M9.17987 0H9.17529C4.115 0 0 4.11614 0 9.17758C0 11.1852 0.647019 13.0459 1.74718 14.5568L0.603426 17.9663L4.13106 16.8386C5.58226 17.7999 7.31338 18.3552 9.17987 18.3552C14.2402 18.3552 18.3552 14.2379 18.3552 9.17758C18.3552 4.11729 14.2402 0 9.17987 0ZM14.5201 12.9599C14.2987 13.5851 13.4199 14.1036 12.719 14.2551C12.2394 14.3572 11.6131 14.4386 9.50453 13.5645C6.80747 12.4471 5.07061 9.70644 4.93524 9.52862C4.80561 9.35081 3.84541 8.07742 3.84541 6.76044C3.84541 5.44345 4.51422 4.80217 4.78381 4.52684C5.00522 4.30084 5.37118 4.1976 5.72222 4.1976C5.83579 4.1976 5.93789 4.20333 6.02967 4.20792C6.29926 4.21939 6.43463 4.23545 6.61245 4.66106C6.83386 5.19451 7.37304 6.51149 7.43728 6.64686C7.50267 6.78223 7.56806 6.96578 7.47629 7.1436C7.39025 7.32715 7.31453 7.4086 7.17916 7.56462C7.04379 7.72064 6.91531 7.83995 6.77994 8.00744C6.65604 8.15313 6.51608 8.30915 6.6721 8.57874C6.82812 8.8426 7.3673 9.7225 8.16116 10.4292C9.18561 11.3412 10.0162 11.6326 10.3133 11.7565C10.5347 11.8483 10.7986 11.8265 10.9603 11.6544C11.1657 11.433 11.4192 11.0659 11.6773 10.7045C11.8609 10.4452 12.0926 10.4131 12.3358 10.5049C12.5836 10.5909 13.8949 11.2391 14.1644 11.3733C14.434 11.5087 14.6119 11.5729 14.6772 11.6865C14.7415 11.8001 14.7415 12.3335 14.5201 12.9599Z" fill="#43DC5E"/>
<path d="M15.8733 9.46658C15.8733 13.3594 12.6663 16.5152 8.71011 16.5152C4.75396 16.5152 1.54688 13.3594 1.54688 9.46658C1.54688 5.57374 4.75396 2.41797 8.71011 2.41797C12.6663 2.41797 15.8733 5.57374 15.8733 9.46658Z" fill="#43DC5E"/>
<path d="M14.8822 11.4986C14.8455 11.4144 14.6462 11.3023 14.2846 11.1627C14.1861 11.1174 14.0459 11.0564 13.8647 10.9792C13.6833 10.9021 13.5186 10.8308 13.3708 10.7655C13.2227 10.7002 13.0838 10.6365 12.9538 10.5747C12.9328 10.5618 12.8672 10.5249 12.7572 10.4635C12.6471 10.4024 12.5548 10.3579 12.4798 10.3301C12.4051 10.3025 12.3328 10.2915 12.2632 10.2972C12.1638 10.3055 12.0452 10.3846 11.9072 10.5343C11.7692 10.6841 11.6445 10.8448 11.5333 11.0168C11.4221 11.1886 11.3023 11.3489 11.1743 11.4979C11.0462 11.6469 10.9373 11.7251 10.8479 11.7325C10.803 11.7362 10.7461 11.7287 10.6771 11.7104C10.6082 11.6919 10.5555 11.6755 10.5192 11.6618C10.4832 11.6477 10.4209 11.619 10.3323 11.5752C10.2435 11.5317 10.1941 11.5079 10.1838 11.5038C9.47327 11.1941 8.85542 10.8233 8.33015 10.3916C7.80502 9.95966 7.32684 9.42937 6.89584 8.8004C6.8901 8.79117 6.85776 8.74774 6.79901 8.67018C6.74017 8.59255 6.7007 8.53769 6.68058 8.5053C6.66047 8.47304 6.63536 8.42537 6.6053 8.36237C6.57525 8.29938 6.55843 8.24622 6.55493 8.20279C6.54794 8.11608 6.60986 7.99927 6.74067 7.8525C6.87146 7.70582 7.0153 7.56521 7.17207 7.43094C7.32897 7.29666 7.47227 7.15126 7.60234 6.99492C7.73234 6.8385 7.79347 6.71217 7.7857 6.61579C7.78027 6.54835 7.75733 6.48104 7.71694 6.41406C7.67651 6.34694 7.61619 6.26594 7.53592 6.17067C7.45563 6.07545 7.40729 6.01887 7.39079 6.00074C7.3066 5.88652 7.21925 5.764 7.12855 5.63324C7.03785 5.50251 6.93859 5.35663 6.83051 5.19581C6.72251 5.03506 6.63751 4.91107 6.57539 4.82405C6.37432 4.50117 6.22784 4.32889 6.13602 4.30752C6.10004 4.29595 6.04722 4.293 5.97769 4.29879C5.8434 4.30996 5.67014 4.3486 5.45781 4.41485C5.24539 4.48104 5.07926 4.54575 4.95924 4.60919C4.71884 4.73104 4.47909 5.04697 4.2399 5.55689C4.02288 6.03098 3.93226 6.48989 3.96799 6.93328C3.97847 7.06332 3.99736 7.18912 4.02467 7.3107C4.05197 7.43215 4.09421 7.56816 4.15144 7.71871C4.20858 7.86921 4.25387 7.98078 4.28715 8.05311C4.32046 8.1255 4.38219 8.25499 4.47232 8.44166C4.56234 8.62828 4.61665 8.74259 4.63506 8.78473C4.84709 9.24265 5.08737 9.6472 5.35585 9.99853C5.79811 10.5828 6.38517 11.1758 7.11671 11.7774C7.84827 12.3788 8.54755 12.8435 9.21454 13.1713C9.61593 13.3708 10.0671 13.5346 10.5678 13.6629C10.6138 13.6736 10.739 13.7068 10.9436 13.7627C11.1483 13.8184 11.2902 13.8564 11.3694 13.8765C11.4485 13.8966 11.5695 13.9218 11.732 13.952C11.8947 13.9822 12.04 14.0004 12.1681 14.0069C12.2962 14.013 12.4274 14.0107 12.5616 13.9995C13.0188 13.9615 13.4714 13.8 13.9188 13.5154C14.399 13.2037 14.6816 12.923 14.7665 12.6732C14.8117 12.5482 14.8504 12.3788 14.8832 12.1649C14.9162 11.9511 14.9273 11.7792 14.9168 11.649C14.9115 11.5813 14.8999 11.5314 14.8822 11.4986Z" fill="white"/>
</svg>
