<svg width="16" height="16" viewBox="0 0 16 16" fill="none" xmlns="http://www.w3.org/2000/svg">
<path d="M2.6665 2.66678L3.0545 6.00011M3.0545 6.00011C3.49707 4.90553 4.29029 3.98872 5.30986 3.39336C6.32942 2.79799 7.51771 2.55772 8.68848 2.71021C9.85926 2.86269 10.9464 3.39931 11.7794 4.23597C12.6125 5.07262 13.1444 6.16202 13.2918 7.33345M3.0545 6.00011H5.99984M13.3332 13.3334L12.9458 10.0001M12.9458 10.0001C12.5026 11.0941 11.7092 12.0101 10.6897 12.605C9.67026 13.1998 8.48233 13.4398 7.3119 13.2874C6.14148 13.1349 5.05464 12.5987 4.22153 11.7626C3.38842 10.9265 2.85607 9.83774 2.70784 8.66678M12.9458 10.0001H9.99984" stroke="black" stroke-width="1.33333" stroke-linecap="round" stroke-linejoin="round"/>
</svg>
