<svg width="20" height="20" viewBox="0 0 20 20" fill="none" xmlns="http://www.w3.org/2000/svg">
<path d="M10.8333 13.333V14.1663C10.8333 14.8294 10.5699 15.4653 10.1011 15.9341C9.63226 16.4029 8.99637 16.6663 8.33333 16.6663H5C4.33696 16.6663 3.70107 16.4029 3.23223 15.9341C2.76339 15.4653 2.5 14.8294 2.5 14.1663V5.83301C2.5 5.16997 2.76339 4.53408 3.23223 4.06524C3.70107 3.5964 4.33696 3.33301 5 3.33301H8.33333C8.99637 3.33301 9.63226 3.5964 10.1011 4.06524C10.5699 4.53408 10.8333 5.16997 10.8333 5.83301V6.66634M14.1667 13.333L17.5 9.99967L14.1667 13.333ZM17.5 9.99967L14.1667 6.66634L17.5 9.99967ZM17.5 9.99967H5.83333H17.5Z" stroke="#CD5151" stroke-width="1.66667" stroke-linecap="round" stroke-linejoin="round"/>
</svg>
