<svg width="24" height="20" viewBox="0 0 24 24" fill="none" xmlns="http://www.w3.org/2000/svg">
<path d="M10.683 4.15238L5.02449 9.10357C4.37344 9.67324 4 10.4962 4 11.3613V19C4 19.5304 4.21071 20.0391 4.58579 20.4142C4.96086 20.7893 5.46957 21 6 21H18C18.5304 21 19.0391 20.7893 19.4142 20.4142C19.7893 20.0391 20 19.5304 20 19V11.3613C20 10.4962 19.6266 9.67324 18.9755 9.10358L13.317 4.15238C12.563 3.49259 11.437 3.49259 10.683 4.15238Z" stroke="#000" stroke-width="2" stroke-linecap="round" stroke-linejoin="round"/>
<path d="M9 21V16C9 14.8954 9.89543 14 11 14H13C14.1046 14 15 14.8954 15 16V21" stroke="#000" stroke-width="2" stroke-linecap="round" stroke-linejoin="round"/>
</svg>
