<svg width="44" height="44" viewBox="0 0 44 44" fill="none" xmlns="http://www.w3.org/2000/svg">
<rect x="1" y="1" width="42" height="42" rx="11" stroke="#009082" stroke-width="2"/>
<rect x="4" y="4" width="36" height="36" rx="9" fill="white"/>
<path d="M17.8332 25.333V26.1663C17.8332 26.8294 18.0966 27.4653 18.5654 27.9341C19.0342 28.4029 19.6701 28.6663 20.3332 28.6663H26.1665C26.8295 28.6663 27.4654 28.4029 27.9343 27.9341C28.4031 27.4653 28.6665 26.8294 28.6665 26.1663V17.833C28.6665 17.17 28.4031 16.5341 27.9343 16.0652C27.4654 15.5964 26.8295 15.333 26.1665 15.333H20.3332C19.6701 15.333 19.0342 15.5964 18.5654 16.0652C18.0966 16.5341 17.8332 17.17 17.8332 17.833V18.6663M21.9998 25.333L25.3332 21.9997L21.9998 25.333ZM25.3332 21.9997L21.9998 18.6663L25.3332 21.9997ZM25.3332 21.9997H13.6665H25.3332Z" stroke="black" stroke-width="1.66667" stroke-linecap="round" stroke-linejoin="round"/>
</svg>
