<svg width="36" height="36" viewBox="0 0 36 36" fill="none" xmlns="http://www.w3.org/2000/svg">
<rect opacity="0.04" width="36" height="36" rx="9" fill="black"/>
<path d="M21.3332 13.8333C21.3332 14.7174 20.982 15.5652 20.3569 16.1904C19.7317 16.8155 18.8839 17.1667 17.9998 17.1667C17.1158 17.1667 16.2679 16.8155 15.6428 16.1904C15.0177 15.5652 14.6665 14.7174 14.6665 13.8333C14.6665 12.9493 15.0177 12.1014 15.6428 11.4763C16.2679 10.8512 17.1158 10.5 17.9998 10.5C18.8839 10.5 19.7317 10.8512 20.3569 11.4763C20.982 12.1014 21.3332 12.9493 21.3332 13.8333V13.8333ZM17.9998 19.6667C16.4527 19.6667 14.969 20.2812 13.875 21.3752C12.7811 22.4692 12.1665 23.9529 12.1665 25.5H23.8332C23.8332 23.9529 23.2186 22.4692 22.1246 21.3752C21.0307 20.2812 19.5469 19.6667 17.9998 19.6667V19.6667Z" stroke="black" stroke-width="1.66667" stroke-linecap="round" stroke-linejoin="round"/>
</svg>
