<svg width="154" height="54" viewBox="0 0 154 54" fill="none" xmlns="http://www.w3.org/2000/svg">
<path fill-rule="evenodd" clip-rule="evenodd" d="M68.999 27.9763V46.8237H70.3295H71.66V27.9763V9.12891H70.3295H68.999V27.9763ZM151.15 25.5694V34.9345L151.094 34.9871C151.016 35.0605 150.961 35.0532 150.797 34.9476C148.635 33.555 145.752 33.5603 143.615 34.961C141.063 36.6338 139.974 39.7805 140.951 42.6629C142.294 46.6243 147.074 48.3465 150.654 46.1587C151.098 45.8874 151.15 45.9194 151.15 46.4642V46.8237H152.481H153.811V31.514V16.2042H152.481H151.15V25.5694ZM54.7266 32.8904V46.8237H56.057H57.3875V46.4615C57.3875 46.0759 57.408 46.0078 57.5266 45.9998C57.6058 45.9945 57.628 46.0045 57.8888 46.1629C60.2822 47.6168 63.4372 47.3799 65.5761 45.5857C68.1424 43.4329 68.6971 39.6661 66.8575 36.885C64.8542 33.8567 60.7791 32.9907 57.7406 34.9476C57.5754 35.0539 57.5133 35.0614 57.4401 34.9837L57.3875 34.9278V26.9424V18.9571H56.057H54.7266V32.8904ZM78.9051 33.9189C76.8216 34.1238 75.2571 35.0184 74.0835 36.6761C71.1971 40.7531 73.7676 46.6376 78.6236 47.0692C81.1308 47.2921 83.1451 46.5033 84.5173 44.7614C84.6104 44.6432 84.7091 44.5195 84.7365 44.4866L84.7864 44.4267L84.8712 44.5446C86.2173 46.4148 88.3819 47.3115 90.9641 47.0685C95.9779 46.5966 98.4612 40.4714 95.2927 36.3918C93.2299 33.7359 89.2937 33.0879 86.5099 34.9458C85.923 35.3376 84.9113 36.3187 84.8026 36.6015C84.7955 36.6199 84.7314 36.5558 84.647 36.4459C83.5941 35.0749 82.1752 34.2302 80.4994 33.9767C80.1767 33.9279 79.1806 33.8918 78.9051 33.9189ZM97.8101 40.3644V46.8241L99.1466 46.8179L100.483 46.8116L100.495 42.7427L100.507 38.6738L100.562 38.4806C101.209 36.194 104.325 36.2001 104.978 38.4892L105.031 38.6738L105.043 42.7427L105.055 46.8116L106.391 46.8179L107.727 46.8241L107.734 42.761C107.741 39.0154 107.745 38.6862 107.783 38.5469C108.422 36.2142 111.574 36.1673 112.232 38.4806L112.287 38.6738L112.299 42.7427L112.312 46.8116L113.649 46.8179L114.985 46.8241V42.7184C114.985 37.9112 114.999 38.1316 114.658 37.2483C113.377 33.9214 108.968 32.9855 106.509 35.5184L106.39 35.6408L106.144 35.4063C104.726 34.0547 102.543 33.6922 100.728 34.5068C100.499 34.6095 100.495 34.6045 100.495 34.2156V33.9046H99.1526H97.8101V40.3644ZM133.721 33.9191C130.462 34.2514 127.911 36.8845 127.791 40.0382C127.632 44.2171 131.206 47.5276 135.39 47.0788C137.266 46.8776 139.203 45.5019 140.309 43.5839C140.391 43.4422 140.458 43.3109 140.458 43.2921C140.458 43.261 138.091 42.3803 138.008 42.3807C137.992 42.3807 137.925 42.4704 137.86 42.5799C136.755 44.4318 134.679 45.0473 132.84 44.0678C132.422 43.8452 132.306 43.751 132.306 43.635C132.306 43.6066 133.655 42.2456 135.886 40.0232C137.855 38.0617 139.466 36.4391 139.466 36.4173C139.466 36.3063 138.335 35.3232 137.806 34.9752C136.627 34.1989 135.029 33.7857 133.721 33.9191ZM117.84 35.4379V36.6814L120.522 36.6876L123.204 36.6937L119.979 41.7406C118.206 44.5164 116.763 46.7957 116.772 46.8057C116.782 46.8157 119.135 46.8211 122.002 46.8177L127.214 46.8116L127.22 45.5741L127.226 44.3365H124.347C122.764 44.3365 121.468 44.3309 121.468 44.324C121.468 44.3172 122.27 43.0594 123.25 41.5289C125.167 38.5364 126.567 36.3479 127.378 35.0776C127.657 34.6403 127.891 34.2627 127.897 34.2385C127.908 34.1959 127.736 34.1944 122.874 34.1944H117.84V35.4379ZM134.882 36.5823C135.329 36.6941 135.451 36.7588 135.451 36.8843C135.451 36.999 130.898 41.5434 130.783 41.5434C130.513 41.5434 130.312 40.4083 130.453 39.676C130.841 37.6649 133.048 36.1231 134.882 36.5823ZM80.2719 36.6168C82.7398 37.2043 84.0397 40.0235 82.9184 42.3561C81.3982 45.5181 76.8292 45.1819 75.7613 41.8294C74.9943 39.4214 76.5188 36.92 78.9777 36.5519C79.2109 36.517 80.0238 36.5578 80.2719 36.6168ZM90.7597 36.5852C93.1165 36.9875 94.604 39.5998 93.7928 41.9121C92.5494 45.4563 87.5999 45.4091 86.4293 41.8418C85.6431 39.446 87.2213 36.8705 89.6699 36.5534C89.9071 36.5226 90.4933 36.5398 90.7597 36.5852ZM61.7125 36.6105C65.0135 36.9678 66.421 40.9427 64.0769 43.2873C61.869 45.4956 58.1181 44.3577 57.4576 41.2793C56.9172 38.7607 59.1315 36.3311 61.7125 36.6105ZM147.606 36.6097C150.92 36.9788 152.333 40.9319 149.99 43.2757C147.759 45.5074 143.996 44.3552 143.36 41.2456C142.846 38.7337 145.052 36.3252 147.606 36.6097Z" fill="#009082"/>
<path d="M32.607 21.5975C32.7475 21.406 33.0507 21.2178 33.2969 21.1694C33.8395 21.0628 34.353 21.2785 34.6314 21.73C35.0134 22.3496 40.124 31.2909 40.1662 31.4136C40.3689 32.0019 40.0502 32.6967 39.464 32.9446L39.304 33.0122L33.6434 33.0186C29.6349 33.0232 27.9456 33.0174 27.8555 32.9987C27.1639 32.856 26.7147 32.0283 26.9716 31.3702C27.0268 31.229 32.4838 21.7656 32.607 21.5975Z" fill="#FDB102"/>
<path d="M25.1718 8.02573C25.2455 7.87602 25.3716 7.75999 25.5196 7.7058C25.7496 7.62155 26.0748 7.67921 26.2369 7.83296C26.3275 7.91888 26.2761 7.83576 28.2924 11.1579C32.3256 17.8034 32.0986 17.4182 32.2492 17.871C32.5542 18.788 32.4892 19.8263 32.0725 20.6963C31.8561 21.1481 26.261 30.5657 26.146 30.6718C25.8398 30.9542 25.3228 30.8356 25.1433 30.4417C25.1072 30.3625 25.104 29.4501 25.104 19.2595V8.16357L25.1718 8.02573Z" fill="#F6DD69"/>
<path d="M22.2031 8.48027C22.5548 7.90222 22.6643 7.76668 22.8281 7.70665C23.185 7.57591 23.6201 7.77392 23.7164 8.11083C23.7614 8.26828 23.7601 30.2379 23.7151 30.3973C23.5784 30.8809 22.8918 30.9785 22.6133 30.5538C22.4282 30.2716 16.9219 20.9448 16.8154 20.7331C16.3072 19.7233 16.3069 18.4141 16.8148 17.3987C16.8773 17.2736 17.6044 16.0575 18.4305 14.6961L20.8995 10.6272C21.4314 9.75067 22.018 8.78453 22.2031 8.48027Z" fill="#D9CB92"/>
<path d="M14.4507 21.5037C14.6151 21.3346 14.7944 21.2306 15.0128 21.1777C15.2996 21.1083 15.6668 21.1536 15.9233 21.2901C16.1877 21.4308 16.2908 21.5671 16.789 22.4353C17.0406 22.8736 17.9706 24.4927 18.8559 26.0334C22.2761 31.9855 21.9412 31.3742 21.9641 31.7081C22.0047 32.3028 21.6235 32.8364 21.0489 32.9891C20.8456 33.0431 9.75822 33.0412 9.55025 32.9871C8.86974 32.8102 8.47607 32.0414 8.72412 31.3739C8.8456 31.0469 14.2816 21.6776 14.4507 21.5037Z" fill="#81B87B"/>
<path d="M5.18926 36.9607C5.98857 35.5699 6.04164 35.5056 6.49478 35.3788C6.68724 35.3249 7.13736 35.3439 7.31276 35.4133C7.67533 35.5568 7.75867 35.6593 8.36445 36.7071C8.64088 37.1852 8.99459 37.7938 9.1505 38.0594C9.40796 38.4981 10.1068 39.7064 12.5373 43.9152C13.473 45.5357 13.4688 45.5276 13.5084 45.7819C13.6092 46.4294 13.1702 47.0585 12.5358 47.1753C12.4463 47.1918 10.534 47.1979 6.77844 47.1936L1.15518 47.1873L1.01004 47.1295C0.479951 46.9186 0.172803 46.4471 0.206065 45.8954C0.221934 45.6325 0.270217 45.5079 0.535225 45.0467C2.61318 41.4302 3.77404 39.4122 4.13798 38.7838C4.38415 38.3588 4.85722 37.5384 5.18926 36.9607Z" fill="#00687A"/>
<path d="M8.66613 35.1496C8.56261 34.5453 8.9223 33.9588 9.5119 33.7705C9.6919 33.713 20.8505 33.7008 21.0642 33.7578C21.7419 33.9388 22.1457 34.7028 21.902 35.3429C21.8742 35.416 21.3116 36.4157 20.6518 37.5645C19.992 38.7133 18.7537 40.8703 17.8999 42.3578C16.4553 44.8748 16.3364 45.0737 16.1859 45.2261C15.7015 45.7163 14.8557 45.6944 14.402 45.18C14.3501 45.1211 13.3031 43.3319 12.0753 41.204C10.8476 39.0761 9.63646 36.9819 9.38398 36.5503C8.77126 35.5028 8.7042 35.3719 8.66613 35.1496Z" fill="#009082"/>
<path d="M22.2071 36.7431C22.6738 35.9337 22.6824 35.9215 22.8463 35.84C23.1696 35.6792 23.6284 35.86 23.7096 36.1802C23.7585 36.3731 23.7557 45.4235 23.7067 45.6174C23.5136 46.3812 22.9839 46.9305 22.2375 47.141C22.0494 47.194 18.3485 47.2248 18.0813 47.1756C17.37 47.0446 16.933 46.3025 17.1459 45.5869C17.1657 45.5201 17.412 45.065 17.693 44.5755C19.0327 42.2422 21.236 38.4152 21.5073 37.9504C21.6739 37.6649 21.9888 37.1216 22.2071 36.7431Z" fill="#BFD173"/>
<path d="M25.157 36.1391C25.237 35.9751 25.3572 35.8629 25.5152 35.8046C25.6173 35.767 25.934 35.7842 26.0267 35.8325C26.1654 35.9047 26.2387 36.0057 26.5664 36.5759C26.745 36.8869 27.0183 37.3586 27.1736 37.6242C27.3289 37.8899 27.8563 38.8027 28.3455 39.6527C29.5942 41.8223 30.5377 43.4619 31.1465 44.5204C31.7609 45.5885 31.7774 45.6287 31.7638 46.02C31.7438 46.5911 31.3827 47.0372 30.8384 47.1632C30.6961 47.1961 30.4264 47.2 28.7243 47.1934L26.7732 47.1859L26.5601 47.1196C25.8691 46.9047 25.3881 46.4247 25.1708 45.7332L25.104 45.5206V40.8842V36.2478L25.157 36.1391Z" fill="#DB6E3B"/>
<path d="M26.9113 35.0025C26.8826 34.422 27.2436 33.9063 27.7793 33.7625C27.9886 33.7063 39.1517 33.707 39.3415 33.7632C39.8711 33.92 40.2184 34.3826 40.2188 34.9316C40.2191 35.2567 40.176 35.3624 39.7238 36.1453C39.4995 36.5336 38.2518 38.7034 36.9512 40.967C34.3317 45.5258 34.4846 45.2824 34.1354 45.4477C33.5832 45.7088 32.953 45.5719 32.6008 45.1141C32.5581 45.0587 31.4484 43.1498 30.1346 40.872C28.8209 38.5943 27.5874 36.459 27.3935 36.127C26.9595 35.3836 26.9262 35.3061 26.9113 35.0025Z" fill="#82494D"/>
<path d="M40.4715 36.7191C41.0928 35.6391 41.1934 35.5205 41.5975 35.3927C41.9185 35.2911 42.3483 35.3391 42.6439 35.5095C42.8883 35.6504 42.9755 35.7794 43.845 37.2866C44.2971 38.0702 45.094 39.4502 45.6159 40.3533C46.1377 41.2565 46.8129 42.43 47.1163 42.9613C47.4197 43.4925 47.8639 44.2678 48.1035 44.6841C48.5939 45.5362 48.6341 45.6334 48.6349 45.9677C48.6362 46.5514 48.2626 47.0315 47.7048 47.1627C47.511 47.2084 36.5747 47.2183 36.3268 47.1731C35.6016 47.0409 35.1432 46.2022 35.4238 45.521C35.4566 45.4413 35.762 44.8925 36.1023 44.3015C36.4427 43.7105 37.2521 42.3033 37.9009 41.1744C38.5497 40.0454 39.2826 38.7741 39.5295 38.3491C39.7763 37.9241 40.2003 37.1906 40.4715 36.7191Z" fill="#AC092F"/>
</svg>
