<svg width="18" height="18" viewBox="0 0 18 18" fill="none" xmlns="http://www.w3.org/2000/svg">
<path d="M3.2675 13.8367C5.01618 12.8483 6.99132 12.3303 9 12.3333C11.0833 12.3333 13.0392 12.8792 14.7325 13.8367M11.5 7.33333C11.5 7.99637 11.2366 8.63226 10.7678 9.1011C10.2989 9.56994 9.66304 9.83333 9 9.83333C8.33696 9.83333 7.70107 9.56994 7.23223 9.1011C6.76339 8.63226 6.5 7.99637 6.5 7.33333C6.5 6.67029 6.76339 6.03441 7.23223 5.56557C7.70107 5.09673 8.33696 4.83333 9 4.83333C9.66304 4.83333 10.2989 5.09673 10.7678 5.56557C11.2366 6.03441 11.5 6.67029 11.5 7.33333ZM16.5 9C16.5 9.98491 16.306 10.9602 15.9291 11.8701C15.5522 12.7801 14.9997 13.6069 14.3033 14.3033C13.6069 14.9997 12.7801 15.5522 11.8701 15.9291C10.9602 16.306 9.98491 16.5 9 16.5C8.01509 16.5 7.03982 16.306 6.12987 15.9291C5.21993 15.5522 4.39314 14.9997 3.6967 14.3033C3.00026 13.6069 2.44781 12.7801 2.0709 11.8701C1.69399 10.9602 1.5 9.98491 1.5 9C1.5 7.01088 2.29018 5.10322 3.6967 3.6967C5.10322 2.29018 7.01088 1.5 9 1.5C10.9891 1.5 12.8968 2.29018 14.3033 3.6967C15.7098 5.10322 16.5 7.01088 16.5 9Z" stroke="black" stroke-width="1.66667" stroke-linecap="round" stroke-linejoin="round"/>
</svg>
