<svg width="20" height="20" viewBox="0 0 20 20" fill="none" xmlns="http://www.w3.org/2000/svg">
<path d="M3.33337 3.33323V7.4999H3.81837M3.81837 7.4999C4.37158 6.13167 5.36311 4.98566 6.63756 4.24145C7.91202 3.49724 9.39738 3.19691 10.8608 3.38752C12.3243 3.57812 13.6832 4.2489 14.7245 5.29471C15.7658 6.34053 16.4307 7.70229 16.615 9.16657M3.81837 7.4999H7.50004M16.6667 16.6666V12.4999H16.1825M16.1825 12.4999C15.6285 13.8673 14.6367 15.0124 13.3624 15.756C12.0881 16.4995 10.6032 16.7995 9.14012 16.609C7.67709 16.4184 6.31854 15.7481 5.27715 14.703C4.23577 13.6579 3.57034 12.2969 3.38504 10.8332M16.1825 12.4999H12.5" stroke="white" stroke-width="1.66667" stroke-linecap="round" stroke-linejoin="round"/>
</svg>
