<svg width="60" height="68" viewBox="0 0 60 68" fill="none" xmlns="http://www.w3.org/2000/svg">
<circle cx="30" cy="22" r="22" fill="#C0EF2F"/>
<g clip-path="url(#clip0)">
<path d="M53.75 50.5H27.625C26.935 50.5 26.375 49.94 26.375 49.25C26.375 48.56 26.935 48 27.625 48H53.75C55.8175 48 57.5 46.3175 57.5 44.25V24.25C57.5 22.1825 55.8175 20.5 53.75 20.5H18.75C16.6825 20.5 15 22.1825 15 24.25V42.5825C15 43.2725 14.44 43.8325 13.75 43.8325C13.06 43.8325 12.5 43.2725 12.5 42.5825V24.25C12.5 20.8025 15.305 18 18.75 18H53.75C57.195 18 60 20.8025 60 24.25V44.25C60 47.6975 57.195 50.5 53.75 50.5Z" fill="black"/>
<path d="M58.75 35.5H13.75C13.06 35.5 12.5 34.94 12.5 34.25V26.75C12.5 26.06 13.06 25.5 13.75 25.5H58.75C59.44 25.5 60 26.06 60 26.75V34.25C60 34.94 59.44 35.5 58.75 35.5ZM15 33H57.5V28H15V33Z" fill="black"/>
<path d="M1.25019 58C0.637689 58 0.102689 57.55 0.0126887 56.925C-0.0848113 56.2425 0.390189 55.61 1.07269 55.5125L14.0927 53.6525C16.9027 53.2525 19.5602 52.31 21.9902 50.85L28.2827 47.0725C29.3427 46.4375 30.0002 45.275 30.0002 44.0375C30.0002 42.0875 28.4127 40.5 26.4602 40.5C24.8227 40.5 23.2177 40.8075 21.6952 41.415L11.7127 45.41C11.0777 45.67 10.3452 45.355 10.0877 44.715C9.83019 44.075 10.1427 43.3475 10.7852 43.0925L20.7677 39.0975C22.5877 38.3675 24.5027 38 26.4602 38C29.7927 38 32.5002 40.7075 32.5002 44.0375C32.5002 46.15 31.3752 48.1325 29.5677 49.215L23.2752 52.9925C20.5577 54.6225 17.5877 55.6775 14.4452 56.1275L1.42519 57.9875C1.36769 57.995 1.30769 58 1.25019 58Z" fill="black"/>
<path d="M38.6851 58C37.1226 58 35.7001 57.2725 34.7851 56.005C33.8701 54.735 33.6302 53.155 34.1227 51.6725L35.0626 48.855C35.2351 48.345 35.7126 48 36.2501 48H43.7501C44.1526 48 44.5301 48.1925 44.7651 48.52C45.0001 48.845 45.0651 49.265 44.9351 49.645L43.2451 54.7125C42.5926 56.68 40.7601 58 38.6851 58ZM37.1501 50.5L36.4951 52.4625C36.2576 53.175 36.3751 53.9325 36.8126 54.5425C37.8351 55.9575 40.3226 55.58 40.8726 53.9225L42.0151 50.5H37.1501Z" fill="black"/>
<path d="M31.1852 58C29.6227 58 28.2002 57.2725 27.2852 56.005C26.3701 54.735 26.1302 53.155 26.6227 51.6725L27.5627 48.855C27.7352 48.345 28.2127 48 28.7502 48H36.2502C36.6527 48 37.0302 48.1925 37.2652 48.52C37.5002 48.845 37.5652 49.265 37.4352 49.645L35.7452 54.7125C35.0927 56.68 33.2602 58 31.1852 58ZM29.6502 50.5L28.9952 52.4625C28.7577 53.175 28.8752 53.9325 29.3127 54.5425C30.3352 55.9575 32.8227 55.58 33.3727 53.9225L34.5152 50.5H29.6502Z" fill="black"/>
<path d="M23.6855 58C21.2455 58 19.193 56.175 18.908 53.7525C18.828 53.0675 19.318 52.445 20.003 52.3625C20.6705 52.2875 21.308 52.7725 21.3905 53.4575C21.528 54.6225 22.513 55.5 23.6855 55.5C24.6805 55.5 25.5605 54.8675 25.873 53.9225L27.563 48.855C27.7805 48.2025 28.483 47.845 29.143 48.065C29.798 48.285 30.1505 48.9925 29.933 49.6475L28.243 54.715C27.593 56.68 25.7605 58 23.6855 58Z" fill="black"/>
<path d="M1.24978 30.5C1.00978 30.5 0.769776 30.4325 0.557276 30.29C-0.0177235 29.9075 -0.172723 29.13 0.209776 28.5575L1.04978 27.2975C3.88727 23.0425 8.63477 20.5 13.7498 20.5C14.4398 20.5 14.9998 21.06 14.9998 21.75C14.9998 22.44 14.4398 23 13.7498 23C9.47227 23 5.50227 25.125 3.12978 28.6825L2.28978 29.9425C2.04978 30.305 1.65228 30.5 1.24978 30.5Z" fill="black"/>
</g>
<defs>
<clipPath id="clip0">
<rect width="60" height="60" fill="white" transform="translate(0 8)"/>
</clipPath>
</defs>
</svg>
