<svg width="60" height="68" viewBox="0 0 60 68" fill="none" xmlns="http://www.w3.org/2000/svg">
<circle cx="30" cy="22" r="22" fill="#C0EF2F"/>
<path d="M29.9997 53.6522C30.7197 53.6522 31.3041 53.0678 31.3041 52.3478C31.3041 51.6278 30.7197 51.0435 29.9997 51.0435C29.2797 51.0435 28.6953 51.6278 28.6953 52.3478C28.6954 53.068 29.2797 53.6522 29.9997 53.6522Z" fill="black"/>
<path d="M23.4782 22.3477C22.7582 22.3477 22.1738 22.932 22.1738 23.652C22.1738 24.372 22.7582 24.9564 23.4782 24.9564C24.1982 24.9564 24.7826 24.372 24.7826 23.652C24.7826 22.932 24.1982 22.3477 23.4782 22.3477Z" fill="black"/>
<path d="M37.8266 18.4346H22.1744C20.9927 18.4346 19.8814 18.9928 19.1197 19.9685C18.6788 20.5372 18.7779 21.3563 19.3466 21.7998C19.9127 22.238 20.7318 22.1389 21.1779 21.5728C21.3319 21.3746 21.6657 21.0432 22.1744 21.0432H37.8266C38.5466 21.0432 39.1309 21.6276 39.1309 22.3476V41.0572C39.1309 41.7772 39.7153 42.3616 40.4353 42.3616C41.1553 42.3616 41.7397 41.7772 41.7397 41.0572V22.3476C41.7396 20.1903 39.984 18.4346 37.8266 18.4346Z" fill="black"/>
<path d="M29.9999 8C13.4583 8 0 21.4583 0 37.9999C0 54.5416 13.4583 67.9999 29.9999 67.9999C46.5416 67.9999 59.9999 54.5416 59.9999 37.9999C59.9999 21.4583 46.5417 8 29.9999 8ZM29.9999 65.3912C14.8956 65.3912 2.60865 53.1043 2.60865 37.9999C2.60865 30.9173 5.33213 24.4739 9.76169 19.6086L18.2608 28.1078V53.6521C18.2608 55.8095 20.0164 57.5651 22.1739 57.5651H37.826C39.9835 57.5651 41.7391 55.8095 41.7391 53.6521V51.586L48.3912 58.2382C43.5261 62.6678 37.0825 65.3912 29.9999 65.3912ZM39.1304 49.7391V53.6521C39.1304 54.3721 38.546 54.9565 37.826 54.9565H22.1739C21.4539 54.9565 20.8695 54.3721 20.8695 53.6521V49.7391H39.1304ZM20.8696 47.1304V30.7165L37.2835 47.1304H20.8696ZM50.2356 56.3939L41.3661 47.5244C41.3608 47.5191 41.3608 47.514 41.3557 47.5088L20.4861 26.6392C20.4861 26.6392 20.4809 26.6392 20.4783 26.6366L11.6061 17.7644C16.4739 13.3348 22.9148 10.6088 29.9999 10.6088C45.1043 10.6088 57.3912 22.8957 57.3912 38.0001C57.3912 45.0852 54.6652 51.5261 50.2356 56.3939Z" fill="black"/>
</svg>
