<svg width="13" height="13" viewBox="0 0 13 13" fill="none" xmlns="http://www.w3.org/2000/svg">
<path fill-rule="evenodd" clip-rule="evenodd" d="M12.6818 10.928L9.85766 8.25608C9.84265 8.24188 9.82505 8.23195 9.80936 8.21873C10.3651 7.4212 10.6894 6.46654 10.6894 5.43988C10.6894 2.64713 8.29649 0.383179 5.3447 0.383179C2.39291 0.383179 0 2.64713 0 5.43983C0 8.23249 2.39286 10.4965 5.34465 10.4965C6.42984 10.4965 7.43883 10.1896 8.28179 9.66388C8.29576 9.67867 8.3062 9.69532 8.32121 9.70953L11.1454 12.3816C11.5697 12.7829 12.2575 12.7829 12.6818 12.3816C13.1061 11.9802 13.1061 11.3294 12.6818 10.928ZM5.3447 8.74351C3.41614 8.74351 1.85279 7.26441 1.85279 5.43983C1.85279 3.61521 3.41619 2.13611 5.3447 2.13611C7.27316 2.13611 8.83656 3.61526 8.83656 5.43983C8.83656 7.26441 7.27316 8.74351 5.3447 8.74351Z" fill="#C3C3C3"/>
</svg>
