<svg width="30" height="30" viewBox="0 0 30 30" fill="none" xmlns="http://www.w3.org/2000/svg">
<path d="M20.4949 9.69623C20.6112 9.81232 20.7034 9.95018 20.7663 10.1019C20.8292 10.2537 20.8615 10.4163 20.8615 10.5806C20.8615 10.7449 20.8292 10.9075 20.7663 11.0593C20.7034 11.211 20.6112 11.3489 20.4949 11.465L16.7674 15.1912L20.1124 18.535C20.347 18.7695 20.4788 19.0877 20.4788 19.4194C20.4788 19.7511 20.347 20.0692 20.1124 20.3037C19.8779 20.5383 19.5598 20.6701 19.2281 20.6701C18.8964 20.6701 18.5782 20.5383 18.3437 20.3037L14.9999 16.9587L11.6562 20.3037C11.4216 20.5383 11.1035 20.6701 10.7718 20.6701C10.4401 20.6701 10.122 20.5383 9.88743 20.3037C9.65288 20.0692 9.52111 19.7511 9.52111 19.4194C9.52111 19.0877 9.65288 18.7695 9.88743 18.535L13.2324 15.1912L9.50493 11.465C9.38879 11.3488 9.29668 11.2108 9.23386 11.059C9.17104 10.9072 9.13874 10.7445 9.13879 10.5802C9.13885 10.4159 9.17127 10.2532 9.2342 10.1014C9.29713 9.94963 9.38934 9.81174 9.50556 9.6956C9.62178 9.57947 9.75973 9.48736 9.91155 9.42454C10.0634 9.36171 10.2261 9.32941 10.3904 9.32947C10.5547 9.32953 10.7174 9.36195 10.8691 9.42487C11.0209 9.4878 11.1588 9.58001 11.2749 9.69623L14.9999 13.425L18.7262 9.69748C18.8423 9.58126 18.9801 9.48906 19.1319 9.42616C19.2836 9.36325 19.4463 9.33087 19.6106 9.33087C19.7748 9.33087 19.9375 9.36325 20.0892 9.42616C20.241 9.48906 20.3788 9.58126 20.4949 9.69748V9.69623Z" fill="url(#paint0_linear)"/>
<path fill-rule="evenodd" clip-rule="evenodd" d="M5 1.25C4.00544 1.25 3.05161 1.64509 2.34835 2.34835C1.64509 3.05161 1.25 4.00544 1.25 5V25C1.25 25.9946 1.64509 26.9484 2.34835 27.6517C3.05161 28.3549 4.00544 28.75 5 28.75H25C25.9946 28.75 26.9484 28.3549 27.6517 27.6517C28.3549 26.9484 28.75 25.9946 28.75 25V5C28.75 4.00544 28.3549 3.05161 27.6517 2.34835C26.9484 1.64509 25.9946 1.25 25 1.25H5ZM25 3.75H5C4.66848 3.75 4.35054 3.8817 4.11612 4.11612C3.8817 4.35054 3.75 4.66848 3.75 5V25C3.75 25.3315 3.8817 25.6495 4.11612 25.8839C4.35054 26.1183 4.66848 26.25 5 26.25H25C25.3315 26.25 25.6495 26.1183 25.8839 25.8839C26.1183 25.6495 26.25 25.3315 26.25 25V5C26.25 4.66848 26.1183 4.35054 25.8839 4.11612C25.6495 3.8817 25.3315 3.75 25 3.75Z" fill="url(#paint1_linear)"/>
<defs>
<linearGradient id="paint0_linear" x1="15.0002" y1="9.32947" x2="15.0002" y2="20.6701" gradientUnits="userSpaceOnUse">
<stop stop-color="#FBB603"/>
<stop offset="1" stop-color="#FB9803"/>
</linearGradient>
<linearGradient id="paint1_linear" x1="15" y1="1.25" x2="15" y2="28.75" gradientUnits="userSpaceOnUse">
<stop stop-color="#FBB603"/>
<stop offset="1" stop-color="#FB9803"/>
</linearGradient>
</defs>
</svg>
