<svg width="26" height="26" viewBox="0 0 26 26" fill="none" xmlns="http://www.w3.org/2000/svg">
<path d="M13 26C20.1797 26 26 20.1797 26 13C26 5.8203 20.1797 0 13 0C5.8203 0 0 5.8203 0 13C0 20.1797 5.8203 26 13 26Z" fill="#039BE5"/>
<path d="M5.94862 12.7183L18.4828 7.88556C19.0646 7.6754 19.5726 8.02748 19.3841 8.90715L19.3852 8.90606L17.2511 18.9605C17.0929 19.6733 16.6693 19.8466 16.0767 19.5108L12.8267 17.1156L11.2591 18.6257C11.0858 18.7991 10.9395 18.9453 10.6037 18.9453L10.8345 15.6379L16.8578 10.1963C17.12 9.96556 16.7993 9.83556 16.4537 10.0652L9.01013 14.7517L5.80129 13.7507C5.10471 13.5297 5.08954 13.0541 5.94862 12.7183V12.7183Z" fill="white"/>
</svg>
