<svg width="24" height="24" viewBox="0 0 24 24" fill="none" xmlns="http://www.w3.org/2000/svg">
<path d="M0 24L2.064 17.8084C1.01669 16.0469 0.413793 13.9912 0.413793 11.7931C0.413793 5.28 5.69379 0 12.2069 0C18.72 0 24 5.28 24 11.7931C24 18.3062 18.72 23.5862 12.2069 23.5862C10.2252 23.5862 8.35903 23.095 6.72 22.2319L0 24Z" fill="#2CB742"/>
<path d="M19.7307 15.7178C19.1861 14.6887 17.178 13.5119 17.178 13.5119C16.7236 13.2529 16.1753 13.2239 15.9163 13.6857C15.9163 13.6857 15.2638 14.4682 15.0978 14.5807C14.3398 15.0942 13.6375 15.0744 12.9287 14.3655L11.2814 12.7182L9.6341 11.0709C8.92527 10.3621 8.90541 9.65989 9.41893 8.90182C9.53148 8.73589 10.314 8.08334 10.314 8.08334C10.7758 7.82389 10.7468 7.27603 10.4878 6.82169C10.4878 6.82169 9.31093 4.81355 8.28182 4.269C7.84403 4.03727 7.30651 4.11837 6.95644 4.46844L6.229 5.19589C3.92127 7.50362 5.05755 10.1089 7.36527 12.4166L9.47437 14.5257L11.5835 16.6348C13.8912 18.9425 16.4964 20.0788 18.8042 17.7711L19.5316 17.0436C19.8817 16.6927 19.9624 16.1552 19.7307 15.7178Z" fill="white"/>
</svg>
