<svg width="35" height="36" viewBox="0 0 35 36" fill="none" xmlns="http://www.w3.org/2000/svg">
<path d="M25.5258 0.0258789H9.47416C4.25002 0.0258789 0 4.28277 0 9.51536V25.5932C0 30.8255 4.25002 35.0824 9.47416 35.0824H25.526C30.7499 35.0824 34.9999 30.8255 34.9999 25.5932V9.51536C34.9999 4.28277 30.7499 0.0258789 25.5258 0.0258789V0.0258789ZM32.9481 25.5932C32.9481 29.6923 29.6185 33.0272 25.5258 33.0272H9.47416C5.38142 33.0272 2.05185 29.6923 2.05185 25.5932V9.51536C2.05185 5.416 5.38142 2.08104 9.47416 2.08104H25.526C29.6185 2.08104 32.9481 5.416 32.9481 9.51536V25.5932Z" fill="#474747"/>
<path d="M17.5002 7.96875C12.2232 7.96875 7.93018 12.2687 7.93018 17.5542C7.93018 22.8398 12.2232 27.1397 17.5002 27.1397C22.7772 27.1397 27.0702 22.8398 27.0702 17.5542C27.0702 12.2687 22.7772 7.96875 17.5002 7.96875ZM17.5002 25.0846C13.3549 25.0846 9.98202 21.7066 9.98202 17.5542C9.98202 13.4022 13.3549 10.0239 17.5002 10.0239C21.6458 10.0239 25.0184 13.4022 25.0184 17.5542C25.0184 21.7066 21.6458 25.0846 17.5002 25.0846Z" fill="#474747"/>
<path d="M27.299 4.56445C25.7396 4.56445 24.4712 5.83516 24.4712 7.39685C24.4712 8.95882 25.7396 10.2295 27.299 10.2295C28.8585 10.2295 30.1271 8.95882 30.1271 7.39685C30.1271 5.83489 28.8585 4.56445 27.299 4.56445ZM27.299 8.17409C26.8712 8.17409 26.523 7.82532 26.523 7.39685C26.523 6.96812 26.8712 6.61961 27.299 6.61961C27.7271 6.61961 28.0753 6.96812 28.0753 7.39685C28.0753 7.82532 27.7271 8.17409 27.299 8.17409Z" fill="#474747"/>
</svg>
