<svg width="35" height="36" viewBox="0 0 35 36" fill="none" xmlns="http://www.w3.org/2000/svg">
<path d="M27.6356 22.2414C26.919 21.4766 26.0548 21.0676 25.1388 21.0676C24.2302 21.0676 23.3585 21.469 22.6124 22.2338L20.2781 24.6192C20.0861 24.5132 19.894 24.4147 19.7093 24.3163C19.4434 24.18 19.1922 24.0512 18.978 23.9149C16.7915 22.4913 14.8044 20.636 12.8985 18.2355C11.9752 17.039 11.3547 16.0319 10.904 15.0096C11.5098 14.4417 12.0712 13.851 12.6178 13.2831C12.8247 13.071 13.0315 12.8514 13.2383 12.6394C14.7896 11.0492 14.7896 8.98942 13.2383 7.39918L11.2217 5.33187C10.9927 5.09713 10.7563 4.8548 10.5347 4.61248C10.0915 4.14298 9.6261 3.65834 9.14594 3.20399C8.4294 2.47702 7.57251 2.09082 6.6713 2.09082C5.77009 2.09082 4.89842 2.47702 4.15972 3.20399C4.15234 3.21156 4.15234 3.21156 4.14495 3.21913L1.63337 5.81652C0.687838 6.78581 0.148588 7.96712 0.0303964 9.33776C-0.146891 11.5489 0.48839 13.6087 0.975931 14.9566C2.17262 18.2658 3.96028 21.3327 6.62698 24.6192C9.86248 28.5796 13.7554 31.7071 18.2024 33.9107C19.9014 34.7361 22.1692 35.713 24.7029 35.8796C24.8581 35.8871 25.0206 35.8947 25.1683 35.8947C26.8747 35.8947 28.3078 35.2662 29.4306 34.0167C29.438 34.0016 29.4528 33.994 29.4602 33.9789C29.8443 33.5018 30.2875 33.0701 30.7529 32.6082C31.0705 32.2977 31.3956 31.9721 31.7132 31.6314C32.4445 30.8514 32.8286 29.9427 32.8286 29.0113C32.8286 28.0723 32.4371 27.1711 31.691 26.4139L27.6356 22.2414ZM30.2801 30.2153C30.2727 30.2153 30.2727 30.2229 30.2801 30.2153C29.992 30.5333 29.6965 30.8211 29.3789 31.1391C28.8988 31.6086 28.4112 32.1009 27.9532 32.6537C27.2071 33.4715 26.3281 33.8577 25.1757 33.8577C25.0649 33.8577 24.9467 33.8577 24.8359 33.8501C22.642 33.7062 20.6032 32.8278 19.0741 32.0781C14.893 30.0033 11.2217 27.0575 8.17086 23.3243C5.6519 20.2119 3.96766 17.3344 2.85223 14.2448C2.16524 12.3592 1.91408 10.8901 2.02488 9.50435C2.09875 8.61836 2.43117 7.88383 3.04429 7.2553L5.56325 4.67306C5.92521 4.32472 6.30934 4.13541 6.68607 4.13541C7.15145 4.13541 7.52819 4.42317 7.76458 4.66549C7.77196 4.67306 7.77935 4.68063 7.78674 4.68821C8.23734 5.11984 8.66579 5.56662 9.11639 6.04369C9.34539 6.28602 9.58177 6.52834 9.81816 6.77823L11.8348 8.84554C12.6178 9.64823 12.6178 10.3903 11.8348 11.193C11.6206 11.4126 11.4137 11.6322 11.1995 11.8443C10.579 12.4955 9.98806 13.1013 9.34539 13.692C9.33062 13.7071 9.31584 13.7147 9.30846 13.7298C8.67317 14.3811 8.79137 15.0172 8.92433 15.4488C8.93172 15.4715 8.93911 15.4942 8.94649 15.517C9.47097 16.8194 10.2097 18.0462 11.3325 19.5077L11.3399 19.5153C13.3787 22.0899 15.5283 24.0967 17.8995 25.6339C18.2024 25.8308 18.5126 25.9898 18.8081 26.1413C19.0741 26.2776 19.3252 26.4063 19.5394 26.5426C19.569 26.5577 19.5985 26.5805 19.6281 26.5956C19.8792 26.7243 20.1156 26.7849 20.3594 26.7849C20.9725 26.7849 21.3566 26.3912 21.4822 26.2624L24.0086 23.6726C24.2597 23.4151 24.6586 23.1047 25.124 23.1047C25.582 23.1047 25.9587 23.4 26.1877 23.6575C26.1951 23.665 26.1951 23.665 26.2025 23.6726L30.2727 27.8451C31.0336 28.6175 31.0336 29.4126 30.2801 30.2153Z" fill="#474747"/>
<path d="M18.8892 8.54995C20.8246 8.88314 22.5827 9.82213 23.9862 11.2609C25.3898 12.6997 26.2984 14.5019 26.6308 16.4859C26.712 16.9857 27.1331 17.3341 27.6133 17.3341C27.6724 17.3341 27.7241 17.3265 27.7832 17.3189C28.3298 17.2281 28.6918 16.698 28.6031 16.1376C28.2042 13.7371 27.0962 11.5487 25.4046 9.81456C23.7129 8.08045 21.5781 6.94458 19.2364 6.53566C18.6898 6.44479 18.1801 6.81584 18.084 7.36864C17.988 7.92143 18.3426 8.45908 18.8892 8.54995Z" fill="#474747"/>
<path d="M34.9339 15.8417C34.2765 11.8888 32.4593 8.29189 29.667 5.42946C26.8747 2.56704 23.3659 0.704191 19.5099 0.0302339C18.9706 -0.0682093 18.4609 0.310418 18.3649 0.863214C18.2763 1.42358 18.6382 1.94609 19.1849 2.04453C22.6272 2.64276 25.7667 4.3163 28.2635 6.86825C30.7603 9.42777 32.3854 12.6461 32.969 16.1749C33.0502 16.6747 33.4713 17.023 33.9515 17.023C34.0105 17.023 34.0623 17.0155 34.1214 17.0079C34.6606 16.9246 35.03 16.3945 34.9339 15.8417Z" fill="#474747"/>
</svg>
