<svg width="35" height="31" viewBox="0 0 35 31" fill="none" xmlns="http://www.w3.org/2000/svg">
<path d="M34.4596 0.858929C34.0321 0.322617 33.3917 0.0273438 32.6563 0.0273438C32.2566 0.0273438 31.8331 0.113625 31.3978 0.28427L1.77099 11.8851C0.198724 12.5006 -0.0130295 13.4242 0.000588989 13.92C0.0142074 14.4157 0.276697 15.3257 1.88047 15.8491C1.89008 15.8521 1.8997 15.8551 1.90931 15.8579L8.05471 17.6618L11.3782 27.4102C11.8313 28.7392 12.8484 29.5648 14.033 29.5648C14.7798 29.5648 15.5144 29.2438 16.1574 28.6368L19.9586 25.0467L25.4719 29.6004C25.4725 29.6009 25.4733 29.6012 25.4738 29.6018L25.5261 29.645C25.5309 29.6489 25.536 29.653 25.5408 29.6568C26.1537 30.1444 26.8226 30.4018 27.476 30.4021H27.4762C28.7529 30.4021 29.7695 29.4328 30.0656 27.9328L34.9199 3.34574C35.1149 2.35885 34.9515 1.47577 34.4596 0.858929ZM10.1106 17.3192L21.9669 11.1061L14.5844 19.1527C14.4634 19.2845 14.3777 19.4458 14.3355 19.6214L12.912 25.5361L10.1106 17.3192ZM14.7681 27.0892C14.7189 27.1355 14.6695 27.1768 14.6201 27.2149L15.9409 21.728L18.3433 23.7125L14.7681 27.0892ZM32.91 2.92803L28.0557 27.5154C28.009 27.7507 27.8597 28.2982 27.476 28.2982C27.2864 28.2982 27.0482 28.1922 26.8044 27.9997L20.557 22.8398C20.5562 22.839 20.5551 22.8381 20.5541 22.8376L16.8368 19.7671L27.5128 8.13064C27.8546 7.75813 27.8856 7.18758 27.5863 6.77836C27.2867 6.36914 26.7438 6.2404 26.2997 6.47322L8.74044 15.6749L2.51146 13.8468L32.1292 2.24956C32.3794 2.1515 32.5541 2.13096 32.6563 2.13096C32.7191 2.13096 32.8307 2.13863 32.8721 2.19094C32.9266 2.25915 32.996 2.4917 32.91 2.92803Z" fill="#474747"/>
</svg>
