<svg width="33" height="34" viewBox="0 0 33 34" fill="none" xmlns="http://www.w3.org/2000/svg">
<path fill-rule="evenodd" clip-rule="evenodd" d="M27.8976 4.91867C24.8279 1.76612 20.7453 0.0291926 16.396 0.0273438C7.43388 0.0273438 0.13999 7.50895 0.136385 16.7045C0.135183 19.644 0.883799 22.5135 2.30673 25.0427L0 33.6852L8.61949 31.3659C10.9945 32.6949 13.6683 33.3952 16.3894 33.396H16.3962C25.3574 33.396 32.6521 25.9138 32.6555 16.7178C32.6573 12.2612 30.9676 8.07102 27.8976 4.91867ZM16.396 30.5793H16.3904C13.9655 30.5783 11.5873 29.9098 9.5121 28.647L9.01883 28.3465L3.90389 29.7229L5.26915 24.6074L4.94771 24.083C3.59488 21.8758 2.88051 19.3248 2.88171 16.7055C2.88451 9.06243 8.94713 2.84422 16.4014 2.84422C20.0111 2.84545 23.4043 4.28923 25.9558 6.90951C28.5073 9.52978 29.9116 13.0127 29.9104 16.7168C29.9072 24.3605 23.8449 30.5793 16.396 30.5793ZM23.8089 20.197C23.4027 19.9883 21.4052 18.9805 21.0327 18.8412C20.6606 18.7021 20.3895 18.6329 20.1189 19.0499C19.8479 19.4669 19.0695 20.4057 18.8323 20.6837C18.5952 20.9618 18.3585 20.9968 17.9521 20.788C17.5458 20.5795 16.2368 20.1393 14.6849 18.7196C13.4773 17.6145 12.662 16.2499 12.4249 15.8328C12.1881 15.4154 12.4228 15.2116 12.6031 14.9823C13.0429 14.4221 13.4833 13.8348 13.6187 13.5569C13.7543 13.2787 13.6864 13.0353 13.5846 12.8268C13.4833 12.6182 12.6708 10.567 12.3323 9.73234C12.0023 8.92006 11.6676 9.02976 11.4181 9.01703C11.1814 9.00491 10.9104 9.00244 10.6394 9.00244C10.3687 9.00244 9.92846 9.1066 9.55596 9.52403C9.18365 9.94126 8.13423 10.9493 8.13423 13.0006C8.13423 15.0518 9.59001 17.0334 9.79308 17.3115C9.99616 17.5897 12.658 21.799 16.7333 23.6039C17.7026 24.0337 18.4592 24.2898 19.0494 24.4819C20.0228 24.7991 20.9082 24.7543 21.6083 24.6471C22.389 24.5273 24.0118 23.6388 24.3506 22.6655C24.6891 21.6919 24.6891 20.8577 24.5873 20.6837C24.486 20.5099 24.215 20.4057 23.8089 20.197Z" fill="#474747"/>
</svg>
