<svg width="42" height="30" viewBox="0 0 42 30" fill="none" xmlns="http://www.w3.org/2000/svg">
<path fill-rule="evenodd" clip-rule="evenodd" d="M17.7295 7.767C17.26 7.491 16.6753 7.48377 16.1989 7.74808C15.7225 8.01239 15.428 8.50738 15.428 9.04384V20.9562C15.428 21.4926 15.7225 21.9876 16.1989 22.2519C16.6753 22.5162 17.26 22.509 17.7295 22.233L27.8603 16.2768C28.318 16.0077 28.5981 15.523 28.5981 15C28.5981 14.477 28.318 13.9923 27.8603 13.7232L17.7295 7.767ZM24.1248 15L18.4672 18.3262V11.6738L24.1248 15Z" fill="#474747"/>
<path fill-rule="evenodd" clip-rule="evenodd" d="M31.1929 0.390103C24.408 -0.130034 17.592 -0.130034 10.8071 0.390103L6.26706 0.738145C3.50627 0.949788 1.24773 2.97727 0.791366 5.65366C-0.263789 11.8417 -0.263789 18.1583 0.791366 24.3463C1.24773 27.0227 3.50627 29.0502 6.26706 29.2619L10.8071 29.6099C17.592 30.13 24.408 30.13 31.1929 29.6099L35.7329 29.2619C38.4937 29.0502 40.7523 27.0227 41.2086 24.3463C42.2638 18.1583 42.2638 11.8417 41.2086 5.65366C40.7523 2.97727 38.4937 0.949788 35.7329 0.738144L31.1929 0.390103ZM11.0441 3.35911C17.6713 2.85107 24.3287 2.85107 30.9559 3.35911L35.4959 3.70715C36.8648 3.81209 37.9847 4.81739 38.2109 6.14445C39.2107 12.0075 39.2107 17.9925 38.2109 23.8556C37.9847 25.1826 36.8648 26.1879 35.4959 26.2928L30.9559 26.6409C24.3287 27.1489 17.6713 27.1489 11.0441 26.6409L6.50411 26.2928C5.13521 26.1879 4.01534 25.1826 3.78906 23.8556C2.78931 17.9925 2.78931 12.0075 3.78906 6.14445C4.01534 4.81739 5.13521 3.81209 6.50411 3.70715L11.0441 3.35911Z" fill="#474747"/>
</svg>
