<svg width="18" height="18" viewBox="0 0 18 18" fill="none" xmlns="http://www.w3.org/2000/svg">
<path d="M2.6008 1.80005H15.4078C15.8488 1.80005 16.1998 2.15105 16.1998 2.59205V15.408C16.1998 15.84 15.8488 16.2 15.4078 16.2H11.7358V10.62H13.6078L13.8868 8.45105H11.7358V7.06505C11.7358 6.43505 11.9158 6.00305 12.8158 6.00305H13.9678V4.05905C13.7698 4.03205 13.0858 3.97805 12.2938 3.97805C10.6288 3.97805 9.4948 4.98605 9.4948 6.84905V8.45105H7.6138V10.62H9.4948V16.2H2.6008C2.38992 16.2001 2.18753 16.1169 2.03757 15.9686C1.88761 15.8204 1.80217 15.6189 1.7998 15.408V2.59205C1.7998 2.15105 2.1598 1.80005 2.6008 1.80005Z" fill="#444444"/>
</svg>
