<svg width="70" height="70" viewBox="0 0 70 70" fill="none" xmlns="http://www.w3.org/2000/svg">
<path d="M63.4375 26.2501C63.4375 25.96 63.3223 25.6818 63.1171 25.4767C62.912 25.2715 62.6338 25.1563 62.3438 25.1563H43.75V7.65631C43.75 7.36623 43.6348 7.08803 43.4296 6.88291C43.2245 6.6778 42.9463 6.56256 42.6562 6.56256C41.5566 6.56846 40.4593 6.66357 39.375 6.84694V3.28131C39.375 2.99123 39.2598 2.71303 39.0546 2.50791C38.8495 2.3028 38.5713 2.18756 38.2812 2.18756H12.0312C11.7413 2.18972 11.4632 2.30328 11.2547 2.50475L2.50469 11.2547C2.30322 11.4633 2.18966 11.7413 2.1875 12.0313V66.7188C2.1875 67.0089 2.30273 67.2871 2.50785 67.4922C2.71297 67.6973 2.99117 67.8126 3.28125 67.8126H38.2812C38.5713 67.8126 38.8495 67.6973 39.0546 67.4922C39.2598 67.2871 39.375 67.0089 39.375 66.7188V47.8407C40.4593 48.0241 41.5566 48.1192 42.6562 48.1251C48.1663 48.1201 53.4492 45.9291 57.3454 42.0329C61.2416 38.1368 63.4326 32.8538 63.4375 27.3438C63.4375 27.0485 63.4266 26.7532 63.4156 26.4579C63.4289 26.3894 63.4362 26.3198 63.4375 26.2501ZM41.5625 8.78287V25.8016L28.2625 39.1016C26.0936 36.4501 24.6997 33.2508 24.2349 29.8569C23.77 26.463 24.2523 23.0066 25.6284 19.8696C27.0046 16.7326 29.221 14.0369 32.0329 12.0805C34.8448 10.124 38.1428 8.98276 41.5625 8.78287ZM10.9375 5.91725V10.9376H5.91719L10.9375 5.91725ZM37.1875 65.6251H4.375V13.1251H12.0312C12.3213 13.1251 12.5995 13.0098 12.8046 12.8047C13.0098 12.5996 13.125 12.3214 13.125 12.0313V4.37506H37.1875V7.31725C32.7904 8.5112 28.9085 11.1191 26.1409 14.7385C23.3732 18.3579 21.8737 22.7875 21.8737 27.3438C21.8737 31.9001 23.3732 36.3298 26.1409 39.9491C28.9085 43.5685 32.7904 46.1764 37.1875 47.3704V65.6251ZM42.6562 45.9376C37.8362 45.9377 33.2061 44.0582 29.75 40.6985L43.1047 27.3438H61.25C61.2431 32.273 59.2818 36.9984 55.7963 40.4839C52.3108 43.9694 47.5855 45.9306 42.6562 45.9376Z" fill="#FFC325"/>
<path d="M47.0312 22.9688H66.7187V22.9622C66.8643 22.9589 67.0078 22.9263 67.1406 22.8665C67.2734 22.8066 67.3927 22.7207 67.4916 22.6137C67.5905 22.5068 67.6669 22.381 67.7162 22.244C67.7655 22.1069 67.7867 21.9614 67.7786 21.8159C67.4883 16.5109 65.1755 11.519 61.316 7.86768C57.4566 4.21636 52.3442 2.18349 47.0312 2.18751C46.7412 2.18751 46.463 2.30274 46.2579 2.50786C46.0527 2.71298 45.9375 2.99118 45.9375 3.28126V21.875C45.9375 22.1651 46.0527 22.4433 46.2579 22.6484C46.463 22.8535 46.7412 22.9688 47.0312 22.9688ZM65.4959 20.7813H48.125V4.40672C52.4829 4.66007 56.6124 6.44004 59.7889 9.43431C62.9654 12.4286 64.9859 16.4459 65.4959 20.7813Z" fill="#FFC325"/>
<path d="M20.7813 43.75C18.8343 43.75 16.9312 44.3273 15.3124 45.409C13.6936 46.4906 12.4319 48.028 11.6868 49.8267C10.9418 51.6254 10.7468 53.6047 11.1266 55.5142C11.5065 57.4237 12.444 59.1777 13.8207 60.5543C15.1973 61.931 16.9513 62.8685 18.8608 63.2484C20.7703 63.6282 22.7496 63.4332 24.5483 62.6882C26.347 61.9431 27.8844 60.6814 28.966 59.0626C30.0477 57.4438 30.625 55.5407 30.625 53.5938C30.621 50.9843 29.5825 48.4828 27.7374 46.6376C25.8922 44.7925 23.3907 43.754 20.7813 43.75ZM20.7813 61.25C19.267 61.25 17.7867 60.801 16.5277 59.9597C15.2686 59.1184 14.2873 57.9227 13.7078 56.5237C13.1283 55.1247 12.9767 53.5853 13.2721 52.1001C13.5675 50.6149 14.2967 49.2507 15.3675 48.18C16.4382 47.1092 17.8024 46.38 19.2876 46.0846C20.7728 45.7892 22.3122 45.9408 23.7112 46.5203C25.1102 47.0998 26.3059 48.0811 27.1472 49.3402C27.9885 50.5992 28.4375 52.0795 28.4375 53.5938C28.4352 55.6236 27.6278 57.5697 26.1925 59.005C24.7572 60.4403 22.8111 61.2477 20.7813 61.25Z" fill="#FFC325"/>
<path d="M24.0625 55.7812C24.059 56.4578 23.8471 57.1169 23.4557 57.6688C23.0643 58.2207 22.5124 58.6386 21.875 58.8656V60.1562H19.6875V58.8656C19.0501 58.6386 18.4982 58.2207 18.1068 57.6688C17.7154 57.1169 17.5035 56.4578 17.5 55.7812H19.6875C19.6875 55.9976 19.7516 56.209 19.8718 56.3889C19.992 56.5688 20.1628 56.709 20.3627 56.7917C20.5625 56.8745 20.7825 56.8962 20.9946 56.854C21.2068 56.8118 21.4017 56.7076 21.5546 56.5546C21.7076 56.4017 21.8118 56.2068 21.854 55.9946C21.8962 55.7825 21.8745 55.5625 21.7917 55.3627C21.709 55.1628 21.5688 54.992 21.3889 54.8718C21.209 54.7516 20.9976 54.6875 20.7812 54.6875C20.0118 54.6815 19.2688 54.4053 18.6824 53.9071C18.0959 53.4089 17.7032 52.7204 17.5728 51.962C17.4425 51.2036 17.5829 50.4235 17.9695 49.7581C18.356 49.0927 18.9641 48.5844 19.6875 48.3219V47.0312H21.875V48.3219C22.5124 48.5489 23.0643 48.9668 23.4557 49.5187C23.8471 50.0706 24.059 50.7297 24.0625 51.4062H21.875C21.875 51.1899 21.8109 50.9785 21.6907 50.7986C21.5705 50.6187 21.3997 50.4785 21.1998 50.3958C21 50.313 20.78 50.2913 20.5679 50.3335C20.3557 50.3757 20.1608 50.4799 20.0079 50.6329C19.8549 50.7858 19.7507 50.9807 19.7085 51.1929C19.6663 51.405 19.688 51.625 19.7708 51.8248C19.8535 52.0247 19.9937 52.1955 20.1736 52.3157C20.3535 52.4359 20.5649 52.5 20.7812 52.5C21.6507 52.5026 22.4838 52.8491 23.0986 53.4639C23.7134 54.0787 24.0599 54.9118 24.0625 55.7812Z" fill="#FFC325"/>
<path d="M8.75 17.5H19.6875V19.6875H8.75V17.5Z" fill="#FFC325"/>
<path d="M8.75 24.0625H19.6875V26.25H8.75V24.0625Z" fill="#FFC325"/>
<path d="M8.75 30.625H19.6875V32.8125H8.75V30.625Z" fill="#FFC325"/>
<path d="M8.75 37.1875H19.6875V39.375H8.75V37.1875Z" fill="#FFC325"/>
<path d="M43.75 52.5H48.125V54.6875H43.75V52.5Z" fill="#FFC325"/>
<path d="M50.3125 52.5H67.8125V54.6875H50.3125V52.5Z" fill="#FFC325"/>
<path d="M43.75 59.0625H48.125V61.25H43.75V59.0625Z" fill="#FFC325"/>
<path d="M50.3125 59.0625H67.8125V61.25H50.3125V59.0625Z" fill="#FFC325"/>
<path d="M43.75 65.625H48.125V67.8125H43.75V65.625Z" fill="#FFC325"/>
<path d="M50.3125 65.625H67.8125V67.8125H50.3125V65.625Z" fill="#FFC325"/>
</svg>
