<svg width="30" height="30" viewBox="0 0 30 30" fill="none" xmlns="http://www.w3.org/2000/svg">
<path d="M21.4936 2.58188C18.9911 2.56851 16.612 3.66759 15 5.58184C13.398 3.6545 11.0123 2.5523 8.50628 2.58188C3.80838 2.58188 0 6.39026 0 11.0882C0 19.1388 14.0506 26.9995 14.6203 27.3034C14.8501 27.4569 15.1498 27.4569 15.3797 27.3034C15.9494 26.9995 30 19.2527 30 11.0882C30 6.39026 26.1916 2.58188 21.4936 2.58188ZM15 25.7844C12.7974 24.4933 1.51899 17.6199 1.51899 11.0882C1.51899 7.2292 4.64732 4.1008 8.50635 4.1008C10.8695 4.06976 13.0811 5.26173 14.3544 7.25267C14.613 7.6092 15.1117 7.68864 15.4682 7.43003C15.5363 7.3806 15.5962 7.32078 15.6456 7.25267C17.7574 4.02288 22.0878 3.11663 25.3176 5.22852C27.2948 6.52138 28.4849 8.72573 28.4809 11.0881C28.481 17.6957 17.2025 24.5312 15 25.7844Z" fill="#444444"/>
</svg>
