<svg width="30" height="30" viewBox="0 0 30 30" fill="none" xmlns="http://www.w3.org/2000/svg">
<g clip-path="url(#clip0)">
<path d="M14.8087 12.645C18.3005 12.645 21.1313 9.81419 21.1313 6.32237C21.1313 2.83055 18.3005 0 14.8087 0C11.3169 0 8.48633 2.83081 8.48633 6.32263C8.49025 9.81262 11.3187 12.6411 14.8087 12.645ZM14.8087 1.33929C17.561 1.33929 19.792 3.57029 19.792 6.32263C19.792 9.07471 17.561 11.3057 14.8087 11.3057C12.0566 11.3057 9.82561 9.07471 9.82561 6.32263C9.82875 3.5716 12.0579 1.34242 14.8087 1.33929Z" fill="#444444"/>
<path d="M14.9734 14.8721C8.47763 14.8695 3.21125 20.1361 3.21387 26.6316V29.3304C3.21387 29.7002 3.51364 30 3.88351 30H26.0633C26.4332 30 26.733 29.7002 26.733 29.3304V26.6316C26.7359 20.1361 21.4692 14.8695 14.9734 14.8721ZM25.3937 28.6607H4.55315V26.6316C4.54374 22.9026 6.52782 19.4529 9.7557 17.5854C12.9836 15.7183 16.9633 15.7183 20.1914 17.5854C23.4193 19.4529 25.4034 22.9026 25.3937 26.6316V28.6607Z" fill="#444444"/>
</g>
<defs>
<clipPath id="clip0">
<rect width="30" height="30" fill="white"/>
</clipPath>
</defs>
</svg>
