<svg width="18" height="18" viewBox="0 0 18 18" fill="none" xmlns="http://www.w3.org/2000/svg">
<path d="M17.1004 15.2999V2.6999C17.1004 1.7099 16.2877 0.899902 15.2959 0.899902H2.70489C1.66989 0.899902 0.900391 1.6676 0.900391 2.6999V15.2999C0.900391 16.3331 1.66989 17.0999 2.70489 17.0999H15.2959C15.7735 17.0992 16.2314 16.9095 16.5695 16.5722C16.9076 16.2349 17.0985 15.7775 17.1004 15.2999ZM13.666 10.4462C13.666 10.4462 14.6848 11.4515 14.9359 11.9177C14.9431 11.9276 14.9458 11.9366 14.9485 11.9402C15.0502 12.1112 15.0763 12.2462 15.025 12.3452C14.9404 12.5099 14.6524 12.5927 14.5543 12.5999H12.7552C12.6292 12.5999 12.3682 12.5675 12.0514 12.3488C11.8084 12.1796 11.5681 11.8997 11.3341 11.627C10.9849 11.222 10.6825 10.871 10.3783 10.871C10.3397 10.8709 10.3014 10.8773 10.2649 10.8899C10.0336 10.9637 9.74019 11.2922 9.74019 12.1697C9.74019 12.4442 9.52419 12.6008 9.37119 12.6008H8.54679C8.26599 12.6008 6.80349 12.5027 5.50839 11.1356C3.91899 9.4616 2.49159 6.1037 2.47899 6.074C2.38899 5.8571 2.57529 5.7392 2.77779 5.7392H4.59579C4.83969 5.7392 4.91799 5.8868 4.97379 6.0191C5.03679 6.1694 5.27439 6.776 5.66319 7.4582C6.29589 8.5679 6.68559 9.0197 6.99609 9.0197C7.05415 9.01937 7.11116 9.00419 7.16169 8.9756C7.56759 8.7515 7.49199 7.3043 7.47399 7.0055C7.47399 6.9488 7.47309 6.3584 7.26609 6.0749C7.11669 5.8697 6.86379 5.7914 6.71079 5.7617C6.77318 5.67574 6.85528 5.60598 6.95019 5.5583C7.22829 5.4197 7.72959 5.3999 8.22819 5.3999H8.50539C9.04629 5.4071 9.18669 5.4422 9.38199 5.4917C9.77709 5.5862 9.78519 5.8427 9.75009 6.7157C9.74019 6.9641 9.72939 7.2458 9.72939 7.5761C9.72939 7.6472 9.72669 7.7255 9.72669 7.8065C9.71409 8.2529 9.69969 8.7578 10.0147 8.9648C10.0555 8.99031 10.1025 9.00402 10.1506 9.0044C10.2604 9.0044 10.5889 9.0044 11.479 7.4771C11.8705 6.803 12.172 6.0074 12.1927 5.948C12.2241 5.88378 12.2697 5.82748 12.3259 5.7833C12.372 5.75936 12.4233 5.74729 12.4753 5.7482H14.6128C14.8468 5.7482 15.0052 5.7833 15.0349 5.8724C15.0862 6.0155 15.025 6.452 14.0485 7.7714L13.6138 8.3474C12.7282 9.5066 12.7282 9.566 13.666 10.4462Z" fill="#444444"/>
</svg>
