<svg width="12" height="12" viewBox="0 0 12 12" fill="none" xmlns="http://www.w3.org/2000/svg">
<circle cx="6" cy="6" r="6" transform="rotate(180 6 6)" fill="#D9303A"/>
<path d="M5.41085 3L6.58085 3L6.58085 7.05L5.41085 7.05L5.41085 3ZM5.99585 7.635C6.21185 7.635 6.38585 7.701 6.51785 7.833C6.64985 7.965 6.71585 8.139 6.71585 8.355C6.71585 8.565 6.64985 8.736 6.51785 8.868C6.37985 9.006 6.20585 9.075 5.99585 9.075C5.79185 9.075 5.62085 9.006 5.48285 8.868C5.34485 8.73 5.27585 8.559 5.27585 8.355C5.27585 8.145 5.34485 7.971 5.48285 7.833C5.61485 7.701 5.78585 7.635 5.99585 7.635Z" fill="white"/>
</svg>
