<svg width="12" height="12" viewBox="0 0 12 12" fill="none" xmlns="http://www.w3.org/2000/svg">
<circle cx="6" cy="6" r="6" fill="#3C50E8"/>
<path d="M6.58915 9H5.41915V4.95H6.58915V9ZM6.00415 4.365C5.78815 4.365 5.61415 4.299 5.48215 4.167C5.35015 4.035 5.28415 3.861 5.28415 3.645C5.28415 3.435 5.35015 3.264 5.48215 3.132C5.62015 2.994 5.79415 2.925 6.00415 2.925C6.20815 2.925 6.37915 2.994 6.51715 3.132C6.65515 3.27 6.72415 3.441 6.72415 3.645C6.72415 3.855 6.65515 4.029 6.51715 4.167C6.38515 4.299 6.21415 4.365 6.00415 4.365Z" fill="white"/>
</svg>
