<svg width="16" height="18" viewBox="0 0 16 18" fill="none" xmlns="http://www.w3.org/2000/svg">
<path d="M15.4916 16.0363C15.1267 16.3767 13.5027 17.5 8.00043 17.5C2.4908 17.5 0.869604 16.3737 0.508511 16.035C0.561213 15.6666 0.780766 14.7731 1.70193 13.9461C2.68185 13.0663 4.52477 12.2 8.00043 12.2C11.4761 12.2 13.319 13.0663 14.2988 13.9461C15.2214 14.7744 15.4398 15.6695 15.4916 16.0363ZM12.005 4.5567C12.005 7.25096 10.2107 9.4 8.00043 9.4C5.78835 9.4 3.99591 7.25117 3.99591 4.5558C3.99591 3.21388 4.38212 2.21453 5.03767 1.55145C5.69246 0.889147 6.67757 0.5 8.00043 0.5C9.32336 0.5 10.3084 0.888963 10.9632 1.55123C11.6187 2.21426 12.005 3.2138 12.005 4.5567Z" stroke="#3C50E8"/>
</svg>
