<svg width="9" height="9" viewBox="0 0 9 9" fill="none" xmlns="http://www.w3.org/2000/svg">
<path d="M9 4.5C9 6.98528 6.98528 9 4.5 9C2.01472 9 0 6.98528 0 4.5C0 2.01472 2.01472 0 4.5 0C6.98528 0 9 2.01472 9 4.5Z" fill="#DCDCDC"/>
<path d="M4.90625 7H4.09375V3.66667H4.90625V7ZM4.5 3.18518C4.35 3.18518 4.22917 3.13086 4.1375 3.02222C4.04583 2.91358 4 2.77037 4 2.59259C4 2.41975 4.04583 2.27901 4.1375 2.17037C4.23333 2.05679 4.35417 2 4.5 2C4.64167 2 4.76042 2.05679 4.85625 2.17037C4.95208 2.28395 5 2.42469 5 2.59259C5 2.76543 4.95208 2.90864 4.85625 3.02222C4.76458 3.13086 4.64583 3.18518 4.5 3.18518Z" fill="white"/>
</svg>
