<svg width="120" height="34" viewBox="0 0 120 34" fill="none" xmlns="http://www.w3.org/2000/svg">
<path d="M40.856 16.5887C40.856 14.7501 41.4707 13.2179 42.7001 11.9922C43.9295 10.7664 45.4574 10.1536 47.2836 10.1536C48.5369 10.1536 49.6768 10.4661 50.7033 11.0913C51.7417 11.7286 52.5176 12.5866 53.0309 13.6653L50.5601 14.603C50.2497 14.0024 49.8021 13.5305 49.2172 13.1873C48.6324 12.8441 47.9878 12.6724 47.2836 12.6724C46.2093 12.6724 45.3141 13.0463 44.5979 13.794C43.8818 14.5417 43.5237 15.4671 43.5237 16.5703C43.5237 17.6734 43.8639 18.605 44.5442 19.365C45.2365 20.1127 46.0959 20.4865 47.1224 20.4865C47.8983 20.4865 48.5966 20.272 49.2172 19.843C49.8379 19.4017 50.2617 18.8195 50.4884 18.0963H46.8181V15.8532L53.3889 15.8532C53.3889 15.9145 53.3949 16.031 53.4068 16.2026C53.4307 16.3619 53.4427 16.4661 53.4427 16.5151C53.4188 18.3905 52.816 19.9349 51.6343 21.1484C50.4288 22.3864 48.9367 23.0054 47.1583 23.0054C45.3678 23.0054 43.8698 22.3925 42.6643 21.1668C41.4587 19.9288 40.856 18.4028 40.856 16.5887Z" fill="#2D2D2D"/>
<path d="M62.8532 19.5121L56.8552 19.5121C56.9865 19.9533 57.2312 20.3088 57.5893 20.5784C57.9474 20.8358 58.3592 20.9645 58.8247 20.9645C59.4693 20.9645 60.0004 20.7133 60.4182 20.2107L62.6562 20.7439C62.2981 21.4426 61.7729 21.9942 61.0806 22.3987C60.4003 22.7909 59.6364 22.987 58.7889 22.987C57.5356 22.987 56.4912 22.5764 55.6556 21.7551C54.8201 20.9339 54.4023 19.8982 54.4023 18.6479C54.4023 17.4099 54.8082 16.3742 55.6198 15.5407C56.4554 14.7072 57.4699 14.2904 58.6636 14.2904C59.8691 14.2904 60.8777 14.7072 61.6894 15.5407C62.513 16.3742 62.9248 17.4099 62.9248 18.6479C62.9248 19.0156 62.9009 19.3037 62.8532 19.5121ZM56.8552 17.7286H60.5614C60.4301 17.3119 60.1914 16.9748 59.8452 16.7174C59.4991 16.46 59.1112 16.3313 58.6815 16.3313C58.2756 16.3313 57.8996 16.46 57.5535 16.7174C57.2193 16.9748 56.9865 17.3119 56.8552 17.7286Z" fill="#2D2D2D"/>
<path d="M63.4002 16.5887V14.5111H64.5103V12.9115H66.8199V14.5111H68.6999V16.5887H66.8199V19.6775C66.8199 19.9227 66.9035 20.131 67.0706 20.3026C67.2377 20.462 67.4466 20.5417 67.6972 20.5417L68.6999 20.5417V22.7848L67.3213 22.7848C66.5454 22.7848 65.877 22.5335 65.316 22.0309C64.7788 21.5284 64.5103 20.9033 64.5103 20.1556V16.5887H63.4002Z" fill="#2D2D2D"/>
<path d="M72.4991 22.7848H69.9746V10.3742H72.4991L76.6708 17.9492L80.8604 10.3742H83.3849V22.7848H80.8604V15.2465L77.5123 21.4242H75.8293L72.4991 15.2833V22.7848Z" fill="#2D2D2D"/>
<path d="M85.9207 21.7551C85.109 20.9216 84.7032 19.8859 84.7032 18.6479C84.7032 17.4099 85.109 16.3742 85.9207 15.5407C86.7562 14.7072 87.7827 14.2904 89.0002 14.2904C90.2177 14.2904 91.2442 14.7072 92.0798 15.5407C92.9034 16.3742 93.3152 17.4099 93.3152 18.6479C93.3152 19.8859 92.9034 20.9216 92.0798 21.7551C91.2681 22.5764 90.2416 22.987 89.0002 22.987C87.7589 22.987 86.7324 22.5764 85.9207 21.7551ZM89.0002 20.6336C89.5374 20.6336 89.985 20.4436 90.343 20.0636C90.7131 19.6837 90.8981 19.2117 90.8981 18.6479C90.8981 18.0841 90.7131 17.6122 90.343 17.2322C89.985 16.8399 89.5374 16.6438 89.0002 16.6438C88.475 16.6438 88.0274 16.8399 87.6574 17.2322C87.2993 17.6122 87.1203 18.0841 87.1203 18.6479C87.1203 19.2117 87.2993 19.6837 87.6574 20.0636C88.0274 20.4436 88.475 20.6336 89.0002 20.6336Z" fill="#2D2D2D"/>
<path d="M94.4305 22.7848V14.5111H96.7581V15.3384C97.3072 14.6398 98.0412 14.2904 98.9603 14.2904C99.8197 14.2904 100.548 14.5969 101.145 15.2097C101.741 15.8226 102.04 16.5764 102.04 17.4712V22.7848L99.7123 22.7848V18.0963C99.7123 17.6428 99.5691 17.269 99.2826 16.9748C99.0081 16.6683 98.6619 16.5151 98.2441 16.5151C97.8264 16.5151 97.4743 16.6683 97.1878 16.9748C96.9013 17.269 96.7581 17.6428 96.7581 18.0963V22.7848H94.4305Z" fill="#2D2D2D"/>
<path d="M111.6 19.5121H105.602C105.734 19.9533 105.978 20.3088 106.336 20.5784C106.695 20.8358 107.106 20.9645 107.572 20.9645C108.216 20.9645 108.748 20.7133 109.165 20.2107L111.403 20.7439C111.045 21.4426 110.52 21.9942 109.828 22.3987C109.147 22.7909 108.383 22.987 107.536 22.987C106.283 22.987 105.238 22.5764 104.403 21.7551C103.567 20.9339 103.149 19.8982 103.149 18.6479C103.149 17.4099 103.555 16.3742 104.367 15.5407C105.203 14.7072 106.217 14.2904 107.411 14.2904C108.616 14.2904 109.625 14.7072 110.437 15.5407C111.26 16.3742 111.672 17.4099 111.672 18.6479C111.672 19.0156 111.648 19.3037 111.6 19.5121ZM105.602 17.7286H109.309C109.177 17.3119 108.939 16.9748 108.592 16.7174C108.246 16.46 107.858 16.3313 107.429 16.3313C107.023 16.3313 106.647 16.46 106.301 16.7174C105.966 16.9748 105.734 17.3119 105.602 17.7286Z" fill="#2D2D2D"/>
<path d="M114.505 23.1893L114.666 22.7296L111.622 14.5111H114.021L115.776 19.604L117.602 14.5111H120.001L116.438 23.9799C116.056 24.9972 115.549 25.7388 114.916 26.2046C114.284 26.6826 113.478 26.9216 112.499 26.9216H112.249V24.6418H112.517C113.508 24.6418 114.17 24.1576 114.505 23.1893Z" fill="#2D2D2D"/>
<path fill-rule="evenodd" clip-rule="evenodd" d="M14.2954 33.5659C23.5214 33.5659 31.0005 26.0868 31.0005 16.8608C31.0005 7.63488 23.5214 0.155762 14.2954 0.155762C8.23483 0.155762 2.92803 3.38321 0 8.21316C0.262672 7.90743 0.542161 7.60991 0.838461 7.32059C3.44917 4.77141 6.69355 3.49683 10.5716 3.49683C13.233 3.49683 15.6536 4.14687 17.8334 5.44695C20.0386 6.77252 21.6861 8.55694 22.7761 10.8002L17.5293 12.7503C16.8703 11.5012 15.9198 10.5198 14.6778 9.80604C13.4358 9.09227 12.0671 8.73538 10.5716 8.73538C8.2904 8.73538 6.38939 9.51288 4.86859 11.0679C3.34779 12.6229 2.58739 14.5475 2.58739 16.8418C2.58739 19.136 3.30977 21.0734 4.75453 22.6539C6.22464 24.2089 8.0496 24.9864 10.2294 24.9864C11.877 24.9864 13.3597 24.5403 14.6778 23.6481C15.9958 22.7304 16.8956 21.5195 17.3772 20.0155H9.58308V15.3505H23.5365C23.5365 15.478 23.5491 15.7201 23.5745 16.077C23.6252 16.4084 23.6505 16.6251 23.6505 16.7271C23.5998 20.6273 22.3198 23.8393 19.8105 26.3629C17.2505 28.9376 14.0821 30.2249 10.3055 30.2249C6.50345 30.2249 3.32244 28.9504 0.762421 26.4012C0.545236 26.1828 0.337264 25.96 0.138504 25.733C3.09348 30.4382 8.3292 33.5659 14.2954 33.5659Z" fill="#3C50E8"/>
</svg>
