<svg width="50" height="31" viewBox="0 0 50 31" fill="none" xmlns="http://www.w3.org/2000/svg">
<path fill-rule="evenodd" clip-rule="evenodd" d="M17.9541 26.9041H31.2892V2.90845H17.9541V26.9041Z" fill="#E15D29"/>
<path fill-rule="evenodd" clip-rule="evenodd" d="M19.174 15.2699C19.174 10.3991 21.4419 6.06125 24.9729 3.26497C22.3899 1.21988 19.1318 0 15.59 0C7.20514 0 0.408203 6.83697 0.408203 15.2699C0.408203 23.7029 7.20514 30.5399 15.59 30.5399C19.1318 30.5399 22.3899 29.32 24.9729 27.2749C21.4419 24.4788 19.174 20.1408 19.174 15.2699Z" fill="#D2232C"/>
<path fill-rule="evenodd" clip-rule="evenodd" d="M49.5373 15.2694C49.5373 23.7037 42.7401 30.5399 34.355 30.5399C30.813 30.5399 27.5547 29.3199 24.9727 27.2748C28.5038 24.4796 30.7709 20.1406 30.7709 15.2694C30.7709 10.3984 28.5038 6.06044 24.9727 3.26406C27.5547 1.21992 30.813 0 34.355 0C42.7401 0 49.5373 6.83618 49.5373 15.2694Z" fill="#EC972D"/>
</svg>
