<svg width="98" height="29" viewBox="0 0 98 29" fill="none" xmlns="http://www.w3.org/2000/svg">
<path fill-rule="evenodd" clip-rule="evenodd" d="M25.7231 0.611329V0.623308C25.7113 0.623308 21.9944 0.611329 21.0032 4.21716C20.0947 7.5235 17.5342 16.6519 17.4634 16.9034H16.7554C16.7554 16.9034 14.1359 7.57142 13.2155 4.20518C12.2244 0.599349 8.49569 0.611329 8.49569 0.611329H0V28.0444H8.49569V11.7523H8.84967H9.20366L14.1595 28.0444H20.0593L25.0151 11.7642H25.7231V28.0444H34.2187V0.611329H25.7231ZM58.8784 0.611328C58.8784 0.611328 56.3207 0.838939 55.1206 3.48641L48.9383 16.9034H48.211V0.611328H39.4832V28.0444H47.7261C47.7261 28.0444 50.4051 27.8048 51.6052 25.1693L57.6662 11.7523H58.3935V28.0444H67.1214V0.611328H58.8784ZM69.7536 13.6747V28.0444H78.2332V19.6525H87.4194C91.4237 19.6525 94.8155 17.1579 96.0757 13.6747H69.7536Z" fill="#4DB45E"/>
<path fill-rule="evenodd" clip-rule="evenodd" d="M87.9076 0.611328H68.4385C69.4113 6.06459 73.3878 10.4422 78.5318 11.8681C79.6992 12.1932 80.9274 12.3684 82.1921 12.3684H97.1982C97.332 11.718 97.3928 11.0551 97.3928 10.3672C97.3928 4.97644 93.1488 0.611328 87.9076 0.611328Z" fill="#01B5E6"/>
</svg>
