<svg width="88" height="29" viewBox="0 0 88 29" fill="none" xmlns="http://www.w3.org/2000/svg">
<path fill-rule="evenodd" clip-rule="evenodd" d="M38.0267 27.9086H30.8691L35.3427 0.490234H42.5014L38.0267 27.9086Z" fill="#005C9C"/>
<path fill-rule="evenodd" clip-rule="evenodd" d="M24.8475 0.490659L18.0228 19.3484L17.2161 15.2874L17.2168 15.2889L14.8076 2.96009C14.8076 2.96009 14.5171 0.490659 11.4122 0.490659H0.131639L0 0.954182C0 0.954182 3.45057 1.67 7.48654 4.08956L13.7052 27.9089H21.1631L32.551 0.490659H24.8475ZM73.271 18.2101L77.0326 7.94883L79.1484 18.2101H73.271ZM81.1473 27.9089H87.7197L81.9894 0.490659H76.2347C73.5769 0.490659 72.9305 2.53397 72.9305 2.53397L62.2559 27.9089H69.716L71.2089 23.837H80.3082L81.1473 27.9089ZM62.8156 7.08412L63.8363 1.19548C63.8363 1.19548 60.6843 0 57.3985 0C53.8464 0 45.412 1.54899 45.412 9.07683C45.412 16.161 55.3114 16.249 55.3114 19.9682C55.3114 23.6873 46.432 23.0229 43.5021 20.6766L42.4372 26.8322C42.4372 26.8322 45.6326 28.3812 50.5172 28.3812C55.4011 28.3812 62.7707 25.8575 62.7707 18.9942C62.7707 11.8653 52.7816 11.2016 52.7816 8.10211C52.7816 5.00267 59.7526 5.40092 62.8156 7.08412Z" fill="#005C9C"/>
<path fill-rule="evenodd" clip-rule="evenodd" d="M17.2168 15.289L14.8076 2.96015C14.8076 2.96015 14.5171 0.490723 11.4122 0.490723H0.131639L0 0.954245C0 0.954245 5.42222 2.07565 10.6238 6.27376C15.5952 10.287 17.2168 15.289 17.2168 15.289Z" fill="#EE9F3F"/>
</svg>
