<svg width="16" height="18" viewBox="0 0 16 18" fill="none" xmlns="http://www.w3.org/2000/svg">
<path fill-rule="evenodd" clip-rule="evenodd" d="M12.505 4.5567C12.505 7.4322 10.573 9.9 8.00043 9.9C5.42585 9.9 3.49591 7.4322 3.49591 4.5558C3.49591 1.6812 5.15758 0 8.00043 0C10.8433 0 12.505 1.6803 12.505 4.5567ZM0.0945004 16.3278C0.479887 16.74 2.13955 18 8.00043 18C13.8613 18 15.52 16.74 15.9064 16.3287C15.9422 16.2892 15.9687 16.2435 15.9842 16.1944C15.9997 16.1454 16.0038 16.094 15.9965 16.0434C15.9084 15.2496 15.1136 11.7 8.00043 11.7C0.887296 11.7 0.0924983 15.2496 0.0034089 16.0434C-0.00384045 16.094 0.000500361 16.1455 0.0161652 16.1945C0.03183 16.2436 0.058488 16.2883 0.0945004 16.3278Z" fill="#3C50E8"/>
</svg>
