<svg width="18" height="4" viewBox="0 0 18 4" fill="none" xmlns="http://www.w3.org/2000/svg">
<path d="M2 2H2.01H2ZM9 2H9.01H9ZM16 2H16.01H16ZM3 2C3 2.26522 2.89464 2.51957 2.70711 2.70711C2.51957 2.89464 2.26522 3 2 3C1.73478 3 1.48043 2.89464 1.29289 2.70711C1.10536 2.51957 1 2.26522 1 2C1 1.73478 1.10536 1.48043 1.29289 1.29289C1.48043 1.10536 1.73478 1 2 1C2.26522 1 2.51957 1.10536 2.70711 1.29289C2.89464 1.48043 3 1.73478 3 2V2ZM10 2C10 2.26522 9.89464 2.51957 9.70711 2.70711C9.51957 2.89464 9.26522 3 9 3C8.73478 3 8.48043 2.89464 8.29289 2.70711C8.10536 2.51957 8 2.26522 8 2C8 1.73478 8.10536 1.48043 8.29289 1.29289C8.48043 1.10536 8.73478 1 9 1C9.26522 1 9.51957 1.10536 9.70711 1.29289C9.89464 1.48043 10 1.73478 10 2V2ZM17 2C17 2.26522 16.8946 2.51957 16.7071 2.70711C16.5196 2.89464 16.2652 3 16 3C15.7348 3 15.4804 2.89464 15.2929 2.70711C15.1054 2.51957 15 2.26522 15 2C15 1.73478 15.1054 1.48043 15.2929 1.29289C15.4804 1.10536 15.7348 1 16 1C16.2652 1 16.5196 1.10536 16.7071 1.29289C16.8946 1.48043 17 1.73478 17 2V2Z" stroke="white" stroke-width="2" stroke-linecap="round" stroke-linejoin="round"/>
</svg>
