<svg width="16" height="16" viewBox="0 0 16 16" fill="none" xmlns="http://www.w3.org/2000/svg">
<path d="M14 12.0002H4C3.82319 12.0002 3.65362 12.0704 3.5286 12.1954C3.40357 12.3204 3.33333 12.49 3.33333 12.6668C3.33333 12.8436 3.40357 13.0132 3.5286 13.1382C3.65362 13.2633 3.82319 13.3335 4 13.3335H14V14.6668H4C3.46957 14.6668 2.96086 14.4561 2.58579 14.081C2.21071 13.706 2 13.1973 2 12.6668V2.66683C2 2.31321 2.14048 1.97407 2.39052 1.72402C2.64057 1.47397 2.97971 1.3335 3.33333 1.3335H14V12.0002ZM3.33333 10.7002C3.44133 10.6782 3.55267 10.6668 3.66667 10.6668H12.6667V2.66683H3.33333V10.7002ZM10.6667 6.00016H5.33333V4.66683H10.6667V6.00016Z" fill="black"/>
</svg>
