<?xml version="1.0" standalone="no"?>
<!DOCTYPE svg PUBLIC "-//W3C//DTD SVG 20010904//EN"
 "http://www.w3.org/TR/2001/REC-SVG-20010904/DTD/svg10.dtd">
<svg version="1.0" xmlns="http://www.w3.org/2000/svg"
 width="106.000000pt" height="182.000000pt" viewBox="0 0 106.000000 182.000000"
 preserveAspectRatio="xMidYMid meet">

<g transform="translate(0.000000,182.000000) scale(0.100000,-0.100000)"
fill="#000000" stroke="none">
<path d="M470 1763 c-25 -41 -30 -58 -30 -115 0 -38 -4 -68 -9 -68 -5 0 -27 7
-50 15 -61 21 -111 -4 -111 -57 0 -16 -6 -31 -15 -34 -8 -4 -29 -33 -47 -66
-36 -67 -112 -141 -163 -158 l-35 -12 0 -126 c1 -231 42 -433 126 -611 58
-123 117 -205 212 -290 61 -56 80 -80 90 -114 15 -48 66 -117 87 -117 21 0 71
64 91 116 10 27 27 56 39 64 11 8 46 39 79 70 201 190 316 510 316 878 l0 130
-35 12 c-52 17 -130 93 -161 156 -15 32 -38 61 -51 67 -13 6 -23 19 -23 31 0
57 -56 86 -116 61 -20 -8 -38 -15 -39 -15 -1 0 -5 32 -7 70 -4 45 -11 77 -22
89 -9 9 -16 23 -16 29 0 19 -31 42 -56 42 -18 0 -32 -12 -54 -47z m78 -31 c8
-5 10 -16 6 -27 -6 -14 -4 -17 9 -12 9 3 17 2 17 -2 0 -5 -7 -11 -15 -15 -8
-3 -15 -10 -15 -15 0 -6 7 -8 15 -5 20 8 19 -6 -2 -22 -17 -13 -17 -13 0 -14
9 0 17 -3 17 -6 0 -4 -8 -13 -17 -20 -17 -13 -17 -13 0 -14 25 0 21 -15 -9
-28 -24 -12 -74 -7 -74 7 0 4 6 13 13 20 10 11 10 13 0 7 -16 -9 -17 10 -2 20
8 4 7 9 -2 14 -10 7 -10 12 0 23 9 12 9 16 -1 19 -11 4 -11 8 0 20 10 12 10
17 1 20 -8 3 -6 9 5 21 19 19 34 21 54 9z m-114 -197 l88 -36 94 37 c79 31 96
35 109 24 23 -19 15 -54 -14 -58 -15 -2 -21 0 -16 7 15 25 -29 21 -99 -8 l-74
-31 -77 33 c-72 30 -78 31 -90 14 -16 -22 -31 -22 -44 0 -11 20 3 53 22 53 7
0 53 -16 101 -35z m-79 -71 c18 5 28 -1 44 -23 27 -38 26 -41 -7 -41 -23 0
-35 -12 -81 -81 -39 -59 -67 -90 -102 -112 -48 -30 -49 -31 -49 -81 0 -29 -4
-56 -9 -62 -12 -13 -38 -101 -46 -155 -7 -57 15 -171 46 -230 12 -24 50 -73
83 -109 34 -36 75 -83 90 -105 16 -22 44 -56 63 -76 32 -34 34 -39 31 -98 l-3
-62 -57 51 c-189 168 -308 494 -308 841 l0 119 40 20 c55 28 114 89 145 149
29 57 51 74 78 59 10 -5 29 -7 42 -4z m437 -1 c9 -10 25 -36 36 -58 26 -52
108 -132 149 -147 37 -14 38 -17 34 -183 -7 -261 -89 -524 -219 -696 -49 -64
-136 -149 -153 -149 -5 0 -9 26 -9 58 0 50 4 62 26 83 14 13 42 47 62 74 19
28 66 82 104 122 76 79 111 145 128 240 13 73 2 159 -29 229 -12 26 -21 68
-21 94 0 46 -2 49 -44 74 -45 27 -101 93 -132 159 -16 33 -21 37 -57 37 l-39
0 21 33 c15 24 26 31 45 29 14 -2 33 1 43 7 26 15 38 13 55 -6z m-222 -13 c28
11 50 16 50 12 -1 -17 -18 -31 -57 -47 -41 -16 -43 -16 -84 7 -60 33 -63 53
-5 28 46 -19 47 -19 96 0z m-60 -115 c0 -27 -4 -34 -25 -37 -24 -5 -25 -3 -25
43 0 48 0 48 25 37 19 -9 25 -19 25 -43z m90 5 c0 -38 -2 -40 -30 -40 -27 0
-30 3 -30 34 0 34 9 44 43 45 13 1 17 -7 17 -39z m-180 -15 c0 -31 -4 -45 -14
-45 -7 0 -40 -13 -72 -30 -32 -16 -61 -30 -63 -30 -1 0 11 16 28 35 17 19 41
53 53 75 16 28 30 40 46 40 20 0 22 -5 22 -45z m290 5 c11 -22 34 -55 51 -75
17 -19 29 -35 26 -35 -3 0 -29 13 -59 28 -29 16 -63 31 -76 34 -18 5 -22 13
-22 47 0 39 2 41 30 41 24 0 33 -7 50 -40z m-68 -86 c40 -12 58 -22 58 -33 0
-9 3 -26 6 -39 l6 -22 -43 25 c-24 14 -57 25 -74 25 l-29 0 36 -37 c19 -21 38
-46 41 -55 9 -24 64 -57 110 -64 20 -4 37 -10 37 -14 0 -5 3 -17 7 -27 7 -17
6 -17 -17 -2 -14 9 -40 21 -57 27 -45 15 -43 -1 5 -47 l37 -36 -4 -75 c-2 -41
-4 -107 -5 -147 -1 -66 -2 -72 -23 -76 -13 -2 -23 -3 -23 -2 0 1 7 22 15 45 8
23 15 47 15 52 0 20 -41 -15 -66 -57 -14 -25 -31 -45 -38 -45 -6 0 -29 -9 -51
-20 -49 -25 -66 -25 -107 0 -18 11 -41 20 -50 20 -10 0 -24 14 -32 33 -7 17
-26 43 -41 57 l-28 25 6 -35 c3 -19 8 -43 12 -52 6 -15 2 -18 -20 -18 -22 0
-26 3 -20 18 15 38 17 82 4 118 -7 22 -12 66 -10 99 2 51 7 64 33 89 16 16 33
37 39 47 8 16 6 17 -22 9 -17 -5 -43 -17 -56 -25 -29 -20 -33 -17 -22 13 5 13
17 22 29 22 40 0 136 63 135 89 0 3 12 17 27 29 15 13 28 28 28 33 0 16 -46 9
-91 -13 l-44 -23 3 36 c4 34 8 38 50 52 62 21 162 21 234 1z m-417 -74 c-16
-16 -31 -27 -34 -24 -5 5 48 54 58 54 3 0 -8 -13 -24 -30z m70 -25 c-13 -28
-25 -43 -25 -35 0 8 -12 -3 -25 -25 -18 -28 -25 -55 -25 -90 0 -35 -3 -46 -10
-35 -5 8 -12 11 -16 8 -12 -13 -6 -103 9 -141 9 -21 12 -35 7 -32 -29 18 11
-79 47 -117 l27 -28 -25 0 -24 0 25 -20 c14 -11 48 -29 75 -39 28 -11 44 -20
38 -20 -7 -1 -13 -5 -13 -10 0 -33 264 -45 322 -15 20 10 27 19 19 23 -7 5 4
12 29 20 47 14 106 60 78 61 -18 0 -26 20 -8 20 14 0 60 83 60 109 0 12 -4 20
-9 16 -5 -3 -3 8 5 25 20 39 28 92 20 125 -6 23 -9 25 -23 13 -14 -10 -15 -11
-9 0 4 7 5 32 2 56 -8 48 -44 115 -55 98 -4 -6 -13 8 -22 33 -15 42 -15 44 2
35 29 -16 87 -93 114 -153 84 -183 3 -407 -183 -501 -268 -136 -586 83 -558
384 8 88 60 195 123 249 25 23 47 40 49 38 2 -1 -8 -25 -21 -52z m575 2 c0 -6
-13 2 -30 18 -16 16 -30 30 -30 33 0 2 14 -6 30 -18 17 -12 30 -26 30 -33z
m-549 -20 c-25 -38 -28 -19 -4 26 9 18 18 26 20 19 3 -7 -5 -27 -16 -45z m106
28 c-25 -22 -57 -33 -57 -20 0 8 63 45 75 45 6 -1 -3 -12 -18 -25z m252 -3
c32 -21 10 -27 -28 -8 -39 21 -52 41 -20 31 13 -5 35 -15 48 -23z m81 -29 c0
-23 -17 -6 -29 29 l-11 33 20 -24 c11 -13 20 -30 20 -38z m-397 -44 c-18 -11
-38 -19 -45 -17 -8 3 0 12 17 21 44 24 66 20 28 -4z m382 -5 c11 -8 14 -14 7
-14 -16 0 -72 28 -72 36 0 8 42 -7 65 -22z m-495 -64 c-17 -32 -21 -19 -8 26
9 31 13 34 16 17 2 -12 -2 -32 -8 -43z m576 10 c4 -23 3 -32 -3 -25 -6 6 -13
26 -17 45 -4 23 -3 31 4 24 5 -5 13 -25 16 -44z m-509 -35 c-26 -23 -47 -32
-47 -20 0 6 62 45 70 45 3 -1 -8 -12 -23 -25z m463 -9 c7 -9 9 -16 6 -16 -13
0 -56 32 -56 42 0 11 32 -6 50 -26z m-516 -75 c-18 -36 -19 -36 -28 1 -5 22
-2 27 16 30 31 5 30 6 12 -31z m557 29 c11 0 12 -30 1 -48 -6 -8 -14 -1 -26
24 -15 33 -15 36 -1 30 9 -3 21 -6 26 -6z m-602 -37 c6 -20 7 -41 4 -47 -8
-12 -20 24 -22 62 -1 33 7 27 18 -15z m632 -43 c-10 -25 -10 -25 -10 5 -1 17
3 41 7 55 7 25 7 24 10 -5 2 -17 -1 -42 -7 -55z m-46 -38 c-7 -7 -25 47 -24
71 1 14 6 5 15 -22 8 -25 12 -47 9 -49z m-534 11 c-10 -17 -10 -17 -11 2 0 11
4 31 8 45 l7 25 3 -27 c2 -15 -1 -35 -7 -45z m556 -45 c-3 -8 -6 -5 -6 6 -1
11 2 17 5 13 3 -3 4 -12 1 -19z m-554 -8 c-3 -12 -8 -19 -11 -16 -5 6 5 36 12
36 2 0 2 -9 -1 -20z m537 -11 c0 -5 -4 -9 -10 -9 -5 0 -10 7 -10 16 0 8 5 12
10 9 6 -3 10 -10 10 -16z m-513 -41 c-2 -13 -4 -5 -4 17 -1 22 1 32 4 23 2
-10 2 -28 0 -40z m483 11 c0 -17 -4 -28 -10 -24 -5 3 -10 17 -10 31 0 13 5 24
10 24 6 0 10 -14 10 -31z m45 0 c-9 -17 -19 -28 -22 -25 -6 6 23 56 32 56 3 0
-2 -14 -10 -31z m-555 -33 c0 -6 -9 0 -20 14 -26 33 -25 52 0 21 11 -13 20
-28 20 -35z m110 -27 c6 -10 7 -19 2 -19 -5 0 -14 12 -20 26 -14 29 2 24 18
-7z m320 1 c-6 -12 -14 -19 -17 -17 -2 3 1 15 7 27 6 12 14 19 17 17 2 -3 -1
-15 -7 -27z m-331 -52 c13 -5 21 -11 18 -14 -10 -11 -74 6 -88 22 -11 13 -9
14 17 8 16 -4 40 -11 53 -16z m411 17 c0 -10 -61 -35 -86 -35 -34 0 -27 8 23
25 40 15 63 18 63 10z m-310 -30 c32 -16 38 -25 18 -25 -14 0 -68 39 -55 40 4
0 21 -7 37 -15z m141 -5 c-13 -11 -28 -20 -35 -20 -6 1 0 10 13 20 13 11 28
20 35 20 6 -1 0 -10 -13 -20z m-126 -50 c7 -11 -16 -11 -60 0 -28 7 -28 8 12
9 23 0 45 -3 48 -9z m155 0 c-36 -12 -62 -12 -55 0 3 6 23 10 43 9 33 -1 34
-2 12 -9z m-246 -80 c20 -7 26 -16 26 -40 0 -40 -9 -38 -43 10 -29 41 -26 47
17 30z m286 -30 c-43 -54 -50 -57 -50 -16 0 28 5 36 28 44 50 19 54 13 22 -28z
m-170 -175 c0 -102 -2 -185 -5 -185 -4 0 -15 19 -25 43 -16 35 -20 65 -20 185
l0 142 25 0 25 0 0 -185z m90 62 c0 -128 -16 -213 -45 -237 -13 -11 -15 10
-15 174 l0 186 30 0 30 0 0 -123z"/>
<path d="M520 1720 c-8 -5 -11 -12 -7 -16 4 -4 13 -2 19 4 15 15 7 24 -12 12z"/>
<path d="M515 1679 c-11 -17 1 -21 15 -4 8 9 8 15 2 15 -6 0 -14 -5 -17 -11z"/>
<path d="M515 1640 c-3 -5 -2 -10 4 -10 5 0 13 5 16 10 3 6 2 10 -4 10 -5 0
-13 -4 -16 -10z"/>
<path d="M510 1600 c0 -5 4 -10 9 -10 6 0 13 5 16 10 3 6 -1 10 -9 10 -9 0
-16 -4 -16 -10z"/>
<path d="M520 1570 c-8 -5 -11 -12 -7 -16 4 -4 13 -2 19 4 15 15 7 24 -12 12z"/>
<path d="M263 1374 c-8 -21 13 -42 28 -27 13 13 5 43 -11 43 -6 0 -13 -7 -17
-16z"/>
<path d="M117 1223 c-14 -13 -7 -33 11 -33 24 0 32 8 25 26 -5 15 -25 19 -36
7z"/>
<path d="M283 424 c-7 -20 17 -37 34 -23 15 13 6 39 -13 39 -8 0 -17 -7 -21
-16z"/>
<path d="M754 1375 c-7 -18 3 -35 21 -35 18 0 26 25 12 39 -15 15 -27 14 -33
-4z"/>
<path d="M915 1220 c-4 -7 -3 -16 3 -22 14 -14 45 -2 40 15 -6 16 -34 21 -43
7z"/>
<path d="M743 424 c-8 -21 13 -42 28 -27 13 13 5 43 -11 43 -6 0 -13 -7 -17
-16z"/>
<path d="M487 1050 c-24 -52 -57 -126 -73 -164 -16 -38 -42 -82 -57 -97 l-29
-29 64 0 c62 1 62 1 36 16 -32 17 -32 17 -16 61 l12 33 71 0 71 0 12 -33 c17
-47 15 -56 -10 -67 -16 -6 4 -9 69 -9 l92 -1 -22 23 c-12 12 -53 92 -91 177
-38 85 -72 162 -77 170 -5 11 -20 -12 -52 -80z m63 -152 c0 -5 -25 -8 -55 -8
-30 0 -55 2 -55 4 0 3 12 33 27 67 l27 63 28 -60 c15 -32 27 -62 28 -66z"/>
</g>
</svg>
