<svg width="30" height="30" viewBox="0 0 30 30" fill="none" xmlns="http://www.w3.org/2000/svg">
<path d="M9.56945 23.3345C7.83968 23.3345 6.4375 24.7367 6.4375 26.4664C6.4375 28.1962 7.83975 29.5984 9.56945 29.5984C11.2992 29.5984 12.7014 28.1961 12.7014 26.4664C12.7015 24.7367 11.2992 23.3345 9.56945 23.3345ZM9.56945 28.2064C8.60848 28.2064 7.82949 27.4274 7.82949 26.4665C7.82949 25.5055 8.60848 24.7265 9.56945 24.7265C10.5304 24.7265 11.3094 25.5055 11.3094 26.4665C11.3095 27.4274 10.5304 28.2064 9.56945 28.2064Z" fill="#444444"/>
<path d="M22.7941 23.3345C21.0643 23.3345 19.6621 24.7367 19.6621 26.4664C19.6621 28.1962 21.0644 29.5984 22.7941 29.5984C24.5238 29.5984 25.926 28.1961 25.926 26.4664C25.926 24.7367 24.5238 23.3345 22.7941 23.3345ZM22.7941 28.2064C21.8331 28.2064 21.0541 27.4274 21.0541 26.4665C21.0541 25.5055 21.8331 24.7265 22.7941 24.7265C23.755 24.7265 24.534 25.5055 24.534 26.4665C24.5341 27.4274 23.755 28.2064 22.7941 28.2064Z" fill="#444444"/>
<path d="M29.8581 5.06483C29.7132 4.9065 29.5149 4.80738 29.3014 4.7864L6.64676 4.47321L6.02037 2.5592C5.57909 1.27971 4.38093 0.415932 3.02757 0.401611H0.695996C0.311596 0.401611 0 0.713207 0 1.09761C0 1.48201 0.311596 1.7936 0.695996 1.7936H3.02757C3.78431 1.81032 4.45067 2.29623 4.69799 3.01161L9.11755 16.3399L8.76959 17.1403C8.38146 18.1411 8.49802 19.2676 9.08278 20.1678C9.66195 21.052 10.6363 21.5977 11.6928 21.6294H25.2299C25.6143 21.6294 25.9259 21.3178 25.9259 20.9334C25.9259 20.549 25.6143 20.2374 25.2299 20.2374H11.6927C11.0961 20.2225 10.5469 19.9087 10.2311 19.4022C9.91886 18.902 9.85471 18.2857 10.0571 17.7318L10.3356 17.1054L24.9862 15.5742C26.5955 15.397 27.9193 14.2265 28.2922 12.651L29.9627 5.65631C30.0379 5.45489 29.998 5.22835 29.8581 5.06483ZM26.935 12.3379C26.7091 13.3521 25.848 14.1002 24.8123 14.1823L10.3356 15.6787L7.09917 5.8652L28.4314 6.17839L26.935 12.3379Z" fill="#444444"/>
</svg>
