<svg width="70" height="70" viewBox="0 0 70 70" fill="none" xmlns="http://www.w3.org/2000/svg">
<path d="M69.8734 56.671C69.545 55.0902 68.6157 53.7396 67.2565 52.8675C65.8974 51.9959 64.2829 51.7144 62.7085 52.0744L55.4122 53.7449V50.7622C56.8755 49.3838 58.3992 47.584 59.4828 45.9391C61.383 43.0547 62.7277 39.8872 63.4797 36.5264C64.3737 32.5279 64.3929 28.2949 63.5347 24.2836C63.3766 23.5456 62.6498 23.0745 61.9117 23.2331C61.1731 23.3907 60.7031 24.1175 60.8607 24.8561C61.6372 28.484 61.6201 32.3132 60.811 35.9293C60.1317 38.9659 58.9162 41.8279 57.1992 44.4347C56.6902 45.2075 56.0728 46.0182 55.4122 46.7925V31.6381C55.4122 30.883 54.8002 30.2709 54.045 30.2709H43.2298V15.6709C43.2298 14.9179 42.6205 14.3064 41.8674 14.3037L29.6851 14.2626C29.6835 14.2626 29.6824 14.2626 29.6808 14.2626C29.3187 14.2626 28.9716 14.4057 28.7157 14.6615C28.4583 14.9179 28.3136 15.2661 28.3136 15.6298V23.2246H17.4968C16.7422 23.2246 16.1296 23.8366 16.1296 24.5918V38.1307H13.0833V36.2738C13.0833 35.5191 12.4713 34.9071 11.7162 34.9071H10.3137C10.075 33.5928 9.93668 32.2576 9.9041 30.9246C9.82399 27.6834 10.3378 24.5122 11.4304 21.498C11.6852 20.7952 11.9746 20.0945 12.2903 19.4162C12.6091 18.7316 12.3122 17.9182 11.628 17.5994C10.9434 17.2816 10.13 17.5775 9.81171 18.2621C9.4619 19.013 9.14146 19.7885 8.86002 20.5661C7.65091 23.9012 7.08267 27.4095 7.17026 30.9919C7.20284 32.3014 7.3278 33.612 7.53983 34.9071H1.36719C0.61203 34.9071 0 35.5191 0 36.2743V60.3058C0 61.061 0.61203 61.673 1.36719 61.673H11.7162C12.4713 61.673 13.0833 61.061 13.0833 60.3058V59.0059H18.2263L39.0594 67.177C41.0044 67.9402 43.0418 68.3241 45.09 68.3241C46.4555 68.3241 47.827 68.1532 49.1776 67.8098L65.5064 63.6597C68.6061 62.8719 70.5239 59.8022 69.8734 56.671ZM52.6784 33.0053V54.3708L49.0233 55.2077C48.6302 55.2974 48.2329 55.3684 47.8334 55.424C46.3103 55.6339 44.7562 55.5895 43.2491 55.291C43.2426 55.2894 43.2362 55.2883 43.2298 55.2867V53.2135C44.2723 51.6583 44.6178 49.6866 44.0715 47.8868C43.9193 47.3848 43.703 46.9004 43.428 46.4534C43.3655 46.3519 43.3003 46.2526 43.2325 46.1554C43.232 46.1538 43.2309 46.1527 43.2298 46.1511V33.0048H52.6784V33.0053ZM31.048 17.0018L40.496 17.0333V43.9797L35.2158 41.7943L31.048 40.0688V17.0018ZM18.864 25.959H28.312V38.936L26.6164 38.2343C26.4503 38.1654 26.2724 38.1301 26.0935 38.1301H18.864V25.959ZM10.349 58.9386H2.73438V37.6409H9.18472C9.18739 37.6409 9.1906 37.6415 9.1938 37.6415C9.19647 37.6415 9.19861 37.6409 9.20128 37.6409H10.349V58.9386ZM64.833 61.0097L48.5042 65.1599C45.6854 65.876 42.7647 65.6928 40.0575 64.6317L18.9841 56.3661C18.825 56.3036 18.6557 56.2721 18.4848 56.2721H13.0833V40.865H25.8212L34.6673 44.5265L39.508 46.5303C41.2207 47.2406 42.0405 49.2497 41.3382 50.9603C41.1972 51.3037 41.0226 51.63 40.7908 51.9211C39.9347 53.0015 38.5253 53.4779 37.2073 53.1574C37.1966 53.1548 37.1859 53.1521 37.1752 53.1494C37.0962 53.1297 37.0177 53.1067 36.9397 53.0811L27.7406 49.5445C27.6658 49.5157 27.6263 49.5008 27.6263 49.5008C26.9218 49.2295 26.1309 49.5814 25.8596 50.2864C25.5888 50.9908 25.9402 51.7822 26.6452 52.053C26.6452 52.053 31.832 54.0472 35.7872 55.5724C35.8668 55.6034 35.9458 55.6323 36.0254 55.659L39.0626 56.827C39.9806 57.18 40.8944 57.5314 41.8498 57.7754C43.4723 58.1899 45.1562 58.3565 46.8288 58.2652C47.772 58.2139 48.7135 58.0836 49.6342 57.8732L54.3505 56.7938C54.3553 56.7928 54.3601 56.7906 54.3649 56.7896L63.3189 54.7399C64.1708 54.5449 65.045 54.6971 65.7799 55.1687C66.5158 55.6408 67.0184 56.3719 67.1962 57.2275C67.5487 58.9221 66.5105 60.5835 64.833 61.0097Z" fill="#FFC325"/>
<path d="M17.4827 11.5015C17.8096 11.5015 18.1375 11.385 18.3986 11.149C20.8382 8.94546 23.7515 7.18788 26.825 6.06582C30.1549 4.85031 33.8051 4.33174 37.3817 4.56672C39.9415 4.73495 42.4494 5.28129 44.8356 6.19026C45.5405 6.45889 46.3309 6.10534 46.5996 5.39932C46.8687 4.69383 46.5146 3.90396 45.8086 3.63533C43.1682 2.62916 40.3933 2.02461 37.5612 1.83822C33.6081 1.57867 29.5711 2.15225 25.8872 3.49754C22.4868 4.73869 19.2638 6.68319 16.5663 9.11956C16.0055 9.62585 15.9617 10.4905 16.468 11.0507C16.7377 11.3498 17.1094 11.5015 17.4827 11.5015Z" fill="#FFC325"/>
<path d="M48.5193 21.2587C48.7783 21.4835 49.0977 21.5936 49.4155 21.5936C49.7973 21.5936 50.1776 21.4344 50.4483 21.1236L61.6966 8.17537C62.1922 7.60553 62.1314 6.74196 61.5615 6.24689C60.9912 5.75181 60.1281 5.81216 59.633 6.382L48.3842 19.3302C47.8886 19.9001 47.9495 20.7636 48.5193 21.2587Z" fill="#FFC325"/>
<path d="M58.6004 15.4135C56.7077 15.4135 55.168 16.9531 55.168 18.8458C55.168 20.7385 56.7077 22.2782 58.6004 22.2782C60.4931 22.2782 62.0327 20.738 62.0327 18.8458C62.0327 16.9531 60.4931 15.4135 58.6004 15.4135ZM58.6004 19.5439C58.2153 19.5439 57.9023 19.2309 57.9023 18.8458C57.9023 18.4613 58.2153 18.1478 58.6004 18.1478C58.9849 18.1478 59.2984 18.4613 59.2984 18.8458C59.2984 19.2309 58.9849 19.5439 58.6004 19.5439Z" fill="#FFC325"/>
<path d="M51.0076 12.3698C52.9003 12.3698 54.44 10.8302 54.44 8.93745C54.44 7.04475 52.9003 5.50507 51.0076 5.50507C49.1149 5.50507 47.5752 7.04475 47.5752 8.93745C47.5752 10.8302 49.1149 12.3698 51.0076 12.3698ZM51.0076 8.23891C51.3926 8.23891 51.7056 8.5524 51.7056 8.93745C51.7056 9.32198 51.3926 9.63547 51.0076 9.63547C50.6225 9.63547 50.3096 9.32198 50.3096 8.93745C50.3096 8.5524 50.6225 8.23891 51.0076 8.23891Z" fill="#FFC325"/>
<path d="M12.6236 14.7144C12.8426 15.2399 13.3815 15.587 13.9524 15.5571C14.5169 15.5277 15.0114 15.1459 15.186 14.6097C15.3623 14.0687 15.17 13.4524 14.7177 13.1068C14.2568 12.7554 13.6095 12.7335 13.1267 13.0545C12.5911 13.4107 12.3764 14.121 12.6236 14.7144Z" fill="#FFC325"/>
</svg>
