<svg width="66" height="66" viewBox="0 0 66 66" fill="none" xmlns="http://www.w3.org/2000/svg">
<path d="M46.125 35.1875H48.3125V31.9062C48.3125 31.6162 48.1973 31.338 47.9921 31.1329C47.787 30.9277 47.5088 30.8125 47.2188 30.8125H43.9375V33H46.125V35.1875Z" fill="#FFC325"/>
<path d="M46.125 59.25H43.9375V61.4375H47.2188C47.5088 61.4375 47.787 61.3223 47.9921 61.1171C48.1973 60.912 48.3125 60.6338 48.3125 60.3438V57.0625H46.125V59.25Z" fill="#FFC325"/>
<path d="M65.8125 12.2187C65.8136 10.2881 65.3501 8.38564 64.4612 6.6719C63.5723 4.95815 62.284 3.48349 60.7051 2.37246C59.1263 1.26143 57.3032 0.546665 55.39 0.288522C53.4767 0.0303788 51.5295 0.236444 49.7126 0.889313C47.8958 1.54218 46.2627 2.62268 44.9514 4.03956C43.64 5.45643 42.6889 7.16807 42.1784 9.02992C41.6678 10.8918 41.6128 12.8491 42.0179 14.7367C42.4231 16.6243 43.2766 18.3867 44.5063 19.875H41.75V1.28123C41.75 0.991147 41.6348 0.712947 41.4296 0.50783C41.2245 0.302712 40.9463 0.187478 40.6562 0.187478H12.2188C11.9287 0.187478 11.6505 0.302712 11.4454 0.50783C11.2402 0.712947 11.125 0.991147 11.125 1.28123V4.56248H7.84375C7.55367 4.56248 7.27547 4.67771 7.07035 4.88283C6.86523 5.08795 6.75 5.36615 6.75 5.65623V8.93748H5.65625C5.36617 8.93748 5.08797 9.05271 4.88285 9.25783C4.67773 9.46295 4.5625 9.74115 4.5625 10.0312V19.875H3.46875C2.59931 19.8776 1.76622 20.2241 1.15142 20.8389C0.536633 21.4537 0.190097 22.2868 0.1875 23.1562V64.7187C0.1875 65.0088 0.302734 65.287 0.507852 65.4921C0.71297 65.6972 0.991169 65.8125 1.28125 65.8125H49.4062C50.2757 65.8099 51.1088 65.4633 51.7236 64.8486C52.3384 64.2338 52.6849 63.4007 52.6875 62.5312H53.7812C55.2317 62.5312 56.6227 61.9551 57.6482 60.9295C58.6738 59.9039 59.25 58.5129 59.25 57.0625V25.3437C59.2443 24.5889 59.0804 23.8437 58.7688 23.1562C60.8665 22.1984 62.6452 20.6587 63.8938 18.7199C65.1424 16.7812 65.8083 14.5248 65.8125 12.2187ZM4.5625 63.625H2.375V28.625H4.5625V63.625ZM4.5625 26.4375H2.375V23.1562C2.375 22.8661 2.49023 22.5879 2.69535 22.3828C2.90047 22.1777 3.17867 22.0625 3.46875 22.0625H4.5625V26.4375ZM13.3125 2.37498H39.5625V26.4375H37.375V5.65623C37.375 5.36615 37.2598 5.08795 37.0546 4.88283C36.8495 4.67771 36.5713 4.56248 36.2812 4.56248H13.3125V2.37498ZM8.9375 6.74998H35.1875V26.4375H33V10.0312C33 9.74115 32.8848 9.46295 32.6796 9.25783C32.4745 9.05271 32.1963 8.93748 31.9062 8.93748H8.9375V6.74998ZM6.75 11.125H30.8125V26.4375H6.75V11.125ZM8.9375 63.625H6.75V28.625H8.9375V63.625ZM50.5 62.5312C50.5 62.8213 50.3848 63.0995 50.1796 63.3046C49.9745 63.5097 49.6963 63.625 49.4062 63.625H11.125V28.625H49.4062C49.6963 28.625 49.9745 28.7402 50.1796 28.9453C50.3848 29.1504 50.5 29.4286 50.5 29.7187V39.5625H31.9062C31.0368 39.5651 30.2037 39.9116 29.5889 40.5264C28.9741 41.1412 28.6276 41.9743 28.625 42.8437V49.4062C28.6276 50.2757 28.9741 51.1088 29.5889 51.7236C30.2037 52.3383 31.0368 52.6849 31.9062 52.6875H50.5V62.5312ZM57.0625 57.0625C57.0599 57.9319 56.7134 58.765 56.0986 59.3798C55.4838 59.9946 54.6507 60.3411 53.7812 60.3437H52.6875V52.6875H57.0625V57.0625ZM57.0625 50.5H31.9062C31.6162 50.5 31.338 50.3847 31.1329 50.1796C30.9277 49.9745 30.8125 49.6963 30.8125 49.4062V42.8437C30.8125 42.5536 30.9277 42.2754 31.1329 42.0703C31.338 41.8652 31.6162 41.75 31.9062 41.75H57.0625V50.5ZM57.0625 39.5625H52.6875V29.7187C52.6849 28.8493 52.3384 28.0162 51.7236 27.4014C51.1088 26.7866 50.2757 26.4401 49.4062 26.4375H41.75V22.0625H46.8906C48.9044 23.49 51.3129 24.2546 53.7812 24.25C54.7661 24.2443 55.7467 24.1194 56.7016 23.8781C56.9361 24.3312 57.0598 24.8335 57.0625 25.3437V39.5625ZM53.7812 22.0625C51.8343 22.0625 49.9311 21.4852 48.3124 20.4035C46.6936 19.3219 45.4319 17.7845 44.6868 15.9858C43.9418 14.1871 43.7468 12.2078 44.1266 10.2983C44.5065 8.38881 45.444 6.63482 46.8207 5.25814C48.1973 3.88147 49.9513 2.94395 51.8608 2.56412C53.7703 2.1843 55.7496 2.37924 57.5483 3.12429C59.347 3.86934 60.8844 5.13104 61.966 6.74983C63.0477 8.36863 63.625 10.2718 63.625 12.2187C63.6209 14.8282 62.5825 17.3297 60.7374 19.1748C58.8922 21.02 56.3907 22.0584 53.7812 22.0625Z" fill="#FFC325"/>
<path d="M53.7812 6.75C54.3614 6.75 54.9178 6.98047 55.328 7.3907C55.7383 7.80094 55.9688 8.35734 55.9688 8.9375H58.1562C58.1526 7.97039 57.8287 7.03174 57.235 6.26828C56.6413 5.50482 55.8114 4.95959 54.875 4.71781V3.46875H52.6875V4.71781C51.6576 4.98289 50.7598 5.61474 50.1627 6.49476C49.5656 7.37479 49.3102 8.44249 49.4445 9.49745C49.5787 10.5524 50.0934 11.5221 50.8919 12.2245C51.6904 12.927 52.7178 13.3138 53.7812 13.3125C54.2139 13.3125 54.6368 13.4408 54.9966 13.6812C55.3563 13.9215 55.6367 14.2632 55.8022 14.6629C55.9678 15.0626 56.0111 15.5024 55.9267 15.9268C55.8423 16.3511 55.634 16.7409 55.328 17.0468C55.0221 17.3527 54.6323 17.5611 54.208 17.6455C53.7837 17.7299 53.3438 17.6866 52.9441 17.521C52.5444 17.3554 52.2028 17.075 51.9624 16.7153C51.722 16.3556 51.5938 15.9326 51.5938 15.5H49.4062C49.4099 16.4671 49.7338 17.4058 50.3275 18.1692C50.9212 18.9327 51.7511 19.4779 52.6875 19.7197V20.9688H54.875V19.7197C55.9049 19.4546 56.8027 18.8228 57.3998 17.9427C57.9969 17.0627 58.2523 15.995 58.118 14.94C57.9838 13.8851 57.4691 12.9154 56.6706 12.213C55.8721 11.5105 54.8447 11.1237 53.7812 11.125C53.2011 11.125 52.6447 10.8945 52.2345 10.4843C51.8242 10.0741 51.5938 9.51766 51.5938 8.9375C51.5938 8.35734 51.8242 7.80094 52.2345 7.3907C52.6447 6.98047 53.2011 6.75 53.7812 6.75Z" fill="#FFC325"/>
<path d="M11.125 15.5H14.4062V13.3125H10.0312C9.74117 13.3125 9.46297 13.4277 9.25785 13.6329C9.05273 13.838 8.9375 14.1162 8.9375 14.4063V18.7813H11.125V15.5Z" fill="#FFC325"/>
<path d="M26.4375 18.7813H28.625V14.4063C28.625 14.1162 28.5098 13.838 28.3046 13.6329C28.0995 13.4277 27.8213 13.3125 27.5312 13.3125H23.1562V15.5H26.4375V18.7813Z" fill="#FFC325"/>
<path d="M33 45.0312H35.1875V47.2188H33V45.0312Z" fill="#FFC325"/>
<path d="M39.5625 30.8125H41.75V33H39.5625V30.8125Z" fill="#FFC325"/>
<path d="M35.1875 30.8125H37.375V33H35.1875V30.8125Z" fill="#FFC325"/>
<path d="M30.8125 30.8125H33V33H30.8125V30.8125Z" fill="#FFC325"/>
<path d="M26.4375 30.8125H28.625V33H26.4375V30.8125Z" fill="#FFC325"/>
<path d="M22.0625 30.8125H24.25V33H22.0625V30.8125Z" fill="#FFC325"/>
<path d="M17.6875 30.8125H19.875V33H17.6875V30.8125Z" fill="#FFC325"/>
<path d="M13.3125 30.8125H15.5V33H13.3125V30.8125Z" fill="#FFC325"/>
<path d="M39.5625 59.25H41.75V61.4375H39.5625V59.25Z" fill="#FFC325"/>
<path d="M35.1875 59.25H37.375V61.4375H35.1875V59.25Z" fill="#FFC325"/>
<path d="M30.8125 59.25H33V61.4375H30.8125V59.25Z" fill="#FFC325"/>
<path d="M26.4375 59.25H28.625V61.4375H26.4375V59.25Z" fill="#FFC325"/>
<path d="M22.0625 59.25H24.25V61.4375H22.0625V59.25Z" fill="#FFC325"/>
<path d="M17.6875 59.25H19.875V61.4375H17.6875V59.25Z" fill="#FFC325"/>
<path d="M13.3125 59.25H15.5V61.4375H13.3125V59.25Z" fill="#FFC325"/>
</svg>
