<svg width="18" height="18" viewBox="0 0 18 18" fill="none" xmlns="http://www.w3.org/2000/svg">
<path d="M8.54932 0.00286334C7.10482 0.0203008 3.99926 0.257676 2.26226 1.85124C0.970195 3.13149 0.51907 5.0243 0.466195 7.36486C0.42232 9.69699 0.369445 14.0766 4.59101 15.2691V17.0854C4.59101 17.0854 4.56457 17.8122 5.04494 17.9612C5.63669 18.1486 5.97363 17.5894 6.53613 16.9887L7.58519 15.8024C10.4736 16.0426 12.6859 15.4891 12.9408 15.4069C13.5269 15.2196 16.8282 14.7977 17.3676 10.4176C17.9211 5.89393 17.0982 3.04374 15.6126 1.75449H15.6036C15.1553 1.34161 13.3536 0.0287383 9.32838 0.0141133C9.32838 0.0141133 9.02969 -0.00613666 8.54932 0.00230084V0.00286334ZM8.59882 1.27468C9.00888 1.27186 9.25807 1.2893 9.25807 1.2893C12.6651 1.2983 14.2913 2.32374 14.6749 2.66911C15.9259 3.74124 16.5706 6.31074 16.0986 10.0874C15.6503 13.7492 12.9728 13.981 12.4773 14.1391C12.2663 14.2066 10.3178 14.6869 7.86307 14.5289C7.86307 14.5289 6.03494 16.735 5.46344 17.3031C5.37288 17.4027 5.26713 17.4319 5.19963 17.4173C5.10288 17.3937 5.07363 17.2739 5.07926 17.1096L5.09669 14.0952C1.51638 13.1052 1.72732 9.36961 1.76557 7.4183C1.80944 5.46699 2.17563 3.87061 3.26576 2.78949C4.73332 1.46255 7.37032 1.28368 8.5977 1.27468H8.59882ZM8.86882 3.22543C8.83935 3.22513 8.81012 3.23067 8.7828 3.24172C8.75548 3.25278 8.73063 3.26913 8.70966 3.28983C8.68869 3.31054 8.67203 3.33519 8.66063 3.36237C8.64923 3.38954 8.64333 3.41871 8.64326 3.44818C8.64326 3.57418 8.74563 3.67374 8.86882 3.67374C9.42654 3.66313 9.98084 3.76304 10.4998 3.96772C11.0187 4.17239 11.4919 4.47776 11.8923 4.86624C12.7096 5.65993 13.1078 6.72643 13.123 8.12086C13.123 8.24405 13.2226 8.34643 13.3486 8.34643V8.33743C13.408 8.33758 13.465 8.31425 13.5072 8.27252C13.5495 8.23079 13.5735 8.17406 13.5741 8.11468C13.6014 7.45832 13.495 6.80327 13.2613 6.18933C13.0276 5.57539 12.6714 5.01539 12.2146 4.54336C11.3241 3.67318 10.1958 3.22486 8.86882 3.22486V3.22543ZM5.90388 3.74124C5.74467 3.71797 5.58228 3.74993 5.44376 3.8318H5.43194C5.11034 4.02032 4.82063 4.25858 4.57357 4.53774C4.36826 4.77511 4.25688 5.0153 4.22763 5.24649C4.21019 5.3843 4.22201 5.52211 4.26307 5.65374L4.27769 5.66274C4.50888 6.34224 4.81095 6.99586 5.17994 7.61124C5.65527 8.47578 6.24023 9.27532 6.92032 9.99005L6.94057 10.0193L6.97263 10.0429L6.99288 10.0666L7.01651 10.0868C7.73382 10.7689 8.53531 11.3566 9.40151 11.8356C10.3915 12.3745 10.9923 12.6293 11.3528 12.7351V12.7407C11.4586 12.7727 11.5548 12.7874 11.6515 12.7874C11.9588 12.7648 12.2497 12.6401 12.4778 12.433C12.7557 12.1859 12.9913 11.895 13.1753 11.5718V11.5662C13.348 11.2411 13.2895 10.9334 13.0403 10.7252C12.5413 10.289 12.0016 9.90156 11.4288 9.56818C11.0451 9.36005 10.6553 9.48605 10.4973 9.69699L10.1603 10.1217C9.98763 10.3326 9.67376 10.3034 9.67376 10.3034L9.66476 10.309C7.32419 9.71105 6.69982 7.34124 6.69982 7.34124C6.69982 7.34124 6.67057 7.01893 6.88713 6.85468L7.30901 6.51493C7.51094 6.35068 7.65157 5.96143 7.43501 5.57724C7.10392 5.00357 6.71732 4.4638 6.28076 3.96568C6.18532 3.84824 6.05142 3.76834 5.90276 3.74011L5.90388 3.74124ZM9.25807 4.40949C8.95938 4.40949 8.95938 4.86061 9.26088 4.86061C9.63229 4.86664 9.99887 4.9458 10.3397 5.09356C10.6805 5.24133 10.9888 5.45481 11.2471 5.7218C11.4827 5.98168 11.6637 6.2862 11.7794 6.61732C11.8952 6.94845 11.9433 7.29943 11.9209 7.64949C11.922 7.70873 11.9462 7.76522 11.9883 7.80685C12.0305 7.84848 12.0873 7.87195 12.1465 7.87224L12.1555 7.88405C12.2152 7.88361 12.2723 7.8597 12.3145 7.8175C12.3567 7.77529 12.3806 7.71817 12.3811 7.65849C12.4013 6.76468 12.1234 6.01486 11.5784 5.41411C11.0305 4.81336 10.2661 4.47643 9.29013 4.40949H9.25807ZM9.62763 5.62224C9.31994 5.61324 9.30813 6.07336 9.61301 6.08236C10.3544 6.12061 10.7144 6.49524 10.7616 7.26586C10.7627 7.32436 10.7865 7.38013 10.8282 7.42123C10.8698 7.46234 10.9259 7.48552 10.9844 7.4858H10.9934C11.0235 7.48451 11.053 7.47724 11.0802 7.46442C11.1075 7.4516 11.1319 7.43348 11.152 7.41112C11.1722 7.38876 11.1877 7.36261 11.1976 7.33419C11.2076 7.30578 11.2118 7.27566 11.2099 7.24561C11.1571 6.24099 10.6092 5.67511 9.63663 5.6228H9.62763V5.62224Z" fill="#444444"/>
</svg>
