<svg width="26" height="25" viewBox="0 0 26 25" fill="none" xmlns="http://www.w3.org/2000/svg">
<path d="M23.5796 13.4613L25.0043 5.62574C25.0227 5.52442 25.0186 5.42029 24.9924 5.32071C24.9661 5.22113 24.9183 5.12854 24.8523 5.04947C24.7863 4.97041 24.7038 4.9068 24.6105 4.86315C24.5172 4.81951 24.4155 4.79688 24.3125 4.79688H5.21187L4.60449 1.45656C4.53592 1.07847 4.33675 0.736463 4.04174 0.490241C3.74673 0.24402 3.37461 0.109222 2.99035 0.109375H0.875C0.68852 0.109375 0.509677 0.183454 0.377816 0.315316C0.245954 0.447177 0.171875 0.62602 0.171875 0.8125C0.171875 0.99898 0.245954 1.17782 0.377816 1.30968C0.509677 1.44155 0.68852 1.51563 0.875 1.51563H2.99023C3.04516 1.51554 3.09836 1.53477 3.14054 1.56995C3.18272 1.60512 3.21119 1.654 3.22098 1.70805L6.46238 19.5367C6.00406 19.9061 5.66251 20.4003 5.47902 20.9596C5.29554 21.5189 5.27796 22.1193 5.42842 22.6884C5.57888 23.2575 5.89093 23.7708 6.32687 24.1663C6.76281 24.5619 7.30397 24.8227 7.88495 24.9172C8.46593 25.0118 9.06187 24.9361 9.60075 24.6992C10.1396 24.4624 10.5984 24.0745 10.9215 23.5825C11.2447 23.0905 11.4185 22.5155 11.4218 21.9269C11.4252 21.3383 11.258 20.7613 10.9405 20.2656H17.997C17.633 20.8356 17.469 21.5106 17.531 22.1841C17.593 22.8575 17.8774 23.4912 18.3393 23.9852C18.8013 24.4792 19.4145 24.8054 20.0824 24.9123C20.7502 25.0192 21.4346 24.9007 22.0277 24.5756C22.6208 24.2505 23.0888 23.7373 23.3579 23.1168C23.627 22.4963 23.6819 21.8039 23.514 21.1488C23.3461 20.4936 22.9648 19.913 22.4304 19.4985C21.896 19.0839 21.2388 18.8591 20.5625 18.8594H7.76867L7.17219 15.5781H21.0432C21.647 15.5784 22.2317 15.3666 22.6953 14.9797C23.1589 14.5928 23.4719 14.0554 23.5796 13.4613ZM10.0156 21.9062C10.0156 22.2307 9.9194 22.5479 9.73913 22.8177C9.55886 23.0875 9.30262 23.2978 9.00284 23.422C8.70305 23.5462 8.37318 23.5787 8.05493 23.5154C7.73668 23.452 7.44435 23.2958 7.2149 23.0663C6.98546 22.8369 6.8292 22.5446 6.7659 22.2263C6.7026 21.9081 6.73509 21.5782 6.85926 21.2784C6.98344 20.9786 7.19372 20.7224 7.46352 20.5421C7.73332 20.3618 8.05052 20.2656 8.375 20.2656C8.80997 20.2661 9.22698 20.4391 9.53455 20.7467C9.84212 21.0543 10.0151 21.4713 10.0156 21.9062ZM22.2031 21.9062C22.2031 22.2307 22.1069 22.5479 21.9266 22.8177C21.7464 23.0875 21.4901 23.2978 21.1903 23.422C20.8906 23.5462 20.5607 23.5787 20.2424 23.5154C19.9242 23.452 19.6318 23.2958 19.4024 23.0663C19.173 22.8369 19.0167 22.5446 18.9534 22.2263C18.8901 21.9081 18.9226 21.5782 19.0468 21.2784C19.1709 20.9786 19.3812 20.7224 19.651 20.5421C19.9208 20.3618 20.238 20.2656 20.5625 20.2656C20.9975 20.2661 21.4145 20.4391 21.722 20.7467C22.0296 21.0543 22.2026 21.4713 22.2031 21.9062ZM5.46758 6.20312H23.4699L22.1961 13.2098C22.1471 13.4798 22.0048 13.7241 21.7941 13.8999C21.5834 14.0757 21.3176 14.172 21.0432 14.1719H6.91637L5.46758 6.20312Z" fill="#211F1F"/>
</svg>
