<svg width="19" height="17" viewBox="0 0 19 17" fill="none" xmlns="http://www.w3.org/2000/svg">
<path d="M9.42914 16.6361C9.30347 16.6357 9.18147 16.5937 9.08219 16.5166C5.91975 14.0595 3.74131 11.9436 2.21697 9.85618C0.271736 7.18859 -0.171915 4.72575 0.897397 2.53594C1.65957 0.971786 3.84938 -0.307976 6.40891 0.43713C7.62925 0.789627 8.69398 1.54557 9.42914 2.58144C10.1643 1.54557 11.229 0.789627 12.4494 0.43713C15.0032 -0.296601 17.1987 0.971786 17.9609 2.53594C19.0302 4.72575 18.5866 7.18859 16.6413 9.85618C15.117 11.9436 12.9385 14.0595 9.7761 16.5166C9.67682 16.5937 9.55482 16.6357 9.42914 16.6361ZM4.95282 1.36425C4.3438 1.34054 3.73982 1.48315 3.20571 1.77675C2.67161 2.07036 2.22755 2.50388 1.92121 3.03078C1.03959 4.83951 1.43774 6.853 3.1384 9.17933C4.94575 11.5105 7.0621 13.5848 9.42914 15.3449C11.7958 13.5865 13.9121 11.5142 15.7199 9.18501C17.4262 6.853 17.8187 4.83951 16.9371 3.03647C16.3683 1.8989 14.6619 0.994537 12.7622 1.52919C12.1531 1.70921 11.5884 2.01477 11.1044 2.42621C10.6205 2.83764 10.2281 3.34583 9.95242 3.91808C9.90957 4.0224 9.83667 4.11163 9.74299 4.17442C9.64931 4.23722 9.53908 4.27075 9.4263 4.27075C9.31352 4.27075 9.20329 4.23722 9.10961 4.17442C9.01593 4.11163 8.94303 4.0224 8.90018 3.91808C8.62658 3.3444 8.23483 2.83502 7.7506 2.42333C7.26638 2.01164 6.70061 1.70694 6.09039 1.52919C5.72066 1.42181 5.33782 1.3663 4.95282 1.36425Z" fill="#211F1F"/>
</svg>
