<svg width="16" height="22" viewBox="0 0 16 22" fill="none" xmlns="http://www.w3.org/2000/svg">
<path d="M7.99966 0C3.70326 0 0.208008 3.49525 0.208008 7.79165C0.208008 11.9478 7.33141 21.417 7.63485 21.8185C7.7201 21.9331 7.8567 22 7.9997 22C8.1427 22 8.2793 21.9331 8.36455 21.8185C8.66795 21.417 15.7914 11.9478 15.7914 7.79165C15.7913 3.49525 12.2961 0 7.99966 0ZM7.99966 11.9167C5.72541 11.9167 3.87466 10.0659 3.87466 7.79165C3.87466 5.5174 5.72541 3.66665 7.99966 3.66665C10.2739 3.66665 12.1247 5.5174 12.1247 7.79165C12.1247 10.0659 10.2739 11.9167 7.99966 11.9167Z" fill="#326FE1"/>
</svg>
