<svg width="17" height="19" viewBox="0 0 17 19" fill="none" xmlns="http://www.w3.org/2000/svg">
<path d="M6.9602 15.6C3.2162 15.6 0.200195 12.12 0.200195 7.8C0.200195 3.48 3.2162 0 6.9602 0C10.7042 0 13.7202 3.48 13.7202 7.8C13.7202 12.12 10.7042 15.6 6.9602 15.6ZM6.9602 1.2C3.7882 1.2 1.2402 4.14 1.2402 7.8C1.2402 11.46 3.7882 14.4 6.9602 14.4C10.1322 14.4 12.6802 11.46 12.6802 7.8C12.6802 4.14 10.1322 1.2 6.9602 1.2Z" fill="#211F1F"/>
<path d="M11.9941 12.7603L16.6637 18.1483L15.9284 18.9967L11.2588 13.6087L11.9941 12.7603Z" fill="#211F1F"/>
</svg>
