<svg width="32" height="32" viewBox="0 0 32 32" fill="none" xmlns="http://www.w3.org/2000/svg">
<path d="M26.6694 25.6045H31.2476C31.8288 25.6045 31.9975 25.772 31.9975 26.3419C31.9863 27.1843 32.0287 28.0355 31.9288 28.8679C31.7263 30.5602 30.2052 31.905 28.4954 31.9925C28.3817 31.9925 28.2667 32 28.153 32C22.1853 32 16.2173 32 10.2488 32C8.34152 32 6.82545 30.7801 6.47424 28.9616C6.41826 28.6314 6.39316 28.2966 6.39925 27.9617C6.39925 22.7023 6.39925 17.4425 6.39925 12.1823V11.7374H0.788657C0.163731 11.7374 0 11.5749 0 10.9375C0 8.59524 0 6.25218 0 3.90829C0 1.60481 1.60482 0.00124985 3.90955 0C10.2113 0 16.5127 0 22.8136 0C24.7109 0 26.2169 1.19736 26.5844 3.0059C26.6453 3.344 26.6725 3.68731 26.6656 4.03078C26.6706 11.0716 26.6706 18.1125 26.6656 25.1533L26.6694 25.6045ZM6.32676 1.06987C7.45163 2.1435 7.47537 3.45209 7.47287 4.79569C7.45787 12.4498 7.45787 20.1043 7.47287 27.7592C7.47287 28.0192 7.48412 28.2792 7.50412 28.5392C7.6291 30.1302 9.27766 31.2776 10.8125 30.8351C12.0623 30.4752 12.7948 29.484 12.8123 28.1417C12.8185 27.4968 12.8123 26.8506 12.8123 26.2044C12.8123 25.817 13.001 25.6307 13.3809 25.607C13.4959 25.5995 13.6109 25.607 13.7246 25.607C17.5575 25.607 21.3904 25.607 25.2233 25.607C25.5083 25.607 25.6157 25.5583 25.6157 25.2395C25.6058 18.1479 25.602 11.0558 25.6045 3.96328C25.6101 3.67252 25.5781 3.38225 25.5095 3.09964C25.1608 1.80979 24.1622 1.06863 22.7873 1.06863C17.4238 1.06863 12.0603 1.06863 6.69672 1.06863L6.32676 1.06987ZM30.9714 26.6919H13.8584C13.9034 28.2054 14.0021 29.7165 12.7485 30.9064C12.856 30.9201 12.8935 30.9301 12.9322 30.9301C18.0341 30.9301 23.136 30.9389 28.2392 30.9239C29.5253 30.9239 30.5602 30.1302 30.8251 28.8941C30.9751 28.1979 30.9339 27.4543 30.9714 26.6969V26.6919ZM1.06238 10.6525H6.37801C6.37801 10.54 6.39175 10.4488 6.39175 10.3563C6.39175 8.06656 6.41925 5.77433 6.35675 3.48209C6.31426 1.87478 4.59071 0.718668 3.04714 1.16986C1.79729 1.53357 1.06738 2.5247 1.06363 3.86955C1.06363 5.9418 1.06363 8.01406 1.06363 10.0851L1.06238 10.6525Z" fill="#685443"/>
<path d="M11.1249 21.6084L13.1246 18.9475C13.3746 18.6063 13.6333 18.2638 13.892 17.9238C14.1508 17.5839 14.4632 17.5201 14.7219 17.7176C14.9807 17.9151 15.0019 18.2176 14.7582 18.5438C13.7375 19.9111 12.7134 21.2759 11.686 22.6383C11.3998 23.0132 11.0849 23.0332 10.7387 22.6983C10.4312 22.4016 10.1296 22.1 9.83376 21.7934C9.56129 21.5134 9.54129 21.191 9.76876 20.966C9.99624 20.741 10.305 20.7648 10.5937 21.0472C10.7711 21.221 10.9361 21.4072 11.1249 21.6084Z" fill="#685443"/>
<path d="M11.1075 15.2325L13.2534 12.3728C13.4772 12.0741 13.6959 11.7704 13.9296 11.4779C14.1633 11.1855 14.4658 11.1267 14.7158 11.3167C14.9657 11.5067 15.0032 11.8167 14.777 12.1191C13.7463 13.5023 12.711 14.8821 11.6711 16.2586C11.4074 16.6073 11.0812 16.6223 10.765 16.3211C10.4488 16.0199 10.1263 15.6962 9.81635 15.3725C9.56638 15.1063 9.54888 14.7888 9.77011 14.5701C9.99133 14.3514 10.3088 14.3664 10.5725 14.6263C10.7562 14.8076 10.9162 15.0125 11.1075 15.2325Z" fill="#685443"/>
<path d="M19.7503 7.46707C20.7277 7.46707 21.7063 7.46707 22.6837 7.46707C22.8186 7.46104 22.9537 7.47408 23.0849 7.50581C23.198 7.53282 23.2973 7.60016 23.3643 7.69519C23.4312 7.79023 23.4612 7.90643 23.4486 8.022C23.4522 8.13295 23.4165 8.24161 23.348 8.32892C23.2794 8.41622 23.1823 8.4766 23.0736 8.49945C22.942 8.52844 22.8072 8.54062 22.6724 8.53569C20.7068 8.53569 18.7408 8.53569 16.7744 8.53569C16.7219 8.53569 16.6706 8.53569 16.6182 8.53569C16.2357 8.5132 16.007 8.31947 15.9932 8.01075C15.9795 7.70204 16.2232 7.47082 16.6182 7.46707C17.6705 7.46207 18.7104 7.46707 19.7503 7.46707Z" fill="#685443"/>
<path d="M11.1262 8.80982L13.7509 5.31023C13.8337 5.1903 13.9248 5.07629 14.0234 4.96903C14.113 4.87636 14.2335 4.8198 14.362 4.81009C14.4906 4.80038 14.6182 4.83818 14.7207 4.91634C14.8232 4.99449 14.8935 5.10755 14.9181 5.23407C14.9428 5.36059 14.9202 5.49176 14.8546 5.6027C14.8065 5.68293 14.7531 5.75976 14.6946 5.83268L11.7749 9.72472C11.38 10.2509 11.11 10.2684 10.6401 9.79971C10.3676 9.52724 10.0914 9.25852 9.82515 8.9823C9.55893 8.70609 9.54643 8.40112 9.7614 8.17865C9.97638 7.95618 10.2951 7.95618 10.5851 8.23864C10.7625 8.41112 10.9263 8.5986 11.1262 8.80982Z" fill="#685443"/>
<path d="M19.7327 13.8732C20.7625 13.8732 21.7924 13.8732 22.8223 13.8732C23.0723 13.8732 23.276 13.9319 23.396 14.1669C23.4335 14.2387 23.4537 14.3183 23.4549 14.3993C23.4561 14.4804 23.4383 14.5605 23.403 14.6334C23.3676 14.7063 23.3156 14.7699 23.2513 14.8192C23.1869 14.8684 23.1119 14.9018 23.0323 14.9168C22.9201 14.9369 22.8061 14.9444 22.6923 14.9393H16.763C16.7118 14.9393 16.6593 14.9393 16.6068 14.9393C16.2406 14.9231 15.9994 14.7081 16.0019 14.4019C16.0044 14.0957 16.2431 13.8769 16.613 13.8757C17.6529 13.8694 18.6928 13.8732 19.7327 13.8732Z" fill="#685443"/>
<path d="M19.7302 21.3324H16.7656C16.6515 21.3371 16.5371 21.3304 16.4244 21.3124C16.3093 21.2954 16.2041 21.2378 16.1277 21.15C16.0514 21.0622 16.009 20.9501 16.0082 20.8337C15.994 20.718 16.0227 20.6012 16.0888 20.5052C16.1549 20.4092 16.2538 20.3407 16.3669 20.3125C16.4968 20.2777 16.6311 20.2621 16.7656 20.2663C18.742 20.2663 20.7184 20.2663 22.6949 20.2663C22.8209 20.2633 22.9469 20.2759 23.0698 20.3038C23.1848 20.335 23.2855 20.4049 23.355 20.5016C23.4245 20.5983 23.4586 20.7161 23.4516 20.835C23.4446 20.9539 23.3968 21.0668 23.3164 21.1546C23.2359 21.2425 23.1277 21.3 23.0098 21.3174C22.8967 21.3312 22.7826 21.3362 22.6686 21.3324H19.7302Z" fill="#685443"/>
</svg>
