<svg width="33" height="43" viewBox="0 0 33 43" fill="none" xmlns="http://www.w3.org/2000/svg">
<g clip-path="url(#clip0_193_2637)">
<path d="M28.4477 18.0573H31.0264C32.2297 18.0573 32.9982 18.8047 32.9999 19.9653C32.9999 27.0049 32.9999 34.0439 32.9999 41.0824C32.9999 42.248 32.228 42.9987 31.035 42.9987C21.3529 42.9987 11.6686 42.9987 1.98203 42.9987C0.759742 42.9987 -0.00354004 42.2547 -0.00354004 41.0605C-0.00354004 34.0355 -0.00354004 27.0105 -0.00354004 19.9855C-0.00354004 18.7947 0.761459 18.0573 1.99062 18.0573H23.5311C23.5414 17.9549 23.5534 17.8894 23.5534 17.8239C23.5534 15.6959 23.5809 13.5696 23.5431 11.4416C23.4812 8.03542 20.5226 5.02566 17.1291 4.77876C13.1476 4.4882 9.98104 7.28802 9.53751 10.6119C9.39655 11.6733 9.46187 12.76 9.43608 13.8366C9.41029 15.0123 8.62639 15.9881 7.51756 16.2115C6.08898 16.5004 4.67587 15.585 4.59508 14.1557C4.46614 12.0059 4.48161 9.85606 5.23458 7.77341C7.0448 2.76162 12.2554 -0.491686 17.6465 0.065927C23.2526 0.643694 27.5692 4.71158 28.3291 10.1601C28.4128 10.8972 28.4484 11.6389 28.4357 12.3804C28.4477 14.2498 28.4477 16.1242 28.4477 18.0573ZM16.5033 41.6551H30.8545C31.518 41.6551 31.6229 41.551 31.6229 40.8993C31.6229 33.9862 31.6229 27.0726 31.6229 20.1585C31.6229 19.5051 31.5198 19.4027 30.8562 19.4027H2.14535C1.48005 19.4027 1.37691 19.5034 1.37691 20.1568C1.37691 27.0721 1.37691 33.9862 1.37691 40.8993C1.37691 41.5526 1.48005 41.6551 2.14363 41.6551H16.5033ZM27.0724 18.0372V17.6072C27.0724 15.6757 27.0845 13.7442 27.0638 11.8127C27.0559 11.1972 27.0013 10.583 26.9005 9.97531C26.524 7.75575 25.4149 5.71737 23.7422 4.17098C22.0696 2.6246 19.9252 1.65505 17.6361 1.41017C15.347 1.16529 13.0387 1.65851 11.0631 2.81463C9.08763 3.97076 7.55331 5.72635 6.69411 7.81372C5.85175 9.81911 5.89301 11.9135 5.95318 14.013C5.96201 14.2122 6.03661 14.4033 6.16582 14.5577C6.29503 14.7121 6.47192 14.8215 6.67004 14.8695C7.39722 15.103 8.04532 14.5991 8.06079 13.7812C8.09002 12.676 8.02814 11.5625 8.16567 10.4708C8.73813 5.88559 13.4846 2.61717 18.1141 3.56948C20.0334 3.94883 21.7598 4.96362 23.002 6.4425C24.2441 7.92137 24.9259 9.77372 24.9321 11.6868C24.9528 13.6468 24.9321 15.6069 24.9321 17.5652V18.0372H27.0724Z" fill="#C09780"/>
<path d="M14.3348 33.6742C14.3348 33.0595 14.3554 32.4431 14.3227 31.8267C14.3068 31.6171 14.2147 31.42 14.0632 31.2708C12.8254 30.1824 12.3681 28.8422 12.8478 27.2953C13.3274 25.7484 14.4396 24.8801 16.0728 24.6634C16.8738 24.5728 17.6836 24.7325 18.3858 25.1198C19.0881 25.5071 19.6465 26.1018 19.981 26.8187C20.3155 27.5355 20.4088 28.3375 20.2474 29.1094C20.086 29.8813 19.6784 30.5833 19.083 31.1146C18.9363 31.2286 18.8208 31.3763 18.7467 31.5445C18.6726 31.7127 18.6422 31.8962 18.6583 32.0787C18.6841 33.2392 18.6686 34.3998 18.6583 35.5604C18.6583 36.1953 18.428 36.4203 17.7816 36.4253C16.922 36.4253 16.0625 36.4253 15.2029 36.4253C14.5548 36.4253 14.3313 36.1969 14.3279 35.5604C14.3245 34.9238 14.3348 34.3041 14.3348 33.6742ZM17.2882 35.0616C17.2882 33.8254 17.3037 32.6245 17.2882 31.4253C17.2674 31.2109 17.3109 30.9953 17.4135 30.8047C17.5161 30.6141 17.6733 30.4568 17.8658 30.3521C18.3034 30.078 18.6372 29.6716 18.8166 29.195C18.996 28.7184 19.011 28.1976 18.8595 27.7118C18.714 27.2131 18.4064 26.7741 17.9831 26.4611C17.5599 26.1482 17.0439 25.9782 16.5131 25.9769C15.9823 25.9756 15.4655 26.1429 15.0406 26.4538C14.6157 26.7646 14.3058 27.2021 14.1577 27.7001C14.0044 28.1923 14.0206 28.7201 14.2039 29.2024C14.3871 29.6848 14.7272 30.0951 15.172 30.3706C15.3534 30.4668 15.5023 30.6125 15.6006 30.7899C15.6988 30.9674 15.7423 31.1688 15.7255 31.3699C15.7032 32.25 15.7255 33.1301 15.7255 34.0118V35.0616H17.2882Z" fill="#C09780"/>
</g>
<defs>
<clipPath id="clip0_193_2637">
<rect width="33" height="43" fill="white"/>
</clipPath>
</defs>
</svg>
