<svg width="39" height="33" viewBox="0 0 39 33" fill="none" xmlns="http://www.w3.org/2000/svg">
<g clip-path="url(#clip0_193_2631)">
<path d="M31.6466 26.0608V26.5003C31.6466 28.237 31.6466 29.9737 31.6466 31.7105C31.6466 32.1394 31.6331 32.5503 31.1787 32.7603C30.7243 32.9703 30.3973 32.6883 30.0794 32.4168C27.7087 30.4062 25.3386 28.393 22.969 26.3773C22.7314 26.1595 22.4183 26.0428 22.0961 26.0518C16.5995 26.0623 11.1013 26.0518 5.59871 26.0623C3.90697 26.0623 2.4672 25.5089 1.33788 24.2311C0.403521 23.1723 -0.0119158 21.9215 -0.00441695 20.5162C0.00158211 15.53 0.00158211 10.5443 -0.00441695 5.55904C-0.00441695 5.48405 -0.00441695 5.40906 -0.00441695 5.33407C0.0021958 4.11087 0.42827 2.92696 1.20265 1.98006C1.97704 1.03317 3.05285 0.380615 4.25042 0.131387C4.65332 0.046934 5.06408 0.00570601 5.47572 0.00840555C14.6233 0.00240648 23.7719 0.00240648 32.9214 0.00840555C35.5865 0.00840555 37.6967 1.68365 38.2741 4.25574C38.3605 4.65837 38.4022 5.06929 38.3986 5.48105C38.4056 10.5173 38.4056 15.553 38.3986 20.5882C38.3986 23.3508 36.5794 25.5224 33.8903 25.9874C33.4821 26.0409 33.0707 26.066 32.659 26.0623C32.3335 26.0773 32.0111 26.0608 31.6466 26.0608ZM30.0734 30.3637V29.8687C30.0734 28.393 30.0734 26.9187 30.0734 25.4444C30.0734 24.798 30.3733 24.5056 31.0107 24.4966C31.6226 24.4876 32.236 24.4966 32.8479 24.4966C35.1981 24.4861 36.8223 22.8588 36.8238 20.5057C36.8238 15.5185 36.8238 10.5323 36.8238 5.54704C36.8309 5.28507 36.8138 5.02301 36.7728 4.76417C36.4159 2.83997 34.8876 1.57866 32.9079 1.57866H5.54771C3.19908 1.57866 1.57184 3.20741 1.56884 5.56054C1.56884 7.83419 1.56884 10.1083 1.56884 12.383C1.56884 15.108 1.56884 17.8316 1.56884 20.5567C1.54592 21.4248 1.81823 22.275 2.34122 22.9683C3.15709 24.0422 4.26541 24.5011 5.59871 24.4996C11.2468 24.4936 16.8959 24.4911 22.5461 24.4921C22.9462 24.4764 23.3364 24.6192 23.6319 24.8895C24.3608 25.5344 25.1137 26.1538 25.8575 26.7852L30.0734 30.3637Z" fill="#C09780"/>
<path d="M19.1794 8.77725H6.99832C6.24844 8.77725 5.863 8.50428 5.8735 7.98237C5.884 7.46045 6.26044 7.20549 6.98482 7.20549C15.1306 7.20549 23.2758 7.20549 31.4205 7.20549C31.5949 7.20215 31.769 7.21926 31.9394 7.25648C32.1046 7.29519 32.2521 7.3879 32.3586 7.51994C32.4651 7.65197 32.5245 7.81577 32.5273 7.98537C32.527 8.16194 32.4667 8.33316 32.3563 8.47101C32.246 8.60887 32.0921 8.7052 31.9199 8.74425C31.7599 8.77079 31.5976 8.78085 31.4355 8.77425L19.1794 8.77725Z" fill="#C09780"/>
<path d="M19.1628 13.798H6.97717C6.80315 13.8044 6.62898 13.7903 6.45825 13.756C6.29261 13.7172 6.14473 13.624 6.03818 13.4914C5.93163 13.3587 5.87255 13.1942 5.87034 13.0241C5.8675 12.8541 5.9225 12.6882 6.02633 12.5536C6.13015 12.419 6.27663 12.3237 6.44175 12.2832C6.62384 12.2427 6.81019 12.2246 6.99667 12.2292C15.1304 12.2292 23.2631 12.2292 31.3949 12.2292C31.5813 12.2245 31.7677 12.2427 31.9498 12.2832C32.1149 12.3237 32.2614 12.419 32.3652 12.5536C32.469 12.6882 32.524 12.8541 32.5212 13.0241C32.519 13.1942 32.4599 13.3587 32.3533 13.4914C32.2468 13.624 32.0989 13.7172 31.9333 13.756C31.762 13.7903 31.5874 13.8044 31.4129 13.798H19.1628Z" fill="#C09780"/>
<path d="M19.197 17.2449C23.2823 17.2449 27.3672 17.2449 31.4516 17.2449C31.6381 17.2401 31.8243 17.2613 32.005 17.3079C32.1582 17.35 32.2925 17.4431 32.3858 17.5718C32.479 17.7005 32.5256 17.8571 32.5179 18.0158C32.53 18.1803 32.4841 18.3439 32.3882 18.4781C32.2923 18.6123 32.1525 18.7088 31.993 18.7507C31.8247 18.7953 31.6511 18.816 31.4771 18.8122C23.2943 18.8122 15.1116 18.8122 6.92889 18.8122C6.75499 18.8157 6.58143 18.7955 6.41297 18.7522C6.25298 18.7118 6.11222 18.6166 6.01521 18.4832C5.91819 18.3497 5.87108 18.1864 5.88206 18.0218C5.87274 17.8632 5.91794 17.7063 6.01016 17.577C6.10237 17.4477 6.23604 17.3538 6.38898 17.3109C6.56919 17.2618 6.75568 17.2396 6.94239 17.2449C11.0268 17.2439 15.1116 17.2439 19.197 17.2449Z" fill="#C09780"/>
</g>
<defs>
<clipPath id="clip0_193_2631">
<rect width="38.4" height="32.8389" fill="white"/>
</clipPath>
</defs>
</svg>
