<svg width="36" height="36" viewBox="0 0 36 36" fill="none" xmlns="http://www.w3.org/2000/svg">
<circle cx="17.9167" cy="17.9167" r="17.9167" fill="white"/>
<g clip-path="url(#clip0_193_2959)">
<path d="M26.7173 17.3083C26.7173 18.5638 26.7803 19.8248 26.7021 21.0761C26.5936 22.8004 25.8806 24.209 24.2605 25.0196C23.4774 25.4001 22.6166 25.5932 21.7461 25.5839C19.4983 25.5991 17.2505 25.5991 15.0027 25.5839C14.1873 25.5891 13.38 25.4205 12.6349 25.0891C11.1091 24.3935 10.3397 23.1433 10.0901 21.5329C10.0344 21.1484 10.0079 20.7603 10.0109 20.3718C10.0033 18.2752 9.98811 16.1775 10.0196 14.0777C10.0246 13.4537 10.1133 12.8333 10.2833 12.2329C10.8259 10.3881 12.1346 9.4114 13.9805 9.09995C14.4257 9.02743 14.8761 8.99114 15.3272 8.99143C17.4404 8.98202 19.5529 8.98202 21.6647 8.99143C22.4156 8.98459 23.1612 9.11781 23.8633 9.38426C25.5442 10.0354 26.3994 11.3376 26.6609 13.0739C26.7137 13.4587 26.7394 13.8467 26.7379 14.235C26.7488 15.2562 26.7379 16.2784 26.7379 17.2996L26.7173 17.3083ZM18.3679 24.0201V24.0484C18.5567 24.0484 18.7466 24.0484 18.9365 24.0484C20.0641 24.0245 21.1948 24.0419 22.318 23.9605C23.5974 23.8671 24.5372 23.216 24.955 21.9692C25.11 21.4887 25.1901 20.9873 25.1926 20.4824C25.2176 18.413 25.2057 16.3425 25.2002 14.273C25.2001 13.9662 25.1819 13.6597 25.146 13.355C24.9821 11.992 24.127 11.0186 22.7965 10.7093C22.4271 10.6261 22.0499 10.5817 21.6712 10.5769C20.3538 10.553 19.0364 10.54 17.719 10.5476C16.6175 10.5541 15.5139 10.5476 14.4178 10.6333C13.1514 10.731 12.2171 11.3734 11.8004 12.6105C11.6445 13.0813 11.5621 13.5732 11.5562 14.069C11.5302 16.1569 11.5432 18.2448 11.5475 20.3327C11.5433 20.6307 11.5625 20.9286 11.605 21.2236C11.7982 22.4293 12.3582 23.3788 13.5779 23.7706C14.06 23.9188 14.5603 23.9995 15.0646 24.0104C16.165 24.044 17.2664 24.0201 18.3679 24.0201Z" fill="url(#paint0_linear_193_2959)"/>
<path d="M13.9717 17.2747C13.9773 16.4046 14.2406 15.5556 14.7284 14.835C15.2163 14.1144 15.9067 13.5545 16.7125 13.226C17.5183 12.8976 18.4034 12.8153 19.256 12.9896C20.1086 13.1639 20.8903 13.5869 21.5026 14.2052C22.1149 14.8236 22.5302 15.6095 22.6961 16.4637C22.862 17.318 22.771 18.2022 22.4346 19.0048C22.0983 19.8073 21.5316 20.4922 20.8062 20.9729C20.0809 21.4536 19.2293 21.7085 18.3591 21.7056C17.7795 21.705 17.2056 21.5897 16.6707 21.3663C16.1359 21.1429 15.6505 20.8158 15.2426 20.4039C14.8347 19.992 14.5125 19.5035 14.2943 18.9664C14.0762 18.4293 13.9666 17.8544 13.9717 17.2747ZM21.2164 17.303C21.2169 16.741 21.0507 16.1915 20.7389 15.7239C20.4271 15.2564 19.9837 14.8918 19.4647 14.6762C18.9457 14.4606 18.3745 14.4037 17.8232 14.5127C17.2719 14.6216 16.7652 14.8916 16.3673 15.2884C15.9694 15.6853 15.6981 16.1912 15.5877 16.7422C15.4772 17.2932 15.5326 17.8646 15.7468 18.3842C15.961 18.9037 16.3245 19.3481 16.7912 19.6611C17.2579 19.9742 17.8069 20.1418 18.3689 20.1429C18.7425 20.144 19.1127 20.0714 19.4582 19.9292C19.8037 19.787 20.1177 19.5779 20.3823 19.3141C20.6468 19.0503 20.8567 18.7368 20.9998 18.3917C21.143 18.0466 21.2166 17.6766 21.2164 17.303Z" fill="url(#paint1_linear_193_2959)"/>
<path d="M22.8063 13.7849C22.5737 13.7849 22.3507 13.6925 22.1863 13.5281C22.0218 13.3637 21.9294 13.1406 21.9294 12.9081C21.9294 12.6755 22.0218 12.4525 22.1863 12.2881C22.3507 12.1236 22.5737 12.0312 22.8063 12.0312C23.0388 12.0312 23.2618 12.1236 23.4263 12.2881C23.5907 12.4525 23.6831 12.6755 23.6831 12.9081C23.6831 13.1406 23.5907 13.3637 23.4263 13.5281C23.2618 13.6925 23.0388 13.7849 22.8063 13.7849Z" fill="url(#paint2_linear_193_2959)"/>
</g>
<defs>
<linearGradient id="paint0_linear_193_2959" x1="14.9744" y1="8.35941" x2="20.6547" y2="25.1205" gradientUnits="userSpaceOnUse">
<stop stop-color="#4F4842"/>
<stop offset="0.848958" stop-color="#282728"/>
</linearGradient>
<linearGradient id="paint1_linear_193_2959" x1="16.5875" y1="12.5691" x2="19.6174" y2="21.4394" gradientUnits="userSpaceOnUse">
<stop stop-color="#4F4842"/>
<stop offset="0.848958" stop-color="#282728"/>
</linearGradient>
<linearGradient id="paint2_linear_193_2959" x1="22.4504" y1="11.9653" x2="23.0539" y2="13.7319" gradientUnits="userSpaceOnUse">
<stop stop-color="#4F4842"/>
<stop offset="0.848958" stop-color="#282728"/>
</linearGradient>
<clipPath id="clip0_193_2959">
<rect width="16.7433" height="16.5968" fill="white" transform="translate(10 9)"/>
</clipPath>
</defs>
</svg>
