<svg width="313" height="59" viewBox="0 0 313 59" fill="none" xmlns="http://www.w3.org/2000/svg">
<path d="M309.723 5.39965C309.76 5.40042 309.796 5.3938 309.83 5.38018C309.864 5.36656 309.895 5.34623 309.921 5.32041C309.946 5.29459 309.967 5.26382 309.98 5.22994C309.994 5.19606 310.001 5.15977 310 5.12326V4.6551C310.001 4.61833 309.994 4.58176 309.98 4.54758C309.967 4.51339 309.947 4.48226 309.921 4.456C309.895 4.42973 309.864 4.40886 309.831 4.39461C309.797 4.38037 309.76 4.37305 309.723 4.37306H288.289C288.215 4.37454 288.145 4.4049 288.093 4.45763C288.042 4.51037 288.013 4.58126 288.013 4.6551V29.7617C288.013 29.835 288.042 29.9053 288.094 29.9571C288.145 30.0089 288.216 30.0381 288.289 30.0381H309.723C309.76 30.0388 309.796 30.0322 309.83 30.0186C309.864 30.005 309.895 29.9847 309.921 29.9588C309.946 29.933 309.967 29.9022 309.98 29.8684C309.994 29.8345 310.001 29.7982 310 29.7617V29.2879C310.001 29.2514 309.994 29.2151 309.98 29.1812C309.967 29.1473 309.946 29.1165 309.921 29.0907C309.895 29.0649 309.864 29.0446 309.83 29.0309C309.796 29.0173 309.76 29.0107 309.723 29.0115H289.045V17.7301H302.419C302.492 17.7301 302.562 17.701 302.614 17.6492C302.666 17.5974 302.695 17.527 302.695 17.4537V16.9856C302.695 16.9118 302.666 16.8408 302.615 16.7881C302.563 16.7354 302.493 16.705 302.419 16.7036H289.045V5.42222L309.723 5.39965ZM262.618 5.39965H272.822V29.7617C272.822 29.7984 272.83 29.8349 272.844 29.8688C272.858 29.9027 272.879 29.9334 272.905 29.9591C272.932 29.9849 272.963 30.0051 272.997 30.0187C273.031 30.0322 273.068 30.0388 273.104 30.0381H273.572C273.609 30.0381 273.645 30.0309 273.678 30.017C273.712 30.0031 273.742 29.9828 273.768 29.9571C273.794 29.9314 273.814 29.901 273.828 29.8674C273.842 29.8339 273.849 29.798 273.849 29.7617V5.39965H284.053C284.089 5.39966 284.125 5.39247 284.158 5.37851C284.191 5.36455 284.221 5.34411 284.246 5.31837C284.272 5.29262 284.291 5.26211 284.305 5.22861C284.318 5.19511 284.324 5.15929 284.324 5.12326V4.6551C284.324 4.6188 284.318 4.58271 284.305 4.54889C284.292 4.51507 284.272 4.48417 284.247 4.45798C284.221 4.43179 284.191 4.4108 284.158 4.39623C284.125 4.38166 284.089 4.3738 284.053 4.37306H262.618C262.545 4.37454 262.474 4.4049 262.423 4.45763C262.371 4.51037 262.342 4.58126 262.342 4.6551V5.12326C262.342 5.19657 262.371 5.26688 262.423 5.31871C262.475 5.37054 262.545 5.39965 262.618 5.39965ZM264.181 21.8704H250.948L257.542 5.98628L264.181 21.8704ZM258.061 4.531C258.061 4.531 258.061 4.531 258.061 4.49716C258.063 4.48788 258.063 4.47822 258.061 4.46894C258.05 4.45649 258.036 4.44682 258.021 4.44075H257.976H257.903H257.389H257.316H257.271C257.257 4.447 257.246 4.45672 257.237 4.46894C257.234 4.47802 257.234 4.48808 257.237 4.49716V4.531L246.768 29.6376C246.752 29.6813 246.747 29.7281 246.753 29.7742C246.759 29.8203 246.776 29.8643 246.802 29.9027C246.825 29.9416 246.858 29.9736 246.898 29.9955C246.938 30.0173 246.982 30.0281 247.028 30.0268H247.389C247.443 30.0262 247.497 30.0092 247.542 29.978C247.587 29.9469 247.622 29.903 247.642 29.8519L250.547 22.8857H264.649L267.554 29.8519C267.575 29.9022 267.611 29.9453 267.655 29.9762C267.7 30.0072 267.753 30.0247 267.808 30.0268H268.259C268.306 30.0268 268.351 30.0156 268.393 29.994C268.434 29.9723 268.469 29.941 268.496 29.9027C268.515 29.8612 268.526 29.816 268.526 29.7701C268.526 29.7243 268.515 29.679 268.496 29.6376L258.106 4.54228C258.106 4.54228 258.072 4.531 258.061 4.531ZM231.076 5.39965H241.274V29.7617C241.276 29.8355 241.306 29.9058 241.359 29.9575C241.411 30.0091 241.482 30.0381 241.556 30.0381H242.03C242.066 30.0381 242.102 30.0309 242.135 30.0169C242.168 30.003 242.198 29.9825 242.223 29.9568C242.249 29.931 242.268 29.9005 242.282 29.867C242.295 29.8335 242.301 29.7977 242.301 29.7617V5.39965H252.505C252.578 5.39965 252.648 5.37054 252.7 5.31871C252.752 5.26688 252.781 5.19657 252.781 5.12326V4.6551C252.781 4.58126 252.752 4.51037 252.7 4.45763C252.649 4.4049 252.578 4.37454 252.505 4.37306H231.07C231.033 4.37305 230.997 4.38037 230.963 4.39461C230.929 4.40886 230.898 4.42973 230.873 4.456C230.847 4.48226 230.827 4.51339 230.813 4.54758C230.8 4.58176 230.793 4.61833 230.794 4.6551V5.12326C230.793 5.16026 230.8 5.19703 230.814 5.2313C230.828 5.26557 230.848 5.29661 230.875 5.32251C230.901 5.34842 230.933 5.36862 230.967 5.38188C231.002 5.39515 231.039 5.4012 231.076 5.39965ZM222.271 29.0115H213.624C212.128 29.0115 210.693 28.4172 209.635 27.3594C208.577 26.3015 207.983 24.8668 207.983 23.3708C207.981 23.2964 207.951 23.2255 207.899 23.173C207.846 23.1204 207.775 23.0902 207.701 23.0888H207.233C207.159 23.0902 207.089 23.1206 207.037 23.1733C206.985 23.2261 206.956 23.297 206.956 23.3708C206.958 25.1391 207.661 26.8347 208.91 28.0856C210.16 29.3365 211.855 30.0407 213.624 30.0437H222.271C224.04 30.0437 225.738 29.3407 226.989 28.0893C228.241 26.8379 228.944 25.1406 228.944 23.3708C228.944 21.601 228.241 19.9038 226.989 18.6523C225.738 17.4009 224.04 16.6979 222.271 16.6979H213.624C212.128 16.6979 210.693 16.1036 209.635 15.0458C208.577 13.988 207.983 12.5532 207.983 11.0573C207.983 9.56125 208.577 8.12651 209.635 7.06868C210.693 6.01085 212.128 5.41657 213.624 5.41657H222.271C223.767 5.41657 225.201 6.01085 226.259 7.06868C227.317 8.12651 227.911 9.56125 227.911 11.0573C227.911 11.0938 227.917 11.13 227.931 11.1639C227.944 11.1978 227.965 11.2286 227.991 11.2544C228.016 11.2802 228.047 11.3005 228.081 11.3142C228.115 11.3278 228.151 11.3344 228.188 11.3336H228.662C228.698 11.3336 228.733 11.3265 228.766 11.3125C228.8 11.2985 228.83 11.2781 228.855 11.2524C228.88 11.2266 228.9 11.1961 228.913 11.1626C228.927 11.1291 228.933 11.0933 228.932 11.0573C228.931 9.28892 228.228 7.59335 226.978 6.34242C225.728 5.0915 224.033 4.38732 222.265 4.38434H213.624C211.854 4.38434 210.157 5.08736 208.905 6.33877C207.654 7.59019 206.951 9.28749 206.951 11.0573C206.951 12.827 207.654 14.5243 208.905 15.7757C210.157 17.0271 211.854 17.7301 213.624 17.7301H222.271C223.767 17.7301 225.201 18.3244 226.259 19.3823C227.317 20.4401 227.911 21.8748 227.911 23.3708C227.911 24.8668 227.317 26.3015 226.259 27.3594C225.201 28.4172 223.767 29.0115 222.271 29.0115ZM204.824 5.39965C204.897 5.39965 204.968 5.37054 205.02 5.31871C205.071 5.26688 205.101 5.19657 205.101 5.12326V4.6551C205.101 4.58126 205.072 4.51037 205.02 4.45763C204.968 4.4049 204.898 4.37454 204.824 4.37306H183.39C183.316 4.37454 183.246 4.4049 183.194 4.45763C183.142 4.51037 183.113 4.58126 183.113 4.6551V29.7617C183.113 29.835 183.142 29.9053 183.194 29.9571C183.246 30.0089 183.316 30.0381 183.39 30.0381H204.824C204.897 30.0381 204.968 30.0089 205.02 29.9571C205.071 29.9053 205.101 29.835 205.101 29.7617V29.2879C205.101 29.2146 205.071 29.1443 205.02 29.0924C204.968 29.0406 204.897 29.0115 204.824 29.0115H184.14V17.7301H197.519C197.556 17.7301 197.591 17.7229 197.624 17.709C197.658 17.695 197.688 17.6746 197.713 17.6488C197.738 17.6231 197.758 17.5926 197.771 17.5591C197.785 17.5256 197.791 17.4898 197.79 17.4537V16.9856C197.791 16.9493 197.785 16.9132 197.771 16.8794C197.758 16.8456 197.738 16.8146 197.713 16.7885C197.688 16.7623 197.658 16.7413 197.625 16.7267C197.592 16.7122 197.556 16.7043 197.519 16.7036H184.14V5.42222L204.824 5.39965ZM162.288 21.8704H149.049L155.666 5.98628L162.288 21.8704ZM156.168 4.531C156.168 4.531 156.168 4.531 156.168 4.49716C156.17 4.48788 156.17 4.47822 156.168 4.46894L156.134 4.44075H156.089H156.016H155.502H155.429H155.401H155.361H155.333L155.305 4.46894C155.301 4.47802 155.301 4.48808 155.305 4.49716V4.531L144.841 29.6376C144.823 29.6806 144.816 29.7274 144.821 29.7738C144.826 29.8201 144.843 29.8645 144.87 29.9027C144.894 29.9408 144.927 29.9722 144.966 29.994C145.006 30.0157 145.05 30.027 145.095 30.0268H145.608C145.664 30.0265 145.719 30.0098 145.765 29.9786C145.811 29.9475 145.847 29.9034 145.868 29.8519L148.773 22.8857H162.875L165.599 29.8632C165.621 29.9143 165.657 29.958 165.703 29.989C165.749 30.02 165.803 30.0371 165.858 30.0381H166.372C166.417 30.0377 166.462 30.0262 166.503 30.0046C166.543 29.9829 166.577 29.9519 166.603 29.914C166.628 29.8752 166.644 29.8309 166.649 29.7848C166.654 29.7387 166.648 29.6921 166.631 29.6488L156.179 4.54228C156.179 4.54228 156.173 4.531 156.168 4.531ZM119.272 30.0381H119.752C119.825 30.0381 119.895 30.0089 119.947 29.9571C119.999 29.9053 120.028 29.835 120.028 29.7617V5.98628L129.499 17.3917L129.803 17.764L139.911 29.9478C139.938 29.979 139.971 30.0042 140.008 30.0217C140.045 30.0392 140.085 30.0486 140.126 30.0493H140.735H140.808L140.865 30.0155C140.886 30.003 140.903 29.9856 140.915 29.9647C140.928 29.9519 140.938 29.9365 140.944 29.9196C140.946 29.9009 140.946 29.8819 140.944 29.8632V4.70586C140.944 4.63203 140.915 4.56113 140.863 4.5084C140.811 4.45567 140.741 4.4253 140.667 4.42383H140.216C140.142 4.42527 140.071 4.45544 140.018 4.50802C139.966 4.5606 139.935 4.63151 139.934 4.70586V28.4756L130.486 17.0758L120.101 4.47459C120.077 4.44263 120.045 4.41682 120.009 4.39919C119.973 4.38157 119.933 4.37262 119.893 4.37306H119.272H119.205L119.148 4.40126L119.097 4.44075L119.069 4.49151C119.066 4.51396 119.066 4.53675 119.069 4.5592C119.067 4.57032 119.067 4.58191 119.069 4.59304V29.6996C119.059 29.7352 119.056 29.7725 119.061 29.8091C119.066 29.8458 119.078 29.8811 119.097 29.9128C119.117 29.9445 119.142 29.972 119.172 29.9935C119.202 30.0151 119.236 30.0302 119.272 30.0381ZM114.545 30.0381H115.014C115.087 30.0381 115.158 30.0091 115.211 29.9575C115.264 29.9058 115.294 29.8355 115.296 29.7617V4.6551C115.294 4.58075 115.264 4.50984 115.211 4.45726C115.159 4.40467 115.088 4.37451 115.014 4.37306H114.545C114.509 4.37305 114.472 4.38037 114.438 4.39461C114.404 4.40886 114.374 4.42973 114.348 4.456C114.322 4.48226 114.302 4.51339 114.288 4.54758C114.275 4.58176 114.268 4.61833 114.269 4.6551V29.7617C114.268 29.7982 114.275 29.8345 114.288 29.8684C114.302 29.9022 114.322 29.933 114.348 29.9588C114.374 29.9847 114.405 30.005 114.439 30.0186C114.473 30.0322 114.509 30.0388 114.545 30.0381ZM88.886 4.37306C88.8122 4.37454 88.7419 4.4049 88.6902 4.45763C88.6385 4.51037 88.6096 4.58126 88.6096 4.6551V29.7617C88.6096 29.835 88.6387 29.9053 88.6905 29.9571C88.7424 30.0089 88.8127 30.0381 88.886 30.0381H89.3542C89.428 30.0381 89.4989 30.0091 89.5516 29.9575C89.6044 29.9058 89.6347 29.8355 89.6362 29.7617V17.7189H102.988C103.061 17.7189 103.131 17.6897 103.183 17.6379C103.235 17.5861 103.264 17.5158 103.264 17.4425V16.9743C103.264 16.9005 103.235 16.8296 103.183 16.7768C103.132 16.7241 103.061 16.6937 102.988 16.6923H89.6193V5.41094H110.321C110.394 5.41094 110.464 5.38182 110.516 5.32998C110.568 5.27815 110.597 5.20784 110.597 5.13454V4.66637C110.597 4.59254 110.568 4.52164 110.516 4.46891C110.465 4.41618 110.394 4.38581 110.321 4.38434L88.886 4.37306ZM63.2097 30.0381H63.6835C63.7568 30.0381 63.8271 30.0089 63.879 29.9571C63.9308 29.9053 63.9599 29.835 63.9599 29.7617V5.98628L73.3911 17.3917L73.6957 17.764L83.8094 29.9365C83.8359 29.9677 83.8687 29.9929 83.9056 30.0104C83.9426 30.0279 83.9829 30.0373 84.0237 30.0381H84.6386H84.7119L84.7627 30.0042C84.7818 29.9914 84.7973 29.9739 84.8078 29.9535C84.8236 29.9424 84.8355 29.9266 84.8416 29.9083C84.8439 29.8896 84.8439 29.8707 84.8416 29.8519V4.69457C84.8424 4.65827 84.836 4.62218 84.8228 4.58836C84.8096 4.55454 84.7898 4.52366 84.7647 4.49747C84.7395 4.47128 84.7095 4.45029 84.6762 4.43572C84.643 4.42115 84.6072 4.41327 84.5709 4.41253H84.0971C84.0227 4.41398 83.9518 4.44416 83.8992 4.49674C83.8467 4.54933 83.8165 4.62022 83.815 4.69457V28.4643L74.3726 17.0645L64.0163 4.47459C63.9918 4.44263 63.9602 4.41682 63.924 4.39919C63.8877 4.38157 63.8479 4.37262 63.8076 4.37306H63.1928H63.1251C63.1039 4.37659 63.0842 4.38641 63.0687 4.40126L63.0123 4.44075C63.003 4.45892 62.9916 4.47595 62.9784 4.49151C62.9752 4.51396 62.9752 4.53675 62.9784 4.5592C62.9758 4.57032 62.9758 4.58191 62.9784 4.59304V29.6996C62.9693 29.736 62.9677 29.7738 62.9736 29.8108C62.9796 29.8478 62.993 29.8832 63.013 29.9148C63.0331 29.9465 63.0593 29.9737 63.0902 29.9949C63.1211 30.0161 63.156 30.0308 63.1928 30.0381H63.2097ZM58.4772 30.0381H58.9454C59.0192 30.0381 59.0901 30.0091 59.1428 29.9575C59.1956 29.9058 59.2259 29.8355 59.2274 29.7617V4.6551C59.226 4.58075 59.1958 4.50984 59.1432 4.45726C59.0906 4.40467 59.0197 4.37451 58.9454 4.37306H58.4772C58.4034 4.37454 58.3331 4.4049 58.2814 4.45763C58.2297 4.51037 58.2008 4.58126 58.2008 4.6551V29.7617C58.2007 29.8321 58.2275 29.9 58.2757 29.9514C58.3239 30.0027 58.3899 30.0337 58.4603 30.0381H58.4772Z" fill="#323232"/>
<path d="M19.1704 1.83737L7.41057 12.8526V56.8004H19.1704V1.83737ZM6.98797 12.5608L19.6735 0.677734V57.3035H6.90747V12.6363L6.98797 12.5608Z" fill="#323232"/>
<path fill-rule="evenodd" clip-rule="evenodd" d="M30.7618 30.0256L19.4799 21.7773V57.3059L30.7618 57.2933V30.0256Z" fill="#323232"/>
<path d="M37.6692 56.8125H0V57.3156H37.6692V56.8125Z" fill="#323232"/>
<path d="M62.5119 53.0041C63.5679 53.0041 64.0959 53.6161 64.0959 54.3841C64.0959 55.1281 63.5679 55.7641 62.5119 55.7641C61.8399 55.7761 61.0959 55.7641 60.4239 55.7641V53.0041H62.5119ZM60.4239 49.8361H64.7679V48.6001H59.0439C59.0439 51.3961 59.0439 54.2041 59.0439 57.0001C60.1839 57.0001 61.3719 57.0001 62.5119 57.0001C64.4799 57.0001 65.4639 55.8121 65.4639 54.3721C65.4639 52.9441 64.5039 51.8281 62.5119 51.8281H60.4239V49.8361Z" fill="#323232"/>
<path d="M73.7581 57.0001V54.4801H75.8341C77.6821 54.4801 78.7981 53.1361 78.7981 51.5641C78.7981 49.9681 77.7061 48.6001 75.8341 48.6001H72.3541V57.0001H73.7581ZM73.7341 53.2561V49.8121H75.8341C76.8061 49.8121 77.4541 50.5561 77.4541 51.5281C77.4541 52.5001 76.7821 53.2561 75.8341 53.2561H73.7341Z" fill="#323232"/>
<path d="M93.6462 52.8001C93.6462 50.0641 91.6662 48.4561 89.3742 48.4561C87.0942 48.4561 85.0902 50.0641 85.0902 52.8001C85.0902 55.5361 87.0462 57.1441 89.3502 57.1441C91.8822 57.1441 93.6462 55.3561 93.6462 52.8001ZM86.5062 52.8001C86.5062 50.8561 87.8022 49.7641 89.3862 49.7641C90.9582 49.7641 92.2542 50.8801 92.2542 52.8001C92.2542 54.7561 90.9462 55.8241 89.3742 55.8241C87.7902 55.8241 86.5062 54.7561 86.5062 52.8001Z" fill="#323232"/>
<path d="M102.042 48.6001H100.638V57.0001H102.042V53.4601C102.45 53.4601 103.254 53.4601 103.614 53.3281L106.014 57.0001H107.598V56.7961L104.838 52.7761C105.402 52.2601 105.678 51.4441 105.93 50.5321C106.182 49.6681 106.482 49.5121 107.322 49.5721V48.6121C105.594 48.2881 104.946 49.0441 104.646 50.1241C104.418 51.0001 104.178 51.8521 103.686 52.1161C103.314 52.3081 102.678 52.3201 102.042 52.3201V48.6001Z" fill="#323232"/>
<path d="M119.365 48.6001H114.253V57.0001H119.437V55.7281H115.657V53.2801H119.161V52.0441H115.657V49.8241H119.365V48.6001Z" fill="#323232"/>
<path d="M127.983 57.0001V54.4801H130.059C131.907 54.4801 133.023 53.1361 133.023 51.5641C133.023 49.9681 131.931 48.6001 130.059 48.6001H126.579V57.0001H127.983ZM127.959 53.2561V49.8121H130.059C131.031 49.8121 131.679 50.5561 131.679 51.5281C131.679 52.5001 131.007 53.2561 130.059 53.2561H127.959Z" fill="#323232"/>
<path d="M154.855 57.0001V48.6001H153.451V51.9721H149.611V48.6001H148.219V57.0001H149.611V53.2561H153.451V57.0001H154.855Z" fill="#323232"/>
<path d="M167.45 48.6001H162.338V57.0001H167.522V55.7281H163.742V53.2801H167.246V52.0441H163.742V49.8241H167.45V48.6001Z" fill="#323232"/>
<path d="M177.135 49.8121H179.775V55.8361H176.115C176.475 55.5841 176.583 55.0081 176.631 54.5881L177.135 49.8121ZM173.907 55.8001V58.2481H175.215V57.0001C177.183 57.0001 178.779 57.0001 180.735 57.0001V58.2481H182.031V55.8001H181.131V48.6001C179.511 48.6001 177.543 48.6001 175.923 48.6001L175.227 54.5281C175.131 55.3561 174.987 55.8001 174.195 55.8001H173.907Z" fill="#323232"/>
<path d="M194.994 50.9641C194.994 49.3801 193.878 48.6001 192.354 48.6001H188.946V57.0001H192.702C194.334 57.0001 195.366 56.0281 195.366 54.5281C195.366 53.5801 194.886 52.8841 194.01 52.5841C194.67 52.2601 194.994 51.6721 194.994 50.9641ZM192.258 49.8121C193.074 49.8121 193.626 50.1721 193.626 51.0001C193.614 51.8161 193.062 52.1281 192.258 52.1281H190.338V49.8121H192.258ZM192.462 53.2681C192.846 53.2681 193.23 53.2921 193.554 53.5321C193.842 53.7721 193.986 54.1081 193.986 54.5281C193.95 55.3321 193.398 55.7761 192.618 55.7761H190.338V53.2681H192.462Z" fill="#323232"/>
<path d="M207.99 51.2881L207.894 53.9521V57.0001H209.274V48.5761H208.77L203.67 54.2281L203.766 51.6601V48.6001H202.374V57.0121H202.854L207.99 51.2881Z" fill="#323232"/>
<path d="M227.514 57.0001V56.7961C226.59 55.4641 225.666 54.1201 224.754 52.7761C225.306 52.2841 225.558 51.4201 225.798 50.5201C226.038 49.7521 226.47 49.4641 227.238 49.5841V48.6241C225.858 48.3481 224.886 48.7201 224.562 50.1361C224.406 50.7361 224.178 51.6841 223.602 52.0201C223.242 52.2241 222.882 52.2601 222.414 52.2601V48.6001C221.958 48.6001 221.502 48.6001 221.034 48.6001V52.2601C220.566 52.2601 220.206 52.2241 219.846 52.0201C219.27 51.6841 219.042 50.7361 218.886 50.1361C218.55 48.7201 217.59 48.3481 216.21 48.6241V49.5841C216.99 49.4641 217.422 49.7521 217.638 50.5201C217.89 51.4201 218.142 52.2841 218.694 52.7761C217.77 54.1201 216.846 55.4641 215.934 56.7961V57.0001H217.518C218.322 55.7761 219.126 54.5521 219.918 53.3401C220.278 53.4721 220.614 53.5081 221.034 53.5081V57.0001C221.502 57.0001 221.958 57.0001 222.414 57.0001V53.5081C222.834 53.5081 223.17 53.4721 223.542 53.3401C224.322 54.5521 225.126 55.7761 225.93 57.0001H227.514Z" fill="#323232"/>
<path d="M239.79 51.2881L239.694 53.9521V57.0001H241.074V48.5761H240.57L235.47 54.2281L235.566 51.6601V48.6001H234.174V57.0121H234.654L239.79 51.2881Z" fill="#323232"/>
<path d="M252.498 52.9201L249.078 48.5761H248.562V57.0001H249.966V51.7441L252.402 54.8521H252.594L255.018 51.7441V57.0001H256.422V48.5761H255.906L252.498 52.9201Z" fill="#323232"/>
<path d="M271.975 52.8001C271.975 50.0641 269.995 48.4561 267.703 48.4561C265.423 48.4561 263.419 50.0641 263.419 52.8001C263.419 55.5361 265.375 57.1441 267.679 57.1441C270.211 57.1441 271.975 55.3561 271.975 52.8001ZM264.835 52.8001C264.835 50.8561 266.131 49.7641 267.715 49.7641C269.287 49.7641 270.583 50.8801 270.583 52.8001C270.583 54.7561 269.275 55.8241 267.703 55.8241C266.119 55.8241 264.835 54.7561 264.835 52.8001Z" fill="#323232"/>
<path d="M278.475 52.8121C278.475 55.5121 280.455 57.0841 282.735 57.0841C284.439 57.0841 286.167 56.1841 286.587 54.1321H285.231C284.859 55.2481 283.887 55.8121 282.735 55.8121C281.019 55.8121 279.879 54.4801 279.879 52.8121C279.879 51.0241 281.019 49.7761 282.735 49.7761C283.839 49.7881 284.775 50.2681 285.195 51.3121H286.539C286.095 49.4161 284.391 48.5041 282.747 48.5041C280.455 48.5041 278.475 50.1001 278.475 52.8121Z" fill="#323232"/>
<path d="M295.046 49.8361V57.0001H296.414V49.8361H298.85V48.6001H292.61V49.8361H295.046Z" fill="#323232"/>
<path d="M311.133 51.2881L311.037 53.9521V57.0001H312.417V48.5761H311.913L306.813 54.2281L306.909 51.6601V48.6001H305.517V57.0121H305.997L311.133 51.2881Z" fill="#323232"/>
</svg>
