<svg width="26" height="34" viewBox="0 0 26 34" fill="none" xmlns="http://www.w3.org/2000/svg">
<g clip-path="url(#clip0_77_1112)">
<path d="M21.4797 21.6301L23.1614 25.3366C23.8376 26.8271 24.5279 28.3086 25.1776 29.81C25.2842 30.0776 25.2892 30.3766 25.1917 30.6478C25.0632 30.9543 24.7268 30.9307 24.4152 30.8745C23.334 30.675 22.2457 30.5118 21.1645 30.3069C21.054 30.2738 20.9354 30.2849 20.8326 30.338C20.7297 30.3912 20.6501 30.4824 20.6098 30.5934C20.0815 31.5635 19.5339 32.5337 18.9546 33.4766C18.8038 33.7211 18.5704 33.8994 18.2995 33.9771C17.9473 34.046 17.7888 33.7087 17.6532 33.4095C16.6366 31.1682 15.6176 28.9282 14.5963 26.6893C14.5294 26.5406 14.4572 26.3955 14.3867 26.245C13.3302 26.9577 12.6258 26.9595 11.6115 26.245C11.5393 26.3901 11.4671 26.5297 11.402 26.673C10.3818 28.9118 9.36282 31.1519 8.34501 33.3932C8.21118 33.6906 8.07382 33.9771 7.70754 33.9989C7.34127 34.0206 7.17927 33.7522 7.00318 33.4675C6.45553 32.5047 5.89556 31.5472 5.35672 30.5771C5.31817 30.4737 5.24363 30.3887 5.14761 30.3388C5.05159 30.2888 4.94095 30.2775 4.83725 30.3069C3.75604 30.5046 2.66956 30.6696 1.58659 30.8745C1.28019 30.9307 0.998445 30.9488 0.783613 30.675C0.56878 30.4012 0.662103 30.0875 0.799455 29.7883C1.96166 27.2327 3.12211 24.6771 4.2808 22.1215C4.34771 21.9746 4.4111 21.8241 4.49739 21.6301L3.69617 21.32C3.31405 21.1677 2.91961 21.0444 2.5551 20.8558C1.7574 20.4442 1.4193 19.7479 1.49855 18.8448C1.5343 18.4394 1.60322 18.0379 1.70457 17.6444C1.92469 16.823 1.7574 16.1339 1.15164 15.5446C0.909733 15.3018 0.688785 15.0379 0.491294 14.7558C-0.186661 13.8128 -0.184899 12.9569 0.503621 12.0158C0.715633 11.7259 0.946864 11.4514 1.19566 11.1944C1.72394 10.6504 1.92468 10.0248 1.72394 9.25773C1.60669 8.80588 1.52948 8.344 1.49326 7.87778C1.42634 7.03277 1.74684 6.36003 2.48995 5.97016C2.92293 5.74973 3.37514 5.57184 3.84057 5.43885C4.58192 5.21581 5.05384 4.76066 5.24931 3.97912C5.3379 3.6143 5.4557 3.25766 5.60149 2.91288C6.06109 1.82488 6.83414 1.40056 7.96817 1.59459C8.28513 1.64899 8.60386 1.71064 8.91554 1.79586C9.25531 1.90333 9.6177 1.90925 9.96061 1.81295C10.3035 1.71665 10.6128 1.52208 10.8526 1.25186C11.1863 0.914453 11.5507 0.610836 11.9408 0.345197C12.2483 0.115474 12.6189 -0.00747346 12.9988 -0.00584337C13.3787 -0.00421328 13.7483 0.121913 14.0539 0.354267C14.4349 0.610823 14.7889 0.90738 15.1105 1.23917C15.3545 1.51255 15.669 1.70884 16.0173 1.80516C16.3655 1.90148 16.7332 1.89386 17.0774 1.78317C17.5306 1.66145 17.9941 1.58434 18.4615 1.55288C18.8248 1.51625 19.1901 1.59786 19.5059 1.7862C19.8218 1.97454 20.0724 2.26013 20.2224 2.6028C20.4374 3.04805 20.6096 3.51387 20.7366 3.99362C20.816 4.34005 20.9872 4.65695 21.2313 4.90895C21.4754 5.16095 21.7827 5.33813 22.1189 5.42072C22.5701 5.54854 23.0097 5.71661 23.4326 5.92301C24.2303 6.3292 24.5737 7.02914 24.4891 7.934C24.4424 8.39916 24.3635 8.86031 24.2532 9.31395C24.0771 10.0302 24.2725 10.6105 24.7497 11.1273C25.0561 11.452 25.3392 11.7993 25.5967 12.1663C26.155 12.9986 26.1479 13.7729 25.5967 14.6053C25.3938 14.9207 25.1576 15.212 24.8924 15.4738C24.225 16.1085 24.0542 16.8483 24.3183 17.7314C24.4033 18.0518 24.4594 18.3796 24.4856 18.7106C24.6018 19.7859 24.232 20.4877 23.2741 20.9265C22.6947 21.2003 22.1084 21.3907 21.4797 21.6301ZM18.3981 23.9874C18.5701 24.0123 18.7452 23.973 18.8915 23.8766C19.0378 23.7801 19.1458 23.6329 19.1958 23.4616C19.3402 23.0844 19.4793 22.7018 19.592 22.3119C19.9266 21.1532 20.6732 20.4496 21.7967 20.1359C22.0791 20.0579 22.3567 19.9622 22.6278 19.8494C23.2019 19.61 23.3093 19.4106 23.2248 18.7614C23.1908 18.4772 23.1391 18.1955 23.0698 17.9182C22.7458 16.6888 23.0029 15.6262 23.8851 14.7195C24.1288 14.4583 24.357 14.1821 24.5684 13.8926C24.6874 13.7551 24.7532 13.5773 24.7532 13.393C24.7532 13.2088 24.6874 13.031 24.5684 12.8935C24.3324 12.5852 24.0841 12.286 23.8235 12.0013C23.0786 11.1835 22.7669 10.2442 23.0205 9.13261C23.1068 8.75 23.1808 8.36557 23.2354 7.97752C23.3181 7.39544 23.2054 7.19053 22.6683 6.96205C22.3562 6.83292 22.0376 6.72094 21.7139 6.62659C20.6116 6.29837 19.8896 5.5821 19.5779 4.43608C19.504 4.16045 19.4194 3.89208 19.3208 3.62008C19.0408 2.85304 18.8331 2.73517 18.06 2.87661C17.8152 2.92195 17.5687 2.96365 17.3275 3.02893C16.1617 3.34989 15.1598 3.0652 14.3022 2.19661C14.0504 1.94456 13.7739 1.71427 13.5027 1.4876C13.366 1.35709 13.1864 1.28458 13 1.28458C12.8136 1.28458 12.634 1.35709 12.4973 1.4876C12.212 1.72333 11.932 1.96813 11.6643 2.22744C10.9159 2.95277 10.0566 3.31544 9.02296 3.09965C8.61971 3.01624 8.21998 2.91832 7.81497 2.85122C7.21449 2.74605 6.97677 2.87661 6.75842 3.45144C6.62833 3.78802 6.5149 4.13119 6.41856 4.4796C6.28894 4.99396 6.02809 5.46326 5.66304 5.83886C5.29799 6.21445 4.84203 6.48267 4.34243 6.61571C4.06068 6.70275 3.78069 6.79704 3.50599 6.89496C2.78929 7.17058 2.6854 7.34466 2.78929 8.10989C2.82515 8.37884 2.8769 8.64529 2.94426 8.90776C3.10878 9.46012 3.11926 10.049 2.97448 10.6072C2.8297 11.1654 2.5355 11.6704 2.12543 12.0648C1.88154 12.3262 1.65225 12.6017 1.43867 12.8898C1.31925 13.0272 1.25322 13.2051 1.25322 13.3894C1.25322 13.5738 1.31925 13.7516 1.43867 13.889C1.67463 14.1972 1.91764 14.5001 2.18002 14.783C2.93193 15.5971 3.23657 16.5346 2.9918 17.648C2.90376 18.0451 2.84212 18.4477 2.76816 18.8466C2.74043 18.9455 2.73216 19.049 2.74381 19.1512C2.75546 19.2533 2.78681 19.3521 2.83601 19.4416C2.88522 19.5311 2.9513 19.6096 3.03037 19.6725C3.10943 19.7353 3.19989 19.7813 3.29644 19.8077C3.59932 19.9238 3.89867 20.0489 4.2086 20.1341C5.3708 20.4532 6.12448 21.1858 6.4432 22.3899C6.53653 22.7362 6.66508 23.0753 6.79539 23.4144C6.94331 23.8115 7.21802 24.0237 7.64944 23.9584C8.05269 23.8913 8.46123 23.8387 8.85919 23.739C9.95801 23.4616 10.879 23.7753 11.6767 24.5641C11.9408 24.8252 12.2226 25.0664 12.5096 25.3021C12.6465 25.4322 12.826 25.5045 13.0123 25.5045C13.1986 25.5045 13.3781 25.4322 13.5151 25.3021C13.825 25.0482 14.1332 24.7889 14.4184 24.5079C15.2161 23.7227 16.1494 23.487 17.2165 23.7336C17.5951 23.8206 17.9966 23.8986 18.3981 23.982V23.9874ZM18.3787 32.006C18.8947 31.0993 19.3825 30.2888 19.835 29.4528C20.071 29.0176 20.3633 28.878 20.8458 28.9741C21.7579 29.1554 22.6789 29.2914 23.6633 29.4565L20.7137 22.9683C20.5623 23.3564 20.4478 23.681 20.3105 23.9947C19.9301 24.856 19.2874 25.3039 18.3576 25.2205C17.8945 25.1788 17.4366 25.0591 16.9753 24.9866C16.3942 24.8941 15.8078 24.8053 15.3623 25.3837C16.3607 27.567 17.3521 29.7448 18.3787 32.0006V32.006ZM10.6941 25.2332C10.282 25.1208 9.93159 24.9431 9.58293 24.9467C9.10207 24.9802 8.62489 25.0561 8.15659 25.1734C6.82005 25.4272 6.02587 24.9757 5.53281 23.6701C5.45357 23.4598 5.38313 23.2458 5.27924 22.9448L2.32442 29.4546C3.31053 29.2878 4.20508 29.1427 5.09787 28.9868C5.74061 28.8762 5.84097 28.9161 6.1685 29.4855C6.63691 30.2978 7.10179 31.1175 7.61246 32.0006L10.6941 25.2332Z" fill="#E5BC9B"/>
<path d="M12.9762 4.78021C17.5071 4.7113 21.3036 8.55375 21.3635 13.272C21.3927 15.5563 20.5423 17.7595 18.9983 19.3998C17.4542 21.0401 15.3422 21.984 13.1241 22.025C8.54575 22.0957 4.68581 18.2678 4.62594 13.5858C4.56607 8.70245 8.21823 4.85093 12.9762 4.78021ZM13.0044 6.04954C12.059 6.04656 11.1225 6.23741 10.2495 6.61096C9.3765 6.9845 8.58442 7.53327 7.91947 8.22527C7.25451 8.91727 6.72999 9.73866 6.37647 10.6416C6.02294 11.5444 5.84749 12.5108 5.86035 13.4842C5.87796 17.508 9.14094 20.801 13.0801 20.7611C14.9645 20.732 16.7616 19.9385 18.0811 18.5529C19.4006 17.1673 20.1359 15.3015 20.1273 13.3609C20.1062 9.30992 16.9013 6.02053 13.0044 6.04773V6.04954Z" fill="#E5BC9B"/>
</g>
<defs>
<clipPath id="clip0_77_1112">
<rect width="26" height="34" fill="white"/>
</clipPath>
</defs>
</svg>
