<svg width="30" height="30" viewBox="0 0 30 30" fill="none" xmlns="http://www.w3.org/2000/svg">
<circle cx="15" cy="15" r="15" fill="#323232"/>
<g clip-path="url(#clip0_32_949)">
<path d="M21.9999 14.1322C21.9984 15.153 21.87 16.1694 21.6175 17.1568C21.2229 18.6325 20.3353 19.605 18.9173 20.093C17.3346 20.6355 15.7102 20.8014 14.0552 20.739C13.9854 20.73 13.9144 20.7403 13.8497 20.7686C13.7849 20.797 13.7287 20.8425 13.6868 20.9005C13.2626 21.4269 12.8253 21.9426 12.3916 22.4609C12.1625 22.733 11.9142 22.8116 11.6425 22.7018C11.3707 22.5921 11.254 22.3797 11.261 22.022C11.2697 21.5179 11.2784 21.0129 11.301 20.5052C11.3089 20.3384 11.2662 20.2616 11.1024 20.2072C9.84643 19.7932 8.94579 18.9867 8.53118 17.6778C8.38612 17.2433 8.27258 16.7984 8.19148 16.3467C7.8632 14.4172 7.96414 12.4367 8.48675 10.5527C8.5754 10.2551 8.68187 9.96343 8.80555 9.67927C9.29594 8.49532 10.2227 7.84045 11.382 7.47464C12.9011 6.99553 14.4542 6.91702 16.0264 7.06066C16.957 7.14376 17.8747 7.33932 18.7605 7.64327C20.2116 8.14469 21.1027 9.16001 21.5269 10.6491C21.8378 11.7828 21.9969 12.9546 21.9999 14.1322ZM11.6904 19.2544C11.6904 20.1591 11.6904 21.0388 11.6904 21.9256C11.7072 22.0195 11.739 22.1099 11.7845 22.1933C11.8717 22.157 11.953 22.1073 12.0257 22.046C12.6355 21.3421 13.2513 20.6382 13.8444 19.9182C13.917 19.8208 14.0123 19.7439 14.1217 19.6944C14.231 19.645 14.3508 19.6247 14.4698 19.6353C15.8757 19.663 17.2571 19.4979 18.5976 19.0277C19.6429 18.6637 20.3118 17.9571 20.554 16.8695C20.7129 16.1774 20.8215 15.4742 20.8788 14.7657C20.975 13.4377 20.8236 12.103 20.4329 10.8329C20.1141 9.78901 19.4747 9.08417 18.46 8.72015C17.6454 8.43032 16.7986 8.24599 15.9393 8.17145C14.5508 8.04475 13.179 8.11346 11.8245 8.49443C10.6582 8.82276 9.89607 9.54009 9.55376 10.7419C9.29083 11.6684 9.13788 12.624 9.09822 13.588C9.0477 14.7809 9.1348 15.9586 9.47189 17.1104C9.75236 18.0677 10.3124 18.7547 11.247 19.0938L11.6904 19.2544Z" fill="white"/>
<path d="M11.0216 11.6925C11.12 11.4801 11.1757 11.2419 11.3169 11.0813C11.5461 10.8258 11.804 10.5988 12.0851 10.405C12.3412 10.2266 12.6077 10.2846 12.7976 10.5389C13.1112 10.9644 13.4186 11.3963 13.7 11.845C13.9447 12.234 13.8742 12.5303 13.5258 12.8158C13.4169 12.8891 13.3224 12.9826 13.2471 13.0914C13.1835 13.2119 13.119 13.3868 13.1599 13.5019C13.5467 14.6617 14.2374 15.5414 15.4046 15.9563C15.7182 16.0678 15.9202 16.0455 16.0857 15.76C16.4533 15.1355 16.901 15.1988 17.4201 15.5878C17.7685 15.8457 18.1013 16.116 18.4331 16.3908C18.6396 16.5621 18.6718 16.7959 18.5681 17.0359C18.3974 17.4495 18.1032 17.7972 17.7276 18.0289C17.6085 18.1074 17.4722 18.1544 17.331 18.1658C17.1898 18.1771 17.0481 18.1525 16.9184 18.094C15.2217 17.3803 13.7078 16.4176 12.6007 14.8758C12.0433 14.0987 11.6348 13.2404 11.2733 12.3563C11.1853 12.1484 11.1122 11.9343 11.0216 11.6925Z" fill="white"/>
<path d="M18.5281 13.6675C18.5281 13.705 18.5411 13.7496 18.5281 13.7772C18.4854 13.8504 18.4305 13.9164 18.3809 13.9851C18.3156 13.9218 18.2067 13.8673 18.1936 13.7933C18.144 13.5479 18.1413 13.2919 18.0952 13.0456C17.7781 11.3745 16.6379 10.3164 14.9856 10.1549C14.8593 10.1424 14.7391 10.1165 14.7496 9.96039C14.7618 9.7882 14.8994 9.79176 15.0292 9.79979C16.6467 9.89883 17.9854 11.0765 18.3887 12.769C18.4593 13.0626 18.495 13.3659 18.5464 13.6612L18.5281 13.6675Z" fill="white"/>
<path d="M17.4123 13.4006C17.3879 13.4309 17.3409 13.5496 17.2668 13.571C17.117 13.612 17.0865 13.4818 17.0578 13.3542C16.989 13.0606 16.9463 12.7537 16.8296 12.4807C16.5683 11.8758 16.0944 11.5252 15.4629 11.3958C15.3994 11.3824 15.3349 11.369 15.2704 11.361C15.1424 11.3458 15.0457 11.278 15.0962 11.1478C15.1206 11.1085 15.154 11.076 15.1935 11.0532C15.233 11.0303 15.2773 11.0177 15.3227 11.0166C15.8698 11.0648 16.38 11.3191 16.7547 11.7304C17.1562 12.1774 17.3522 12.718 17.4123 13.4006Z" fill="white"/>
<path d="M15.3384 12.0244C15.8959 12.0378 16.5021 12.7177 16.4594 13.2298C16.452 13.2665 16.4359 13.3007 16.4125 13.3295C16.3891 13.3583 16.3592 13.3808 16.3253 13.3948C16.2713 13.4064 16.1955 13.3395 16.138 13.2949C16.1154 13.2771 16.1145 13.2271 16.1075 13.1905C16.0282 12.764 15.7957 12.4901 15.3767 12.3742C15.3367 12.3531 15.3017 12.3233 15.2743 12.2867C15.2468 12.2501 15.2277 12.2078 15.2182 12.1627C15.2095 12.1199 15.314 12.0512 15.3384 12.0244Z" fill="white"/>
</g>
<defs>
<clipPath id="clip0_32_949">
<rect width="14" height="15.75" fill="white" transform="translate(8 7)"/>
</clipPath>
</defs>
</svg>
