<svg width="80" height="80" viewBox="0 0 80 80" fill="none" xmlns="http://www.w3.org/2000/svg">
<circle cx="40" cy="40" r="39" stroke="white" stroke-width="2"/>
<path d="M26 34H23.5C19.9101 34 17 36.9101 17 40.5V40.5C17 44.0899 19.9101 47 23.5 47H33" stroke="white" stroke-width="2"/>
<path d="M52.2685 30H54.5C59.1944 30 63 33.8056 63 38.5V38.5C63 43.1944 59.1944 47 54.5 47H46" stroke="white" stroke-width="2"/>
<path d="M25 34C25.2635 26.2234 31.6593 20 39.5001 20C45.9374 20 51.3949 24.1948 53.2883 30" stroke="white" stroke-width="2"/>
<path d="M39.5 41V58M39.5 58L35 53M39.5 58L44 53" stroke="white" stroke-width="2"/>
</svg>
