<svg width="55" height="31" viewBox="0 0 55 31" fill="none" xmlns="http://www.w3.org/2000/svg">
<path fill-rule="evenodd" clip-rule="evenodd" d="M42.9889 0.00171613H14.4552V3.64854L6.6453 3.64854V7.29536H0V10.9422H6.6453V14.589H14.4552V10.9422H36.4526L42.2026 23.7416H51.6498L52.7387 20.0571H44.3804L38.6309 7.29536H14.4552V3.64854H40.8143L46.5513 16.4124H53.8758L55 12.7656L49.2601 0H45.4499L51.1859 12.7656H48.7436L42.9889 0.00171613ZM14.4552 7.29536V10.9422H6.6453V7.29536H14.4552ZM34.2571 14.5898H14.456L14.456 18.2356H32.0436L37.8064 31H49.4702L50.5765 27.352H40.0183L34.2571 14.5898Z" fill="#ED6932"/>
</svg>
