<svg width="14" height="14" viewBox="0 0 14 14" fill="none" xmlns="http://www.w3.org/2000/svg">
<path d="M5.93343 0.600098C2.99423 0.600098 0.600098 2.99423 0.600098 5.93343C0.600098 8.87263 2.99423 11.2668 5.93343 11.2668C7.21157 11.2668 8.38537 10.8129 9.30531 10.0595L12.4897 13.2438C12.5388 13.295 12.5977 13.3359 12.6628 13.3641C12.728 13.3922 12.7981 13.4071 12.869 13.4078C12.94 13.4085 13.0104 13.3951 13.076 13.3683C13.1417 13.3414 13.2014 13.3018 13.2516 13.2516C13.3018 13.2014 13.3414 13.1417 13.3683 13.076C13.3951 13.0104 13.4085 12.94 13.4078 12.869C13.4071 12.7981 13.3922 12.728 13.3641 12.6628C13.3359 12.5977 13.295 12.5388 13.2438 12.4897L10.0595 9.30531C10.8129 8.38537 11.2668 7.21157 11.2668 5.93343C11.2668 2.99423 8.87263 0.600098 5.93343 0.600098ZM5.93343 1.66676C8.29616 1.66676 10.2001 3.5707 10.2001 5.93343C10.2001 8.29616 8.29616 10.2001 5.93343 10.2001C3.5707 10.2001 1.66676 8.29616 1.66676 5.93343C1.66676 3.5707 3.5707 1.66676 5.93343 1.66676Z" fill="#5D535E"/>
</svg>
