<svg width="20" height="20" viewBox="0 0 20 20" fill="none" xmlns="http://www.w3.org/2000/svg">
<g clip-path="url(#clip0_66_879)">
<path d="M4.12484 0.000739201C4.52494 0.066067 4.90257 0.229459 5.22376 0.476297C5.26658 0.513318 5.31509 0.550347 5.35505 0.590216C6.25415 1.48727 7.15895 2.38146 8.05234 3.28421C8.36894 3.58159 8.57304 3.97883 8.63023 4.4089C8.68743 4.83897 8.59426 5.27557 8.36634 5.64504C8.16336 5.98323 7.84835 6.24009 7.47577 6.37123C7.20744 6.45461 6.96007 6.5943 6.75035 6.78095C6.54062 6.96761 6.37339 7.19688 6.25984 7.45337C6.09876 7.81174 6.07142 8.21577 6.18277 8.59249C6.47082 9.56998 6.98175 10.4677 7.67555 11.2153C8.46475 12.1515 9.43566 12.9187 10.5298 13.4707C10.9752 13.7356 11.4913 13.8579 12.0084 13.821C12.3428 13.7959 12.6634 13.6778 12.9339 13.4799C13.2043 13.2821 13.4137 13.0125 13.5383 12.7019C13.6843 12.2538 13.9794 11.869 14.3746 11.6111C14.7109 11.4057 15.1044 11.3132 15.4973 11.347C15.8902 11.3808 16.262 11.5393 16.5581 11.7991C17.109 12.3003 17.6228 12.8357 18.148 13.3625C18.6275 13.841 19.1242 14.3051 19.5751 14.812C19.8444 15.1387 19.9982 15.5449 20.0126 15.9676C20.0271 16.3903 19.9013 16.8059 19.655 17.1501C19.5546 17.2934 19.4419 17.4278 19.3182 17.5516C18.7902 18.0842 18.245 18.6025 17.7312 19.1435C17.4732 19.4141 17.1634 19.6303 16.8203 19.7795C16.4771 19.9287 16.1075 20.0078 15.7332 20.0121C14.9094 20.0242 14.0906 19.8832 13.3185 19.5963C11.7995 19.0503 10.3702 18.2826 9.07705 17.3181C6.90913 15.7703 4.97758 13.9171 3.34276 11.8162C2.10089 10.2944 1.12439 8.57504 0.454189 6.73006C0.151801 5.92401 0.0083659 5.06723 0.03176 4.20689C0.03591 3.83851 0.113837 3.47471 0.260884 3.13678C0.40793 2.79885 0.621131 2.49365 0.888047 2.23909C1.36471 1.78914 1.83 1.3221 2.28383 0.846523C2.64387 0.402951 3.14927 0.100401 3.71098 -0.0078125L4.12484 0.000739201Z" fill="white"/>
</g>
<defs>
<clipPath id="clip0_66_879">
<rect width="20" height="20" fill="white"/>
</clipPath>
</defs>
</svg>
