<svg width="22" height="22" viewBox="0 0 22 22" fill="none" xmlns="http://www.w3.org/2000/svg">
<path d="M11 0C6.73312 0 3.26562 3.46758 3.26562 7.73438C3.26562 9.17813 3.66532 10.5832 4.42582 11.795L10.4757 21.6956C10.5789 21.8631 10.7336 21.9663 10.9141 21.9921C11.1589 22.0307 11.4298 21.9276 11.5715 21.6827L17.6387 11.6918C18.3605 10.5059 18.7344 9.12661 18.7344 7.73438C18.7344 3.46758 15.2669 0 11 0ZM11 11.6016C8.83446 11.6016 7.13281 9.84844 7.13281 7.73438C7.13281 5.60738 8.873 3.86719 11 3.86719C13.127 3.86719 14.8672 5.60738 14.8672 7.73438C14.8672 9.83555 13.1914 11.6016 11 11.6016Z" fill="white"/>
</svg>
