<svg width="30" height="30" viewBox="0 0 30 30" fill="none" xmlns="http://www.w3.org/2000/svg">
<circle cx="15" cy="15" r="15" fill="#323232"/>
<g clip-path="url(#clip0_32_958)">
<path d="M21.9959 14.9562C21.9959 16.0073 22.0486 17.063 21.9832 18.1106C21.8923 19.5542 21.2954 20.7335 19.939 21.4122C19.2834 21.7307 18.5628 21.8924 17.834 21.8846C15.9521 21.8973 14.0702 21.8973 12.1884 21.8846C11.5056 21.889 10.8298 21.7477 10.206 21.4703C8.92857 20.8879 8.28443 19.8413 8.07547 18.4931C8.02882 18.1712 8.00664 17.8462 8.00914 17.5209C8.00278 15.7657 7.99006 14.0095 8.01641 12.2515C8.0206 11.7291 8.09485 11.2096 8.23718 10.707C8.69144 9.16248 9.78713 8.34481 11.3325 8.08406C11.7053 8.02335 12.0824 7.99297 12.46 7.99321C14.2292 7.98534 15.9978 7.98534 17.7658 7.99321C18.3945 7.98749 19.0187 8.09902 19.6065 8.3221C21.0138 8.86721 21.7297 9.95744 21.9487 11.4111C21.9929 11.7332 22.0144 12.0581 22.0132 12.3832C22.0223 13.2381 22.0132 14.094 22.0132 14.9489L21.9959 14.9562ZM15.0057 20.5754V20.599C15.1638 20.599 15.3228 20.599 15.4818 20.599C16.4257 20.579 17.3724 20.5936 18.3127 20.5254C19.3839 20.4473 20.1707 19.9022 20.5205 18.8583C20.6502 18.4561 20.7173 18.0362 20.7194 17.6136C20.7403 15.881 20.7303 14.1476 20.7258 12.415C20.7256 12.1581 20.7105 11.9015 20.6804 11.6464C20.5432 10.5053 19.8273 9.69034 18.7134 9.43141C18.4041 9.36178 18.0883 9.32463 17.7713 9.32058C16.6683 9.30059 15.5654 9.28969 14.4624 9.29604C13.5402 9.3015 12.6163 9.29604 11.6987 9.36781C10.6384 9.44958 9.85618 9.98743 9.5073 11.0232C9.37681 11.4172 9.30786 11.8291 9.30289 12.2442C9.28108 13.9922 9.29198 15.7402 9.29562 17.4882C9.29207 17.7377 9.30817 17.9871 9.34377 18.2341C9.50548 19.2435 9.97429 20.0385 10.9955 20.3664C11.3991 20.4905 11.818 20.5581 12.2401 20.5672C13.1614 20.5954 14.0836 20.5754 15.0057 20.5754Z" fill="white"/>
<path d="M11.3252 14.9279C11.3299 14.1994 11.5503 13.4886 11.9587 12.8853C12.3672 12.282 12.9452 11.8132 13.6198 11.5383C14.2945 11.2633 15.0355 11.1944 15.7493 11.3403C16.463 11.4862 17.1175 11.8404 17.6302 12.3581C18.1428 12.8757 18.4905 13.5337 18.6293 14.2489C18.7682 14.9641 18.692 15.7044 18.4104 16.3763C18.1288 17.0482 17.6544 17.6216 17.0471 18.024C16.4398 18.4264 15.7269 18.6399 14.9984 18.6374C14.5131 18.6369 14.0327 18.5404 13.5849 18.3534C13.137 18.1663 12.7307 17.8925 12.3892 17.5477C12.0477 17.2028 11.7779 16.7938 11.5953 16.3441C11.4127 15.8945 11.3209 15.4132 11.3252 14.9279ZM17.3905 14.9515C17.3909 14.481 17.2518 14.021 16.9907 13.6295C16.7297 13.2381 16.3585 12.9328 15.924 12.7523C15.4895 12.5718 15.0112 12.5242 14.5497 12.6154C14.0881 12.7067 13.664 12.9327 13.3308 13.2649C12.9977 13.5972 12.7706 14.0207 12.6781 14.482C12.5856 14.9433 12.632 15.4217 12.8113 15.8567C12.9907 16.2917 13.2949 16.6637 13.6857 16.9258C14.0764 17.1879 14.5361 17.3282 15.0066 17.3291C15.3194 17.3301 15.6293 17.2693 15.9185 17.1502C16.2078 17.0311 16.4707 16.8561 16.6922 16.6352C16.9136 16.4144 17.0894 16.1519 17.2092 15.863C17.329 15.5741 17.3907 15.2643 17.3905 14.9515Z" fill="white"/>
<path d="M18.7215 12.0063C18.5268 12.0063 18.3401 11.9289 18.2024 11.7913C18.0648 11.6536 17.9874 11.4669 17.9874 11.2722C17.9874 11.0775 18.0648 10.8908 18.2024 10.7531C18.3401 10.6154 18.5268 10.5381 18.7215 10.5381C18.9162 10.5381 19.1029 10.6154 19.2406 10.7531C19.3783 10.8908 19.4556 11.0775 19.4556 11.2722C19.4556 11.4669 19.3783 11.6536 19.2406 11.7913C19.1029 11.9289 18.9162 12.0063 18.7215 12.0063Z" fill="white"/>
</g>
<defs>
<clipPath id="clip0_32_958">
<rect width="14.0177" height="13.895" fill="white" transform="translate(8 8)"/>
</clipPath>
</defs>
</svg>
