<svg width="36" height="36" viewBox="0 0 36 36" fill="none" xmlns="http://www.w3.org/2000/svg">
<circle cx="17.9167" cy="17.9167" r="17.9167" fill="white"/>
<g clip-path="url(#clip0_65_842)">
<path d="M17.2705 21.8137C17.1094 21.8817 16.9547 21.9631 16.8081 22.057C16.1359 22.5723 15.4731 23.1001 14.8056 23.6233C14.4499 23.9067 14.1132 23.8096 13.9757 23.3788C13.5093 21.9393 13.0449 20.4994 12.5825 19.0591C12.5683 18.9944 12.5363 18.9345 12.4898 18.8859C12.4432 18.8372 12.3839 18.8016 12.3181 18.7827C11.1325 18.363 9.94687 17.9365 8.76123 17.5031C8.63917 17.4619 8.5307 17.3902 8.44704 17.2951C8.40811 17.2425 8.38235 17.1818 8.37178 17.118C8.3612 17.0541 8.36608 16.9888 8.38606 16.9271C8.40604 16.8653 8.44056 16.8089 8.48692 16.7622C8.53329 16.7154 8.59024 16.6797 8.65334 16.6576C8.88098 16.5594 9.11811 16.4806 9.35168 16.3937C14.3551 14.5338 19.3592 12.6738 24.3642 10.8139C24.4682 10.7706 24.5806 10.7496 24.6938 10.7522C24.9713 10.7762 25.1325 11.0229 25.072 11.3063C24.8895 12.1616 24.7053 13.0181 24.5195 13.8757C23.9149 16.6748 23.311 19.4746 22.7079 22.2752C22.5573 22.9721 22.4079 23.6702 22.2538 24.3659C22.1649 24.7647 21.8246 24.8915 21.4796 24.6516C20.2323 23.781 18.9897 22.907 17.7377 22.041C17.5883 21.9537 17.4321 21.8777 17.2705 21.8137ZM13.403 18.7529C13.4092 18.8161 13.4203 18.8788 13.4362 18.9403C13.701 19.8414 13.9674 20.7424 14.2353 21.6434C14.2661 21.7497 14.3171 21.8285 14.4452 21.8205C14.5732 21.8125 14.6207 21.7188 14.6361 21.6057C14.6918 21.1956 14.7546 20.7866 14.8021 20.3753C14.8425 19.9443 15.0551 19.5454 15.3949 19.2625C17.0239 17.8184 18.6423 16.3606 20.2643 14.9085L21.3883 13.902C21.457 13.8403 21.54 13.7763 21.457 13.6735C21.374 13.5707 21.2922 13.6392 21.2128 13.6883L21.1713 13.7123L15.5336 17.0575C14.955 17.4003 14.3776 17.743 13.7978 18.0857C13.6767 18.1534 13.5763 18.2508 13.507 18.368C13.4376 18.4852 13.4017 18.618 13.403 18.7529Z" fill="url(#paint0_linear_65_842)"/>
</g>
<defs>
<linearGradient id="paint0_linear_65_842" x1="13.3331" y1="10.2244" x2="17.5088" y2="24.8008" gradientUnits="userSpaceOnUse">
<stop stop-color="#4F4842"/>
<stop offset="0.848958" stop-color="#282728"/>
</linearGradient>
<clipPath id="clip0_65_842">
<rect width="16.7222" height="14.0228" fill="white" transform="translate(8.36108 10.75)"/>
</clipPath>
</defs>
</svg>
