<svg width="30" height="30" viewBox="0 0 30 30" fill="none" xmlns="http://www.w3.org/2000/svg">
<circle cx="15" cy="15" r="15" fill="#323232"/>
<g clip-path="url(#clip0_32_938)">
<path d="M15.3832 22.1216C14.2651 22.1241 13.1621 21.8628 12.1639 21.3587C12.1136 21.3307 12.0578 21.314 12.0003 21.3097C11.9429 21.3055 11.8852 21.3138 11.8313 21.334C10.6711 21.707 9.50958 22.0767 8.34667 22.4433C8.2477 22.4749 8.14872 22.5175 8.05662 22.4268C7.96453 22.3361 8.00714 22.2371 8.04013 22.1381C8.4186 21.0247 8.79754 19.9113 9.17692 18.7978C9.19764 18.7466 9.20607 18.6911 9.20153 18.636C9.197 18.5809 9.17962 18.5275 9.15081 18.4803C8.51457 17.3798 8.2069 16.12 8.26419 14.85C8.38378 12.2905 9.56319 10.3358 11.7392 8.99698C12.9309 8.2695 14.3167 7.92412 15.7104 8.00726C17.1375 8.0737 18.5115 8.56812 19.6537 9.42619C20.7959 10.2843 21.6534 11.4662 22.1146 12.8183C22.6111 14.2941 22.604 15.8928 22.0946 17.3642C21.5852 18.8355 20.6021 20.0963 19.2995 20.9491C18.136 21.7129 16.775 22.1204 15.3832 22.1216ZM10.2285 20.2948L10.3728 20.2549C10.9103 20.0845 11.4505 19.9168 11.9866 19.7394C12.0495 19.7147 12.1174 19.7058 12.1845 19.7134C12.2516 19.7211 12.3158 19.7451 12.3715 19.7834C13.0688 20.2288 13.8578 20.5107 14.6794 20.6082C15.6858 20.7324 16.7071 20.5832 17.6359 20.1764C18.5647 19.7695 19.3668 19.12 19.9579 18.2961C20.6066 17.3989 20.9701 16.3271 21.0009 15.2204C21.0318 14.1136 20.7287 13.0232 20.1311 12.0912C19.3908 10.9053 18.2295 10.0431 16.8802 9.6774C15.8495 9.3811 14.7546 9.39353 13.731 9.71314C12.7321 10.0094 11.837 10.581 11.1481 11.3627C10.3153 12.2911 9.82127 13.474 9.7464 14.719C9.67152 15.9639 10.0202 17.1976 10.7357 18.2191C10.7808 18.2767 10.8098 18.3452 10.8197 18.4177C10.8296 18.4902 10.8201 18.564 10.7921 18.6315C10.6038 19.1786 10.4223 19.723 10.2285 20.2948Z" fill="white"/>
<path d="M17.306 18.454C16.9033 18.434 16.5055 18.3558 16.1252 18.2217C14.5513 17.7489 13.4379 16.6973 12.5238 15.3859C12.2035 14.9254 11.9245 14.4471 11.8365 13.8849C11.7359 13.3412 11.8481 12.7797 12.1499 12.3164C12.2224 12.197 12.3188 12.0939 12.4331 12.0135C12.5473 11.933 12.677 11.8771 12.8138 11.8491C12.9939 11.8147 13.174 11.779 13.3554 11.7542C13.454 11.7337 13.5566 11.7481 13.6456 11.795C13.7347 11.8419 13.8046 11.9184 13.8434 12.0113C14.0633 12.5006 14.2709 12.9955 14.4743 13.4917C14.5609 13.7048 14.4482 13.889 14.3369 14.0567C14.2352 14.2024 14.1073 14.3316 13.9987 14.4691C13.9726 14.5048 13.9534 14.5818 13.9726 14.6065C14.5417 15.4175 15.229 16.0938 16.1541 16.498C16.1734 16.5104 16.195 16.5187 16.2176 16.5224C16.2402 16.5261 16.2633 16.525 16.2855 16.5194C16.3077 16.5137 16.3285 16.5035 16.3466 16.4894C16.3647 16.4753 16.3796 16.4576 16.3905 16.4375C16.5376 16.2437 16.6971 16.0567 16.851 15.8657C17.005 15.6746 17.1631 15.6127 17.4105 15.7076C17.5906 15.7749 17.7651 15.8602 17.9383 15.9426C18.2449 16.0883 18.5473 16.2396 18.8524 16.388C18.9212 16.4193 18.9793 16.4701 19.0194 16.5342C19.0594 16.5982 19.0798 16.6726 19.0779 16.7482C19.1301 17.8107 18.2806 18.3537 17.5122 18.4348C17.449 18.4485 17.3871 18.4499 17.306 18.454Z" fill="white"/>
</g>
<defs>
<clipPath id="clip0_32_938">
<rect width="14.4841" height="14.4828" fill="white" transform="translate(8 8)"/>
</clipPath>
</defs>
</svg>
