<svg xmlns="http://www.w3.org/2000/svg" width="64" height="64" viewBox="0 0 64 64" fill="none" m_init="2259300202009241704"> <g clip-path="url(#clip0)"> <path d="M11.3428 22.5918C10.6528 22.5918 10.0928 23.1514 10.0928 23.8413C10.0928 24.5312 10.6528 25.0913 11.3428 25.0913C12.0327 25.0913 12.5928 24.5312 12.5928 23.8413C12.5928 23.1514 12.0327 22.5918 11.3428 22.5918Z" fill="url(#paint0_linear)"/> <path d="M46.3652 37.5274C46.1313 37.293 45.813 37.1612 45.4814 37.1612C45.4688 37.1636 44.9883 37.1368 44.5977 37.5274L43.7144 38.4107L40.8423 35.5391C47.1802 26.6548 46.2163 14.3995 38.4111 6.59479C29.6191 -2.1972 15.3877 -2.19867 6.59473 6.59479C-2.19727 15.3863 -2.19873 29.6182 6.59473 38.4112C14.3804 46.1973 26.6309 47.1964 35.5386 40.8423L38.4106 43.7144L37.5273 44.5977C37.0396 45.0855 37.0391 45.8775 37.5273 46.3658L53.3301 62.1671C55.772 64.6104 59.7246 64.6119 62.167 62.1675C64.6104 59.7261 64.6113 55.773 62.167 53.3306L46.3652 37.5274ZM40.1782 41.9468L37.502 39.2706C37.813 38.9918 38.1172 38.7056 38.4111 38.4112C38.7056 38.1172 38.9917 37.813 39.2705 37.5025L41.9468 40.1788L40.1782 41.9468ZM8.3623 36.6436C0.546875 28.8287 0.545898 16.1783 8.3623 8.36237C16.1772 0.546936 28.8276 0.545959 36.6436 8.36237C44.4414 16.1597 44.481 28.8072 36.6436 36.6436C28.7178 44.5704 16.0708 44.3526 8.3623 36.6436ZM45.4814 40.1788L49.0161 43.7139L43.7139 49.0162L40.1787 45.4815L45.4814 40.1788ZM60.3994 60.4C58.9346 61.8663 56.564 61.8668 55.0981 60.4L45.4814 50.7838L50.7837 45.4815L60.3999 55.0987C61.8657 56.563 61.8672 58.9337 60.3994 60.4Z" fill="url(#paint1_linear)"/> <path d="M34.8765 10.1304C28.041 3.29492 16.9673 3.29102 10.1289 10.1294C3.30762 16.9521 3.30762 28.0537 10.1289 34.877C16.9683 41.7158 28.0356 41.7163 34.8755 34.877C41.6982 28.0537 41.6987 16.9526 34.8765 10.1304ZM33.1079 33.1089C27.2461 38.9707 17.7598 38.9722 11.8965 33.1094C6.0498 27.2607 6.0498 17.7451 11.8965 11.8965C17.7554 6.03809 27.248 6.03662 33.1089 11.8979C38.9565 17.7456 38.9561 27.2607 33.1079 33.1089Z" fill="url(#paint2_linear)"/> <path d="M22.5029 10.0054C19.1621 10.0054 16.0235 11.3052 13.6651 13.665C12.2979 15.0322 11.2915 16.6475 10.6743 18.4668C10.4527 19.1201 10.8023 19.8301 11.4561 20.0518C12.1109 20.2739 12.8198 19.9224 13.0415 19.27C13.5342 17.8174 14.3389 16.5264 15.4326 15.4321C17.3194 13.5449 19.8301 12.5054 22.5029 12.5054C23.1934 12.5054 23.7529 11.9458 23.7529 11.2554C23.7529 10.5649 23.1934 10.0054 22.5029 10.0054Z" fill="url(#paint3_linear)"/> </g> <defs> <linearGradient id="paint0_linear" x1="10.0928" y1="23.8261" x2="12.5928" y2="23.8261" gradientUnits="userSpaceOnUse"> <stop stop-color="#007ADF"/> <stop offset="1" stop-color="#00ECBC"/> </linearGradient> <linearGradient id="paint1_linear" x1="0.000183105" y1="31.6051" x2="63.9999" y2="31.6051" gradientUnits="userSpaceOnUse"> <stop stop-color="#007ADF"/> <stop offset="1" stop-color="#00ECBC"/> </linearGradient> <linearGradient id="paint2_linear" x1="5.01294" y1="22.2882" x2="39.9929" y2="22.2882" gradientUnits="userSpaceOnUse"> <stop stop-color="#007ADF"/> <stop offset="1" stop-color="#00ECBC"/> </linearGradient> <linearGradient id="paint3_linear" x1="10.6077" y1="14.9995" x2="23.7529" y2="14.9995" gradientUnits="userSpaceOnUse"> <stop stop-color="#007ADF"/> <stop offset="1" stop-color="#00ECBC"/> </linearGradient> <clipPath id="clip0"> <rect width="64" height="64" fill="white"/> </clipPath> </defs> </svg>