<svg xmlns="http://www.w3.org/2000/svg" width="48" height="48" viewBox="0 0 48 48" fill="none" m_init="2259300202009241704"> <path d="M18.9384 33.6377C18.7571 33.6377 18.5745 33.5753 18.4255 33.4484L13.2975 29.0819C13.1206 28.9311 13.0189 28.7109 13.0189 28.4783C13.0189 28.2461 13.1211 28.0259 13.2975 27.8751L18.4255 23.5087C18.7585 23.2248 19.2586 23.265 19.5425 23.598C19.826 23.9314 19.7862 24.4316 19.4527 24.715L15.0337 28.4783L19.4527 32.2416C19.7862 32.5255 19.826 33.0256 19.5425 33.3586C19.3855 33.543 19.1626 33.6377 18.9384 33.6377Z" fill="url(#paint0_linear)"/> <path d="M29.0616 33.6377C28.8374 33.6377 28.6146 33.543 28.458 33.3586C28.1741 33.0256 28.2144 32.5255 28.5473 32.2416L32.9664 28.4783L28.5473 24.715C28.2144 24.4316 28.1741 23.9314 28.458 23.598C28.7415 23.265 29.2421 23.2248 29.5746 23.5087L34.7026 27.8751C34.8795 28.0259 34.9812 28.2461 34.9812 28.4783C34.9812 28.7109 34.8795 28.9311 34.7026 29.0819L29.5746 33.4484C29.4256 33.5753 29.243 33.6377 29.0616 33.6377Z" fill="url(#paint1_linear)"/> <path d="M22.1847 36.9128C22.1303 36.9128 22.0755 36.907 22.0202 36.8955C21.5921 36.8053 21.318 36.3848 21.4082 35.9567L24.6041 20.7829C24.6943 20.3548 25.1144 20.0806 25.5429 20.1709C25.971 20.2611 26.2451 20.6812 26.1549 21.1097L22.959 36.2835C22.8803 36.6567 22.5513 36.9128 22.1847 36.9128Z" fill="url(#paint2_linear)"/> <path d="M42.6792 45.1796H5.32076C2.38709 45.1796 0 42.7929 0 39.8588V8.15096C0 5.21729 2.38709 2.8302 5.32076 2.8302H42.6792C45.6129 2.8302 48 5.21729 48 8.15096V39.8588C48 42.7929 45.6129 45.1796 42.6792 45.1796ZM5.32076 4.41511C3.26091 4.41511 1.58491 6.09111 1.58491 8.15096V39.8588C1.58491 41.9186 3.26091 43.5947 5.32076 43.5947H42.6792C44.7391 43.5947 46.4151 41.9186 46.4151 39.8588V8.15096C46.4151 6.09111 44.7391 4.41511 42.6792 4.41511H5.32076Z" fill="url(#paint3_linear)"/> <path d="M47.2075 15.5196H0.792453C0.354658 15.5196 0 15.1649 0 14.7271C0 14.2898 0.354658 13.9347 0.792453 13.9347H47.2075C47.6453 13.9347 48 14.2898 48 14.7271C48 15.1649 47.6453 15.5196 47.2075 15.5196Z" fill="url(#paint4_linear)"/> <path d="M13.5398 11.7275C12.1574 11.7275 11.032 10.6021 11.032 9.21973C11.032 7.83691 12.1574 6.71191 13.5398 6.71191C14.9226 6.71191 16.0476 7.83691 16.0476 9.21973C16.0476 10.6021 14.9226 11.7275 13.5398 11.7275ZM13.5398 8.29682C13.0312 8.29682 12.6169 8.71073 12.6169 9.21973C12.6169 9.72872 13.0312 10.1426 13.5398 10.1426C14.0488 10.1426 14.4627 9.72872 14.4627 9.21973C14.4627 8.71073 14.0488 8.29682 13.5398 8.29682Z" fill="url(#paint5_linear)"/> <path d="M5.83459 11.7032C4.45178 11.7032 3.32678 10.5782 3.32678 9.19543C3.32678 7.81262 4.45178 6.68762 5.83459 6.68762C7.21741 6.68762 8.34241 7.81262 8.34241 9.19543C8.34241 10.5782 7.21741 11.7032 5.83459 11.7032ZM5.83459 8.27253C5.32604 8.27253 4.91169 8.68689 4.91169 9.19543C4.91169 9.70443 5.32604 10.1183 5.83459 10.1183C6.34359 10.1183 6.7575 9.70443 6.7575 9.19543C6.7575 8.68689 6.34359 8.27253 5.83459 8.27253Z" fill="url(#paint6_linear)"/> <path d="M21.245 11.7515C19.8627 11.7515 18.7377 10.6265 18.7377 9.2437C18.7377 7.86133 19.8627 6.73633 21.245 6.73633C22.6279 6.73633 23.7529 7.86133 23.7529 9.2437C23.7529 10.6265 22.6279 11.7515 21.245 11.7515ZM21.245 8.32079C20.7365 8.32079 20.3226 8.73471 20.3226 9.2437C20.3226 9.75269 20.7365 10.1666 21.245 10.1666C21.754 10.1666 22.1679 9.75269 22.1679 9.2437C22.1679 8.73471 21.754 8.32079 21.245 8.32079Z" fill="url(#paint7_linear)"/> <defs> <linearGradient id="paint0_linear" x1="13.0189" y1="28.4149" x2="19.7315" y2="28.4149" gradientUnits="userSpaceOnUse"> <stop stop-color="#007ADF"/> <stop offset="1" stop-color="#00ECBC"/> </linearGradient> <linearGradient id="paint1_linear" x1="28.2688" y1="28.4149" x2="34.9812" y2="28.4149" gradientUnits="userSpaceOnUse"> <stop stop-color="#007ADF"/> <stop offset="1" stop-color="#00ECBC"/> </linearGradient> <linearGradient id="paint2_linear" x1="21.391" y1="28.4298" x2="26.1721" y2="28.4298" gradientUnits="userSpaceOnUse"> <stop stop-color="#007ADF"/> <stop offset="1" stop-color="#00ECBC"/> </linearGradient> <linearGradient id="paint3_linear" x1="0" y1="23.7435" x2="48" y2="23.7435" gradientUnits="userSpaceOnUse"> <stop stop-color="#007ADF"/> <stop offset="1" stop-color="#00ECBC"/> </linearGradient> <linearGradient id="paint4_linear" x1="0" y1="14.7174" x2="48" y2="14.7174" gradientUnits="userSpaceOnUse"> <stop stop-color="#007ADF"/> <stop offset="1" stop-color="#00ECBC"/> </linearGradient> <linearGradient id="paint5_linear" x1="11.032" y1="9.18877" x2="16.0476" y2="9.18877" gradientUnits="userSpaceOnUse"> <stop stop-color="#007ADF"/> <stop offset="1" stop-color="#00ECBC"/> </linearGradient> <linearGradient id="paint6_linear" x1="3.32678" y1="9.16447" x2="8.34241" y2="9.16447" gradientUnits="userSpaceOnUse"> <stop stop-color="#007ADF"/> <stop offset="1" stop-color="#00ECBC"/> </linearGradient> <linearGradient id="paint7_linear" x1="18.7377" y1="9.21296" x2="23.7529" y2="9.21296" gradientUnits="userSpaceOnUse"> <stop stop-color="#007ADF"/> <stop offset="1" stop-color="#00ECBC"/> </linearGradient> </defs> </svg>