<svg xmlns="http://www.w3.org/2000/svg" width="64" height="64" viewBox="0 0 64 64" fill="none" m_init="2259300202009241704"> <path d="M46.6066 40.9719C47.516 38.6365 47.9893 36.3022 47.9983 34.0457L48.1403 32.5003H48.2497C51.0067 32.5003 53.2497 30.2572 53.2497 27.5002C53.2497 25.1747 51.6538 23.2149 49.4997 22.6585V21.1824C52.5748 19.5115 55.385 17.414 57.8839 14.915C58.372 14.4269 58.372 13.6354 57.8839 13.1471C57.3956 12.6591 56.6044 12.6591 56.116 13.1471C54.59 14.6731 52.9436 16.0346 51.2002 17.2271H49.2466L46.5933 5.59525C45.9016 2.56238 42.908 0 40.056 0C39.6722 0 39.2928 0.045875 38.9286 0.136375L31.9997 1.85675L25.071 0.136375C24.7067 0.045875 24.3275 0 23.9437 0C21.0918 0 18.0981 2.56238 17.4062 5.59538L14.7528 17.2272H12.7996C11.0563 16.0347 9.40985 14.6733 7.88385 13.1473C7.3956 12.6593 6.60435 12.6593 6.11597 13.1473C5.62785 13.6354 5.62785 14.4269 6.11597 14.9151C8.61497 17.414 11.4248 19.5114 14.5 21.1822V22.6584C12.3458 23.2148 10.75 25.1746 10.75 27.5001C10.75 30.2571 12.993 32.5001 15.75 32.5001H15.8593L16.0013 34.0456C16.0103 36.3026 16.4838 38.6375 17.3937 40.9734C10.0967 45.889 5.74997 53.9997 5.74997 62.75C5.74997 63.4403 6.30972 64 6.99997 64H57C57.6902 64 58.25 63.4403 58.25 62.75C58.25 54.0181 53.8992 45.8867 46.6066 40.9719ZM19.8437 6.15125C20.2718 4.2745 22.2642 2.5 23.9437 2.5C24.1246 2.5 24.3012 2.52112 24.4685 2.56262L30.7498 4.12225V7.024C30.7498 7.71425 31.3096 8.274 31.9998 8.274C32.6901 8.274 33.2498 7.71425 33.2498 7.024V4.12225L39.5312 2.56262C39.6985 2.52112 39.8751 2.5 40.056 2.5C41.7353 2.5 43.7278 4.2745 44.156 6.15125L46.6825 17.2271H17.3172L19.8437 6.15125ZM46.8982 19.7271C42.3139 21.9569 37.2478 23.1364 32 23.1364C26.7521 23.1364 21.686 21.9569 17.1016 19.7271H46.8982ZM17.0001 30.0002H15.75C14.3715 30.0002 13.25 28.8787 13.25 27.5002C13.25 26.1217 14.3715 25.0002 15.75 25.0002C16.4402 25.0002 17 24.4406 17 23.7502V22.4204C17.3282 22.5678 17.6582 22.7119 17.9917 22.8501C22.4555 24.699 27.1685 25.6365 32 25.6365C36.8315 25.6365 41.5446 24.699 46.0082 22.8501C46.3416 22.712 46.6716 22.5679 46.9997 22.4206V23.7502C46.9997 24.4406 47.5593 25.0002 48.2497 25.0002C49.6282 25.0002 50.7497 26.1217 50.7497 27.5002C50.7497 28.8787 49.6282 30.0002 48.2497 30.0002H46.9998C46.3537 30.0002 45.8142 30.4926 45.7551 31.1359L45.6165 32.646C44.3371 32.4724 42.8781 32.0496 41.2486 31.5764C38.5019 30.7789 35.3887 29.8751 32 29.8751C28.6112 29.8751 25.498 30.7789 22.7513 31.5764C21.1218 32.0495 19.6628 32.4724 18.3835 32.646L18.2448 31.1359C18.1857 30.4926 17.6462 30.0002 17.0001 30.0002ZM15.75 61.5V55.971C15.75 55.2808 15.1902 54.721 14.5 54.721C13.8097 54.721 13.25 55.2808 13.25 55.971V61.5H8.28535C8.65272 54.5105 12.0857 48.0745 17.6965 43.8271V52.9214C17.6965 53.3224 17.8888 53.699 18.2137 53.9341C18.4297 54.0904 18.6866 54.1714 18.9466 54.1714C19.0777 54.1714 19.2096 54.1507 19.3373 54.1087L25.3155 52.1409C26.987 53.6855 28.8211 55.0975 30.7498 56.3186L30.75 61.5H15.75ZM20.1965 51.194V46.2434C20.2992 46.3949 20.4032 46.5461 20.5096 46.6971C21.3485 47.8877 22.2962 49.049 23.3303 50.1624L20.1965 51.194ZM26.5777 49.9132C26.5248 49.8511 26.4663 49.7949 26.4035 49.7448C21.8691 45.3479 18.9551 40.0499 18.5502 35.1432C20.081 34.9536 21.7273 34.4769 23.4483 33.9772C26.035 33.2262 28.9667 32.3751 32 32.3751C35.0332 32.3751 37.965 33.2264 40.5516 33.9772C42.2726 34.4769 43.919 34.9538 45.4497 35.1432C45.0423 40.0796 42.0957 45.4123 37.5141 49.8247C37.4498 49.8749 37.3905 49.9315 37.3366 49.994C35.7391 51.5105 33.9478 52.9149 32.0001 54.1531C30.0175 52.893 28.1967 51.4608 26.5777 49.9132ZM44.1862 45.6637V51.4361L40.5862 50.2511C41.6528 49.111 42.6288 47.9198 43.49 46.6973C43.7317 46.354 43.9632 46.0094 44.1862 45.6637ZM50.7501 61.5V55.971C50.7501 55.2808 50.1903 54.721 49.5001 54.721C48.8097 54.721 48.2501 55.2808 48.2501 55.971V61.5H33.25L33.2498 56.3186C35.143 55.1201 36.9445 53.7375 38.591 52.2262L45.0455 54.3509C45.1734 54.3929 45.3051 54.4135 45.4362 54.4135C45.6962 54.4135 45.9532 54.3325 46.1691 54.1763C46.494 53.9411 46.6863 53.5645 46.6863 53.1635V44.1246C52.066 48.3729 55.3547 54.6839 55.7146 61.5H50.7501Z" fill="url(#paint0_linear)"/> <path d="M38.25 26.2642C37.3893 26.2642 36.6874 26.9662 36.6874 27.8268C36.6874 28.6875 37.3893 29.3895 38.25 29.3895C39.1106 29.3895 39.8126 28.6875 39.8126 27.8268C39.8126 26.9662 39.1106 26.2642 38.25 26.2642Z" fill="url(#paint1_linear)"/> <path d="M25.7498 26.2642C24.8891 26.2642 24.1871 26.9662 24.1871 27.8268C24.1871 28.6875 24.8891 29.3895 25.7498 29.3895C26.6105 29.3895 27.3124 28.6875 27.3124 27.8268C27.3124 26.9662 26.6105 26.2642 25.7498 26.2642Z" fill="url(#paint2_linear)"/> <path d="M31.9999 9.36523C31.3096 9.36523 30.7499 9.92498 30.7499 10.6152V10.649C30.7499 11.3392 31.3096 11.899 31.9999 11.899C32.6901 11.899 33.2499 11.3392 33.2499 10.649V10.6152C33.2499 9.92486 32.6901 9.36523 31.9999 9.36523Z" fill="url(#paint3_linear)"/> <circle cx="32" cy="33" r="26" fill="#F3F3F3" fill-opacity="0.04"/> <defs> <linearGradient id="paint0_linear" x1="5.74988" y1="31.6049" x2="58.25" y2="31.6049" gradientUnits="userSpaceOnUse"> <stop stop-color="#007ADF"/> <stop offset="1" stop-color="#00ECBC"/> </linearGradient> <linearGradient id="paint1_linear" x1="36.6874" y1="27.8076" x2="39.8126" y2="27.8076" gradientUnits="userSpaceOnUse"> <stop stop-color="#007ADF"/> <stop offset="1" stop-color="#00ECBC"/> </linearGradient> <linearGradient id="paint2_linear" x1="24.1871" y1="27.8076" x2="27.3124" y2="27.8076" gradientUnits="userSpaceOnUse"> <stop stop-color="#007ADF"/> <stop offset="1" stop-color="#00ECBC"/> </linearGradient> <linearGradient id="paint3_linear" x1="30.7499" y1="10.6165" x2="33.2499" y2="10.6165" gradientUnits="userSpaceOnUse"> <stop stop-color="#007ADF"/> <stop offset="1" stop-color="#00ECBC"/> </linearGradient> </defs> </svg>