<svg xmlns="http://www.w3.org/2000/svg" width="48" height="48" viewBox="0 0 48 48" fill="none" m_init="2259300202009241704"> <g clip-path="url(#clip0)"> <path d="M26.0954 45.2378C25.7052 45.2378 25.389 44.9216 25.389 44.5315V42.6531C25.389 42.3841 25.1701 42.1652 24.9011 42.1652H23.0047C22.7357 42.1652 22.5168 42.3841 22.5168 42.6531V44.5315C22.5168 44.9216 22.2005 45.2378 21.8104 45.2378C21.4203 45.2378 21.104 44.9216 21.104 44.5315V42.6531C21.104 41.6051 21.9567 40.7524 23.0047 40.7524H24.9011C25.9491 40.7524 26.8018 41.6051 26.8018 42.6531V44.5315C26.8018 44.9216 26.4856 45.2378 26.0954 45.2378Z" fill="url(#paint0_linear)"/> <path d="M30.7446 19.4161C30.5126 19.1025 30.0702 19.0367 29.7565 19.2687C29.443 19.5008 29.3771 19.9432 29.6091 20.2568L33.1169 24.9944C33.5071 25.5214 33.4788 26.3151 33.0527 26.8014L29.2735 31.1143H18.6324L14.8532 26.8014C14.427 26.3151 14.3987 25.5214 14.789 24.9944L21.7531 15.5885V20.948C20.8703 21.6265 20.3543 22.6643 20.3543 23.7969C20.3543 25.7812 21.9686 27.3956 23.9529 27.3956C25.9372 27.3956 27.5516 25.7812 27.5516 23.7969C27.5516 22.7152 27.0702 21.7051 26.2469 21.0246V15.7157L27.798 17.8107C28.0302 18.1243 28.4726 18.1902 28.7861 17.9581C29.0997 17.7259 29.1656 17.2835 28.9335 16.97L25.9036 12.8776C25.4266 12.2334 24.7156 11.8639 23.953 11.8639C23.1904 11.8639 22.4794 12.2334 22.0024 12.8776L13.6535 24.1538C12.8706 25.2113 12.9295 26.7498 13.7908 27.7327L16.9425 31.3293C16.1555 31.6963 15.6085 32.4945 15.6085 33.4186V36.7886C15.6085 37.8203 16.2901 38.6958 17.2267 38.9885L17.4194 44.5562C17.4326 44.9378 17.746 45.2382 18.1249 45.2382C18.1332 45.2382 18.1415 45.2381 18.1498 45.2378C18.5397 45.2242 18.8448 44.8973 18.8313 44.5074L18.6439 39.0929H29.3563L29.1689 44.5074C29.1554 44.8973 29.4606 45.2242 29.8504 45.2378C29.8587 45.2381 29.867 45.2382 29.8753 45.2382C30.2541 45.2382 30.5677 44.9378 30.5808 44.5562L30.7747 38.9562C31.6618 38.6355 32.2976 37.785 32.2976 36.7886V33.4186C32.2976 32.4945 31.7505 31.6963 30.9635 31.3293L34.1153 27.7327C34.9765 26.7499 35.0354 25.2113 34.2525 24.1538L30.7446 19.4161ZM23.9529 13.2766C24.2677 13.2766 24.5572 13.4334 24.768 13.7181L24.8341 13.8074V21.3796C24.8341 21.6172 24.9536 21.839 25.1522 21.9696C25.7699 22.3761 26.1388 23.0593 26.1388 23.7967C26.1388 25.002 25.1582 25.9826 23.9529 25.9826C22.7476 25.9826 21.7671 25.002 21.7671 23.7967C21.7671 23.0243 22.1625 22.3243 22.8248 21.9241C23.0365 21.7962 23.1659 21.5669 23.1659 21.3196V13.6839C23.3741 13.4217 23.6515 13.2766 23.9529 13.2766ZM30.8848 36.7884C30.8848 37.2799 30.4849 37.6798 29.9934 37.6798H17.9125C17.421 37.6798 17.0211 37.2799 17.0211 36.7884V33.4184C17.0211 32.9269 17.4211 32.527 17.9125 32.527H29.9934C30.485 32.527 30.8848 32.9269 30.8848 33.4184V36.7884Z" fill="url(#paint1_linear)"/> <path d="M9.89536 19.6327C9.98813 17.3946 10.6106 15.2034 11.7123 13.2617C11.9048 12.9223 11.7859 12.4912 11.4465 12.2987C11.1072 12.1061 10.6761 12.2252 10.4836 12.5645C9.26253 14.7164 8.57601 17.146 8.48145 19.6258C7.2624 19.9358 6.35803 21.0423 6.35803 22.3565C6.35803 23.91 7.62191 25.1739 9.17541 25.1739C10.7289 25.1739 11.9928 23.91 11.9928 22.3565C11.9928 21.0518 11.1012 19.9517 9.89536 19.6327ZM9.17541 23.7611C8.40092 23.7611 7.77082 23.131 7.77082 22.3565C7.77082 21.582 8.40092 20.9519 9.17541 20.9519C9.94989 20.9519 10.58 21.582 10.58 22.3565C10.58 23.131 9.94989 23.7611 9.17541 23.7611Z" fill="url(#paint2_linear)"/> <path d="M46.5043 2.76221H44.2343C43.4096 2.76221 42.7386 3.43319 42.7386 4.25787V4.68651H26.6307V4.25787C26.6307 3.43319 25.9597 2.76221 25.135 2.76221H22.865C22.0403 2.76221 21.3693 3.43319 21.3693 4.25787V4.68651H5.2614V4.25787C5.2614 3.43319 4.59042 2.76221 3.76573 2.76221H1.49567C0.670978 2.76221 0 3.43319 0 4.25787V6.52794C0 7.35263 0.670978 8.0236 1.49567 8.0236H3.76573C4.59042 8.0236 5.2614 7.35263 5.2614 6.52794V6.0993H17.5241C15.5629 7.00009 13.7926 8.30861 12.3389 9.96006C12.0811 10.2529 12.1094 10.6992 12.4024 10.957C12.5366 11.0751 12.703 11.1332 12.8689 11.1332C13.0648 11.1332 13.2597 11.0522 13.3993 10.8936C15.4882 8.52081 18.2943 6.92568 21.3693 6.34541V6.52803C21.3693 7.35272 22.0403 8.0237 22.865 8.0237H25.135C25.9597 8.0237 26.6307 7.35272 26.6307 6.52803V6.34531C33.0435 7.55362 37.8347 13.0837 38.1054 19.6326C36.8992 19.9514 36.0072 21.0516 36.0072 22.3567C36.0072 23.9102 37.271 25.1741 38.8245 25.1741C40.378 25.1741 41.6419 23.9102 41.6419 22.3567C41.6419 21.0427 40.7376 19.9361 39.5187 19.626C39.2929 13.684 35.6839 8.4967 30.4763 6.09949H42.7386V6.52812C42.7386 7.35281 43.4096 8.02379 44.2343 8.02379H46.5043C47.329 8.02379 48 7.35281 48 6.52812V4.25787C48 3.43319 47.329 2.76221 46.5043 2.76221ZM3.84861 6.52794C3.84861 6.57362 3.81141 6.61082 3.76573 6.61082H1.49567C1.44999 6.61082 1.41278 6.57362 1.41278 6.52794V4.25787C1.41278 4.21219 1.44999 4.17499 1.49567 4.17499H3.76573C3.81141 4.17499 3.84861 4.21219 3.84861 4.25787V6.52794ZM40.2291 22.3565C40.2291 23.131 39.599 23.7611 38.8245 23.7611C38.05 23.7611 37.4199 23.131 37.4199 22.3565C37.4199 21.582 38.05 20.9519 38.8245 20.9519C39.599 20.9519 40.2291 21.582 40.2291 22.3565ZM25.2179 6.52794C25.2179 6.57362 25.1807 6.61082 25.135 6.61082H22.865C22.8193 6.61082 22.7821 6.57362 22.7821 6.52794V4.25787C22.7821 4.21219 22.8193 4.17499 22.865 4.17499H25.135C25.1807 4.17499 25.2179 4.21219 25.2179 4.25787V6.52794ZM46.5872 6.52794C46.5872 6.57362 46.55 6.61082 46.5043 6.61082H44.2343C44.1886 6.61082 44.1514 6.57362 44.1514 6.52794V4.25787C44.1514 4.21219 44.1886 4.17499 44.2343 4.17499H46.5043C46.55 4.17499 46.5872 4.21219 46.5872 4.25787V6.52794Z" fill="url(#paint3_linear)"/> </g> <defs> <linearGradient id="paint0_linear" x1="21.104" y1="42.9675" x2="26.8018" y2="42.9675" gradientUnits="userSpaceOnUse"> <stop stop-color="#007ADF"/> <stop offset="1" stop-color="#00ECBC"/> </linearGradient> <linearGradient id="paint1_linear" x1="13.1034" y1="28.345" x2="34.8026" y2="28.345" gradientUnits="userSpaceOnUse"> <stop stop-color="#007ADF"/> <stop offset="1" stop-color="#00ECBC"/> </linearGradient> <linearGradient id="paint2_linear" x1="6.35803" y1="18.6102" x2="11.9928" y2="18.6102" gradientUnits="userSpaceOnUse"> <stop stop-color="#007ADF"/> <stop offset="1" stop-color="#00ECBC"/> </linearGradient> <linearGradient id="paint3_linear" x1="0" y1="13.8298" x2="48" y2="13.8298" gradientUnits="userSpaceOnUse"> <stop stop-color="#007ADF"/> <stop offset="1" stop-color="#00ECBC"/> </linearGradient> <clipPath id="clip0"> <rect width="48" height="48" fill="white"/> </clipPath> </defs> </svg>