<svg xmlns="http://www.w3.org/2000/svg" width="64" height="64" viewBox="0 0 64 64" fill="none" m_init="2259300202009241704"> <g clip-path="url(#clip0)"> <path d="M62.7499 33.4998H28.1781L30.9296 28.7341C31.2748 28.1362 31.0699 27.3717 30.4721 27.0266L21.8751 22.0631C21.5881 21.8975 21.2471 21.8526 20.9266 21.9382C20.6064 22.0241 20.3334 22.2335 20.1676 22.5206L13.6564 33.7985C13.3008 33.2929 12.8368 32.8662 12.2855 32.5479C10.2263 31.3589 7.58345 32.0669 6.39471 34.1264C5.79684 35.162 5.67909 36.345 5.97121 37.4165C5.96446 37.4183 5.95758 37.4196 5.95083 37.4215C4.83822 37.7196 3.90822 38.4331 3.33223 39.4308C2.75623 40.4283 2.60323 41.5905 2.90135 42.7031C3.19948 43.8157 3.9131 44.7457 4.91072 45.3217C5.46221 45.6401 6.06408 45.8272 6.67996 45.8823L0.167744 57.1614C0.0019945 57.4485 -0.0430052 57.7896 0.0428693 58.1099C0.128744 58.4301 0.338118 58.7031 0.625241 58.8689L9.22219 63.8324C9.41906 63.946 9.63394 64 9.84606 64C10.2781 64 10.6982 63.7759 10.9297 63.3749L24.5001 39.8704V62.7496C24.5001 63.44 25.0597 63.9996 25.7501 63.9996H62.7499C63.4403 63.9996 63.9999 63.44 63.9999 62.7496V34.7498C63.9999 34.0594 63.4403 33.4998 62.7499 33.4998ZM21.7076 24.8531L28.1396 28.5666L20.8896 41.1239L14.4577 37.4104L21.7076 24.8531ZM17.8896 46.32L11.4577 42.6065L13.2077 39.5754L19.6396 43.2889L17.8896 46.32ZM8.55957 35.3763C8.89494 34.7954 9.50544 34.4704 10.1323 34.4704C10.4397 34.4704 10.7508 34.5485 11.0356 34.7128C11.9011 35.2125 12.1985 36.323 11.6991 37.1886L10.7927 38.7585L9.22307 37.8523C8.35745 37.3525 8.05982 36.2418 8.55957 35.3763ZM8.63632 42.4931C8.1367 43.3586 7.02608 43.6564 6.16033 43.1566C5.29484 42.6569 4.99722 41.5462 5.49696 40.6806C5.73909 40.2614 6.12983 39.9615 6.59758 39.8361C6.7537 39.7944 6.9122 39.7736 7.06958 39.7736C7.38358 39.7736 7.69357 39.856 7.97295 40.0173L9.54256 40.9235L8.63632 42.4931ZM9.38969 61.0424L2.95773 57.3289L10.2077 44.7716L16.6396 48.4851L9.38969 61.0424ZM27.0001 35.9998H40V61.4996H27.0001V35.9998ZM61.4999 61.4996H48.5V54.7182C48.5 54.0278 47.9403 53.4682 47.25 53.4682C46.5596 53.4682 46 54.0278 46 54.7182V61.4996H42.5V35.9998H46V43.4682C46 44.1586 46.5596 44.7182 47.25 44.7182C47.9403 44.7182 48.5 44.1586 48.5 43.4682V35.9998H61.4999V61.4996Z" fill="url(#paint0_linear)"/> <path d="M44.25 29.4928C44.9404 29.4928 45.5 28.9331 45.5 28.2428V14.7283C45.5 14.0379 44.9404 13.4783 44.25 13.4783C43.5596 13.4783 43 14.0379 43 14.7283V28.2428C43 28.9331 43.5596 29.4928 44.25 29.4928Z" fill="url(#paint1_linear)"/> <path d="M51.8367 29.4925C52.527 29.4925 53.0867 28.9329 53.0867 28.2425C53.0867 23.4712 54.9447 18.9856 58.3184 15.612C58.8065 15.1239 58.8065 14.3324 58.3184 13.8441C57.8303 13.356 57.0388 13.356 56.5507 13.8441C52.7048 17.6901 50.5867 22.8035 50.5867 28.2425C50.5867 28.9329 51.1463 29.4925 51.8367 29.4925Z" fill="url(#paint2_linear)"/> <path d="M35.4131 28.2427C35.4131 28.9331 35.9728 29.4927 36.6631 29.4927C37.3535 29.4927 37.9131 28.9331 37.9131 28.2427C37.9131 22.8037 35.7951 17.6902 31.9491 13.8443C31.461 13.3562 30.6695 13.3562 30.1814 13.8445C29.6933 14.3326 29.6933 15.1241 30.1815 15.6122C33.5551 18.9859 35.4131 23.4715 35.4131 28.2427Z" fill="url(#paint3_linear)"/> <path d="M50.0833 4.16663C50.7736 4.16663 51.3333 3.607 51.3333 2.91663V1.25C51.3333 0.559625 50.7736 0 50.0833 0C49.3929 0 48.8333 0.559625 48.8333 1.25V2.91663C48.8333 3.60713 49.3929 4.16663 50.0833 4.16663Z" fill="url(#paint4_linear)"/> <path d="M50.0833 12.5C50.7736 12.5 51.3333 11.9404 51.3333 11.25V9.58325C51.3333 8.89288 50.7736 8.33325 50.0833 8.33325C49.3929 8.33325 48.8333 8.89288 48.8333 9.58325V11.25C48.8333 11.9404 49.3929 12.5 50.0833 12.5Z" fill="url(#paint5_linear)"/> <path d="M53.4165 7.5H55.0831C55.7735 7.5 56.3331 6.94037 56.3331 6.25C56.3331 5.55963 55.7735 5 55.0831 5H53.4165C52.7261 5 52.1665 5.55963 52.1665 6.25C52.1665 6.94037 52.7261 7.5 53.4165 7.5Z" fill="url(#paint6_linear)"/> <path d="M45.0833 7.5H46.75C47.4404 7.5 48 6.94037 48 6.25C48 5.55963 47.4404 5 46.75 5H45.0833C44.3929 5 43.8333 5.55963 43.8333 6.25C43.8333 6.94037 44.3929 7.5 45.0833 7.5Z" fill="url(#paint7_linear)"/> <path d="M24.468 12.1309C26.6736 12.1309 28.468 10.3365 28.468 8.13086C28.468 5.92523 26.6736 4.13086 24.468 4.13086C22.2624 4.13086 20.468 5.92523 20.468 8.13086C20.468 10.3365 22.2624 12.1309 24.468 12.1309ZM24.468 6.63086C25.2951 6.63086 25.968 7.30373 25.968 8.13086C25.968 8.95798 25.2951 9.63086 24.468 9.63086C23.6409 9.63086 22.968 8.95798 22.968 8.13086C22.968 7.30373 23.641 6.63086 24.468 6.63086Z" fill="url(#paint8_linear)"/> <path d="M36.6638 8.0415C36.9926 8.0415 37.3151 7.909 37.5476 7.67525C37.7801 7.44275 37.9138 7.1215 37.9138 6.7915C37.9138 6.46275 37.7801 6.14025 37.5476 5.90775C37.3151 5.67525 36.9926 5.5415 36.6638 5.5415C36.3351 5.5415 36.0124 5.67525 35.7788 5.90775C35.5463 6.14025 35.4138 6.46275 35.4138 6.7915C35.4138 7.12025 35.5463 7.44275 35.7788 7.67525C36.0124 7.909 36.3338 8.0415 36.6638 8.0415Z" fill="url(#paint9_linear)"/> <path d="M58.8212 24.9599C59.0537 25.1924 59.3762 25.3262 59.705 25.3262C60.0337 25.3262 60.3562 25.1924 60.5887 24.9599C60.8225 24.7274 60.955 24.4049 60.955 24.0762C60.955 23.7474 60.8225 23.4249 60.5887 23.1924C60.3562 22.9599 60.0337 22.8262 59.705 22.8262C59.3762 22.8262 59.0537 22.9599 58.8212 23.1924C58.5887 23.4249 58.455 23.7474 58.455 24.0762C58.4548 24.4049 58.5887 24.7274 58.8212 24.9599Z" fill="url(#paint10_linear)"/> <path d="M62.7499 10.8337C63.0786 10.8337 63.4011 10.7 63.6336 10.4675C63.8661 10.235 63.9999 9.91249 63.9999 9.58374C63.9999 9.25374 63.8661 8.93249 63.6336 8.69874C63.4011 8.46624 63.0786 8.33374 62.7499 8.33374C62.4211 8.33374 62.0986 8.46624 61.8661 8.69874C61.6336 8.93249 61.4999 9.25374 61.4999 9.58374C61.4999 9.91249 61.6336 10.235 61.8661 10.4675C62.0986 10.7 62.421 10.8337 62.7499 10.8337Z" fill="url(#paint11_linear)"/> <path d="M47.25 47.8435C46.9212 47.8435 46.5987 47.976 46.3662 48.2098C46.1337 48.4423 46 48.7635 46 49.0935C46 49.4223 46.1337 49.7448 46.3662 49.9773C46.5987 50.2098 46.9212 50.3435 47.25 50.3435C47.5788 50.3435 47.9012 50.2098 48.1337 49.9773C48.3662 49.7448 48.5 49.4223 48.5 49.0935C48.5 48.7635 48.3662 48.4423 48.1337 48.2098C47.9012 47.976 47.5788 47.8435 47.25 47.8435Z" fill="url(#paint12_linear)"/> </g> <defs> <linearGradient id="paint0_linear" x1="0.000244141" y1="42.688" x2="63.9999" y2="42.688" gradientUnits="userSpaceOnUse"> <stop stop-color="#007ADF"/> <stop offset="1" stop-color="#00ECBC"/> </linearGradient> <linearGradient id="paint1_linear" x1="43" y1="21.3867" x2="45.5" y2="21.3867" gradientUnits="userSpaceOnUse"> <stop stop-color="#007ADF"/> <stop offset="1" stop-color="#00ECBC"/> </linearGradient> <linearGradient id="paint2_linear" x1="50.5867" y1="21.3864" x2="58.6845" y2="21.3864" gradientUnits="userSpaceOnUse"> <stop stop-color="#007ADF"/> <stop offset="1" stop-color="#00ECBC"/> </linearGradient> <linearGradient id="paint3_linear" x1="29.8153" y1="21.3866" x2="37.9131" y2="21.3866" gradientUnits="userSpaceOnUse"> <stop stop-color="#007ADF"/> <stop offset="1" stop-color="#00ECBC"/> </linearGradient> <linearGradient id="paint4_linear" x1="48.8333" y1="2.05759" x2="51.3333" y2="2.05759" gradientUnits="userSpaceOnUse"> <stop stop-color="#007ADF"/> <stop offset="1" stop-color="#00ECBC"/> </linearGradient> <linearGradient id="paint5_linear" x1="48.8333" y1="10.3909" x2="51.3333" y2="10.3909" gradientUnits="userSpaceOnUse"> <stop stop-color="#007ADF"/> <stop offset="1" stop-color="#00ECBC"/> </linearGradient> <linearGradient id="paint6_linear" x1="52.1665" y1="6.23457" x2="56.3331" y2="6.23457" gradientUnits="userSpaceOnUse"> <stop stop-color="#007ADF"/> <stop offset="1" stop-color="#00ECBC"/> </linearGradient> <linearGradient id="paint7_linear" x1="43.8333" y1="6.23457" x2="48" y2="6.23457" gradientUnits="userSpaceOnUse"> <stop stop-color="#007ADF"/> <stop offset="1" stop-color="#00ECBC"/> </linearGradient> <linearGradient id="paint8_linear" x1="20.468" y1="8.08147" x2="28.468" y2="8.08147" gradientUnits="userSpaceOnUse"> <stop stop-color="#007ADF"/> <stop offset="1" stop-color="#00ECBC"/> </linearGradient> <linearGradient id="paint9_linear" x1="35.4138" y1="6.77607" x2="37.9138" y2="6.77607" gradientUnits="userSpaceOnUse"> <stop stop-color="#007ADF"/> <stop offset="1" stop-color="#00ECBC"/> </linearGradient> <linearGradient id="paint10_linear" x1="58.455" y1="24.0607" x2="60.955" y2="24.0607" gradientUnits="userSpaceOnUse"> <stop stop-color="#007ADF"/> <stop offset="1" stop-color="#00ECBC"/> </linearGradient> <linearGradient id="paint11_linear" x1="61.4999" y1="9.56831" x2="63.9999" y2="9.56831" gradientUnits="userSpaceOnUse"> <stop stop-color="#007ADF"/> <stop offset="1" stop-color="#00ECBC"/> </linearGradient> <linearGradient id="paint12_linear" x1="46" y1="49.0781" x2="48.5" y2="49.0781" gradientUnits="userSpaceOnUse"> <stop stop-color="#007ADF"/> <stop offset="1" stop-color="#00ECBC"/> </linearGradient> <clipPath id="clip0"> <rect width="64" height="64" fill="white"/> </clipPath> </defs> </svg>