<svg xmlns="http://www.w3.org/2000/svg" width="48" height="48" viewBox="0 0 48 48" fill="none" m_init="2259300202009241704"> <g clip-path="url(#clip0)"> <path d="M42.472 33.874C42.2088 33.7649 41.9058 33.8252 41.7042 34.0266L34.0049 41.726C33.8034 41.9275 33.7432 42.2305 33.8523 42.4938C33.9612 42.7571 34.2183 42.9287 34.5032 42.9287H42.2025C42.5917 42.9287 42.9071 42.6133 42.9071 42.2242V34.5248C42.907 34.2399 42.7353 33.983 42.472 33.874ZM36.2038 41.5197L41.4978 36.2257V41.5197H36.2038Z" fill="url(#paint0_linear)"/> <path d="M47.5652 22.5814C47.3019 22.4722 46.9989 22.5325 46.7974 22.734L44.6873 24.844V10.4973C44.6873 10.1082 44.3719 9.7928 43.9828 9.7928H38.5696L40.5346 7.8278C40.5349 7.82751 40.5351 7.82714 40.5354 7.82686L42.4288 5.93348C42.8345 5.52782 43.0579 4.9882 43.0579 4.41444C43.0579 3.84069 42.8345 3.30125 42.4288 2.89541L40.2394 0.705968C39.8337 0.300311 39.2941 0.0769043 38.7203 0.0769043C38.1466 0.0769043 37.607 0.300311 37.2013 0.705968L35.307 2.60028L33.018 4.88929L28.1146 9.7927H6.24564V2.82285C6.24564 2.43369 5.93017 2.11831 5.54111 2.11831C2.48579 2.1185 0 4.6041 0 7.65961V37.5834C0 37.6354 0.00600001 37.686 0.0166875 37.7348C0.114 39.0312 0.674908 40.2358 1.61232 41.1503C2.61432 42.1275 3.93704 42.6657 5.33692 42.6657H26.8655L22.8109 46.7203C22.6095 46.9219 22.5492 47.2248 22.6582 47.4882C22.7672 47.7514 23.0242 47.9231 23.3091 47.9231H47.2956C47.6846 47.9231 48.0001 47.6077 48.0001 47.2185V23.2323C48.0001 22.9474 47.8283 22.6904 47.5652 22.5814ZM38.1979 1.70244C38.4859 1.41425 38.9551 1.41425 39.2431 1.70244L41.4326 3.89197C41.7208 4.18007 41.7208 4.6491 41.4326 4.93729L40.0366 6.33342L36.8016 3.09857L38.1979 1.70244ZM35.8053 4.09494L39.0401 7.3297L37.7474 8.62242L34.5127 5.38766L35.8053 4.09494ZM46.5912 31.1487H45.2914C44.9022 31.1487 44.5868 31.4641 44.5868 31.8532C44.5868 32.2424 44.9022 32.5578 45.2914 32.5578H46.5912V34.6808H45.2914C44.9022 34.6808 44.5868 34.9962 44.5868 35.3854C44.5868 35.7745 44.9022 36.0899 45.2914 36.0899H46.5912V38.2129H45.2914C44.9022 38.2129 44.5868 38.5283 44.5868 38.9174C44.5868 39.3066 44.9022 39.622 45.2914 39.622H46.5912V41.745H45.2914C44.9022 41.745 44.5868 42.0605 44.5868 42.4496C44.5868 42.8387 44.9022 43.1541 45.2914 43.1541H46.5912V46.5143H25.0099L32.1263 39.398C32.4015 39.1227 32.4015 38.6768 32.1263 38.4016C32.0947 38.37 32.0608 38.3426 32.0253 38.3183C31.7509 38.1304 31.3735 38.158 31.1298 38.4016L28.2746 41.2569H5.33701C3.20026 41.2569 1.48013 39.5887 1.41244 37.4558C1.41647 37.3219 1.42688 37.1891 1.44357 37.0579C1.44366 37.0571 1.44375 37.0564 1.44385 37.0556C1.45172 36.9933 1.46119 36.9312 1.47197 36.8695C1.47319 36.8625 1.4745 36.8555 1.47572 36.8484C1.48557 36.7934 1.49663 36.7387 1.50872 36.6841C1.5121 36.6689 1.51566 36.6537 1.51922 36.6386C1.52991 36.5925 1.54144 36.5467 1.55382 36.501C1.56057 36.4763 1.5676 36.4518 1.57482 36.4271C1.58513 36.3913 1.59582 36.3556 1.60716 36.3203C1.6185 36.2849 1.6306 36.2499 1.64288 36.215C1.65141 36.1905 1.65985 36.166 1.66903 36.1418C1.68619 36.0956 1.70438 36.05 1.72313 36.0047C1.72847 35.9917 1.73372 35.9784 1.73925 35.9654C1.76335 35.9092 1.78838 35.8536 1.81482 35.7986C1.81594 35.7963 1.81697 35.7939 1.8181 35.7916C2.36916 34.6512 3.42901 33.801 4.70092 33.5372C4.70448 33.5364 4.70804 33.5356 4.7116 33.5348C4.76992 33.5229 4.82879 33.5127 4.88804 33.5033C4.89789 33.5017 4.90773 33.4997 4.91776 33.4982C4.97129 33.49 5.02539 33.4837 5.07948 33.4776C5.09467 33.4759 5.10976 33.4735 5.12504 33.472C5.17726 33.4668 5.22995 33.4633 5.28264 33.46C5.29932 33.459 5.31601 33.4572 5.3327 33.4564C5.4017 33.4529 5.47126 33.4511 5.54111 33.4511C5.93017 33.4511 6.24564 33.1357 6.24564 32.7466V27.6382C6.24564 27.2491 5.93017 26.9337 5.54111 26.9337C5.15204 26.9337 4.83657 27.2491 4.83657 27.6382V32.0864C3.64688 32.2369 2.5426 32.7675 1.67185 33.6178C1.58025 33.7073 1.49344 33.8003 1.40888 33.8948V7.65961C1.40888 5.62138 2.89257 3.92291 4.83648 3.58747V10.4973V24.8202V24.8203C4.83648 25.2094 5.15195 25.5248 5.54101 25.5248C5.93007 25.5248 6.24554 25.2094 6.24554 24.8203V24.8202V11.2019H26.7056L22.8108 15.0966C22.5357 15.3719 22.5357 15.8178 22.8108 16.093C23.086 16.3681 23.532 16.3681 23.8071 16.093L28.9046 10.9955C28.9048 10.9953 28.9049 10.9951 28.9051 10.9951L33.5162 6.38395L36.7508 9.6188L36.3713 9.9983C36.371 9.99858 36.3707 9.99886 36.3704 9.99914L22.1646 24.2051L18.9299 20.9704L21.73 18.1702C22.0051 17.895 22.0051 17.449 21.73 17.1738C21.4548 16.8988 21.0088 16.8988 20.7337 17.1738L17.4353 20.4722C17.4177 20.4898 17.4012 20.5084 17.3857 20.5276C17.3805 20.5339 17.3759 20.5408 17.3711 20.5474C17.3611 20.5607 17.3514 20.574 17.3423 20.5879C17.3371 20.5959 17.3324 20.6042 17.3276 20.6125C17.3198 20.6256 17.3123 20.6389 17.3054 20.6525C17.3009 20.6614 17.2969 20.6703 17.2928 20.6794C17.2865 20.6932 17.2807 20.7073 17.2753 20.7213C17.2735 20.7263 17.271 20.731 17.2693 20.736L15.8967 24.6243L14.9608 27.2754C14.9485 27.3107 14.9396 27.3465 14.9329 27.3826H12.5899C12.2008 27.3826 11.8854 27.698 11.8854 28.0871C11.8854 28.4763 12.2008 28.7916 12.5899 28.7916H32.1006C32.4898 28.7916 32.8052 28.4763 32.8052 28.0871C32.8052 27.698 32.4898 27.3826 32.1006 27.3826H18.1025L22.3991 25.8659C22.4026 25.8646 22.406 25.8628 22.4096 25.8615C22.4263 25.8553 22.4427 25.8484 22.4589 25.841C22.4654 25.838 22.4718 25.8351 22.4781 25.832C22.495 25.8236 22.5116 25.8143 22.5279 25.8044C22.5331 25.8012 22.5386 25.7983 22.5437 25.795C22.5607 25.7841 22.5772 25.7722 22.5934 25.7597C22.5975 25.7566 22.6017 25.7539 22.6056 25.7507C22.6252 25.7349 22.6444 25.718 22.6626 25.6998L37.1605 11.202H43.2782V26.2532L33.2004 36.331C32.9253 36.6063 32.9253 37.0523 33.2004 37.3274C33.2176 37.3446 33.2355 37.3607 33.2539 37.3758C33.3831 37.4811 33.5409 37.5338 33.6986 37.5338C33.8563 37.5338 34.0142 37.4811 34.1433 37.3758C34.1617 37.3608 34.1796 37.3446 34.1968 37.3274C34.1971 37.3271 34.1968 37.3274 34.1971 37.3271L46.5912 24.9329V31.1487ZM20.876 24.9091L18.8579 25.6215L17.5134 24.2769L18.2258 22.2589L20.876 24.9091Z" fill="url(#paint1_linear)"/> </g> <defs> <linearGradient id="paint0_linear" x1="33.7986" y1="38.3183" x2="42.9071" y2="38.3183" gradientUnits="userSpaceOnUse"> <stop stop-color="#007ADF"/> <stop offset="1" stop-color="#00ECBC"/> </linearGradient> <linearGradient id="paint1_linear" x1="0" y1="23.7046" x2="48.0001" y2="23.7046" gradientUnits="userSpaceOnUse"> <stop stop-color="#007ADF"/> <stop offset="1" stop-color="#00ECBC"/> </linearGradient> <clipPath id="clip0"> <rect width="48" height="48" fill="white"/> </clipPath> </defs> </svg>