<svg xmlns="http://www.w3.org/2000/svg" width="64" height="64" viewBox="0 0 64 64" fill="none" m_init="2259300202009241704"> <g clip-path="url(#clip0)"> <path d="M55.154 0.462911V0.457441C54.7984 -0.0310209 54.1142 -0.138641 53.6258 0.217039C53.1433 0.568343 53.0314 1.24128 53.3741 1.72988C59.8826 10.8397 59.8826 23.0786 53.3741 32.1884C53.0211 32.6788 53.1324 33.3624 53.6227 33.7155C53.6248 33.717 53.627 33.7185 53.6292 33.72C54.1205 34.0706 54.8029 33.957 55.1542 33.4662C62.2065 23.5954 62.2065 10.3337 55.154 0.462911Z" fill="url(#paint0_linear)"/> <path d="M10.371 0.203206C10.371 0.203206 10.3709 0.203206 10.3709 0.203069C9.87955 -0.147551 9.19718 -0.0339139 8.84587 0.456873C1.7934 10.3277 1.7934 23.5892 8.84587 33.46C9.20155 33.9485 9.8857 34.0561 10.3742 33.7005C10.8566 33.3491 10.9685 32.6762 10.6258 32.1878C4.11729 23.0779 4.11729 10.839 10.6258 1.72917C10.9768 1.23743 10.8628 0.554237 10.371 0.203206Z" fill="url(#paint1_linear)"/> <path d="M17.3286 5.56642C17.6986 5.08889 17.6115 4.4016 17.1339 4.03156C16.658 3.66275 15.9734 3.74781 15.6023 4.22192C9.75757 11.7076 9.75757 22.2106 15.6023 29.6963C15.9736 30.173 16.661 30.2585 17.1377 29.8872C17.6144 29.516 17.6999 28.8285 17.3286 28.3518C12.0994 21.6568 12.0994 12.2616 17.3286 5.56642Z" fill="url(#paint2_linear)"/> <path d="M46.8664 4.03135L46.8662 4.03149C46.3921 4.40262 46.3071 5.08718 46.6759 5.56306C51.9052 12.2581 51.9052 21.6535 46.6759 28.3485C46.3046 28.8252 46.3901 29.5126 46.8668 29.8839C47.3435 30.2551 48.0309 30.1697 48.4022 29.693C54.2469 22.2073 54.2469 11.7043 48.4022 4.21856C48.0297 3.74282 47.3421 3.65899 46.8664 4.03135Z" fill="url(#paint3_linear)"/> <path d="M39.9641 9.47513C43.9316 13.6757 43.9316 20.2424 39.9641 24.443C39.5499 24.8829 39.5709 25.5752 40.0106 25.9894C40.0108 25.9896 40.0109 25.9897 40.0112 25.9899C40.4514 26.4038 41.1437 26.3825 41.5575 25.9423C41.5577 25.9421 41.5578 25.9419 41.5581 25.9417C46.3174 20.8989 46.3174 13.0192 41.5581 7.97638C41.1477 7.53291 40.4555 7.50624 40.0121 7.91662C39.5687 8.327 39.542 9.01922 39.9524 9.46255C39.9562 9.46679 39.9602 9.47103 39.9641 9.47513Z" fill="url(#paint4_linear)"/> <path d="M23.2383 26.2864C23.8424 26.2866 24.3325 25.7971 24.3328 25.1929C24.3329 24.9142 24.2267 24.6461 24.0358 24.443C20.0683 20.2424 20.0683 13.6758 24.0358 9.47517C24.4531 9.03826 24.4373 8.34577 24.0004 7.92842C23.5634 7.51106 22.871 7.52693 22.4536 7.96383C22.4496 7.96794 22.4457 7.97218 22.4418 7.97641C17.6825 13.0193 17.6825 20.8989 22.4418 25.9418C22.6485 26.1615 22.9366 26.2862 23.2383 26.2864Z" fill="url(#paint5_linear)"/> <path d="M46.1888 62.6337L35.5368 21.0964C37.8412 19.1431 38.1258 15.6915 36.1725 13.387C34.2192 11.0825 30.7676 10.798 28.4631 12.7513C26.1586 14.7046 25.8741 18.1562 27.8274 20.4607C28.0214 20.6897 28.234 20.9024 28.4631 21.0964L17.8121 62.6337C17.6616 63.2189 18.014 63.8152 18.5991 63.9658C18.5996 63.9659 18.6003 63.9661 18.6009 63.9662C18.6896 63.9886 18.7807 64 18.8722 64.0001C19.3713 63.9998 19.8068 63.6619 19.9311 63.1785L20.2965 61.7564C20.3578 61.739 20.4174 61.7163 20.4749 61.6885L40.9246 50.9249L44.0665 63.1774C44.1905 63.6621 44.6275 64.0008 45.1277 64.0001C45.2196 64.0001 45.3111 63.9888 45.4001 63.9662C45.9855 63.8167 46.3389 63.2209 46.1892 62.6355C46.1891 62.635 46.189 62.6344 46.1888 62.6337ZM35.6418 30.3165L29.6927 25.1102L30.4454 22.1762C30.9483 22.3363 31.4721 22.4214 31.9999 22.4289C32.5276 22.4214 33.0515 22.3363 33.5545 22.1762L35.6418 30.3165ZM31.9999 13.677C33.8125 13.677 35.2819 15.1464 35.2819 16.959C35.2819 18.7716 33.8125 20.2409 31.9999 20.2409C30.1873 20.2409 28.718 18.7716 28.718 16.959C28.718 15.1464 30.1873 13.677 31.9999 13.677ZM29.0845 27.4842L35.6735 33.2516L25.9371 39.7389L29.0845 27.4842ZM21.0218 58.9262L24.9492 43.6105L38.2958 49.8375L21.0218 58.9262ZM26.5672 41.952L36.8649 35.0862L40.2638 48.3431L26.5672 41.952Z" fill="url(#paint6_linear)"/> </g> <defs> <linearGradient id="paint0_linear" x1="53.1678" y1="16.7561" x2="60.4434" y2="16.7561" gradientUnits="userSpaceOnUse"> <stop stop-color="#007ADF"/> <stop offset="1" stop-color="#00ECBC"/> </linearGradient> <linearGradient id="paint1_linear" x1="3.55652" y1="16.7455" x2="10.8295" y2="16.7455" gradientUnits="userSpaceOnUse"> <stop stop-color="#007ADF"/> <stop offset="1" stop-color="#00ECBC"/> </linearGradient> <linearGradient id="paint2_linear" x1="11.2187" y1="16.7978" x2="17.5595" y2="16.7978" gradientUnits="userSpaceOnUse"> <stop stop-color="#007ADF"/> <stop offset="1" stop-color="#00ECBC"/> </linearGradient> <linearGradient id="paint3_linear" x1="46.4449" y1="16.7944" x2="52.7857" y2="16.7944" gradientUnits="userSpaceOnUse"> <stop stop-color="#007ADF"/> <stop offset="1" stop-color="#00ECBC"/> </linearGradient> <linearGradient id="paint4_linear" x1="39.6613" y1="16.841" x2="45.1276" y2="16.841" gradientUnits="userSpaceOnUse"> <stop stop-color="#007ADF"/> <stop offset="1" stop-color="#00ECBC"/> </linearGradient> <linearGradient id="paint5_linear" x1="18.8723" y1="16.8407" x2="24.3387" y2="16.8407" gradientUnits="userSpaceOnUse"> <stop stop-color="#007ADF"/> <stop offset="1" stop-color="#00ECBC"/> </linearGradient> <linearGradient id="paint6_linear" x1="17.7773" y1="37.4026" x2="46.2236" y2="37.4026" gradientUnits="userSpaceOnUse"> <stop stop-color="#007ADF"/> <stop offset="1" stop-color="#00ECBC"/> </linearGradient> <clipPath id="clip0"> <rect width="64" height="64" fill="white"/> </clipPath> </defs> </svg>