<svg xmlns="http://www.w3.org/2000/svg" class="pr-3" width="60" height="8" viewBox="0 0 60 8" fill="none" m_init="2259300202009241704"> <g opacity="0.1"> <path d="M55.0108 2.51278C53.3913 1.33475 51.5556 0 47.9997 0C44.4434 0 42.6077 1.33475 40.9886 2.51278C39.5663 3.54688 38.443 4.36364 35.999 4.36364C33.5555 4.36364 32.4321 3.54688 31.0103 2.51278C29.3912 1.33475 27.5555 0 23.9992 0C20.4433 0 18.6076 1.33475 16.9885 2.51278C15.5667 3.54688 14.4434 4.36364 11.9998 4.36364C9.55627 4.36364 8.43292 3.54688 7.01111 2.51278C5.39154 1.33475 3.55591 0 0 0V3.63636C2.444 3.63636 3.56689 4.45312 4.98871 5.48722C6.60828 6.66525 8.44345 8 11.9998 8C15.5557 8 17.3914 6.66525 19.0105 5.48722C20.4323 4.45312 21.5556 3.63636 23.9992 3.63636C26.4432 3.63636 27.5661 4.45312 28.9883 5.48722C30.6075 6.66525 32.4431 8 35.999 8C39.5554 8 41.391 6.66525 43.0106 5.48722C44.4324 4.45312 45.5557 3.63636 47.9997 3.63636C50.4437 3.63636 51.5666 4.45312 52.9889 5.48722C54.608 6.66525 56.4436 8 60 8V4.36364C57.556 4.36364 56.4326 3.54688 55.0108 2.51278Z" fill="white"/> </g> </svg>