<svg width="22" height="22" viewBox="0 0 22 22" fill="none" xmlns="http://www.w3.org/2000/svg">
<g clip-path="url(#clip0_415_851)">
<path d="M11.3978 4.30192C11.5188 4.09567 11.7141 3.9435 11.946 3.88208L11.9524 3.88025C12.0276 3.85458 12.1138 3.83992 12.2045 3.83992C12.3668 3.83992 12.5171 3.8885 12.6436 3.971L12.6408 3.96917C12.8416 4.09658 12.991 4.28908 13.0607 4.51642L13.0625 4.52375C13.0854 4.59525 13.0982 4.67867 13.0982 4.76392C13.0982 4.93992 13.0433 5.10217 12.9497 5.236L12.9516 5.23325L9.09242 11.9313H11.8864H11.913C12.3411 11.9313 12.7105 12.1825 12.8819 12.5464L12.8847 12.5528C12.9928 12.7288 13.0561 12.9424 13.0561 13.1707C13.0561 13.3833 13.0002 13.5832 12.903 13.7564L12.9058 13.75H4.70433C4.697 13.75 4.68875 13.75 4.67958 13.75C4.42933 13.75 4.20292 13.6482 4.03883 13.4832C3.87475 13.3228 3.773 13.1001 3.773 12.8526C3.773 12.848 3.773 12.8434 3.773 12.8398V12.8407C3.773 12.837 3.773 12.8324 3.773 12.8278C3.773 12.5803 3.87475 12.3576 4.03883 12.1972C4.202 12.0322 4.42933 11.9304 4.67958 11.9304H4.70525H7.01067L9.93758 6.83008L9.0475 5.236C8.95583 5.10492 8.90083 4.94175 8.90083 4.76667C8.90083 4.6805 8.91367 4.598 8.93842 4.52008L8.93658 4.52558C9.00808 4.29092 9.1575 4.09842 9.35458 3.97375L9.35825 3.971C9.48108 3.88942 9.63233 3.84175 9.79458 3.84175C9.88442 3.84175 9.9715 3.85642 10.0522 3.88392L10.0467 3.88208C10.285 3.94533 10.4803 4.0975 10.5985 4.29917L10.6012 4.30375L11 5.01325L11.3978 4.30192ZM6.65225 16.1883C6.51383 16.3863 6.31492 16.5348 6.08392 16.6082L6.07658 16.61C6.00233 16.6348 5.91617 16.6494 5.82725 16.6494C5.665 16.6494 5.51375 16.6017 5.38633 16.5193L5.38908 16.5211C5.181 16.4019 5.02792 16.2057 4.96833 15.9729L4.96742 15.9665C4.94908 15.895 4.93808 15.8125 4.93808 15.7273C4.93808 15.5549 4.98208 15.3927 5.05817 15.2515L5.05542 15.257L5.72092 14.1478C5.87583 14.0919 6.0555 14.0589 6.2425 14.0589C6.75217 14.0589 7.205 14.3009 7.49192 14.6768L7.49467 14.6804L6.65225 16.1883ZM17.3415 11.9313H17.3663C17.6165 11.9313 17.8429 12.0331 18.007 12.1981C18.1711 12.3585 18.2728 12.5813 18.2728 12.8288V12.8416V12.8535C18.2728 13.101 18.1711 13.3238 18.007 13.4842C17.8438 13.6492 17.6165 13.7509 17.3663 13.7509C17.358 13.7509 17.3488 13.7509 17.3406 13.7509H16.0554L16.9428 15.2588C17.0115 15.3844 17.0518 15.5338 17.0518 15.6933C17.0518 15.7914 17.0363 15.8868 17.0078 15.9757L17.0097 15.9692C16.9382 16.2039 16.7888 16.3964 16.5917 16.5211L16.588 16.5238C16.4652 16.6045 16.3139 16.6531 16.1526 16.6531C16.0627 16.6531 15.9766 16.6384 15.8959 16.6109L15.9014 16.6127C15.6631 16.5495 15.4678 16.3973 15.3496 16.1957L15.3468 16.1911L12.0203 10.3813C11.77 9.988 11.6215 9.50858 11.6215 8.99525C11.6215 8.82658 11.6371 8.6625 11.6683 8.50208L11.6655 8.51858C11.7489 8.03917 11.9882 7.62575 12.3283 7.32325L12.3301 7.32142L14.9912 11.9341L17.3415 11.9313ZM10.9991 0.000916667H11.0697C13.0726 0.000916667 14.9462 0.55275 16.5477 1.51342L16.4991 1.48683C18.1711 2.47225 19.5278 3.82892 20.4848 5.44867L20.5132 5.5C21.4463 7.05283 21.9991 8.9265 21.9991 10.9294V11.0037V11V11.0706C21.9991 13.0735 21.4473 14.9472 20.4866 16.5486L20.5132 16.5C19.5278 18.172 18.1711 19.5287 16.5513 20.4857L16.5 20.5141C14.9472 21.4473 13.0735 22 11.0706 22C11.0458 22 11.0211 22 10.9963 22H11C10.9789 22 10.9542 22 10.9294 22C8.9265 22 7.05283 21.4482 5.45142 20.4875L5.5 20.5141C3.828 19.5287 2.47133 18.172 1.51433 16.5513L1.48592 16.5C0.55275 14.9472 0 13.0735 0 11.0706C0 11.0458 0 11.0211 0 10.9963V11C0 10.9789 0 10.9542 0 10.9294C0 8.9265 0.551833 7.05283 1.5125 5.45142L1.48592 5.5C2.47133 3.828 3.828 2.47133 5.44775 1.51433L5.49908 1.48592C7.05192 0.55275 8.92558 0 10.9285 0H11.0028H10.9991V0.000916667ZM20.5801 11C20.5801 10.9753 20.5801 10.9468 20.5801 10.9175C20.5801 9.17492 20.1034 7.54325 19.2729 6.14625L19.2968 6.18933C18.4406 4.73367 17.2553 3.55575 15.8391 2.73258L15.7933 2.70783C14.432 1.90025 12.793 1.42267 11.0422 1.42267C11.0192 1.42267 10.9963 1.42267 10.9734 1.42267H10.9771C10.9569 1.42267 10.9331 1.42267 10.9083 1.42267C9.16758 1.42267 7.53775 1.90025 6.14442 2.73258L6.18658 2.70875C4.73092 3.56492 3.553 4.74925 2.72983 6.1655L2.70508 6.21133C1.89658 7.57258 1.419 9.21342 1.419 10.9652V11.0248V11.022V11.0908C1.419 12.8315 1.89658 14.4613 2.72892 15.8547L2.70508 15.8125C3.56125 17.2682 4.7465 18.4461 6.16275 19.2693L6.20858 19.294C7.56983 20.1025 9.21067 20.5801 10.9624 20.5801H11.0238H11.0211H11.0898C12.8306 20.5801 14.4604 20.1025 15.8538 19.2702L15.8116 19.294C17.2691 18.4378 18.4479 17.2526 19.272 15.8354L19.2968 15.7896C20.1053 14.432 20.5828 12.7948 20.5828 11.0468C20.5828 11.0302 20.5828 11.0128 20.5828 10.9963V10.9991L20.5801 11Z" fill="white"/>
</g>
<defs>
<clipPath id="clip0_415_851">
<rect width="22" height="22" fill="white"/>
</clipPath>
</defs>
</svg>
