<svg width="22" height="22" viewBox="0 0 22 22" fill="none" xmlns="http://www.w3.org/2000/svg">
<path d="M18.6562 1H3.34375C2.05141 1 1 2.05141 1 3.34375V18.6562C1 19.9486 2.05141 21 3.34375 21H18.6562C19.9486 21 21 19.9486 21 18.6562V3.34375C21 2.05141 19.9486 1 18.6562 1ZM19.4375 18.6562C19.4375 19.087 19.087 19.4375 18.6562 19.4375H14.2031V13.0703H16.6168L17.0156 10.6484H14.2031V8.96875C14.2031 8.30566 14.7119 7.79688 15.375 7.79688H16.9766V5.375H15.375C13.3858 5.375 11.7821 6.98633 11.7821 8.97555V10.6484H9.4375V13.0703H11.7821V19.4375H3.34375C2.91297 19.4375 2.5625 19.087 2.5625 18.6562V3.34375C2.5625 2.91297 2.91297 2.5625 3.34375 2.5625H18.6562C19.087 2.5625 19.4375 2.91297 19.4375 3.34375V18.6562Z" fill="white"/>
</svg>
