<svg width="22" height="22" viewBox="0 0 22 22" fill="none" xmlns="http://www.w3.org/2000/svg">
<path d="M18.1802 7.51993H14.0626V4.59389C14.0626 3.19007 13.6586 2.17103 12.8588 1.56637C11.6019 0.610761 9.89206 1.14777 9.81861 1.17314C9.52887 1.26616 9.32891 1.54946 9.32891 1.86659V5.39728C9.32891 8.01042 6.36217 8.91952 6.23567 8.95335C6.2275 8.95758 6.21934 8.95758 6.21526 8.96181L5.87656 9.07175C5.49296 8.69542 4.97878 8.46709 4.41563 8.46709H3.13018C1.95491 8.46286 1 9.4523 1 10.6701V18.2642C1 19.482 1.95491 20.4715 3.13018 20.4715H4.41563C4.95838 20.4715 5.45623 20.26 5.83167 19.9091C6.37033 20.5729 7.17833 21 8.08019 21H16.4213C18.3556 21 19.6411 19.9006 19.8655 18.0613L20.9021 11.317L20.9592 10.9534C20.9837 10.7842 21 10.6109 21 10.4375C20.9959 8.83073 19.7309 7.51993 18.1802 7.51993ZM5.14609 18.2685C5.14609 18.6871 4.81963 19.0253 4.41563 19.0253H3.13018C2.72618 19.0253 2.39971 18.6871 2.39971 18.2685V10.6701C2.39971 10.2515 2.72618 9.91319 3.13018 9.91319H4.41563C4.81963 9.91319 5.14609 10.2515 5.14609 10.6701V18.2685ZM19.5758 10.7293L18.4821 17.8499C18.4821 17.8583 18.4781 17.8668 18.4781 17.8752C18.4291 18.2896 18.2822 19.5539 16.4213 19.5539H8.08019C7.23546 19.5539 6.54581 18.8393 6.54581 17.964V10.6701C6.54581 10.5728 6.53765 10.4756 6.5254 10.3783L6.62742 10.3445C6.92532 10.2557 10.7286 9.04638 10.7286 5.39306V2.46279C11.1326 2.42051 11.6631 2.45011 12.0345 2.73764C12.4507 3.05899 12.6629 3.68056 12.6629 4.59389V8.24721C12.6629 8.64891 12.9771 8.97449 13.3648 8.97449H18.1802C18.9637 8.97449 19.5962 9.63412 19.5962 10.4417C19.5962 10.5348 19.588 10.632 19.5758 10.7293Z" fill="#C6C6C6"/>
</svg>
