<svg width="22" height="22" viewBox="0 0 22 22" fill="none" xmlns="http://www.w3.org/2000/svg">
<path d="M19.5714 17.4516L19.5709 15.3871C19.5676 13.0589 18.7586 10.8167 17.3038 9.10378C15.849 7.39085 13.8542 6.33182 11.7137 6.13603V4.54839H13.0824C13.51 4.54839 13.8566 4.20177 13.8566 3.77419C13.8566 3.34662 13.51 3 13.0824 3H8.91649C8.48892 3 8.1423 3.34662 8.1423 3.77419C8.1423 4.20177 8.48892 4.54839 8.91649 4.54839H10.2852V6.13603C8.14471 6.33182 6.14992 7.39085 4.69509 9.10378C3.24026 10.8167 2.43126 13.0589 2.42801 15.3871L2.42857 17.4516H1.77419C1.34662 17.4516 1 17.7982 1 18.2258C1 18.6534 1.34662 19 1.77419 19H20.2258C20.6534 19 21 18.6534 21 18.2258C21 17.7982 20.6534 17.4516 20.2258 17.4516H19.5714ZM10.9994 7.64516C12.6453 7.64751 14.2401 8.26481 15.515 9.39302C16.7899 10.5212 17.6669 12.0913 17.9983 13.8387H4.00051C4.33186 12.0913 5.20891 10.5212 6.48383 9.39296C7.75875 8.26475 9.35356 7.64746 10.9994 7.64516ZM3.85658 15.3871H18.1423L18.1429 17.4516H3.85714L3.85658 15.3871Z" fill="#C6C6C6"/>
</svg>
