<svg width="22" height="22" viewBox="0 0 22 22" fill="none" xmlns="http://www.w3.org/2000/svg">
<path d="M11 12C11.7911 12 12.5645 11.7654 13.2223 11.3259C13.8801 10.8864 14.3928 10.2616 14.6955 9.53073C14.9983 8.79983 15.0775 7.99556 14.9231 7.21964C14.7688 6.44372 14.3878 5.73098 13.8284 5.17157C13.269 4.61216 12.5563 4.2312 11.7804 4.07686C11.0044 3.92252 10.2002 4.00173 9.46927 4.30448C8.73836 4.60723 8.11365 5.11992 7.67412 5.77772C7.2346 6.43552 7 7.20888 7 8C7 9.06087 7.42143 10.0783 8.17157 10.8284C8.92172 11.5786 9.93913 12 11 12ZM11 5.6C11.4747 5.6 11.9387 5.74076 12.3334 6.00447C12.728 6.26819 13.0357 6.64302 13.2173 7.08156C13.399 7.5201 13.4465 8.00266 13.3539 8.46822C13.2613 8.93377 13.0327 9.36141 12.6971 9.69706C12.3614 10.0327 11.9338 10.2613 11.4682 10.3539C11.0027 10.4465 10.5201 10.399 10.0816 10.2173C9.64302 10.0357 9.26819 9.72805 9.00447 9.33337C8.74076 8.93869 8.6 8.47468 8.6 8C8.6 7.36348 8.85286 6.75303 9.30294 6.30294C9.75303 5.85286 10.3635 5.6 11 5.6Z" fill="#C6C6C6"/>
<path d="M15.8 14.2643C17.35 11.5571 18.1429 9.49286 18.1429 8.14286C18.1429 6.24845 17.3903 4.43164 16.0508 3.09209C14.7112 1.75255 12.8944 1 11 1C9.1056 1 7.28878 1.75255 5.94924 3.09209C4.60969 4.43164 3.85714 6.24845 3.85714 8.14286C3.85714 9.49286 4.65 11.5571 6.2 14.2643C4.09286 14.6357 1 15.5143 1 17.4286C1 19.8857 6.18571 21 11 21C15.8143 21 21 19.8857 21 17.4286C21 15.5143 17.9071 14.6357 15.8 14.2643ZM11 2.42857C12.5155 2.42857 13.969 3.03061 15.0406 4.10225C16.1122 5.17388 16.7143 6.62733 16.7143 8.14286C16.7143 9.34286 15.7643 11.5786 14.0429 14.4429C13.9143 14.6571 13.7857 14.8714 13.65 15.0857C13.65 15.1429 13.5857 15.1929 13.5571 15.2429L13.2357 15.75C13.2121 15.7944 13.1859 15.8373 13.1571 15.8786C12.8929 16.2929 12.6286 16.7 12.3786 17.0714L12.3214 17.1571L12 17.6357L11.95 17.7071C11.7143 18.0571 11.4929 18.3786 11.3 18.65L11.2571 18.7071L11.0286 19.0357C10.6786 18.55 10.2143 17.8857 9.69286 17.1071C9.44286 16.7214 9.17143 16.3143 8.9 15.8857L8.81429 15.75L8.45714 15.2857L8.33571 15.0929L8.03571 14.5929L7.95714 14.4643C6.23571 11.5786 5.28571 9.34286 5.28571 8.14286C5.28571 6.62733 5.88775 5.17388 6.95939 4.10225C8.03103 3.03061 9.48448 2.42857 11 2.42857ZM2.42857 17.4286C2.42857 17.0071 3.77143 16.0643 6.97143 15.5786V15.6143L7.27143 16.0929L7.32143 16.1786L7.65 16.7C7.87857 17.0643 8.11429 17.4143 8.36429 17.7571L8.67143 18.2143L8.72857 18.2929L8.97857 18.6643L9.02857 18.7357L9.27143 19.0929L9.30714 19.1357L9.57143 19.5714C5.10714 19.3214 2.42857 18.1429 2.42857 17.4286ZM12.4286 19.5714L12.6714 19.2286L12.7071 19.1714L12.95 18.8214L13 18.75L13.2429 18.3929L13.3143 18.2929L13.5643 17.9143L13.6357 17.8071C13.8571 17.4786 14.0786 17.1357 14.3071 16.7714L14.3857 16.6571L14.65 16.2357L14.7643 16.05L14.9929 15.6786L15.0357 15.6143C18.2357 16.1 19.5786 17.0429 19.5786 17.4643C19.5714 18.1429 16.8929 19.3214 12.4286 19.5714Z" fill="#C6C6C6"/>
</svg>
