<svg width="22" height="22" viewBox="0 0 22 22" fill="none" xmlns="http://www.w3.org/2000/svg">
<path d="M1 4.125V17.875H2.5625V4.125C2.5625 3.26349 3.26349 2.5625 4.125 2.5625H10.9219C11.7836 2.5625 12.4844 3.26349 12.4844 4.125V5.22348C12.4844 5.655 12.8341 6.00473 13.2656 6.00473C13.6972 6.00473 14.0469 5.655 14.0469 5.22348V4.125C14.0469 2.40182 12.6451 1 10.9219 1H4.125C2.40198 1 1 2.40182 1 4.125ZM1 17.875H2.5625C2.5625 18.7365 3.26349 19.4375 4.125 19.4375H10.9219C11.7836 19.4375 12.4844 18.7365 12.4844 17.875V11.4735C12.4844 11.042 12.8341 10.6922 13.2656 10.6922C13.6972 10.6922 14.0469 11.042 14.0469 11.4735V17.875C14.0469 19.5982 12.6451 21 10.9219 21H4.125C2.40198 21 1 19.5982 1 17.875ZM8.3047 17.45C8.3047 17.8816 7.95497 18.2313 7.52345 18.2313C7.09193 18.2313 6.7422 17.8816 6.7422 17.45C6.7422 17.0185 7.09193 16.6688 7.52345 16.6688C7.95497 16.6688 8.3047 17.0185 8.3047 17.45ZM5.96095 4.55942C5.96095 4.1279 6.31068 3.77817 6.7422 3.77817H8.3047C8.73622 3.77817 9.08595 4.1279 9.08595 4.55942C9.08595 4.99094 8.73622 5.34067 8.3047 5.34067H6.7422C6.31068 5.34067 5.96095 4.99094 5.96095 4.55942ZM14.7403 9.12973H11.586C11.1544 9.12973 10.8047 8.78 10.8047 8.34848C10.8047 7.91696 11.1544 7.56723 11.586 7.56723H14.7403C17.0289 7.56723 18.8907 9.42911 18.8907 11.7176V14.6688L19.6795 13.9161C19.9916 13.6183 20.4861 13.6299 20.784 13.942C21.0818 14.2542 21.0702 14.7486 20.7582 15.0465L19.5808 16.1698C19.1636 16.5794 18.6169 16.7843 18.0703 16.7843C17.5213 16.7843 16.9723 16.5775 16.5544 16.1645C16.5513 16.1614 16.5484 16.1585 16.5455 16.1555L15.4028 14.989C15.101 14.6807 15.106 14.186 15.4142 13.8842C15.7226 13.5822 16.2172 13.5873 16.5191 13.8957L17.3282 14.7216V11.7176C17.3282 10.2906 16.1673 9.12973 14.7403 9.12973Z" fill="#C6C6C6"/>
</svg>
