<svg width="22" height="22" viewBox="0 0 22 22" fill="none" xmlns="http://www.w3.org/2000/svg">
<path d="M15.1904 1H6.80969C3.60621 1 1 3.60621 1 6.80969V15.1903C1 18.3938 3.60621 21 6.80969 21H15.1903C18.3938 21 21 18.3938 21 15.1904V6.80969C21 3.60621 18.3938 1 15.1904 1ZM19.4375 15.1903C19.4375 17.5322 17.5322 19.4375 15.1904 19.4375H6.80969C4.46777 19.4375 2.5625 17.5322 2.5625 15.1904V6.80969C2.5625 4.46777 4.46777 2.5625 6.80969 2.5625H15.1903C17.5322 2.5625 19.4375 4.46777 19.4375 6.80969V15.1903Z" fill="white"/>
<path d="M16.4688 6.3125C16.9002 6.3125 17.25 5.96272 17.25 5.53125C17.25 5.09978 16.9002 4.75 16.4688 4.75C16.0373 4.75 15.6875 5.09978 15.6875 5.53125C15.6875 5.96272 16.0373 6.3125 16.4688 6.3125Z" fill="white"/>
<path d="M11 5.60938C8.02758 5.60938 5.60938 8.02758 5.60938 11C5.60938 13.9724 8.02758 16.3906 11 16.3906C13.9724 16.3906 16.3906 13.9724 16.3906 11C16.3906 8.02758 13.9724 5.60938 11 5.60938ZM11 14.8281C8.88918 14.8281 7.17188 13.1108 7.17188 11C7.17188 8.88918 8.88918 7.17188 11 7.17188C13.1108 7.17188 14.8281 8.88918 14.8281 11C14.8281 13.1108 13.1108 14.8281 11 14.8281Z" fill="white"/>
</svg>
