<svg width="20" height="52" viewBox="0 0 20 52" fill="none" xmlns="http://www.w3.org/2000/svg">
<path d="M17.1902 0.154064L1.39785 6.67376C0.984209 6.84456 0.630587 7.13419 0.38175 7.50599C0.132912 7.87778 5.15601e-05 8.31501 0 8.76232V43.2377C5.15601e-05 43.685 0.132912 44.1222 0.38175 44.494C0.630587 44.8658 0.984209 45.1554 1.39785 45.3262L17.1902 51.8459C17.4991 51.9735 17.8347 52.023 18.1672 51.9901C18.4998 51.9572 18.8192 51.8428 19.097 51.6571C19.3748 51.4714 19.6026 51.2201 19.7601 50.9255C19.9176 50.6309 20 50.302 20 49.968V2.03203C20 1.69799 19.9176 1.36911 19.7601 1.07449C19.6026 0.779864 19.3748 0.52859 19.097 0.342902C18.8192 0.157215 18.4998 0.0428412 18.1672 0.00990359C17.8347 -0.023034 17.4991 0.0264798 17.1902 0.154064ZM15.2417 36.5291C15.2415 36.9584 15.1139 37.378 14.8752 37.7349C14.6364 38.0918 14.2972 38.3699 13.9003 38.5341L2.29499 43.3256V8.65919L13.9036 13.4529C14.3004 13.6171 14.6397 13.8952 14.8784 14.2521C15.1172 14.609 15.2447 15.0286 15.2449 15.4579L15.2417 36.5291Z" fill="white"/>
</svg>
