<svg width="76" height="40" viewBox="0 0 76 40" fill="none" xmlns="http://www.w3.org/2000/svg">
<g clip-path="url(#clip0_203_393)">
<path d="M73.7812 0.207869L61.8348 5.20246C61.5219 5.33331 61.2544 5.55519 61.0661 5.84002C60.8779 6.12484 60.7774 6.45979 60.7773 6.80246V33.2133C60.7774 33.556 60.8779 33.8909 61.0661 34.1757C61.2544 34.4605 61.5219 34.6824 61.8348 34.8133L73.7812 39.8079C74.0148 39.9056 74.2687 39.9435 74.5203 39.9183C74.7719 39.8931 75.0134 39.8055 75.2236 39.6632C75.4338 39.521 75.606 39.3285 75.7252 39.1028C75.8443 38.8771 75.9067 38.6251 75.9067 38.3692V1.64654C75.9067 1.39064 75.8443 1.13869 75.7252 0.912984C75.606 0.68728 75.4338 0.494785 75.2236 0.352534C75.0134 0.210283 74.7719 0.122663 74.5203 0.0974307C74.2687 0.0721979 74.0148 0.110129 73.7812 0.207869ZM72.3072 28.074C72.307 28.4029 72.2105 28.7243 72.0299 28.9977C71.8493 29.2711 71.5927 29.4842 71.2925 29.6099L62.5134 33.2806V6.72346L71.2949 10.3958C71.5951 10.5216 71.8518 10.7347 72.0324 11.0081C72.213 11.2815 72.3095 11.6029 72.3096 11.9318L72.3072 28.074Z" fill="#1C545B"/>
<path d="M6.11605 16.568H2.8805L2.45326 17.7322C2.18212 18.4532 1.89702 18.785 1.09923 18.785C0.38606 18.785 0.113281 18.5256 0.113281 18.1198C0.113281 17.9618 0.156005 17.8029 0.27021 17.5285L3.23462 10.3451C3.51972 9.66653 3.80483 9.27734 4.60262 9.27734C5.40042 9.27734 5.65758 9.66653 5.9279 10.3451L8.7781 17.5576C8.85329 17.726 8.89702 17.907 8.9071 18.0915C8.9071 18.538 8.56448 18.7834 7.85214 18.7834C7.09624 18.7834 6.82593 18.4948 6.53754 17.7306L6.11605 16.568ZM3.53287 14.7792H5.47107L4.50238 12.168L3.53287 14.7792Z" fill="#1C545B"/>
<path d="M12.7737 15.5731C12.5033 15.5731 12.2749 15.5589 12.2749 15.5589V17.5473C12.2749 17.9373 12.2749 18.2126 12.104 18.4421C11.9331 18.6716 11.648 18.788 11.1781 18.788C10.7081 18.788 10.4082 18.6724 10.2373 18.4421C10.0664 18.2117 10.0664 17.9373 10.0664 17.5473V10.7406C10.0664 10.25 10.0664 9.77431 10.7927 9.49988C11.1781 9.35602 11.8189 9.26953 12.5888 9.26953C13.5435 9.26953 14.5837 9.39926 15.425 9.93481C16.2228 10.4396 16.7076 11.2329 16.7076 12.3722C16.7076 14.5485 14.9559 15.5731 12.7737 15.5731ZM12.2749 13.7843C12.4167 13.8049 12.5598 13.8146 12.703 13.8134C13.6002 13.8134 14.4415 13.4808 14.4415 12.4828C14.4415 11.5739 13.7571 11.1697 12.7884 11.1697C12.5313 11.1697 12.2749 11.1988 12.2749 11.1988V13.7843Z" fill="#1C545B"/>
<path d="M20.1401 12.8463H21.6913C22.0758 12.8463 22.3486 12.8463 22.5606 12.9901C22.7315 13.1057 22.9024 13.351 22.9024 13.8126C22.9024 14.2741 22.7315 14.5194 22.5606 14.635C22.347 14.7789 22.0758 14.7789 21.6913 14.7789H20.1401V16.7839H22.5228C22.9073 16.7839 23.1801 16.7839 23.3921 16.9286C23.563 17.0433 23.7339 17.2887 23.7339 17.7502C23.7339 18.2117 23.563 18.4571 23.3921 18.5727C23.1785 18.7174 22.9073 18.7174 22.5228 18.7174H19.0424C18.2734 18.7174 17.9883 18.4138 17.9883 17.6496V10.4654C17.9883 9.687 18.2734 9.39844 19.0424 9.39844H22.2352C22.6198 9.39844 22.8925 9.39844 23.1045 9.5423C23.2754 9.6579 23.4463 9.90322 23.4463 10.3648C23.4463 10.8263 23.2754 11.0716 23.1045 11.1872C22.8909 11.3311 22.6198 11.3311 22.2352 11.3311H20.1401V12.8463Z" fill="#1C545B"/>
<path d="M27.4943 17.5449C27.4943 17.9491 27.4943 18.2235 27.3225 18.4539C27.1508 18.6842 26.8526 18.7865 26.3678 18.7865C25.8831 18.7865 25.584 18.6859 25.4131 18.4539C25.2422 18.2219 25.2422 17.9491 25.2422 17.5449V10.5345C25.2422 10.1312 25.2422 9.85679 25.4131 9.62561C25.584 9.39442 25.8839 9.29297 26.3678 9.29297C26.8517 9.29297 27.1516 9.39442 27.3225 9.62561C27.4934 9.85679 27.4943 10.1312 27.4943 10.5345V17.5449Z" fill="#1C545B"/>
<path d="M31.6995 17.5473C31.6995 17.9373 31.6847 18.2126 31.5278 18.4421C31.3569 18.6916 31.0439 18.788 30.6158 18.788C30.1171 18.788 29.8468 18.6442 29.7038 18.4421C29.5469 18.2109 29.5469 17.9373 29.5469 17.5473V10.7406C29.5469 10.25 29.5469 9.73107 30.3882 9.47161C30.7727 9.35602 31.3429 9.26953 32.1835 9.26953C32.9533 9.26953 33.8226 9.34188 34.5777 9.70196C35.5184 10.1635 36.0566 11.0001 36.0566 12.1685C36.0566 13.3369 35.5151 14.2475 34.5317 14.7656L36.6457 17.6363C37.0442 18.1693 36.8166 18.7897 35.7337 18.7897C34.8923 18.7897 34.5933 18.4296 34.194 17.8375L33.0536 16.107C32.812 15.746 32.5548 15.2704 32.5548 15.2704H31.6995V17.5473ZM31.6995 13.4941C31.6995 13.4941 31.8844 13.509 32.098 13.509C33.2384 13.509 33.7938 13.1049 33.7938 12.2966C33.7938 11.4317 33.153 11.1714 32.3264 11.1714C32.1167 11.1717 31.9073 11.1864 31.6995 11.2155V13.4941Z" fill="#1C545B"/>
<path d="M42.3736 9.16797C45.3668 9.16797 47.2475 11.2312 47.2475 14.0154C47.2475 16.8428 45.3093 18.9052 42.3309 18.9052C39.3377 18.9052 37.457 16.842 37.457 14.0586C37.457 11.2312 39.3952 9.16797 42.3736 9.16797ZM42.3596 16.9576C43.9561 16.9576 44.9675 15.8906 44.9675 14.047C44.9675 12.1867 43.9413 11.1189 42.3449 11.1189C40.7484 11.1189 39.737 12.1867 39.737 14.0295C39.737 15.8906 40.7632 16.9576 42.3596 16.9576Z" fill="#1C545B"/>
<path d="M50.8673 17.5449C50.8673 17.949 50.8673 18.2101 50.6964 18.4397C50.5255 18.6559 50.2552 18.7856 49.7844 18.7856C49.2996 18.7856 49.0293 18.6559 48.8584 18.4397C48.6875 18.2085 48.6875 17.9349 48.6875 17.5449V10.1761C48.6875 9.6272 49.072 9.28125 49.8698 9.28125C50.6964 9.28125 51.0102 9.64216 51.3808 10.1328L55.0575 15.0085V10.5361C55.0575 10.1328 55.0575 9.87085 55.2284 9.64216C55.4001 9.42595 55.6705 9.29539 56.1404 9.29539C56.6252 9.29539 56.8963 9.42595 57.0672 9.64216C57.2381 9.87252 57.2381 10.1328 57.2381 10.5361V17.9216C57.2381 18.5278 56.8536 18.8305 56.1979 18.8305C55.5135 18.8305 55.1857 18.5137 54.8012 18.0089L50.8673 12.9162V17.5449Z" fill="#1C545B"/>
<path d="M24.6006 25.8404C25.4847 26.3742 26.211 27.1385 26.211 28.3651C26.211 30.0383 24.843 30.9472 23.3608 30.9472C22.6901 30.948 22.0312 30.7687 21.4514 30.4275C21.0521 30.178 20.8672 29.9368 20.8672 29.7356C20.8672 29.5185 21.0521 29.2882 21.2657 29.2882C21.651 29.2882 22.0783 30.1389 23.3321 30.1389C24.4437 30.1389 25.299 29.4903 25.299 28.3925C25.299 27.4844 24.7009 26.9356 24.0165 26.5323C22.9048 25.8828 21.1408 25.2624 21.1408 23.5318C21.1408 22.1905 22.1958 21.2383 23.7774 21.2383C24.9893 21.2383 26.0007 21.8154 26.0007 22.2362C26.0007 22.4092 25.8437 22.652 25.6162 22.652C25.2744 22.652 24.8323 22.0458 23.7922 22.0458C22.766 22.0458 22.0528 22.637 22.0528 23.4886C22.0495 24.7443 23.6032 25.2491 24.6006 25.8404Z" fill="#1C545B"/>
<path d="M29.9443 27.1683C29.5738 27.1683 29.3026 27.1392 29.3026 27.1392V30.3417C29.3026 30.4864 29.3026 30.6161 29.232 30.7168C29.1613 30.8174 29.0323 30.8615 28.8466 30.8615C28.6609 30.8615 28.5336 30.8182 28.4621 30.7168C28.3906 30.6153 28.3906 30.4864 28.3906 30.3417V22.1197C28.3906 21.7737 28.3906 21.5858 28.8014 21.4702C29.2421 21.3775 29.6915 21.334 30.1415 21.3405C31.1274 21.3405 31.9943 21.5134 32.6639 21.9899C33.3335 22.4665 33.778 23.2008 33.778 24.2403C33.778 26.4324 31.8398 27.1683 29.9443 27.1683ZM29.3026 26.3608C29.3026 26.3608 29.5598 26.3891 29.9016 26.3891C31.2844 26.3891 32.8233 25.9733 32.8233 24.2544C32.8233 22.7974 31.673 22.1197 30.144 22.1197C29.862 22.1194 29.5805 22.1436 29.3026 22.192V26.3608Z" fill="#1C545B"/>
<path d="M39.5659 27.3589H36.1027L34.9525 30.4167C34.8522 30.6903 34.7528 30.8641 34.4102 30.8641C34.1251 30.8641 34.0117 30.7485 34.0117 30.5897C34.0199 30.4748 34.0477 30.3623 34.0939 30.257L37.3713 21.8329C37.4855 21.5302 37.6137 21.3281 37.9136 21.3281C38.2135 21.3281 38.3408 21.5302 38.455 21.847L41.6191 30.257C41.6599 30.3582 41.6838 30.4656 41.6898 30.5747C41.6898 30.7477 41.5616 30.8633 41.2625 30.8633C40.9487 30.8633 40.8205 30.7186 40.7063 30.4159L39.5659 27.3589ZM36.3985 26.5631H39.2742L37.8627 22.7377L36.3985 26.5631Z" fill="#1C545B"/>
<path d="M47.418 30.1422C47.9666 30.1409 48.5092 30.0277 49.0136 29.8095C49.6413 29.5501 49.8689 29.2765 50.0817 29.2765C50.2945 29.2765 50.4383 29.5068 50.4383 29.7089C50.4383 29.896 50.3101 30.0548 49.9963 30.2569C49.2125 30.7617 48.2709 30.9496 47.4172 30.9496C45.0345 30.9496 42.7422 29.4062 42.7422 26.0307C42.7422 22.6553 45.023 21.2266 47.3433 21.2266C48.3695 21.2266 49.2387 21.4869 49.8903 21.876C50.2469 22.0923 50.4317 22.2802 50.4317 22.4673C50.4317 22.6694 50.2608 22.9288 50.0472 22.9288C49.8336 22.9288 49.5764 22.6403 48.9923 22.3808C48.4585 22.1511 47.8838 22.0347 47.3038 22.039C45.5078 22.039 43.6977 23.1492 43.6977 25.9916C43.6977 28.9305 45.6359 30.1422 47.418 30.1422Z" fill="#1C545B"/>
<path d="M53.5457 25.3075H56.0261C56.1683 25.3075 56.2825 25.3075 56.3819 25.3799C56.4273 25.4222 56.4635 25.4737 56.4883 25.5309C56.5131 25.5882 56.5259 25.65 56.5259 25.7125C56.5259 25.775 56.5131 25.8368 56.4883 25.8941C56.4635 25.9514 56.4273 26.0028 56.3819 26.0451C56.2825 26.1175 56.1683 26.1175 56.0261 26.1175H53.5457V29.9686H56.9965C57.1394 29.9686 57.2528 29.9686 57.353 30.041C57.3981 30.0836 57.4341 30.135 57.4587 30.1923C57.4832 30.2495 57.4959 30.3112 57.4959 30.3736C57.4959 30.436 57.4832 30.4978 57.4587 30.555C57.4341 30.6122 57.3981 30.6637 57.353 30.7063C57.2528 30.7786 57.1394 30.7786 56.9965 30.7786H53.0896C52.761 30.7786 52.6484 30.6339 52.6484 30.3312V21.8888C52.6484 21.572 52.7618 21.4414 53.0896 21.4414H56.5536C56.6957 21.4414 56.81 21.4414 56.9094 21.5138C56.9548 21.5561 56.991 21.6076 57.0158 21.6648C57.0406 21.7221 57.0534 21.7839 57.0534 21.8464C57.0534 21.9089 57.0406 21.9707 57.0158 22.028C56.991 22.0852 56.9548 22.1367 56.9094 22.179C56.81 22.2514 56.6957 22.2514 56.5536 22.2514H53.5457V25.3075Z" fill="#1C545B"/>
</g>
<defs>
<clipPath id="clip0_203_393">
<rect width="76" height="40" fill="white"/>
</clipPath>
</defs>
</svg>
