<svg width="22" height="22" viewBox="0 0 22 22" fill="none" xmlns="http://www.w3.org/2000/svg">
<path d="M15.993 20.9886C16.0905 20.9943 16.1879 21 16.2797 21C17.3402 21 18.2288 20.6176 18.9225 19.8642C18.9283 19.8584 18.9397 19.847 18.9455 19.8413C19.1748 19.5674 19.4385 19.3162 19.7194 19.0479C19.9143 18.8653 20.1092 18.6712 20.2984 18.4715C21.2386 17.4954 21.2329 16.2112 20.287 15.2694L17.839 12.8322C17.3861 12.3584 16.8358 12.113 16.2567 12.113C15.6834 12.113 15.1274 12.3584 14.663 12.8265L13.31 14.1735C13.2183 14.1221 13.1208 14.0765 13.0291 14.0308C12.8743 13.9509 12.7253 13.8767 12.5991 13.7968C11.2863 12.9692 10.0939 11.8847 8.95876 10.492C8.41986 9.81849 8.05296 9.24201 7.79498 8.68836C8.13895 8.36872 8.46573 8.04338 8.78104 7.72374C8.90716 7.59817 9.03328 7.4726 9.15941 7.34703C9.64097 6.86758 9.89322 6.31393 9.89322 5.74315C9.89322 5.17237 9.64097 4.61872 9.15941 4.13927L7.94403 2.92922C7.80644 2.79224 7.66885 2.64954 7.53126 2.51256C7.26182 2.23288 6.97517 1.94749 6.7 1.69064C6.2471 1.23973 5.70247 1 5.12918 1C4.56162 1 4.01127 1.23402 3.53544 1.69064L2.01049 3.2089C1.42573 3.7968 1.08749 4.51027 1.0187 5.33219C0.909771 6.64498 1.29961 7.86644 1.59772 8.67123C2.32006 10.6176 3.40931 12.4269 5.02026 14.3619C6.98091 16.6906 9.34286 18.5342 12.0373 19.8299C13.0635 20.3151 14.4451 20.8916 15.993 20.9886ZM6.09231 13.46C4.58456 11.6564 3.57557 9.97831 2.90482 8.18037C2.49778 7.09018 2.34299 6.24543 2.41179 5.44635C2.45192 4.95548 2.64684 4.54452 3.01374 4.17922L4.51576 2.68379C4.65335 2.55251 4.8712 2.39269 5.12918 2.39269C5.3757 2.39269 5.58208 2.5468 5.7254 2.6895C5.99485 2.94064 6.25283 3.2032 6.52801 3.48288C6.6656 3.62557 6.80892 3.76826 6.95224 3.91096L8.16762 5.121C8.31667 5.26941 8.48866 5.49201 8.48866 5.73744C8.48866 5.98288 8.31094 6.20548 8.16762 6.35388C8.03576 6.48516 7.90964 6.61073 7.78351 6.74201C7.41087 7.11872 7.05543 7.47831 6.67133 7.82078C6.65987 7.83219 6.65413 7.8379 6.64267 7.84932C6.22416 8.26598 6.29869 8.68265 6.39042 8.95662C6.39615 8.97374 6.40188 8.98516 6.40762 9.00228C6.72866 9.77283 7.17583 10.5034 7.86951 11.371C9.10781 12.8893 10.4092 14.0708 11.8481 14.9783C12.0316 15.0982 12.2208 15.1895 12.4042 15.2808C12.559 15.3607 12.7081 15.4349 12.8342 15.5148C12.8571 15.5263 12.8743 15.5377 12.8973 15.5491C13.3387 15.766 13.7744 15.6918 14.1298 15.3322L15.6548 13.8139C15.7924 13.6769 16.0102 13.5114 16.2567 13.5114C16.4975 13.5114 16.6982 13.6712 16.8358 13.8139L19.2952 16.2626C19.7022 16.6678 19.7022 17.0731 19.278 17.5126C19.1117 17.6895 18.9283 17.8607 18.7391 18.0434C18.4524 18.3231 18.1486 18.6084 17.8734 18.9338C17.4434 19.3904 16.9389 19.6016 16.2739 19.6016C16.2051 19.6016 16.1421 19.6016 16.0733 19.5959C14.7662 19.5103 13.5451 19.0023 12.6335 18.5685C10.1283 17.3584 7.92683 15.6404 6.09231 13.46Z" fill="#ffffff"/>
</svg>
