<svg width="50" height="50" viewBox="0 0 50 50" fill="none" xmlns="http://www.w3.org/2000/svg">
<g clip-path="url(#clip0_203_4741)">
<path d="M25 50C38.8071 50 50 38.8071 50 25C50 11.1929 38.8071 0 25 0C11.1929 0 0 11.1929 0 25C0 38.8071 11.1929 50 25 50Z" fill="#1C545B"/>
<path d="M34.011 25L19.5001 16.0183V33.9817L34.011 25ZM35.9911 23.1434C36.2976 23.3306 36.5524 23.601 36.7296 23.927C36.9067 24.253 37 24.6231 37 25C37 25.3769 36.9067 25.747 36.7296 26.073C36.5524 26.399 36.2976 26.6694 35.9911 26.8566L20.0827 36.7053C18.7826 37.5109 17 36.5906 17 34.8486V15.1514C17 13.4094 18.7826 12.4891 20.0827 13.2947L35.9911 23.1434Z" fill="white"/>
</g>
<defs>
<clipPath id="clip0_203_4741">
<rect width="50" height="50" fill="white"/>
</clipPath>
</defs>
</svg>
