<svg width="22" height="22" viewBox="0 0 22 22" fill="none" xmlns="http://www.w3.org/2000/svg">
<path d="M19.5196 2.00168C19.2611 2.01372 19.0177 2.08901 18.8013 2.17333H18.7983C18.5789 2.26066 17.536 2.70033 15.9521 3.36586C14.3682 4.03441 12.3124 4.9017 10.2717 5.76298C6.1963 7.48251 2.18999 9.17495 2.18999 9.17495L2.23808 9.15688C2.23808 9.15688 1.96158 9.24722 1.67305 9.44598C1.52578 9.54235 1.36349 9.67485 1.22223 9.88264C1.08097 10.0904 0.966764 10.4096 1.00884 10.7379C1.07797 11.295 1.43863 11.6293 1.6971 11.813C1.95857 11.9997 2.20803 12.087 2.20803 12.087H2.21404L5.97089 13.3548C6.13919 13.8969 7.11597 17.1131 7.3504 17.8539C7.48865 18.2966 7.6239 18.5737 7.79221 18.7845C7.87335 18.8929 7.96953 18.9832 8.08374 19.0555C8.12882 19.0826 8.17691 19.1037 8.225 19.1218C8.24002 19.1308 8.25505 19.1338 8.27308 19.1368L8.23401 19.1278C8.24603 19.1308 8.25505 19.1398 8.26407 19.1428C8.29412 19.1519 8.31516 19.1549 8.35423 19.1609C8.94932 19.3416 9.42719 18.9712 9.42719 18.9712L9.45424 18.9501L11.6723 16.9264L15.3901 19.7843L15.4742 19.8204C16.2496 20.1607 17.0341 19.971 17.4488 19.6367C17.8666 19.2994 18.0289 18.8688 18.0289 18.8688L18.0559 18.7995L20.9292 4.05247C21.0103 3.68809 21.0313 3.34779 20.9412 3.01654C20.851 2.68528 20.6196 2.3751 20.3401 2.20947C20.0576 2.04083 19.7781 1.98963 19.5196 2.00168ZM19.4414 3.58269C19.4384 3.63087 19.4475 3.62485 19.4264 3.7182V3.72724L16.5802 18.3207C16.5682 18.3418 16.5472 18.387 16.4901 18.4321C16.43 18.4803 16.3819 18.5104 16.1324 18.4111L11.5851 14.9178L8.83811 17.4263L9.41516 13.7343C9.41516 13.7343 16.5382 7.08199 16.8447 6.7959C17.1513 6.50982 17.0491 6.44959 17.0491 6.44959C17.0701 6.10026 16.5862 6.3472 16.5862 6.3472L7.21816 12.1623L7.21515 12.1473L2.72497 10.6325V10.6295C2.72196 10.6295 2.71595 10.6265 2.71295 10.6265C2.71595 10.6265 2.73699 10.6174 2.73699 10.6174L2.76104 10.6054L2.78508 10.5964C2.78508 10.5964 6.79439 8.90392 10.8698 7.18438C12.9105 6.32311 14.9663 5.45581 16.5472 4.78727C18.128 4.12174 19.2972 3.63388 19.3633 3.60678C19.4264 3.58269 19.3964 3.58269 19.4414 3.58269Z" fill="white"/>
</svg>
