<svg width="22" height="22" viewBox="0 0 22 22" fill="none" xmlns="http://www.w3.org/2000/svg">
<path d="M19.397 5.39316C17.2364 5.39316 15.4786 3.68524 15.4786 1.58594C15.4786 1.2623 15.2085 1 14.8756 1H11.6459C11.3128 1 11.0429 1.2623 11.0429 1.58594V14.4518C11.0429 15.686 10.0095 16.69 8.73924 16.69C7.4691 16.69 6.43577 15.686 6.43577 14.4518C6.43577 13.2176 7.4691 12.2135 8.73924 12.2135C9.07233 12.2135 9.34228 11.9512 9.34228 11.6276V8.48947C9.34228 8.16599 9.07233 7.90353 8.73924 7.90353C5.02319 7.90353 2 10.8412 2 14.4518C2 18.0625 5.02319 21 8.73924 21C12.4553 21 15.4786 18.0625 15.4786 14.4518V8.75681C16.6789 9.3786 18.0144 9.70316 19.397 9.70316C19.73 9.70316 20 9.44086 20 9.11722V5.9791C20 5.65561 19.73 5.39316 19.397 5.39316ZM18.7939 8.50702C17.5065 8.40295 16.2839 7.96594 15.2277 7.22772C15.0441 7.09924 14.802 7.08154 14.6005 7.18195C14.3991 7.28204 14.2726 7.48346 14.2726 7.70334V14.4518C14.2726 17.4163 11.7902 19.8281 8.73924 19.8281C5.68826 19.8281 3.20607 17.4163 3.20607 14.4518C3.20607 11.6853 5.36789 9.39996 8.13621 9.10715V11.092C6.48728 11.3706 5.2297 12.7711 5.2297 14.4518C5.2297 16.3322 6.80403 17.862 8.73924 17.862C10.6746 17.862 12.2489 16.3322 12.2489 14.4518V2.17188H14.3077C14.584 4.45001 16.4493 6.26245 18.7939 6.53085V8.50702Z" fill="white"/>
</svg>
