<svg width="22" height="22" viewBox="0 0 22 22" fill="none" xmlns="http://www.w3.org/2000/svg">
<path d="M18.0106 3.90005C17.0937 2.97683 16.0023 2.24502 14.7999 1.74716C13.5974 1.2493 12.3078 0.995352 11.0063 1.00006C9.26629 1.00176 7.5572 1.46031 6.05029 2.32978C4.54339 3.19926 3.29153 4.44914 2.42006 5.95425C1.54859 7.45936 1.08813 9.16692 1.08475 10.9058C1.08139 12.6448 1.53525 14.354 2.40088 15.8625L1 21L6.25328 19.625C7.70388 20.4315 9.33383 20.8614 10.9937 20.875C13.6325 20.8751 16.1645 19.8335 18.0384 17.977C19.9124 16.1206 20.9769 13.5995 21 10.9625C20.9912 9.64667 20.7226 8.34547 20.2096 7.13355C19.6967 5.92162 18.9493 4.8228 18.0106 3.90005ZM11.0063 19.1625C9.52746 19.1635 8.07569 18.7663 6.80363 18.0125L6.50344 17.825L3.38899 18.65L4.21451 15.6125L4.01438 15.3C2.95028 13.5834 2.55315 11.5363 2.89821 9.54654C3.24328 7.55686 4.30658 5.76275 5.88668 4.50409C7.46679 3.24542 9.45391 2.60963 11.4717 2.71717C13.4894 2.8247 15.3977 3.66808 16.8349 5.08755C18.4059 6.62278 19.3052 8.71692 19.3365 10.9125C19.3167 13.1074 18.4303 15.2056 16.8702 16.7508C15.3102 18.2958 13.2026 19.1626 11.0063 19.1625ZM15.5216 12.9875C15.2714 12.8625 14.0582 12.2625 13.833 12.1875C13.6079 12.1125 13.4328 12.0625 13.2702 12.3125C13.0255 12.6477 12.7624 12.9689 12.4822 13.275C12.3446 13.45 12.1945 13.4625 11.9443 13.275C10.5181 12.7118 9.32983 11.6743 8.57974 10.3375C8.31707 9.90004 8.82989 9.92504 9.30519 8.98755C9.34034 8.91992 9.3586 8.84492 9.3586 8.7688C9.3586 8.69267 9.34034 8.61767 9.30519 8.55005C9.30519 8.42504 8.74234 7.20004 8.54221 6.71254C8.34209 6.22504 8.14196 6.30004 7.97936 6.28754H7.49156C7.36517 6.28948 7.24065 6.31837 7.12633 6.37226C7.01201 6.42614 6.91052 6.50381 6.82864 6.60004C6.54799 6.87277 6.32909 7.20244 6.18669 7.56684C6.04429 7.93124 5.9817 8.32191 6.00313 8.71255C6.08155 9.64767 6.43393 10.5389 7.01626 11.275C8.08218 12.8698 9.54296 14.1617 11.2564 15.025C12.1551 15.5493 13.1995 15.7685 14.2333 15.65C14.5775 15.5818 14.9036 15.4419 15.1901 15.2394C15.4768 15.037 15.7176 14.7765 15.8968 14.475C16.0629 14.107 16.1152 13.6979 16.0469 13.3C15.9343 13.175 15.7717 13.1125 15.5216 12.9875Z" fill="white"/>
</svg>
