<svg width="22" height="22" viewBox="0 0 22 22" fill="none" xmlns="http://www.w3.org/2000/svg">
<path d="M13.2734 2.90625V7.30327C13.2734 7.68301 13.3057 7.96188 13.3705 8.14035C13.4757 8.41592 13.7147 8.5533 14.087 8.5533C14.4917 8.5533 14.9088 8.3232 15.3379 7.86148V8.47527H16.4433V2.90625H15.3381V7.15824C15.0951 7.47865 14.8646 7.6382 14.6457 7.6382C14.5001 7.6382 14.4149 7.55665 14.3908 7.39272C14.3827 7.378 14.3786 7.24747 14.3786 7.00221V2.90625H13.2734Z" fill="white"/>
<path d="M10.7445 8.55394C11.3032 8.55394 11.7322 8.36427 12.0319 7.98496C12.2586 7.70979 12.372 7.27051 12.372 6.66793V4.71487C12.372 4.11975 12.2586 3.68464 12.0319 3.40925C11.7322 3.02952 11.3032 2.83984 10.7445 2.83984C10.2018 2.83984 9.7768 3.02952 9.46901 3.40925C9.24228 3.68485 9.12891 4.11996 9.12891 4.71487V6.66793C9.12891 7.26348 9.24228 7.70257 9.46901 7.98496C9.77657 8.36427 10.2018 8.55394 10.7445 8.55394ZM10.2221 4.51381C10.2221 4.00064 10.3962 3.744 10.7444 3.744C11.0924 3.744 11.2668 4.00067 11.2668 4.51381V6.8576C11.2668 7.37867 11.0924 7.63887 10.7444 7.63887C10.3962 7.63887 10.2221 7.37867 10.2221 6.8576V4.51381Z" fill="white"/>
<path d="M7.6475 8.47766V5.45326L9.11715 1H7.87826L7.05244 3.93538L6.18977 1H4.90234C5.12908 1.62525 5.39216 2.32102 5.69182 3.08689C6.07234 4.11407 6.31916 4.90256 6.43276 5.45329V8.47748H7.64746L7.6475 8.47766Z" fill="white"/>
<path d="M18.9859 10.2322C18.6255 9.93489 18.2106 9.76016 17.7411 9.70766C16.2511 9.5591 14.0042 9.48438 11.0003 9.48438C7.99612 9.48438 5.75321 9.55889 4.27136 9.70766C3.7935 9.75998 3.37664 9.93489 3.02028 10.2322C2.66392 10.5304 2.42909 10.8983 2.31572 11.3374C2.10501 12.2006 2 13.5023 2 15.2437C2 17.0145 2.10524 18.3164 2.31572 19.15C2.42092 19.5886 2.65364 19.9569 3.01407 20.2547C3.37426 20.5525 3.7892 20.7235 4.2589 20.7683C5.74867 20.9243 7.99561 21.0024 11 21.0024C14.0042 21.0024 16.2511 20.9243 17.7409 20.7683C18.2104 20.7235 18.6234 20.5525 18.9797 20.2547C19.3358 19.9569 19.5707 19.5886 19.6843 19.15C19.8948 18.2867 20 16.9846 20 15.2437C20 13.4728 19.8948 12.1709 19.6843 11.3374C19.5788 10.8983 19.3461 10.5304 18.9859 10.2322ZM7.1377 12.4644H5.83809V18.8149H4.62358V12.4644H3.34839V11.4154H7.13798V12.4644H7.1377ZM10.4169 18.8149H9.33587V18.2118C8.89865 18.6656 8.48566 18.8929 8.09698 18.8929C7.72436 18.8929 7.48973 18.7551 7.39242 18.4799C7.32759 18.3013 7.29531 18.0301 7.29531 17.6651V13.3012H8.37636V17.364C8.37636 17.602 8.38042 17.7323 8.38855 17.7545C8.41294 17.9105 8.49786 17.9886 8.64374 17.9886C8.86235 17.9886 9.09315 17.8325 9.33614 17.5198V13.3012H10.4172V18.8149H10.4169ZM14.5466 17.1631C14.5466 17.7064 14.5102 18.0782 14.4373 18.2791C14.2995 18.6881 14.0122 18.8929 13.5748 18.8929C13.1862 18.8929 12.8097 18.6881 12.4453 18.2791V18.8149H11.3642V11.4154H12.4453V13.8372C12.7932 13.4357 13.1699 13.2346 13.5748 13.2346C14.012 13.2346 14.2995 13.443 14.4373 13.8594C14.5102 14.053 14.5466 14.4213 14.5466 14.9646V17.1631ZM18.6518 16.248H16.4778V17.2189C16.4778 17.7325 16.6639 17.9887 17.0365 17.9887C17.3037 17.9887 17.4656 17.8549 17.5223 17.5872C17.5383 17.5127 17.5466 17.2859 17.5466 16.9062H18.6518V17.0514C18.6518 17.4162 18.6437 17.6316 18.6274 17.6989C18.603 17.9 18.5181 18.1004 18.3725 18.3014C18.081 18.6955 17.6438 18.8931 17.0607 18.8931C16.502 18.8931 16.0646 18.7034 15.7489 18.3237C15.514 18.0485 15.3966 17.6173 15.3966 17.0293V15.0984C15.3966 14.5108 15.51 14.0792 15.7367 13.8035C16.0524 13.4242 16.4855 13.2346 17.0363 13.2346C17.5787 13.2346 18.008 13.4242 18.3237 13.8035C18.5423 14.0792 18.6516 14.5107 18.6516 15.0984V16.248H18.6518Z" fill="white"/>
<path d="M17.023 14.1367C16.6586 14.1367 16.4766 14.3899 16.4766 14.8958V15.4094H17.5698V14.8958C17.5695 14.3901 17.3875 14.1367 17.023 14.1367Z" fill="white"/>
<path d="M12.9918 14.1367C12.8055 14.1367 12.6232 14.2187 12.4453 14.3827V17.7417C12.6233 17.9057 12.8055 17.9872 12.9918 17.9872C13.3075 17.9872 13.4656 17.7382 13.4656 17.2396V14.8848C13.4653 14.3861 13.3075 14.1367 12.9918 14.1367Z" fill="white"/>
</svg>
